%TF.GenerationSoftware,KiCad,Pcbnew,8.0.7*%
%TF.CreationDate,2025-04-29T17:51:55-05:00*%
%TF.ProjectId,PCB_Glasses,5043425f-476c-4617-9373-65732e6b6963,rev?*%
%TF.SameCoordinates,Original*%
%TF.FileFunction,Copper,L1,Top*%
%TF.FilePolarity,Positive*%
%FSLAX46Y46*%
G04 Gerber Fmt 4.6, Leading zero omitted, Abs format (unit mm)*
G04 Created by KiCad (PCBNEW 8.0.7) date 2025-04-29 17:51:55*
%MOMM*%
%LPD*%
G01*
G04 APERTURE LIST*
G04 Aperture macros list*
%AMRoundRect*
0 Rectangle with rounded corners*
0 $1 Rounding radius*
0 $2 $3 $4 $5 $6 $7 $8 $9 X,Y pos of 4 corners*
0 Add a 4 corners polygon primitive as box body*
4,1,4,$2,$3,$4,$5,$6,$7,$8,$9,$2,$3,0*
0 Add four circle primitives for the rounded corners*
1,1,$1+$1,$2,$3*
1,1,$1+$1,$4,$5*
1,1,$1+$1,$6,$7*
1,1,$1+$1,$8,$9*
0 Add four rect primitives between the rounded corners*
20,1,$1+$1,$2,$3,$4,$5,0*
20,1,$1+$1,$4,$5,$6,$7,0*
20,1,$1+$1,$6,$7,$8,$9,0*
20,1,$1+$1,$8,$9,$2,$3,0*%
G04 Aperture macros list end*
%TA.AperFunction,SMDPad,CuDef*%
%ADD10R,1.500000X1.500000*%
%TD*%
%TA.AperFunction,ComponentPad*%
%ADD11C,1.524000*%
%TD*%
%TA.AperFunction,SMDPad,CuDef*%
%ADD12R,3.150000X1.000000*%
%TD*%
%TA.AperFunction,ComponentPad*%
%ADD13O,2.500000X1.500000*%
%TD*%
%TA.AperFunction,SMDPad,CuDef*%
%ADD14RoundRect,0.243750X0.243750X0.456250X-0.243750X0.456250X-0.243750X-0.456250X0.243750X-0.456250X0*%
%TD*%
%TA.AperFunction,SMDPad,CuDef*%
%ADD15RoundRect,0.250000X-0.400000X-0.625000X0.400000X-0.625000X0.400000X0.625000X-0.400000X0.625000X0*%
%TD*%
%TA.AperFunction,ComponentPad*%
%ADD16RoundRect,0.250000X0.750000X-0.600000X0.750000X0.600000X-0.750000X0.600000X-0.750000X-0.600000X0*%
%TD*%
%TA.AperFunction,ComponentPad*%
%ADD17O,2.000000X1.700000*%
%TD*%
%TA.AperFunction,ComponentPad*%
%ADD18RoundRect,0.250000X-0.750000X0.600000X-0.750000X-0.600000X0.750000X-0.600000X0.750000X0.600000X0*%
%TD*%
%TA.AperFunction,ComponentPad*%
%ADD19RoundRect,0.250000X-0.600000X-0.725000X0.600000X-0.725000X0.600000X0.725000X-0.600000X0.725000X0*%
%TD*%
%TA.AperFunction,ComponentPad*%
%ADD20O,1.700000X1.950000*%
%TD*%
%TA.AperFunction,SMDPad,CuDef*%
%ADD21RoundRect,0.250000X0.400000X0.625000X-0.400000X0.625000X-0.400000X-0.625000X0.400000X-0.625000X0*%
%TD*%
%TA.AperFunction,ViaPad*%
%ADD22C,0.600000*%
%TD*%
%TA.AperFunction,Conductor*%
%ADD23C,0.200000*%
%TD*%
%TA.AperFunction,Conductor*%
%ADD24C,0.500000*%
%TD*%
G04 APERTURE END LIST*
D10*
%TO.P,SW1,1,1*%
%TO.N,GND*%
X58510000Y-29210000D03*
%TO.P,SW1,2,2*%
%TO.N,Net-(U1-D6)*%
X50710000Y-29210000D03*
%TD*%
D11*
%TO.P,U2,1,VCC*%
%TO.N,+3V8*%
X72330000Y-34500000D03*
%TO.P,U2,2,GND*%
%TO.N,GND*%
X69790000Y-34500000D03*
%TO.P,U2,3,SCL*%
%TO.N,/SCL*%
X67250000Y-34500000D03*
%TO.P,U2,4,SDA*%
%TO.N,/SDA*%
X64710000Y-34500000D03*
%TO.P,U2,5,XDA*%
%TO.N,unconnected-(U2-XDA-Pad5)*%
X62170000Y-34500000D03*
%TO.P,U2,6,XCL*%
%TO.N,unconnected-(U2-XCL-Pad6)*%
X59630000Y-34500000D03*
%TO.P,U2,7,ADD*%
%TO.N,GND*%
X57090000Y-34500000D03*
%TO.P,U2,8,INT*%
%TO.N,unconnected-(U2-INT-Pad8)*%
X54550000Y-34500000D03*
%TD*%
D12*
%TO.P,U1,1,D0*%
%TO.N,Net-(U1-D0)*%
X46275000Y-48740000D03*
%TO.P,U1,2,D1*%
%TO.N,/D1*%
X46275000Y-46200000D03*
%TO.P,U1,3,D2*%
%TO.N,/D2*%
X46275000Y-43660000D03*
%TO.P,U1,4,D3*%
%TO.N,Net-(U1-D3)*%
X46275000Y-41120000D03*
%TO.P,U1,5,D4*%
%TO.N,/SDA*%
X46275000Y-38580000D03*
%TO.P,U1,6,D5*%
%TO.N,/SCL*%
X46275000Y-36040000D03*
%TO.P,U1,7,D6*%
%TO.N,Net-(U1-D6)*%
X46275000Y-33500000D03*
%TO.P,U1,8,D7*%
%TO.N,unconnected-(U1-D7-Pad8)*%
X30250000Y-33500000D03*
%TO.P,U1,9,D8*%
%TO.N,unconnected-(U1-D8-Pad9)*%
X30250000Y-36040000D03*
%TO.P,U1,10,D9*%
%TO.N,unconnected-(U1-D9-Pad10)*%
X30250000Y-38580000D03*
%TO.P,U1,11,D10*%
%TO.N,unconnected-(U1-D10-Pad11)*%
X30250000Y-41120000D03*
%TO.P,U1,12,VCC_3V3*%
%TO.N,+3.3V*%
X30250000Y-43660000D03*
%TO.P,U1,13,GND*%
%TO.N,GND*%
X30250000Y-46200000D03*
%TO.P,U1,14,VUSB*%
%TO.N,unconnected-(U1-VUSB-Pad14)*%
X30250000Y-48740000D03*
D13*
%TO.P,U1,B+,Batt+*%
%TO.N,+3V8*%
X42615000Y-41420000D03*
%TO.P,U1,B-,Batt-*%
%TO.N,GND*%
X42604000Y-43320000D03*
%TD*%
D14*
%TO.P,D1,1,K*%
%TO.N,GND*%
X47187500Y-29250000D03*
%TO.P,D1,2,A*%
%TO.N,Net-(D1-A)*%
X45312500Y-29250000D03*
%TD*%
D15*
%TO.P,R2,1*%
%TO.N,Net-(U1-D0)*%
X21750000Y-49250000D03*
%TO.P,R2,2*%
%TO.N,GND*%
X24850000Y-49250000D03*
%TD*%
D16*
%TO.P,J1,1,Pin_1*%
%TO.N,GND*%
X23250000Y-37750000D03*
D17*
%TO.P,J1,2,Pin_2*%
%TO.N,+3V8*%
X23250000Y-35250000D03*
%TD*%
D18*
%TO.P,J4,1,Pin_1*%
%TO.N,/D2*%
X77000000Y-41750000D03*
D17*
%TO.P,J4,2,Pin_2*%
%TO.N,/D1*%
X77000000Y-44250000D03*
%TD*%
D19*
%TO.P,J2,1,Pin_1*%
%TO.N,+3.3V*%
X64250000Y-29250000D03*
D20*
%TO.P,J2,2,Pin_2*%
%TO.N,GND*%
X66750000Y-29250000D03*
%TO.P,J2,3,Pin_3*%
%TO.N,/SDA*%
X69250000Y-29250000D03*
%TO.P,J2,4,Pin_4*%
%TO.N,/SCL*%
X71750000Y-29250000D03*
%TD*%
D15*
%TO.P,R1,1*%
%TO.N,Net-(U1-D0)*%
X22000000Y-43815000D03*
%TO.P,R1,2*%
%TO.N,+3.3V*%
X25100000Y-43815000D03*
%TD*%
D21*
%TO.P,R3,1*%
%TO.N,Net-(D1-A)*%
X41050000Y-29250000D03*
%TO.P,R3,2*%
%TO.N,Net-(U1-D3)*%
X37950000Y-29250000D03*
%TD*%
D22*
%TO.N,+3.3V*%
X36195000Y-41910000D03*
%TO.N,/SCL*%
X60960000Y-36830000D03*
%TD*%
D23*
%TO.N,+3.3V*%
X34445000Y-43660000D02*
X36195000Y-41910000D01*
X30250000Y-43660000D02*
X34445000Y-43660000D01*
%TO.N,/D1*%
X53495000Y-46200000D02*
X46275000Y-46200000D01*
X55445000Y-44250000D02*
X53495000Y-46200000D01*
X77000000Y-44250000D02*
X55445000Y-44250000D01*
%TO.N,/D2*%
X54130000Y-43660000D02*
X46275000Y-43660000D01*
X77000000Y-41750000D02*
X56040000Y-41750000D01*
X56040000Y-41750000D02*
X54130000Y-43660000D01*
%TO.N,Net-(D1-A)*%
X41050000Y-29250000D02*
X45312500Y-29250000D01*
%TO.N,Net-(U1-D3)*%
X45565000Y-41120000D02*
X37950000Y-33505000D01*
X37950000Y-33505000D02*
X37950000Y-29250000D01*
X46275000Y-41120000D02*
X45565000Y-41120000D01*
D24*
%TO.N,Net-(U1-D0)*%
X21750000Y-44065000D02*
X22000000Y-43815000D01*
X21750000Y-49250000D02*
X21750000Y-44065000D01*
%TO.N,+3.3V*%
X30250000Y-43660000D02*
X25255000Y-43660000D01*
X25255000Y-43660000D02*
X25100000Y-43815000D01*
%TO.N,+3V8*%
X34290000Y-34925000D02*
X23575000Y-34925000D01*
X23575000Y-34925000D02*
X23250000Y-35250000D01*
X40785000Y-41420000D02*
X34290000Y-34925000D01*
X42615000Y-41420000D02*
X40785000Y-41420000D01*
D23*
%TO.N,Net-(U1-D6)*%
X49685000Y-33500000D02*
X46275000Y-33500000D01*
X50710000Y-32475000D02*
X49685000Y-33500000D01*
X50710000Y-29210000D02*
X50710000Y-32475000D01*
%TO.N,/SCL*%
X50010000Y-36040000D02*
X46275000Y-36040000D01*
X50800000Y-36830000D02*
X50010000Y-36040000D01*
X60960000Y-36830000D02*
X50800000Y-36830000D01*
X71750000Y-30000000D02*
X67250000Y-34500000D01*
X71750000Y-29250000D02*
X71750000Y-30000000D01*
%TO.N,/SDA*%
X69250000Y-29960000D02*
X64710000Y-34500000D01*
X69250000Y-29250000D02*
X69250000Y-29960000D01*
X60630000Y-38580000D02*
X46275000Y-38580000D01*
X64710000Y-34500000D02*
X60630000Y-38580000D01*
%TD*%
M02*
