%TF.GenerationSoftware,KiCad,Pcbnew,8.0.7*%
%TF.CreationDate,2025-04-29T17:51:55-05:00*%
%TF.ProjectId,PCB_Glasses,5043425f-476c-4617-9373-65732e6b6963,rev?*%
%TF.SameCoordinates,Original*%
%TF.FileFunction,Copper,L2,Bot*%
%TF.FilePolarity,Positive*%
%FSLAX46Y46*%
G04 Gerber Fmt 4.6, Leading zero omitted, Abs format (unit mm)*
G04 Created by KiCad (PCBNEW 8.0.7) date 2025-04-29 17:51:55*
%MOMM*%
%LPD*%
G01*
G04 APERTURE LIST*
G04 Aperture macros list*
%AMRoundRect*
0 Rectangle with rounded corners*
0 $1 Rounding radius*
0 $2 $3 $4 $5 $6 $7 $8 $9 X,Y pos of 4 corners*
0 Add a 4 corners polygon primitive as box body*
4,1,4,$2,$3,$4,$5,$6,$7,$8,$9,$2,$3,0*
0 Add four circle primitives for the rounded corners*
1,1,$1+$1,$2,$3*
1,1,$1+$1,$4,$5*
1,1,$1+$1,$6,$7*
1,1,$1+$1,$8,$9*
0 Add four rect primitives between the rounded corners*
20,1,$1+$1,$2,$3,$4,$5,0*
20,1,$1+$1,$4,$5,$6,$7,0*
20,1,$1+$1,$6,$7,$8,$9,0*
20,1,$1+$1,$8,$9,$2,$3,0*%
G04 Aperture macros list end*
%TA.AperFunction,ComponentPad*%
%ADD10C,1.524000*%
%TD*%
%TA.AperFunction,ComponentPad*%
%ADD11O,2.500000X1.500000*%
%TD*%
%TA.AperFunction,ComponentPad*%
%ADD12RoundRect,0.250000X0.750000X-0.600000X0.750000X0.600000X-0.750000X0.600000X-0.750000X-0.600000X0*%
%TD*%
%TA.AperFunction,ComponentPad*%
%ADD13O,2.000000X1.700000*%
%TD*%
%TA.AperFunction,ComponentPad*%
%ADD14RoundRect,0.250000X-0.750000X0.600000X-0.750000X-0.600000X0.750000X-0.600000X0.750000X0.600000X0*%
%TD*%
%TA.AperFunction,ComponentPad*%
%ADD15RoundRect,0.250000X-0.600000X-0.725000X0.600000X-0.725000X0.600000X0.725000X-0.600000X0.725000X0*%
%TD*%
%TA.AperFunction,ComponentPad*%
%ADD16O,1.700000X1.950000*%
%TD*%
%TA.AperFunction,ViaPad*%
%ADD17C,0.600000*%
%TD*%
%TA.AperFunction,Conductor*%
%ADD18C,0.200000*%
%TD*%
%TA.AperFunction,Conductor*%
%ADD19C,0.500000*%
%TD*%
G04 APERTURE END LIST*
D10*
%TO.P,U2,1,VCC*%
%TO.N,+3V8*%
X72330000Y-34500000D03*
%TO.P,U2,2,GND*%
%TO.N,GND*%
X69790000Y-34500000D03*
%TO.P,U2,3,SCL*%
%TO.N,/SCL*%
X67250000Y-34500000D03*
%TO.P,U2,4,SDA*%
%TO.N,/SDA*%
X64710000Y-34500000D03*
%TO.P,U2,5,XDA*%
%TO.N,unconnected-(U2-XDA-Pad5)*%
X62170000Y-34500000D03*
%TO.P,U2,6,XCL*%
%TO.N,unconnected-(U2-XCL-Pad6)*%
X59630000Y-34500000D03*
%TO.P,U2,7,ADD*%
%TO.N,GND*%
X57090000Y-34500000D03*
%TO.P,U2,8,INT*%
%TO.N,unconnected-(U2-INT-Pad8)*%
X54550000Y-34500000D03*
%TD*%
D11*
%TO.P,U1,B+,Batt+*%
%TO.N,+3V8*%
X42615000Y-41420000D03*
%TO.P,U1,B-,Batt-*%
%TO.N,GND*%
X42604000Y-43320000D03*
%TD*%
D12*
%TO.P,J1,1,Pin_1*%
%TO.N,GND*%
X23250000Y-37750000D03*
D13*
%TO.P,J1,2,Pin_2*%
%TO.N,+3V8*%
X23250000Y-35250000D03*
%TD*%
D14*
%TO.P,J4,1,Pin_1*%
%TO.N,/D2*%
X77000000Y-41750000D03*
D13*
%TO.P,J4,2,Pin_2*%
%TO.N,/D1*%
X77000000Y-44250000D03*
%TD*%
D15*
%TO.P,J2,1,Pin_1*%
%TO.N,+3.3V*%
X64250000Y-29250000D03*
D16*
%TO.P,J2,2,Pin_2*%
%TO.N,GND*%
X66750000Y-29250000D03*
%TO.P,J2,3,Pin_3*%
%TO.N,/SDA*%
X69250000Y-29250000D03*
%TO.P,J2,4,Pin_4*%
%TO.N,/SCL*%
X71750000Y-29250000D03*
%TD*%
D17*
%TO.N,+3.3V*%
X36195000Y-41910000D03*
%TO.N,/SCL*%
X60960000Y-36830000D03*
%TD*%
D18*
%TO.N,+3.3V*%
X48855000Y-29250000D02*
X64250000Y-29250000D01*
X36195000Y-41910000D02*
X48855000Y-29250000D01*
D19*
%TO.N,+3V8*%
X65410000Y-41420000D02*
X42615000Y-41420000D01*
X72330000Y-34500000D02*
X65410000Y-41420000D01*
D18*
%TO.N,/SCL*%
X60991765Y-36798235D02*
X64951765Y-36798235D01*
X64951765Y-36798235D02*
X67250000Y-34500000D01*
X60960000Y-36830000D02*
X60991765Y-36798235D01*
%TD*%
%TA.AperFunction,Conductor*%
%TO.N,GND*%
G36*
X79192539Y-27020185D02*
G01*
X79238294Y-27072989D01*
X79249500Y-27124500D01*
X79249500Y-28445445D01*
X79229815Y-28512484D01*
X79177011Y-28558239D01*
X79107853Y-28568183D01*
X79044297Y-28539158D01*
X79022398Y-28514336D01*
X79014519Y-28502544D01*
X78824327Y-28285672D01*
X78607452Y-28095478D01*
X78367613Y-27935223D01*
X78367606Y-27935219D01*
X78108905Y-27807642D01*
X77835760Y-27714921D01*
X77835754Y-27714919D01*
X77835753Y-27714919D01*
X77835751Y-27714918D01*
X77835745Y-27714917D01*
X77552849Y-27658646D01*
X77552839Y-27658644D01*
X77265000Y-27639778D01*
X76977161Y-27658644D01*
X76977155Y-27658645D01*
X76977150Y-27658646D01*
X76694254Y-27714917D01*
X76694239Y-27714921D01*
X76421094Y-27807642D01*
X76162393Y-27935219D01*
X76162386Y-27935223D01*
X75922547Y-28095478D01*
X75705672Y-28285672D01*
X75515478Y-28502547D01*
X75355223Y-28742386D01*
X75355219Y-28742393D01*
X75227642Y-29001094D01*
X75134921Y-29274239D01*
X75134917Y-29274254D01*
X75081728Y-29541657D01*
X75078644Y-29557161D01*
X75059778Y-29845000D01*
X75071855Y-30029266D01*
X75078644Y-30132837D01*
X75078646Y-30132849D01*
X75134917Y-30415745D01*
X75134921Y-30415760D01*
X75227642Y-30688905D01*
X75355219Y-30947606D01*
X75355223Y-30947613D01*
X75515478Y-31187452D01*
X75705672Y-31404327D01*
X75922546Y-31594520D01*
X76162389Y-31754778D01*
X76421098Y-31882359D01*
X76694247Y-31975081D01*
X76977161Y-32031356D01*
X77265000Y-32050222D01*
X77552839Y-32031356D01*
X77835753Y-31975081D01*
X78108902Y-31882359D01*
X78367611Y-31754778D01*
X78607454Y-31594520D01*
X78824327Y-31404327D01*
X79014520Y-31187454D01*
X79022397Y-31175665D01*
X79076007Y-31130860D01*
X79145332Y-31122150D01*
X79208360Y-31152303D01*
X79245081Y-31211745D01*
X79249500Y-31244554D01*
X79249500Y-50676000D01*
X79229815Y-50743039D01*
X79177011Y-50788794D01*
X79125500Y-50800000D01*
X20444000Y-50800000D01*
X20376961Y-50780315D01*
X20331206Y-50727511D01*
X20320000Y-50676000D01*
X20320000Y-43070000D01*
X40878016Y-43070000D01*
X41670988Y-43070000D01*
X41638075Y-43127007D01*
X41604000Y-43254174D01*
X41604000Y-43385826D01*
X41638075Y-43512993D01*
X41670988Y-43570000D01*
X40878016Y-43570000D01*
X40884781Y-43612716D01*
X40945581Y-43799837D01*
X41034904Y-43975143D01*
X41150555Y-44134321D01*
X41289678Y-44273444D01*
X41448856Y-44389095D01*
X41624164Y-44478418D01*
X41811294Y-44539221D01*
X42005618Y-44570000D01*
X42354000Y-44570000D01*
X42354000Y-43820000D01*
X42854000Y-43820000D01*
X42854000Y-44570000D01*
X43202382Y-44570000D01*
X43396705Y-44539221D01*
X43583835Y-44478418D01*
X43759143Y-44389095D01*
X43918321Y-44273444D01*
X44045235Y-44146530D01*
X75799500Y-44146530D01*
X75799500Y-44353469D01*
X75839868Y-44556412D01*
X75839870Y-44556420D01*
X75919058Y-44747596D01*
X76034024Y-44919657D01*
X76180342Y-45065975D01*
X76180345Y-45065977D01*
X76352402Y-45180941D01*
X76543580Y-45260130D01*
X76746530Y-45300499D01*
X76746534Y-45300500D01*
X76746535Y-45300500D01*
X77253466Y-45300500D01*
X77253467Y-45300499D01*
X77456420Y-45260130D01*
X77647598Y-45180941D01*
X77819655Y-45065977D01*
X77965977Y-44919655D01*
X78080941Y-44747598D01*
X78160130Y-44556420D01*
X78200500Y-44353465D01*
X78200500Y-44146535D01*
X78160130Y-43943580D01*
X78080941Y-43752402D01*
X77965977Y-43580345D01*
X77965975Y-43580342D01*
X77819657Y-43434024D01*
X77733626Y-43376541D01*
X77647598Y-43319059D01*
X77456420Y-43239870D01*
X77456412Y-43239868D01*
X77253469Y-43199500D01*
X77253465Y-43199500D01*
X76746535Y-43199500D01*
X76746530Y-43199500D01*
X76543587Y-43239868D01*
X76543579Y-43239870D01*
X76352403Y-43319058D01*
X76180342Y-43434024D01*
X76034024Y-43580342D01*
X75919058Y-43752403D01*
X75839870Y-43943579D01*
X75839868Y-43943587D01*
X75799500Y-44146530D01*
X44045235Y-44146530D01*
X44057444Y-44134321D01*
X44173095Y-43975143D01*
X44262418Y-43799837D01*
X44323218Y-43612716D01*
X44329984Y-43570000D01*
X43537012Y-43570000D01*
X43569925Y-43512993D01*
X43604000Y-43385826D01*
X43604000Y-43254174D01*
X43569925Y-43127007D01*
X43537012Y-43070000D01*
X44329984Y-43070000D01*
X44323218Y-43027283D01*
X44262418Y-42840162D01*
X44173095Y-42664856D01*
X44057444Y-42505678D01*
X43918322Y-42366556D01*
X43918313Y-42366549D01*
X43800820Y-42281183D01*
X43758154Y-42225853D01*
X43752176Y-42156240D01*
X43784783Y-42094445D01*
X43785959Y-42093250D01*
X43853302Y-42025908D01*
X43878788Y-41987764D01*
X43920320Y-41925609D01*
X43973932Y-41880804D01*
X44023422Y-41870500D01*
X65469308Y-41870500D01*
X65469309Y-41870500D01*
X65559673Y-41846286D01*
X65583887Y-41839799D01*
X65686614Y-41780489D01*
X66371373Y-41095730D01*
X75799500Y-41095730D01*
X75799500Y-42404269D01*
X75802353Y-42434699D01*
X75802353Y-42434701D01*
X75847206Y-42562880D01*
X75847207Y-42562882D01*
X75927850Y-42672150D01*
X76037118Y-42752793D01*
X76079845Y-42767744D01*
X76165299Y-42797646D01*
X76195730Y-42800500D01*
X76195734Y-42800500D01*
X77804270Y-42800500D01*
X77834699Y-42797646D01*
X77834701Y-42797646D01*
X77898790Y-42775219D01*
X77962882Y-42752793D01*
X78072150Y-42672150D01*
X78152793Y-42562882D01*
X78175219Y-42498790D01*
X78197646Y-42434701D01*
X78197646Y-42434699D01*
X78200500Y-42404269D01*
X78200500Y-41095730D01*
X78197646Y-41065300D01*
X78197646Y-41065298D01*
X78152793Y-40937119D01*
X78152792Y-40937117D01*
X78149887Y-40933181D01*
X78072150Y-40827850D01*
X77962882Y-40747207D01*
X77962880Y-40747206D01*
X77834700Y-40702353D01*
X77804270Y-40699500D01*
X77804266Y-40699500D01*
X76195734Y-40699500D01*
X76195730Y-40699500D01*
X76165300Y-40702353D01*
X76165298Y-40702353D01*
X76037119Y-40747206D01*
X76037117Y-40747207D01*
X75927850Y-40827850D01*
X75847207Y-40937117D01*
X75847206Y-40937119D01*
X75802353Y-41065298D01*
X75802353Y-41065300D01*
X75799500Y-41095730D01*
X66371373Y-41095730D01*
X71994555Y-35472547D01*
X72055876Y-35439064D01*
X72118230Y-35441570D01*
X72141314Y-35448572D01*
X72141316Y-35448573D01*
X72158233Y-35450239D01*
X72330000Y-35467157D01*
X72518683Y-35448573D01*
X72700115Y-35393537D01*
X72867324Y-35304162D01*
X73013883Y-35183883D01*
X73134162Y-35037324D01*
X73223537Y-34870115D01*
X73278573Y-34688683D01*
X73297157Y-34500000D01*
X73278573Y-34311317D01*
X73223537Y-34129885D01*
X73217719Y-34119000D01*
X73134165Y-33962681D01*
X73134161Y-33962674D01*
X73013883Y-33816116D01*
X72867325Y-33695838D01*
X72867318Y-33695834D01*
X72700122Y-33606466D01*
X72700119Y-33606465D01*
X72700118Y-33606464D01*
X72700115Y-33606463D01*
X72518683Y-33551427D01*
X72518681Y-33551426D01*
X72518683Y-33551426D01*
X72330000Y-33532843D01*
X72141318Y-33551426D01*
X72034194Y-33583921D01*
X71959885Y-33606463D01*
X71959882Y-33606464D01*
X71959880Y-33606465D01*
X71959877Y-33606466D01*
X71792681Y-33695834D01*
X71792674Y-33695838D01*
X71646116Y-33816116D01*
X71525838Y-33962674D01*
X71525834Y-33962681D01*
X71436466Y-34129877D01*
X71436465Y-34129880D01*
X71436464Y-34129882D01*
X71436463Y-34129885D01*
X71416673Y-34195124D01*
X71381426Y-34311318D01*
X71362843Y-34499999D01*
X71381426Y-34688681D01*
X71388430Y-34711769D01*
X71389053Y-34781636D01*
X71357450Y-34835444D01*
X71205460Y-34987434D01*
X71144137Y-35020919D01*
X71074445Y-35015935D01*
X71018512Y-34974063D01*
X70994095Y-34908599D01*
X70998004Y-34867659D01*
X71037574Y-34719982D01*
X71037575Y-34719976D01*
X71056821Y-34500000D01*
X71056821Y-34499999D01*
X71037575Y-34280023D01*
X71037573Y-34280013D01*
X70980424Y-34066729D01*
X70980420Y-34066720D01*
X70887096Y-33866586D01*
X70841741Y-33801811D01*
X70841740Y-33801810D01*
X70171000Y-34472553D01*
X70171000Y-34449840D01*
X70145036Y-34352939D01*
X70094876Y-34266060D01*
X70023940Y-34195124D01*
X69937061Y-34144964D01*
X69840160Y-34119000D01*
X69817447Y-34119000D01*
X70488188Y-33448258D01*
X70423411Y-33402901D01*
X70423405Y-33402898D01*
X70223284Y-33309580D01*
X70223270Y-33309575D01*
X70009986Y-33252426D01*
X70009976Y-33252424D01*
X69790001Y-33233179D01*
X69789999Y-33233179D01*
X69570023Y-33252424D01*
X69570013Y-33252426D01*
X69356729Y-33309575D01*
X69356720Y-33309579D01*
X69156590Y-33402901D01*
X69091811Y-33448258D01*
X69762554Y-34119000D01*
X69739840Y-34119000D01*
X69642939Y-34144964D01*
X69556060Y-34195124D01*
X69485124Y-34266060D01*
X69434964Y-34352939D01*
X69409000Y-34449840D01*
X69409000Y-34472553D01*
X68738258Y-33801811D01*
X68692901Y-33866590D01*
X68599579Y-34066720D01*
X68599575Y-34066729D01*
X68542426Y-34280013D01*
X68542424Y-34280023D01*
X68523179Y-34499999D01*
X68523179Y-34500000D01*
X68542424Y-34719976D01*
X68542426Y-34719986D01*
X68599575Y-34933270D01*
X68599580Y-34933284D01*
X68692898Y-35133405D01*
X68692901Y-35133411D01*
X68738258Y-35198187D01*
X68738258Y-35198188D01*
X69409000Y-34527446D01*
X69409000Y-34550160D01*
X69434964Y-34647061D01*
X69485124Y-34733940D01*
X69556060Y-34804876D01*
X69642939Y-34855036D01*
X69739840Y-34881000D01*
X69762553Y-34881000D01*
X69091810Y-35551740D01*
X69156590Y-35597099D01*
X69156592Y-35597100D01*
X69356715Y-35690419D01*
X69356729Y-35690424D01*
X69570013Y-35747573D01*
X69570023Y-35747575D01*
X69789999Y-35766821D01*
X69790001Y-35766821D01*
X70009976Y-35747575D01*
X70009982Y-35747574D01*
X70157660Y-35708004D01*
X70227510Y-35709667D01*
X70285373Y-35748829D01*
X70312877Y-35813058D01*
X70301291Y-35881960D01*
X70277435Y-35915460D01*
X65259716Y-40933181D01*
X65198393Y-40966666D01*
X65172035Y-40969500D01*
X44023422Y-40969500D01*
X43956383Y-40949815D01*
X43920320Y-40914391D01*
X43853302Y-40814092D01*
X43853299Y-40814088D01*
X43720911Y-40681700D01*
X43720907Y-40681697D01*
X43565237Y-40577681D01*
X43565228Y-40577676D01*
X43392251Y-40506027D01*
X43392243Y-40506025D01*
X43208620Y-40469500D01*
X43208616Y-40469500D01*
X42021384Y-40469500D01*
X42021379Y-40469500D01*
X41837756Y-40506025D01*
X41837748Y-40506027D01*
X41664771Y-40577676D01*
X41664762Y-40577681D01*
X41509092Y-40681697D01*
X41509088Y-40681700D01*
X41376700Y-40814088D01*
X41376697Y-40814092D01*
X41272681Y-40969762D01*
X41272676Y-40969771D01*
X41201027Y-41142748D01*
X41201025Y-41142756D01*
X41164500Y-41326379D01*
X41164500Y-41513620D01*
X41201025Y-41697243D01*
X41201027Y-41697251D01*
X41272676Y-41870228D01*
X41272681Y-41870237D01*
X41376697Y-42025907D01*
X41376700Y-42025911D01*
X41434717Y-42083928D01*
X41468202Y-42145251D01*
X41463218Y-42214943D01*
X41421346Y-42270876D01*
X41419922Y-42271927D01*
X41289678Y-42366555D01*
X41150555Y-42505678D01*
X41034904Y-42664856D01*
X40945581Y-42840162D01*
X40884781Y-43027283D01*
X40878016Y-43070000D01*
X20320000Y-43070000D01*
X20320000Y-41910000D01*
X35689353Y-41910000D01*
X35709834Y-42052456D01*
X35758173Y-42158302D01*
X35769623Y-42183373D01*
X35863872Y-42292143D01*
X35984947Y-42369953D01*
X35984950Y-42369954D01*
X35984949Y-42369954D01*
X36123036Y-42410499D01*
X36123038Y-42410500D01*
X36123039Y-42410500D01*
X36266962Y-42410500D01*
X36266962Y-42410499D01*
X36405053Y-42369953D01*
X36526128Y-42292143D01*
X36620377Y-42183373D01*
X36680165Y-42052457D01*
X36700647Y-41910000D01*
X36699339Y-41900905D01*
X36709279Y-41831749D01*
X36734392Y-41795577D01*
X41699970Y-36830000D01*
X60454353Y-36830000D01*
X60474834Y-36972456D01*
X60533095Y-37100028D01*
X60534623Y-37103373D01*
X60628872Y-37212143D01*
X60749947Y-37289953D01*
X60749950Y-37289954D01*
X60749949Y-37289954D01*
X60888036Y-37330499D01*
X60888038Y-37330500D01*
X60888039Y-37330500D01*
X61031962Y-37330500D01*
X61031962Y-37330499D01*
X61170053Y-37289953D01*
X61291128Y-37212143D01*
X61352312Y-37141531D01*
X61411090Y-37103758D01*
X61446025Y-37098735D01*
X64991325Y-37098735D01*
X64991327Y-37098735D01*
X65067754Y-37078256D01*
X65136276Y-37038695D01*
X65192225Y-36982746D01*
X66751795Y-35423174D01*
X66813116Y-35389691D01*
X66875470Y-35392196D01*
X66879877Y-35393533D01*
X66879885Y-35393537D01*
X67061317Y-35448573D01*
X67250000Y-35467157D01*
X67438683Y-35448573D01*
X67620115Y-35393537D01*
X67787324Y-35304162D01*
X67933883Y-35183883D01*
X68054162Y-35037324D01*
X68143537Y-34870115D01*
X68198573Y-34688683D01*
X68217157Y-34500000D01*
X68198573Y-34311317D01*
X68143537Y-34129885D01*
X68137719Y-34119000D01*
X68054165Y-33962681D01*
X68054161Y-33962674D01*
X67933883Y-33816116D01*
X67787325Y-33695838D01*
X67787318Y-33695834D01*
X67620122Y-33606466D01*
X67620119Y-33606465D01*
X67620118Y-33606464D01*
X67620115Y-33606463D01*
X67438683Y-33551427D01*
X67438681Y-33551426D01*
X67438683Y-33551426D01*
X67250000Y-33532843D01*
X67061318Y-33551426D01*
X66954194Y-33583921D01*
X66879885Y-33606463D01*
X66879882Y-33606464D01*
X66879880Y-33606465D01*
X66879877Y-33606466D01*
X66712681Y-33695834D01*
X66712674Y-33695838D01*
X66566116Y-33816116D01*
X66445838Y-33962674D01*
X66445834Y-33962681D01*
X66356466Y-34129877D01*
X66356465Y-34129880D01*
X66356464Y-34129882D01*
X66356463Y-34129885D01*
X66336673Y-34195124D01*
X66301426Y-34311318D01*
X66282843Y-34500000D01*
X66301426Y-34688681D01*
X66357802Y-34874529D01*
X66358425Y-34944396D01*
X66326822Y-34998205D01*
X64863613Y-36461416D01*
X64802290Y-36494901D01*
X64775932Y-36497735D01*
X61390977Y-36497735D01*
X61323938Y-36478050D01*
X61297264Y-36454938D01*
X61291128Y-36447857D01*
X61291126Y-36447856D01*
X61170053Y-36370047D01*
X61170051Y-36370046D01*
X61170049Y-36370045D01*
X61170050Y-36370045D01*
X61031963Y-36329500D01*
X61031961Y-36329500D01*
X60888039Y-36329500D01*
X60888036Y-36329500D01*
X60749949Y-36370045D01*
X60628873Y-36447856D01*
X60534623Y-36556626D01*
X60534622Y-36556628D01*
X60474834Y-36687543D01*
X60454353Y-36830000D01*
X41699970Y-36830000D01*
X44029970Y-34500000D01*
X53582843Y-34500000D01*
X53601426Y-34688681D01*
X53615155Y-34733940D01*
X53656463Y-34870115D01*
X53656464Y-34870118D01*
X53656465Y-34870119D01*
X53656466Y-34870122D01*
X53745834Y-35037318D01*
X53745838Y-35037325D01*
X53866116Y-35183883D01*
X54012674Y-35304161D01*
X54012681Y-35304165D01*
X54179877Y-35393533D01*
X54179878Y-35393533D01*
X54179885Y-35393537D01*
X54361317Y-35448573D01*
X54361316Y-35448573D01*
X54378233Y-35450239D01*
X54550000Y-35467157D01*
X54738683Y-35448573D01*
X54920115Y-35393537D01*
X55087324Y-35304162D01*
X55233883Y-35183883D01*
X55354162Y-35037324D01*
X55443537Y-34870115D01*
X55498573Y-34688683D01*
X55517157Y-34500000D01*
X55517157Y-34499999D01*
X55823179Y-34499999D01*
X55823179Y-34500000D01*
X55842424Y-34719976D01*
X55842426Y-34719986D01*
X55899575Y-34933270D01*
X55899580Y-34933284D01*
X55992898Y-35133405D01*
X55992901Y-35133411D01*
X56038258Y-35198187D01*
X56038258Y-35198188D01*
X56709000Y-34527446D01*
X56709000Y-34550160D01*
X56734964Y-34647061D01*
X56785124Y-34733940D01*
X56856060Y-34804876D01*
X56942939Y-34855036D01*
X57039840Y-34881000D01*
X57062553Y-34881000D01*
X56391810Y-35551740D01*
X56456590Y-35597099D01*
X56456592Y-35597100D01*
X56656715Y-35690419D01*
X56656729Y-35690424D01*
X56870013Y-35747573D01*
X56870023Y-35747575D01*
X57089999Y-35766821D01*
X57090001Y-35766821D01*
X57309976Y-35747575D01*
X57309986Y-35747573D01*
X57523270Y-35690424D01*
X57523284Y-35690419D01*
X57723407Y-35597100D01*
X57723417Y-35597094D01*
X57788188Y-35551741D01*
X57117448Y-34881000D01*
X57140160Y-34881000D01*
X57237061Y-34855036D01*
X57323940Y-34804876D01*
X57394876Y-34733940D01*
X57445036Y-34647061D01*
X57471000Y-34550160D01*
X57471000Y-34527447D01*
X58141741Y-35198188D01*
X58187094Y-35133417D01*
X58187100Y-35133407D01*
X58280419Y-34933284D01*
X58280424Y-34933270D01*
X58337573Y-34719986D01*
X58337575Y-34719976D01*
X58356821Y-34500000D01*
X58662843Y-34500000D01*
X58681426Y-34688681D01*
X58695155Y-34733940D01*
X58736463Y-34870115D01*
X58736464Y-34870118D01*
X58736465Y-34870119D01*
X58736466Y-34870122D01*
X58825834Y-35037318D01*
X58825838Y-35037325D01*
X58946116Y-35183883D01*
X59092674Y-35304161D01*
X59092681Y-35304165D01*
X59259877Y-35393533D01*
X59259878Y-35393533D01*
X59259885Y-35393537D01*
X59441317Y-35448573D01*
X59441316Y-35448573D01*
X59458233Y-35450239D01*
X59630000Y-35467157D01*
X59818683Y-35448573D01*
X60000115Y-35393537D01*
X60167324Y-35304162D01*
X60313883Y-35183883D01*
X60434162Y-35037324D01*
X60523537Y-34870115D01*
X60578573Y-34688683D01*
X60597157Y-34500000D01*
X61202843Y-34500000D01*
X61221426Y-34688681D01*
X61235155Y-34733940D01*
X61276463Y-34870115D01*
X61276464Y-34870118D01*
X61276465Y-34870119D01*
X61276466Y-34870122D01*
X61365834Y-35037318D01*
X61365838Y-35037325D01*
X61486116Y-35183883D01*
X61632674Y-35304161D01*
X61632681Y-35304165D01*
X61799877Y-35393533D01*
X61799878Y-35393533D01*
X61799885Y-35393537D01*
X61981317Y-35448573D01*
X61981316Y-35448573D01*
X61998233Y-35450239D01*
X62170000Y-35467157D01*
X62358683Y-35448573D01*
X62540115Y-35393537D01*
X62707324Y-35304162D01*
X62853883Y-35183883D01*
X62974162Y-35037324D01*
X63063537Y-34870115D01*
X63118573Y-34688683D01*
X63137157Y-34500000D01*
X63742843Y-34500000D01*
X63761426Y-34688681D01*
X63775155Y-34733940D01*
X63816463Y-34870115D01*
X63816464Y-34870118D01*
X63816465Y-34870119D01*
X63816466Y-34870122D01*
X63905834Y-35037318D01*
X63905838Y-35037325D01*
X64026116Y-35183883D01*
X64172674Y-35304161D01*
X64172681Y-35304165D01*
X64339877Y-35393533D01*
X64339878Y-35393533D01*
X64339885Y-35393537D01*
X64521317Y-35448573D01*
X64521316Y-35448573D01*
X64538233Y-35450239D01*
X64710000Y-35467157D01*
X64898683Y-35448573D01*
X65080115Y-35393537D01*
X65247324Y-35304162D01*
X65393883Y-35183883D01*
X65514162Y-35037324D01*
X65603537Y-34870115D01*
X65658573Y-34688683D01*
X65677157Y-34500000D01*
X65658573Y-34311317D01*
X65603537Y-34129885D01*
X65597719Y-34119000D01*
X65514165Y-33962681D01*
X65514161Y-33962674D01*
X65393883Y-33816116D01*
X65247325Y-33695838D01*
X65247318Y-33695834D01*
X65080122Y-33606466D01*
X65080119Y-33606465D01*
X65080118Y-33606464D01*
X65080115Y-33606463D01*
X64898683Y-33551427D01*
X64898681Y-33551426D01*
X64898683Y-33551426D01*
X64710000Y-33532843D01*
X64521318Y-33551426D01*
X64414194Y-33583921D01*
X64339885Y-33606463D01*
X64339882Y-33606464D01*
X64339880Y-33606465D01*
X64339877Y-33606466D01*
X64172681Y-33695834D01*
X64172674Y-33695838D01*
X64026116Y-33816116D01*
X63905838Y-33962674D01*
X63905834Y-33962681D01*
X63816466Y-34129877D01*
X63816465Y-34129880D01*
X63816464Y-34129882D01*
X63816463Y-34129885D01*
X63796673Y-34195124D01*
X63761426Y-34311318D01*
X63742843Y-34500000D01*
X63137157Y-34500000D01*
X63118573Y-34311317D01*
X63063537Y-34129885D01*
X63057719Y-34119000D01*
X62974165Y-33962681D01*
X62974161Y-33962674D01*
X62853883Y-33816116D01*
X62707325Y-33695838D01*
X62707318Y-33695834D01*
X62540122Y-33606466D01*
X62540119Y-33606465D01*
X62540118Y-33606464D01*
X62540115Y-33606463D01*
X62358683Y-33551427D01*
X62358681Y-33551426D01*
X62358683Y-33551426D01*
X62170000Y-33532843D01*
X61981318Y-33551426D01*
X61874194Y-33583921D01*
X61799885Y-33606463D01*
X61799882Y-33606464D01*
X61799880Y-33606465D01*
X61799877Y-33606466D01*
X61632681Y-33695834D01*
X61632674Y-33695838D01*
X61486116Y-33816116D01*
X61365838Y-33962674D01*
X61365834Y-33962681D01*
X61276466Y-34129877D01*
X61276465Y-34129880D01*
X61276464Y-34129882D01*
X61276463Y-34129885D01*
X61256673Y-34195124D01*
X61221426Y-34311318D01*
X61202843Y-34500000D01*
X60597157Y-34500000D01*
X60578573Y-34311317D01*
X60523537Y-34129885D01*
X60517719Y-34119000D01*
X60434165Y-33962681D01*
X60434161Y-33962674D01*
X60313883Y-33816116D01*
X60167325Y-33695838D01*
X60167318Y-33695834D01*
X60000122Y-33606466D01*
X60000119Y-33606465D01*
X60000118Y-33606464D01*
X60000115Y-33606463D01*
X59818683Y-33551427D01*
X59818681Y-33551426D01*
X59818683Y-33551426D01*
X59630000Y-33532843D01*
X59441318Y-33551426D01*
X59334194Y-33583921D01*
X59259885Y-33606463D01*
X59259882Y-33606464D01*
X59259880Y-33606465D01*
X59259877Y-33606466D01*
X59092681Y-33695834D01*
X59092674Y-33695838D01*
X58946116Y-33816116D01*
X58825838Y-33962674D01*
X58825834Y-33962681D01*
X58736466Y-34129877D01*
X58736465Y-34129880D01*
X58736464Y-34129882D01*
X58736463Y-34129885D01*
X58716673Y-34195124D01*
X58681426Y-34311318D01*
X58662843Y-34500000D01*
X58356821Y-34500000D01*
X58356821Y-34499999D01*
X58337575Y-34280023D01*
X58337573Y-34280013D01*
X58280424Y-34066729D01*
X58280420Y-34066720D01*
X58187096Y-33866586D01*
X58141741Y-33801811D01*
X58141740Y-33801810D01*
X57471000Y-34472551D01*
X57471000Y-34449840D01*
X57445036Y-34352939D01*
X57394876Y-34266060D01*
X57323940Y-34195124D01*
X57237061Y-34144964D01*
X57140160Y-34119000D01*
X57117447Y-34119000D01*
X57788188Y-33448258D01*
X57723411Y-33402901D01*
X57723405Y-33402898D01*
X57523284Y-33309580D01*
X57523270Y-33309575D01*
X57309986Y-33252426D01*
X57309976Y-33252424D01*
X57090001Y-33233179D01*
X57089999Y-33233179D01*
X56870023Y-33252424D01*
X56870013Y-33252426D01*
X56656729Y-33309575D01*
X56656720Y-33309579D01*
X56456590Y-33402901D01*
X56391811Y-33448258D01*
X57062554Y-34119000D01*
X57039840Y-34119000D01*
X56942939Y-34144964D01*
X56856060Y-34195124D01*
X56785124Y-34266060D01*
X56734964Y-34352939D01*
X56709000Y-34449840D01*
X56709000Y-34472553D01*
X56038258Y-33801811D01*
X55992901Y-33866590D01*
X55899579Y-34066720D01*
X55899575Y-34066729D01*
X55842426Y-34280013D01*
X55842424Y-34280023D01*
X55823179Y-34499999D01*
X55517157Y-34499999D01*
X55498573Y-34311317D01*
X55443537Y-34129885D01*
X55437719Y-34119000D01*
X55354165Y-33962681D01*
X55354161Y-33962674D01*
X55233883Y-33816116D01*
X55087325Y-33695838D01*
X55087318Y-33695834D01*
X54920122Y-33606466D01*
X54920119Y-33606465D01*
X54920118Y-33606464D01*
X54920115Y-33606463D01*
X54738683Y-33551427D01*
X54738681Y-33551426D01*
X54738683Y-33551426D01*
X54550000Y-33532843D01*
X54361318Y-33551426D01*
X54254194Y-33583921D01*
X54179885Y-33606463D01*
X54179882Y-33606464D01*
X54179880Y-33606465D01*
X54179877Y-33606466D01*
X54012681Y-33695834D01*
X54012674Y-33695838D01*
X53866116Y-33816116D01*
X53745838Y-33962674D01*
X53745834Y-33962681D01*
X53656466Y-34129877D01*
X53656465Y-34129880D01*
X53656464Y-34129882D01*
X53656463Y-34129885D01*
X53636673Y-34195124D01*
X53601426Y-34311318D01*
X53582843Y-34500000D01*
X44029970Y-34500000D01*
X48943152Y-29586819D01*
X49004475Y-29553334D01*
X49030833Y-29550500D01*
X63075500Y-29550500D01*
X63142539Y-29570185D01*
X63188294Y-29622989D01*
X63199500Y-29674500D01*
X63199500Y-30029269D01*
X63202353Y-30059699D01*
X63202353Y-30059701D01*
X63247206Y-30187880D01*
X63247207Y-30187882D01*
X63327850Y-30297150D01*
X63437118Y-30377793D01*
X63458089Y-30385131D01*
X63565299Y-30422646D01*
X63595730Y-30425500D01*
X63595734Y-30425500D01*
X64904270Y-30425500D01*
X64934699Y-30422646D01*
X64934701Y-30422646D01*
X64998790Y-30400219D01*
X65062882Y-30377793D01*
X65172150Y-30297150D01*
X65252793Y-30187882D01*
X65289648Y-30082557D01*
X65297646Y-30059701D01*
X65297646Y-30059699D01*
X65300500Y-30029269D01*
X65300500Y-30020323D01*
X65320185Y-29953284D01*
X65372989Y-29907529D01*
X65442147Y-29897585D01*
X65505703Y-29926610D01*
X65534985Y-29964028D01*
X65595379Y-30082557D01*
X65720272Y-30254459D01*
X65720276Y-30254464D01*
X65870535Y-30404723D01*
X65870540Y-30404727D01*
X66042442Y-30529620D01*
X66231782Y-30626095D01*
X66433871Y-30691757D01*
X66500000Y-30702231D01*
X66500000Y-29654145D01*
X66566657Y-29692630D01*
X66687465Y-29725000D01*
X66812535Y-29725000D01*
X66933343Y-29692630D01*
X67000000Y-29654145D01*
X67000000Y-30702230D01*
X67066126Y-30691757D01*
X67066129Y-30691757D01*
X67268217Y-30626095D01*
X67457557Y-30529620D01*
X67629459Y-30404727D01*
X67629464Y-30404723D01*
X67779723Y-30254464D01*
X67779727Y-30254459D01*
X67904620Y-30082557D01*
X68001095Y-29893217D01*
X68040759Y-29771144D01*
X68080196Y-29713469D01*
X68144555Y-29686270D01*
X68213401Y-29698184D01*
X68264877Y-29745428D01*
X68273251Y-29762009D01*
X68319057Y-29872596D01*
X68434024Y-30044657D01*
X68580342Y-30190975D01*
X68580345Y-30190977D01*
X68752402Y-30305941D01*
X68943580Y-30385130D01*
X69132187Y-30422646D01*
X69146530Y-30425499D01*
X69146534Y-30425500D01*
X69146535Y-30425500D01*
X69353466Y-30425500D01*
X69353467Y-30425499D01*
X69556420Y-30385130D01*
X69747598Y-30305941D01*
X69919655Y-30190977D01*
X70065977Y-30044655D01*
X70180941Y-29872598D01*
X70260130Y-29681420D01*
X70300500Y-29478465D01*
X70300500Y-29021535D01*
X70300499Y-29021530D01*
X70699500Y-29021530D01*
X70699500Y-29478469D01*
X70739868Y-29681412D01*
X70739870Y-29681420D01*
X70757921Y-29725000D01*
X70819059Y-29872598D01*
X70872971Y-29953284D01*
X70934024Y-30044657D01*
X71080342Y-30190975D01*
X71080345Y-30190977D01*
X71252402Y-30305941D01*
X71443580Y-30385130D01*
X71632187Y-30422646D01*
X71646530Y-30425499D01*
X71646534Y-30425500D01*
X71646535Y-30425500D01*
X71853466Y-30425500D01*
X71853467Y-30425499D01*
X72056420Y-30385130D01*
X72247598Y-30305941D01*
X72419655Y-30190977D01*
X72565977Y-30044655D01*
X72680941Y-29872598D01*
X72760130Y-29681420D01*
X72800500Y-29478465D01*
X72800500Y-29021535D01*
X72760130Y-28818580D01*
X72680941Y-28627402D01*
X72565977Y-28455345D01*
X72565975Y-28455342D01*
X72419657Y-28309024D01*
X72324638Y-28245535D01*
X72247598Y-28194059D01*
X72056420Y-28114870D01*
X72056412Y-28114868D01*
X71853469Y-28074500D01*
X71853465Y-28074500D01*
X71646535Y-28074500D01*
X71646530Y-28074500D01*
X71443587Y-28114868D01*
X71443579Y-28114870D01*
X71252403Y-28194058D01*
X71080342Y-28309024D01*
X70934024Y-28455342D01*
X70819058Y-28627403D01*
X70739870Y-28818579D01*
X70739868Y-28818587D01*
X70699500Y-29021530D01*
X70300499Y-29021530D01*
X70260130Y-28818580D01*
X70180941Y-28627402D01*
X70065977Y-28455345D01*
X70065975Y-28455342D01*
X69919657Y-28309024D01*
X69824638Y-28245535D01*
X69747598Y-28194059D01*
X69556420Y-28114870D01*
X69556412Y-28114868D01*
X69353469Y-28074500D01*
X69353465Y-28074500D01*
X69146535Y-28074500D01*
X69146530Y-28074500D01*
X68943587Y-28114868D01*
X68943579Y-28114870D01*
X68752403Y-28194058D01*
X68580342Y-28309024D01*
X68434024Y-28455342D01*
X68319057Y-28627404D01*
X68273251Y-28737990D01*
X68229409Y-28792394D01*
X68163115Y-28814458D01*
X68095416Y-28797178D01*
X68047806Y-28746041D01*
X68040759Y-28728855D01*
X68001095Y-28606782D01*
X67904620Y-28417442D01*
X67779727Y-28245540D01*
X67779723Y-28245535D01*
X67629464Y-28095276D01*
X67629459Y-28095272D01*
X67457557Y-27970379D01*
X67268215Y-27873903D01*
X67066124Y-27808241D01*
X67000000Y-27797768D01*
X67000000Y-28845854D01*
X66933343Y-28807370D01*
X66812535Y-28775000D01*
X66687465Y-28775000D01*
X66566657Y-28807370D01*
X66500000Y-28845854D01*
X66500000Y-27797768D01*
X66499999Y-27797768D01*
X66433875Y-27808241D01*
X66231784Y-27873903D01*
X66042442Y-27970379D01*
X65870540Y-28095272D01*
X65870535Y-28095276D01*
X65720276Y-28245535D01*
X65720272Y-28245540D01*
X65595379Y-28417442D01*
X65534985Y-28535971D01*
X65487010Y-28586767D01*
X65419189Y-28603562D01*
X65353054Y-28581024D01*
X65309603Y-28526309D01*
X65300500Y-28479676D01*
X65300500Y-28470730D01*
X65297646Y-28440300D01*
X65297646Y-28440298D01*
X65252793Y-28312119D01*
X65252792Y-28312117D01*
X65172150Y-28202850D01*
X65062882Y-28122207D01*
X65062880Y-28122206D01*
X64934700Y-28077353D01*
X64904270Y-28074500D01*
X64904266Y-28074500D01*
X63595734Y-28074500D01*
X63595730Y-28074500D01*
X63565300Y-28077353D01*
X63565298Y-28077353D01*
X63437119Y-28122206D01*
X63437117Y-28122207D01*
X63327850Y-28202850D01*
X63247207Y-28312117D01*
X63247206Y-28312119D01*
X63202353Y-28440298D01*
X63202353Y-28440300D01*
X63199500Y-28470730D01*
X63199500Y-28825500D01*
X63179815Y-28892539D01*
X63127011Y-28938294D01*
X63075500Y-28949500D01*
X48815438Y-28949500D01*
X48739010Y-28969978D01*
X48670489Y-29009540D01*
X48670486Y-29009542D01*
X36306847Y-41373181D01*
X36245524Y-41406666D01*
X36219166Y-41409500D01*
X36123036Y-41409500D01*
X35984949Y-41450045D01*
X35863873Y-41527856D01*
X35769623Y-41636626D01*
X35769622Y-41636628D01*
X35709834Y-41767543D01*
X35689353Y-41910000D01*
X20320000Y-41910000D01*
X20320000Y-37100013D01*
X21750000Y-37100013D01*
X21750000Y-37500000D01*
X22816988Y-37500000D01*
X22784075Y-37557007D01*
X22750000Y-37684174D01*
X22750000Y-37815826D01*
X22784075Y-37942993D01*
X22816988Y-38000000D01*
X21750001Y-38000000D01*
X21750001Y-38399986D01*
X21760494Y-38502697D01*
X21815641Y-38669119D01*
X21815643Y-38669124D01*
X21907684Y-38818345D01*
X22031654Y-38942315D01*
X22180875Y-39034356D01*
X22180880Y-39034358D01*
X22347302Y-39089505D01*
X22347309Y-39089506D01*
X22450019Y-39099999D01*
X22999999Y-39099999D01*
X23000000Y-39099998D01*
X23000000Y-38183012D01*
X23057007Y-38215925D01*
X23184174Y-38250000D01*
X23315826Y-38250000D01*
X23442993Y-38215925D01*
X23500000Y-38183012D01*
X23500000Y-39099999D01*
X24049972Y-39099999D01*
X24049986Y-39099998D01*
X24152697Y-39089505D01*
X24319119Y-39034358D01*
X24319124Y-39034356D01*
X24468345Y-38942315D01*
X24592315Y-38818345D01*
X24684356Y-38669124D01*
X24684358Y-38669119D01*
X24739505Y-38502697D01*
X24739506Y-38502690D01*
X24749999Y-38399986D01*
X24750000Y-38399973D01*
X24750000Y-38000000D01*
X23683012Y-38000000D01*
X23715925Y-37942993D01*
X23750000Y-37815826D01*
X23750000Y-37684174D01*
X23715925Y-37557007D01*
X23683012Y-37500000D01*
X24749999Y-37500000D01*
X24749999Y-37100028D01*
X24749998Y-37100013D01*
X24739505Y-36997302D01*
X24684358Y-36830880D01*
X24684356Y-36830875D01*
X24592315Y-36681654D01*
X24468345Y-36557684D01*
X24319124Y-36465643D01*
X24319119Y-36465641D01*
X24152697Y-36410494D01*
X24152690Y-36410493D01*
X24049986Y-36400000D01*
X23978526Y-36400000D01*
X23911487Y-36380315D01*
X23865732Y-36327511D01*
X23855788Y-36258353D01*
X23884813Y-36194797D01*
X23909633Y-36172899D01*
X24069655Y-36065977D01*
X24215977Y-35919655D01*
X24330941Y-35747598D01*
X24410130Y-35556420D01*
X24450500Y-35353465D01*
X24450500Y-35146535D01*
X24410130Y-34943580D01*
X24330941Y-34752402D01*
X24215977Y-34580345D01*
X24215975Y-34580342D01*
X24069657Y-34434024D01*
X23948303Y-34352939D01*
X23897598Y-34319059D01*
X23878907Y-34311317D01*
X23706420Y-34239870D01*
X23706412Y-34239868D01*
X23503469Y-34199500D01*
X23503465Y-34199500D01*
X22996535Y-34199500D01*
X22996530Y-34199500D01*
X22793587Y-34239868D01*
X22793579Y-34239870D01*
X22602403Y-34319058D01*
X22430342Y-34434024D01*
X22284024Y-34580342D01*
X22169058Y-34752403D01*
X22089870Y-34943579D01*
X22089868Y-34943587D01*
X22049500Y-35146530D01*
X22049500Y-35353469D01*
X22089868Y-35556412D01*
X22089870Y-35556420D01*
X22169048Y-35747573D01*
X22169059Y-35747598D01*
X22212798Y-35813058D01*
X22284024Y-35919657D01*
X22430342Y-36065975D01*
X22430345Y-36065977D01*
X22590367Y-36172899D01*
X22635170Y-36226509D01*
X22643878Y-36295834D01*
X22613724Y-36358862D01*
X22554282Y-36395581D01*
X22521477Y-36400000D01*
X22450029Y-36400000D01*
X22450012Y-36400001D01*
X22347302Y-36410494D01*
X22180880Y-36465641D01*
X22180875Y-36465643D01*
X22031654Y-36557684D01*
X21907684Y-36681654D01*
X21815643Y-36830875D01*
X21815641Y-36830880D01*
X21760494Y-36997302D01*
X21760493Y-36997309D01*
X21750000Y-37100013D01*
X20320000Y-37100013D01*
X20320000Y-29845000D01*
X21494778Y-29845000D01*
X21506855Y-30029266D01*
X21513644Y-30132837D01*
X21513646Y-30132849D01*
X21569917Y-30415745D01*
X21569921Y-30415760D01*
X21662642Y-30688905D01*
X21790219Y-30947606D01*
X21790223Y-30947613D01*
X21950478Y-31187452D01*
X22140672Y-31404327D01*
X22357546Y-31594520D01*
X22597389Y-31754778D01*
X22856098Y-31882359D01*
X23129247Y-31975081D01*
X23412161Y-32031356D01*
X23700000Y-32050222D01*
X23987839Y-32031356D01*
X24270753Y-31975081D01*
X24543902Y-31882359D01*
X24802611Y-31754778D01*
X25042454Y-31594520D01*
X25259327Y-31404327D01*
X25449520Y-31187454D01*
X25609778Y-30947611D01*
X25737359Y-30688902D01*
X25830081Y-30415753D01*
X25886356Y-30132839D01*
X25905222Y-29845000D01*
X25886356Y-29557161D01*
X25830081Y-29274247D01*
X25737359Y-29001098D01*
X25609778Y-28742389D01*
X25548458Y-28650617D01*
X25449521Y-28502547D01*
X25259327Y-28285672D01*
X25042452Y-28095478D01*
X24802613Y-27935223D01*
X24802606Y-27935219D01*
X24543905Y-27807642D01*
X24270760Y-27714921D01*
X24270754Y-27714919D01*
X24270753Y-27714919D01*
X24270751Y-27714918D01*
X24270745Y-27714917D01*
X23987849Y-27658646D01*
X23987839Y-27658644D01*
X23700000Y-27639778D01*
X23412161Y-27658644D01*
X23412155Y-27658645D01*
X23412150Y-27658646D01*
X23129254Y-27714917D01*
X23129239Y-27714921D01*
X22856094Y-27807642D01*
X22597393Y-27935219D01*
X22597386Y-27935223D01*
X22357547Y-28095478D01*
X22140672Y-28285672D01*
X21950478Y-28502547D01*
X21790223Y-28742386D01*
X21790219Y-28742393D01*
X21662642Y-29001094D01*
X21569921Y-29274239D01*
X21569917Y-29274254D01*
X21516728Y-29541657D01*
X21513644Y-29557161D01*
X21494778Y-29845000D01*
X20320000Y-29845000D01*
X20320000Y-27124500D01*
X20339685Y-27057461D01*
X20392489Y-27011706D01*
X20444000Y-27000500D01*
X79125500Y-27000500D01*
X79192539Y-27020185D01*
G37*
%TD.AperFunction*%
%TD*%
M02*
