M48
; DRILL file {KiCad 8.0.7} date 2025-04-29T17:53:41-0500
; FORMAT={3:3/ absolute / metric / keep zeros}
; #@! TF.CreationDate,2025-04-29T17:53:41-05:00
; #@! TF.GenerationSoftware,Kicad,Pcbnew,8.0.7
; #@! TF.FileFunction,Plated,1,2,PTH
FMAT,2
METRIC
; #@! TA.AperFunction,Plated,PTH,ViaDrill
T1C0.300
; #@! TA.AperFunction,Plated,PTH,ComponentDrill
T2C0.762
; #@! TA.AperFunction,Plated,PTH,ComponentDrill
T3C0.950
; #@! TA.AperFunction,Plated,PTH,ComponentDrill
T4C1.000
%
G90
G05
T1
X036195Y-041910
X060960Y-036830
T2
X054550Y-034500
X057090Y-034500
X059630Y-034500
X062170Y-034500
X064710Y-034500
X067250Y-034500
X069790Y-034500
X072330Y-034500
T3
X064250Y-029250
X066750Y-029250
X069250Y-029250
X071750Y-029250
T4
X023250Y-035250
X023250Y-037750
X077000Y-041750
X077000Y-044250
T4
G00X043104Y-043320
M15
G01X042104Y-043320
M16
G05
G00X043115Y-041420
M15
G01X042115Y-041420
M16
G05
M30
