%TF.GenerationSoftware,KiCad,Pcbnew,8.0.7*%
%TF.CreationDate,2025-05-02T18:44:19-05:00*%
%TF.ProjectId,PCB_Glasses,5043425f-476c-4617-9373-65732e6b6963,rev?*%
%TF.SameCoordinates,Original*%
%TF.FileFunction,Drillmap*%
%TF.FilePolarity,Positive*%
%FSLAX45Y45*%
G04 Gerber Fmt 4.5, Leading zero omitted, Abs format (unit mm)*
G04 Created by KiCad (PCBNEW 8.0.7) date 2025-05-02 18:44:19*
%MOMM*%
%LPD*%
G01*
G04 APERTURE LIST*
%ADD10C,0.050000*%
%ADD11C,0.200000*%
G04 APERTURE END LIST*
D10*
X7896500Y-2984500D02*
G75*
G02*
X7556500Y-2984500I-170000J0D01*
G01*
X7556500Y-2984500D02*
G75*
G02*
X7896500Y-2984500I170000J0D01*
G01*
X2540000Y-2984500D02*
G75*
G02*
X2200000Y-2984500I-170000J0D01*
G01*
X2200000Y-2984500D02*
G75*
G02*
X2540000Y-2984500I170000J0D01*
G01*
X1975000Y-2650000D02*
X7975000Y-2650000D01*
X7975000Y-5150000D01*
X1975000Y-5150000D01*
X1975000Y-2650000D01*
D11*
X2233277Y-5463984D02*
X2233277Y-5263984D01*
X2233277Y-5263984D02*
X2280896Y-5263984D01*
X2280896Y-5263984D02*
X2309467Y-5273508D01*
X2309467Y-5273508D02*
X2328515Y-5292555D01*
X2328515Y-5292555D02*
X2338039Y-5311603D01*
X2338039Y-5311603D02*
X2347563Y-5349698D01*
X2347563Y-5349698D02*
X2347563Y-5378270D01*
X2347563Y-5378270D02*
X2338039Y-5416365D01*
X2338039Y-5416365D02*
X2328515Y-5435412D01*
X2328515Y-5435412D02*
X2309467Y-5454460D01*
X2309467Y-5454460D02*
X2280896Y-5463984D01*
X2280896Y-5463984D02*
X2233277Y-5463984D01*
X2433277Y-5463984D02*
X2433277Y-5330650D01*
X2433277Y-5368746D02*
X2442801Y-5349698D01*
X2442801Y-5349698D02*
X2452324Y-5340174D01*
X2452324Y-5340174D02*
X2471372Y-5330650D01*
X2471372Y-5330650D02*
X2490420Y-5330650D01*
X2557086Y-5463984D02*
X2557086Y-5330650D01*
X2557086Y-5263984D02*
X2547563Y-5273508D01*
X2547563Y-5273508D02*
X2557086Y-5283031D01*
X2557086Y-5283031D02*
X2566610Y-5273508D01*
X2566610Y-5273508D02*
X2557086Y-5263984D01*
X2557086Y-5263984D02*
X2557086Y-5283031D01*
X2680896Y-5463984D02*
X2661848Y-5454460D01*
X2661848Y-5454460D02*
X2652324Y-5435412D01*
X2652324Y-5435412D02*
X2652324Y-5263984D01*
X2785658Y-5463984D02*
X2766610Y-5454460D01*
X2766610Y-5454460D02*
X2757086Y-5435412D01*
X2757086Y-5435412D02*
X2757086Y-5263984D01*
X3014229Y-5463984D02*
X3014229Y-5263984D01*
X3014229Y-5263984D02*
X3080896Y-5406841D01*
X3080896Y-5406841D02*
X3147562Y-5263984D01*
X3147562Y-5263984D02*
X3147562Y-5463984D01*
X3328515Y-5463984D02*
X3328515Y-5359222D01*
X3328515Y-5359222D02*
X3318991Y-5340174D01*
X3318991Y-5340174D02*
X3299943Y-5330650D01*
X3299943Y-5330650D02*
X3261848Y-5330650D01*
X3261848Y-5330650D02*
X3242801Y-5340174D01*
X3328515Y-5454460D02*
X3309467Y-5463984D01*
X3309467Y-5463984D02*
X3261848Y-5463984D01*
X3261848Y-5463984D02*
X3242801Y-5454460D01*
X3242801Y-5454460D02*
X3233277Y-5435412D01*
X3233277Y-5435412D02*
X3233277Y-5416365D01*
X3233277Y-5416365D02*
X3242801Y-5397317D01*
X3242801Y-5397317D02*
X3261848Y-5387793D01*
X3261848Y-5387793D02*
X3309467Y-5387793D01*
X3309467Y-5387793D02*
X3328515Y-5378270D01*
X3423753Y-5330650D02*
X3423753Y-5530650D01*
X3423753Y-5340174D02*
X3442801Y-5330650D01*
X3442801Y-5330650D02*
X3480896Y-5330650D01*
X3480896Y-5330650D02*
X3499943Y-5340174D01*
X3499943Y-5340174D02*
X3509467Y-5349698D01*
X3509467Y-5349698D02*
X3518991Y-5368746D01*
X3518991Y-5368746D02*
X3518991Y-5425889D01*
X3518991Y-5425889D02*
X3509467Y-5444936D01*
X3509467Y-5444936D02*
X3499943Y-5454460D01*
X3499943Y-5454460D02*
X3480896Y-5463984D01*
X3480896Y-5463984D02*
X3442801Y-5463984D01*
X3442801Y-5463984D02*
X3423753Y-5454460D01*
X3604705Y-5444936D02*
X3614229Y-5454460D01*
X3614229Y-5454460D02*
X3604705Y-5463984D01*
X3604705Y-5463984D02*
X3595182Y-5454460D01*
X3595182Y-5454460D02*
X3604705Y-5444936D01*
X3604705Y-5444936D02*
X3604705Y-5463984D01*
X3604705Y-5340174D02*
X3614229Y-5349698D01*
X3614229Y-5349698D02*
X3604705Y-5359222D01*
X3604705Y-5359222D02*
X3595182Y-5349698D01*
X3595182Y-5349698D02*
X3604705Y-5340174D01*
X3604705Y-5340174D02*
X3604705Y-5359222D01*
M02*
