%TF.GenerationSoftware,KiCad,Pcbnew,8.0.7*%
%TF.CreationDate,2025-05-02T18:36:05-05:00*%
%TF.ProjectId,PCB_pecho,5043425f-7065-4636-986f-2e6b69636164,rev?*%
%TF.SameCoordinates,Original*%
%TF.FileFunction,Copper,L2,Bot*%
%TF.FilePolarity,Positive*%
%FSLAX46Y46*%
G04 Gerber Fmt 4.6, Leading zero omitted, Abs format (unit mm)*
G04 Created by KiCad (PCBNEW 8.0.7) date 2025-05-02 18:36:05*
%MOMM*%
%LPD*%
G01*
G04 APERTURE LIST*
G04 Aperture macros list*
%AMRoundRect*
0 Rectangle with rounded corners*
0 $1 Rounding radius*
0 $2 $3 $4 $5 $6 $7 $8 $9 X,Y pos of 4 corners*
0 Add a 4 corners polygon primitive as box body*
4,1,4,$2,$3,$4,$5,$6,$7,$8,$9,$2,$3,0*
0 Add four circle primitives for the rounded corners*
1,1,$1+$1,$2,$3*
1,1,$1+$1,$4,$5*
1,1,$1+$1,$6,$7*
1,1,$1+$1,$8,$9*
0 Add four rect primitives between the rounded corners*
20,1,$1+$1,$2,$3,$4,$5,0*
20,1,$1+$1,$4,$5,$6,$7,0*
20,1,$1+$1,$6,$7,$8,$9,0*
20,1,$1+$1,$8,$9,$2,$3,0*%
%AMHorizOval*
0 Thick line with rounded ends*
0 $1 width*
0 $2 $3 position (X,Y) of the first rounded end (center of the circle)*
0 $4 $5 position (X,Y) of the second rounded end (center of the circle)*
0 Add line between two ends*
20,1,$1,$2,$3,$4,$5,0*
0 Add two circle primitives to create the rounded ends*
1,1,$1,$2,$3*
1,1,$1,$4,$5*%
G04 Aperture macros list end*
%TA.AperFunction,ComponentPad*%
%ADD10RoundRect,0.250000X0.169710X-0.925648X0.941055X-0.006394X-0.169710X0.925648X-0.941055X0.006394X0*%
%TD*%
%TA.AperFunction,ComponentPad*%
%ADD11HorizOval,1.700000X-0.095756X0.080348X0.095756X-0.080348X0*%
%TD*%
%TA.AperFunction,ComponentPad*%
%ADD12R,1.700000X1.700000*%
%TD*%
%TA.AperFunction,ComponentPad*%
%ADD13C,1.700000*%
%TD*%
%TA.AperFunction,ComponentPad*%
%ADD14C,1.524000*%
%TD*%
%TA.AperFunction,ComponentPad*%
%ADD15C,1.530000*%
%TD*%
%TA.AperFunction,ComponentPad*%
%ADD16R,1.530000X1.530000*%
%TD*%
%TA.AperFunction,ComponentPad*%
%ADD17RoundRect,0.250000X0.600000X0.725000X-0.600000X0.725000X-0.600000X-0.725000X0.600000X-0.725000X0*%
%TD*%
%TA.AperFunction,ComponentPad*%
%ADD18O,1.700000X1.950000*%
%TD*%
%TA.AperFunction,ComponentPad*%
%ADD19RoundRect,0.250000X-0.725000X0.600000X-0.725000X-0.600000X0.725000X-0.600000X0.725000X0.600000X0*%
%TD*%
%TA.AperFunction,ComponentPad*%
%ADD20O,1.950000X1.700000*%
%TD*%
%TA.AperFunction,ComponentPad*%
%ADD21RoundRect,0.250000X-0.600000X-0.750000X0.600000X-0.750000X0.600000X0.750000X-0.600000X0.750000X0*%
%TD*%
%TA.AperFunction,ComponentPad*%
%ADD22O,1.700000X2.000000*%
%TD*%
%TA.AperFunction,ComponentPad*%
%ADD23RoundRect,0.250000X-0.600000X-0.725000X0.600000X-0.725000X0.600000X0.725000X-0.600000X0.725000X0*%
%TD*%
%TA.AperFunction,ViaPad*%
%ADD24C,1.270000*%
%TD*%
%TA.AperFunction,Conductor*%
%ADD25C,0.500000*%
%TD*%
G04 APERTURE END LIST*
D10*
%TO.P,J7,1,Pin_1*%
%TO.N,GND*%
X102870000Y-89535000D03*
D11*
%TO.P,J7,2,Pin_2*%
X104476969Y-87619889D03*
%TO.P,J7,3,Pin_3*%
X106083938Y-85704778D03*
%TO.P,J7,4,Pin_4*%
X107690907Y-83789667D03*
%TD*%
D12*
%TO.P,U4,1,IN+*%
%TO.N,+4V*%
X37089000Y-84820000D03*
D13*
%TO.P,U4,2,IN-*%
%TO.N,GND*%
X54089000Y-84820000D03*
%TO.P,U4,4,OUT-*%
X54089000Y-44320000D03*
%TO.P,U4,3,OUT+*%
%TO.N,+5V*%
X37089000Y-44320000D03*
%TD*%
D14*
%TO.P,U3,1,VCC*%
%TO.N,+3.3V*%
X113534000Y-40510000D03*
%TO.P,U3,2,GND*%
%TO.N,GND*%
X113534000Y-43050000D03*
%TO.P,U3,3,SCL*%
%TO.N,/SCL*%
X113534000Y-45590000D03*
%TO.P,U3,4,SDA*%
%TO.N,/SDA*%
X113534000Y-48130000D03*
%TO.P,U3,5,CSB*%
%TO.N,unconnected-(U3-CSB-Pad5)*%
X113534000Y-50670000D03*
%TO.P,U3,6,SDO*%
%TO.N,unconnected-(U3-SDO-Pad6)*%
X113534000Y-53210000D03*
%TD*%
%TO.P,U2,1,VCC*%
%TO.N,+5V*%
X94103000Y-39648000D03*
%TO.P,U2,2,GND*%
%TO.N,GND*%
X94103000Y-42188000D03*
%TO.P,U2,3,SCL*%
%TO.N,/SCL*%
X94103000Y-44728000D03*
%TO.P,U2,4,SDA*%
%TO.N,/SDA*%
X94103000Y-47268000D03*
%TO.P,U2,5,XDA*%
%TO.N,unconnected-(U2-XDA-Pad5)*%
X94103000Y-49808000D03*
%TO.P,U2,6,XCL*%
%TO.N,unconnected-(U2-XCL-Pad6)*%
X94103000Y-52348000D03*
%TO.P,U2,7,ADD*%
%TO.N,unconnected-(U2-ADD-Pad7)*%
X94103000Y-54888000D03*
%TO.P,U2,8,INT*%
%TO.N,unconnected-(U2-INT-Pad8)*%
X94103000Y-57428000D03*
%TD*%
D15*
%TO.P,U1,J1_22,GND*%
%TO.N,GND*%
X64770000Y-90170000D03*
%TO.P,U1,J3_22,GND*%
X87630000Y-90170000D03*
%TO.P,U1,J1_21,5V0*%
%TO.N,+5V*%
X64770000Y-87630000D03*
%TO.P,U1,J1_20,GPIO14*%
%TO.N,/D2*%
X64770000Y-85090000D03*
%TO.P,U1,J1_19,GPIO13*%
%TO.N,/D1*%
X64770000Y-82550000D03*
%TO.P,U1,J1_18,GPIO12*%
%TO.N,unconnected-(U1-GPIO12-PadJ1_18)*%
X64770000Y-80010000D03*
%TO.P,U1,J1_17,GPIO11*%
%TO.N,unconnected-(U1-GPIO11-PadJ1_17)*%
X64770000Y-77470000D03*
%TO.P,U1,J1_16,GPIO10*%
%TO.N,unconnected-(U1-GPIO10-PadJ1_16)*%
X64770000Y-74930000D03*
%TO.P,U1,J1_15,GPIO9*%
%TO.N,/SCL*%
X64770000Y-72390000D03*
%TO.P,U1,J1_14,GPIO46*%
%TO.N,unconnected-(U1-GPIO46-PadJ1_14)*%
X64770000Y-69850000D03*
%TO.P,U1,J1_13,GPIO3*%
%TO.N,unconnected-(U1-GPIO3-PadJ1_13)*%
X64770000Y-67310000D03*
%TO.P,U1,J1_12,GPIO8*%
%TO.N,/SDA*%
X64770000Y-64770000D03*
%TO.P,U1,J1_11,GPIO18*%
%TO.N,unconnected-(U1-GPIO18-PadJ1_11)*%
X64770000Y-62230000D03*
%TO.P,U1,J1_10,GPIO17*%
%TO.N,unconnected-(U1-GPIO17-PadJ1_10)*%
X64770000Y-59690000D03*
%TO.P,U1,J1_9,GPIO16*%
%TO.N,/D4*%
X64770000Y-57150000D03*
%TO.P,U1,J1_8,GPIO15*%
%TO.N,/D3*%
X64770000Y-54610000D03*
%TO.P,U1,J1_7,GPIO7*%
%TO.N,unconnected-(U1-GPIO7-PadJ1_7)*%
X64770000Y-52070000D03*
%TO.P,U1,J1_6,GPIO6*%
%TO.N,unconnected-(U1-GPIO6-PadJ1_6)*%
X64770000Y-49530000D03*
%TO.P,U1,J1_5,GPIO5*%
%TO.N,unconnected-(U1-GPIO5-PadJ1_5)*%
X64770000Y-46990000D03*
%TO.P,U1,J1_4,GPIO4*%
%TO.N,unconnected-(U1-GPIO4-PadJ1_4)*%
X64770000Y-44450000D03*
%TO.P,U1,J1_3,RST*%
%TO.N,unconnected-(U1-RST-PadJ1_3)*%
X64770000Y-41910000D03*
%TO.P,U1,J1_2,3V3*%
%TO.N,+3.3V*%
X64770000Y-39370000D03*
D16*
%TO.P,U1,J1_1,3V3*%
X64770000Y-36830000D03*
D15*
%TO.P,U1,J3_21,GND*%
%TO.N,GND*%
X87630000Y-87630000D03*
%TO.P,U1,J3_20,USB_D-/GPIO19*%
%TO.N,unconnected-(U1-USB_D-{slash}GPIO19-PadJ3_20)*%
X87630000Y-85090000D03*
%TO.P,U1,J3_19,USB_D+/GPIO20*%
%TO.N,unconnected-(U1-USB_D+{slash}GPIO20-PadJ3_19)*%
X87630000Y-82550000D03*
%TO.P,U1,J3_18,GPIO21*%
%TO.N,unconnected-(U1-GPIO21-PadJ3_18)*%
X87630000Y-80010000D03*
%TO.P,U1,J3_17,GPIO47*%
%TO.N,unconnected-(U1-GPIO47-PadJ3_17)*%
X87630000Y-77470000D03*
%TO.P,U1,J3_16,GPIO48*%
%TO.N,unconnected-(U1-GPIO48-PadJ3_16)*%
X87630000Y-74930000D03*
%TO.P,U1,J3_15,GPIO45*%
%TO.N,unconnected-(U1-GPIO45-PadJ3_15)*%
X87630000Y-72390000D03*
%TO.P,U1,J3_14,GPIO0*%
%TO.N,Net-(J2-Pin_1)*%
X87630000Y-69850000D03*
%TO.P,U1,J3_13,GPIO35*%
%TO.N,unconnected-(U1-GPIO35-PadJ3_13)*%
X87630000Y-67310000D03*
%TO.P,U1,J3_12,GPIO36*%
%TO.N,unconnected-(U1-GPIO36-PadJ3_12)*%
X87630000Y-64770000D03*
%TO.P,U1,J3_11,GPIO37*%
%TO.N,unconnected-(U1-GPIO37-PadJ3_11)*%
X87630000Y-62230000D03*
%TO.P,U1,J3_10,GPIO38*%
%TO.N,unconnected-(U1-GPIO38-PadJ3_10)*%
X87630000Y-59690000D03*
%TO.P,U1,J3_9,MTCK/GPIO39*%
%TO.N,unconnected-(U1-MTCK{slash}GPIO39-PadJ3_9)*%
X87630000Y-57150000D03*
%TO.P,U1,J3_8,MTDO/GPIO40*%
%TO.N,unconnected-(U1-MTDO{slash}GPIO40-PadJ3_8)*%
X87630000Y-54610000D03*
%TO.P,U1,J3_7,MTDI/GPIO41*%
%TO.N,unconnected-(U1-MTDI{slash}GPIO41-PadJ3_7)*%
X87630000Y-52070000D03*
%TO.P,U1,J3_6,MTMS/GPIO42*%
%TO.N,unconnected-(U1-MTMS{slash}GPIO42-PadJ3_6)*%
X87630000Y-49530000D03*
%TO.P,U1,J3_5,GPIO2*%
%TO.N,unconnected-(U1-GPIO2-PadJ3_5)*%
X87630000Y-46990000D03*
%TO.P,U1,J3_4,GPIO1*%
%TO.N,unconnected-(U1-GPIO1-PadJ3_4)*%
X87630000Y-44450000D03*
%TO.P,U1,J3_3,U0RXD/GPIO44*%
%TO.N,unconnected-(U1-U0RXD{slash}GPIO44-PadJ3_3)*%
X87630000Y-41910000D03*
%TO.P,U1,J3_2,U0TXD/GPIO43*%
%TO.N,unconnected-(U1-U0TXD{slash}GPIO43-PadJ3_2)*%
X87630000Y-39370000D03*
%TO.P,U1,J3_1,GND*%
%TO.N,GND*%
X87630000Y-36830000D03*
%TD*%
D17*
%TO.P,J6,1,Pin_1*%
%TO.N,GND*%
X53209000Y-97660000D03*
D18*
%TO.P,J6,2,Pin_2*%
X50709000Y-97660000D03*
%TO.P,J6,3,Pin_3*%
%TO.N,+4V*%
X48209000Y-97660000D03*
%TO.P,J6,4,Pin_4*%
X45709000Y-97660000D03*
%TD*%
D19*
%TO.P,J5,1,Pin_1*%
%TO.N,+5V*%
X103374000Y-67815000D03*
D20*
%TO.P,J5,2,Pin_2*%
%TO.N,GND*%
X103374000Y-70315000D03*
%TO.P,J5,3,Pin_3*%
%TO.N,/SDA*%
X103374000Y-72815000D03*
%TO.P,J5,4,Pin_4*%
%TO.N,/SCL*%
X103374000Y-75315000D03*
%TD*%
D19*
%TO.P,J4,1,Pin_1*%
%TO.N,+3.3V*%
X110994000Y-67855000D03*
D20*
%TO.P,J4,2,Pin_2*%
%TO.N,GND*%
X110994000Y-70355000D03*
%TO.P,J4,3,Pin_3*%
%TO.N,/SDA*%
X110994000Y-72855000D03*
%TO.P,J4,4,Pin_4*%
%TO.N,/SCL*%
X110994000Y-75355000D03*
%TD*%
D19*
%TO.P,J3,1,Pin_1*%
%TO.N,+5V*%
X95754000Y-67815000D03*
D20*
%TO.P,J3,2,Pin_2*%
%TO.N,GND*%
X95754000Y-70315000D03*
%TO.P,J3,3,Pin_3*%
%TO.N,/SDA*%
X95754000Y-72815000D03*
%TO.P,J3,4,Pin_4*%
%TO.N,/SCL*%
X95754000Y-75315000D03*
%TD*%
D21*
%TO.P,J2,1,Pin_1*%
%TO.N,Net-(J2-Pin_1)*%
X99584000Y-30985000D03*
D22*
%TO.P,J2,2,Pin_2*%
%TO.N,+3.3V*%
X102084000Y-30985000D03*
%TD*%
D23*
%TO.P,J1,1,Pin_1*%
%TO.N,/D4*%
X72379000Y-103375000D03*
D18*
%TO.P,J1,2,Pin_2*%
%TO.N,/D3*%
X74879000Y-103375000D03*
%TO.P,J1,3,Pin_3*%
%TO.N,/D2*%
X77379000Y-103375000D03*
%TO.P,J1,4,Pin_4*%
%TO.N,/D1*%
X79879000Y-103375000D03*
%TD*%
D24*
%TO.N,/SDA*%
X85616405Y-34204810D03*
%TO.N,/SCL*%
X83185000Y-32890000D03*
%TD*%
D25*
%TO.N,/SCL*%
X92352000Y-44728000D02*
X94103000Y-44728000D01*
X90674000Y-34795000D02*
X90674000Y-43050000D01*
X90674000Y-43050000D02*
X92352000Y-44728000D01*
X88769000Y-32890000D02*
X90674000Y-34795000D01*
X83185000Y-32890000D02*
X88769000Y-32890000D01*
%TO.N,/SDA*%
X110359000Y-48130000D02*
X109497000Y-47268000D01*
X109497000Y-47268000D02*
X94103000Y-47268000D01*
X113534000Y-48130000D02*
X110359000Y-48130000D01*
%TO.N,/SCL*%
X114804000Y-45590000D02*
X113534000Y-45590000D01*
X112979000Y-75355000D02*
X117475000Y-70859000D01*
X117475000Y-70859000D02*
X117475000Y-48261000D01*
X117475000Y-48261000D02*
X114804000Y-45590000D01*
X110994000Y-75355000D02*
X112979000Y-75355000D01*
%TO.N,+5V*%
X50800000Y-87630000D02*
X37089000Y-73919000D01*
X64770000Y-87630000D02*
X50800000Y-87630000D01*
X37089000Y-73919000D02*
X37089000Y-44320000D01*
%TO.N,/SDA*%
X85661215Y-34160000D02*
X85616405Y-34204810D01*
X88451500Y-34160000D02*
X85661215Y-34160000D01*
X89974000Y-44890000D02*
X89974000Y-35682500D01*
X89974000Y-35682500D02*
X88451500Y-34160000D01*
X92352000Y-47268000D02*
X89974000Y-44890000D01*
X94103000Y-47268000D02*
X92352000Y-47268000D01*
%TO.N,/SCL*%
X110359000Y-45590000D02*
X109497000Y-44728000D01*
X109497000Y-44728000D02*
X94103000Y-44728000D01*
X113534000Y-45590000D02*
X110359000Y-45590000D01*
%TO.N,/SDA*%
X114804000Y-48130000D02*
X113534000Y-48130000D01*
X116009000Y-49335000D02*
X114804000Y-48130000D01*
X113574000Y-72855000D02*
X116009000Y-70420000D01*
X116009000Y-70420000D02*
X116009000Y-49335000D01*
X110994000Y-72855000D02*
X113574000Y-72855000D01*
%TO.N,/SCL*%
X110954000Y-75315000D02*
X110994000Y-75355000D01*
X103374000Y-75315000D02*
X110954000Y-75315000D01*
X95754000Y-75315000D02*
X103374000Y-75315000D01*
%TO.N,/SDA*%
X95794000Y-72855000D02*
X95754000Y-72815000D01*
X110994000Y-72855000D02*
X95794000Y-72855000D01*
%TO.N,+5V*%
X91309000Y-69085000D02*
X92579000Y-67815000D01*
X91309000Y-90675000D02*
X91309000Y-69085000D01*
X92579000Y-67815000D02*
X95754000Y-67815000D01*
X80644000Y-87630000D02*
X85594000Y-92580000D01*
X64770000Y-87630000D02*
X80644000Y-87630000D01*
X85594000Y-92580000D02*
X89404000Y-92580000D01*
X89404000Y-92580000D02*
X91309000Y-90675000D01*
X95754000Y-67815000D02*
X103374000Y-67815000D01*
%TD*%
%TA.AperFunction,Conductor*%
%TO.N,GND*%
G36*
X52766370Y-97476657D02*
G01*
X52734000Y-97597465D01*
X52734000Y-97722535D01*
X52766370Y-97843343D01*
X52804854Y-97910000D01*
X51113146Y-97910000D01*
X51151630Y-97843343D01*
X51184000Y-97722535D01*
X51184000Y-97597465D01*
X51151630Y-97476657D01*
X51113146Y-97410000D01*
X52804854Y-97410000D01*
X52766370Y-97476657D01*
G37*
%TD.AperFunction*%
%TA.AperFunction,Conductor*%
G36*
X89056026Y-45408950D02*
G01*
X89065997Y-45421929D01*
X89158021Y-45559653D01*
X89158022Y-45559654D01*
X89158023Y-45559655D01*
X89304345Y-45705977D01*
X89304346Y-45705977D01*
X89311413Y-45713044D01*
X89311412Y-45713044D01*
X89311416Y-45713047D01*
X91682341Y-48083974D01*
X91682345Y-48083977D01*
X91854395Y-48198938D01*
X91854408Y-48198945D01*
X91919523Y-48225916D01*
X92045580Y-48278130D01*
X92045584Y-48278130D01*
X92045585Y-48278131D01*
X92248532Y-48318501D01*
X92248535Y-48318501D01*
X92461579Y-48318501D01*
X92461599Y-48318500D01*
X92888224Y-48318500D01*
X92955263Y-48338185D01*
X92982514Y-48361969D01*
X92994729Y-48376271D01*
X93073689Y-48443709D01*
X93073690Y-48443710D01*
X93111883Y-48502217D01*
X93112381Y-48572085D01*
X93075027Y-48631131D01*
X93073690Y-48632290D01*
X92994729Y-48699729D01*
X92834999Y-48886747D01*
X92834998Y-48886750D01*
X92706496Y-49096446D01*
X92706494Y-49096449D01*
X92612380Y-49323663D01*
X92554963Y-49562820D01*
X92535668Y-49808000D01*
X92554963Y-50053179D01*
X92612380Y-50292336D01*
X92706494Y-50519550D01*
X92706496Y-50519553D01*
X92834998Y-50729249D01*
X92834999Y-50729252D01*
X92889125Y-50792625D01*
X92994729Y-50916271D01*
X93045462Y-50959601D01*
X93073690Y-50983710D01*
X93111883Y-51042217D01*
X93112381Y-51112085D01*
X93075027Y-51171131D01*
X93073690Y-51172290D01*
X92994729Y-51239729D01*
X92834999Y-51426747D01*
X92834998Y-51426750D01*
X92706496Y-51636446D01*
X92706494Y-51636449D01*
X92612380Y-51863663D01*
X92554963Y-52102820D01*
X92535668Y-52348000D01*
X92554963Y-52593179D01*
X92612380Y-52832336D01*
X92706494Y-53059550D01*
X92706496Y-53059553D01*
X92834998Y-53269249D01*
X92834999Y-53269252D01*
X92889125Y-53332625D01*
X92994729Y-53456271D01*
X93045462Y-53499601D01*
X93073690Y-53523710D01*
X93111883Y-53582217D01*
X93112381Y-53652085D01*
X93075027Y-53711131D01*
X93073690Y-53712290D01*
X92994729Y-53779729D01*
X92834999Y-53966747D01*
X92834998Y-53966750D01*
X92706496Y-54176446D01*
X92706494Y-54176449D01*
X92612380Y-54403663D01*
X92612379Y-54403668D01*
X92563682Y-54606505D01*
X92554963Y-54642820D01*
X92535668Y-54888000D01*
X92554963Y-55133179D01*
X92612380Y-55372336D01*
X92706494Y-55599550D01*
X92706496Y-55599553D01*
X92834998Y-55809249D01*
X92834999Y-55809252D01*
X92889125Y-55872625D01*
X92994729Y-55996271D01*
X93045462Y-56039601D01*
X93073690Y-56063710D01*
X93111883Y-56122217D01*
X93112381Y-56192085D01*
X93075027Y-56251131D01*
X93073690Y-56252290D01*
X92994729Y-56319729D01*
X92834999Y-56506747D01*
X92834998Y-56506750D01*
X92706496Y-56716446D01*
X92706494Y-56716449D01*
X92612380Y-56943663D01*
X92554963Y-57182820D01*
X92535668Y-57428000D01*
X92554963Y-57673179D01*
X92612380Y-57912336D01*
X92706494Y-58139550D01*
X92706496Y-58139553D01*
X92834998Y-58349249D01*
X92834999Y-58349252D01*
X92889125Y-58412625D01*
X92994729Y-58536271D01*
X93139498Y-58659915D01*
X93181747Y-58696000D01*
X93181750Y-58696001D01*
X93391446Y-58824503D01*
X93391449Y-58824505D01*
X93618663Y-58918619D01*
X93618668Y-58918621D01*
X93857815Y-58976036D01*
X94103000Y-58995332D01*
X94348185Y-58976036D01*
X94587332Y-58918621D01*
X94700943Y-58871562D01*
X94814550Y-58824505D01*
X94814551Y-58824504D01*
X94814554Y-58824503D01*
X95024255Y-58695998D01*
X95211271Y-58536271D01*
X95370998Y-58349255D01*
X95499503Y-58139554D01*
X95593621Y-57912332D01*
X95651036Y-57673185D01*
X95670332Y-57428000D01*
X95651036Y-57182815D01*
X95593621Y-56943668D01*
X95577331Y-56904341D01*
X95499505Y-56716449D01*
X95499503Y-56716446D01*
X95371001Y-56506750D01*
X95371000Y-56506747D01*
X95211271Y-56319729D01*
X95132308Y-56252288D01*
X95094116Y-56193784D01*
X95093617Y-56123916D01*
X95130971Y-56064869D01*
X95132214Y-56063791D01*
X95211271Y-55996271D01*
X95370998Y-55809255D01*
X95499503Y-55599554D01*
X95593621Y-55372332D01*
X95651036Y-55133185D01*
X95670332Y-54888000D01*
X95651036Y-54642815D01*
X95593621Y-54403668D01*
X95536435Y-54265607D01*
X95499505Y-54176449D01*
X95499503Y-54176446D01*
X95371001Y-53966750D01*
X95371000Y-53966747D01*
X95211271Y-53779729D01*
X95132308Y-53712288D01*
X95094116Y-53653784D01*
X95093617Y-53583916D01*
X95130971Y-53524869D01*
X95132214Y-53523791D01*
X95211271Y-53456271D01*
X95370998Y-53269255D01*
X95499503Y-53059554D01*
X95593621Y-52832332D01*
X95651036Y-52593185D01*
X95670332Y-52348000D01*
X95651036Y-52102815D01*
X95593621Y-51863668D01*
X95536435Y-51725607D01*
X95499505Y-51636449D01*
X95499503Y-51636446D01*
X95371001Y-51426750D01*
X95371000Y-51426747D01*
X95211271Y-51239729D01*
X95132308Y-51172288D01*
X95094116Y-51113784D01*
X95093617Y-51043916D01*
X95130971Y-50984869D01*
X95132214Y-50983791D01*
X95211271Y-50916271D01*
X95370998Y-50729255D01*
X95499503Y-50519554D01*
X95593621Y-50292332D01*
X95651036Y-50053185D01*
X95670332Y-49808000D01*
X95651036Y-49562815D01*
X95593621Y-49323668D01*
X95558249Y-49238271D01*
X95499505Y-49096449D01*
X95499503Y-49096446D01*
X95371001Y-48886750D01*
X95371000Y-48886747D01*
X95211271Y-48699729D01*
X95132308Y-48632288D01*
X95094116Y-48573784D01*
X95093617Y-48503916D01*
X95130971Y-48444869D01*
X95132214Y-48443791D01*
X95211271Y-48376271D01*
X95223485Y-48361969D01*
X95281991Y-48323776D01*
X95317776Y-48318500D01*
X109010507Y-48318500D01*
X109077546Y-48338185D01*
X109098188Y-48354819D01*
X109539897Y-48796528D01*
X109539926Y-48796559D01*
X109689342Y-48945975D01*
X109689345Y-48945977D01*
X109861402Y-49060941D01*
X110052580Y-49140130D01*
X110255530Y-49180499D01*
X110255534Y-49180500D01*
X110255535Y-49180500D01*
X112319224Y-49180500D01*
X112386263Y-49200185D01*
X112413514Y-49223969D01*
X112425729Y-49238271D01*
X112479675Y-49284345D01*
X112504690Y-49305710D01*
X112542883Y-49364217D01*
X112543381Y-49434085D01*
X112506027Y-49493131D01*
X112504690Y-49494290D01*
X112425729Y-49561729D01*
X112265999Y-49748747D01*
X112265998Y-49748750D01*
X112137496Y-49958446D01*
X112137494Y-49958449D01*
X112043380Y-50185663D01*
X111985963Y-50424820D01*
X111966668Y-50670000D01*
X111985963Y-50915179D01*
X111985963Y-50915182D01*
X111985964Y-50915185D01*
X112025053Y-51078000D01*
X112043380Y-51154336D01*
X112137494Y-51381550D01*
X112137496Y-51381553D01*
X112265998Y-51591249D01*
X112265999Y-51591252D01*
X112266002Y-51591255D01*
X112425729Y-51778271D01*
X112479670Y-51824341D01*
X112504690Y-51845710D01*
X112542883Y-51904217D01*
X112543381Y-51974085D01*
X112506027Y-52033131D01*
X112504690Y-52034290D01*
X112425729Y-52101729D01*
X112265999Y-52288747D01*
X112265998Y-52288750D01*
X112137496Y-52498446D01*
X112137494Y-52498449D01*
X112043380Y-52725663D01*
X111985963Y-52964820D01*
X111966668Y-53210000D01*
X111985963Y-53455179D01*
X111985963Y-53455182D01*
X111985964Y-53455185D01*
X112025053Y-53618000D01*
X112043380Y-53694336D01*
X112137494Y-53921550D01*
X112137496Y-53921553D01*
X112265998Y-54131249D01*
X112265999Y-54131252D01*
X112266002Y-54131255D01*
X112425729Y-54318271D01*
X112479675Y-54364345D01*
X112612747Y-54478000D01*
X112612750Y-54478001D01*
X112822446Y-54606503D01*
X112822449Y-54606505D01*
X113049663Y-54700619D01*
X113049668Y-54700621D01*
X113288815Y-54758036D01*
X113534000Y-54777332D01*
X113779185Y-54758036D01*
X114018332Y-54700621D01*
X114157889Y-54642815D01*
X114245550Y-54606505D01*
X114245551Y-54606504D01*
X114245554Y-54606503D01*
X114455255Y-54477998D01*
X114642271Y-54318271D01*
X114740211Y-54203597D01*
X114798716Y-54165405D01*
X114868584Y-54164906D01*
X114927631Y-54202260D01*
X114957109Y-54265607D01*
X114958500Y-54284130D01*
X114958500Y-69933507D01*
X114938815Y-70000546D01*
X114922181Y-70021188D01*
X113175188Y-71768181D01*
X113113865Y-71801666D01*
X113087507Y-71804500D01*
X112454022Y-71804500D01*
X112386983Y-71784815D01*
X112366341Y-71768181D01*
X112194231Y-71596071D01*
X112194230Y-71596070D01*
X112194229Y-71596069D01*
X112075889Y-71510090D01*
X112033225Y-71454761D01*
X112027246Y-71385148D01*
X112059852Y-71323353D01*
X112061095Y-71322091D01*
X112148728Y-71234458D01*
X112273620Y-71062557D01*
X112370095Y-70873217D01*
X112435757Y-70671129D01*
X112435757Y-70671126D01*
X112446231Y-70605000D01*
X111398146Y-70605000D01*
X111436630Y-70538343D01*
X111469000Y-70417535D01*
X111469000Y-70292465D01*
X111436630Y-70171657D01*
X111398146Y-70105000D01*
X112446231Y-70105000D01*
X112435757Y-70038873D01*
X112435757Y-70038870D01*
X112370095Y-69836782D01*
X112273620Y-69647442D01*
X112201467Y-69548130D01*
X112177987Y-69482324D01*
X112193813Y-69414270D01*
X112243329Y-69365889D01*
X112305450Y-69332685D01*
X112465410Y-69201410D01*
X112596685Y-69041450D01*
X112694232Y-68858954D01*
X112754300Y-68660934D01*
X112769500Y-68506608D01*
X112769500Y-67203392D01*
X112754300Y-67049066D01*
X112694232Y-66851046D01*
X112596685Y-66668550D01*
X112544702Y-66605209D01*
X112465410Y-66508589D01*
X112317228Y-66386981D01*
X112305450Y-66377315D01*
X112122954Y-66279768D01*
X111924934Y-66219700D01*
X111924932Y-66219699D01*
X111924934Y-66219699D01*
X111805805Y-66207966D01*
X111770608Y-66204500D01*
X110217392Y-66204500D01*
X110179298Y-66208251D01*
X110063067Y-66219699D01*
X109865043Y-66279769D01*
X109757384Y-66337315D01*
X109682550Y-66377315D01*
X109682548Y-66377316D01*
X109682547Y-66377317D01*
X109522589Y-66508589D01*
X109391317Y-66668547D01*
X109293769Y-66851043D01*
X109233699Y-67049067D01*
X109218500Y-67203395D01*
X109218500Y-68506604D01*
X109233699Y-68660932D01*
X109257563Y-68739601D01*
X109293768Y-68858954D01*
X109391315Y-69041450D01*
X109391317Y-69041452D01*
X109522589Y-69201410D01*
X109619209Y-69280702D01*
X109682550Y-69332685D01*
X109744664Y-69365886D01*
X109744668Y-69365888D01*
X109794512Y-69414851D01*
X109809972Y-69482989D01*
X109786533Y-69548131D01*
X109714376Y-69647446D01*
X109617904Y-69836782D01*
X109552242Y-70038870D01*
X109552242Y-70038873D01*
X109541769Y-70105000D01*
X110589854Y-70105000D01*
X110551370Y-70171657D01*
X110519000Y-70292465D01*
X110519000Y-70417535D01*
X110551370Y-70538343D01*
X110589854Y-70605000D01*
X109541769Y-70605000D01*
X109552242Y-70671126D01*
X109552242Y-70671129D01*
X109617904Y-70873217D01*
X109714379Y-71062557D01*
X109839272Y-71234459D01*
X109839276Y-71234464D01*
X109926904Y-71322092D01*
X109960389Y-71383415D01*
X109955405Y-71453107D01*
X109913533Y-71509040D01*
X109912109Y-71510091D01*
X109793769Y-71596070D01*
X109793768Y-71596071D01*
X109621659Y-71768181D01*
X109560336Y-71801666D01*
X109533978Y-71804500D01*
X104868141Y-71804500D01*
X104801102Y-71784815D01*
X104767822Y-71753385D01*
X104757930Y-71739770D01*
X104574231Y-71556071D01*
X104574230Y-71556070D01*
X104574229Y-71556069D01*
X104455889Y-71470090D01*
X104413225Y-71414761D01*
X104407246Y-71345148D01*
X104439852Y-71283353D01*
X104441095Y-71282091D01*
X104528728Y-71194458D01*
X104653620Y-71022557D01*
X104750095Y-70833217D01*
X104815757Y-70631129D01*
X104815757Y-70631126D01*
X104826231Y-70565000D01*
X103778146Y-70565000D01*
X103816630Y-70498343D01*
X103849000Y-70377535D01*
X103849000Y-70252465D01*
X103816630Y-70131657D01*
X103778146Y-70065000D01*
X104826231Y-70065000D01*
X104815757Y-69998873D01*
X104815757Y-69998870D01*
X104750095Y-69796782D01*
X104653620Y-69607442D01*
X104581467Y-69508130D01*
X104557987Y-69442324D01*
X104573813Y-69374270D01*
X104623329Y-69325889D01*
X104685450Y-69292685D01*
X104845410Y-69161410D01*
X104976685Y-69001450D01*
X105074232Y-68818954D01*
X105134300Y-68620934D01*
X105149500Y-68466608D01*
X105149500Y-67163392D01*
X105134300Y-67009066D01*
X105074232Y-66811046D01*
X104976685Y-66628550D01*
X104878237Y-66508590D01*
X104845410Y-66468589D01*
X104685452Y-66337317D01*
X104685453Y-66337317D01*
X104685450Y-66337315D01*
X104502954Y-66239768D01*
X104304934Y-66179700D01*
X104304932Y-66179699D01*
X104304934Y-66179699D01*
X104185805Y-66167966D01*
X104150608Y-66164500D01*
X102597392Y-66164500D01*
X102559298Y-66168251D01*
X102443067Y-66179699D01*
X102245043Y-66239769D01*
X102170212Y-66279768D01*
X102062550Y-66337315D01*
X102062548Y-66337316D01*
X102062547Y-66337317D01*
X101902589Y-66468589D01*
X101771315Y-66628549D01*
X101771311Y-66628555D01*
X101733683Y-66698953D01*
X101684721Y-66748797D01*
X101624325Y-66764500D01*
X97503675Y-66764500D01*
X97436636Y-66744815D01*
X97394317Y-66698953D01*
X97356688Y-66628555D01*
X97356684Y-66628549D01*
X97356682Y-66628547D01*
X97330858Y-66597079D01*
X97225410Y-66468589D01*
X97065452Y-66337317D01*
X97065453Y-66337317D01*
X97065450Y-66337315D01*
X96882954Y-66239768D01*
X96684934Y-66179700D01*
X96684932Y-66179699D01*
X96684934Y-66179699D01*
X96565805Y-66167966D01*
X96530608Y-66164500D01*
X94977392Y-66164500D01*
X94939298Y-66168251D01*
X94823067Y-66179699D01*
X94625043Y-66239769D01*
X94550212Y-66279768D01*
X94442550Y-66337315D01*
X94442548Y-66337316D01*
X94442547Y-66337317D01*
X94282589Y-66468589D01*
X94151315Y-66628549D01*
X94151311Y-66628555D01*
X94113683Y-66698953D01*
X94064721Y-66748797D01*
X94004325Y-66764500D01*
X92475530Y-66764500D01*
X92272587Y-66804868D01*
X92272579Y-66804870D01*
X92081403Y-66884058D01*
X91909344Y-66999023D01*
X91859302Y-67049066D01*
X91763023Y-67145345D01*
X91763020Y-67145348D01*
X90639348Y-68269020D01*
X90639345Y-68269023D01*
X90566184Y-68342184D01*
X90493023Y-68415344D01*
X90378058Y-68587403D01*
X90298870Y-68778579D01*
X90298868Y-68778587D01*
X90258500Y-68981530D01*
X90258500Y-90188506D01*
X90238815Y-90255545D01*
X90222181Y-90276187D01*
X89005188Y-91493181D01*
X88943865Y-91526666D01*
X88917507Y-91529500D01*
X88267116Y-91529500D01*
X88200077Y-91509815D01*
X88154322Y-91457011D01*
X88144378Y-91387853D01*
X88173403Y-91324297D01*
X88214712Y-91293118D01*
X88264911Y-91269709D01*
X88264919Y-91269705D01*
X88330341Y-91223895D01*
X87767574Y-90661128D01*
X87826853Y-90645245D01*
X87943147Y-90578102D01*
X88038102Y-90483147D01*
X88105245Y-90366853D01*
X88121128Y-90307574D01*
X88683895Y-90870341D01*
X88729705Y-90804919D01*
X88729709Y-90804911D01*
X88823249Y-90604314D01*
X88823254Y-90604300D01*
X88880538Y-90390509D01*
X88880540Y-90390499D01*
X88899832Y-90170000D01*
X88899832Y-90169999D01*
X88880540Y-89949500D01*
X88880538Y-89949490D01*
X88823254Y-89735699D01*
X88823250Y-89735690D01*
X88729706Y-89535084D01*
X88683894Y-89469657D01*
X88121128Y-90032424D01*
X88105245Y-89973147D01*
X88038102Y-89856853D01*
X87943147Y-89761898D01*
X87826853Y-89694755D01*
X87767574Y-89678871D01*
X88330341Y-89116104D01*
X88330341Y-89116103D01*
X88264920Y-89070295D01*
X88264916Y-89070293D01*
X88140725Y-89012382D01*
X88088286Y-88966210D01*
X88069134Y-88899016D01*
X88089350Y-88832135D01*
X88140726Y-88787618D01*
X88264911Y-88729709D01*
X88264919Y-88729705D01*
X88330341Y-88683895D01*
X87767574Y-88121128D01*
X87826853Y-88105245D01*
X87943147Y-88038102D01*
X88038102Y-87943147D01*
X88105245Y-87826853D01*
X88121128Y-87767574D01*
X88683895Y-88330341D01*
X88729705Y-88264919D01*
X88729709Y-88264911D01*
X88823249Y-88064314D01*
X88823254Y-88064300D01*
X88880538Y-87850509D01*
X88880540Y-87850499D01*
X88899832Y-87630000D01*
X88899832Y-87629999D01*
X88880540Y-87409500D01*
X88880538Y-87409490D01*
X88823254Y-87195699D01*
X88823250Y-87195690D01*
X88729706Y-86995084D01*
X88683894Y-86929657D01*
X88121128Y-87492424D01*
X88105245Y-87433147D01*
X88038102Y-87316853D01*
X87943147Y-87221898D01*
X87826853Y-87154755D01*
X87767574Y-87138871D01*
X88330795Y-86575650D01*
X88344217Y-86508866D01*
X88389188Y-86460830D01*
X88553023Y-86360433D01*
X88740399Y-86200399D01*
X88900433Y-86013023D01*
X89029184Y-85802920D01*
X89123483Y-85575262D01*
X89181007Y-85335655D01*
X89200341Y-85090000D01*
X89181007Y-84844345D01*
X89123483Y-84604738D01*
X89123482Y-84604735D01*
X89029184Y-84377079D01*
X88900436Y-84166981D01*
X88900435Y-84166979D01*
X88740399Y-83979601D01*
X88732682Y-83973010D01*
X88663927Y-83914288D01*
X88625736Y-83855784D01*
X88625236Y-83785916D01*
X88662590Y-83726870D01*
X88663842Y-83725783D01*
X88740399Y-83660399D01*
X88900433Y-83473023D01*
X89029184Y-83262920D01*
X89123483Y-83035262D01*
X89181007Y-82795655D01*
X89200341Y-82550000D01*
X89181007Y-82304345D01*
X89123483Y-82064738D01*
X89029184Y-81837080D01*
X89029184Y-81837079D01*
X88900436Y-81626981D01*
X88900435Y-81626979D01*
X88740399Y-81439601D01*
X88663927Y-81374288D01*
X88625736Y-81315784D01*
X88625236Y-81245916D01*
X88662590Y-81186870D01*
X88663842Y-81185783D01*
X88740399Y-81120399D01*
X88900433Y-80933023D01*
X89029184Y-80722920D01*
X89123483Y-80495262D01*
X89181007Y-80255655D01*
X89200341Y-80010000D01*
X89181007Y-79764345D01*
X89123483Y-79524738D01*
X89029184Y-79297080D01*
X89029184Y-79297079D01*
X88900436Y-79086981D01*
X88900435Y-79086979D01*
X88740399Y-78899601D01*
X88663927Y-78834288D01*
X88625736Y-78775784D01*
X88625236Y-78705916D01*
X88662590Y-78646870D01*
X88663842Y-78645783D01*
X88740399Y-78580399D01*
X88900433Y-78393023D01*
X89029184Y-78182920D01*
X89123483Y-77955262D01*
X89181007Y-77715655D01*
X89200341Y-77470000D01*
X89181007Y-77224345D01*
X89123483Y-76984738D01*
X89123482Y-76984735D01*
X89029184Y-76757079D01*
X88900436Y-76546981D01*
X88900435Y-76546979D01*
X88740399Y-76359601D01*
X88663927Y-76294288D01*
X88625736Y-76235784D01*
X88625236Y-76165916D01*
X88662590Y-76106870D01*
X88663842Y-76105783D01*
X88740399Y-76040399D01*
X88900433Y-75853023D01*
X89029184Y-75642920D01*
X89123483Y-75415262D01*
X89181007Y-75175655D01*
X89200341Y-74930000D01*
X89181007Y-74684345D01*
X89123483Y-74444738D01*
X89123482Y-74444735D01*
X89029184Y-74217079D01*
X88900436Y-74006981D01*
X88900435Y-74006979D01*
X88740399Y-73819601D01*
X88663927Y-73754288D01*
X88625736Y-73695784D01*
X88625236Y-73625916D01*
X88662590Y-73566870D01*
X88663842Y-73565783D01*
X88740399Y-73500399D01*
X88900433Y-73313023D01*
X89029184Y-73102920D01*
X89123483Y-72875262D01*
X89181007Y-72635655D01*
X89200341Y-72390000D01*
X89181007Y-72144345D01*
X89123483Y-71904738D01*
X89088762Y-71820913D01*
X89029184Y-71677079D01*
X88900436Y-71466981D01*
X88900435Y-71466979D01*
X88740399Y-71279601D01*
X88663927Y-71214288D01*
X88625736Y-71155784D01*
X88625236Y-71085916D01*
X88662590Y-71026870D01*
X88663842Y-71025783D01*
X88740399Y-70960399D01*
X88900433Y-70773023D01*
X89029184Y-70562920D01*
X89123483Y-70335262D01*
X89181007Y-70095655D01*
X89200341Y-69850000D01*
X89181007Y-69604345D01*
X89123483Y-69364738D01*
X89093638Y-69292685D01*
X89029184Y-69137079D01*
X88900436Y-68926981D01*
X88900435Y-68926979D01*
X88740399Y-68739601D01*
X88663927Y-68674288D01*
X88625736Y-68615784D01*
X88625236Y-68545916D01*
X88662590Y-68486870D01*
X88663842Y-68485783D01*
X88740399Y-68420399D01*
X88900433Y-68233023D01*
X89029184Y-68022920D01*
X89123483Y-67795262D01*
X89181007Y-67555655D01*
X89200341Y-67310000D01*
X89181007Y-67064345D01*
X89123483Y-66824738D01*
X89117812Y-66811046D01*
X89029184Y-66597079D01*
X88900436Y-66386981D01*
X88900435Y-66386979D01*
X88740399Y-66199601D01*
X88663927Y-66134288D01*
X88625736Y-66075784D01*
X88625236Y-66005916D01*
X88662590Y-65946870D01*
X88663842Y-65945783D01*
X88740399Y-65880399D01*
X88900433Y-65693023D01*
X89029184Y-65482920D01*
X89123483Y-65255262D01*
X89181007Y-65015655D01*
X89200341Y-64770000D01*
X89181007Y-64524345D01*
X89123483Y-64284738D01*
X89029184Y-64057080D01*
X89029184Y-64057079D01*
X88900436Y-63846981D01*
X88900435Y-63846979D01*
X88740399Y-63659601D01*
X88663927Y-63594288D01*
X88625736Y-63535784D01*
X88625236Y-63465916D01*
X88662590Y-63406870D01*
X88663842Y-63405783D01*
X88740399Y-63340399D01*
X88900433Y-63153023D01*
X89029184Y-62942920D01*
X89123483Y-62715262D01*
X89181007Y-62475655D01*
X89200341Y-62230000D01*
X89181007Y-61984345D01*
X89123483Y-61744738D01*
X89029184Y-61517080D01*
X89029184Y-61517079D01*
X88900436Y-61306981D01*
X88900435Y-61306979D01*
X88740399Y-61119601D01*
X88663927Y-61054288D01*
X88625736Y-60995784D01*
X88625236Y-60925916D01*
X88662590Y-60866870D01*
X88663842Y-60865783D01*
X88740399Y-60800399D01*
X88900433Y-60613023D01*
X89029184Y-60402920D01*
X89123483Y-60175262D01*
X89181007Y-59935655D01*
X89200341Y-59690000D01*
X89181007Y-59444345D01*
X89123483Y-59204738D01*
X89123482Y-59204735D01*
X89029184Y-58977079D01*
X88900436Y-58766981D01*
X88900435Y-58766979D01*
X88740399Y-58579601D01*
X88663927Y-58514288D01*
X88625736Y-58455784D01*
X88625236Y-58385916D01*
X88662590Y-58326870D01*
X88663842Y-58325783D01*
X88740399Y-58260399D01*
X88900433Y-58073023D01*
X89029184Y-57862920D01*
X89123483Y-57635262D01*
X89181007Y-57395655D01*
X89200341Y-57150000D01*
X89181007Y-56904345D01*
X89123483Y-56664738D01*
X89123482Y-56664735D01*
X89029184Y-56437079D01*
X88900436Y-56226981D01*
X88900435Y-56226979D01*
X88740399Y-56039601D01*
X88663927Y-55974288D01*
X88625736Y-55915784D01*
X88625236Y-55845916D01*
X88662590Y-55786870D01*
X88663842Y-55785783D01*
X88740399Y-55720399D01*
X88900433Y-55533023D01*
X89029184Y-55322920D01*
X89123483Y-55095262D01*
X89181007Y-54855655D01*
X89200341Y-54610000D01*
X89181007Y-54364345D01*
X89123483Y-54124738D01*
X89123482Y-54124735D01*
X89029184Y-53897079D01*
X88900436Y-53686981D01*
X88900435Y-53686979D01*
X88740399Y-53499601D01*
X88663927Y-53434288D01*
X88625736Y-53375784D01*
X88625236Y-53305916D01*
X88662590Y-53246870D01*
X88663842Y-53245783D01*
X88740399Y-53180399D01*
X88900433Y-52993023D01*
X89029184Y-52782920D01*
X89123483Y-52555262D01*
X89181007Y-52315655D01*
X89200341Y-52070000D01*
X89181007Y-51824345D01*
X89123483Y-51584738D01*
X89123482Y-51584735D01*
X89029184Y-51357079D01*
X88900436Y-51146981D01*
X88900435Y-51146979D01*
X88740399Y-50959601D01*
X88663927Y-50894288D01*
X88625736Y-50835784D01*
X88625236Y-50765916D01*
X88662590Y-50706870D01*
X88663842Y-50705783D01*
X88740399Y-50640399D01*
X88900433Y-50453023D01*
X89029184Y-50242920D01*
X89123483Y-50015262D01*
X89181007Y-49775655D01*
X89200341Y-49530000D01*
X89181007Y-49284345D01*
X89123483Y-49044738D01*
X89082574Y-48945975D01*
X89029184Y-48817079D01*
X88900436Y-48606981D01*
X88900435Y-48606979D01*
X88740399Y-48419601D01*
X88663927Y-48354288D01*
X88625736Y-48295784D01*
X88625236Y-48225916D01*
X88662590Y-48166870D01*
X88663842Y-48165783D01*
X88740399Y-48100399D01*
X88900433Y-47913023D01*
X89029184Y-47702920D01*
X89123483Y-47475262D01*
X89181007Y-47235655D01*
X89200341Y-46990000D01*
X89181007Y-46744345D01*
X89123483Y-46504738D01*
X89029184Y-46277080D01*
X89029184Y-46277079D01*
X88900436Y-46066981D01*
X88900435Y-46066979D01*
X88740399Y-45879601D01*
X88663927Y-45814288D01*
X88625736Y-45755784D01*
X88625236Y-45685916D01*
X88662590Y-45626870D01*
X88663842Y-45625783D01*
X88740399Y-45560399D01*
X88868605Y-45410289D01*
X88927111Y-45372095D01*
X88996979Y-45371596D01*
X89056026Y-45408950D01*
G37*
%TD.AperFunction*%
%TA.AperFunction,Conductor*%
G36*
X101691364Y-68885185D02*
G01*
X101733683Y-68931047D01*
X101771311Y-69001444D01*
X101771315Y-69001450D01*
X101902589Y-69161410D01*
X101951330Y-69201410D01*
X102062550Y-69292685D01*
X102124664Y-69325886D01*
X102124668Y-69325888D01*
X102174512Y-69374851D01*
X102189972Y-69442989D01*
X102166533Y-69508131D01*
X102094376Y-69607446D01*
X101997904Y-69796782D01*
X101932242Y-69998870D01*
X101932242Y-69998873D01*
X101921769Y-70065000D01*
X102969854Y-70065000D01*
X102931370Y-70131657D01*
X102899000Y-70252465D01*
X102899000Y-70377535D01*
X102931370Y-70498343D01*
X102969854Y-70565000D01*
X101921769Y-70565000D01*
X101932242Y-70631126D01*
X101932242Y-70631129D01*
X101997904Y-70833217D01*
X102094379Y-71022557D01*
X102219272Y-71194459D01*
X102219276Y-71194464D01*
X102306904Y-71282092D01*
X102340389Y-71343415D01*
X102335405Y-71413107D01*
X102293533Y-71469040D01*
X102292109Y-71470091D01*
X102173769Y-71556070D01*
X101990069Y-71739770D01*
X101980178Y-71753385D01*
X101924848Y-71796051D01*
X101879859Y-71804500D01*
X97248141Y-71804500D01*
X97181102Y-71784815D01*
X97147822Y-71753385D01*
X97137930Y-71739770D01*
X96954231Y-71556071D01*
X96954230Y-71556070D01*
X96954229Y-71556069D01*
X96835889Y-71470090D01*
X96793225Y-71414761D01*
X96787246Y-71345148D01*
X96819852Y-71283353D01*
X96821095Y-71282091D01*
X96908728Y-71194458D01*
X97033620Y-71022557D01*
X97130095Y-70833217D01*
X97195757Y-70631129D01*
X97195757Y-70631126D01*
X97206231Y-70565000D01*
X96158146Y-70565000D01*
X96196630Y-70498343D01*
X96229000Y-70377535D01*
X96229000Y-70252465D01*
X96196630Y-70131657D01*
X96158146Y-70065000D01*
X97206231Y-70065000D01*
X97195757Y-69998873D01*
X97195757Y-69998870D01*
X97130095Y-69796782D01*
X97033620Y-69607442D01*
X96961467Y-69508130D01*
X96937987Y-69442324D01*
X96953813Y-69374270D01*
X97003329Y-69325889D01*
X97065450Y-69292685D01*
X97225410Y-69161410D01*
X97356685Y-69001450D01*
X97367330Y-68981535D01*
X97394317Y-68931047D01*
X97443279Y-68881203D01*
X97503675Y-68865500D01*
X101624325Y-68865500D01*
X101691364Y-68885185D01*
G37*
%TD.AperFunction*%
%TA.AperFunction,Conductor*%
G36*
X88683895Y-37530341D02*
G01*
X88697926Y-37510304D01*
X88752503Y-37466679D01*
X88822001Y-37459487D01*
X88884356Y-37491009D01*
X88919769Y-37551240D01*
X88923500Y-37581428D01*
X88923500Y-38147007D01*
X88903815Y-38214046D01*
X88851011Y-38259801D01*
X88781853Y-38269745D01*
X88718969Y-38241298D01*
X88608568Y-38147007D01*
X88553023Y-38099567D01*
X88553021Y-38099565D01*
X88553019Y-38099564D01*
X88553018Y-38099563D01*
X88389189Y-37999169D01*
X88342314Y-37947358D01*
X88330758Y-37884312D01*
X87767574Y-37321128D01*
X87826853Y-37305245D01*
X87943147Y-37238102D01*
X88038102Y-37143147D01*
X88105245Y-37026853D01*
X88121128Y-36967574D01*
X88683895Y-37530341D01*
G37*
%TD.AperFunction*%
%TA.AperFunction,Conductor*%
G36*
X104034339Y-87803232D02*
G01*
X104096874Y-87911546D01*
X104185312Y-87999984D01*
X104293626Y-88062519D01*
X104406524Y-88092769D01*
X103981846Y-88598882D01*
X103981840Y-88598891D01*
X103321721Y-89385586D01*
X103312630Y-89351657D01*
X103250095Y-89243343D01*
X103161657Y-89154905D01*
X103053343Y-89092370D01*
X102940441Y-89062118D01*
X103409325Y-88503326D01*
X104025246Y-87769298D01*
X104034339Y-87803232D01*
G37*
%TD.AperFunction*%
%TA.AperFunction,Conductor*%
G36*
X105641308Y-85888121D02*
G01*
X105703843Y-85996435D01*
X105792281Y-86084873D01*
X105900595Y-86147408D01*
X106013493Y-86177658D01*
X105588815Y-86683771D01*
X105588809Y-86683780D01*
X104928690Y-87470475D01*
X104919599Y-87436546D01*
X104857064Y-87328232D01*
X104768626Y-87239794D01*
X104660312Y-87177259D01*
X104547410Y-87147007D01*
X104955774Y-86660341D01*
X105632215Y-85854188D01*
X105641308Y-85888121D01*
G37*
%TD.AperFunction*%
%TA.AperFunction,Conductor*%
G36*
X107248277Y-83973010D02*
G01*
X107310812Y-84081324D01*
X107399250Y-84169762D01*
X107507564Y-84232297D01*
X107620462Y-84262547D01*
X107195784Y-84768660D01*
X107195778Y-84768669D01*
X106535659Y-85555364D01*
X106526568Y-85521435D01*
X106464033Y-85413121D01*
X106375595Y-85324683D01*
X106267281Y-85262148D01*
X106154379Y-85231896D01*
X106623263Y-84673104D01*
X107239184Y-83939076D01*
X107248277Y-83973010D01*
G37*
%TD.AperFunction*%
%TA.AperFunction,Conductor*%
G36*
X127714473Y-25920185D02*
G01*
X127760228Y-25972989D01*
X127771433Y-26024503D01*
X127771098Y-33967725D01*
X127769508Y-71526508D01*
X127749821Y-71593547D01*
X127740230Y-71606527D01*
X96959785Y-108040524D01*
X96901484Y-108079031D01*
X96865063Y-108084500D01*
X26024500Y-108084500D01*
X25957461Y-108064815D01*
X25911706Y-108012011D01*
X25900500Y-107960500D01*
X25900500Y-103935000D01*
X27844778Y-103935000D01*
X27863644Y-104222837D01*
X27863646Y-104222849D01*
X27919917Y-104505745D01*
X27919921Y-104505760D01*
X28012642Y-104778905D01*
X28140219Y-105037606D01*
X28140223Y-105037613D01*
X28300478Y-105277452D01*
X28490672Y-105494327D01*
X28707546Y-105684520D01*
X28947389Y-105844778D01*
X29206098Y-105972359D01*
X29479247Y-106065081D01*
X29762161Y-106121356D01*
X30050000Y-106140222D01*
X30337839Y-106121356D01*
X30620753Y-106065081D01*
X30893902Y-105972359D01*
X31152611Y-105844778D01*
X31392454Y-105684520D01*
X31609327Y-105494327D01*
X31799520Y-105277454D01*
X31959778Y-105037611D01*
X32087359Y-104778902D01*
X32180081Y-104505753D01*
X32236356Y-104222839D01*
X32255222Y-103935000D01*
X32236356Y-103647161D01*
X32180081Y-103364247D01*
X32087359Y-103091098D01*
X31959778Y-102832389D01*
X31898458Y-102740617D01*
X31803426Y-102598392D01*
X70728500Y-102598392D01*
X70728500Y-104151608D01*
X70733502Y-104202398D01*
X70743699Y-104305932D01*
X70762621Y-104368309D01*
X70803768Y-104503954D01*
X70901315Y-104686450D01*
X70901317Y-104686452D01*
X71032589Y-104846410D01*
X71088412Y-104892222D01*
X71192550Y-104977685D01*
X71375046Y-105075232D01*
X71573066Y-105135300D01*
X71573065Y-105135300D01*
X71611647Y-105139100D01*
X71727392Y-105150500D01*
X71727395Y-105150500D01*
X73030605Y-105150500D01*
X73030608Y-105150500D01*
X73184934Y-105135300D01*
X73382954Y-105075232D01*
X73565450Y-104977685D01*
X73725410Y-104846410D01*
X73725489Y-104846314D01*
X73725545Y-104846275D01*
X73729719Y-104842102D01*
X73730510Y-104842893D01*
X73783233Y-104806976D01*
X73853077Y-104805101D01*
X73894232Y-104824655D01*
X73987231Y-104892222D01*
X74013949Y-104911634D01*
X74143575Y-104977682D01*
X74245423Y-105029577D01*
X74245425Y-105029577D01*
X74245428Y-105029579D01*
X74492507Y-105109860D01*
X74615773Y-105129383D01*
X74749098Y-105150500D01*
X74749103Y-105150500D01*
X75008902Y-105150500D01*
X75122298Y-105132539D01*
X75265493Y-105109860D01*
X75512572Y-105029579D01*
X75744051Y-104911634D01*
X75954229Y-104758931D01*
X76041319Y-104671841D01*
X76102642Y-104638356D01*
X76172334Y-104643340D01*
X76216681Y-104671841D01*
X76303771Y-104758931D01*
X76513949Y-104911634D01*
X76643575Y-104977682D01*
X76745423Y-105029577D01*
X76745425Y-105029577D01*
X76745428Y-105029579D01*
X76992507Y-105109860D01*
X77115773Y-105129383D01*
X77249098Y-105150500D01*
X77249103Y-105150500D01*
X77508902Y-105150500D01*
X77622298Y-105132539D01*
X77765493Y-105109860D01*
X78012572Y-105029579D01*
X78244051Y-104911634D01*
X78454229Y-104758931D01*
X78541319Y-104671841D01*
X78602642Y-104638356D01*
X78672334Y-104643340D01*
X78716681Y-104671841D01*
X78803771Y-104758931D01*
X79013949Y-104911634D01*
X79143575Y-104977682D01*
X79245423Y-105029577D01*
X79245425Y-105029577D01*
X79245428Y-105029579D01*
X79492507Y-105109860D01*
X79615773Y-105129383D01*
X79749098Y-105150500D01*
X79749103Y-105150500D01*
X80008902Y-105150500D01*
X80122298Y-105132539D01*
X80265493Y-105109860D01*
X80512572Y-105029579D01*
X80744051Y-104911634D01*
X80954229Y-104758931D01*
X81137931Y-104575229D01*
X81290634Y-104365051D01*
X81408579Y-104133572D01*
X81473099Y-103935000D01*
X92409778Y-103935000D01*
X92428644Y-104222837D01*
X92428646Y-104222849D01*
X92484917Y-104505745D01*
X92484921Y-104505760D01*
X92577642Y-104778905D01*
X92705219Y-105037606D01*
X92705223Y-105037613D01*
X92865478Y-105277452D01*
X93055672Y-105494327D01*
X93272546Y-105684520D01*
X93512389Y-105844778D01*
X93771098Y-105972359D01*
X94044247Y-106065081D01*
X94327161Y-106121356D01*
X94615000Y-106140222D01*
X94902839Y-106121356D01*
X95185753Y-106065081D01*
X95458902Y-105972359D01*
X95717611Y-105844778D01*
X95957454Y-105684520D01*
X96174327Y-105494327D01*
X96364520Y-105277454D01*
X96524778Y-105037611D01*
X96652359Y-104778902D01*
X96745081Y-104505753D01*
X96801356Y-104222839D01*
X96820222Y-103935000D01*
X96801356Y-103647161D01*
X96745081Y-103364247D01*
X96652359Y-103091098D01*
X96524778Y-102832389D01*
X96463458Y-102740617D01*
X96364521Y-102592547D01*
X96174327Y-102375672D01*
X95957452Y-102185478D01*
X95717613Y-102025223D01*
X95717606Y-102025219D01*
X95458905Y-101897642D01*
X95185760Y-101804921D01*
X95185754Y-101804919D01*
X95185753Y-101804919D01*
X95185751Y-101804918D01*
X95185745Y-101804917D01*
X94902849Y-101748646D01*
X94902839Y-101748644D01*
X94615000Y-101729778D01*
X94327161Y-101748644D01*
X94327155Y-101748645D01*
X94327150Y-101748646D01*
X94044254Y-101804917D01*
X94044239Y-101804921D01*
X93771094Y-101897642D01*
X93512393Y-102025219D01*
X93512386Y-102025223D01*
X93272547Y-102185478D01*
X93055672Y-102375672D01*
X92865478Y-102592547D01*
X92705223Y-102832386D01*
X92705219Y-102832393D01*
X92577642Y-103091094D01*
X92484921Y-103364239D01*
X92484917Y-103364254D01*
X92428646Y-103647150D01*
X92428644Y-103647162D01*
X92409778Y-103935000D01*
X81473099Y-103935000D01*
X81488860Y-103886493D01*
X81526766Y-103647161D01*
X81529500Y-103629902D01*
X81529500Y-103120097D01*
X81506958Y-102977778D01*
X81488860Y-102863507D01*
X81408579Y-102616428D01*
X81408577Y-102616425D01*
X81408577Y-102616423D01*
X81320756Y-102444067D01*
X81290634Y-102384949D01*
X81137931Y-102174771D01*
X80954229Y-101991069D01*
X80896085Y-101948825D01*
X80744054Y-101838368D01*
X80744053Y-101838367D01*
X80744051Y-101838366D01*
X80671764Y-101801534D01*
X80512576Y-101720422D01*
X80265493Y-101640140D01*
X80008902Y-101599500D01*
X80008897Y-101599500D01*
X79749103Y-101599500D01*
X79749098Y-101599500D01*
X79492506Y-101640140D01*
X79245423Y-101720422D01*
X79013945Y-101838368D01*
X78803774Y-101991066D01*
X78803768Y-101991071D01*
X78716681Y-102078159D01*
X78655358Y-102111644D01*
X78585666Y-102106660D01*
X78541319Y-102078159D01*
X78454231Y-101991071D01*
X78454225Y-101991066D01*
X78244054Y-101838368D01*
X78244053Y-101838367D01*
X78244051Y-101838366D01*
X78171764Y-101801534D01*
X78012576Y-101720422D01*
X77765493Y-101640140D01*
X77508902Y-101599500D01*
X77508897Y-101599500D01*
X77249103Y-101599500D01*
X77249098Y-101599500D01*
X76992506Y-101640140D01*
X76745423Y-101720422D01*
X76513945Y-101838368D01*
X76303774Y-101991066D01*
X76303768Y-101991071D01*
X76216681Y-102078159D01*
X76155358Y-102111644D01*
X76085666Y-102106660D01*
X76041319Y-102078159D01*
X75954231Y-101991071D01*
X75954225Y-101991066D01*
X75744054Y-101838368D01*
X75744053Y-101838367D01*
X75744051Y-101838366D01*
X75671764Y-101801534D01*
X75512576Y-101720422D01*
X75265493Y-101640140D01*
X75008902Y-101599500D01*
X75008897Y-101599500D01*
X74749103Y-101599500D01*
X74749098Y-101599500D01*
X74492506Y-101640140D01*
X74245423Y-101720422D01*
X74013945Y-101838368D01*
X73894231Y-101925345D01*
X73828425Y-101948825D01*
X73760371Y-101932999D01*
X73730069Y-101907536D01*
X73729713Y-101907893D01*
X73725603Y-101903783D01*
X73725490Y-101903688D01*
X73725410Y-101903590D01*
X73725407Y-101903588D01*
X73725406Y-101903586D01*
X73565452Y-101772317D01*
X73565453Y-101772317D01*
X73565450Y-101772315D01*
X73382954Y-101674768D01*
X73184934Y-101614700D01*
X73184932Y-101614699D01*
X73184934Y-101614699D01*
X73065805Y-101602966D01*
X73030608Y-101599500D01*
X71727392Y-101599500D01*
X71689298Y-101603251D01*
X71573067Y-101614699D01*
X71375043Y-101674769D01*
X71289636Y-101720421D01*
X71192550Y-101772315D01*
X71192548Y-101772316D01*
X71192547Y-101772317D01*
X71032589Y-101903589D01*
X70901317Y-102063547D01*
X70901315Y-102063550D01*
X70878272Y-102106660D01*
X70803769Y-102246043D01*
X70743699Y-102444067D01*
X70732251Y-102560298D01*
X70728500Y-102598392D01*
X31803426Y-102598392D01*
X31799521Y-102592547D01*
X31609327Y-102375672D01*
X31392452Y-102185478D01*
X31152613Y-102025223D01*
X31152606Y-102025219D01*
X30893905Y-101897642D01*
X30620760Y-101804921D01*
X30620754Y-101804919D01*
X30620753Y-101804919D01*
X30620751Y-101804918D01*
X30620745Y-101804917D01*
X30337849Y-101748646D01*
X30337839Y-101748644D01*
X30050000Y-101729778D01*
X29762161Y-101748644D01*
X29762155Y-101748645D01*
X29762150Y-101748646D01*
X29479254Y-101804917D01*
X29479239Y-101804921D01*
X29206094Y-101897642D01*
X28947393Y-102025219D01*
X28947386Y-102025223D01*
X28707547Y-102185478D01*
X28490672Y-102375672D01*
X28300478Y-102592547D01*
X28140223Y-102832386D01*
X28140219Y-102832393D01*
X28012642Y-103091094D01*
X27919921Y-103364239D01*
X27919917Y-103364254D01*
X27863646Y-103647150D01*
X27863644Y-103647162D01*
X27844778Y-103935000D01*
X25900500Y-103935000D01*
X25900500Y-97405097D01*
X44058500Y-97405097D01*
X44058500Y-97914902D01*
X44099140Y-98171493D01*
X44179422Y-98418576D01*
X44260534Y-98577764D01*
X44295807Y-98646992D01*
X44297368Y-98650054D01*
X44417007Y-98814723D01*
X44450069Y-98860229D01*
X44633771Y-99043931D01*
X44843949Y-99196634D01*
X44991445Y-99271787D01*
X45075423Y-99314577D01*
X45075425Y-99314577D01*
X45075428Y-99314579D01*
X45322507Y-99394860D01*
X45454706Y-99415797D01*
X45579098Y-99435500D01*
X45579103Y-99435500D01*
X45838902Y-99435500D01*
X45952298Y-99417539D01*
X46095493Y-99394860D01*
X46342572Y-99314579D01*
X46574051Y-99196634D01*
X46784229Y-99043931D01*
X46871319Y-98956841D01*
X46932642Y-98923356D01*
X47002334Y-98928340D01*
X47046681Y-98956841D01*
X47133771Y-99043931D01*
X47343949Y-99196634D01*
X47491445Y-99271787D01*
X47575423Y-99314577D01*
X47575425Y-99314577D01*
X47575428Y-99314579D01*
X47822507Y-99394860D01*
X47954706Y-99415797D01*
X48079098Y-99435500D01*
X48079103Y-99435500D01*
X48338902Y-99435500D01*
X48452298Y-99417539D01*
X48595493Y-99394860D01*
X48842572Y-99314579D01*
X49074051Y-99196634D01*
X49284229Y-99043931D01*
X49467931Y-98860229D01*
X49553909Y-98741890D01*
X49609237Y-98699225D01*
X49678851Y-98693246D01*
X49740646Y-98725851D01*
X49741907Y-98727095D01*
X49829535Y-98814723D01*
X49829540Y-98814727D01*
X50001442Y-98939620D01*
X50190782Y-99036095D01*
X50392871Y-99101757D01*
X50459000Y-99112231D01*
X50459000Y-98064145D01*
X50525657Y-98102630D01*
X50646465Y-98135000D01*
X50771535Y-98135000D01*
X50892343Y-98102630D01*
X50959000Y-98064145D01*
X50959000Y-99112230D01*
X51025126Y-99101757D01*
X51025129Y-99101757D01*
X51227217Y-99036095D01*
X51416557Y-98939620D01*
X51588458Y-98814728D01*
X51727693Y-98675493D01*
X51789016Y-98642008D01*
X51858708Y-98646992D01*
X51914642Y-98688863D01*
X51920914Y-98698077D01*
X52016684Y-98853345D01*
X52140654Y-98977315D01*
X52289875Y-99069356D01*
X52289880Y-99069358D01*
X52456302Y-99124505D01*
X52456309Y-99124506D01*
X52559019Y-99134999D01*
X52958999Y-99134999D01*
X52959000Y-99134998D01*
X52959000Y-98064145D01*
X53025657Y-98102630D01*
X53146465Y-98135000D01*
X53271535Y-98135000D01*
X53392343Y-98102630D01*
X53459000Y-98064145D01*
X53459000Y-99134999D01*
X53858972Y-99134999D01*
X53858986Y-99134998D01*
X53961697Y-99124505D01*
X54128119Y-99069358D01*
X54128124Y-99069356D01*
X54277345Y-98977315D01*
X54401315Y-98853345D01*
X54493356Y-98704124D01*
X54493358Y-98704119D01*
X54548505Y-98537697D01*
X54548506Y-98537690D01*
X54558999Y-98434986D01*
X54559000Y-98434973D01*
X54559000Y-97910000D01*
X53613146Y-97910000D01*
X53651630Y-97843343D01*
X53684000Y-97722535D01*
X53684000Y-97597465D01*
X53651630Y-97476657D01*
X53613146Y-97410000D01*
X54558999Y-97410000D01*
X54558999Y-96885028D01*
X54558998Y-96885013D01*
X54548505Y-96782302D01*
X54493358Y-96615880D01*
X54493356Y-96615875D01*
X54401315Y-96466654D01*
X54277345Y-96342684D01*
X54128124Y-96250643D01*
X54128119Y-96250641D01*
X53961697Y-96195494D01*
X53961690Y-96195493D01*
X53858986Y-96185000D01*
X53459000Y-96185000D01*
X53459000Y-97255854D01*
X53392343Y-97217370D01*
X53271535Y-97185000D01*
X53146465Y-97185000D01*
X53025657Y-97217370D01*
X52959000Y-97255854D01*
X52959000Y-96185000D01*
X52559028Y-96185000D01*
X52559012Y-96185001D01*
X52456302Y-96195494D01*
X52289880Y-96250641D01*
X52289875Y-96250643D01*
X52140654Y-96342684D01*
X52016683Y-96466655D01*
X52016680Y-96466659D01*
X51920913Y-96621922D01*
X51868965Y-96668647D01*
X51800003Y-96679868D01*
X51735921Y-96652025D01*
X51727694Y-96644506D01*
X51588464Y-96505276D01*
X51588459Y-96505272D01*
X51416557Y-96380379D01*
X51227215Y-96283903D01*
X51025124Y-96218241D01*
X50959000Y-96207768D01*
X50959000Y-97255854D01*
X50892343Y-97217370D01*
X50771535Y-97185000D01*
X50646465Y-97185000D01*
X50525657Y-97217370D01*
X50459000Y-97255854D01*
X50459000Y-96207768D01*
X50458999Y-96207768D01*
X50392875Y-96218241D01*
X50190784Y-96283903D01*
X50001442Y-96380379D01*
X49829541Y-96505271D01*
X49741907Y-96592905D01*
X49680583Y-96626389D01*
X49610892Y-96621405D01*
X49554958Y-96579533D01*
X49553908Y-96578108D01*
X49472935Y-96466659D01*
X49467931Y-96459771D01*
X49284229Y-96276069D01*
X49249230Y-96250641D01*
X49074054Y-96123368D01*
X49074053Y-96123367D01*
X49074051Y-96123366D01*
X49001764Y-96086534D01*
X48842576Y-96005422D01*
X48595493Y-95925140D01*
X48338902Y-95884500D01*
X48338897Y-95884500D01*
X48079103Y-95884500D01*
X48079098Y-95884500D01*
X47822506Y-95925140D01*
X47575423Y-96005422D01*
X47343945Y-96123368D01*
X47133774Y-96276066D01*
X47133768Y-96276071D01*
X47046681Y-96363159D01*
X46985358Y-96396644D01*
X46915666Y-96391660D01*
X46871319Y-96363159D01*
X46784231Y-96276071D01*
X46784225Y-96276066D01*
X46574054Y-96123368D01*
X46574053Y-96123367D01*
X46574051Y-96123366D01*
X46501764Y-96086534D01*
X46342576Y-96005422D01*
X46095493Y-95925140D01*
X45838902Y-95884500D01*
X45838897Y-95884500D01*
X45579103Y-95884500D01*
X45579098Y-95884500D01*
X45322506Y-95925140D01*
X45075423Y-96005422D01*
X44843945Y-96123368D01*
X44633774Y-96276066D01*
X44633768Y-96276071D01*
X44450071Y-96459768D01*
X44450066Y-96459774D01*
X44297368Y-96669945D01*
X44179422Y-96901423D01*
X44099140Y-97148506D01*
X44058500Y-97405097D01*
X25900500Y-97405097D01*
X25900500Y-83925039D01*
X35438500Y-83925039D01*
X35438500Y-85714960D01*
X35453630Y-85849249D01*
X35453631Y-85849254D01*
X35513211Y-86019523D01*
X35559650Y-86093429D01*
X35609184Y-86172262D01*
X35736738Y-86299816D01*
X35798106Y-86338376D01*
X35889466Y-86395782D01*
X35889478Y-86395789D01*
X36035093Y-86446742D01*
X36059745Y-86455368D01*
X36059750Y-86455369D01*
X36150246Y-86465565D01*
X36194040Y-86470499D01*
X36194043Y-86470500D01*
X36194046Y-86470500D01*
X37983957Y-86470500D01*
X37983958Y-86470499D01*
X38051104Y-86462934D01*
X38118249Y-86455369D01*
X38118252Y-86455368D01*
X38118255Y-86455368D01*
X38288522Y-86395789D01*
X38441262Y-86299816D01*
X38568816Y-86172262D01*
X38664789Y-86019522D01*
X38724368Y-85849255D01*
X38724517Y-85847938D01*
X38733601Y-85767313D01*
X38739500Y-85714954D01*
X38739500Y-83925046D01*
X38731293Y-83852202D01*
X38724369Y-83790750D01*
X38724368Y-83790745D01*
X38701611Y-83725709D01*
X38664789Y-83620478D01*
X38655895Y-83606324D01*
X38579934Y-83485432D01*
X38568816Y-83467738D01*
X38441262Y-83340184D01*
X38400652Y-83314667D01*
X38288523Y-83244211D01*
X38118254Y-83184631D01*
X38118249Y-83184630D01*
X37983960Y-83169500D01*
X37983954Y-83169500D01*
X36194046Y-83169500D01*
X36194039Y-83169500D01*
X36059750Y-83184630D01*
X36059745Y-83184631D01*
X35889476Y-83244211D01*
X35736737Y-83340184D01*
X35609184Y-83467737D01*
X35513211Y-83620476D01*
X35453631Y-83790745D01*
X35453630Y-83790750D01*
X35438500Y-83925039D01*
X25900500Y-83925039D01*
X25900500Y-44320000D01*
X35433396Y-44320000D01*
X35453778Y-44578990D01*
X35514427Y-44831610D01*
X35613843Y-45071623D01*
X35613845Y-45071627D01*
X35613846Y-45071628D01*
X35749588Y-45293140D01*
X35918311Y-45490689D01*
X35995032Y-45556215D01*
X36033225Y-45614720D01*
X36038500Y-45650504D01*
X36038500Y-74022469D01*
X36077211Y-74217080D01*
X36078870Y-74225420D01*
X36158059Y-74416598D01*
X36180341Y-74449945D01*
X36273024Y-74588657D01*
X36423664Y-74739297D01*
X36423686Y-74739317D01*
X49980897Y-88296528D01*
X49980926Y-88296559D01*
X50130342Y-88445975D01*
X50130345Y-88445977D01*
X50302402Y-88560941D01*
X50493580Y-88640130D01*
X50696530Y-88680499D01*
X50696534Y-88680500D01*
X50696535Y-88680500D01*
X63551277Y-88680500D01*
X63618316Y-88700185D01*
X63645567Y-88723968D01*
X63659595Y-88740392D01*
X63659601Y-88740399D01*
X63768948Y-88833790D01*
X63846979Y-88900435D01*
X63846982Y-88900436D01*
X64010809Y-89000830D01*
X64057684Y-89052642D01*
X64069239Y-89115686D01*
X64632425Y-89678871D01*
X64573147Y-89694755D01*
X64456853Y-89761898D01*
X64361898Y-89856853D01*
X64294755Y-89973147D01*
X64278871Y-90032424D01*
X63716104Y-89469657D01*
X63716103Y-89469658D01*
X63670295Y-89535080D01*
X63576749Y-89735690D01*
X63576745Y-89735699D01*
X63519461Y-89949490D01*
X63519459Y-89949500D01*
X63500168Y-90169999D01*
X63500168Y-90170000D01*
X63519459Y-90390499D01*
X63519461Y-90390509D01*
X63576745Y-90604300D01*
X63576749Y-90604309D01*
X63670293Y-90804916D01*
X63670295Y-90804920D01*
X63716103Y-90870341D01*
X63716104Y-90870341D01*
X64278871Y-90307574D01*
X64294755Y-90366853D01*
X64361898Y-90483147D01*
X64456853Y-90578102D01*
X64573147Y-90645245D01*
X64632425Y-90661128D01*
X64069657Y-91223894D01*
X64135084Y-91269706D01*
X64335690Y-91363250D01*
X64335699Y-91363254D01*
X64549490Y-91420538D01*
X64549500Y-91420540D01*
X64769999Y-91439832D01*
X64770001Y-91439832D01*
X64990499Y-91420540D01*
X64990509Y-91420538D01*
X65204300Y-91363254D01*
X65204314Y-91363249D01*
X65404911Y-91269709D01*
X65404919Y-91269705D01*
X65470341Y-91223895D01*
X64907574Y-90661128D01*
X64966853Y-90645245D01*
X65083147Y-90578102D01*
X65178102Y-90483147D01*
X65245245Y-90366853D01*
X65261128Y-90307574D01*
X65823895Y-90870341D01*
X65869705Y-90804919D01*
X65869709Y-90804911D01*
X65963249Y-90604314D01*
X65963254Y-90604300D01*
X66020538Y-90390509D01*
X66020540Y-90390499D01*
X66039832Y-90170000D01*
X66039832Y-90169999D01*
X66020540Y-89949500D01*
X66020538Y-89949490D01*
X65963254Y-89735699D01*
X65963250Y-89735690D01*
X65869706Y-89535084D01*
X65823894Y-89469657D01*
X65261128Y-90032424D01*
X65245245Y-89973147D01*
X65178102Y-89856853D01*
X65083147Y-89761898D01*
X64966853Y-89694755D01*
X64907574Y-89678871D01*
X65470795Y-89115650D01*
X65484217Y-89048866D01*
X65529188Y-89000830D01*
X65693023Y-88900433D01*
X65880399Y-88740399D01*
X65894433Y-88723968D01*
X65952940Y-88685775D01*
X65988723Y-88680500D01*
X80157507Y-88680500D01*
X80224546Y-88700185D01*
X80245188Y-88716819D01*
X84774897Y-93246528D01*
X84774926Y-93246559D01*
X84924342Y-93395975D01*
X84924345Y-93395977D01*
X85096402Y-93510941D01*
X85287580Y-93590130D01*
X85490530Y-93630499D01*
X85490534Y-93630500D01*
X85490535Y-93630500D01*
X89507466Y-93630500D01*
X89507467Y-93630499D01*
X89710420Y-93590130D01*
X89901598Y-93510941D01*
X90073655Y-93395977D01*
X90219977Y-93249655D01*
X90219977Y-93249653D01*
X90230185Y-93239446D01*
X90230186Y-93239443D01*
X92124977Y-91344655D01*
X92239942Y-91172598D01*
X92319130Y-90981420D01*
X92332340Y-90915005D01*
X92359501Y-90778467D01*
X92359501Y-90566425D01*
X92359500Y-90566399D01*
X92359500Y-89506649D01*
X101174157Y-89506649D01*
X101189438Y-89681299D01*
X101244586Y-89847724D01*
X101244588Y-89847729D01*
X101336626Y-89996946D01*
X101408559Y-90071004D01*
X101408564Y-90071009D01*
X101810725Y-90408462D01*
X102418277Y-89684410D01*
X102427370Y-89718343D01*
X102489905Y-89826657D01*
X102578343Y-89915095D01*
X102686657Y-89977630D01*
X102799555Y-90007880D01*
X102193748Y-90729855D01*
X102595910Y-91067308D01*
X102681335Y-91125291D01*
X102844271Y-91190023D01*
X103017753Y-91215434D01*
X103192403Y-91200154D01*
X103358828Y-91145006D01*
X103358833Y-91145004D01*
X103508050Y-91052966D01*
X103582121Y-90981021D01*
X103839218Y-90674621D01*
X103019412Y-89986721D01*
X103053343Y-89977630D01*
X103161657Y-89915095D01*
X103250095Y-89826657D01*
X103312630Y-89718343D01*
X103342881Y-89605442D01*
X104160611Y-90291600D01*
X104417703Y-89985212D01*
X104417705Y-89985208D01*
X104475700Y-89899767D01*
X104475702Y-89899763D01*
X104540430Y-89736833D01*
X104540430Y-89736832D01*
X104565842Y-89563350D01*
X104550561Y-89388700D01*
X104493179Y-89215533D01*
X104490777Y-89145705D01*
X104526509Y-89085663D01*
X104589029Y-89054470D01*
X104600077Y-89053001D01*
X104796232Y-89035837D01*
X104796233Y-89035837D01*
X105002414Y-88984430D01*
X105198018Y-88901401D01*
X105378219Y-88788798D01*
X105428745Y-88744875D01*
X104626380Y-88071610D01*
X104660312Y-88062519D01*
X104768626Y-87999984D01*
X104857064Y-87911546D01*
X104919599Y-87803232D01*
X104949850Y-87690331D01*
X105750139Y-88361853D01*
X105784619Y-88304470D01*
X105784625Y-88304457D01*
X105864226Y-88107437D01*
X105912024Y-87900391D01*
X105926848Y-87688411D01*
X105908325Y-87476728D01*
X105858953Y-87278708D01*
X105861835Y-87208897D01*
X105902001Y-87151727D01*
X105966699Y-87125348D01*
X105987920Y-87125011D01*
X106191519Y-87139249D01*
X106403202Y-87120726D01*
X106609383Y-87069319D01*
X106804987Y-86986290D01*
X106985188Y-86873687D01*
X107035714Y-86829764D01*
X106233349Y-86156499D01*
X106267281Y-86147408D01*
X106375595Y-86084873D01*
X106464033Y-85996435D01*
X106526568Y-85888121D01*
X106556819Y-85775220D01*
X107357108Y-86446742D01*
X107391588Y-86389359D01*
X107391594Y-86389346D01*
X107471195Y-86192326D01*
X107518993Y-85985280D01*
X107533817Y-85773300D01*
X107515294Y-85561617D01*
X107465922Y-85363597D01*
X107468804Y-85293786D01*
X107508970Y-85236616D01*
X107573668Y-85210237D01*
X107594889Y-85209900D01*
X107798488Y-85224138D01*
X108010171Y-85205615D01*
X108216352Y-85154208D01*
X108411956Y-85071179D01*
X108592157Y-84958576D01*
X108642683Y-84914653D01*
X107840318Y-84241388D01*
X107874250Y-84232297D01*
X107982564Y-84169762D01*
X108071002Y-84081324D01*
X108133537Y-83973010D01*
X108163788Y-83860109D01*
X108964077Y-84531631D01*
X108998557Y-84474248D01*
X108998563Y-84474235D01*
X109078164Y-84277215D01*
X109125962Y-84070169D01*
X109140786Y-83858189D01*
X109122263Y-83646506D01*
X109070856Y-83440325D01*
X108987827Y-83244721D01*
X108875221Y-83064517D01*
X108748271Y-82918479D01*
X108142628Y-83640253D01*
X108133537Y-83606324D01*
X108071002Y-83498010D01*
X107982564Y-83409572D01*
X107874250Y-83347037D01*
X107761348Y-83316785D01*
X108365249Y-82597085D01*
X108199373Y-82497418D01*
X108002350Y-82417817D01*
X108002352Y-82417817D01*
X107795305Y-82370019D01*
X107583325Y-82355195D01*
X107371642Y-82373718D01*
X107165461Y-82425125D01*
X106969857Y-82508154D01*
X106789657Y-82620757D01*
X106739130Y-82664679D01*
X107541495Y-83337945D01*
X107507564Y-83347037D01*
X107399250Y-83409572D01*
X107310812Y-83498010D01*
X107248277Y-83606324D01*
X107218025Y-83719224D01*
X106417735Y-83047701D01*
X106383251Y-83105094D01*
X106383250Y-83105098D01*
X106303649Y-83302118D01*
X106255851Y-83509164D01*
X106241027Y-83721144D01*
X106259550Y-83932827D01*
X106259550Y-83932831D01*
X106308922Y-84130848D01*
X106306040Y-84200658D01*
X106265874Y-84257828D01*
X106201175Y-84284207D01*
X106179955Y-84284544D01*
X105976356Y-84270306D01*
X105764673Y-84288829D01*
X105558492Y-84340236D01*
X105362888Y-84423265D01*
X105182688Y-84535868D01*
X105132161Y-84579790D01*
X105934526Y-85253056D01*
X105900595Y-85262148D01*
X105792281Y-85324683D01*
X105703843Y-85413121D01*
X105641308Y-85521435D01*
X105611056Y-85634335D01*
X104810766Y-84962812D01*
X104776282Y-85020205D01*
X104776281Y-85020209D01*
X104696680Y-85217229D01*
X104648882Y-85424275D01*
X104634058Y-85636255D01*
X104652581Y-85847938D01*
X104652581Y-85847942D01*
X104701953Y-86045959D01*
X104699071Y-86115769D01*
X104658905Y-86172939D01*
X104594206Y-86199318D01*
X104572986Y-86199655D01*
X104369387Y-86185417D01*
X104157704Y-86203940D01*
X103951523Y-86255347D01*
X103755919Y-86338376D01*
X103575719Y-86450979D01*
X103525192Y-86494901D01*
X104327557Y-87168167D01*
X104293626Y-87177259D01*
X104185312Y-87239794D01*
X104096874Y-87328232D01*
X104034339Y-87436546D01*
X104004087Y-87549446D01*
X103203797Y-86877923D01*
X103169313Y-86935316D01*
X103169312Y-86935320D01*
X103089711Y-87132340D01*
X103041913Y-87339386D01*
X103027089Y-87551366D01*
X103044252Y-87747505D01*
X103030486Y-87816005D01*
X102981871Y-87866189D01*
X102913843Y-87882123D01*
X102902753Y-87881005D01*
X102722246Y-87854564D01*
X102547596Y-87869845D01*
X102381171Y-87924993D01*
X102381166Y-87924995D01*
X102231949Y-88017033D01*
X102157891Y-88088966D01*
X102157876Y-88088983D01*
X101900780Y-88395376D01*
X102720588Y-89083278D01*
X102686657Y-89092370D01*
X102578343Y-89154905D01*
X102489905Y-89243343D01*
X102427370Y-89351657D01*
X102397118Y-89464557D01*
X101579387Y-88778398D01*
X101579386Y-88778399D01*
X101322291Y-89084795D01*
X101264299Y-89170232D01*
X101264297Y-89170236D01*
X101199569Y-89333166D01*
X101199569Y-89333167D01*
X101174157Y-89506649D01*
X92359500Y-89506649D01*
X92359500Y-69571493D01*
X92379185Y-69504454D01*
X92395819Y-69483812D01*
X92977812Y-68901819D01*
X93039135Y-68868334D01*
X93065493Y-68865500D01*
X94004325Y-68865500D01*
X94071364Y-68885185D01*
X94113683Y-68931047D01*
X94151311Y-69001444D01*
X94151315Y-69001450D01*
X94282589Y-69161410D01*
X94331330Y-69201410D01*
X94442550Y-69292685D01*
X94504664Y-69325886D01*
X94504668Y-69325888D01*
X94554512Y-69374851D01*
X94569972Y-69442989D01*
X94546533Y-69508131D01*
X94474376Y-69607446D01*
X94377904Y-69796782D01*
X94312242Y-69998870D01*
X94312242Y-69998873D01*
X94301769Y-70065000D01*
X95349854Y-70065000D01*
X95311370Y-70131657D01*
X95279000Y-70252465D01*
X95279000Y-70377535D01*
X95311370Y-70498343D01*
X95349854Y-70565000D01*
X94301769Y-70565000D01*
X94312242Y-70631126D01*
X94312242Y-70631129D01*
X94377904Y-70833217D01*
X94474379Y-71022557D01*
X94599272Y-71194459D01*
X94599276Y-71194464D01*
X94686904Y-71282092D01*
X94720389Y-71343415D01*
X94715405Y-71413107D01*
X94673533Y-71469040D01*
X94672109Y-71470091D01*
X94553769Y-71556070D01*
X94370071Y-71739768D01*
X94370066Y-71739774D01*
X94217368Y-71949945D01*
X94099422Y-72181423D01*
X94019140Y-72428506D01*
X93978500Y-72685097D01*
X93978500Y-72944902D01*
X94019140Y-73201493D01*
X94099422Y-73448576D01*
X94159106Y-73565710D01*
X94207149Y-73660000D01*
X94217368Y-73680054D01*
X94370066Y-73890225D01*
X94370071Y-73890231D01*
X94457159Y-73977319D01*
X94490644Y-74038642D01*
X94485660Y-74108334D01*
X94457159Y-74152681D01*
X94370071Y-74239768D01*
X94370066Y-74239774D01*
X94217368Y-74449945D01*
X94099422Y-74681423D01*
X94019140Y-74928506D01*
X93978500Y-75185097D01*
X93978500Y-75444902D01*
X94019140Y-75701493D01*
X94099422Y-75948576D01*
X94146209Y-76040399D01*
X94209298Y-76164217D01*
X94217368Y-76180054D01*
X94351834Y-76365131D01*
X94370069Y-76390229D01*
X94553771Y-76573931D01*
X94763949Y-76726634D01*
X94911445Y-76801787D01*
X94995423Y-76844577D01*
X94995425Y-76844577D01*
X94995428Y-76844579D01*
X95242507Y-76924860D01*
X95374706Y-76945797D01*
X95499098Y-76965500D01*
X95499103Y-76965500D01*
X96008902Y-76965500D01*
X96122298Y-76947539D01*
X96265493Y-76924860D01*
X96512572Y-76844579D01*
X96744051Y-76726634D01*
X96954229Y-76573931D01*
X97126341Y-76401819D01*
X97187664Y-76368334D01*
X97214022Y-76365500D01*
X101913978Y-76365500D01*
X101981017Y-76385185D01*
X102001659Y-76401819D01*
X102173771Y-76573931D01*
X102383949Y-76726634D01*
X102531445Y-76801787D01*
X102615423Y-76844577D01*
X102615425Y-76844577D01*
X102615428Y-76844579D01*
X102862507Y-76924860D01*
X102994706Y-76945797D01*
X103119098Y-76965500D01*
X103119103Y-76965500D01*
X103628902Y-76965500D01*
X103742298Y-76947539D01*
X103885493Y-76924860D01*
X104132572Y-76844579D01*
X104364051Y-76726634D01*
X104574229Y-76573931D01*
X104746341Y-76401819D01*
X104807664Y-76368334D01*
X104834022Y-76365500D01*
X109499859Y-76365500D01*
X109566898Y-76385185D01*
X109600177Y-76416614D01*
X109610069Y-76430229D01*
X109793771Y-76613931D01*
X110003949Y-76766634D01*
X110151445Y-76841787D01*
X110235423Y-76884577D01*
X110235425Y-76884577D01*
X110235428Y-76884579D01*
X110482507Y-76964860D01*
X110614706Y-76985797D01*
X110739098Y-77005500D01*
X110739103Y-77005500D01*
X111248902Y-77005500D01*
X111362298Y-76987539D01*
X111505493Y-76964860D01*
X111752572Y-76884579D01*
X111984051Y-76766634D01*
X112194229Y-76613931D01*
X112366341Y-76441819D01*
X112427664Y-76408334D01*
X112454022Y-76405500D01*
X113082466Y-76405500D01*
X113082467Y-76405499D01*
X113285420Y-76365130D01*
X113476598Y-76285941D01*
X113648655Y-76170977D01*
X113794977Y-76024655D01*
X113794978Y-76024653D01*
X113802044Y-76017587D01*
X113802047Y-76017583D01*
X117429630Y-72390000D01*
X120984778Y-72390000D01*
X121003644Y-72677837D01*
X121003646Y-72677849D01*
X121059917Y-72960745D01*
X121059921Y-72960760D01*
X121152642Y-73233905D01*
X121280219Y-73492606D01*
X121280223Y-73492613D01*
X121440478Y-73732452D01*
X121630672Y-73949327D01*
X121847547Y-74139521D01*
X122005131Y-74244815D01*
X122087389Y-74299778D01*
X122346098Y-74427359D01*
X122619247Y-74520081D01*
X122902161Y-74576356D01*
X123190000Y-74595222D01*
X123477839Y-74576356D01*
X123760753Y-74520081D01*
X124033902Y-74427359D01*
X124292611Y-74299778D01*
X124532454Y-74139520D01*
X124749327Y-73949327D01*
X124939520Y-73732454D01*
X125099778Y-73492611D01*
X125227359Y-73233902D01*
X125320081Y-72960753D01*
X125376356Y-72677839D01*
X125395222Y-72390000D01*
X125376356Y-72102161D01*
X125320081Y-71819247D01*
X125227359Y-71546098D01*
X125099778Y-71287389D01*
X125064411Y-71234458D01*
X124939521Y-71047547D01*
X124749327Y-70830672D01*
X124532452Y-70640478D01*
X124292613Y-70480223D01*
X124292606Y-70480219D01*
X124033905Y-70352642D01*
X123760760Y-70259921D01*
X123760754Y-70259919D01*
X123760753Y-70259919D01*
X123760751Y-70259918D01*
X123760745Y-70259917D01*
X123477849Y-70203646D01*
X123477839Y-70203644D01*
X123190000Y-70184778D01*
X122902161Y-70203644D01*
X122902155Y-70203645D01*
X122902150Y-70203646D01*
X122619254Y-70259917D01*
X122619239Y-70259921D01*
X122346094Y-70352642D01*
X122087393Y-70480219D01*
X122087386Y-70480223D01*
X121847547Y-70640478D01*
X121630672Y-70830672D01*
X121440478Y-71047547D01*
X121280223Y-71287386D01*
X121280219Y-71287393D01*
X121152642Y-71546094D01*
X121059921Y-71819239D01*
X121059917Y-71819254D01*
X121003646Y-72102150D01*
X121003644Y-72102162D01*
X120984778Y-72390000D01*
X117429630Y-72390000D01*
X118144651Y-71674979D01*
X118144655Y-71674977D01*
X118290977Y-71528655D01*
X118405941Y-71356598D01*
X118485130Y-71165420D01*
X118525500Y-70962465D01*
X118525500Y-48157535D01*
X118485130Y-47954580D01*
X118405941Y-47763402D01*
X118290977Y-47591345D01*
X118290975Y-47591342D01*
X118141559Y-47441926D01*
X118141528Y-47441897D01*
X115624317Y-44924686D01*
X115624297Y-44924664D01*
X115473657Y-44774024D01*
X115387626Y-44716541D01*
X115301598Y-44659059D01*
X115110420Y-44579870D01*
X115110412Y-44579868D01*
X114907469Y-44539500D01*
X114907465Y-44539500D01*
X114748776Y-44539500D01*
X114681737Y-44519815D01*
X114654485Y-44496030D01*
X114642273Y-44481731D01*
X114455252Y-44321999D01*
X114455249Y-44321998D01*
X114290674Y-44221146D01*
X114243799Y-44169334D01*
X114231936Y-44104611D01*
X114232187Y-44101740D01*
X113561448Y-43431000D01*
X113584160Y-43431000D01*
X113681061Y-43405036D01*
X113767940Y-43354876D01*
X113838876Y-43283940D01*
X113889036Y-43197061D01*
X113915000Y-43100160D01*
X113915000Y-43077447D01*
X114585741Y-43748188D01*
X114631094Y-43683417D01*
X114631100Y-43683407D01*
X114724419Y-43483284D01*
X114724424Y-43483270D01*
X114781573Y-43269986D01*
X114781575Y-43269976D01*
X114800821Y-43050000D01*
X114800821Y-43049999D01*
X114781575Y-42830023D01*
X114781573Y-42830013D01*
X114724424Y-42616729D01*
X114724420Y-42616720D01*
X114631096Y-42416586D01*
X114585741Y-42351811D01*
X114585740Y-42351810D01*
X113915000Y-43022551D01*
X113915000Y-42999840D01*
X113889036Y-42902939D01*
X113838876Y-42816060D01*
X113767940Y-42745124D01*
X113681061Y-42694964D01*
X113584160Y-42669000D01*
X113561447Y-42669000D01*
X114232187Y-41998259D01*
X114231936Y-41995389D01*
X114245701Y-41926889D01*
X114290671Y-41878855D01*
X114455255Y-41777998D01*
X114642271Y-41618271D01*
X114801998Y-41431255D01*
X114930503Y-41221554D01*
X114933081Y-41215332D01*
X114995395Y-41064889D01*
X115024621Y-40994332D01*
X115082036Y-40755185D01*
X115101332Y-40510000D01*
X115082036Y-40264815D01*
X115024621Y-40025668D01*
X114954037Y-39855262D01*
X114930505Y-39798449D01*
X114930503Y-39798446D01*
X114802000Y-39588749D01*
X114802000Y-39588747D01*
X114765915Y-39546498D01*
X114642271Y-39401729D01*
X114518625Y-39296125D01*
X114455252Y-39241999D01*
X114455249Y-39241998D01*
X114245553Y-39113496D01*
X114245550Y-39113494D01*
X114018336Y-39019380D01*
X114018332Y-39019379D01*
X113779185Y-38961964D01*
X113779182Y-38961963D01*
X113779179Y-38961963D01*
X113534000Y-38942668D01*
X113288820Y-38961963D01*
X113288816Y-38961963D01*
X113288815Y-38961964D01*
X113169241Y-38990671D01*
X113049663Y-39019380D01*
X112822449Y-39113494D01*
X112822446Y-39113496D01*
X112612750Y-39241998D01*
X112612747Y-39241999D01*
X112425729Y-39401729D01*
X112265999Y-39588747D01*
X112265998Y-39588750D01*
X112137496Y-39798446D01*
X112137494Y-39798449D01*
X112043380Y-40025663D01*
X111985963Y-40264820D01*
X111966668Y-40510000D01*
X111985963Y-40755179D01*
X111985963Y-40755182D01*
X111985964Y-40755185D01*
X112024573Y-40915999D01*
X112043380Y-40994336D01*
X112137494Y-41221550D01*
X112137496Y-41221553D01*
X112265998Y-41431249D01*
X112265999Y-41431252D01*
X112266002Y-41431255D01*
X112425729Y-41618271D01*
X112612745Y-41777998D01*
X112777324Y-41878852D01*
X112824199Y-41930663D01*
X112836062Y-41995387D01*
X112835810Y-41998257D01*
X113506554Y-42669000D01*
X113483840Y-42669000D01*
X113386939Y-42694964D01*
X113300060Y-42745124D01*
X113229124Y-42816060D01*
X113178964Y-42902939D01*
X113153000Y-42999840D01*
X113153000Y-43022553D01*
X112482258Y-42351811D01*
X112436901Y-42416590D01*
X112343579Y-42616720D01*
X112343575Y-42616729D01*
X112286426Y-42830013D01*
X112286424Y-42830023D01*
X112267179Y-43049999D01*
X112267179Y-43050000D01*
X112286424Y-43269976D01*
X112286426Y-43269986D01*
X112343575Y-43483270D01*
X112343580Y-43483284D01*
X112436898Y-43683405D01*
X112436901Y-43683411D01*
X112482258Y-43748187D01*
X112482258Y-43748188D01*
X113153000Y-43077446D01*
X113153000Y-43100160D01*
X113178964Y-43197061D01*
X113229124Y-43283940D01*
X113300060Y-43354876D01*
X113386939Y-43405036D01*
X113483840Y-43431000D01*
X113506553Y-43431000D01*
X112835809Y-44101741D01*
X112836061Y-44104614D01*
X112822294Y-44173114D01*
X112777323Y-44221147D01*
X112612750Y-44321998D01*
X112612747Y-44321999D01*
X112425726Y-44481731D01*
X112413515Y-44496030D01*
X112355009Y-44534224D01*
X112319224Y-44539500D01*
X110845493Y-44539500D01*
X110778454Y-44519815D01*
X110757812Y-44503181D01*
X110317317Y-44062686D01*
X110317297Y-44062664D01*
X110166657Y-43912024D01*
X110011556Y-43808390D01*
X109994598Y-43797059D01*
X109803420Y-43717870D01*
X109803412Y-43717868D01*
X109600469Y-43677500D01*
X109600465Y-43677500D01*
X95317776Y-43677500D01*
X95250737Y-43657815D01*
X95223485Y-43634030D01*
X95211273Y-43619731D01*
X95024252Y-43459999D01*
X95024249Y-43459998D01*
X94859674Y-43359146D01*
X94812799Y-43307334D01*
X94800936Y-43242611D01*
X94801187Y-43239740D01*
X94130448Y-42569000D01*
X94153160Y-42569000D01*
X94250061Y-42543036D01*
X94336940Y-42492876D01*
X94407876Y-42421940D01*
X94458036Y-42335061D01*
X94484000Y-42238160D01*
X94484000Y-42215447D01*
X95154741Y-42886188D01*
X95200094Y-42821417D01*
X95200100Y-42821407D01*
X95293419Y-42621284D01*
X95293424Y-42621270D01*
X95350573Y-42407986D01*
X95350575Y-42407976D01*
X95369821Y-42188000D01*
X95369821Y-42187999D01*
X95350575Y-41968023D01*
X95350573Y-41968013D01*
X95293424Y-41754729D01*
X95293420Y-41754720D01*
X95200096Y-41554586D01*
X95154741Y-41489811D01*
X95154740Y-41489810D01*
X94484000Y-42160551D01*
X94484000Y-42137840D01*
X94458036Y-42040939D01*
X94407876Y-41954060D01*
X94336940Y-41883124D01*
X94250061Y-41832964D01*
X94153160Y-41807000D01*
X94130447Y-41807000D01*
X94801187Y-41136259D01*
X94800936Y-41133389D01*
X94814701Y-41064889D01*
X94859671Y-41016855D01*
X95024255Y-40915998D01*
X95211271Y-40756271D01*
X95370998Y-40569255D01*
X95499503Y-40359554D01*
X95593621Y-40132332D01*
X95651036Y-39893185D01*
X95670332Y-39648000D01*
X95651036Y-39402815D01*
X95593621Y-39163668D01*
X95572839Y-39113496D01*
X95499505Y-38936449D01*
X95499503Y-38936446D01*
X95371001Y-38726750D01*
X95371000Y-38726747D01*
X95311498Y-38657080D01*
X95211271Y-38539729D01*
X95087625Y-38434125D01*
X95024252Y-38379999D01*
X95024249Y-38379998D01*
X94814553Y-38251496D01*
X94814550Y-38251494D01*
X94587336Y-38157380D01*
X94544130Y-38147007D01*
X94348185Y-38099964D01*
X94348182Y-38099963D01*
X94348179Y-38099963D01*
X94103000Y-38080668D01*
X93857820Y-38099963D01*
X93857816Y-38099963D01*
X93857815Y-38099964D01*
X93738241Y-38128671D01*
X93618663Y-38157380D01*
X93391449Y-38251494D01*
X93391446Y-38251496D01*
X93181750Y-38379998D01*
X93181747Y-38379999D01*
X92994729Y-38539729D01*
X92834999Y-38726747D01*
X92834998Y-38726750D01*
X92706496Y-38936446D01*
X92706494Y-38936449D01*
X92612380Y-39163663D01*
X92554963Y-39402820D01*
X92535668Y-39648000D01*
X92554963Y-39893179D01*
X92612380Y-40132336D01*
X92706494Y-40359550D01*
X92706496Y-40359553D01*
X92834998Y-40569249D01*
X92834999Y-40569252D01*
X92889125Y-40632625D01*
X92994729Y-40756271D01*
X93181745Y-40915998D01*
X93346324Y-41016852D01*
X93393199Y-41068663D01*
X93405062Y-41133387D01*
X93404810Y-41136257D01*
X94075554Y-41807000D01*
X94052840Y-41807000D01*
X93955939Y-41832964D01*
X93869060Y-41883124D01*
X93798124Y-41954060D01*
X93747964Y-42040939D01*
X93722000Y-42137840D01*
X93722000Y-42160553D01*
X93051258Y-41489811D01*
X93005901Y-41554590D01*
X92912579Y-41754720D01*
X92912575Y-41754729D01*
X92855426Y-41968013D01*
X92855424Y-41968023D01*
X92836179Y-42187999D01*
X92836179Y-42188000D01*
X92855424Y-42407976D01*
X92855426Y-42407986D01*
X92912575Y-42621270D01*
X92912580Y-42621284D01*
X93005898Y-42821405D01*
X93005901Y-42821411D01*
X93051258Y-42886187D01*
X93051258Y-42886188D01*
X93722000Y-42215446D01*
X93722000Y-42238160D01*
X93747964Y-42335061D01*
X93798124Y-42421940D01*
X93869060Y-42492876D01*
X93955939Y-42543036D01*
X94052840Y-42569000D01*
X94075553Y-42569000D01*
X93404809Y-43239741D01*
X93405061Y-43242614D01*
X93391294Y-43311114D01*
X93346323Y-43359147D01*
X93181750Y-43459998D01*
X93181747Y-43459999D01*
X92994726Y-43619731D01*
X92982515Y-43634030D01*
X92924009Y-43672224D01*
X92888224Y-43677500D01*
X92838493Y-43677500D01*
X92771454Y-43657815D01*
X92750812Y-43641181D01*
X91760819Y-42651188D01*
X91727334Y-42589865D01*
X91724500Y-42563507D01*
X91724500Y-34904599D01*
X91724501Y-34904578D01*
X91724501Y-34691532D01*
X91684131Y-34488585D01*
X91684130Y-34488584D01*
X91684130Y-34488580D01*
X91664789Y-34441887D01*
X91604945Y-34297408D01*
X91604938Y-34297395D01*
X91489977Y-34125345D01*
X91489974Y-34125341D01*
X89592047Y-32227416D01*
X89592044Y-32227412D01*
X89592044Y-32227413D01*
X89584977Y-32220346D01*
X89584977Y-32220345D01*
X89438655Y-32074023D01*
X89266598Y-31959059D01*
X89266226Y-31958905D01*
X89075420Y-31879870D01*
X89075412Y-31879868D01*
X88872469Y-31839500D01*
X88872465Y-31839500D01*
X84215025Y-31839500D01*
X84147986Y-31819815D01*
X84138863Y-31813353D01*
X83972843Y-31684134D01*
X83972837Y-31684130D01*
X83763611Y-31570902D01*
X83763602Y-31570899D01*
X83538604Y-31493656D01*
X83303949Y-31454500D01*
X83066051Y-31454500D01*
X82831395Y-31493656D01*
X82606397Y-31570899D01*
X82606388Y-31570902D01*
X82397162Y-31684130D01*
X82397156Y-31684134D01*
X82209436Y-31830243D01*
X82209432Y-31830246D01*
X82048307Y-32005274D01*
X82048304Y-32005278D01*
X81918188Y-32204434D01*
X81822625Y-32422297D01*
X81764225Y-32652911D01*
X81764223Y-32652922D01*
X81744580Y-32889993D01*
X81744580Y-32890006D01*
X81764223Y-33127077D01*
X81764225Y-33127088D01*
X81822625Y-33357702D01*
X81918188Y-33575565D01*
X82048304Y-33774721D01*
X82048307Y-33774725D01*
X82209432Y-33949753D01*
X82209436Y-33949756D01*
X82397156Y-34095865D01*
X82397162Y-34095869D01*
X82397165Y-34095871D01*
X82568837Y-34188775D01*
X82598477Y-34204816D01*
X82606390Y-34209098D01*
X82831398Y-34286344D01*
X83066051Y-34325500D01*
X83303949Y-34325500D01*
X83538602Y-34286344D01*
X83763610Y-34209098D01*
X83972835Y-34095871D01*
X83976550Y-34092978D01*
X84041541Y-34067333D01*
X84110081Y-34080894D01*
X84160410Y-34129359D01*
X84176547Y-34197340D01*
X84176295Y-34201060D01*
X84175985Y-34204804D01*
X84175985Y-34204816D01*
X84195628Y-34441887D01*
X84195630Y-34441898D01*
X84254030Y-34672512D01*
X84349593Y-34890375D01*
X84479709Y-35089531D01*
X84479711Y-35089534D01*
X84594774Y-35214526D01*
X84640837Y-35264563D01*
X84640841Y-35264566D01*
X84828561Y-35410675D01*
X84828567Y-35410679D01*
X84828570Y-35410681D01*
X85037795Y-35523908D01*
X85262803Y-35601154D01*
X85497456Y-35640310D01*
X85735354Y-35640310D01*
X85970007Y-35601154D01*
X86195015Y-35523908D01*
X86404240Y-35410681D01*
X86591975Y-35264561D01*
X86604904Y-35250515D01*
X86664791Y-35214526D01*
X86696133Y-35210500D01*
X87965007Y-35210500D01*
X88032046Y-35230185D01*
X88052688Y-35246819D01*
X88275896Y-35470027D01*
X88309381Y-35531350D01*
X88304397Y-35601042D01*
X88262525Y-35656975D01*
X88197061Y-35681392D01*
X88135810Y-35670090D01*
X88064309Y-35636749D01*
X88064300Y-35636745D01*
X87850509Y-35579461D01*
X87850499Y-35579459D01*
X87630001Y-35560168D01*
X87629999Y-35560168D01*
X87409500Y-35579459D01*
X87409490Y-35579461D01*
X87195699Y-35636745D01*
X87195690Y-35636749D01*
X86995080Y-35730295D01*
X86929658Y-35776103D01*
X86929657Y-35776104D01*
X87492425Y-36338871D01*
X87433147Y-36354755D01*
X87316853Y-36421898D01*
X87221898Y-36516853D01*
X87154755Y-36633147D01*
X87138871Y-36692424D01*
X86576104Y-36129657D01*
X86576103Y-36129658D01*
X86530295Y-36195080D01*
X86436749Y-36395690D01*
X86436745Y-36395699D01*
X86379461Y-36609490D01*
X86379459Y-36609500D01*
X86360168Y-36829999D01*
X86360168Y-36830000D01*
X86379459Y-37050499D01*
X86379461Y-37050509D01*
X86436745Y-37264300D01*
X86436749Y-37264309D01*
X86530293Y-37464916D01*
X86530295Y-37464920D01*
X86576103Y-37530341D01*
X86576104Y-37530341D01*
X87138871Y-36967574D01*
X87154755Y-37026853D01*
X87221898Y-37143147D01*
X87316853Y-37238102D01*
X87433147Y-37305245D01*
X87492425Y-37321128D01*
X86929202Y-37884349D01*
X86915780Y-37951136D01*
X86870809Y-37999170D01*
X86706982Y-38099563D01*
X86706979Y-38099564D01*
X86519601Y-38259601D01*
X86359564Y-38446979D01*
X86359563Y-38446981D01*
X86230815Y-38657079D01*
X86136517Y-38884735D01*
X86078993Y-39124341D01*
X86059659Y-39370000D01*
X86078993Y-39615658D01*
X86136517Y-39855264D01*
X86230815Y-40082920D01*
X86359563Y-40293018D01*
X86359564Y-40293020D01*
X86359567Y-40293023D01*
X86519601Y-40480399D01*
X86596071Y-40545711D01*
X86634264Y-40604217D01*
X86634763Y-40674084D01*
X86597409Y-40733131D01*
X86596109Y-40734256D01*
X86570334Y-40756271D01*
X86519601Y-40799601D01*
X86359564Y-40986979D01*
X86359563Y-40986981D01*
X86230815Y-41197079D01*
X86136517Y-41424735D01*
X86078993Y-41664341D01*
X86059659Y-41910000D01*
X86078993Y-42155658D01*
X86136517Y-42395264D01*
X86230815Y-42622920D01*
X86359563Y-42833018D01*
X86359564Y-42833020D01*
X86404973Y-42886187D01*
X86519601Y-43020399D01*
X86596071Y-43085711D01*
X86634264Y-43144217D01*
X86634763Y-43214084D01*
X86597409Y-43273131D01*
X86596109Y-43274256D01*
X86584772Y-43283940D01*
X86519601Y-43339601D01*
X86359564Y-43526979D01*
X86359563Y-43526981D01*
X86230815Y-43737079D01*
X86136517Y-43964735D01*
X86078993Y-44204341D01*
X86059659Y-44450000D01*
X86078993Y-44695658D01*
X86136517Y-44935264D01*
X86230815Y-45162920D01*
X86359563Y-45373018D01*
X86359564Y-45373020D01*
X86391395Y-45410289D01*
X86519601Y-45560399D01*
X86596071Y-45625711D01*
X86634264Y-45684217D01*
X86634763Y-45754084D01*
X86597409Y-45813131D01*
X86596109Y-45814256D01*
X86519601Y-45879601D01*
X86359564Y-46066979D01*
X86359563Y-46066981D01*
X86230815Y-46277079D01*
X86136517Y-46504735D01*
X86078993Y-46744341D01*
X86059659Y-46990000D01*
X86078993Y-47235658D01*
X86136517Y-47475264D01*
X86230815Y-47702920D01*
X86359563Y-47913018D01*
X86359564Y-47913020D01*
X86359567Y-47913023D01*
X86519601Y-48100399D01*
X86596071Y-48165711D01*
X86634264Y-48224217D01*
X86634763Y-48294084D01*
X86597409Y-48353131D01*
X86596109Y-48354256D01*
X86570334Y-48376271D01*
X86519601Y-48419601D01*
X86359564Y-48606979D01*
X86359563Y-48606981D01*
X86230815Y-48817079D01*
X86136517Y-49044735D01*
X86078993Y-49284341D01*
X86059659Y-49530000D01*
X86078993Y-49775658D01*
X86136517Y-50015264D01*
X86230815Y-50242920D01*
X86359563Y-50453018D01*
X86359564Y-50453020D01*
X86359567Y-50453023D01*
X86519601Y-50640399D01*
X86596071Y-50705711D01*
X86634264Y-50764217D01*
X86634763Y-50834084D01*
X86597409Y-50893131D01*
X86596109Y-50894256D01*
X86570334Y-50916271D01*
X86519601Y-50959601D01*
X86359564Y-51146979D01*
X86359563Y-51146981D01*
X86230815Y-51357079D01*
X86136517Y-51584735D01*
X86078993Y-51824341D01*
X86059659Y-52070000D01*
X86078993Y-52315658D01*
X86136517Y-52555264D01*
X86230815Y-52782920D01*
X86359563Y-52993018D01*
X86359564Y-52993020D01*
X86359567Y-52993023D01*
X86519601Y-53180399D01*
X86596071Y-53245711D01*
X86634264Y-53304217D01*
X86634763Y-53374084D01*
X86597409Y-53433131D01*
X86596109Y-53434256D01*
X86570334Y-53456271D01*
X86519601Y-53499601D01*
X86359564Y-53686979D01*
X86359563Y-53686981D01*
X86230815Y-53897079D01*
X86136517Y-54124735D01*
X86078993Y-54364341D01*
X86059659Y-54610000D01*
X86078993Y-54855658D01*
X86136517Y-55095264D01*
X86230815Y-55322920D01*
X86359563Y-55533018D01*
X86359564Y-55533020D01*
X86359567Y-55533023D01*
X86519601Y-55720399D01*
X86596071Y-55785711D01*
X86634264Y-55844217D01*
X86634763Y-55914084D01*
X86597409Y-55973131D01*
X86596109Y-55974256D01*
X86570334Y-55996271D01*
X86519601Y-56039601D01*
X86359564Y-56226979D01*
X86359563Y-56226981D01*
X86230815Y-56437079D01*
X86136517Y-56664735D01*
X86078993Y-56904341D01*
X86059659Y-57150000D01*
X86078993Y-57395658D01*
X86136517Y-57635264D01*
X86230815Y-57862920D01*
X86359563Y-58073018D01*
X86359564Y-58073020D01*
X86359567Y-58073023D01*
X86519601Y-58260399D01*
X86596071Y-58325711D01*
X86634264Y-58384217D01*
X86634763Y-58454084D01*
X86597409Y-58513131D01*
X86596109Y-58514256D01*
X86570334Y-58536271D01*
X86519601Y-58579601D01*
X86359564Y-58766979D01*
X86359563Y-58766981D01*
X86230815Y-58977079D01*
X86136517Y-59204735D01*
X86078993Y-59444341D01*
X86059659Y-59690000D01*
X86078993Y-59935658D01*
X86136517Y-60175264D01*
X86230815Y-60402920D01*
X86359563Y-60613018D01*
X86359564Y-60613020D01*
X86359567Y-60613023D01*
X86519601Y-60800399D01*
X86596071Y-60865711D01*
X86634264Y-60924217D01*
X86634763Y-60994084D01*
X86597409Y-61053131D01*
X86596109Y-61054256D01*
X86519601Y-61119601D01*
X86359564Y-61306979D01*
X86359563Y-61306981D01*
X86230815Y-61517079D01*
X86136517Y-61744735D01*
X86078993Y-61984341D01*
X86059659Y-62230000D01*
X86078993Y-62475658D01*
X86136517Y-62715264D01*
X86230815Y-62942920D01*
X86359563Y-63153018D01*
X86359564Y-63153020D01*
X86359567Y-63153023D01*
X86519601Y-63340399D01*
X86596071Y-63405711D01*
X86634264Y-63464217D01*
X86634763Y-63534084D01*
X86597409Y-63593131D01*
X86596109Y-63594256D01*
X86519601Y-63659601D01*
X86359564Y-63846979D01*
X86359563Y-63846981D01*
X86230815Y-64057079D01*
X86136517Y-64284735D01*
X86078993Y-64524341D01*
X86059659Y-64770000D01*
X86078993Y-65015658D01*
X86136517Y-65255264D01*
X86230815Y-65482920D01*
X86359563Y-65693018D01*
X86359564Y-65693020D01*
X86359567Y-65693023D01*
X86519601Y-65880399D01*
X86596071Y-65945711D01*
X86634264Y-66004217D01*
X86634763Y-66074084D01*
X86597409Y-66133131D01*
X86596109Y-66134256D01*
X86560699Y-66164500D01*
X86519601Y-66199601D01*
X86359564Y-66386979D01*
X86359563Y-66386981D01*
X86230815Y-66597079D01*
X86136517Y-66824735D01*
X86078993Y-67064341D01*
X86059659Y-67310000D01*
X86078993Y-67555658D01*
X86136517Y-67795264D01*
X86230815Y-68022920D01*
X86359563Y-68233018D01*
X86359564Y-68233020D01*
X86359567Y-68233023D01*
X86519601Y-68420399D01*
X86596071Y-68485711D01*
X86634264Y-68544217D01*
X86634763Y-68614084D01*
X86597409Y-68673131D01*
X86596109Y-68674256D01*
X86519601Y-68739601D01*
X86359564Y-68926979D01*
X86359563Y-68926981D01*
X86230815Y-69137079D01*
X86136517Y-69364735D01*
X86078993Y-69604341D01*
X86059659Y-69850000D01*
X86078993Y-70095658D01*
X86136517Y-70335264D01*
X86230815Y-70562920D01*
X86359563Y-70773018D01*
X86359564Y-70773020D01*
X86380583Y-70797630D01*
X86519601Y-70960399D01*
X86596071Y-71025711D01*
X86634264Y-71084217D01*
X86634763Y-71154084D01*
X86597409Y-71213131D01*
X86596109Y-71214256D01*
X86572457Y-71234458D01*
X86519601Y-71279601D01*
X86359564Y-71466979D01*
X86359563Y-71466981D01*
X86230815Y-71677079D01*
X86136517Y-71904735D01*
X86078993Y-72144341D01*
X86059659Y-72390000D01*
X86078993Y-72635658D01*
X86136517Y-72875264D01*
X86230815Y-73102920D01*
X86359563Y-73313018D01*
X86359564Y-73313020D01*
X86413795Y-73376516D01*
X86519601Y-73500399D01*
X86596071Y-73565711D01*
X86634264Y-73624217D01*
X86634763Y-73694084D01*
X86597409Y-73753131D01*
X86596109Y-73754256D01*
X86519601Y-73819601D01*
X86359564Y-74006979D01*
X86359563Y-74006981D01*
X86230815Y-74217079D01*
X86136517Y-74444735D01*
X86078993Y-74684341D01*
X86059659Y-74930000D01*
X86078993Y-75175658D01*
X86136517Y-75415264D01*
X86230815Y-75642920D01*
X86359563Y-75853018D01*
X86359564Y-75853020D01*
X86359567Y-75853023D01*
X86519601Y-76040399D01*
X86596071Y-76105711D01*
X86634264Y-76164217D01*
X86634763Y-76234084D01*
X86597409Y-76293131D01*
X86596109Y-76294256D01*
X86519601Y-76359601D01*
X86359564Y-76546979D01*
X86359563Y-76546981D01*
X86230815Y-76757079D01*
X86136517Y-76984735D01*
X86078993Y-77224341D01*
X86059659Y-77470000D01*
X86078993Y-77715658D01*
X86136517Y-77955264D01*
X86230815Y-78182920D01*
X86359563Y-78393018D01*
X86359564Y-78393020D01*
X86359567Y-78393023D01*
X86519601Y-78580399D01*
X86596071Y-78645711D01*
X86634264Y-78704217D01*
X86634763Y-78774084D01*
X86597409Y-78833131D01*
X86596109Y-78834256D01*
X86519601Y-78899601D01*
X86359564Y-79086979D01*
X86359563Y-79086981D01*
X86230815Y-79297079D01*
X86136517Y-79524735D01*
X86078993Y-79764341D01*
X86059659Y-80010000D01*
X86078993Y-80255658D01*
X86136517Y-80495264D01*
X86230815Y-80722920D01*
X86359563Y-80933018D01*
X86359564Y-80933020D01*
X86359567Y-80933023D01*
X86519601Y-81120399D01*
X86596071Y-81185711D01*
X86634264Y-81244217D01*
X86634763Y-81314084D01*
X86597409Y-81373131D01*
X86596109Y-81374256D01*
X86519601Y-81439601D01*
X86359564Y-81626979D01*
X86359563Y-81626981D01*
X86230815Y-81837079D01*
X86136517Y-82064735D01*
X86078993Y-82304341D01*
X86059659Y-82550000D01*
X86078993Y-82795658D01*
X86136517Y-83035264D01*
X86230815Y-83262920D01*
X86359563Y-83473018D01*
X86359564Y-83473020D01*
X86370165Y-83485432D01*
X86519601Y-83660399D01*
X86596071Y-83725711D01*
X86634264Y-83784217D01*
X86634763Y-83854084D01*
X86597409Y-83913131D01*
X86596109Y-83914256D01*
X86574362Y-83932831D01*
X86519601Y-83979601D01*
X86359564Y-84166979D01*
X86359563Y-84166981D01*
X86230815Y-84377079D01*
X86136517Y-84604735D01*
X86078993Y-84844341D01*
X86059659Y-85090000D01*
X86078993Y-85335658D01*
X86136517Y-85575264D01*
X86230815Y-85802920D01*
X86359563Y-86013018D01*
X86359564Y-86013020D01*
X86387697Y-86045959D01*
X86519601Y-86200399D01*
X86636004Y-86299816D01*
X86706979Y-86360435D01*
X86706982Y-86360436D01*
X86870809Y-86460830D01*
X86917684Y-86512642D01*
X86929239Y-86575686D01*
X87492425Y-87138871D01*
X87433147Y-87154755D01*
X87316853Y-87221898D01*
X87221898Y-87316853D01*
X87154755Y-87433147D01*
X87138871Y-87492424D01*
X86576104Y-86929657D01*
X86576103Y-86929658D01*
X86530295Y-86995080D01*
X86436749Y-87195690D01*
X86436745Y-87195699D01*
X86379461Y-87409490D01*
X86379459Y-87409500D01*
X86360168Y-87629999D01*
X86360168Y-87630000D01*
X86379459Y-87850499D01*
X86379461Y-87850509D01*
X86436745Y-88064300D01*
X86436749Y-88064309D01*
X86530293Y-88264916D01*
X86530295Y-88264920D01*
X86576103Y-88330341D01*
X86576104Y-88330341D01*
X87138871Y-87767574D01*
X87154755Y-87826853D01*
X87221898Y-87943147D01*
X87316853Y-88038102D01*
X87433147Y-88105245D01*
X87492425Y-88121128D01*
X86929657Y-88683894D01*
X86995084Y-88729707D01*
X87119275Y-88787618D01*
X87171714Y-88833790D01*
X87190866Y-88900984D01*
X87170650Y-88967865D01*
X87119275Y-89012382D01*
X86995080Y-89070295D01*
X86929658Y-89116103D01*
X86929657Y-89116104D01*
X87492425Y-89678871D01*
X87433147Y-89694755D01*
X87316853Y-89761898D01*
X87221898Y-89856853D01*
X87154755Y-89973147D01*
X87138871Y-90032424D01*
X86576104Y-89469657D01*
X86576103Y-89469658D01*
X86530295Y-89535080D01*
X86436749Y-89735690D01*
X86436745Y-89735699D01*
X86379461Y-89949490D01*
X86379459Y-89949500D01*
X86360168Y-90169999D01*
X86360168Y-90170000D01*
X86379459Y-90390499D01*
X86379461Y-90390509D01*
X86436745Y-90604300D01*
X86436749Y-90604309D01*
X86530293Y-90804916D01*
X86530295Y-90804920D01*
X86576103Y-90870341D01*
X86576104Y-90870341D01*
X87138871Y-90307574D01*
X87154755Y-90366853D01*
X87221898Y-90483147D01*
X87316853Y-90578102D01*
X87433147Y-90645245D01*
X87492425Y-90661128D01*
X86929657Y-91223894D01*
X86995085Y-91269707D01*
X86995087Y-91269708D01*
X87045289Y-91293118D01*
X87097729Y-91339290D01*
X87116881Y-91406483D01*
X87096665Y-91473365D01*
X87043500Y-91518699D01*
X86992885Y-91529500D01*
X86080493Y-91529500D01*
X86013454Y-91509815D01*
X85992812Y-91493181D01*
X81464317Y-86964686D01*
X81464297Y-86964664D01*
X81313657Y-86814024D01*
X81227626Y-86756541D01*
X81141598Y-86699059D01*
X81104711Y-86683780D01*
X80950420Y-86619870D01*
X80950412Y-86619868D01*
X80747469Y-86579500D01*
X80747465Y-86579500D01*
X65988723Y-86579500D01*
X65921684Y-86559815D01*
X65894433Y-86536032D01*
X65880398Y-86519600D01*
X65803929Y-86454289D01*
X65765736Y-86395782D01*
X65765237Y-86325915D01*
X65802591Y-86266868D01*
X65803826Y-86265797D01*
X65880399Y-86200399D01*
X66040433Y-86013023D01*
X66169184Y-85802920D01*
X66263483Y-85575262D01*
X66321007Y-85335655D01*
X66340341Y-85090000D01*
X66321007Y-84844345D01*
X66263483Y-84604738D01*
X66263482Y-84604735D01*
X66169184Y-84377079D01*
X66040436Y-84166981D01*
X66040435Y-84166979D01*
X65880399Y-83979601D01*
X65872682Y-83973010D01*
X65803927Y-83914288D01*
X65765736Y-83855784D01*
X65765236Y-83785916D01*
X65802590Y-83726870D01*
X65803842Y-83725783D01*
X65880399Y-83660399D01*
X66040433Y-83473023D01*
X66169184Y-83262920D01*
X66263483Y-83035262D01*
X66321007Y-82795655D01*
X66340341Y-82550000D01*
X66321007Y-82304345D01*
X66263483Y-82064738D01*
X66169184Y-81837080D01*
X66169184Y-81837079D01*
X66040436Y-81626981D01*
X66040435Y-81626979D01*
X65880399Y-81439601D01*
X65803927Y-81374288D01*
X65765736Y-81315784D01*
X65765236Y-81245916D01*
X65802590Y-81186870D01*
X65803842Y-81185783D01*
X65880399Y-81120399D01*
X66040433Y-80933023D01*
X66169184Y-80722920D01*
X66263483Y-80495262D01*
X66321007Y-80255655D01*
X66340341Y-80010000D01*
X66321007Y-79764345D01*
X66263483Y-79524738D01*
X66169184Y-79297080D01*
X66169184Y-79297079D01*
X66040436Y-79086981D01*
X66040435Y-79086979D01*
X65880399Y-78899601D01*
X65803927Y-78834288D01*
X65765736Y-78775784D01*
X65765236Y-78705916D01*
X65802590Y-78646870D01*
X65803842Y-78645783D01*
X65880399Y-78580399D01*
X66040433Y-78393023D01*
X66169184Y-78182920D01*
X66263483Y-77955262D01*
X66321007Y-77715655D01*
X66340341Y-77470000D01*
X66321007Y-77224345D01*
X66263483Y-76984738D01*
X66263482Y-76984735D01*
X66169184Y-76757079D01*
X66040436Y-76546981D01*
X66040435Y-76546979D01*
X65880399Y-76359601D01*
X65803927Y-76294288D01*
X65765736Y-76235784D01*
X65765236Y-76165916D01*
X65802590Y-76106870D01*
X65803842Y-76105783D01*
X65880399Y-76040399D01*
X66040433Y-75853023D01*
X66169184Y-75642920D01*
X66263483Y-75415262D01*
X66321007Y-75175655D01*
X66340341Y-74930000D01*
X66321007Y-74684345D01*
X66263483Y-74444738D01*
X66263482Y-74444735D01*
X66169184Y-74217079D01*
X66040436Y-74006981D01*
X66040435Y-74006979D01*
X65880399Y-73819601D01*
X65803927Y-73754288D01*
X65765736Y-73695784D01*
X65765236Y-73625916D01*
X65802590Y-73566870D01*
X65803842Y-73565783D01*
X65880399Y-73500399D01*
X66040433Y-73313023D01*
X66169184Y-73102920D01*
X66263483Y-72875262D01*
X66321007Y-72635655D01*
X66340341Y-72390000D01*
X66321007Y-72144345D01*
X66263483Y-71904738D01*
X66228762Y-71820913D01*
X66169184Y-71677079D01*
X66040436Y-71466981D01*
X66040435Y-71466979D01*
X65880399Y-71279601D01*
X65803927Y-71214288D01*
X65765736Y-71155784D01*
X65765236Y-71085916D01*
X65802590Y-71026870D01*
X65803842Y-71025783D01*
X65880399Y-70960399D01*
X66040433Y-70773023D01*
X66169184Y-70562920D01*
X66263483Y-70335262D01*
X66321007Y-70095655D01*
X66340341Y-69850000D01*
X66321007Y-69604345D01*
X66263483Y-69364738D01*
X66233638Y-69292685D01*
X66169184Y-69137079D01*
X66040436Y-68926981D01*
X66040435Y-68926979D01*
X65880399Y-68739601D01*
X65803927Y-68674288D01*
X65765736Y-68615784D01*
X65765236Y-68545916D01*
X65802590Y-68486870D01*
X65803842Y-68485783D01*
X65880399Y-68420399D01*
X66040433Y-68233023D01*
X66169184Y-68022920D01*
X66263483Y-67795262D01*
X66321007Y-67555655D01*
X66340341Y-67310000D01*
X66321007Y-67064345D01*
X66263483Y-66824738D01*
X66257812Y-66811046D01*
X66169184Y-66597079D01*
X66040436Y-66386981D01*
X66040435Y-66386979D01*
X65880399Y-66199601D01*
X65803927Y-66134288D01*
X65765736Y-66075784D01*
X65765236Y-66005916D01*
X65802590Y-65946870D01*
X65803842Y-65945783D01*
X65880399Y-65880399D01*
X66040433Y-65693023D01*
X66169184Y-65482920D01*
X66263483Y-65255262D01*
X66321007Y-65015655D01*
X66340341Y-64770000D01*
X66321007Y-64524345D01*
X66263483Y-64284738D01*
X66169184Y-64057080D01*
X66169184Y-64057079D01*
X66040436Y-63846981D01*
X66040435Y-63846979D01*
X65880399Y-63659601D01*
X65803927Y-63594288D01*
X65765736Y-63535784D01*
X65765236Y-63465916D01*
X65802590Y-63406870D01*
X65803842Y-63405783D01*
X65880399Y-63340399D01*
X66040433Y-63153023D01*
X66169184Y-62942920D01*
X66263483Y-62715262D01*
X66321007Y-62475655D01*
X66340341Y-62230000D01*
X66321007Y-61984345D01*
X66263483Y-61744738D01*
X66169184Y-61517080D01*
X66169184Y-61517079D01*
X66040436Y-61306981D01*
X66040435Y-61306979D01*
X65880399Y-61119601D01*
X65803927Y-61054288D01*
X65765736Y-60995784D01*
X65765236Y-60925916D01*
X65802590Y-60866870D01*
X65803842Y-60865783D01*
X65880399Y-60800399D01*
X66040433Y-60613023D01*
X66169184Y-60402920D01*
X66263483Y-60175262D01*
X66321007Y-59935655D01*
X66340341Y-59690000D01*
X66321007Y-59444345D01*
X66263483Y-59204738D01*
X66263482Y-59204735D01*
X66169184Y-58977079D01*
X66040436Y-58766981D01*
X66040435Y-58766979D01*
X65880399Y-58579601D01*
X65803927Y-58514288D01*
X65765736Y-58455784D01*
X65765236Y-58385916D01*
X65802590Y-58326870D01*
X65803842Y-58325783D01*
X65880399Y-58260399D01*
X66040433Y-58073023D01*
X66169184Y-57862920D01*
X66263483Y-57635262D01*
X66321007Y-57395655D01*
X66340341Y-57150000D01*
X66321007Y-56904345D01*
X66263483Y-56664738D01*
X66263482Y-56664735D01*
X66169184Y-56437079D01*
X66040436Y-56226981D01*
X66040435Y-56226979D01*
X65880399Y-56039601D01*
X65803927Y-55974288D01*
X65765736Y-55915784D01*
X65765236Y-55845916D01*
X65802590Y-55786870D01*
X65803842Y-55785783D01*
X65880399Y-55720399D01*
X66040433Y-55533023D01*
X66169184Y-55322920D01*
X66263483Y-55095262D01*
X66321007Y-54855655D01*
X66340341Y-54610000D01*
X66321007Y-54364345D01*
X66263483Y-54124738D01*
X66263482Y-54124735D01*
X66169184Y-53897079D01*
X66040436Y-53686981D01*
X66040435Y-53686979D01*
X65880399Y-53499601D01*
X65803927Y-53434288D01*
X65765736Y-53375784D01*
X65765236Y-53305916D01*
X65802590Y-53246870D01*
X65803842Y-53245783D01*
X65880399Y-53180399D01*
X66040433Y-52993023D01*
X66169184Y-52782920D01*
X66263483Y-52555262D01*
X66321007Y-52315655D01*
X66340341Y-52070000D01*
X66321007Y-51824345D01*
X66263483Y-51584738D01*
X66263482Y-51584735D01*
X66169184Y-51357079D01*
X66040436Y-51146981D01*
X66040435Y-51146979D01*
X65880399Y-50959601D01*
X65803927Y-50894288D01*
X65765736Y-50835784D01*
X65765236Y-50765916D01*
X65802590Y-50706870D01*
X65803842Y-50705783D01*
X65880399Y-50640399D01*
X66040433Y-50453023D01*
X66169184Y-50242920D01*
X66263483Y-50015262D01*
X66321007Y-49775655D01*
X66340341Y-49530000D01*
X66321007Y-49284345D01*
X66263483Y-49044738D01*
X66222574Y-48945975D01*
X66169184Y-48817079D01*
X66040436Y-48606981D01*
X66040435Y-48606979D01*
X65880399Y-48419601D01*
X65803927Y-48354288D01*
X65765736Y-48295784D01*
X65765236Y-48225916D01*
X65802590Y-48166870D01*
X65803842Y-48165783D01*
X65880399Y-48100399D01*
X66040433Y-47913023D01*
X66169184Y-47702920D01*
X66263483Y-47475262D01*
X66321007Y-47235655D01*
X66340341Y-46990000D01*
X66321007Y-46744345D01*
X66263483Y-46504738D01*
X66169184Y-46277080D01*
X66169184Y-46277079D01*
X66040436Y-46066981D01*
X66040435Y-46066979D01*
X65880399Y-45879601D01*
X65803927Y-45814288D01*
X65765736Y-45755784D01*
X65765236Y-45685916D01*
X65802590Y-45626870D01*
X65803842Y-45625783D01*
X65880399Y-45560399D01*
X66040433Y-45373023D01*
X66169184Y-45162920D01*
X66263483Y-44935262D01*
X66321007Y-44695655D01*
X66340341Y-44450000D01*
X66321007Y-44204345D01*
X66263483Y-43964738D01*
X66218656Y-43856516D01*
X66169184Y-43737079D01*
X66040436Y-43526981D01*
X66040435Y-43526979D01*
X65880399Y-43339601D01*
X65870910Y-43331497D01*
X65803927Y-43274288D01*
X65765736Y-43215784D01*
X65765236Y-43145916D01*
X65802590Y-43086870D01*
X65803842Y-43085783D01*
X65880399Y-43020399D01*
X66040433Y-42833023D01*
X66169184Y-42622920D01*
X66263483Y-42395262D01*
X66321007Y-42155655D01*
X66340341Y-41910000D01*
X66321007Y-41664345D01*
X66263483Y-41424738D01*
X66263482Y-41424735D01*
X66169184Y-41197079D01*
X66040436Y-40986981D01*
X66040435Y-40986979D01*
X65880399Y-40799601D01*
X65803927Y-40734288D01*
X65765736Y-40675784D01*
X65765236Y-40605916D01*
X65802590Y-40546870D01*
X65803842Y-40545783D01*
X65880399Y-40480399D01*
X66040433Y-40293023D01*
X66169184Y-40082920D01*
X66263483Y-39855262D01*
X66321007Y-39615655D01*
X66340341Y-39370000D01*
X66321007Y-39124345D01*
X66263483Y-38884738D01*
X66263482Y-38884735D01*
X66169184Y-38657079D01*
X66040434Y-38446979D01*
X66040432Y-38446975D01*
X66009073Y-38410258D01*
X65980503Y-38346496D01*
X65990941Y-38277411D01*
X66032549Y-38230079D01*
X66031816Y-38229159D01*
X66036976Y-38225043D01*
X66037071Y-38224935D01*
X66037262Y-38224816D01*
X66164816Y-38097262D01*
X66260789Y-37944522D01*
X66320368Y-37774255D01*
X66335500Y-37639954D01*
X66335500Y-36020046D01*
X66320368Y-35885745D01*
X66260789Y-35715478D01*
X66164816Y-35562738D01*
X66037262Y-35435184D01*
X65998256Y-35410675D01*
X65884523Y-35339211D01*
X65714254Y-35279631D01*
X65714249Y-35279630D01*
X65579960Y-35264500D01*
X65579954Y-35264500D01*
X63960046Y-35264500D01*
X63960039Y-35264500D01*
X63825750Y-35279630D01*
X63825745Y-35279631D01*
X63655476Y-35339211D01*
X63502737Y-35435184D01*
X63375184Y-35562737D01*
X63279211Y-35715476D01*
X63219631Y-35885745D01*
X63219630Y-35885750D01*
X63204500Y-36020039D01*
X63204500Y-37639960D01*
X63219630Y-37774249D01*
X63219631Y-37774254D01*
X63279211Y-37944523D01*
X63375184Y-38097262D01*
X63502737Y-38224815D01*
X63508184Y-38229159D01*
X63507396Y-38230147D01*
X63548899Y-38277068D01*
X63559548Y-38346122D01*
X63531173Y-38409970D01*
X63530927Y-38410259D01*
X63499567Y-38446976D01*
X63499561Y-38446985D01*
X63370815Y-38657079D01*
X63276517Y-38884735D01*
X63218993Y-39124341D01*
X63199659Y-39370000D01*
X63218993Y-39615658D01*
X63276517Y-39855264D01*
X63370815Y-40082920D01*
X63499563Y-40293018D01*
X63499564Y-40293020D01*
X63499567Y-40293023D01*
X63659601Y-40480399D01*
X63736071Y-40545711D01*
X63774264Y-40604217D01*
X63774763Y-40674084D01*
X63737409Y-40733131D01*
X63736109Y-40734256D01*
X63710334Y-40756271D01*
X63659601Y-40799601D01*
X63499564Y-40986979D01*
X63499563Y-40986981D01*
X63370815Y-41197079D01*
X63276517Y-41424735D01*
X63218993Y-41664341D01*
X63199659Y-41910000D01*
X63218993Y-42155658D01*
X63276517Y-42395264D01*
X63370815Y-42622920D01*
X63499563Y-42833018D01*
X63499564Y-42833020D01*
X63544973Y-42886187D01*
X63659601Y-43020399D01*
X63736071Y-43085711D01*
X63774264Y-43144217D01*
X63774763Y-43214084D01*
X63737409Y-43273131D01*
X63736109Y-43274256D01*
X63724772Y-43283940D01*
X63659601Y-43339601D01*
X63499564Y-43526979D01*
X63499563Y-43526981D01*
X63370815Y-43737079D01*
X63276517Y-43964735D01*
X63218993Y-44204341D01*
X63199659Y-44450000D01*
X63218993Y-44695658D01*
X63276517Y-44935264D01*
X63370815Y-45162920D01*
X63499563Y-45373018D01*
X63499564Y-45373020D01*
X63531395Y-45410289D01*
X63659601Y-45560399D01*
X63736071Y-45625711D01*
X63774264Y-45684217D01*
X63774763Y-45754084D01*
X63737409Y-45813131D01*
X63736109Y-45814256D01*
X63659601Y-45879601D01*
X63499564Y-46066979D01*
X63499563Y-46066981D01*
X63370815Y-46277079D01*
X63276517Y-46504735D01*
X63218993Y-46744341D01*
X63199659Y-46990000D01*
X63218993Y-47235658D01*
X63276517Y-47475264D01*
X63370815Y-47702920D01*
X63499563Y-47913018D01*
X63499564Y-47913020D01*
X63499567Y-47913023D01*
X63659601Y-48100399D01*
X63736071Y-48165711D01*
X63774264Y-48224217D01*
X63774763Y-48294084D01*
X63737409Y-48353131D01*
X63736109Y-48354256D01*
X63710334Y-48376271D01*
X63659601Y-48419601D01*
X63499564Y-48606979D01*
X63499563Y-48606981D01*
X63370815Y-48817079D01*
X63276517Y-49044735D01*
X63218993Y-49284341D01*
X63199659Y-49530000D01*
X63218993Y-49775658D01*
X63276517Y-50015264D01*
X63370815Y-50242920D01*
X63499563Y-50453018D01*
X63499564Y-50453020D01*
X63499567Y-50453023D01*
X63659601Y-50640399D01*
X63736071Y-50705711D01*
X63774264Y-50764217D01*
X63774763Y-50834084D01*
X63737409Y-50893131D01*
X63736109Y-50894256D01*
X63710334Y-50916271D01*
X63659601Y-50959601D01*
X63499564Y-51146979D01*
X63499563Y-51146981D01*
X63370815Y-51357079D01*
X63276517Y-51584735D01*
X63218993Y-51824341D01*
X63199659Y-52070000D01*
X63218993Y-52315658D01*
X63276517Y-52555264D01*
X63370815Y-52782920D01*
X63499563Y-52993018D01*
X63499564Y-52993020D01*
X63499567Y-52993023D01*
X63659601Y-53180399D01*
X63736071Y-53245711D01*
X63774264Y-53304217D01*
X63774763Y-53374084D01*
X63737409Y-53433131D01*
X63736109Y-53434256D01*
X63710334Y-53456271D01*
X63659601Y-53499601D01*
X63499564Y-53686979D01*
X63499563Y-53686981D01*
X63370815Y-53897079D01*
X63276517Y-54124735D01*
X63218993Y-54364341D01*
X63199659Y-54610000D01*
X63218993Y-54855658D01*
X63276517Y-55095264D01*
X63370815Y-55322920D01*
X63499563Y-55533018D01*
X63499564Y-55533020D01*
X63499567Y-55533023D01*
X63659601Y-55720399D01*
X63736071Y-55785711D01*
X63774264Y-55844217D01*
X63774763Y-55914084D01*
X63737409Y-55973131D01*
X63736109Y-55974256D01*
X63710334Y-55996271D01*
X63659601Y-56039601D01*
X63499564Y-56226979D01*
X63499563Y-56226981D01*
X63370815Y-56437079D01*
X63276517Y-56664735D01*
X63218993Y-56904341D01*
X63199659Y-57150000D01*
X63218993Y-57395658D01*
X63276517Y-57635264D01*
X63370815Y-57862920D01*
X63499563Y-58073018D01*
X63499564Y-58073020D01*
X63499567Y-58073023D01*
X63659601Y-58260399D01*
X63736071Y-58325711D01*
X63774264Y-58384217D01*
X63774763Y-58454084D01*
X63737409Y-58513131D01*
X63736109Y-58514256D01*
X63710334Y-58536271D01*
X63659601Y-58579601D01*
X63499564Y-58766979D01*
X63499563Y-58766981D01*
X63370815Y-58977079D01*
X63276517Y-59204735D01*
X63218993Y-59444341D01*
X63199659Y-59690000D01*
X63218993Y-59935658D01*
X63276517Y-60175264D01*
X63370815Y-60402920D01*
X63499563Y-60613018D01*
X63499564Y-60613020D01*
X63499567Y-60613023D01*
X63659601Y-60800399D01*
X63736071Y-60865711D01*
X63774264Y-60924217D01*
X63774763Y-60994084D01*
X63737409Y-61053131D01*
X63736109Y-61054256D01*
X63659601Y-61119601D01*
X63499564Y-61306979D01*
X63499563Y-61306981D01*
X63370815Y-61517079D01*
X63276517Y-61744735D01*
X63218993Y-61984341D01*
X63199659Y-62230000D01*
X63218993Y-62475658D01*
X63276517Y-62715264D01*
X63370815Y-62942920D01*
X63499563Y-63153018D01*
X63499564Y-63153020D01*
X63499567Y-63153023D01*
X63659601Y-63340399D01*
X63736071Y-63405711D01*
X63774264Y-63464217D01*
X63774763Y-63534084D01*
X63737409Y-63593131D01*
X63736109Y-63594256D01*
X63659601Y-63659601D01*
X63499564Y-63846979D01*
X63499563Y-63846981D01*
X63370815Y-64057079D01*
X63276517Y-64284735D01*
X63218993Y-64524341D01*
X63199659Y-64770000D01*
X63218993Y-65015658D01*
X63276517Y-65255264D01*
X63370815Y-65482920D01*
X63499563Y-65693018D01*
X63499564Y-65693020D01*
X63499567Y-65693023D01*
X63659601Y-65880399D01*
X63736071Y-65945711D01*
X63774264Y-66004217D01*
X63774763Y-66074084D01*
X63737409Y-66133131D01*
X63736109Y-66134256D01*
X63700699Y-66164500D01*
X63659601Y-66199601D01*
X63499564Y-66386979D01*
X63499563Y-66386981D01*
X63370815Y-66597079D01*
X63276517Y-66824735D01*
X63218993Y-67064341D01*
X63199659Y-67310000D01*
X63218993Y-67555658D01*
X63276517Y-67795264D01*
X63370815Y-68022920D01*
X63499563Y-68233018D01*
X63499564Y-68233020D01*
X63499567Y-68233023D01*
X63659601Y-68420399D01*
X63736071Y-68485711D01*
X63774264Y-68544217D01*
X63774763Y-68614084D01*
X63737409Y-68673131D01*
X63736109Y-68674256D01*
X63659601Y-68739601D01*
X63499564Y-68926979D01*
X63499563Y-68926981D01*
X63370815Y-69137079D01*
X63276517Y-69364735D01*
X63218993Y-69604341D01*
X63199659Y-69850000D01*
X63218993Y-70095658D01*
X63276517Y-70335264D01*
X63370815Y-70562920D01*
X63499563Y-70773018D01*
X63499564Y-70773020D01*
X63520583Y-70797630D01*
X63659601Y-70960399D01*
X63736071Y-71025711D01*
X63774264Y-71084217D01*
X63774763Y-71154084D01*
X63737409Y-71213131D01*
X63736109Y-71214256D01*
X63712457Y-71234458D01*
X63659601Y-71279601D01*
X63499564Y-71466979D01*
X63499563Y-71466981D01*
X63370815Y-71677079D01*
X63276517Y-71904735D01*
X63218993Y-72144341D01*
X63199659Y-72390000D01*
X63218993Y-72635658D01*
X63276517Y-72875264D01*
X63370815Y-73102920D01*
X63499563Y-73313018D01*
X63499564Y-73313020D01*
X63553795Y-73376516D01*
X63659601Y-73500399D01*
X63736071Y-73565711D01*
X63774264Y-73624217D01*
X63774763Y-73694084D01*
X63737409Y-73753131D01*
X63736109Y-73754256D01*
X63659601Y-73819601D01*
X63499564Y-74006979D01*
X63499563Y-74006981D01*
X63370815Y-74217079D01*
X63276517Y-74444735D01*
X63218993Y-74684341D01*
X63199659Y-74930000D01*
X63218993Y-75175658D01*
X63276517Y-75415264D01*
X63370815Y-75642920D01*
X63499563Y-75853018D01*
X63499564Y-75853020D01*
X63499567Y-75853023D01*
X63659601Y-76040399D01*
X63736071Y-76105711D01*
X63774264Y-76164217D01*
X63774763Y-76234084D01*
X63737409Y-76293131D01*
X63736109Y-76294256D01*
X63659601Y-76359601D01*
X63499564Y-76546979D01*
X63499563Y-76546981D01*
X63370815Y-76757079D01*
X63276517Y-76984735D01*
X63218993Y-77224341D01*
X63199659Y-77470000D01*
X63218993Y-77715658D01*
X63276517Y-77955264D01*
X63370815Y-78182920D01*
X63499563Y-78393018D01*
X63499564Y-78393020D01*
X63499567Y-78393023D01*
X63659601Y-78580399D01*
X63736071Y-78645711D01*
X63774264Y-78704217D01*
X63774763Y-78774084D01*
X63737409Y-78833131D01*
X63736109Y-78834256D01*
X63659601Y-78899601D01*
X63499564Y-79086979D01*
X63499563Y-79086981D01*
X63370815Y-79297079D01*
X63276517Y-79524735D01*
X63218993Y-79764341D01*
X63199659Y-80010000D01*
X63218993Y-80255658D01*
X63276517Y-80495264D01*
X63370815Y-80722920D01*
X63499563Y-80933018D01*
X63499564Y-80933020D01*
X63499567Y-80933023D01*
X63659601Y-81120399D01*
X63736071Y-81185711D01*
X63774264Y-81244217D01*
X63774763Y-81314084D01*
X63737409Y-81373131D01*
X63736109Y-81374256D01*
X63659601Y-81439601D01*
X63499564Y-81626979D01*
X63499563Y-81626981D01*
X63370815Y-81837079D01*
X63276517Y-82064735D01*
X63218993Y-82304341D01*
X63199659Y-82550000D01*
X63218993Y-82795658D01*
X63276517Y-83035264D01*
X63370815Y-83262920D01*
X63499563Y-83473018D01*
X63499564Y-83473020D01*
X63510165Y-83485432D01*
X63659601Y-83660399D01*
X63736071Y-83725711D01*
X63774264Y-83784217D01*
X63774763Y-83854084D01*
X63737409Y-83913131D01*
X63736109Y-83914256D01*
X63714362Y-83932831D01*
X63659601Y-83979601D01*
X63499564Y-84166979D01*
X63499563Y-84166981D01*
X63370815Y-84377079D01*
X63276517Y-84604735D01*
X63218993Y-84844341D01*
X63199659Y-85090000D01*
X63218993Y-85335658D01*
X63276517Y-85575264D01*
X63370815Y-85802920D01*
X63499563Y-86013018D01*
X63499564Y-86013020D01*
X63527697Y-86045959D01*
X63659601Y-86200399D01*
X63736071Y-86265711D01*
X63774264Y-86324217D01*
X63774763Y-86394084D01*
X63737409Y-86453131D01*
X63736109Y-86454256D01*
X63717091Y-86470500D01*
X63659601Y-86519601D01*
X63659595Y-86519607D01*
X63645567Y-86536032D01*
X63587060Y-86574225D01*
X63551277Y-86579500D01*
X51286493Y-86579500D01*
X51219454Y-86559815D01*
X51198812Y-86543181D01*
X49475629Y-84819998D01*
X52733843Y-84819998D01*
X52733843Y-84820001D01*
X52754430Y-85055315D01*
X52754432Y-85055326D01*
X52815566Y-85283483D01*
X52815570Y-85283492D01*
X52915398Y-85497576D01*
X52974073Y-85581372D01*
X53606037Y-84949408D01*
X53623075Y-85012993D01*
X53688901Y-85127007D01*
X53781993Y-85220099D01*
X53896007Y-85285925D01*
X53959591Y-85302962D01*
X53327626Y-85934926D01*
X53411417Y-85993598D01*
X53411421Y-85993600D01*
X53625507Y-86093429D01*
X53625516Y-86093433D01*
X53853673Y-86154567D01*
X53853684Y-86154569D01*
X54088998Y-86175157D01*
X54089002Y-86175157D01*
X54324315Y-86154569D01*
X54324326Y-86154567D01*
X54552483Y-86093433D01*
X54552492Y-86093429D01*
X54766580Y-85993599D01*
X54850371Y-85934925D01*
X54218408Y-85302962D01*
X54281993Y-85285925D01*
X54396007Y-85220099D01*
X54489099Y-85127007D01*
X54554925Y-85012993D01*
X54571962Y-84949408D01*
X55203925Y-85581371D01*
X55262599Y-85497580D01*
X55362429Y-85283492D01*
X55362433Y-85283483D01*
X55423567Y-85055326D01*
X55423569Y-85055315D01*
X55444157Y-84820001D01*
X55444157Y-84819998D01*
X55423569Y-84584684D01*
X55423567Y-84584673D01*
X55362433Y-84356516D01*
X55362429Y-84356507D01*
X55262601Y-84142424D01*
X55203925Y-84058626D01*
X54571962Y-84690590D01*
X54554925Y-84627007D01*
X54489099Y-84512993D01*
X54396007Y-84419901D01*
X54281993Y-84354075D01*
X54218409Y-84337037D01*
X54850372Y-83705073D01*
X54766576Y-83646398D01*
X54552492Y-83546570D01*
X54552483Y-83546566D01*
X54324326Y-83485432D01*
X54324315Y-83485430D01*
X54089002Y-83464843D01*
X54088998Y-83464843D01*
X53853684Y-83485430D01*
X53853673Y-83485432D01*
X53625516Y-83546566D01*
X53625507Y-83546570D01*
X53411423Y-83646399D01*
X53411421Y-83646400D01*
X53327627Y-83705073D01*
X53327626Y-83705073D01*
X53959591Y-84337037D01*
X53896007Y-84354075D01*
X53781993Y-84419901D01*
X53688901Y-84512993D01*
X53623075Y-84627007D01*
X53606037Y-84690590D01*
X52974073Y-84058626D01*
X52974073Y-84058627D01*
X52915400Y-84142421D01*
X52915399Y-84142423D01*
X52815570Y-84356507D01*
X52815566Y-84356516D01*
X52754432Y-84584673D01*
X52754430Y-84584684D01*
X52733843Y-84819998D01*
X49475629Y-84819998D01*
X38175819Y-73520188D01*
X38142334Y-73458865D01*
X38139500Y-73432507D01*
X38139500Y-45650504D01*
X38159185Y-45583465D01*
X38182965Y-45556216D01*
X38259689Y-45490689D01*
X38428412Y-45293140D01*
X38564154Y-45071628D01*
X38663573Y-44831610D01*
X38724221Y-44578994D01*
X38744604Y-44320000D01*
X38744604Y-44319998D01*
X52733843Y-44319998D01*
X52733843Y-44320001D01*
X52754430Y-44555315D01*
X52754432Y-44555326D01*
X52815566Y-44783483D01*
X52815570Y-44783492D01*
X52915398Y-44997576D01*
X52974073Y-45081372D01*
X53606037Y-44449408D01*
X53623075Y-44512993D01*
X53688901Y-44627007D01*
X53781993Y-44720099D01*
X53896007Y-44785925D01*
X53959591Y-44802962D01*
X53327626Y-45434926D01*
X53411417Y-45493598D01*
X53411421Y-45493600D01*
X53625507Y-45593429D01*
X53625516Y-45593433D01*
X53853673Y-45654567D01*
X53853684Y-45654569D01*
X54088998Y-45675157D01*
X54089002Y-45675157D01*
X54324315Y-45654569D01*
X54324326Y-45654567D01*
X54552483Y-45593433D01*
X54552492Y-45593429D01*
X54766580Y-45493599D01*
X54850371Y-45434925D01*
X54218408Y-44802962D01*
X54281993Y-44785925D01*
X54396007Y-44720099D01*
X54489099Y-44627007D01*
X54554925Y-44512993D01*
X54571962Y-44449408D01*
X55203925Y-45081371D01*
X55262599Y-44997580D01*
X55362429Y-44783492D01*
X55362433Y-44783483D01*
X55423567Y-44555326D01*
X55423569Y-44555315D01*
X55444157Y-44320001D01*
X55444157Y-44319998D01*
X55423569Y-44084684D01*
X55423567Y-44084673D01*
X55362433Y-43856516D01*
X55362429Y-43856507D01*
X55262601Y-43642424D01*
X55203925Y-43558626D01*
X54571962Y-44190590D01*
X54554925Y-44127007D01*
X54489099Y-44012993D01*
X54396007Y-43919901D01*
X54281993Y-43854075D01*
X54218409Y-43837037D01*
X54850372Y-43205073D01*
X54766576Y-43146398D01*
X54552492Y-43046570D01*
X54552483Y-43046566D01*
X54324326Y-42985432D01*
X54324315Y-42985430D01*
X54089002Y-42964843D01*
X54088998Y-42964843D01*
X53853684Y-42985430D01*
X53853673Y-42985432D01*
X53625516Y-43046566D01*
X53625507Y-43046570D01*
X53411423Y-43146399D01*
X53411421Y-43146400D01*
X53327627Y-43205073D01*
X53327626Y-43205073D01*
X53959591Y-43837037D01*
X53896007Y-43854075D01*
X53781993Y-43919901D01*
X53688901Y-44012993D01*
X53623075Y-44127007D01*
X53606037Y-44190590D01*
X52974073Y-43558626D01*
X52974073Y-43558627D01*
X52915400Y-43642421D01*
X52915399Y-43642423D01*
X52815570Y-43856507D01*
X52815566Y-43856516D01*
X52754432Y-44084673D01*
X52754430Y-44084684D01*
X52733843Y-44319998D01*
X38744604Y-44319998D01*
X38724221Y-44061006D01*
X38663573Y-43808390D01*
X38564154Y-43568372D01*
X38428412Y-43346860D01*
X38259689Y-43149311D01*
X38062140Y-42980588D01*
X37840628Y-42844846D01*
X37840627Y-42844845D01*
X37840623Y-42844843D01*
X37674627Y-42776086D01*
X37600610Y-42745427D01*
X37600611Y-42745427D01*
X37390417Y-42694964D01*
X37347994Y-42684779D01*
X37347992Y-42684778D01*
X37347991Y-42684778D01*
X37089000Y-42664396D01*
X36830009Y-42684778D01*
X36577389Y-42745427D01*
X36337376Y-42844843D01*
X36115859Y-42980588D01*
X35918311Y-43149311D01*
X35749588Y-43346859D01*
X35613843Y-43568376D01*
X35514427Y-43808389D01*
X35453778Y-44061009D01*
X35433396Y-44320000D01*
X25900500Y-44320000D01*
X25900500Y-29210000D01*
X27844778Y-29210000D01*
X27863296Y-29492536D01*
X27863644Y-29497837D01*
X27863646Y-29497849D01*
X27919917Y-29780745D01*
X27919921Y-29780760D01*
X28012642Y-30053905D01*
X28140219Y-30312606D01*
X28140223Y-30312613D01*
X28300478Y-30552452D01*
X28490672Y-30769327D01*
X28633510Y-30894592D01*
X28707546Y-30959520D01*
X28947389Y-31119778D01*
X29206098Y-31247359D01*
X29479247Y-31340081D01*
X29762161Y-31396356D01*
X30050000Y-31415222D01*
X30337839Y-31396356D01*
X30620753Y-31340081D01*
X30893902Y-31247359D01*
X31152611Y-31119778D01*
X31392454Y-30959520D01*
X31609327Y-30769327D01*
X31799520Y-30552454D01*
X31959778Y-30312611D01*
X32023500Y-30183395D01*
X97933500Y-30183395D01*
X97933500Y-31786604D01*
X97948699Y-31940932D01*
X97968217Y-32005274D01*
X98008768Y-32138954D01*
X98106315Y-32321450D01*
X98106317Y-32321452D01*
X98237589Y-32481410D01*
X98317062Y-32546631D01*
X98397550Y-32612685D01*
X98580046Y-32710232D01*
X98778066Y-32770300D01*
X98778065Y-32770300D01*
X98816647Y-32774100D01*
X98932392Y-32785500D01*
X98932395Y-32785500D01*
X100235605Y-32785500D01*
X100235608Y-32785500D01*
X100389934Y-32770300D01*
X100587954Y-32710232D01*
X100770450Y-32612685D01*
X100930410Y-32481410D01*
X100930489Y-32481314D01*
X100930545Y-32481275D01*
X100934719Y-32477102D01*
X100935510Y-32477893D01*
X100988233Y-32441976D01*
X101058077Y-32440101D01*
X101099232Y-32459655D01*
X101193423Y-32528088D01*
X101218949Y-32546634D01*
X101348575Y-32612682D01*
X101450423Y-32664577D01*
X101450425Y-32664577D01*
X101450428Y-32664579D01*
X101697507Y-32744860D01*
X101829706Y-32765797D01*
X101954098Y-32785500D01*
X101954103Y-32785500D01*
X102213902Y-32785500D01*
X102327298Y-32767539D01*
X102470493Y-32744860D01*
X102717572Y-32664579D01*
X102949051Y-32546634D01*
X103159229Y-32393931D01*
X103342931Y-32210229D01*
X103495634Y-32000051D01*
X103613579Y-31768572D01*
X103693860Y-31521493D01*
X103722592Y-31340082D01*
X103734500Y-31264902D01*
X103734500Y-31115000D01*
X117809778Y-31115000D01*
X117824530Y-31340078D01*
X117828644Y-31402837D01*
X117828646Y-31402849D01*
X117884917Y-31685745D01*
X117884921Y-31685760D01*
X117977642Y-31958905D01*
X118105219Y-32217606D01*
X118105223Y-32217613D01*
X118265478Y-32457452D01*
X118455672Y-32674327D01*
X118672547Y-32864521D01*
X118710688Y-32890006D01*
X118912389Y-33024778D01*
X119171098Y-33152359D01*
X119444247Y-33245081D01*
X119727161Y-33301356D01*
X120015000Y-33320222D01*
X120302839Y-33301356D01*
X120585753Y-33245081D01*
X120858902Y-33152359D01*
X121117611Y-33024778D01*
X121357454Y-32864520D01*
X121574327Y-32674327D01*
X121764520Y-32457454D01*
X121924778Y-32217611D01*
X122052359Y-31958902D01*
X122145081Y-31685753D01*
X122201356Y-31402839D01*
X122220222Y-31115000D01*
X122201356Y-30827161D01*
X122145081Y-30544247D01*
X122052359Y-30271098D01*
X121924778Y-30012389D01*
X121924776Y-30012386D01*
X121764521Y-29772547D01*
X121574327Y-29555672D01*
X121357452Y-29365478D01*
X121117613Y-29205223D01*
X121117606Y-29205219D01*
X120858905Y-29077642D01*
X120585760Y-28984921D01*
X120585754Y-28984919D01*
X120585753Y-28984919D01*
X120585751Y-28984918D01*
X120585745Y-28984917D01*
X120302849Y-28928646D01*
X120302839Y-28928644D01*
X120015000Y-28909778D01*
X119727161Y-28928644D01*
X119727155Y-28928645D01*
X119727150Y-28928646D01*
X119444254Y-28984917D01*
X119444239Y-28984921D01*
X119171094Y-29077642D01*
X118912393Y-29205219D01*
X118912386Y-29205223D01*
X118672547Y-29365478D01*
X118455672Y-29555672D01*
X118265478Y-29772547D01*
X118105223Y-30012386D01*
X118105219Y-30012393D01*
X117977642Y-30271094D01*
X117884921Y-30544239D01*
X117884917Y-30544254D01*
X117840148Y-30769327D01*
X117828644Y-30827161D01*
X117809778Y-31115000D01*
X103734500Y-31115000D01*
X103734500Y-30705097D01*
X103710323Y-30552452D01*
X103693860Y-30448507D01*
X103613579Y-30201428D01*
X103613577Y-30201425D01*
X103613577Y-30201423D01*
X103538410Y-30053902D01*
X103495634Y-29969949D01*
X103342931Y-29759771D01*
X103159229Y-29576069D01*
X103101085Y-29533825D01*
X102949054Y-29423368D01*
X102949053Y-29423367D01*
X102949051Y-29423366D01*
X102835440Y-29365478D01*
X102717576Y-29305422D01*
X102470493Y-29225140D01*
X102213902Y-29184500D01*
X102213897Y-29184500D01*
X101954103Y-29184500D01*
X101954098Y-29184500D01*
X101697506Y-29225140D01*
X101450423Y-29305422D01*
X101218945Y-29423368D01*
X101099231Y-29510345D01*
X101033425Y-29533825D01*
X100965371Y-29517999D01*
X100935069Y-29492536D01*
X100934713Y-29492893D01*
X100930603Y-29488783D01*
X100930490Y-29488688D01*
X100930410Y-29488590D01*
X100930407Y-29488588D01*
X100930406Y-29488586D01*
X100780399Y-29365480D01*
X100770450Y-29357315D01*
X100587954Y-29259768D01*
X100389934Y-29199700D01*
X100389932Y-29199699D01*
X100389934Y-29199699D01*
X100270805Y-29187966D01*
X100235608Y-29184500D01*
X98932392Y-29184500D01*
X98894298Y-29188251D01*
X98778067Y-29199699D01*
X98580043Y-29259769D01*
X98494636Y-29305421D01*
X98397550Y-29357315D01*
X98397548Y-29357316D01*
X98397547Y-29357317D01*
X98237589Y-29488589D01*
X98106317Y-29648547D01*
X98008769Y-29831043D01*
X97948699Y-30029067D01*
X97933500Y-30183395D01*
X32023500Y-30183395D01*
X32087359Y-30053902D01*
X32180081Y-29780753D01*
X32236356Y-29497839D01*
X32255222Y-29210000D01*
X32236356Y-28922161D01*
X32180081Y-28639247D01*
X32087359Y-28366098D01*
X31959778Y-28107389D01*
X31799520Y-27867546D01*
X31609327Y-27650672D01*
X31392452Y-27460478D01*
X31152613Y-27300223D01*
X31152606Y-27300219D01*
X30893905Y-27172642D01*
X30620760Y-27079921D01*
X30620754Y-27079919D01*
X30620753Y-27079919D01*
X30620751Y-27079918D01*
X30620745Y-27079917D01*
X30337849Y-27023646D01*
X30337839Y-27023644D01*
X30050000Y-27004778D01*
X29762161Y-27023644D01*
X29762155Y-27023645D01*
X29762150Y-27023646D01*
X29479254Y-27079917D01*
X29479239Y-27079921D01*
X29206094Y-27172642D01*
X28947393Y-27300219D01*
X28947386Y-27300223D01*
X28707547Y-27460478D01*
X28490672Y-27650672D01*
X28300478Y-27867547D01*
X28140223Y-28107386D01*
X28140219Y-28107393D01*
X28012642Y-28366094D01*
X27919921Y-28639239D01*
X27919917Y-28639254D01*
X27866107Y-28909778D01*
X27863644Y-28922161D01*
X27844778Y-29210000D01*
X25900500Y-29210000D01*
X25900500Y-26024500D01*
X25920185Y-25957461D01*
X25972989Y-25911706D01*
X26024500Y-25900500D01*
X127647434Y-25900500D01*
X127714473Y-25920185D01*
G37*
%TD.AperFunction*%
%TD*%
M02*
