%TF.GenerationSoftware,KiCad,Pcbnew,8.0.7*%
%TF.CreationDate,2025-05-02T18:36:18-05:00*%
%TF.ProjectId,PCB_pecho,5043425f-7065-4636-986f-2e6b69636164,rev?*%
%TF.SameCoordinates,Original*%
%TF.FileFunction,Drillmap*%
%TF.FilePolarity,Positive*%
%FSLAX45Y45*%
G04 Gerber Fmt 4.5, Leading zero omitted, Abs format (unit mm)*
G04 Created by KiCad (PCBNEW 8.0.7) date 2025-05-02 18:36:18*
%MOMM*%
%LPD*%
G01*
G04 APERTURE LIST*
%ADD10C,0.050000*%
%ADD11C,0.200000*%
G04 APERTURE END LIST*
D10*
X3175000Y-2921000D02*
G75*
G02*
X2835000Y-2921000I-170000J0D01*
G01*
X2835000Y-2921000D02*
G75*
G02*
X3175000Y-2921000I170000J0D01*
G01*
X3175000Y-10393500D02*
G75*
G02*
X2835000Y-10393500I-170000J0D01*
G01*
X2835000Y-10393500D02*
G75*
G02*
X3175000Y-10393500I170000J0D01*
G01*
X9631500Y-10393500D02*
G75*
G02*
X9291500Y-10393500I-170000J0D01*
G01*
X9291500Y-10393500D02*
G75*
G02*
X9631500Y-10393500I170000J0D01*
G01*
X12489000Y-7239000D02*
G75*
G02*
X12149000Y-7239000I-170000J0D01*
G01*
X12149000Y-7239000D02*
G75*
G02*
X12489000Y-7239000I170000J0D01*
G01*
X12171500Y-3111500D02*
G75*
G02*
X11831500Y-3111500I-170000J0D01*
G01*
X11831500Y-3111500D02*
G75*
G02*
X12171500Y-3111500I170000J0D01*
G01*
X2540000Y-2540000D02*
X12827196Y-2540000D01*
X12827000Y-7175500D02*
X12827196Y-2540000D01*
X9715500Y-10858500D02*
X12827000Y-7175500D01*
X2540000Y-10858500D02*
X9715500Y-10858500D01*
X2540000Y-2540000D02*
X2540000Y-10858500D01*
D11*
X2798277Y-11172484D02*
X2798277Y-10972484D01*
X2798277Y-10972484D02*
X2845896Y-10972484D01*
X2845896Y-10972484D02*
X2874467Y-10982008D01*
X2874467Y-10982008D02*
X2893515Y-11001055D01*
X2893515Y-11001055D02*
X2903039Y-11020103D01*
X2903039Y-11020103D02*
X2912562Y-11058198D01*
X2912562Y-11058198D02*
X2912562Y-11086770D01*
X2912562Y-11086770D02*
X2903039Y-11124865D01*
X2903039Y-11124865D02*
X2893515Y-11143912D01*
X2893515Y-11143912D02*
X2874467Y-11162960D01*
X2874467Y-11162960D02*
X2845896Y-11172484D01*
X2845896Y-11172484D02*
X2798277Y-11172484D01*
X2998277Y-11172484D02*
X2998277Y-11039150D01*
X2998277Y-11077246D02*
X3007801Y-11058198D01*
X3007801Y-11058198D02*
X3017324Y-11048674D01*
X3017324Y-11048674D02*
X3036372Y-11039150D01*
X3036372Y-11039150D02*
X3055420Y-11039150D01*
X3122086Y-11172484D02*
X3122086Y-11039150D01*
X3122086Y-10972484D02*
X3112562Y-10982008D01*
X3112562Y-10982008D02*
X3122086Y-10991531D01*
X3122086Y-10991531D02*
X3131610Y-10982008D01*
X3131610Y-10982008D02*
X3122086Y-10972484D01*
X3122086Y-10972484D02*
X3122086Y-10991531D01*
X3245896Y-11172484D02*
X3226848Y-11162960D01*
X3226848Y-11162960D02*
X3217324Y-11143912D01*
X3217324Y-11143912D02*
X3217324Y-10972484D01*
X3350658Y-11172484D02*
X3331610Y-11162960D01*
X3331610Y-11162960D02*
X3322086Y-11143912D01*
X3322086Y-11143912D02*
X3322086Y-10972484D01*
X3579229Y-11172484D02*
X3579229Y-10972484D01*
X3579229Y-10972484D02*
X3645896Y-11115341D01*
X3645896Y-11115341D02*
X3712562Y-10972484D01*
X3712562Y-10972484D02*
X3712562Y-11172484D01*
X3893515Y-11172484D02*
X3893515Y-11067722D01*
X3893515Y-11067722D02*
X3883991Y-11048674D01*
X3883991Y-11048674D02*
X3864943Y-11039150D01*
X3864943Y-11039150D02*
X3826848Y-11039150D01*
X3826848Y-11039150D02*
X3807801Y-11048674D01*
X3893515Y-11162960D02*
X3874467Y-11172484D01*
X3874467Y-11172484D02*
X3826848Y-11172484D01*
X3826848Y-11172484D02*
X3807801Y-11162960D01*
X3807801Y-11162960D02*
X3798277Y-11143912D01*
X3798277Y-11143912D02*
X3798277Y-11124865D01*
X3798277Y-11124865D02*
X3807801Y-11105817D01*
X3807801Y-11105817D02*
X3826848Y-11096293D01*
X3826848Y-11096293D02*
X3874467Y-11096293D01*
X3874467Y-11096293D02*
X3893515Y-11086770D01*
X3988753Y-11039150D02*
X3988753Y-11239150D01*
X3988753Y-11048674D02*
X4007801Y-11039150D01*
X4007801Y-11039150D02*
X4045896Y-11039150D01*
X4045896Y-11039150D02*
X4064943Y-11048674D01*
X4064943Y-11048674D02*
X4074467Y-11058198D01*
X4074467Y-11058198D02*
X4083991Y-11077246D01*
X4083991Y-11077246D02*
X4083991Y-11134389D01*
X4083991Y-11134389D02*
X4074467Y-11153436D01*
X4074467Y-11153436D02*
X4064943Y-11162960D01*
X4064943Y-11162960D02*
X4045896Y-11172484D01*
X4045896Y-11172484D02*
X4007801Y-11172484D01*
X4007801Y-11172484D02*
X3988753Y-11162960D01*
X4169705Y-11153436D02*
X4179229Y-11162960D01*
X4179229Y-11162960D02*
X4169705Y-11172484D01*
X4169705Y-11172484D02*
X4160182Y-11162960D01*
X4160182Y-11162960D02*
X4169705Y-11153436D01*
X4169705Y-11153436D02*
X4169705Y-11172484D01*
X4169705Y-11048674D02*
X4179229Y-11058198D01*
X4179229Y-11058198D02*
X4169705Y-11067722D01*
X4169705Y-11067722D02*
X4160182Y-11058198D01*
X4160182Y-11058198D02*
X4169705Y-11048674D01*
X4169705Y-11048674D02*
X4169705Y-11067722D01*
M02*
