%TF.GenerationSoftware,KiCad,Pcbnew,8.0.7*%
%TF.CreationDate,2025-05-02T18:36:05-05:00*%
%TF.ProjectId,PCB_pecho,5043425f-7065-4636-986f-2e6b69636164,rev?*%
%TF.SameCoordinates,Original*%
%TF.FileFunction,Soldermask,Bot*%
%TF.FilePolarity,Negative*%
%FSLAX46Y46*%
G04 Gerber Fmt 4.6, Leading zero omitted, Abs format (unit mm)*
G04 Created by KiCad (PCBNEW 8.0.7) date 2025-05-02 18:36:05*
%MOMM*%
%LPD*%
G01*
G04 APERTURE LIST*
G04 Aperture macros list*
%AMRoundRect*
0 Rectangle with rounded corners*
0 $1 Rounding radius*
0 $2 $3 $4 $5 $6 $7 $8 $9 X,Y pos of 4 corners*
0 Add a 4 corners polygon primitive as box body*
4,1,4,$2,$3,$4,$5,$6,$7,$8,$9,$2,$3,0*
0 Add four circle primitives for the rounded corners*
1,1,$1+$1,$2,$3*
1,1,$1+$1,$4,$5*
1,1,$1+$1,$6,$7*
1,1,$1+$1,$8,$9*
0 Add four rect primitives between the rounded corners*
20,1,$1+$1,$2,$3,$4,$5,0*
20,1,$1+$1,$4,$5,$6,$7,0*
20,1,$1+$1,$6,$7,$8,$9,0*
20,1,$1+$1,$8,$9,$2,$3,0*%
%AMHorizOval*
0 Thick line with rounded ends*
0 $1 width*
0 $2 $3 position (X,Y) of the first rounded end (center of the circle)*
0 $4 $5 position (X,Y) of the second rounded end (center of the circle)*
0 Add line between two ends*
20,1,$1,$2,$3,$4,$5,0*
0 Add two circle primitives to create the rounded ends*
1,1,$1,$2,$3*
1,1,$1,$4,$5*%
G04 Aperture macros list end*
%ADD10RoundRect,0.250000X0.169710X-0.925648X0.941055X-0.006394X-0.169710X0.925648X-0.941055X0.006394X0*%
%ADD11HorizOval,1.700000X-0.095756X0.080348X0.095756X-0.080348X0*%
%ADD12R,1.700000X1.700000*%
%ADD13C,1.700000*%
%ADD14C,1.524000*%
%ADD15C,1.734000*%
%ADD16RoundRect,0.102000X-0.765000X-0.765000X0.765000X-0.765000X0.765000X0.765000X-0.765000X0.765000X0*%
%ADD17RoundRect,0.250000X0.600000X0.725000X-0.600000X0.725000X-0.600000X-0.725000X0.600000X-0.725000X0*%
%ADD18O,1.700000X1.950000*%
%ADD19RoundRect,0.250000X-0.725000X0.600000X-0.725000X-0.600000X0.725000X-0.600000X0.725000X0.600000X0*%
%ADD20O,1.950000X1.700000*%
%ADD21RoundRect,0.250000X-0.600000X-0.750000X0.600000X-0.750000X0.600000X0.750000X-0.600000X0.750000X0*%
%ADD22O,1.700000X2.000000*%
%ADD23RoundRect,0.250000X-0.600000X-0.725000X0.600000X-0.725000X0.600000X0.725000X-0.600000X0.725000X0*%
G04 APERTURE END LIST*
D10*
%TO.C,J7*%
X102870000Y-89535000D03*
D11*
X104476969Y-87619889D03*
X106083938Y-85704778D03*
X107690907Y-83789667D03*
%TD*%
D12*
%TO.C,U4*%
X37089000Y-84820000D03*
D13*
X54089000Y-84820000D03*
X54089000Y-44320000D03*
X37089000Y-44320000D03*
%TD*%
D14*
%TO.C,U3*%
X113534000Y-40510000D03*
X113534000Y-43050000D03*
X113534000Y-45590000D03*
X113534000Y-48130000D03*
X113534000Y-50670000D03*
X113534000Y-53210000D03*
%TD*%
%TO.C,U2*%
X94103000Y-39648000D03*
X94103000Y-42188000D03*
X94103000Y-44728000D03*
X94103000Y-47268000D03*
X94103000Y-49808000D03*
X94103000Y-52348000D03*
X94103000Y-54888000D03*
X94103000Y-57428000D03*
%TD*%
D15*
%TO.C,U1*%
X64770000Y-90170000D03*
X87630000Y-90170000D03*
X64770000Y-87630000D03*
X64770000Y-85090000D03*
X64770000Y-82550000D03*
X64770000Y-80010000D03*
X64770000Y-77470000D03*
X64770000Y-74930000D03*
X64770000Y-72390000D03*
X64770000Y-69850000D03*
X64770000Y-67310000D03*
X64770000Y-64770000D03*
X64770000Y-62230000D03*
X64770000Y-59690000D03*
X64770000Y-57150000D03*
X64770000Y-54610000D03*
X64770000Y-52070000D03*
X64770000Y-49530000D03*
X64770000Y-46990000D03*
X64770000Y-44450000D03*
X64770000Y-41910000D03*
X64770000Y-39370000D03*
D16*
X64770000Y-36830000D03*
D15*
X87630000Y-87630000D03*
X87630000Y-85090000D03*
X87630000Y-82550000D03*
X87630000Y-80010000D03*
X87630000Y-77470000D03*
X87630000Y-74930000D03*
X87630000Y-72390000D03*
X87630000Y-69850000D03*
X87630000Y-67310000D03*
X87630000Y-64770000D03*
X87630000Y-62230000D03*
X87630000Y-59690000D03*
X87630000Y-57150000D03*
X87630000Y-54610000D03*
X87630000Y-52070000D03*
X87630000Y-49530000D03*
X87630000Y-46990000D03*
X87630000Y-44450000D03*
X87630000Y-41910000D03*
X87630000Y-39370000D03*
X87630000Y-36830000D03*
%TD*%
D17*
%TO.C,J6*%
X53209000Y-97660000D03*
D18*
X50709000Y-97660000D03*
X48209000Y-97660000D03*
X45709000Y-97660000D03*
%TD*%
D19*
%TO.C,J5*%
X103374000Y-67815000D03*
D20*
X103374000Y-70315000D03*
X103374000Y-72815000D03*
X103374000Y-75315000D03*
%TD*%
D19*
%TO.C,J4*%
X110994000Y-67855000D03*
D20*
X110994000Y-70355000D03*
X110994000Y-72855000D03*
X110994000Y-75355000D03*
%TD*%
D19*
%TO.C,J3*%
X95754000Y-67815000D03*
D20*
X95754000Y-70315000D03*
X95754000Y-72815000D03*
X95754000Y-75315000D03*
%TD*%
D21*
%TO.C,J2*%
X99584000Y-30985000D03*
D22*
X102084000Y-30985000D03*
%TD*%
D23*
%TO.C,J1*%
X72379000Y-103375000D03*
D18*
X74879000Y-103375000D03*
X77379000Y-103375000D03*
X79879000Y-103375000D03*
%TD*%
M02*
