M48
; DRILL file {KiCad 8.0.7} date 2025-05-02T18:36:17-0500
; FORMAT={-:-/ absolute / metric / decimal}
; #@! TF.CreationDate,2025-05-02T18:36:17-05:00
; #@! TF.GenerationSoftware,Kicad,Pcbnew,8.0.7
; #@! TF.FileFunction,Plated,1,2,PTH
FMAT,2
METRIC
; #@! TA.AperFunction,Plated,PTH,ViaDrill
T1C0.600
; #@! TA.AperFunction,Plated,PTH,ComponentDrill
T2C0.762
; #@! TA.AperFunction,Plated,PTH,ComponentDrill
T3C0.950
; #@! TA.AperFunction,Plated,PTH,ComponentDrill
T4C1.000
; #@! TA.AperFunction,Plated,PTH,ComponentDrill
T5C1.020
%
G90
G05
T1
X83.185Y-32.89
X85.616Y-34.205
T2
X94.103Y-39.648
X94.103Y-42.188
X94.103Y-44.728
X94.103Y-47.268
X94.103Y-49.808
X94.103Y-52.348
X94.103Y-54.888
X94.103Y-57.428
X113.534Y-40.51
X113.534Y-43.05
X113.534Y-45.59
X113.534Y-48.13
X113.534Y-50.67
X113.534Y-53.21
T3
X45.709Y-97.66
X48.209Y-97.66
X50.709Y-97.66
X53.209Y-97.66
X72.379Y-103.375
X74.879Y-103.375
X77.379Y-103.375
X79.879Y-103.375
X95.754Y-67.815
X95.754Y-70.315
X95.754Y-72.815
X95.754Y-75.315
X102.87Y-89.535
X103.374Y-67.815
X103.374Y-70.315
X103.374Y-72.815
X103.374Y-75.315
X104.477Y-87.62
X106.084Y-85.705
X107.691Y-83.79
X110.994Y-67.855
X110.994Y-70.355
X110.994Y-72.855
X110.994Y-75.355
T4
X37.089Y-44.32
X37.089Y-84.82
X54.089Y-44.32
X54.089Y-84.82
X99.584Y-30.985
X102.084Y-30.985
T5
X64.77Y-36.83
X64.77Y-39.37
X64.77Y-41.91
X64.77Y-44.45
X64.77Y-46.99
X64.77Y-49.53
X64.77Y-52.07
X64.77Y-54.61
X64.77Y-57.15
X64.77Y-59.69
X64.77Y-62.23
X64.77Y-64.77
X64.77Y-67.31
X64.77Y-69.85
X64.77Y-72.39
X64.77Y-74.93
X64.77Y-77.47
X64.77Y-80.01
X64.77Y-82.55
X64.77Y-85.09
X64.77Y-87.63
X64.77Y-90.17
X87.63Y-36.83
X87.63Y-39.37
X87.63Y-41.91
X87.63Y-44.45
X87.63Y-46.99
X87.63Y-49.53
X87.63Y-52.07
X87.63Y-54.61
X87.63Y-57.15
X87.63Y-59.69
X87.63Y-62.23
X87.63Y-64.77
X87.63Y-67.31
X87.63Y-69.85
X87.63Y-72.39
X87.63Y-74.93
X87.63Y-77.47
X87.63Y-80.01
X87.63Y-82.55
X87.63Y-85.09
X87.63Y-87.63
X87.63Y-90.17
M30
