%TF.GenerationSoftware,KiCad,Pcbnew,8.0.7*%
%TF.CreationDate,2025-05-02T19:09:54-05:00*%
%TF.ProjectId,Fuente_Final,4675656e-7465-45f4-9669-6e616c2e6b69,rev?*%
%TF.SameCoordinates,Original*%
%TF.FileFunction,Copper,L2,Bot*%
%TF.FilePolarity,Positive*%
%FSLAX46Y46*%
G04 Gerber Fmt 4.6, Leading zero omitted, Abs format (unit mm)*
G04 Created by KiCad (PCBNEW 8.0.7) date 2025-05-02 19:09:54*
%MOMM*%
%LPD*%
G01*
G04 APERTURE LIST*
G04 Aperture macros list*
%AMRoundRect*
0 Rectangle with rounded corners*
0 $1 Rounding radius*
0 $2 $3 $4 $5 $6 $7 $8 $9 X,Y pos of 4 corners*
0 Add a 4 corners polygon primitive as box body*
4,1,4,$2,$3,$4,$5,$6,$7,$8,$9,$2,$3,0*
0 Add four circle primitives for the rounded corners*
1,1,$1+$1,$2,$3*
1,1,$1+$1,$4,$5*
1,1,$1+$1,$6,$7*
1,1,$1+$1,$8,$9*
0 Add four rect primitives between the rounded corners*
20,1,$1+$1,$2,$3,$4,$5,0*
20,1,$1+$1,$4,$5,$6,$7,0*
20,1,$1+$1,$6,$7,$8,$9,0*
20,1,$1+$1,$8,$9,$2,$3,0*%
G04 Aperture macros list end*
%TA.AperFunction,ComponentPad*%
%ADD10R,2.400000X2.400000*%
%TD*%
%TA.AperFunction,ComponentPad*%
%ADD11O,2.400000X2.400000*%
%TD*%
%TA.AperFunction,ComponentPad*%
%ADD12C,1.524000*%
%TD*%
%TA.AperFunction,ComponentPad*%
%ADD13O,2.900000X1.200000*%
%TD*%
%TA.AperFunction,ComponentPad*%
%ADD14R,2.000000X2.000000*%
%TD*%
%TA.AperFunction,ComponentPad*%
%ADD15C,2.000000*%
%TD*%
%TA.AperFunction,ComponentPad*%
%ADD16R,2.000000X1.905000*%
%TD*%
%TA.AperFunction,ComponentPad*%
%ADD17O,2.000000X1.905000*%
%TD*%
%TA.AperFunction,ComponentPad*%
%ADD18R,3.000000X3.000000*%
%TD*%
%TA.AperFunction,ComponentPad*%
%ADD19C,3.000000*%
%TD*%
%TA.AperFunction,ComponentPad*%
%ADD20RoundRect,0.250000X-0.600000X-0.750000X0.600000X-0.750000X0.600000X0.750000X-0.600000X0.750000X0*%
%TD*%
%TA.AperFunction,ComponentPad*%
%ADD21O,1.700000X2.000000*%
%TD*%
%TA.AperFunction,SMDPad,CuDef*%
%ADD22RoundRect,0.325000X-1.175000X0.325000X-1.175000X-0.325000X1.175000X-0.325000X1.175000X0.325000X0*%
%TD*%
%TA.AperFunction,Conductor*%
%ADD23C,0.500000*%
%TD*%
G04 APERTURE END LIST*
D10*
%TO.P,D3,1,K*%
%TO.N,Net-(D2-K)*%
X32260000Y-27500000D03*
D11*
%TO.P,D3,2,A*%
%TO.N,Net-(D3-A)*%
X37340000Y-27500000D03*
%TD*%
D12*
%TO.P,T1,1,AA*%
%TO.N,Net-(J3-Pin_2)*%
X30460000Y-32000000D03*
%TO.P,T1,2,AB*%
%TO.N,Net-(J3-Pin_1)*%
X30460000Y-41000000D03*
%TO.P,T1,3,SA*%
%TO.N,Net-(D3-A)*%
X39460000Y-32000000D03*
%TO.P,T1,4,SB*%
%TO.N,Net-(D1-K)*%
X39460000Y-41000000D03*
%TD*%
D10*
%TO.P,D2,1,K*%
%TO.N,Net-(D2-K)*%
X32160000Y-45000000D03*
D11*
%TO.P,D2,2,A*%
%TO.N,Net-(D1-K)*%
X37240000Y-45000000D03*
%TD*%
D13*
%TO.P,J4,5,Shield*%
%TO.N,GND*%
X69200000Y-43150000D03*
X69200000Y-30350000D03*
%TD*%
D14*
%TO.P,C1,1*%
%TO.N,Net-(D2-K)*%
X47500000Y-38367677D03*
D15*
%TO.P,C1,2*%
%TO.N,GND*%
X47500000Y-33367677D03*
%TD*%
D16*
%TO.P,U1,1,IN*%
%TO.N,Net-(U1-IN)*%
X58945000Y-37580000D03*
D17*
%TO.P,U1,2,GND*%
%TO.N,GND*%
X58945000Y-35040000D03*
%TO.P,U1,3,OUT*%
%TO.N,/5VOut*%
X58945000Y-32500000D03*
%TD*%
D10*
%TO.P,D1,1,K*%
%TO.N,Net-(D1-K)*%
X37240000Y-50000000D03*
D11*
%TO.P,D1,2,A*%
%TO.N,GND*%
X32160000Y-50000000D03*
%TD*%
D18*
%TO.P,J3,1,Pin_1*%
%TO.N,Net-(J3-Pin_1)*%
X20320000Y-38735000D03*
D19*
%TO.P,J3,2,Pin_2*%
%TO.N,Net-(J3-Pin_2)*%
X20320000Y-33655000D03*
%TD*%
D20*
%TO.P,J1,1,Pin_1*%
%TO.N,/5VOut*%
X57500000Y-26000000D03*
D21*
%TO.P,J1,2,Pin_2*%
%TO.N,GND*%
X60000000Y-26000000D03*
%TD*%
D10*
%TO.P,D4,1,K*%
%TO.N,Net-(D3-A)*%
X37340000Y-23000000D03*
D11*
%TO.P,D4,2,A*%
%TO.N,GND*%
X32260000Y-23000000D03*
%TD*%
D22*
%TO.P,J2,1,VBUS*%
%TO.N,/5VOut*%
X65500000Y-33250000D03*
%TO.P,J2,2,D-*%
%TO.N,unconnected-(J2-D--Pad2)*%
X65500000Y-35750000D03*
%TO.P,J2,3,D+*%
%TO.N,unconnected-(J2-D+-Pad3)*%
X65500000Y-37750000D03*
%TO.P,J2,4,GND*%
%TO.N,GND*%
X65500000Y-40250000D03*
D13*
%TO.P,J2,5,Shield*%
X69200000Y-30350000D03*
X69200000Y-43150000D03*
%TD*%
D23*
%TO.N,/5VOut*%
X63000000Y-33250000D02*
X62250000Y-32500000D01*
X62250000Y-32500000D02*
X58945000Y-32500000D01*
X65500000Y-33250000D02*
X63000000Y-33250000D01*
%TD*%
%TA.AperFunction,Conductor*%
%TO.N,GND*%
G36*
X73909979Y-21020185D02*
G01*
X73955734Y-21072989D01*
X73956365Y-21074394D01*
X74080693Y-21356204D01*
X74229874Y-21694347D01*
X74240420Y-21745352D01*
X74147256Y-33856730D01*
X74006499Y-52155221D01*
X74004797Y-52376454D01*
X73984598Y-52443340D01*
X73931443Y-52488687D01*
X73880801Y-52499500D01*
X16494714Y-52499500D01*
X16427675Y-52479815D01*
X16381920Y-52427011D01*
X16370718Y-52376454D01*
X16369016Y-52155222D01*
X16352053Y-49950000D01*
X22794778Y-49950000D01*
X22813234Y-50231591D01*
X22813644Y-50237837D01*
X22813646Y-50237849D01*
X22869917Y-50520745D01*
X22869921Y-50520760D01*
X22962642Y-50793905D01*
X23090219Y-51052606D01*
X23090223Y-51052613D01*
X23250478Y-51292452D01*
X23440672Y-51509327D01*
X23657547Y-51699521D01*
X23789003Y-51787357D01*
X23897389Y-51859778D01*
X24156098Y-51987359D01*
X24429247Y-52080081D01*
X24712161Y-52136356D01*
X25000000Y-52155222D01*
X25287839Y-52136356D01*
X25570753Y-52080081D01*
X25843902Y-51987359D01*
X26102611Y-51859778D01*
X26342454Y-51699520D01*
X26559327Y-51509327D01*
X26749520Y-51292454D01*
X26909778Y-51052611D01*
X27037359Y-50793902D01*
X27130081Y-50520753D01*
X27186356Y-50237839D01*
X27205222Y-49950000D01*
X27192113Y-49750000D01*
X30473968Y-49750000D01*
X31611518Y-49750000D01*
X31600889Y-49768409D01*
X31560000Y-49921009D01*
X31560000Y-50078991D01*
X31600889Y-50231591D01*
X31611518Y-50250000D01*
X30473968Y-50250000D01*
X30474274Y-50254079D01*
X30474275Y-50254086D01*
X30530967Y-50502475D01*
X30530973Y-50502494D01*
X30624058Y-50739671D01*
X30624057Y-50739671D01*
X30751455Y-50960328D01*
X30910320Y-51159540D01*
X31097097Y-51332842D01*
X31307616Y-51476371D01*
X31307624Y-51476376D01*
X31537176Y-51586921D01*
X31537174Y-51586921D01*
X31780652Y-51662024D01*
X31780660Y-51662026D01*
X31910000Y-51681520D01*
X31910000Y-50548482D01*
X31928409Y-50559111D01*
X32081009Y-50600000D01*
X32238991Y-50600000D01*
X32391591Y-50559111D01*
X32410000Y-50548482D01*
X32410000Y-51681519D01*
X32539339Y-51662026D01*
X32539347Y-51662024D01*
X32782824Y-51586921D01*
X33012376Y-51476376D01*
X33012377Y-51476375D01*
X33222905Y-51332840D01*
X33409679Y-51159540D01*
X33568544Y-50960328D01*
X33695941Y-50739671D01*
X33789026Y-50502494D01*
X33789032Y-50502475D01*
X33845724Y-50254086D01*
X33845725Y-50254079D01*
X33846032Y-50250000D01*
X32708482Y-50250000D01*
X32719111Y-50231591D01*
X32760000Y-50078991D01*
X32760000Y-49921009D01*
X32719111Y-49768409D01*
X32708482Y-49750000D01*
X33846031Y-49750000D01*
X33845725Y-49745920D01*
X33845724Y-49745913D01*
X33789032Y-49497524D01*
X33789026Y-49497505D01*
X33695941Y-49260328D01*
X33695942Y-49260328D01*
X33568544Y-49039671D01*
X33409679Y-48840459D01*
X33314488Y-48752135D01*
X35539500Y-48752135D01*
X35539500Y-51247870D01*
X35539501Y-51247876D01*
X35545908Y-51307483D01*
X35596202Y-51442328D01*
X35596206Y-51442335D01*
X35682452Y-51557544D01*
X35682455Y-51557547D01*
X35797664Y-51643793D01*
X35797671Y-51643797D01*
X35932517Y-51694091D01*
X35932516Y-51694091D01*
X35939444Y-51694835D01*
X35992127Y-51700500D01*
X38487872Y-51700499D01*
X38547483Y-51694091D01*
X38682331Y-51643796D01*
X38797546Y-51557546D01*
X38883796Y-51442331D01*
X38934091Y-51307483D01*
X38940500Y-51247873D01*
X38940499Y-49750000D01*
X43544778Y-49750000D01*
X43563644Y-50037837D01*
X43563646Y-50037849D01*
X43619917Y-50320745D01*
X43619921Y-50320760D01*
X43712642Y-50593905D01*
X43840219Y-50852606D01*
X43840223Y-50852613D01*
X44000478Y-51092452D01*
X44190672Y-51309327D01*
X44407547Y-51499521D01*
X44538351Y-51586921D01*
X44647389Y-51659778D01*
X44906098Y-51787359D01*
X45179247Y-51880081D01*
X45462161Y-51936356D01*
X45750000Y-51955222D01*
X46037839Y-51936356D01*
X46320753Y-51880081D01*
X46593902Y-51787359D01*
X46852611Y-51659778D01*
X47092454Y-51499520D01*
X47309327Y-51309327D01*
X47499520Y-51092454D01*
X47659778Y-50852611D01*
X47787359Y-50593902D01*
X47880081Y-50320753D01*
X47936356Y-50037839D01*
X47955222Y-49750000D01*
X65794778Y-49750000D01*
X65813644Y-50037837D01*
X65813646Y-50037849D01*
X65869917Y-50320745D01*
X65869921Y-50320760D01*
X65962642Y-50593905D01*
X66090219Y-50852606D01*
X66090223Y-50852613D01*
X66250478Y-51092452D01*
X66440672Y-51309327D01*
X66657547Y-51499521D01*
X66788351Y-51586921D01*
X66897389Y-51659778D01*
X67156098Y-51787359D01*
X67429247Y-51880081D01*
X67712161Y-51936356D01*
X68000000Y-51955222D01*
X68287839Y-51936356D01*
X68570753Y-51880081D01*
X68843902Y-51787359D01*
X69102611Y-51659778D01*
X69342454Y-51499520D01*
X69559327Y-51309327D01*
X69749520Y-51092454D01*
X69909778Y-50852611D01*
X70037359Y-50593902D01*
X70130081Y-50320753D01*
X70186356Y-50037839D01*
X70205222Y-49750000D01*
X70186356Y-49462161D01*
X70130081Y-49179247D01*
X70037359Y-48906098D01*
X69919527Y-48667159D01*
X69909780Y-48647393D01*
X69909776Y-48647386D01*
X69749521Y-48407547D01*
X69559327Y-48190672D01*
X69342452Y-48000478D01*
X69102613Y-47840223D01*
X69102606Y-47840219D01*
X68843905Y-47712642D01*
X68570760Y-47619921D01*
X68570754Y-47619919D01*
X68570753Y-47619919D01*
X68570751Y-47619918D01*
X68570745Y-47619917D01*
X68287849Y-47563646D01*
X68287839Y-47563644D01*
X68000000Y-47544778D01*
X67712161Y-47563644D01*
X67712155Y-47563645D01*
X67712150Y-47563646D01*
X67429254Y-47619917D01*
X67429239Y-47619921D01*
X67156094Y-47712642D01*
X66897393Y-47840219D01*
X66897386Y-47840223D01*
X66657547Y-48000478D01*
X66440672Y-48190672D01*
X66250478Y-48407547D01*
X66090223Y-48647386D01*
X66090219Y-48647393D01*
X65962642Y-48906094D01*
X65869921Y-49179239D01*
X65869917Y-49179254D01*
X65813646Y-49462150D01*
X65813644Y-49462162D01*
X65794778Y-49750000D01*
X47955222Y-49750000D01*
X47936356Y-49462161D01*
X47880081Y-49179247D01*
X47787359Y-48906098D01*
X47669527Y-48667159D01*
X47659780Y-48647393D01*
X47659776Y-48647386D01*
X47499521Y-48407547D01*
X47309327Y-48190672D01*
X47092452Y-48000478D01*
X46852613Y-47840223D01*
X46852606Y-47840219D01*
X46593905Y-47712642D01*
X46320760Y-47619921D01*
X46320754Y-47619919D01*
X46320753Y-47619919D01*
X46320751Y-47619918D01*
X46320745Y-47619917D01*
X46037849Y-47563646D01*
X46037839Y-47563644D01*
X45750000Y-47544778D01*
X45462161Y-47563644D01*
X45462155Y-47563645D01*
X45462150Y-47563646D01*
X45179254Y-47619917D01*
X45179239Y-47619921D01*
X44906094Y-47712642D01*
X44647393Y-47840219D01*
X44647386Y-47840223D01*
X44407547Y-48000478D01*
X44190672Y-48190672D01*
X44000478Y-48407547D01*
X43840223Y-48647386D01*
X43840219Y-48647393D01*
X43712642Y-48906094D01*
X43619921Y-49179239D01*
X43619917Y-49179254D01*
X43563646Y-49462150D01*
X43563644Y-49462162D01*
X43544778Y-49750000D01*
X38940499Y-49750000D01*
X38940499Y-48752128D01*
X38934091Y-48692517D01*
X38924632Y-48667157D01*
X38883797Y-48557671D01*
X38883793Y-48557664D01*
X38797547Y-48442455D01*
X38797544Y-48442452D01*
X38682335Y-48356206D01*
X38682328Y-48356202D01*
X38547482Y-48305908D01*
X38547483Y-48305908D01*
X38487883Y-48299501D01*
X38487881Y-48299500D01*
X38487873Y-48299500D01*
X38487864Y-48299500D01*
X35992129Y-48299500D01*
X35992123Y-48299501D01*
X35932516Y-48305908D01*
X35797671Y-48356202D01*
X35797664Y-48356206D01*
X35682455Y-48442452D01*
X35682452Y-48442455D01*
X35596206Y-48557664D01*
X35596202Y-48557671D01*
X35545908Y-48692517D01*
X35539501Y-48752116D01*
X35539501Y-48752123D01*
X35539500Y-48752135D01*
X33314488Y-48752135D01*
X33222905Y-48667159D01*
X33012377Y-48523624D01*
X33012376Y-48523623D01*
X32782823Y-48413078D01*
X32782825Y-48413078D01*
X32539354Y-48337977D01*
X32539348Y-48337976D01*
X32410000Y-48318479D01*
X32410000Y-49451517D01*
X32391591Y-49440889D01*
X32238991Y-49400000D01*
X32081009Y-49400000D01*
X31928409Y-49440889D01*
X31910000Y-49451517D01*
X31910000Y-48318479D01*
X31780651Y-48337976D01*
X31780645Y-48337977D01*
X31537175Y-48413078D01*
X31307624Y-48523623D01*
X31307616Y-48523628D01*
X31097097Y-48667157D01*
X30910320Y-48840459D01*
X30751455Y-49039671D01*
X30624058Y-49260328D01*
X30530973Y-49497505D01*
X30530967Y-49497524D01*
X30474275Y-49745913D01*
X30474274Y-49745920D01*
X30473968Y-49750000D01*
X27192113Y-49750000D01*
X27186356Y-49662161D01*
X27130081Y-49379247D01*
X27037359Y-49106098D01*
X26909778Y-48847389D01*
X26776145Y-48647393D01*
X26749521Y-48607547D01*
X26559327Y-48390672D01*
X26342452Y-48200478D01*
X26102613Y-48040223D01*
X26102606Y-48040219D01*
X25843905Y-47912642D01*
X25570760Y-47819921D01*
X25570754Y-47819919D01*
X25570753Y-47819919D01*
X25570751Y-47819918D01*
X25570745Y-47819917D01*
X25287849Y-47763646D01*
X25287839Y-47763644D01*
X25000000Y-47744778D01*
X24712161Y-47763644D01*
X24712155Y-47763645D01*
X24712150Y-47763646D01*
X24429254Y-47819917D01*
X24429239Y-47819921D01*
X24156094Y-47912642D01*
X23897393Y-48040219D01*
X23897386Y-48040223D01*
X23657547Y-48200478D01*
X23440672Y-48390672D01*
X23250478Y-48607547D01*
X23090223Y-48847386D01*
X23090219Y-48847393D01*
X22962642Y-49106094D01*
X22869921Y-49379239D01*
X22869917Y-49379254D01*
X22813646Y-49662150D01*
X22813644Y-49662161D01*
X22794778Y-49950000D01*
X16352053Y-49950000D01*
X16304377Y-43752135D01*
X30459500Y-43752135D01*
X30459500Y-46247870D01*
X30459501Y-46247876D01*
X30465908Y-46307483D01*
X30516202Y-46442328D01*
X30516206Y-46442335D01*
X30602452Y-46557544D01*
X30602455Y-46557547D01*
X30717664Y-46643793D01*
X30717671Y-46643797D01*
X30852517Y-46694091D01*
X30852516Y-46694091D01*
X30859444Y-46694835D01*
X30912127Y-46700500D01*
X33407872Y-46700499D01*
X33467483Y-46694091D01*
X33602331Y-46643796D01*
X33717546Y-46557546D01*
X33803796Y-46442331D01*
X33854091Y-46307483D01*
X33860500Y-46247873D01*
X33860499Y-44999995D01*
X35534732Y-44999995D01*
X35534732Y-45000004D01*
X35553777Y-45254154D01*
X35553778Y-45254157D01*
X35610492Y-45502637D01*
X35703607Y-45739888D01*
X35831041Y-45960612D01*
X35989950Y-46159877D01*
X36176783Y-46333232D01*
X36387366Y-46476805D01*
X36387371Y-46476807D01*
X36387372Y-46476808D01*
X36387373Y-46476809D01*
X36509328Y-46535538D01*
X36616992Y-46587387D01*
X36616993Y-46587387D01*
X36616996Y-46587389D01*
X36860542Y-46662513D01*
X37112565Y-46700500D01*
X37367435Y-46700500D01*
X37619458Y-46662513D01*
X37863004Y-46587389D01*
X38092634Y-46476805D01*
X38303217Y-46333232D01*
X38490050Y-46159877D01*
X38648959Y-45960612D01*
X38776393Y-45739888D01*
X38869508Y-45502637D01*
X38926222Y-45254157D01*
X38945268Y-45000000D01*
X38926222Y-44745843D01*
X38869508Y-44497363D01*
X38776393Y-44260112D01*
X38770554Y-44249999D01*
X68453552Y-44249999D01*
X68453553Y-44250000D01*
X69946448Y-44250000D01*
X69946448Y-44249999D01*
X69200000Y-43503552D01*
X69199999Y-43503552D01*
X68453552Y-44249999D01*
X38770554Y-44249999D01*
X38648959Y-44039388D01*
X38490050Y-43840123D01*
X38303217Y-43666768D01*
X38092634Y-43523195D01*
X38092630Y-43523193D01*
X38092627Y-43523191D01*
X38092626Y-43523190D01*
X37863006Y-43412612D01*
X37863008Y-43412612D01*
X37619466Y-43337489D01*
X37619462Y-43337488D01*
X37619458Y-43337487D01*
X37498231Y-43319214D01*
X37367440Y-43299500D01*
X37367435Y-43299500D01*
X37112565Y-43299500D01*
X37112559Y-43299500D01*
X36955609Y-43323157D01*
X36860542Y-43337487D01*
X36860539Y-43337488D01*
X36860533Y-43337489D01*
X36616992Y-43412612D01*
X36387373Y-43523190D01*
X36387372Y-43523191D01*
X36176782Y-43666768D01*
X35989952Y-43840121D01*
X35989950Y-43840123D01*
X35831041Y-44039388D01*
X35703608Y-44260109D01*
X35610492Y-44497362D01*
X35610490Y-44497369D01*
X35553777Y-44745845D01*
X35534732Y-44999995D01*
X33860499Y-44999995D01*
X33860499Y-43752128D01*
X33854091Y-43692517D01*
X33844487Y-43666768D01*
X33803797Y-43557671D01*
X33803793Y-43557664D01*
X33717547Y-43442455D01*
X33717544Y-43442452D01*
X33602335Y-43356206D01*
X33602328Y-43356202D01*
X33467482Y-43305908D01*
X33467483Y-43305908D01*
X33407883Y-43299501D01*
X33407881Y-43299500D01*
X33407873Y-43299500D01*
X33407864Y-43299500D01*
X30912129Y-43299500D01*
X30912123Y-43299501D01*
X30852516Y-43305908D01*
X30717671Y-43356202D01*
X30717664Y-43356206D01*
X30602455Y-43442452D01*
X30602452Y-43442455D01*
X30516206Y-43557664D01*
X30516202Y-43557671D01*
X30465908Y-43692517D01*
X30459501Y-43752116D01*
X30459501Y-43752123D01*
X30459500Y-43752135D01*
X16304377Y-43752135D01*
X16299079Y-43063428D01*
X67250000Y-43063428D01*
X67250000Y-43236571D01*
X67277085Y-43407584D01*
X67330591Y-43572257D01*
X67409195Y-43726524D01*
X67510967Y-43866602D01*
X67633397Y-43989032D01*
X67773475Y-44090804D01*
X67861031Y-44135415D01*
X68546447Y-43450000D01*
X69853552Y-43450000D01*
X70538967Y-44135415D01*
X70626523Y-44090804D01*
X70766602Y-43989032D01*
X70889032Y-43866602D01*
X70990804Y-43726524D01*
X71069408Y-43572257D01*
X71122914Y-43407584D01*
X71150000Y-43236571D01*
X71150000Y-43063428D01*
X71122914Y-42892415D01*
X71069408Y-42727742D01*
X70990804Y-42573475D01*
X70889032Y-42433397D01*
X70766602Y-42310967D01*
X70626524Y-42209195D01*
X70538968Y-42164583D01*
X70538966Y-42164583D01*
X69853550Y-42850000D01*
X68546449Y-42850000D01*
X67861032Y-42164583D01*
X67861030Y-42164583D01*
X67773478Y-42209194D01*
X67633397Y-42310967D01*
X67510967Y-42433397D01*
X67409195Y-42573475D01*
X67330591Y-42727742D01*
X67277085Y-42892415D01*
X67250000Y-43063428D01*
X16299079Y-43063428D01*
X16283206Y-40999997D01*
X29192677Y-40999997D01*
X29192677Y-41000002D01*
X29211929Y-41220062D01*
X29211930Y-41220070D01*
X29269104Y-41433445D01*
X29269105Y-41433447D01*
X29269106Y-41433450D01*
X29362466Y-41633662D01*
X29362468Y-41633666D01*
X29489170Y-41814615D01*
X29489175Y-41814621D01*
X29645378Y-41970824D01*
X29645384Y-41970829D01*
X29826333Y-42097531D01*
X29826335Y-42097532D01*
X29826338Y-42097534D01*
X30026550Y-42190894D01*
X30239932Y-42248070D01*
X30397123Y-42261822D01*
X30459998Y-42267323D01*
X30460000Y-42267323D01*
X30460002Y-42267323D01*
X30515017Y-42262509D01*
X30680068Y-42248070D01*
X30893450Y-42190894D01*
X31093662Y-42097534D01*
X31274620Y-41970826D01*
X31430826Y-41814620D01*
X31557534Y-41633662D01*
X31650894Y-41433450D01*
X31708070Y-41220068D01*
X31727323Y-41000000D01*
X31727323Y-40999997D01*
X38192677Y-40999997D01*
X38192677Y-41000002D01*
X38211929Y-41220062D01*
X38211930Y-41220070D01*
X38269104Y-41433445D01*
X38269105Y-41433447D01*
X38269106Y-41433450D01*
X38362466Y-41633662D01*
X38362468Y-41633666D01*
X38489170Y-41814615D01*
X38489175Y-41814621D01*
X38645378Y-41970824D01*
X38645384Y-41970829D01*
X38826333Y-42097531D01*
X38826335Y-42097532D01*
X38826338Y-42097534D01*
X39026550Y-42190894D01*
X39239932Y-42248070D01*
X39397123Y-42261822D01*
X39459998Y-42267323D01*
X39460000Y-42267323D01*
X39460002Y-42267323D01*
X39515017Y-42262509D01*
X39680068Y-42248070D01*
X39893450Y-42190894D01*
X40093662Y-42097534D01*
X40161548Y-42050000D01*
X68453551Y-42050000D01*
X69199999Y-42796448D01*
X69563050Y-42433398D01*
X69946447Y-42050000D01*
X68453551Y-42050000D01*
X40161548Y-42050000D01*
X40274620Y-41970826D01*
X40430826Y-41814620D01*
X40557534Y-41633662D01*
X40650894Y-41433450D01*
X40708070Y-41220068D01*
X40727323Y-41000000D01*
X40708070Y-40779932D01*
X40672381Y-40646741D01*
X63500000Y-40646741D01*
X63502732Y-40687034D01*
X63546041Y-40861180D01*
X63625768Y-41021935D01*
X63625770Y-41021938D01*
X63738196Y-41161802D01*
X63738197Y-41161803D01*
X63878061Y-41274229D01*
X63878064Y-41274231D01*
X64038819Y-41353958D01*
X64212965Y-41397267D01*
X64253258Y-41400000D01*
X65250000Y-41400000D01*
X65750000Y-41400000D01*
X66746742Y-41400000D01*
X66787034Y-41397267D01*
X66961180Y-41353958D01*
X67121935Y-41274231D01*
X67121938Y-41274229D01*
X67261802Y-41161803D01*
X67261803Y-41161802D01*
X67374229Y-41021938D01*
X67374231Y-41021935D01*
X67453958Y-40861180D01*
X67497267Y-40687034D01*
X67500000Y-40646741D01*
X67500000Y-40500000D01*
X65750000Y-40500000D01*
X65750000Y-41400000D01*
X65250000Y-41400000D01*
X65250000Y-40500000D01*
X63500000Y-40500000D01*
X63500000Y-40646741D01*
X40672381Y-40646741D01*
X40650894Y-40566550D01*
X40557534Y-40366339D01*
X40430826Y-40185380D01*
X40274620Y-40029174D01*
X40274616Y-40029171D01*
X40274615Y-40029170D01*
X40093666Y-39902468D01*
X40093662Y-39902466D01*
X40093660Y-39902465D01*
X39893450Y-39809106D01*
X39893447Y-39809105D01*
X39893445Y-39809104D01*
X39680070Y-39751930D01*
X39680062Y-39751929D01*
X39460002Y-39732677D01*
X39459998Y-39732677D01*
X39239937Y-39751929D01*
X39239929Y-39751930D01*
X39026554Y-39809104D01*
X39026550Y-39809106D01*
X39021474Y-39811473D01*
X38826340Y-39902465D01*
X38826338Y-39902466D01*
X38645377Y-40029175D01*
X38489175Y-40185377D01*
X38362466Y-40366338D01*
X38362465Y-40366340D01*
X38269107Y-40566548D01*
X38269104Y-40566554D01*
X38211930Y-40779929D01*
X38211929Y-40779937D01*
X38192677Y-40999997D01*
X31727323Y-40999997D01*
X31708070Y-40779932D01*
X31650894Y-40566550D01*
X31557534Y-40366339D01*
X31430826Y-40185380D01*
X31274620Y-40029174D01*
X31274616Y-40029171D01*
X31274615Y-40029170D01*
X31093666Y-39902468D01*
X31093662Y-39902466D01*
X31093660Y-39902465D01*
X30893450Y-39809106D01*
X30893447Y-39809105D01*
X30893445Y-39809104D01*
X30680070Y-39751930D01*
X30680062Y-39751929D01*
X30460002Y-39732677D01*
X30459998Y-39732677D01*
X30239937Y-39751929D01*
X30239929Y-39751930D01*
X30026554Y-39809104D01*
X30026550Y-39809106D01*
X30021474Y-39811473D01*
X29826340Y-39902465D01*
X29826338Y-39902466D01*
X29645377Y-40029175D01*
X29489175Y-40185377D01*
X29362466Y-40366338D01*
X29362465Y-40366340D01*
X29269107Y-40566548D01*
X29269104Y-40566554D01*
X29211930Y-40779929D01*
X29211929Y-40779937D01*
X29192677Y-40999997D01*
X16283206Y-40999997D01*
X16253876Y-37187135D01*
X18319500Y-37187135D01*
X18319500Y-40282870D01*
X18319501Y-40282876D01*
X18325908Y-40342483D01*
X18376202Y-40477328D01*
X18376206Y-40477335D01*
X18462452Y-40592544D01*
X18462455Y-40592547D01*
X18577664Y-40678793D01*
X18577671Y-40678797D01*
X18712517Y-40729091D01*
X18712516Y-40729091D01*
X18719444Y-40729835D01*
X18772127Y-40735500D01*
X21867872Y-40735499D01*
X21927483Y-40729091D01*
X22062331Y-40678796D01*
X22177546Y-40592546D01*
X22263796Y-40477331D01*
X22314091Y-40342483D01*
X22320500Y-40282873D01*
X22320499Y-37319812D01*
X45999500Y-37319812D01*
X45999500Y-39415547D01*
X45999501Y-39415553D01*
X46005908Y-39475160D01*
X46056202Y-39610005D01*
X46056206Y-39610012D01*
X46142452Y-39725221D01*
X46142455Y-39725224D01*
X46257664Y-39811470D01*
X46257671Y-39811474D01*
X46392517Y-39861768D01*
X46392516Y-39861768D01*
X46399444Y-39862512D01*
X46452127Y-39868177D01*
X48547872Y-39868176D01*
X48607483Y-39861768D01*
X48742331Y-39811473D01*
X48857546Y-39725223D01*
X48943796Y-39610008D01*
X48994091Y-39475160D01*
X49000500Y-39415550D01*
X49000499Y-37319805D01*
X48994091Y-37260194D01*
X48966837Y-37187123D01*
X48943797Y-37125348D01*
X48943793Y-37125341D01*
X48857547Y-37010132D01*
X48857544Y-37010129D01*
X48742335Y-36923883D01*
X48742328Y-36923879D01*
X48607482Y-36873585D01*
X48607483Y-36873585D01*
X48547883Y-36867178D01*
X48547881Y-36867177D01*
X48547873Y-36867177D01*
X48547864Y-36867177D01*
X46452129Y-36867177D01*
X46452123Y-36867178D01*
X46392516Y-36873585D01*
X46257671Y-36923879D01*
X46257664Y-36923883D01*
X46142455Y-37010129D01*
X46142452Y-37010132D01*
X46056206Y-37125341D01*
X46056202Y-37125348D01*
X46005908Y-37260194D01*
X46000242Y-37312900D01*
X45999501Y-37319800D01*
X45999500Y-37319812D01*
X22320499Y-37319812D01*
X22320499Y-37187128D01*
X22314091Y-37127517D01*
X22313281Y-37125346D01*
X22263797Y-36992671D01*
X22263793Y-36992664D01*
X22177547Y-36877455D01*
X22177544Y-36877452D01*
X22062335Y-36791206D01*
X22062328Y-36791202D01*
X21927482Y-36740908D01*
X21927483Y-36740908D01*
X21867883Y-36734501D01*
X21867881Y-36734500D01*
X21867873Y-36734500D01*
X21867864Y-36734500D01*
X18772129Y-36734500D01*
X18772123Y-36734501D01*
X18712516Y-36740908D01*
X18577671Y-36791202D01*
X18577664Y-36791206D01*
X18462455Y-36877452D01*
X18462452Y-36877455D01*
X18376206Y-36992664D01*
X18376202Y-36992671D01*
X18325908Y-37127517D01*
X18319501Y-37187116D01*
X18319501Y-37187123D01*
X18319500Y-37187135D01*
X16253876Y-37187135D01*
X16226706Y-33654998D01*
X18314390Y-33654998D01*
X18314390Y-33655001D01*
X18334804Y-33940433D01*
X18395628Y-34220037D01*
X18395630Y-34220043D01*
X18395631Y-34220046D01*
X18462937Y-34400500D01*
X18495635Y-34488166D01*
X18632770Y-34739309D01*
X18632775Y-34739317D01*
X18804254Y-34968387D01*
X18804270Y-34968405D01*
X19006594Y-35170729D01*
X19006612Y-35170745D01*
X19235682Y-35342224D01*
X19235690Y-35342229D01*
X19486833Y-35479364D01*
X19486832Y-35479364D01*
X19486836Y-35479365D01*
X19486839Y-35479367D01*
X19754954Y-35579369D01*
X19754960Y-35579370D01*
X19754962Y-35579371D01*
X20034566Y-35640195D01*
X20034568Y-35640195D01*
X20034572Y-35640196D01*
X20288220Y-35658337D01*
X20319999Y-35660610D01*
X20320000Y-35660610D01*
X20320001Y-35660610D01*
X20348595Y-35658564D01*
X20605428Y-35640196D01*
X20885046Y-35579369D01*
X21153161Y-35479367D01*
X21404315Y-35342226D01*
X21633395Y-35170739D01*
X21835739Y-34968395D01*
X22007226Y-34739315D01*
X22144367Y-34488161D01*
X22244369Y-34220046D01*
X22282053Y-34046813D01*
X22305195Y-33940433D01*
X22305195Y-33940432D01*
X22305196Y-33940428D01*
X22325610Y-33655000D01*
X22325022Y-33646784D01*
X22318863Y-33560670D01*
X22305196Y-33369572D01*
X22304782Y-33367671D01*
X45994859Y-33367671D01*
X45994859Y-33367682D01*
X46015385Y-33615406D01*
X46015387Y-33615415D01*
X46076412Y-33856394D01*
X46176267Y-34084044D01*
X46276562Y-34237558D01*
X47017037Y-33497085D01*
X47034075Y-33560670D01*
X47099901Y-33674684D01*
X47192993Y-33767776D01*
X47307007Y-33833602D01*
X47370591Y-33850639D01*
X46629943Y-34591286D01*
X46676768Y-34627732D01*
X46676771Y-34627734D01*
X46895385Y-34746041D01*
X46895396Y-34746046D01*
X47130506Y-34826760D01*
X47375707Y-34867677D01*
X47624293Y-34867677D01*
X47869493Y-34826760D01*
X48104603Y-34746046D01*
X48104614Y-34746041D01*
X48323230Y-34627733D01*
X48323236Y-34627728D01*
X48370055Y-34591287D01*
X48370056Y-34591286D01*
X47629408Y-33850639D01*
X47692993Y-33833602D01*
X47807007Y-33767776D01*
X47900099Y-33674684D01*
X47965925Y-33560670D01*
X47982962Y-33497085D01*
X48723435Y-34237559D01*
X48823733Y-34084041D01*
X48923587Y-33856394D01*
X48984612Y-33615415D01*
X48984614Y-33615406D01*
X49005141Y-33367682D01*
X49005141Y-33367671D01*
X48984614Y-33119947D01*
X48984612Y-33119938D01*
X48923587Y-32878959D01*
X48823732Y-32651309D01*
X48723435Y-32497793D01*
X47982962Y-33238267D01*
X47965925Y-33174684D01*
X47900099Y-33060670D01*
X47807007Y-32967578D01*
X47692993Y-32901752D01*
X47629409Y-32884714D01*
X48128476Y-32385646D01*
X57444500Y-32385646D01*
X57444500Y-32614353D01*
X57480278Y-32840246D01*
X57480278Y-32840249D01*
X57550950Y-33057755D01*
X57647920Y-33248069D01*
X57654783Y-33261538D01*
X57789214Y-33446566D01*
X57950934Y-33608286D01*
X58035864Y-33669991D01*
X58078529Y-33725321D01*
X58084508Y-33794935D01*
X58051902Y-33856730D01*
X58035864Y-33870627D01*
X57951257Y-33932097D01*
X57789597Y-34093757D01*
X57655211Y-34278723D01*
X57551417Y-34482429D01*
X57480765Y-34699871D01*
X57466491Y-34790000D01*
X58454252Y-34790000D01*
X58432482Y-34827708D01*
X58395000Y-34967591D01*
X58395000Y-35112409D01*
X58432482Y-35252292D01*
X58454252Y-35290000D01*
X57466491Y-35290000D01*
X57480765Y-35380128D01*
X57551417Y-35597570D01*
X57655213Y-35801279D01*
X57788011Y-35984060D01*
X57811491Y-36049866D01*
X57795666Y-36117920D01*
X57745560Y-36166615D01*
X57731026Y-36173127D01*
X57702671Y-36183702D01*
X57702664Y-36183706D01*
X57587455Y-36269952D01*
X57587452Y-36269955D01*
X57501206Y-36385164D01*
X57501202Y-36385171D01*
X57450908Y-36520017D01*
X57444501Y-36579616D01*
X57444501Y-36579623D01*
X57444500Y-36579635D01*
X57444500Y-38580370D01*
X57444501Y-38580376D01*
X57450908Y-38639983D01*
X57501202Y-38774828D01*
X57501206Y-38774835D01*
X57587452Y-38890044D01*
X57587455Y-38890047D01*
X57702664Y-38976293D01*
X57702671Y-38976297D01*
X57837517Y-39026591D01*
X57837516Y-39026591D01*
X57844444Y-39027335D01*
X57897127Y-39033000D01*
X59992872Y-39032999D01*
X60052483Y-39026591D01*
X60187331Y-38976296D01*
X60302546Y-38890046D01*
X60388796Y-38774831D01*
X60439091Y-38639983D01*
X60445500Y-38580373D01*
X60445499Y-36579628D01*
X60439091Y-36520017D01*
X60388796Y-36385169D01*
X60388795Y-36385168D01*
X60388793Y-36385164D01*
X60302547Y-36269955D01*
X60302544Y-36269952D01*
X60187335Y-36183706D01*
X60187326Y-36183701D01*
X60158974Y-36173127D01*
X60103040Y-36131257D01*
X60078622Y-36065792D01*
X60093473Y-35997519D01*
X60101988Y-35984059D01*
X60234788Y-35801276D01*
X60338582Y-35597570D01*
X60409234Y-35380128D01*
X60423509Y-35290000D01*
X59435748Y-35290000D01*
X59457518Y-35252292D01*
X59495000Y-35112409D01*
X59495000Y-34967591D01*
X59457518Y-34827708D01*
X59435748Y-34790000D01*
X60423509Y-34790000D01*
X60409234Y-34699871D01*
X60338582Y-34482429D01*
X60234788Y-34278723D01*
X60100402Y-34093757D01*
X59938742Y-33932097D01*
X59854135Y-33870626D01*
X59811470Y-33815296D01*
X59805491Y-33745682D01*
X59838097Y-33683887D01*
X59854125Y-33669999D01*
X59939066Y-33608286D01*
X60100786Y-33446566D01*
X60206100Y-33301613D01*
X60261430Y-33258949D01*
X60306418Y-33250500D01*
X61887770Y-33250500D01*
X61954809Y-33270185D01*
X61975451Y-33286819D01*
X62417049Y-33728416D01*
X62483568Y-33794935D01*
X62521585Y-33832952D01*
X62644498Y-33915080D01*
X62644511Y-33915087D01*
X62781082Y-33971656D01*
X62781087Y-33971658D01*
X62781091Y-33971658D01*
X62781092Y-33971659D01*
X62926079Y-34000500D01*
X62926082Y-34000500D01*
X63548476Y-34000500D01*
X63615515Y-34020185D01*
X63645123Y-34046813D01*
X63737841Y-34162159D01*
X63877790Y-34274653D01*
X64038651Y-34354433D01*
X64140113Y-34379665D01*
X64200420Y-34414947D01*
X64232079Y-34477233D01*
X64225038Y-34546747D01*
X64181533Y-34601419D01*
X64140113Y-34620335D01*
X64038649Y-34645567D01*
X63877790Y-34725346D01*
X63737841Y-34837840D01*
X63737840Y-34837841D01*
X63625346Y-34977790D01*
X63545567Y-35138649D01*
X63502234Y-35312897D01*
X63499500Y-35353218D01*
X63499500Y-36146781D01*
X63502234Y-36187102D01*
X63545567Y-36361350D01*
X63625346Y-36522209D01*
X63737840Y-36662158D01*
X63738001Y-36662319D01*
X63738067Y-36662440D01*
X63742053Y-36667399D01*
X63741164Y-36668112D01*
X63771486Y-36723642D01*
X63766502Y-36793334D01*
X63741533Y-36832183D01*
X63742053Y-36832601D01*
X63738126Y-36837486D01*
X63738001Y-36837681D01*
X63737840Y-36837841D01*
X63625346Y-36977790D01*
X63545567Y-37138649D01*
X63502234Y-37312897D01*
X63499500Y-37353218D01*
X63499500Y-38146781D01*
X63502234Y-38187102D01*
X63545567Y-38361350D01*
X63625346Y-38522209D01*
X63720015Y-38639982D01*
X63737841Y-38662159D01*
X63877790Y-38774653D01*
X64038651Y-38854433D01*
X64141149Y-38879922D01*
X64201456Y-38915204D01*
X64233115Y-38977489D01*
X64226074Y-39047003D01*
X64182569Y-39101676D01*
X64141150Y-39120591D01*
X64038827Y-39146038D01*
X64038820Y-39146041D01*
X63878064Y-39225768D01*
X63878061Y-39225770D01*
X63738197Y-39338196D01*
X63738196Y-39338197D01*
X63625770Y-39478061D01*
X63625768Y-39478064D01*
X63546041Y-39638819D01*
X63502732Y-39812965D01*
X63500000Y-39853258D01*
X63500000Y-40000000D01*
X67500000Y-40000000D01*
X67500000Y-39853258D01*
X67497267Y-39812965D01*
X67453958Y-39638819D01*
X67374231Y-39478064D01*
X67374229Y-39478061D01*
X67261803Y-39338197D01*
X67261802Y-39338196D01*
X67121938Y-39225770D01*
X67121935Y-39225768D01*
X66961179Y-39146041D01*
X66961172Y-39146038D01*
X66858849Y-39120591D01*
X66798542Y-39085309D01*
X66766884Y-39023023D01*
X66773926Y-38953509D01*
X66817431Y-38898837D01*
X66858847Y-38879923D01*
X66961349Y-38854433D01*
X67122210Y-38774653D01*
X67262159Y-38662159D01*
X67374653Y-38522210D01*
X67454433Y-38361349D01*
X67497766Y-38187100D01*
X67500500Y-38146784D01*
X67500500Y-37353216D01*
X67497766Y-37312900D01*
X67454433Y-37138651D01*
X67374653Y-36977790D01*
X67262159Y-36837841D01*
X67261999Y-36837681D01*
X67261932Y-36837559D01*
X67257947Y-36832601D01*
X67258835Y-36831887D01*
X67228514Y-36776358D01*
X67233498Y-36706666D01*
X67258466Y-36667816D01*
X67257947Y-36667399D01*
X67261873Y-36662513D01*
X67261999Y-36662319D01*
X67262154Y-36662162D01*
X67262159Y-36662159D01*
X67374653Y-36522210D01*
X67454433Y-36361349D01*
X67497766Y-36187100D01*
X67500500Y-36146784D01*
X67500500Y-35353216D01*
X67497766Y-35312900D01*
X67454433Y-35138651D01*
X67374653Y-34977790D01*
X67262159Y-34837841D01*
X67139590Y-34739317D01*
X67122209Y-34725346D01*
X66961350Y-34645567D01*
X66911805Y-34633246D01*
X66859885Y-34620334D01*
X66799579Y-34585053D01*
X66767920Y-34522767D01*
X66774961Y-34453253D01*
X66818466Y-34398581D01*
X66859884Y-34379665D01*
X66961349Y-34354433D01*
X67122210Y-34274653D01*
X67262159Y-34162159D01*
X67374653Y-34022210D01*
X67454433Y-33861349D01*
X67497766Y-33687100D01*
X67500500Y-33646784D01*
X67500500Y-32853216D01*
X67497766Y-32812900D01*
X67454433Y-32638651D01*
X67374653Y-32477790D01*
X67262159Y-32337841D01*
X67122210Y-32225347D01*
X67122209Y-32225346D01*
X66961350Y-32145567D01*
X66787102Y-32102234D01*
X66787103Y-32102234D01*
X66762910Y-32100593D01*
X66746784Y-32099500D01*
X64253216Y-32099500D01*
X64237089Y-32100593D01*
X64212897Y-32102234D01*
X64038649Y-32145567D01*
X63877790Y-32225346D01*
X63737841Y-32337840D01*
X63737840Y-32337841D01*
X63645123Y-32453187D01*
X63587780Y-32493106D01*
X63548476Y-32499500D01*
X63362229Y-32499500D01*
X63295190Y-32479815D01*
X63274548Y-32463181D01*
X62728421Y-31917052D01*
X62728414Y-31917046D01*
X62654729Y-31867812D01*
X62654729Y-31867813D01*
X62605491Y-31834913D01*
X62468917Y-31778343D01*
X62468907Y-31778340D01*
X62323920Y-31749500D01*
X62323918Y-31749500D01*
X60306418Y-31749500D01*
X60239379Y-31729815D01*
X60206100Y-31698386D01*
X60170502Y-31649390D01*
X60100786Y-31553434D01*
X59997351Y-31449999D01*
X68453552Y-31449999D01*
X68453553Y-31450000D01*
X69946448Y-31450000D01*
X69946448Y-31449999D01*
X69200000Y-30703552D01*
X69199999Y-30703552D01*
X68453552Y-31449999D01*
X59997351Y-31449999D01*
X59939066Y-31391714D01*
X59754038Y-31257283D01*
X59620088Y-31189032D01*
X59550255Y-31153450D01*
X59332748Y-31082778D01*
X59163326Y-31055944D01*
X59106854Y-31047000D01*
X58783146Y-31047000D01*
X58707849Y-31058926D01*
X58557253Y-31082778D01*
X58557250Y-31082778D01*
X58339744Y-31153450D01*
X58135961Y-31257283D01*
X58089824Y-31290804D01*
X57950934Y-31391714D01*
X57950932Y-31391716D01*
X57950931Y-31391716D01*
X57789216Y-31553431D01*
X57789216Y-31553432D01*
X57789214Y-31553434D01*
X57779685Y-31566550D01*
X57654783Y-31738461D01*
X57550950Y-31942244D01*
X57480278Y-32159750D01*
X57480278Y-32159753D01*
X57444500Y-32385646D01*
X48128476Y-32385646D01*
X48370055Y-32144066D01*
X48370055Y-32144065D01*
X48323236Y-32107624D01*
X48323231Y-32107621D01*
X48104614Y-31989312D01*
X48104603Y-31989307D01*
X47869493Y-31908593D01*
X47624293Y-31867677D01*
X47375707Y-31867677D01*
X47130506Y-31908593D01*
X46895396Y-31989307D01*
X46895385Y-31989312D01*
X46676770Y-32107620D01*
X46629943Y-32144066D01*
X47370591Y-32884714D01*
X47307007Y-32901752D01*
X47192993Y-32967578D01*
X47099901Y-33060670D01*
X47034075Y-33174684D01*
X47017037Y-33238268D01*
X46276563Y-32497794D01*
X46176267Y-32651310D01*
X46176265Y-32651314D01*
X46076412Y-32878959D01*
X46015387Y-33119938D01*
X46015385Y-33119947D01*
X45994859Y-33367671D01*
X22304782Y-33367671D01*
X22244371Y-33089962D01*
X22244370Y-33089960D01*
X22244369Y-33089954D01*
X22144367Y-32821839D01*
X22140422Y-32814615D01*
X22007229Y-32570690D01*
X22007224Y-32570682D01*
X21835745Y-32341612D01*
X21835729Y-32341594D01*
X21633405Y-32139270D01*
X21633387Y-32139254D01*
X21447361Y-31999997D01*
X29192677Y-31999997D01*
X29192677Y-32000002D01*
X29211929Y-32220062D01*
X29211930Y-32220070D01*
X29269104Y-32433445D01*
X29269105Y-32433447D01*
X29269106Y-32433450D01*
X29333102Y-32570690D01*
X29362466Y-32633662D01*
X29362468Y-32633666D01*
X29489170Y-32814615D01*
X29489175Y-32814621D01*
X29645378Y-32970824D01*
X29645384Y-32970829D01*
X29826333Y-33097531D01*
X29826335Y-33097532D01*
X29826338Y-33097534D01*
X30026550Y-33190894D01*
X30239932Y-33248070D01*
X30393876Y-33261538D01*
X30459998Y-33267323D01*
X30460000Y-33267323D01*
X30460002Y-33267323D01*
X30526124Y-33261538D01*
X30680068Y-33248070D01*
X30893450Y-33190894D01*
X31093662Y-33097534D01*
X31274620Y-32970826D01*
X31430826Y-32814620D01*
X31557534Y-32633662D01*
X31650894Y-32433450D01*
X31708070Y-32220068D01*
X31727323Y-32000000D01*
X31727323Y-31999997D01*
X38192677Y-31999997D01*
X38192677Y-32000002D01*
X38211929Y-32220062D01*
X38211930Y-32220070D01*
X38269104Y-32433445D01*
X38269105Y-32433447D01*
X38269106Y-32433450D01*
X38333102Y-32570690D01*
X38362466Y-32633662D01*
X38362468Y-32633666D01*
X38489170Y-32814615D01*
X38489175Y-32814621D01*
X38645378Y-32970824D01*
X38645384Y-32970829D01*
X38826333Y-33097531D01*
X38826335Y-33097532D01*
X38826338Y-33097534D01*
X39026550Y-33190894D01*
X39239932Y-33248070D01*
X39393876Y-33261538D01*
X39459998Y-33267323D01*
X39460000Y-33267323D01*
X39460002Y-33267323D01*
X39526124Y-33261538D01*
X39680068Y-33248070D01*
X39893450Y-33190894D01*
X40093662Y-33097534D01*
X40274620Y-32970826D01*
X40430826Y-32814620D01*
X40557534Y-32633662D01*
X40650894Y-32433450D01*
X40708070Y-32220068D01*
X40727323Y-32000000D01*
X40708070Y-31779932D01*
X40650894Y-31566550D01*
X40557534Y-31366339D01*
X40430826Y-31185380D01*
X40274620Y-31029174D01*
X40274616Y-31029171D01*
X40274615Y-31029170D01*
X40093666Y-30902468D01*
X40093662Y-30902466D01*
X40093660Y-30902465D01*
X39893450Y-30809106D01*
X39893447Y-30809105D01*
X39893445Y-30809104D01*
X39680070Y-30751930D01*
X39680062Y-30751929D01*
X39460002Y-30732677D01*
X39459998Y-30732677D01*
X39239937Y-30751929D01*
X39239929Y-30751930D01*
X39026554Y-30809104D01*
X39026548Y-30809107D01*
X38826340Y-30902465D01*
X38826338Y-30902466D01*
X38645377Y-31029175D01*
X38489175Y-31185377D01*
X38362466Y-31366338D01*
X38362465Y-31366340D01*
X38323454Y-31450000D01*
X38275224Y-31553431D01*
X38269107Y-31566548D01*
X38269104Y-31566554D01*
X38211930Y-31779929D01*
X38211929Y-31779937D01*
X38192677Y-31999997D01*
X31727323Y-31999997D01*
X31708070Y-31779932D01*
X31650894Y-31566550D01*
X31557534Y-31366339D01*
X31430826Y-31185380D01*
X31274620Y-31029174D01*
X31274616Y-31029171D01*
X31274615Y-31029170D01*
X31093666Y-30902468D01*
X31093662Y-30902466D01*
X31093660Y-30902465D01*
X30893450Y-30809106D01*
X30893447Y-30809105D01*
X30893445Y-30809104D01*
X30680070Y-30751930D01*
X30680062Y-30751929D01*
X30460002Y-30732677D01*
X30459998Y-30732677D01*
X30239937Y-30751929D01*
X30239929Y-30751930D01*
X30026554Y-30809104D01*
X30026548Y-30809107D01*
X29826340Y-30902465D01*
X29826338Y-30902466D01*
X29645377Y-31029175D01*
X29489175Y-31185377D01*
X29362466Y-31366338D01*
X29362465Y-31366340D01*
X29323454Y-31450000D01*
X29275224Y-31553431D01*
X29269107Y-31566548D01*
X29269104Y-31566554D01*
X29211930Y-31779929D01*
X29211929Y-31779937D01*
X29192677Y-31999997D01*
X21447361Y-31999997D01*
X21404317Y-31967775D01*
X21404309Y-31967770D01*
X21153166Y-31830635D01*
X21153167Y-31830635D01*
X21012958Y-31778340D01*
X20885046Y-31730631D01*
X20885043Y-31730630D01*
X20885037Y-31730628D01*
X20605433Y-31669804D01*
X20320001Y-31649390D01*
X20319999Y-31649390D01*
X20034566Y-31669804D01*
X19754962Y-31730628D01*
X19486833Y-31830635D01*
X19235690Y-31967770D01*
X19235682Y-31967775D01*
X19006612Y-32139254D01*
X19006594Y-32139270D01*
X18804270Y-32341594D01*
X18804254Y-32341612D01*
X18632775Y-32570682D01*
X18632770Y-32570690D01*
X18495635Y-32821833D01*
X18395628Y-33089962D01*
X18334804Y-33369566D01*
X18314390Y-33654998D01*
X16226706Y-33654998D01*
X16200617Y-30263428D01*
X67250000Y-30263428D01*
X67250000Y-30436571D01*
X67277085Y-30607584D01*
X67330591Y-30772257D01*
X67409195Y-30926524D01*
X67510967Y-31066602D01*
X67633397Y-31189032D01*
X67773475Y-31290804D01*
X67861031Y-31335415D01*
X68546447Y-30650000D01*
X69853552Y-30650000D01*
X70538967Y-31335415D01*
X70626523Y-31290804D01*
X70766602Y-31189032D01*
X70889032Y-31066602D01*
X70990804Y-30926524D01*
X71069408Y-30772257D01*
X71122914Y-30607584D01*
X71150000Y-30436571D01*
X71150000Y-30263428D01*
X71122914Y-30092415D01*
X71069408Y-29927742D01*
X70990804Y-29773475D01*
X70889032Y-29633397D01*
X70766602Y-29510967D01*
X70626524Y-29409195D01*
X70538968Y-29364583D01*
X70538966Y-29364583D01*
X69853550Y-30050000D01*
X68546449Y-30050000D01*
X67861032Y-29364583D01*
X67861030Y-29364583D01*
X67773478Y-29409194D01*
X67633397Y-29510967D01*
X67510967Y-29633397D01*
X67409195Y-29773475D01*
X67330591Y-29927742D01*
X67277085Y-30092415D01*
X67250000Y-30263428D01*
X16200617Y-30263428D01*
X16192821Y-29250000D01*
X68453551Y-29250000D01*
X69199999Y-29996448D01*
X69563050Y-29633398D01*
X69946447Y-29250000D01*
X68453551Y-29250000D01*
X16192821Y-29250000D01*
X16159745Y-24950000D01*
X22794778Y-24950000D01*
X22813644Y-25237837D01*
X22813646Y-25237849D01*
X22869917Y-25520745D01*
X22869921Y-25520760D01*
X22962642Y-25793905D01*
X23090219Y-26052606D01*
X23090223Y-26052613D01*
X23250478Y-26292452D01*
X23440672Y-26509327D01*
X23612229Y-26659778D01*
X23657546Y-26699520D01*
X23897389Y-26859778D01*
X24156098Y-26987359D01*
X24429247Y-27080081D01*
X24712161Y-27136356D01*
X25000000Y-27155222D01*
X25287839Y-27136356D01*
X25570753Y-27080081D01*
X25843902Y-26987359D01*
X26102611Y-26859778D01*
X26342454Y-26699520D01*
X26559327Y-26509327D01*
X26749520Y-26292454D01*
X26776460Y-26252135D01*
X30559500Y-26252135D01*
X30559500Y-28747870D01*
X30559501Y-28747876D01*
X30565908Y-28807483D01*
X30616202Y-28942328D01*
X30616206Y-28942335D01*
X30702452Y-29057544D01*
X30702455Y-29057547D01*
X30817664Y-29143793D01*
X30817671Y-29143797D01*
X30952517Y-29194091D01*
X30952516Y-29194091D01*
X30959444Y-29194835D01*
X31012127Y-29200500D01*
X33507872Y-29200499D01*
X33567483Y-29194091D01*
X33702331Y-29143796D01*
X33817546Y-29057546D01*
X33903796Y-28942331D01*
X33954091Y-28807483D01*
X33960500Y-28747873D01*
X33960499Y-27499995D01*
X35634732Y-27499995D01*
X35634732Y-27500004D01*
X35653777Y-27754154D01*
X35653778Y-27754157D01*
X35710492Y-28002637D01*
X35803607Y-28239888D01*
X35931041Y-28460612D01*
X36089950Y-28659877D01*
X36276783Y-28833232D01*
X36487366Y-28976805D01*
X36487371Y-28976807D01*
X36487372Y-28976808D01*
X36487373Y-28976809D01*
X36609328Y-29035538D01*
X36716992Y-29087387D01*
X36716993Y-29087387D01*
X36716996Y-29087389D01*
X36960542Y-29162513D01*
X37212565Y-29200500D01*
X37467435Y-29200500D01*
X37719458Y-29162513D01*
X37963004Y-29087389D01*
X38144458Y-29000005D01*
X38192626Y-28976809D01*
X38192626Y-28976808D01*
X38192634Y-28976805D01*
X38403217Y-28833232D01*
X38590050Y-28659877D01*
X38748959Y-28460612D01*
X38876393Y-28239888D01*
X38969508Y-28002637D01*
X39026222Y-27754157D01*
X39045268Y-27500000D01*
X39044518Y-27489998D01*
X39026222Y-27245845D01*
X39020016Y-27218656D01*
X38969508Y-26997363D01*
X38876393Y-26760112D01*
X38748959Y-26539388D01*
X38590050Y-26340123D01*
X38403217Y-26166768D01*
X38192634Y-26023195D01*
X38192630Y-26023193D01*
X38192627Y-26023191D01*
X38192626Y-26023190D01*
X37963006Y-25912612D01*
X37963008Y-25912612D01*
X37719466Y-25837489D01*
X37719462Y-25837488D01*
X37719458Y-25837487D01*
X37598231Y-25819214D01*
X37467440Y-25799500D01*
X37467435Y-25799500D01*
X37212565Y-25799500D01*
X37212559Y-25799500D01*
X37055609Y-25823157D01*
X36960542Y-25837487D01*
X36960539Y-25837488D01*
X36960533Y-25837489D01*
X36716992Y-25912612D01*
X36487373Y-26023190D01*
X36487372Y-26023191D01*
X36276782Y-26166768D01*
X36089952Y-26340121D01*
X36089950Y-26340123D01*
X35931041Y-26539388D01*
X35803608Y-26760109D01*
X35710492Y-26997362D01*
X35710490Y-26997369D01*
X35653777Y-27245845D01*
X35634732Y-27499995D01*
X33960499Y-27499995D01*
X33960499Y-26252128D01*
X33954091Y-26192517D01*
X33944487Y-26166768D01*
X33903797Y-26057671D01*
X33903793Y-26057664D01*
X33817547Y-25942455D01*
X33817544Y-25942452D01*
X33702335Y-25856206D01*
X33702328Y-25856202D01*
X33567482Y-25805908D01*
X33567483Y-25805908D01*
X33507883Y-25799501D01*
X33507881Y-25799500D01*
X33507873Y-25799500D01*
X33507864Y-25799500D01*
X31012129Y-25799500D01*
X31012123Y-25799501D01*
X30952516Y-25805908D01*
X30817671Y-25856202D01*
X30817664Y-25856206D01*
X30702455Y-25942452D01*
X30702452Y-25942455D01*
X30616206Y-26057664D01*
X30616202Y-26057671D01*
X30565908Y-26192517D01*
X30559501Y-26252116D01*
X30559501Y-26252123D01*
X30559500Y-26252135D01*
X26776460Y-26252135D01*
X26909778Y-26052611D01*
X27037359Y-25793902D01*
X27130081Y-25520753D01*
X27186356Y-25237839D01*
X27205222Y-24950000D01*
X27192113Y-24750000D01*
X43544778Y-24750000D01*
X43556619Y-24930666D01*
X43563644Y-25037837D01*
X43563646Y-25037849D01*
X43619917Y-25320745D01*
X43619921Y-25320760D01*
X43712642Y-25593905D01*
X43840219Y-25852606D01*
X43840223Y-25852613D01*
X44000478Y-26092452D01*
X44190672Y-26309327D01*
X44407547Y-26499521D01*
X44647386Y-26659776D01*
X44647389Y-26659778D01*
X44906098Y-26787359D01*
X45179247Y-26880081D01*
X45462161Y-26936356D01*
X45750000Y-26955222D01*
X46037839Y-26936356D01*
X46320753Y-26880081D01*
X46593902Y-26787359D01*
X46852611Y-26659778D01*
X47092454Y-26499520D01*
X47309327Y-26309327D01*
X47499520Y-26092454D01*
X47659778Y-25852611D01*
X47787359Y-25593902D01*
X47880081Y-25320753D01*
X47904104Y-25199983D01*
X56149500Y-25199983D01*
X56149500Y-26800001D01*
X56149501Y-26800018D01*
X56160000Y-26902796D01*
X56160001Y-26902799D01*
X56177373Y-26955222D01*
X56215186Y-27069334D01*
X56307288Y-27218656D01*
X56431344Y-27342712D01*
X56580666Y-27434814D01*
X56747203Y-27489999D01*
X56849991Y-27500500D01*
X58150008Y-27500499D01*
X58252797Y-27489999D01*
X58419334Y-27434814D01*
X58568656Y-27342712D01*
X58692712Y-27218656D01*
X58784814Y-27069334D01*
X58784814Y-27069331D01*
X58788448Y-27063441D01*
X58840395Y-27016716D01*
X58909358Y-27005493D01*
X58973440Y-27033336D01*
X58981668Y-27040856D01*
X59120535Y-27179723D01*
X59120540Y-27179727D01*
X59292442Y-27304620D01*
X59481782Y-27401095D01*
X59683871Y-27466757D01*
X59750000Y-27477231D01*
X59750000Y-26433012D01*
X59807007Y-26465925D01*
X59934174Y-26500000D01*
X60065826Y-26500000D01*
X60192993Y-26465925D01*
X60250000Y-26433012D01*
X60250000Y-27477230D01*
X60316126Y-27466757D01*
X60316129Y-27466757D01*
X60518217Y-27401095D01*
X60707557Y-27304620D01*
X60879459Y-27179727D01*
X60879464Y-27179723D01*
X61029723Y-27029464D01*
X61029727Y-27029459D01*
X61154620Y-26857557D01*
X61251095Y-26668217D01*
X61316757Y-26466130D01*
X61316757Y-26466127D01*
X61350000Y-26256246D01*
X61350000Y-26250000D01*
X60433012Y-26250000D01*
X60465925Y-26192993D01*
X60500000Y-26065826D01*
X60500000Y-25934174D01*
X60465925Y-25807007D01*
X60433012Y-25750000D01*
X61350000Y-25750000D01*
X61350000Y-25743753D01*
X61316757Y-25533872D01*
X61316757Y-25533869D01*
X61251095Y-25331782D01*
X61154620Y-25142442D01*
X61029727Y-24970540D01*
X61029723Y-24970535D01*
X60879464Y-24820276D01*
X60879459Y-24820272D01*
X60707557Y-24695379D01*
X60518215Y-24598903D01*
X60316124Y-24533241D01*
X60250000Y-24522768D01*
X60250000Y-25566988D01*
X60192993Y-25534075D01*
X60065826Y-25500000D01*
X59934174Y-25500000D01*
X59807007Y-25534075D01*
X59750000Y-25566988D01*
X59750000Y-24522768D01*
X59749999Y-24522768D01*
X59683875Y-24533241D01*
X59481784Y-24598903D01*
X59292442Y-24695379D01*
X59120541Y-24820271D01*
X58981668Y-24959144D01*
X58920345Y-24992628D01*
X58850653Y-24987644D01*
X58794720Y-24945772D01*
X58788448Y-24936558D01*
X58692712Y-24781344D01*
X58568657Y-24657289D01*
X58568656Y-24657288D01*
X58419334Y-24565186D01*
X58252797Y-24510001D01*
X58252795Y-24510000D01*
X58150010Y-24499500D01*
X56849998Y-24499500D01*
X56849981Y-24499501D01*
X56747203Y-24510000D01*
X56747200Y-24510001D01*
X56580668Y-24565185D01*
X56580663Y-24565187D01*
X56431342Y-24657289D01*
X56307289Y-24781342D01*
X56215187Y-24930663D01*
X56215185Y-24930668D01*
X56210180Y-24945772D01*
X56160001Y-25097203D01*
X56160001Y-25097204D01*
X56160000Y-25097204D01*
X56149500Y-25199983D01*
X47904104Y-25199983D01*
X47936356Y-25037839D01*
X47955222Y-24750000D01*
X47936356Y-24462161D01*
X47880081Y-24179247D01*
X47787359Y-23906098D01*
X47659778Y-23647389D01*
X47499520Y-23407546D01*
X47465197Y-23368408D01*
X47309327Y-23190672D01*
X47092452Y-23000478D01*
X46852613Y-22840223D01*
X46852606Y-22840219D01*
X46593905Y-22712642D01*
X46320760Y-22619921D01*
X46320754Y-22619919D01*
X46320753Y-22619919D01*
X46320751Y-22619918D01*
X46320745Y-22619917D01*
X46037849Y-22563646D01*
X46037839Y-22563644D01*
X45750000Y-22544778D01*
X45462161Y-22563644D01*
X45462155Y-22563645D01*
X45462150Y-22563646D01*
X45179254Y-22619917D01*
X45179239Y-22619921D01*
X44906094Y-22712642D01*
X44647393Y-22840219D01*
X44647386Y-22840223D01*
X44407547Y-23000478D01*
X44190672Y-23190672D01*
X44000478Y-23407547D01*
X43840223Y-23647386D01*
X43840219Y-23647393D01*
X43712642Y-23906094D01*
X43619921Y-24179239D01*
X43619917Y-24179254D01*
X43563646Y-24462150D01*
X43563644Y-24462161D01*
X43544778Y-24750000D01*
X27192113Y-24750000D01*
X27186356Y-24662161D01*
X27130081Y-24379247D01*
X27037359Y-24106098D01*
X26909778Y-23847389D01*
X26776145Y-23647393D01*
X26749521Y-23607547D01*
X26559327Y-23390672D01*
X26342452Y-23200478D01*
X26102613Y-23040223D01*
X26102606Y-23040219D01*
X25843905Y-22912642D01*
X25570760Y-22819921D01*
X25570754Y-22819919D01*
X25570753Y-22819919D01*
X25570751Y-22819918D01*
X25570745Y-22819917D01*
X25287849Y-22763646D01*
X25287839Y-22763644D01*
X25079672Y-22750000D01*
X30573968Y-22750000D01*
X31711518Y-22750000D01*
X31700889Y-22768409D01*
X31660000Y-22921009D01*
X31660000Y-23078991D01*
X31700889Y-23231591D01*
X31711518Y-23250000D01*
X30573968Y-23250000D01*
X30574274Y-23254079D01*
X30574275Y-23254086D01*
X30630967Y-23502475D01*
X30630973Y-23502494D01*
X30724058Y-23739671D01*
X30724057Y-23739671D01*
X30851455Y-23960328D01*
X31010320Y-24159540D01*
X31197097Y-24332842D01*
X31407616Y-24476371D01*
X31407624Y-24476376D01*
X31637176Y-24586921D01*
X31637174Y-24586921D01*
X31880652Y-24662024D01*
X31880660Y-24662026D01*
X32010000Y-24681520D01*
X32010000Y-23548482D01*
X32028409Y-23559111D01*
X32181009Y-23600000D01*
X32338991Y-23600000D01*
X32491591Y-23559111D01*
X32510000Y-23548482D01*
X32510000Y-24681519D01*
X32639339Y-24662026D01*
X32639347Y-24662024D01*
X32882824Y-24586921D01*
X33112376Y-24476376D01*
X33112377Y-24476375D01*
X33322905Y-24332840D01*
X33509679Y-24159540D01*
X33668544Y-23960328D01*
X33795941Y-23739671D01*
X33889026Y-23502494D01*
X33889032Y-23502475D01*
X33945724Y-23254086D01*
X33945725Y-23254079D01*
X33946032Y-23250000D01*
X32808482Y-23250000D01*
X32819111Y-23231591D01*
X32860000Y-23078991D01*
X32860000Y-22921009D01*
X32819111Y-22768409D01*
X32808482Y-22750000D01*
X33946031Y-22750000D01*
X33945725Y-22745920D01*
X33945724Y-22745913D01*
X33889032Y-22497524D01*
X33889026Y-22497505D01*
X33795941Y-22260328D01*
X33795942Y-22260328D01*
X33668544Y-22039671D01*
X33509679Y-21840459D01*
X33414488Y-21752135D01*
X35639500Y-21752135D01*
X35639500Y-24247870D01*
X35639501Y-24247876D01*
X35645908Y-24307483D01*
X35696202Y-24442328D01*
X35696206Y-24442335D01*
X35782452Y-24557544D01*
X35782455Y-24557547D01*
X35897664Y-24643793D01*
X35897671Y-24643797D01*
X36032517Y-24694091D01*
X36032516Y-24694091D01*
X36039444Y-24694835D01*
X36092127Y-24700500D01*
X38587872Y-24700499D01*
X38647483Y-24694091D01*
X38782331Y-24643796D01*
X38897546Y-24557546D01*
X38983796Y-24442331D01*
X39034091Y-24307483D01*
X39040500Y-24247873D01*
X39040499Y-21752128D01*
X39034091Y-21692517D01*
X39024632Y-21667157D01*
X38983797Y-21557671D01*
X38983793Y-21557664D01*
X38897547Y-21442455D01*
X38897544Y-21442452D01*
X38782335Y-21356206D01*
X38782328Y-21356202D01*
X38647482Y-21305908D01*
X38647483Y-21305908D01*
X38587883Y-21299501D01*
X38587881Y-21299500D01*
X38587873Y-21299500D01*
X38587864Y-21299500D01*
X36092129Y-21299500D01*
X36092123Y-21299501D01*
X36032516Y-21305908D01*
X35897671Y-21356202D01*
X35897664Y-21356206D01*
X35782455Y-21442452D01*
X35782452Y-21442455D01*
X35696206Y-21557664D01*
X35696202Y-21557671D01*
X35645908Y-21692517D01*
X35640228Y-21745352D01*
X35639501Y-21752123D01*
X35639500Y-21752135D01*
X33414488Y-21752135D01*
X33322905Y-21667159D01*
X33112377Y-21523624D01*
X33112376Y-21523623D01*
X32882823Y-21413078D01*
X32882825Y-21413078D01*
X32639354Y-21337977D01*
X32639348Y-21337976D01*
X32510000Y-21318479D01*
X32510000Y-22451517D01*
X32491591Y-22440889D01*
X32338991Y-22400000D01*
X32181009Y-22400000D01*
X32028409Y-22440889D01*
X32010000Y-22451517D01*
X32010000Y-21318479D01*
X31880651Y-21337976D01*
X31880645Y-21337977D01*
X31637175Y-21413078D01*
X31407624Y-21523623D01*
X31407616Y-21523628D01*
X31197097Y-21667157D01*
X31010320Y-21840459D01*
X30851455Y-22039671D01*
X30724058Y-22260328D01*
X30630973Y-22497505D01*
X30630967Y-22497524D01*
X30574275Y-22745913D01*
X30574274Y-22745920D01*
X30573968Y-22750000D01*
X25079672Y-22750000D01*
X25000000Y-22744778D01*
X24712161Y-22763644D01*
X24712155Y-22763645D01*
X24712150Y-22763646D01*
X24429254Y-22819917D01*
X24429239Y-22819921D01*
X24156094Y-22912642D01*
X23897393Y-23040219D01*
X23897386Y-23040223D01*
X23657547Y-23200478D01*
X23440672Y-23390672D01*
X23250478Y-23607547D01*
X23090223Y-23847386D01*
X23090219Y-23847393D01*
X22962642Y-24106094D01*
X22869921Y-24379239D01*
X22869917Y-24379254D01*
X22813646Y-24662150D01*
X22813644Y-24662162D01*
X22794778Y-24950000D01*
X16159745Y-24950000D01*
X16130325Y-21125453D01*
X16149493Y-21058265D01*
X16201943Y-21012105D01*
X16254321Y-21000500D01*
X73842940Y-21000500D01*
X73909979Y-21020185D01*
G37*
%TD.AperFunction*%
%TD*%
M02*
