%TF.GenerationSoftware,KiCad,Pcbnew,8.0.7*%
%TF.CreationDate,2025-05-02T19:10:30-05:00*%
%TF.ProjectId,Fuente_Final,4675656e-7465-45f4-9669-6e616c2e6b69,rev?*%
%TF.SameCoordinates,Original*%
%TF.FileFunction,Drillmap*%
%TF.FilePolarity,Positive*%
%FSLAX45Y45*%
G04 Gerber Fmt 4.5, Leading zero omitted, Abs format (unit mm)*
G04 Created by KiCad (PCBNEW 8.0.7) date 2025-05-02 19:10:30*
%MOMM*%
%LPD*%
G01*
G04 APERTURE LIST*
%ADD10C,0.050000*%
%ADD11C,0.200000*%
G04 APERTURE END LIST*
D10*
X1562500Y-2050000D02*
X1587500Y-5300000D01*
X2670000Y-2495000D02*
G75*
G02*
X2330000Y-2495000I-170000J0D01*
G01*
X2330000Y-2495000D02*
G75*
G02*
X2670000Y-2495000I170000J0D01*
G01*
X7800000Y-4450000D02*
X7450000Y-5300000D01*
X2670000Y-4995000D02*
G75*
G02*
X2330000Y-4995000I-170000J0D01*
G01*
X2330000Y-4995000D02*
G75*
G02*
X2670000Y-4995000I170000J0D01*
G01*
X4745000Y-4975000D02*
G75*
G02*
X4405000Y-4975000I-170000J0D01*
G01*
X4405000Y-4975000D02*
G75*
G02*
X4745000Y-4975000I170000J0D01*
G01*
X7800000Y-2900000D02*
X7800000Y-4450000D01*
X4745000Y-2475000D02*
G75*
G02*
X4405000Y-2475000I-170000J0D01*
G01*
X4405000Y-2475000D02*
G75*
G02*
X4745000Y-2475000I170000J0D01*
G01*
X1587500Y-5300000D02*
X7450000Y-5300000D01*
X7425000Y-2050000D02*
X1562500Y-2050000D01*
X7425000Y-2050000D02*
X7800000Y-2900000D01*
X6970000Y-4975000D02*
G75*
G02*
X6630000Y-4975000I-170000J0D01*
G01*
X6630000Y-4975000D02*
G75*
G02*
X6970000Y-4975000I170000J0D01*
G01*
D11*
X1820777Y-5613984D02*
X1820777Y-5413984D01*
X1820777Y-5413984D02*
X1868396Y-5413984D01*
X1868396Y-5413984D02*
X1896967Y-5423508D01*
X1896967Y-5423508D02*
X1916015Y-5442555D01*
X1916015Y-5442555D02*
X1925539Y-5461603D01*
X1925539Y-5461603D02*
X1935062Y-5499698D01*
X1935062Y-5499698D02*
X1935062Y-5528270D01*
X1935062Y-5528270D02*
X1925539Y-5566365D01*
X1925539Y-5566365D02*
X1916015Y-5585412D01*
X1916015Y-5585412D02*
X1896967Y-5604460D01*
X1896967Y-5604460D02*
X1868396Y-5613984D01*
X1868396Y-5613984D02*
X1820777Y-5613984D01*
X2020777Y-5613984D02*
X2020777Y-5480650D01*
X2020777Y-5518746D02*
X2030301Y-5499698D01*
X2030301Y-5499698D02*
X2039824Y-5490174D01*
X2039824Y-5490174D02*
X2058872Y-5480650D01*
X2058872Y-5480650D02*
X2077920Y-5480650D01*
X2144586Y-5613984D02*
X2144586Y-5480650D01*
X2144586Y-5413984D02*
X2135063Y-5423508D01*
X2135063Y-5423508D02*
X2144586Y-5433031D01*
X2144586Y-5433031D02*
X2154110Y-5423508D01*
X2154110Y-5423508D02*
X2144586Y-5413984D01*
X2144586Y-5413984D02*
X2144586Y-5433031D01*
X2268396Y-5613984D02*
X2249348Y-5604460D01*
X2249348Y-5604460D02*
X2239824Y-5585412D01*
X2239824Y-5585412D02*
X2239824Y-5413984D01*
X2373158Y-5613984D02*
X2354110Y-5604460D01*
X2354110Y-5604460D02*
X2344586Y-5585412D01*
X2344586Y-5585412D02*
X2344586Y-5413984D01*
X2601729Y-5613984D02*
X2601729Y-5413984D01*
X2601729Y-5413984D02*
X2668396Y-5556841D01*
X2668396Y-5556841D02*
X2735063Y-5413984D01*
X2735063Y-5413984D02*
X2735063Y-5613984D01*
X2916015Y-5613984D02*
X2916015Y-5509222D01*
X2916015Y-5509222D02*
X2906491Y-5490174D01*
X2906491Y-5490174D02*
X2887443Y-5480650D01*
X2887443Y-5480650D02*
X2849348Y-5480650D01*
X2849348Y-5480650D02*
X2830301Y-5490174D01*
X2916015Y-5604460D02*
X2896967Y-5613984D01*
X2896967Y-5613984D02*
X2849348Y-5613984D01*
X2849348Y-5613984D02*
X2830301Y-5604460D01*
X2830301Y-5604460D02*
X2820777Y-5585412D01*
X2820777Y-5585412D02*
X2820777Y-5566365D01*
X2820777Y-5566365D02*
X2830301Y-5547317D01*
X2830301Y-5547317D02*
X2849348Y-5537793D01*
X2849348Y-5537793D02*
X2896967Y-5537793D01*
X2896967Y-5537793D02*
X2916015Y-5528270D01*
X3011253Y-5480650D02*
X3011253Y-5680650D01*
X3011253Y-5490174D02*
X3030301Y-5480650D01*
X3030301Y-5480650D02*
X3068396Y-5480650D01*
X3068396Y-5480650D02*
X3087443Y-5490174D01*
X3087443Y-5490174D02*
X3096967Y-5499698D01*
X3096967Y-5499698D02*
X3106491Y-5518746D01*
X3106491Y-5518746D02*
X3106491Y-5575889D01*
X3106491Y-5575889D02*
X3096967Y-5594936D01*
X3096967Y-5594936D02*
X3087443Y-5604460D01*
X3087443Y-5604460D02*
X3068396Y-5613984D01*
X3068396Y-5613984D02*
X3030301Y-5613984D01*
X3030301Y-5613984D02*
X3011253Y-5604460D01*
X3192205Y-5594936D02*
X3201729Y-5604460D01*
X3201729Y-5604460D02*
X3192205Y-5613984D01*
X3192205Y-5613984D02*
X3182682Y-5604460D01*
X3182682Y-5604460D02*
X3192205Y-5594936D01*
X3192205Y-5594936D02*
X3192205Y-5613984D01*
X3192205Y-5490174D02*
X3201729Y-5499698D01*
X3201729Y-5499698D02*
X3192205Y-5509222D01*
X3192205Y-5509222D02*
X3182682Y-5499698D01*
X3182682Y-5499698D02*
X3192205Y-5490174D01*
X3192205Y-5490174D02*
X3192205Y-5509222D01*
M02*
