%TF.GenerationSoftware,KiCad,Pcbnew,8.0.7*%
%TF.CreationDate,2025-05-02T19:09:54-05:00*%
%TF.ProjectId,Fuente_Final,4675656e-7465-45f4-9669-6e616c2e6b69,rev?*%
%TF.SameCoordinates,Original*%
%TF.FileFunction,Legend,Top*%
%TF.FilePolarity,Positive*%
%FSLAX46Y46*%
G04 Gerber Fmt 4.6, Leading zero omitted, Abs format (unit mm)*
G04 Created by KiCad (PCBNEW 8.0.7) date 2025-05-02 19:09:54*
%MOMM*%
%LPD*%
G01*
G04 APERTURE LIST*
%ADD10C,0.250000*%
%ADD11C,0.200000*%
%ADD12C,0.150000*%
%ADD13C,0.100000*%
%ADD14C,0.120000*%
G04 APERTURE END LIST*
D10*
X42312568Y-28099675D02*
X42312568Y-27099675D01*
X42312568Y-27099675D02*
X42550663Y-27099675D01*
X42550663Y-27099675D02*
X42693520Y-27147294D01*
X42693520Y-27147294D02*
X42788758Y-27242532D01*
X42788758Y-27242532D02*
X42836377Y-27337770D01*
X42836377Y-27337770D02*
X42883996Y-27528246D01*
X42883996Y-27528246D02*
X42883996Y-27671103D01*
X42883996Y-27671103D02*
X42836377Y-27861579D01*
X42836377Y-27861579D02*
X42788758Y-27956817D01*
X42788758Y-27956817D02*
X42693520Y-28052056D01*
X42693520Y-28052056D02*
X42550663Y-28099675D01*
X42550663Y-28099675D02*
X42312568Y-28099675D01*
X43455425Y-28099675D02*
X43360187Y-28052056D01*
X43360187Y-28052056D02*
X43312568Y-28004436D01*
X43312568Y-28004436D02*
X43264949Y-27909198D01*
X43264949Y-27909198D02*
X43264949Y-27623484D01*
X43264949Y-27623484D02*
X43312568Y-27528246D01*
X43312568Y-27528246D02*
X43360187Y-27480627D01*
X43360187Y-27480627D02*
X43455425Y-27433008D01*
X43455425Y-27433008D02*
X43598282Y-27433008D01*
X43598282Y-27433008D02*
X43693520Y-27480627D01*
X43693520Y-27480627D02*
X43741139Y-27528246D01*
X43741139Y-27528246D02*
X43788758Y-27623484D01*
X43788758Y-27623484D02*
X43788758Y-27909198D01*
X43788758Y-27909198D02*
X43741139Y-28004436D01*
X43741139Y-28004436D02*
X43693520Y-28052056D01*
X43693520Y-28052056D02*
X43598282Y-28099675D01*
X43598282Y-28099675D02*
X43455425Y-28099675D01*
X44979235Y-28099675D02*
X44979235Y-27099675D01*
X44979235Y-27099675D02*
X45550663Y-28099675D01*
X45550663Y-28099675D02*
X45550663Y-27099675D01*
X46169711Y-28099675D02*
X46074473Y-28052056D01*
X46074473Y-28052056D02*
X46026854Y-28004436D01*
X46026854Y-28004436D02*
X45979235Y-27909198D01*
X45979235Y-27909198D02*
X45979235Y-27623484D01*
X45979235Y-27623484D02*
X46026854Y-27528246D01*
X46026854Y-27528246D02*
X46074473Y-27480627D01*
X46074473Y-27480627D02*
X46169711Y-27433008D01*
X46169711Y-27433008D02*
X46312568Y-27433008D01*
X46312568Y-27433008D02*
X46407806Y-27480627D01*
X46407806Y-27480627D02*
X46455425Y-27528246D01*
X46455425Y-27528246D02*
X46503044Y-27623484D01*
X46503044Y-27623484D02*
X46503044Y-27909198D01*
X46503044Y-27909198D02*
X46455425Y-28004436D01*
X46455425Y-28004436D02*
X46407806Y-28052056D01*
X46407806Y-28052056D02*
X46312568Y-28099675D01*
X46312568Y-28099675D02*
X46169711Y-28099675D01*
X46788759Y-27433008D02*
X47169711Y-27433008D01*
X46931616Y-27099675D02*
X46931616Y-27956817D01*
X46931616Y-27956817D02*
X46979235Y-28052056D01*
X46979235Y-28052056D02*
X47074473Y-28099675D01*
X47074473Y-28099675D02*
X47169711Y-28099675D01*
X48598283Y-27575865D02*
X48264950Y-27575865D01*
X48264950Y-28099675D02*
X48264950Y-27099675D01*
X48264950Y-27099675D02*
X48741140Y-27099675D01*
X49503045Y-28052056D02*
X49407807Y-28099675D01*
X49407807Y-28099675D02*
X49217331Y-28099675D01*
X49217331Y-28099675D02*
X49122093Y-28052056D01*
X49122093Y-28052056D02*
X49074474Y-27956817D01*
X49074474Y-27956817D02*
X49074474Y-27575865D01*
X49074474Y-27575865D02*
X49122093Y-27480627D01*
X49122093Y-27480627D02*
X49217331Y-27433008D01*
X49217331Y-27433008D02*
X49407807Y-27433008D01*
X49407807Y-27433008D02*
X49503045Y-27480627D01*
X49503045Y-27480627D02*
X49550664Y-27575865D01*
X49550664Y-27575865D02*
X49550664Y-27671103D01*
X49550664Y-27671103D02*
X49074474Y-27766341D01*
X50360188Y-28052056D02*
X50264950Y-28099675D01*
X50264950Y-28099675D02*
X50074474Y-28099675D01*
X50074474Y-28099675D02*
X49979236Y-28052056D01*
X49979236Y-28052056D02*
X49931617Y-27956817D01*
X49931617Y-27956817D02*
X49931617Y-27575865D01*
X49931617Y-27575865D02*
X49979236Y-27480627D01*
X49979236Y-27480627D02*
X50074474Y-27433008D01*
X50074474Y-27433008D02*
X50264950Y-27433008D01*
X50264950Y-27433008D02*
X50360188Y-27480627D01*
X50360188Y-27480627D02*
X50407807Y-27575865D01*
X50407807Y-27575865D02*
X50407807Y-27671103D01*
X50407807Y-27671103D02*
X49931617Y-27766341D01*
X51264950Y-28099675D02*
X51264950Y-27099675D01*
X51264950Y-28052056D02*
X51169712Y-28099675D01*
X51169712Y-28099675D02*
X50979236Y-28099675D01*
X50979236Y-28099675D02*
X50883998Y-28052056D01*
X50883998Y-28052056D02*
X50836379Y-28004436D01*
X50836379Y-28004436D02*
X50788760Y-27909198D01*
X50788760Y-27909198D02*
X50788760Y-27623484D01*
X50788760Y-27623484D02*
X50836379Y-27528246D01*
X50836379Y-27528246D02*
X50883998Y-27480627D01*
X50883998Y-27480627D02*
X50979236Y-27433008D01*
X50979236Y-27433008D02*
X51169712Y-27433008D01*
X51169712Y-27433008D02*
X51264950Y-27480627D01*
X42169711Y-29042952D02*
X42550663Y-29042952D01*
X42312568Y-28709619D02*
X42312568Y-29566761D01*
X42312568Y-29566761D02*
X42360187Y-29662000D01*
X42360187Y-29662000D02*
X42455425Y-29709619D01*
X42455425Y-29709619D02*
X42550663Y-29709619D01*
X42883997Y-29709619D02*
X42883997Y-28709619D01*
X43312568Y-29709619D02*
X43312568Y-29185809D01*
X43312568Y-29185809D02*
X43264949Y-29090571D01*
X43264949Y-29090571D02*
X43169711Y-29042952D01*
X43169711Y-29042952D02*
X43026854Y-29042952D01*
X43026854Y-29042952D02*
X42931616Y-29090571D01*
X42931616Y-29090571D02*
X42883997Y-29138190D01*
X44169711Y-29662000D02*
X44074473Y-29709619D01*
X44074473Y-29709619D02*
X43883997Y-29709619D01*
X43883997Y-29709619D02*
X43788759Y-29662000D01*
X43788759Y-29662000D02*
X43741140Y-29566761D01*
X43741140Y-29566761D02*
X43741140Y-29185809D01*
X43741140Y-29185809D02*
X43788759Y-29090571D01*
X43788759Y-29090571D02*
X43883997Y-29042952D01*
X43883997Y-29042952D02*
X44074473Y-29042952D01*
X44074473Y-29042952D02*
X44169711Y-29090571D01*
X44169711Y-29090571D02*
X44217330Y-29185809D01*
X44217330Y-29185809D02*
X44217330Y-29281047D01*
X44217330Y-29281047D02*
X43741140Y-29376285D01*
X45979235Y-29614380D02*
X45931616Y-29662000D01*
X45931616Y-29662000D02*
X45788759Y-29709619D01*
X45788759Y-29709619D02*
X45693521Y-29709619D01*
X45693521Y-29709619D02*
X45550664Y-29662000D01*
X45550664Y-29662000D02*
X45455426Y-29566761D01*
X45455426Y-29566761D02*
X45407807Y-29471523D01*
X45407807Y-29471523D02*
X45360188Y-29281047D01*
X45360188Y-29281047D02*
X45360188Y-29138190D01*
X45360188Y-29138190D02*
X45407807Y-28947714D01*
X45407807Y-28947714D02*
X45455426Y-28852476D01*
X45455426Y-28852476D02*
X45550664Y-28757238D01*
X45550664Y-28757238D02*
X45693521Y-28709619D01*
X45693521Y-28709619D02*
X45788759Y-28709619D01*
X45788759Y-28709619D02*
X45931616Y-28757238D01*
X45931616Y-28757238D02*
X45979235Y-28804857D01*
X46836378Y-29709619D02*
X46836378Y-29185809D01*
X46836378Y-29185809D02*
X46788759Y-29090571D01*
X46788759Y-29090571D02*
X46693521Y-29042952D01*
X46693521Y-29042952D02*
X46503045Y-29042952D01*
X46503045Y-29042952D02*
X46407807Y-29090571D01*
X46836378Y-29662000D02*
X46741140Y-29709619D01*
X46741140Y-29709619D02*
X46503045Y-29709619D01*
X46503045Y-29709619D02*
X46407807Y-29662000D01*
X46407807Y-29662000D02*
X46360188Y-29566761D01*
X46360188Y-29566761D02*
X46360188Y-29471523D01*
X46360188Y-29471523D02*
X46407807Y-29376285D01*
X46407807Y-29376285D02*
X46503045Y-29328666D01*
X46503045Y-29328666D02*
X46741140Y-29328666D01*
X46741140Y-29328666D02*
X46836378Y-29281047D01*
X47312569Y-29042952D02*
X47312569Y-30042952D01*
X47312569Y-29090571D02*
X47407807Y-29042952D01*
X47407807Y-29042952D02*
X47598283Y-29042952D01*
X47598283Y-29042952D02*
X47693521Y-29090571D01*
X47693521Y-29090571D02*
X47741140Y-29138190D01*
X47741140Y-29138190D02*
X47788759Y-29233428D01*
X47788759Y-29233428D02*
X47788759Y-29519142D01*
X47788759Y-29519142D02*
X47741140Y-29614380D01*
X47741140Y-29614380D02*
X47693521Y-29662000D01*
X47693521Y-29662000D02*
X47598283Y-29709619D01*
X47598283Y-29709619D02*
X47407807Y-29709619D01*
X47407807Y-29709619D02*
X47312569Y-29662000D01*
X48645902Y-29709619D02*
X48645902Y-29185809D01*
X48645902Y-29185809D02*
X48598283Y-29090571D01*
X48598283Y-29090571D02*
X48503045Y-29042952D01*
X48503045Y-29042952D02*
X48312569Y-29042952D01*
X48312569Y-29042952D02*
X48217331Y-29090571D01*
X48645902Y-29662000D02*
X48550664Y-29709619D01*
X48550664Y-29709619D02*
X48312569Y-29709619D01*
X48312569Y-29709619D02*
X48217331Y-29662000D01*
X48217331Y-29662000D02*
X48169712Y-29566761D01*
X48169712Y-29566761D02*
X48169712Y-29471523D01*
X48169712Y-29471523D02*
X48217331Y-29376285D01*
X48217331Y-29376285D02*
X48312569Y-29328666D01*
X48312569Y-29328666D02*
X48550664Y-29328666D01*
X48550664Y-29328666D02*
X48645902Y-29281047D01*
X49550664Y-29662000D02*
X49455426Y-29709619D01*
X49455426Y-29709619D02*
X49264950Y-29709619D01*
X49264950Y-29709619D02*
X49169712Y-29662000D01*
X49169712Y-29662000D02*
X49122093Y-29614380D01*
X49122093Y-29614380D02*
X49074474Y-29519142D01*
X49074474Y-29519142D02*
X49074474Y-29233428D01*
X49074474Y-29233428D02*
X49122093Y-29138190D01*
X49122093Y-29138190D02*
X49169712Y-29090571D01*
X49169712Y-29090571D02*
X49264950Y-29042952D01*
X49264950Y-29042952D02*
X49455426Y-29042952D01*
X49455426Y-29042952D02*
X49550664Y-29090571D01*
X49979236Y-29709619D02*
X49979236Y-29042952D01*
X49979236Y-28709619D02*
X49931617Y-28757238D01*
X49931617Y-28757238D02*
X49979236Y-28804857D01*
X49979236Y-28804857D02*
X50026855Y-28757238D01*
X50026855Y-28757238D02*
X49979236Y-28709619D01*
X49979236Y-28709619D02*
X49979236Y-28804857D01*
X50312569Y-29042952D02*
X50693521Y-29042952D01*
X50455426Y-28709619D02*
X50455426Y-29566761D01*
X50455426Y-29566761D02*
X50503045Y-29662000D01*
X50503045Y-29662000D02*
X50598283Y-29709619D01*
X50598283Y-29709619D02*
X50693521Y-29709619D01*
X51169712Y-29709619D02*
X51074474Y-29662000D01*
X51074474Y-29662000D02*
X51026855Y-29614380D01*
X51026855Y-29614380D02*
X50979236Y-29519142D01*
X50979236Y-29519142D02*
X50979236Y-29233428D01*
X50979236Y-29233428D02*
X51026855Y-29138190D01*
X51026855Y-29138190D02*
X51074474Y-29090571D01*
X51074474Y-29090571D02*
X51169712Y-29042952D01*
X51169712Y-29042952D02*
X51312569Y-29042952D01*
X51312569Y-29042952D02*
X51407807Y-29090571D01*
X51407807Y-29090571D02*
X51455426Y-29138190D01*
X51455426Y-29138190D02*
X51503045Y-29233428D01*
X51503045Y-29233428D02*
X51503045Y-29519142D01*
X51503045Y-29519142D02*
X51455426Y-29614380D01*
X51455426Y-29614380D02*
X51407807Y-29662000D01*
X51407807Y-29662000D02*
X51312569Y-29709619D01*
X51312569Y-29709619D02*
X51169712Y-29709619D01*
X51931617Y-29709619D02*
X51931617Y-29042952D01*
X51931617Y-29233428D02*
X51979236Y-29138190D01*
X51979236Y-29138190D02*
X52026855Y-29090571D01*
X52026855Y-29090571D02*
X52122093Y-29042952D01*
X52122093Y-29042952D02*
X52217331Y-29042952D01*
X52503046Y-29662000D02*
X52598284Y-29709619D01*
X52598284Y-29709619D02*
X52788760Y-29709619D01*
X52788760Y-29709619D02*
X52883998Y-29662000D01*
X52883998Y-29662000D02*
X52931617Y-29566761D01*
X52931617Y-29566761D02*
X52931617Y-29519142D01*
X52931617Y-29519142D02*
X52883998Y-29423904D01*
X52883998Y-29423904D02*
X52788760Y-29376285D01*
X52788760Y-29376285D02*
X52645903Y-29376285D01*
X52645903Y-29376285D02*
X52550665Y-29328666D01*
X52550665Y-29328666D02*
X52503046Y-29233428D01*
X52503046Y-29233428D02*
X52503046Y-29185809D01*
X52503046Y-29185809D02*
X52550665Y-29090571D01*
X52550665Y-29090571D02*
X52645903Y-29042952D01*
X52645903Y-29042952D02*
X52788760Y-29042952D01*
X52788760Y-29042952D02*
X52883998Y-29090571D01*
D11*
X50518720Y-50455314D02*
X50018720Y-50455314D01*
X50018720Y-51241028D02*
X50018720Y-49741028D01*
X50018720Y-49741028D02*
X50733006Y-49741028D01*
X52090149Y-49812457D02*
X51947292Y-49741028D01*
X51947292Y-49741028D02*
X51733006Y-49741028D01*
X51733006Y-49741028D02*
X51518720Y-49812457D01*
X51518720Y-49812457D02*
X51375863Y-49955314D01*
X51375863Y-49955314D02*
X51304434Y-50098171D01*
X51304434Y-50098171D02*
X51233006Y-50383885D01*
X51233006Y-50383885D02*
X51233006Y-50598171D01*
X51233006Y-50598171D02*
X51304434Y-50883885D01*
X51304434Y-50883885D02*
X51375863Y-51026742D01*
X51375863Y-51026742D02*
X51518720Y-51169600D01*
X51518720Y-51169600D02*
X51733006Y-51241028D01*
X51733006Y-51241028D02*
X51875863Y-51241028D01*
X51875863Y-51241028D02*
X52090149Y-51169600D01*
X52090149Y-51169600D02*
X52161577Y-51098171D01*
X52161577Y-51098171D02*
X52161577Y-50598171D01*
X52161577Y-50598171D02*
X51875863Y-50598171D01*
X52733006Y-50812457D02*
X53447292Y-50812457D01*
X52590149Y-51241028D02*
X53090149Y-49741028D01*
X53090149Y-49741028D02*
X53590149Y-51241028D01*
X55590148Y-51741028D02*
X55590148Y-49598171D01*
X57733005Y-49883885D02*
X57804433Y-49812457D01*
X57804433Y-49812457D02*
X57947291Y-49741028D01*
X57947291Y-49741028D02*
X58304433Y-49741028D01*
X58304433Y-49741028D02*
X58447291Y-49812457D01*
X58447291Y-49812457D02*
X58518719Y-49883885D01*
X58518719Y-49883885D02*
X58590148Y-50026742D01*
X58590148Y-50026742D02*
X58590148Y-50169600D01*
X58590148Y-50169600D02*
X58518719Y-50383885D01*
X58518719Y-50383885D02*
X57661576Y-51241028D01*
X57661576Y-51241028D02*
X58590148Y-51241028D01*
X59518719Y-49741028D02*
X59661576Y-49741028D01*
X59661576Y-49741028D02*
X59804433Y-49812457D01*
X59804433Y-49812457D02*
X59875862Y-49883885D01*
X59875862Y-49883885D02*
X59947290Y-50026742D01*
X59947290Y-50026742D02*
X60018719Y-50312457D01*
X60018719Y-50312457D02*
X60018719Y-50669600D01*
X60018719Y-50669600D02*
X59947290Y-50955314D01*
X59947290Y-50955314D02*
X59875862Y-51098171D01*
X59875862Y-51098171D02*
X59804433Y-51169600D01*
X59804433Y-51169600D02*
X59661576Y-51241028D01*
X59661576Y-51241028D02*
X59518719Y-51241028D01*
X59518719Y-51241028D02*
X59375862Y-51169600D01*
X59375862Y-51169600D02*
X59304433Y-51098171D01*
X59304433Y-51098171D02*
X59233004Y-50955314D01*
X59233004Y-50955314D02*
X59161576Y-50669600D01*
X59161576Y-50669600D02*
X59161576Y-50312457D01*
X59161576Y-50312457D02*
X59233004Y-50026742D01*
X59233004Y-50026742D02*
X59304433Y-49883885D01*
X59304433Y-49883885D02*
X59375862Y-49812457D01*
X59375862Y-49812457D02*
X59518719Y-49741028D01*
X60590147Y-49883885D02*
X60661575Y-49812457D01*
X60661575Y-49812457D02*
X60804433Y-49741028D01*
X60804433Y-49741028D02*
X61161575Y-49741028D01*
X61161575Y-49741028D02*
X61304433Y-49812457D01*
X61304433Y-49812457D02*
X61375861Y-49883885D01*
X61375861Y-49883885D02*
X61447290Y-50026742D01*
X61447290Y-50026742D02*
X61447290Y-50169600D01*
X61447290Y-50169600D02*
X61375861Y-50383885D01*
X61375861Y-50383885D02*
X60518718Y-51241028D01*
X60518718Y-51241028D02*
X61447290Y-51241028D01*
X62804432Y-49741028D02*
X62090146Y-49741028D01*
X62090146Y-49741028D02*
X62018718Y-50455314D01*
X62018718Y-50455314D02*
X62090146Y-50383885D01*
X62090146Y-50383885D02*
X62233004Y-50312457D01*
X62233004Y-50312457D02*
X62590146Y-50312457D01*
X62590146Y-50312457D02*
X62733004Y-50383885D01*
X62733004Y-50383885D02*
X62804432Y-50455314D01*
X62804432Y-50455314D02*
X62875861Y-50598171D01*
X62875861Y-50598171D02*
X62875861Y-50955314D01*
X62875861Y-50955314D02*
X62804432Y-51098171D01*
X62804432Y-51098171D02*
X62733004Y-51169600D01*
X62733004Y-51169600D02*
X62590146Y-51241028D01*
X62590146Y-51241028D02*
X62233004Y-51241028D01*
X62233004Y-51241028D02*
X62090146Y-51169600D01*
X62090146Y-51169600D02*
X62018718Y-51098171D01*
D12*
X34061905Y-25034819D02*
X34061905Y-24034819D01*
X34061905Y-24034819D02*
X34300000Y-24034819D01*
X34300000Y-24034819D02*
X34442857Y-24082438D01*
X34442857Y-24082438D02*
X34538095Y-24177676D01*
X34538095Y-24177676D02*
X34585714Y-24272914D01*
X34585714Y-24272914D02*
X34633333Y-24463390D01*
X34633333Y-24463390D02*
X34633333Y-24606247D01*
X34633333Y-24606247D02*
X34585714Y-24796723D01*
X34585714Y-24796723D02*
X34538095Y-24891961D01*
X34538095Y-24891961D02*
X34442857Y-24987200D01*
X34442857Y-24987200D02*
X34300000Y-25034819D01*
X34300000Y-25034819D02*
X34061905Y-25034819D01*
X34966667Y-24034819D02*
X35585714Y-24034819D01*
X35585714Y-24034819D02*
X35252381Y-24415771D01*
X35252381Y-24415771D02*
X35395238Y-24415771D01*
X35395238Y-24415771D02*
X35490476Y-24463390D01*
X35490476Y-24463390D02*
X35538095Y-24511009D01*
X35538095Y-24511009D02*
X35585714Y-24606247D01*
X35585714Y-24606247D02*
X35585714Y-24844342D01*
X35585714Y-24844342D02*
X35538095Y-24939580D01*
X35538095Y-24939580D02*
X35490476Y-24987200D01*
X35490476Y-24987200D02*
X35395238Y-25034819D01*
X35395238Y-25034819D02*
X35109524Y-25034819D01*
X35109524Y-25034819D02*
X35014286Y-24987200D01*
X35014286Y-24987200D02*
X34966667Y-24939580D01*
X35201905Y-28869104D02*
X35678095Y-28869104D01*
X35106667Y-29154819D02*
X35440000Y-28154819D01*
X35440000Y-28154819D02*
X35773333Y-29154819D01*
D13*
X33948095Y-42794919D02*
X34519523Y-42794919D01*
X34233809Y-43794919D02*
X34233809Y-42794919D01*
X35376666Y-43794919D02*
X34805238Y-43794919D01*
X35090952Y-43794919D02*
X35090952Y-42794919D01*
X35090952Y-42794919D02*
X34995714Y-42937776D01*
X34995714Y-42937776D02*
X34900476Y-43033014D01*
X34900476Y-43033014D02*
X34805238Y-43080633D01*
X30363884Y-36872419D02*
X30363884Y-35872419D01*
X30363884Y-35872419D02*
X30744836Y-35872419D01*
X30744836Y-35872419D02*
X30840074Y-35920038D01*
X30840074Y-35920038D02*
X30887693Y-35967657D01*
X30887693Y-35967657D02*
X30935312Y-36062895D01*
X30935312Y-36062895D02*
X30935312Y-36205752D01*
X30935312Y-36205752D02*
X30887693Y-36300990D01*
X30887693Y-36300990D02*
X30840074Y-36348609D01*
X30840074Y-36348609D02*
X30744836Y-36396228D01*
X30744836Y-36396228D02*
X30363884Y-36396228D01*
X38916265Y-36999800D02*
X39059122Y-37047419D01*
X39059122Y-37047419D02*
X39297217Y-37047419D01*
X39297217Y-37047419D02*
X39392455Y-36999800D01*
X39392455Y-36999800D02*
X39440074Y-36952180D01*
X39440074Y-36952180D02*
X39487693Y-36856942D01*
X39487693Y-36856942D02*
X39487693Y-36761704D01*
X39487693Y-36761704D02*
X39440074Y-36666466D01*
X39440074Y-36666466D02*
X39392455Y-36618847D01*
X39392455Y-36618847D02*
X39297217Y-36571228D01*
X39297217Y-36571228D02*
X39106741Y-36523609D01*
X39106741Y-36523609D02*
X39011503Y-36475990D01*
X39011503Y-36475990D02*
X38963884Y-36428371D01*
X38963884Y-36428371D02*
X38916265Y-36333133D01*
X38916265Y-36333133D02*
X38916265Y-36237895D01*
X38916265Y-36237895D02*
X38963884Y-36142657D01*
X38963884Y-36142657D02*
X39011503Y-36095038D01*
X39011503Y-36095038D02*
X39106741Y-36047419D01*
X39106741Y-36047419D02*
X39344836Y-36047419D01*
X39344836Y-36047419D02*
X39487693Y-36095038D01*
X32378169Y-37111466D02*
X32854360Y-36635276D01*
X32854360Y-36635276D02*
X33806741Y-36159085D01*
X33806741Y-36159085D02*
X35711503Y-37111466D01*
X35711503Y-37111466D02*
X36663884Y-36635276D01*
X36663884Y-36635276D02*
X37140074Y-36159085D01*
D12*
X60511905Y-24604819D02*
X60511905Y-23604819D01*
X60511905Y-23604819D02*
X60750000Y-23604819D01*
X60750000Y-23604819D02*
X60892857Y-23652438D01*
X60892857Y-23652438D02*
X60988095Y-23747676D01*
X60988095Y-23747676D02*
X61035714Y-23842914D01*
X61035714Y-23842914D02*
X61083333Y-24033390D01*
X61083333Y-24033390D02*
X61083333Y-24176247D01*
X61083333Y-24176247D02*
X61035714Y-24366723D01*
X61035714Y-24366723D02*
X60988095Y-24461961D01*
X60988095Y-24461961D02*
X60892857Y-24557200D01*
X60892857Y-24557200D02*
X60750000Y-24604819D01*
X60750000Y-24604819D02*
X60511905Y-24604819D01*
X61988095Y-23604819D02*
X61511905Y-23604819D01*
X61511905Y-23604819D02*
X61464286Y-24081009D01*
X61464286Y-24081009D02*
X61511905Y-24033390D01*
X61511905Y-24033390D02*
X61607143Y-23985771D01*
X61607143Y-23985771D02*
X61845238Y-23985771D01*
X61845238Y-23985771D02*
X61940476Y-24033390D01*
X61940476Y-24033390D02*
X61988095Y-24081009D01*
X61988095Y-24081009D02*
X62035714Y-24176247D01*
X62035714Y-24176247D02*
X62035714Y-24414342D01*
X62035714Y-24414342D02*
X61988095Y-24509580D01*
X61988095Y-24509580D02*
X61940476Y-24557200D01*
X61940476Y-24557200D02*
X61845238Y-24604819D01*
X61845238Y-24604819D02*
X61607143Y-24604819D01*
X61607143Y-24604819D02*
X61511905Y-24557200D01*
X61511905Y-24557200D02*
X61464286Y-24509580D01*
X33961905Y-42534819D02*
X33961905Y-41534819D01*
X33961905Y-41534819D02*
X34200000Y-41534819D01*
X34200000Y-41534819D02*
X34342857Y-41582438D01*
X34342857Y-41582438D02*
X34438095Y-41677676D01*
X34438095Y-41677676D02*
X34485714Y-41772914D01*
X34485714Y-41772914D02*
X34533333Y-41963390D01*
X34533333Y-41963390D02*
X34533333Y-42106247D01*
X34533333Y-42106247D02*
X34485714Y-42296723D01*
X34485714Y-42296723D02*
X34438095Y-42391961D01*
X34438095Y-42391961D02*
X34342857Y-42487200D01*
X34342857Y-42487200D02*
X34200000Y-42534819D01*
X34200000Y-42534819D02*
X33961905Y-42534819D01*
X34914286Y-41630057D02*
X34961905Y-41582438D01*
X34961905Y-41582438D02*
X35057143Y-41534819D01*
X35057143Y-41534819D02*
X35295238Y-41534819D01*
X35295238Y-41534819D02*
X35390476Y-41582438D01*
X35390476Y-41582438D02*
X35438095Y-41630057D01*
X35438095Y-41630057D02*
X35485714Y-41725295D01*
X35485714Y-41725295D02*
X35485714Y-41820533D01*
X35485714Y-41820533D02*
X35438095Y-41963390D01*
X35438095Y-41963390D02*
X34866667Y-42534819D01*
X34866667Y-42534819D02*
X35485714Y-42534819D01*
X33798095Y-46654819D02*
X33798095Y-45654819D01*
X34369523Y-46654819D02*
X33940952Y-46083390D01*
X34369523Y-45654819D02*
X33798095Y-46226247D01*
X62204819Y-37083333D02*
X62919104Y-37083333D01*
X62919104Y-37083333D02*
X63061961Y-37130952D01*
X63061961Y-37130952D02*
X63157200Y-37226190D01*
X63157200Y-37226190D02*
X63204819Y-37369047D01*
X63204819Y-37369047D02*
X63204819Y-37464285D01*
X62538152Y-36178571D02*
X63204819Y-36178571D01*
X62157200Y-36416666D02*
X62871485Y-36654761D01*
X62871485Y-36654761D02*
X62871485Y-36035714D01*
X41609580Y-36034343D02*
X41657200Y-36081962D01*
X41657200Y-36081962D02*
X41704819Y-36224819D01*
X41704819Y-36224819D02*
X41704819Y-36320057D01*
X41704819Y-36320057D02*
X41657200Y-36462914D01*
X41657200Y-36462914D02*
X41561961Y-36558152D01*
X41561961Y-36558152D02*
X41466723Y-36605771D01*
X41466723Y-36605771D02*
X41276247Y-36653390D01*
X41276247Y-36653390D02*
X41133390Y-36653390D01*
X41133390Y-36653390D02*
X40942914Y-36605771D01*
X40942914Y-36605771D02*
X40847676Y-36558152D01*
X40847676Y-36558152D02*
X40752438Y-36462914D01*
X40752438Y-36462914D02*
X40704819Y-36320057D01*
X40704819Y-36320057D02*
X40704819Y-36224819D01*
X40704819Y-36224819D02*
X40752438Y-36081962D01*
X40752438Y-36081962D02*
X40800057Y-36034343D01*
X41704819Y-35081962D02*
X41704819Y-35653390D01*
X41704819Y-35367676D02*
X40704819Y-35367676D01*
X40704819Y-35367676D02*
X40847676Y-35462914D01*
X40847676Y-35462914D02*
X40942914Y-35558152D01*
X40942914Y-35558152D02*
X40990533Y-35653390D01*
X54129819Y-35801904D02*
X54939342Y-35801904D01*
X54939342Y-35801904D02*
X55034580Y-35754285D01*
X55034580Y-35754285D02*
X55082200Y-35706666D01*
X55082200Y-35706666D02*
X55129819Y-35611428D01*
X55129819Y-35611428D02*
X55129819Y-35420952D01*
X55129819Y-35420952D02*
X55082200Y-35325714D01*
X55082200Y-35325714D02*
X55034580Y-35278095D01*
X55034580Y-35278095D02*
X54939342Y-35230476D01*
X54939342Y-35230476D02*
X54129819Y-35230476D01*
X55129819Y-34230476D02*
X55129819Y-34801904D01*
X55129819Y-34516190D02*
X54129819Y-34516190D01*
X54129819Y-34516190D02*
X54272676Y-34611428D01*
X54272676Y-34611428D02*
X54367914Y-34706666D01*
X54367914Y-34706666D02*
X54415533Y-34801904D01*
X33961905Y-53374819D02*
X33961905Y-52374819D01*
X33961905Y-52374819D02*
X34200000Y-52374819D01*
X34200000Y-52374819D02*
X34342857Y-52422438D01*
X34342857Y-52422438D02*
X34438095Y-52517676D01*
X34438095Y-52517676D02*
X34485714Y-52612914D01*
X34485714Y-52612914D02*
X34533333Y-52803390D01*
X34533333Y-52803390D02*
X34533333Y-52946247D01*
X34533333Y-52946247D02*
X34485714Y-53136723D01*
X34485714Y-53136723D02*
X34438095Y-53231961D01*
X34438095Y-53231961D02*
X34342857Y-53327200D01*
X34342857Y-53327200D02*
X34200000Y-53374819D01*
X34200000Y-53374819D02*
X33961905Y-53374819D01*
X35485714Y-53374819D02*
X34914286Y-53374819D01*
X35200000Y-53374819D02*
X35200000Y-52374819D01*
X35200000Y-52374819D02*
X35104762Y-52517676D01*
X35104762Y-52517676D02*
X35009524Y-52612914D01*
X35009524Y-52612914D02*
X34914286Y-52660533D01*
X33821905Y-48969104D02*
X34298095Y-48969104D01*
X33726667Y-49254819D02*
X34060000Y-48254819D01*
X34060000Y-48254819D02*
X34393333Y-49254819D01*
X14694819Y-36528333D02*
X15409104Y-36528333D01*
X15409104Y-36528333D02*
X15551961Y-36575952D01*
X15551961Y-36575952D02*
X15647200Y-36671190D01*
X15647200Y-36671190D02*
X15694819Y-36814047D01*
X15694819Y-36814047D02*
X15694819Y-36909285D01*
X14694819Y-36147380D02*
X14694819Y-35528333D01*
X14694819Y-35528333D02*
X15075771Y-35861666D01*
X15075771Y-35861666D02*
X15075771Y-35718809D01*
X15075771Y-35718809D02*
X15123390Y-35623571D01*
X15123390Y-35623571D02*
X15171009Y-35575952D01*
X15171009Y-35575952D02*
X15266247Y-35528333D01*
X15266247Y-35528333D02*
X15504342Y-35528333D01*
X15504342Y-35528333D02*
X15599580Y-35575952D01*
X15599580Y-35575952D02*
X15647200Y-35623571D01*
X15647200Y-35623571D02*
X15694819Y-35718809D01*
X15694819Y-35718809D02*
X15694819Y-36004523D01*
X15694819Y-36004523D02*
X15647200Y-36099761D01*
X15647200Y-36099761D02*
X15599580Y-36147380D01*
X56083333Y-24604819D02*
X55750000Y-24128628D01*
X55511905Y-24604819D02*
X55511905Y-23604819D01*
X55511905Y-23604819D02*
X55892857Y-23604819D01*
X55892857Y-23604819D02*
X55988095Y-23652438D01*
X55988095Y-23652438D02*
X56035714Y-23700057D01*
X56035714Y-23700057D02*
X56083333Y-23795295D01*
X56083333Y-23795295D02*
X56083333Y-23938152D01*
X56083333Y-23938152D02*
X56035714Y-24033390D01*
X56035714Y-24033390D02*
X55988095Y-24081009D01*
X55988095Y-24081009D02*
X55892857Y-24128628D01*
X55892857Y-24128628D02*
X55511905Y-24128628D01*
X57035714Y-24604819D02*
X56464286Y-24604819D01*
X56750000Y-24604819D02*
X56750000Y-23604819D01*
X56750000Y-23604819D02*
X56654762Y-23747676D01*
X56654762Y-23747676D02*
X56559524Y-23842914D01*
X56559524Y-23842914D02*
X56464286Y-23890533D01*
X53254166Y-42181009D02*
X52920833Y-42181009D01*
X52920833Y-42704819D02*
X52920833Y-41704819D01*
X52920833Y-41704819D02*
X53397023Y-41704819D01*
X54301785Y-42704819D02*
X53730357Y-42704819D01*
X54016071Y-42704819D02*
X54016071Y-41704819D01*
X54016071Y-41704819D02*
X53920833Y-41847676D01*
X53920833Y-41847676D02*
X53825595Y-41942914D01*
X53825595Y-41942914D02*
X53730357Y-41990533D01*
X58416666Y-22654819D02*
X58416666Y-23369104D01*
X58416666Y-23369104D02*
X58369047Y-23511961D01*
X58369047Y-23511961D02*
X58273809Y-23607200D01*
X58273809Y-23607200D02*
X58130952Y-23654819D01*
X58130952Y-23654819D02*
X58035714Y-23654819D01*
X59416666Y-23654819D02*
X58845238Y-23654819D01*
X59130952Y-23654819D02*
X59130952Y-22654819D01*
X59130952Y-22654819D02*
X59035714Y-22797676D01*
X59035714Y-22797676D02*
X58940476Y-22892914D01*
X58940476Y-22892914D02*
X58845238Y-22940533D01*
X34061905Y-26374819D02*
X34061905Y-25374819D01*
X34061905Y-25374819D02*
X34300000Y-25374819D01*
X34300000Y-25374819D02*
X34442857Y-25422438D01*
X34442857Y-25422438D02*
X34538095Y-25517676D01*
X34538095Y-25517676D02*
X34585714Y-25612914D01*
X34585714Y-25612914D02*
X34633333Y-25803390D01*
X34633333Y-25803390D02*
X34633333Y-25946247D01*
X34633333Y-25946247D02*
X34585714Y-26136723D01*
X34585714Y-26136723D02*
X34538095Y-26231961D01*
X34538095Y-26231961D02*
X34442857Y-26327200D01*
X34442857Y-26327200D02*
X34300000Y-26374819D01*
X34300000Y-26374819D02*
X34061905Y-26374819D01*
X35490476Y-25708152D02*
X35490476Y-26374819D01*
X35252381Y-25327200D02*
X35014286Y-26041485D01*
X35014286Y-26041485D02*
X35633333Y-26041485D01*
X35178095Y-22254819D02*
X35178095Y-21254819D01*
X35749523Y-22254819D02*
X35320952Y-21683390D01*
X35749523Y-21254819D02*
X35178095Y-21826247D01*
D14*
%TO.C,D3*%
X34180000Y-27500000D02*
X35840000Y-27500000D01*
X34180000Y-27500000D02*
G75*
G02*
X30340000Y-27500000I-1920000J0D01*
G01*
X30340000Y-27500000D02*
G75*
G02*
X34180000Y-27500000I1920000J0D01*
G01*
%TO.C,T1*%
D13*
X29335000Y-31025000D02*
X40335000Y-31025000D01*
X40335000Y-42025000D01*
X29335000Y-42025000D01*
X29335000Y-31025000D01*
D14*
%TO.C,D5*%
X60250000Y-23460000D02*
X63110000Y-23460000D01*
X63110000Y-21540000D02*
X60250000Y-21540000D01*
X63110000Y-23460000D02*
X63110000Y-21540000D01*
%TO.C,D2*%
X35320000Y-45000000D02*
X33660000Y-45000000D01*
X39160000Y-45000000D02*
G75*
G02*
X35320000Y-45000000I-1920000J0D01*
G01*
X35320000Y-45000000D02*
G75*
G02*
X39160000Y-45000000I1920000J0D01*
G01*
%TO.C,J4*%
X65840000Y-30170000D02*
X67490000Y-30170000D01*
X65840000Y-32340000D02*
X65840000Y-30170000D01*
X65840000Y-41160000D02*
X64000000Y-41160000D01*
X65840000Y-41160000D02*
X65840000Y-43330000D01*
X65840000Y-43330000D02*
X67490000Y-43330000D01*
X70910000Y-30170000D02*
X78000000Y-30170000D01*
X70910000Y-43330000D02*
X78000000Y-43330000D01*
%TO.C,C1*%
X42420000Y-35787677D02*
X52580000Y-35787677D01*
X42420000Y-35827677D02*
X52580000Y-35827677D01*
X42420000Y-35867677D02*
X52580000Y-35867677D01*
X42421000Y-35747677D02*
X52579000Y-35747677D01*
X42422000Y-35707677D02*
X52578000Y-35707677D01*
X42423000Y-35667677D02*
X52577000Y-35667677D01*
X42425000Y-35627677D02*
X52575000Y-35627677D01*
X42427000Y-35587677D02*
X52573000Y-35587677D01*
X42430000Y-35547677D02*
X52570000Y-35547677D01*
X42432000Y-35507677D02*
X52568000Y-35507677D01*
X42435000Y-35467677D02*
X52565000Y-35467677D01*
X42438000Y-35427677D02*
X52562000Y-35427677D01*
X42442000Y-35387677D02*
X52558000Y-35387677D01*
X42446000Y-35347677D02*
X52554000Y-35347677D01*
X42450000Y-35307677D02*
X52550000Y-35307677D01*
X42455000Y-35267677D02*
X52545000Y-35267677D01*
X42460000Y-35227677D02*
X52540000Y-35227677D01*
X42465000Y-35187677D02*
X52535000Y-35187677D01*
X42470000Y-35146677D02*
X52530000Y-35146677D01*
X42476000Y-35106677D02*
X52524000Y-35106677D01*
X42482000Y-35066677D02*
X52518000Y-35066677D01*
X42489000Y-35026677D02*
X52511000Y-35026677D01*
X42496000Y-34986677D02*
X52504000Y-34986677D01*
X42503000Y-34946677D02*
X52497000Y-34946677D01*
X42510000Y-34906677D02*
X52490000Y-34906677D01*
X42518000Y-34866677D02*
X52482000Y-34866677D01*
X42526000Y-34826677D02*
X52474000Y-34826677D01*
X42535000Y-34786677D02*
X52465000Y-34786677D01*
X42544000Y-34746677D02*
X52456000Y-34746677D01*
X42553000Y-34706677D02*
X52447000Y-34706677D01*
X42562000Y-34666677D02*
X52438000Y-34666677D01*
X42572000Y-34626677D02*
X52428000Y-34626677D01*
X42582000Y-34586677D02*
X46259000Y-34586677D01*
X42593000Y-34546677D02*
X46259000Y-34546677D01*
X42603000Y-34506677D02*
X46259000Y-34506677D01*
X42615000Y-34466677D02*
X46259000Y-34466677D01*
X42626000Y-34426677D02*
X46259000Y-34426677D01*
X42638000Y-34386677D02*
X46259000Y-34386677D01*
X42650000Y-34346677D02*
X46259000Y-34346677D01*
X42663000Y-34306677D02*
X46259000Y-34306677D01*
X42676000Y-34266677D02*
X46259000Y-34266677D01*
X42689000Y-34226677D02*
X46259000Y-34226677D01*
X42703000Y-34186677D02*
X46259000Y-34186677D01*
X42717000Y-34146677D02*
X46259000Y-34146677D01*
X42732000Y-34106677D02*
X46259000Y-34106677D01*
X42746000Y-34066677D02*
X46259000Y-34066677D01*
X42762000Y-34026677D02*
X46259000Y-34026677D01*
X42777000Y-33986677D02*
X46259000Y-33986677D01*
X42793000Y-33946677D02*
X46259000Y-33946677D01*
X42810000Y-33906677D02*
X46259000Y-33906677D01*
X42826000Y-33866677D02*
X46259000Y-33866677D01*
X42843000Y-33826677D02*
X46259000Y-33826677D01*
X42861000Y-33786677D02*
X46259000Y-33786677D01*
X42879000Y-33746677D02*
X46259000Y-33746677D01*
X42897000Y-33706677D02*
X46259000Y-33706677D01*
X42916000Y-33666677D02*
X46259000Y-33666677D01*
X42936000Y-33626677D02*
X46259000Y-33626677D01*
X42955000Y-33586677D02*
X46259000Y-33586677D01*
X42975000Y-33546677D02*
X46259000Y-33546677D01*
X42996000Y-33506677D02*
X46259000Y-33506677D01*
X43017000Y-33466677D02*
X46259000Y-33466677D01*
X43038000Y-33426677D02*
X46259000Y-33426677D01*
X43060000Y-33386677D02*
X46259000Y-33386677D01*
X43083000Y-33346677D02*
X46259000Y-33346677D01*
X43105000Y-33306677D02*
X46259000Y-33306677D01*
X43129000Y-33266677D02*
X46259000Y-33266677D01*
X43153000Y-33226677D02*
X46259000Y-33226677D01*
X43177000Y-33186677D02*
X46259000Y-33186677D01*
X43202000Y-33146677D02*
X46259000Y-33146677D01*
X43227000Y-33106677D02*
X46259000Y-33106677D01*
X43253000Y-33066677D02*
X46259000Y-33066677D01*
X43279000Y-33026677D02*
X46259000Y-33026677D01*
X43306000Y-32986677D02*
X46259000Y-32986677D01*
X43334000Y-32946677D02*
X46259000Y-32946677D01*
X43362000Y-32906677D02*
X46259000Y-32906677D01*
X43390000Y-32866677D02*
X46259000Y-32866677D01*
X43420000Y-32826677D02*
X46259000Y-32826677D01*
X43450000Y-32786677D02*
X46259000Y-32786677D01*
X43480000Y-32746677D02*
X46259000Y-32746677D01*
X43511000Y-32706677D02*
X46259000Y-32706677D01*
X43543000Y-32666677D02*
X46259000Y-32666677D01*
X43575000Y-32626677D02*
X46259000Y-32626677D01*
X43608000Y-32586677D02*
X46259000Y-32586677D01*
X43642000Y-32546677D02*
X46259000Y-32546677D01*
X43676000Y-32506677D02*
X46259000Y-32506677D01*
X43711000Y-32466677D02*
X46259000Y-32466677D01*
X43747000Y-32426677D02*
X46259000Y-32426677D01*
X43784000Y-32386677D02*
X46259000Y-32386677D01*
X43821000Y-32346677D02*
X46259000Y-32346677D01*
X43860000Y-32306677D02*
X46259000Y-32306677D01*
X43899000Y-32266677D02*
X46259000Y-32266677D01*
X43939000Y-32226677D02*
X46259000Y-32226677D01*
X43980000Y-32186677D02*
X46259000Y-32186677D01*
X44022000Y-32146677D02*
X46259000Y-32146677D01*
X44064000Y-32106677D02*
X50936000Y-32106677D01*
X44108000Y-32066677D02*
X50892000Y-32066677D01*
X44125000Y-40847323D02*
X45125000Y-40847323D01*
X44153000Y-32026677D02*
X50847000Y-32026677D01*
X44199000Y-31986677D02*
X50801000Y-31986677D01*
X44246000Y-31946677D02*
X50754000Y-31946677D01*
X44294000Y-31906677D02*
X50706000Y-31906677D01*
X44344000Y-31866677D02*
X50656000Y-31866677D01*
X44394000Y-31826677D02*
X50606000Y-31826677D01*
X44446000Y-31786677D02*
X50554000Y-31786677D01*
X44500000Y-31746677D02*
X50500000Y-31746677D01*
X44555000Y-31706677D02*
X50445000Y-31706677D01*
X44611000Y-31666677D02*
X50389000Y-31666677D01*
X44625000Y-41347323D02*
X44625000Y-40347323D01*
X44670000Y-31626677D02*
X50330000Y-31626677D01*
X44730000Y-31586677D02*
X50270000Y-31586677D01*
X44791000Y-31546677D02*
X50209000Y-31546677D01*
X44855000Y-31506677D02*
X50145000Y-31506677D01*
X44921000Y-31466677D02*
X50079000Y-31466677D01*
X44990000Y-31426677D02*
X50010000Y-31426677D01*
X45061000Y-31386677D02*
X49939000Y-31386677D01*
X45135000Y-31346677D02*
X49865000Y-31346677D01*
X45211000Y-31306677D02*
X49789000Y-31306677D01*
X45291000Y-31266677D02*
X49709000Y-31266677D01*
X45375000Y-31226677D02*
X49625000Y-31226677D01*
X45463000Y-31186677D02*
X49537000Y-31186677D01*
X45556000Y-31146677D02*
X49444000Y-31146677D01*
X45654000Y-31106677D02*
X49346000Y-31106677D01*
X45758000Y-31066677D02*
X49242000Y-31066677D01*
X45870000Y-31026677D02*
X49130000Y-31026677D01*
X45990000Y-30986677D02*
X49010000Y-30986677D01*
X46122000Y-30946677D02*
X48878000Y-30946677D01*
X46270000Y-30906677D02*
X48730000Y-30906677D01*
X46438000Y-30866677D02*
X48562000Y-30866677D01*
X46638000Y-30826677D02*
X48362000Y-30826677D01*
X46901000Y-30786677D02*
X48099000Y-30786677D01*
X48741000Y-32146677D02*
X50978000Y-32146677D01*
X48741000Y-32186677D02*
X51020000Y-32186677D01*
X48741000Y-32226677D02*
X51061000Y-32226677D01*
X48741000Y-32266677D02*
X51101000Y-32266677D01*
X48741000Y-32306677D02*
X51140000Y-32306677D01*
X48741000Y-32346677D02*
X51179000Y-32346677D01*
X48741000Y-32386677D02*
X51216000Y-32386677D01*
X48741000Y-32426677D02*
X51253000Y-32426677D01*
X48741000Y-32466677D02*
X51289000Y-32466677D01*
X48741000Y-32506677D02*
X51324000Y-32506677D01*
X48741000Y-32546677D02*
X51358000Y-32546677D01*
X48741000Y-32586677D02*
X51392000Y-32586677D01*
X48741000Y-32626677D02*
X51425000Y-32626677D01*
X48741000Y-32666677D02*
X51457000Y-32666677D01*
X48741000Y-32706677D02*
X51489000Y-32706677D01*
X48741000Y-32746677D02*
X51520000Y-32746677D01*
X48741000Y-32786677D02*
X51550000Y-32786677D01*
X48741000Y-32826677D02*
X51580000Y-32826677D01*
X48741000Y-32866677D02*
X51610000Y-32866677D01*
X48741000Y-32906677D02*
X51638000Y-32906677D01*
X48741000Y-32946677D02*
X51666000Y-32946677D01*
X48741000Y-32986677D02*
X51694000Y-32986677D01*
X48741000Y-33026677D02*
X51721000Y-33026677D01*
X48741000Y-33066677D02*
X51747000Y-33066677D01*
X48741000Y-33106677D02*
X51773000Y-33106677D01*
X48741000Y-33146677D02*
X51798000Y-33146677D01*
X48741000Y-33186677D02*
X51823000Y-33186677D01*
X48741000Y-33226677D02*
X51847000Y-33226677D01*
X48741000Y-33266677D02*
X51871000Y-33266677D01*
X48741000Y-33306677D02*
X51895000Y-33306677D01*
X48741000Y-33346677D02*
X51917000Y-33346677D01*
X48741000Y-33386677D02*
X51940000Y-33386677D01*
X48741000Y-33426677D02*
X51962000Y-33426677D01*
X48741000Y-33466677D02*
X51983000Y-33466677D01*
X48741000Y-33506677D02*
X52004000Y-33506677D01*
X48741000Y-33546677D02*
X52025000Y-33546677D01*
X48741000Y-33586677D02*
X52045000Y-33586677D01*
X48741000Y-33626677D02*
X52064000Y-33626677D01*
X48741000Y-33666677D02*
X52084000Y-33666677D01*
X48741000Y-33706677D02*
X52103000Y-33706677D01*
X48741000Y-33746677D02*
X52121000Y-33746677D01*
X48741000Y-33786677D02*
X52139000Y-33786677D01*
X48741000Y-33826677D02*
X52157000Y-33826677D01*
X48741000Y-33866677D02*
X52174000Y-33866677D01*
X48741000Y-33906677D02*
X52190000Y-33906677D01*
X48741000Y-33946677D02*
X52207000Y-33946677D01*
X48741000Y-33986677D02*
X52223000Y-33986677D01*
X48741000Y-34026677D02*
X52238000Y-34026677D01*
X48741000Y-34066677D02*
X52254000Y-34066677D01*
X48741000Y-34106677D02*
X52268000Y-34106677D01*
X48741000Y-34146677D02*
X52283000Y-34146677D01*
X48741000Y-34186677D02*
X52297000Y-34186677D01*
X48741000Y-34226677D02*
X52311000Y-34226677D01*
X48741000Y-34266677D02*
X52324000Y-34266677D01*
X48741000Y-34306677D02*
X52337000Y-34306677D01*
X48741000Y-34346677D02*
X52350000Y-34346677D01*
X48741000Y-34386677D02*
X52362000Y-34386677D01*
X48741000Y-34426677D02*
X52374000Y-34426677D01*
X48741000Y-34466677D02*
X52385000Y-34466677D01*
X48741000Y-34506677D02*
X52397000Y-34506677D01*
X48741000Y-34546677D02*
X52407000Y-34546677D01*
X48741000Y-34586677D02*
X52418000Y-34586677D01*
X52620000Y-35867677D02*
G75*
G02*
X42380000Y-35867677I-5120000J0D01*
G01*
X42380000Y-35867677D02*
G75*
G02*
X52620000Y-35867677I5120000J0D01*
G01*
%TO.C,U1*%
X55675000Y-29920000D02*
X60316000Y-29920000D01*
X55675000Y-33189000D02*
X57185000Y-33189000D01*
X55675000Y-36890000D02*
X57185000Y-36890000D01*
X55675000Y-40160000D02*
X55675000Y-29920000D01*
X55675000Y-40160000D02*
X60316000Y-40160000D01*
X57185000Y-40160000D02*
X57185000Y-29920000D01*
X60316000Y-40160000D02*
X60316000Y-29920000D01*
%TO.C,D1*%
X35320000Y-50000000D02*
X33660000Y-50000000D01*
X39160000Y-50000000D02*
G75*
G02*
X35320000Y-50000000I-1920000J0D01*
G01*
X35320000Y-50000000D02*
G75*
G02*
X39160000Y-50000000I1920000J0D01*
G01*
%TO.C,J3*%
X16510000Y-31115000D02*
X16510000Y-41275000D01*
X16510000Y-41275000D02*
X24130000Y-41275000D01*
X22860000Y-31115000D02*
X22860000Y-41275000D01*
X24130000Y-31115000D02*
X16510000Y-31115000D01*
X24130000Y-41275000D02*
X24130000Y-31115000D01*
%TO.C,R1*%
X56477064Y-21765000D02*
X56022936Y-21765000D01*
X56477064Y-23235000D02*
X56022936Y-23235000D01*
%TO.C,J1*%
X54590000Y-26110000D02*
X54590000Y-28610000D01*
X54590000Y-28610000D02*
X57090000Y-28610000D01*
X54890000Y-24290000D02*
X54890000Y-28310000D01*
X54890000Y-26000000D02*
X55390000Y-26000000D01*
X54890000Y-26810000D02*
X55890000Y-26810000D01*
X54890000Y-28310000D02*
X62610000Y-28310000D01*
X55390000Y-24790000D02*
X62110000Y-24790000D01*
X55390000Y-26000000D02*
X55390000Y-24790000D01*
X55890000Y-26810000D02*
X55890000Y-28310000D01*
X61610000Y-26810000D02*
X61610000Y-28310000D01*
X62110000Y-24790000D02*
X62110000Y-26000000D01*
X62110000Y-26000000D02*
X62610000Y-26000000D01*
X62610000Y-24290000D02*
X54890000Y-24290000D01*
X62610000Y-26810000D02*
X61610000Y-26810000D01*
X62610000Y-28310000D02*
X62610000Y-24290000D01*
%TO.C,D4*%
X34180000Y-23000000D02*
X35840000Y-23000000D01*
X34180000Y-23000000D02*
G75*
G02*
X30340000Y-23000000I-1920000J0D01*
G01*
X30340000Y-23000000D02*
G75*
G02*
X34180000Y-23000000I1920000J0D01*
G01*
%TD*%
M02*
