%TF.GenerationSoftware,KiCad,Pcbnew,8.0.7*%
%TF.CreationDate,2025-05-02T19:10:29-05:00*%
%TF.ProjectId,Fuente_Final,4675656e-7465-45f4-9669-6e616c2e6b69,rev?*%
%TF.SameCoordinates,Original*%
%TF.FileFunction,Drillmap*%
%TF.FilePolarity,Positive*%
%FSLAX45Y45*%
G04 Gerber Fmt 4.5, Leading zero omitted, Abs format (unit mm)*
G04 Created by KiCad (PCBNEW 8.0.7) date 2025-05-02 19:10:29*
%MOMM*%
%LPD*%
G01*
G04 APERTURE LIST*
%ADD10C,0.050000*%
%ADD11C,0.200000*%
%ADD12C,0.100000*%
%ADD13C,0.110000*%
%ADD14C,0.120000*%
%ADD15C,0.152000*%
G04 APERTURE END LIST*
D10*
X1562500Y-2050000D02*
X1587500Y-5300000D01*
X2670000Y-2495000D02*
G75*
G02*
X2330000Y-2495000I-170000J0D01*
G01*
X2330000Y-2495000D02*
G75*
G02*
X2670000Y-2495000I170000J0D01*
G01*
X7800000Y-4450000D02*
X7450000Y-5300000D01*
X2670000Y-4995000D02*
G75*
G02*
X2330000Y-4995000I-170000J0D01*
G01*
X2330000Y-4995000D02*
G75*
G02*
X2670000Y-4995000I170000J0D01*
G01*
X4745000Y-4975000D02*
G75*
G02*
X4405000Y-4975000I-170000J0D01*
G01*
X4405000Y-4975000D02*
G75*
G02*
X4745000Y-4975000I170000J0D01*
G01*
X7800000Y-2900000D02*
X7800000Y-4450000D01*
X4745000Y-2475000D02*
G75*
G02*
X4405000Y-2475000I-170000J0D01*
G01*
X4405000Y-2475000D02*
G75*
G02*
X4745000Y-2475000I170000J0D01*
G01*
X1587500Y-5300000D02*
X7450000Y-5300000D01*
X7425000Y-2050000D02*
X1562500Y-2050000D01*
X7425000Y-2050000D02*
X7800000Y-2900000D01*
X6970000Y-4975000D02*
G75*
G02*
X6630000Y-4975000I-170000J0D01*
G01*
X6630000Y-4975000D02*
G75*
G02*
X6970000Y-4975000I170000J0D01*
G01*
D11*
D12*
X6890000Y-3005000D02*
X6950000Y-3065000D01*
X6950000Y-3005000D02*
X6890000Y-3065000D01*
X6835000Y-3065000D02*
X7005000Y-3065000D01*
X7005000Y-3005000D02*
G75*
G02*
X7005000Y-3065000I0J-30000D01*
G01*
X7005000Y-3005000D02*
X6835000Y-3005000D01*
X6835000Y-3005000D02*
G75*
G03*
X6835000Y-3065000I0J-30000D01*
G01*
X6890000Y-3005000D02*
X6950000Y-3065000D01*
X6950000Y-3005000D02*
X6890000Y-3065000D01*
X7005000Y-3005000D02*
X6835000Y-3005000D01*
X6835000Y-3065000D02*
G75*
G02*
X6835000Y-3005000I0J30000D01*
G01*
X6835000Y-3065000D02*
X7005000Y-3065000D01*
X7005000Y-3065000D02*
G75*
G03*
X7005000Y-3005000I0J30000D01*
G01*
X6890000Y-4285000D02*
X6950000Y-4345000D01*
X6950000Y-4285000D02*
X6890000Y-4345000D01*
X6835000Y-4345000D02*
X7005000Y-4345000D01*
X7005000Y-4285000D02*
G75*
G02*
X7005000Y-4345000I0J-30000D01*
G01*
X7005000Y-4285000D02*
X6835000Y-4285000D01*
X6835000Y-4285000D02*
G75*
G03*
X6835000Y-4345000I0J-30000D01*
G01*
X6890000Y-4285000D02*
X6950000Y-4345000D01*
X6950000Y-4285000D02*
X6890000Y-4345000D01*
X7005000Y-4285000D02*
X6835000Y-4285000D01*
X6835000Y-4345000D02*
G75*
G02*
X6835000Y-4285000I0J30000D01*
G01*
X6835000Y-4345000D02*
X7005000Y-4345000D01*
X7005000Y-4345000D02*
G75*
G03*
X7005000Y-4285000I0J30000D01*
G01*
X3084100Y-3200000D02*
G75*
G02*
X3007900Y-3200000I-38100J0D01*
G01*
X3007900Y-3200000D02*
G75*
G02*
X3084100Y-3200000I38100J0D01*
G01*
X3084100Y-4100000D02*
G75*
G02*
X3007900Y-4100000I-38100J0D01*
G01*
X3007900Y-4100000D02*
G75*
G02*
X3084100Y-4100000I38100J0D01*
G01*
X3984100Y-3200000D02*
G75*
G02*
X3907900Y-3200000I-38100J0D01*
G01*
X3907900Y-3200000D02*
G75*
G02*
X3984100Y-3200000I38100J0D01*
G01*
X3984100Y-4100000D02*
G75*
G02*
X3907900Y-4100000I-38100J0D01*
G01*
X3907900Y-4100000D02*
G75*
G02*
X3984100Y-4100000I38100J0D01*
G01*
X4750000Y-3286768D02*
X4750000Y-3386768D01*
X4700000Y-3336768D02*
X4800000Y-3336768D01*
X4750000Y-3786768D02*
X4750000Y-3886768D01*
X4700000Y-3836768D02*
X4800000Y-3836768D01*
X5750000Y-2550000D02*
X5750000Y-2650000D01*
X5700000Y-2600000D02*
X5800000Y-2600000D01*
X6000000Y-2550000D02*
X6000000Y-2650000D01*
X5950000Y-2600000D02*
X6050000Y-2600000D01*
D13*
X5933391Y-3288891D02*
X5933391Y-3211109D01*
X5855609Y-3211109D01*
X5855609Y-3288891D01*
X5933391Y-3288891D01*
X5933391Y-3542891D02*
X5933391Y-3465109D01*
X5855609Y-3465109D01*
X5855609Y-3542891D01*
X5933391Y-3542891D01*
X5933391Y-3796891D02*
X5933391Y-3719109D01*
X5855609Y-3719109D01*
X5855609Y-3796891D01*
X5933391Y-3796891D01*
D14*
X3216000Y-4560000D02*
X3276000Y-4500000D01*
X3216000Y-4440000D01*
X3156000Y-4500000D01*
X3216000Y-4560000D01*
X3216000Y-5060000D02*
X3276000Y-5000000D01*
X3216000Y-4940000D01*
X3156000Y-5000000D01*
X3216000Y-5060000D01*
X3226000Y-2360000D02*
X3286000Y-2300000D01*
X3226000Y-2240000D01*
X3166000Y-2300000D01*
X3226000Y-2360000D01*
X3226000Y-2810000D02*
X3286000Y-2750000D01*
X3226000Y-2690000D01*
X3166000Y-2750000D01*
X3226000Y-2810000D01*
X3724000Y-4560000D02*
X3784000Y-4500000D01*
X3724000Y-4440000D01*
X3664000Y-4500000D01*
X3724000Y-4560000D01*
X3724000Y-5060000D02*
X3784000Y-5000000D01*
X3724000Y-4940000D01*
X3664000Y-5000000D01*
X3724000Y-5060000D01*
X3734000Y-2360000D02*
X3794000Y-2300000D01*
X3734000Y-2240000D01*
X3674000Y-2300000D01*
X3734000Y-2360000D01*
X3734000Y-2810000D02*
X3794000Y-2750000D01*
X3734000Y-2690000D01*
X3674000Y-2750000D01*
X3734000Y-2810000D01*
D15*
X1956000Y-3289500D02*
X2108000Y-3441500D01*
X2108000Y-3289500D02*
X1956000Y-3441500D01*
X2108000Y-3365500D02*
G75*
G02*
X1956000Y-3365500I-76000J0D01*
G01*
X1956000Y-3365500D02*
G75*
G02*
X2108000Y-3365500I76000J0D01*
G01*
X1956000Y-3797500D02*
X2108000Y-3949500D01*
X2108000Y-3797500D02*
X1956000Y-3949500D01*
X2108000Y-3873500D02*
G75*
G02*
X1956000Y-3873500I-76000J0D01*
G01*
X1956000Y-3873500D02*
G75*
G02*
X2108000Y-3873500I76000J0D01*
G01*
D11*
X1820777Y-5613984D02*
X1820777Y-5413984D01*
X1820777Y-5413984D02*
X1868396Y-5413984D01*
X1868396Y-5413984D02*
X1896967Y-5423508D01*
X1896967Y-5423508D02*
X1916015Y-5442555D01*
X1916015Y-5442555D02*
X1925539Y-5461603D01*
X1925539Y-5461603D02*
X1935062Y-5499698D01*
X1935062Y-5499698D02*
X1935062Y-5528270D01*
X1935062Y-5528270D02*
X1925539Y-5566365D01*
X1925539Y-5566365D02*
X1916015Y-5585412D01*
X1916015Y-5585412D02*
X1896967Y-5604460D01*
X1896967Y-5604460D02*
X1868396Y-5613984D01*
X1868396Y-5613984D02*
X1820777Y-5613984D01*
X2020777Y-5613984D02*
X2020777Y-5480650D01*
X2020777Y-5518746D02*
X2030301Y-5499698D01*
X2030301Y-5499698D02*
X2039824Y-5490174D01*
X2039824Y-5490174D02*
X2058872Y-5480650D01*
X2058872Y-5480650D02*
X2077920Y-5480650D01*
X2144586Y-5613984D02*
X2144586Y-5480650D01*
X2144586Y-5413984D02*
X2135063Y-5423508D01*
X2135063Y-5423508D02*
X2144586Y-5433031D01*
X2144586Y-5433031D02*
X2154110Y-5423508D01*
X2154110Y-5423508D02*
X2144586Y-5413984D01*
X2144586Y-5413984D02*
X2144586Y-5433031D01*
X2268396Y-5613984D02*
X2249348Y-5604460D01*
X2249348Y-5604460D02*
X2239824Y-5585412D01*
X2239824Y-5585412D02*
X2239824Y-5413984D01*
X2373158Y-5613984D02*
X2354110Y-5604460D01*
X2354110Y-5604460D02*
X2344586Y-5585412D01*
X2344586Y-5585412D02*
X2344586Y-5413984D01*
X2601729Y-5613984D02*
X2601729Y-5413984D01*
X2601729Y-5413984D02*
X2668396Y-5556841D01*
X2668396Y-5556841D02*
X2735063Y-5413984D01*
X2735063Y-5413984D02*
X2735063Y-5613984D01*
X2916015Y-5613984D02*
X2916015Y-5509222D01*
X2916015Y-5509222D02*
X2906491Y-5490174D01*
X2906491Y-5490174D02*
X2887443Y-5480650D01*
X2887443Y-5480650D02*
X2849348Y-5480650D01*
X2849348Y-5480650D02*
X2830301Y-5490174D01*
X2916015Y-5604460D02*
X2896967Y-5613984D01*
X2896967Y-5613984D02*
X2849348Y-5613984D01*
X2849348Y-5613984D02*
X2830301Y-5604460D01*
X2830301Y-5604460D02*
X2820777Y-5585412D01*
X2820777Y-5585412D02*
X2820777Y-5566365D01*
X2820777Y-5566365D02*
X2830301Y-5547317D01*
X2830301Y-5547317D02*
X2849348Y-5537793D01*
X2849348Y-5537793D02*
X2896967Y-5537793D01*
X2896967Y-5537793D02*
X2916015Y-5528270D01*
X3011253Y-5480650D02*
X3011253Y-5680650D01*
X3011253Y-5490174D02*
X3030301Y-5480650D01*
X3030301Y-5480650D02*
X3068396Y-5480650D01*
X3068396Y-5480650D02*
X3087443Y-5490174D01*
X3087443Y-5490174D02*
X3096967Y-5499698D01*
X3096967Y-5499698D02*
X3106491Y-5518746D01*
X3106491Y-5518746D02*
X3106491Y-5575889D01*
X3106491Y-5575889D02*
X3096967Y-5594936D01*
X3096967Y-5594936D02*
X3087443Y-5604460D01*
X3087443Y-5604460D02*
X3068396Y-5613984D01*
X3068396Y-5613984D02*
X3030301Y-5613984D01*
X3030301Y-5613984D02*
X3011253Y-5604460D01*
X3192205Y-5594936D02*
X3201729Y-5604460D01*
X3201729Y-5604460D02*
X3192205Y-5613984D01*
X3192205Y-5613984D02*
X3182682Y-5604460D01*
X3182682Y-5604460D02*
X3192205Y-5594936D01*
X3192205Y-5594936D02*
X3192205Y-5613984D01*
X3192205Y-5490174D02*
X3201729Y-5499698D01*
X3201729Y-5499698D02*
X3192205Y-5509222D01*
X3192205Y-5509222D02*
X3182682Y-5499698D01*
X3182682Y-5499698D02*
X3192205Y-5490174D01*
X3192205Y-5490174D02*
X3192205Y-5509222D01*
D12*
X1500000Y-5912500D02*
X1560000Y-5972500D01*
X1560000Y-5912500D02*
X1500000Y-5972500D01*
D11*
X1858872Y-5833984D02*
X1877920Y-5833984D01*
X1877920Y-5833984D02*
X1896967Y-5843508D01*
X1896967Y-5843508D02*
X1906491Y-5853031D01*
X1906491Y-5853031D02*
X1916015Y-5872079D01*
X1916015Y-5872079D02*
X1925539Y-5910174D01*
X1925539Y-5910174D02*
X1925539Y-5957793D01*
X1925539Y-5957793D02*
X1916015Y-5995888D01*
X1916015Y-5995888D02*
X1906491Y-6014936D01*
X1906491Y-6014936D02*
X1896967Y-6024460D01*
X1896967Y-6024460D02*
X1877920Y-6033984D01*
X1877920Y-6033984D02*
X1858872Y-6033984D01*
X1858872Y-6033984D02*
X1839824Y-6024460D01*
X1839824Y-6024460D02*
X1830301Y-6014936D01*
X1830301Y-6014936D02*
X1820777Y-5995888D01*
X1820777Y-5995888D02*
X1811253Y-5957793D01*
X1811253Y-5957793D02*
X1811253Y-5910174D01*
X1811253Y-5910174D02*
X1820777Y-5872079D01*
X1820777Y-5872079D02*
X1830301Y-5853031D01*
X1830301Y-5853031D02*
X1839824Y-5843508D01*
X1839824Y-5843508D02*
X1858872Y-5833984D01*
X2011253Y-6014936D02*
X2020777Y-6024460D01*
X2020777Y-6024460D02*
X2011253Y-6033984D01*
X2011253Y-6033984D02*
X2001729Y-6024460D01*
X2001729Y-6024460D02*
X2011253Y-6014936D01*
X2011253Y-6014936D02*
X2011253Y-6033984D01*
X2192205Y-5833984D02*
X2154110Y-5833984D01*
X2154110Y-5833984D02*
X2135063Y-5843508D01*
X2135063Y-5843508D02*
X2125539Y-5853031D01*
X2125539Y-5853031D02*
X2106491Y-5881603D01*
X2106491Y-5881603D02*
X2096967Y-5919698D01*
X2096967Y-5919698D02*
X2096967Y-5995888D01*
X2096967Y-5995888D02*
X2106491Y-6014936D01*
X2106491Y-6014936D02*
X2116015Y-6024460D01*
X2116015Y-6024460D02*
X2135063Y-6033984D01*
X2135063Y-6033984D02*
X2173158Y-6033984D01*
X2173158Y-6033984D02*
X2192205Y-6024460D01*
X2192205Y-6024460D02*
X2201729Y-6014936D01*
X2201729Y-6014936D02*
X2211253Y-5995888D01*
X2211253Y-5995888D02*
X2211253Y-5948269D01*
X2211253Y-5948269D02*
X2201729Y-5929222D01*
X2201729Y-5929222D02*
X2192205Y-5919698D01*
X2192205Y-5919698D02*
X2173158Y-5910174D01*
X2173158Y-5910174D02*
X2135063Y-5910174D01*
X2135063Y-5910174D02*
X2116015Y-5919698D01*
X2116015Y-5919698D02*
X2106491Y-5929222D01*
X2106491Y-5929222D02*
X2096967Y-5948269D01*
X2335063Y-5833984D02*
X2354110Y-5833984D01*
X2354110Y-5833984D02*
X2373158Y-5843508D01*
X2373158Y-5843508D02*
X2382682Y-5853031D01*
X2382682Y-5853031D02*
X2392205Y-5872079D01*
X2392205Y-5872079D02*
X2401729Y-5910174D01*
X2401729Y-5910174D02*
X2401729Y-5957793D01*
X2401729Y-5957793D02*
X2392205Y-5995888D01*
X2392205Y-5995888D02*
X2382682Y-6014936D01*
X2382682Y-6014936D02*
X2373158Y-6024460D01*
X2373158Y-6024460D02*
X2354110Y-6033984D01*
X2354110Y-6033984D02*
X2335063Y-6033984D01*
X2335063Y-6033984D02*
X2316015Y-6024460D01*
X2316015Y-6024460D02*
X2306491Y-6014936D01*
X2306491Y-6014936D02*
X2296967Y-5995888D01*
X2296967Y-5995888D02*
X2287444Y-5957793D01*
X2287444Y-5957793D02*
X2287444Y-5910174D01*
X2287444Y-5910174D02*
X2296967Y-5872079D01*
X2296967Y-5872079D02*
X2306491Y-5853031D01*
X2306491Y-5853031D02*
X2316015Y-5843508D01*
X2316015Y-5843508D02*
X2335063Y-5833984D01*
X2525539Y-5833984D02*
X2544586Y-5833984D01*
X2544586Y-5833984D02*
X2563634Y-5843508D01*
X2563634Y-5843508D02*
X2573158Y-5853031D01*
X2573158Y-5853031D02*
X2582682Y-5872079D01*
X2582682Y-5872079D02*
X2592205Y-5910174D01*
X2592205Y-5910174D02*
X2592205Y-5957793D01*
X2592205Y-5957793D02*
X2582682Y-5995888D01*
X2582682Y-5995888D02*
X2573158Y-6014936D01*
X2573158Y-6014936D02*
X2563634Y-6024460D01*
X2563634Y-6024460D02*
X2544586Y-6033984D01*
X2544586Y-6033984D02*
X2525539Y-6033984D01*
X2525539Y-6033984D02*
X2506491Y-6024460D01*
X2506491Y-6024460D02*
X2496967Y-6014936D01*
X2496967Y-6014936D02*
X2487444Y-5995888D01*
X2487444Y-5995888D02*
X2477920Y-5957793D01*
X2477920Y-5957793D02*
X2477920Y-5910174D01*
X2477920Y-5910174D02*
X2487444Y-5872079D01*
X2487444Y-5872079D02*
X2496967Y-5853031D01*
X2496967Y-5853031D02*
X2506491Y-5843508D01*
X2506491Y-5843508D02*
X2525539Y-5833984D01*
X2677920Y-6033984D02*
X2677920Y-5900650D01*
X2677920Y-5919698D02*
X2687444Y-5910174D01*
X2687444Y-5910174D02*
X2706491Y-5900650D01*
X2706491Y-5900650D02*
X2735063Y-5900650D01*
X2735063Y-5900650D02*
X2754110Y-5910174D01*
X2754110Y-5910174D02*
X2763634Y-5929222D01*
X2763634Y-5929222D02*
X2763634Y-6033984D01*
X2763634Y-5929222D02*
X2773158Y-5910174D01*
X2773158Y-5910174D02*
X2792205Y-5900650D01*
X2792205Y-5900650D02*
X2820777Y-5900650D01*
X2820777Y-5900650D02*
X2839824Y-5910174D01*
X2839824Y-5910174D02*
X2849348Y-5929222D01*
X2849348Y-5929222D02*
X2849348Y-6033984D01*
X2944586Y-6033984D02*
X2944586Y-5900650D01*
X2944586Y-5919698D02*
X2954110Y-5910174D01*
X2954110Y-5910174D02*
X2973158Y-5900650D01*
X2973158Y-5900650D02*
X3001729Y-5900650D01*
X3001729Y-5900650D02*
X3020777Y-5910174D01*
X3020777Y-5910174D02*
X3030301Y-5929222D01*
X3030301Y-5929222D02*
X3030301Y-6033984D01*
X3030301Y-5929222D02*
X3039824Y-5910174D01*
X3039824Y-5910174D02*
X3058872Y-5900650D01*
X3058872Y-5900650D02*
X3087443Y-5900650D01*
X3087443Y-5900650D02*
X3106491Y-5910174D01*
X3106491Y-5910174D02*
X3116015Y-5929222D01*
X3116015Y-5929222D02*
X3116015Y-6033984D01*
X3506491Y-5824460D02*
X3335063Y-6081603D01*
X3763634Y-5833984D02*
X3782682Y-5833984D01*
X3782682Y-5833984D02*
X3801729Y-5843508D01*
X3801729Y-5843508D02*
X3811253Y-5853031D01*
X3811253Y-5853031D02*
X3820777Y-5872079D01*
X3820777Y-5872079D02*
X3830301Y-5910174D01*
X3830301Y-5910174D02*
X3830301Y-5957793D01*
X3830301Y-5957793D02*
X3820777Y-5995888D01*
X3820777Y-5995888D02*
X3811253Y-6014936D01*
X3811253Y-6014936D02*
X3801729Y-6024460D01*
X3801729Y-6024460D02*
X3782682Y-6033984D01*
X3782682Y-6033984D02*
X3763634Y-6033984D01*
X3763634Y-6033984D02*
X3744586Y-6024460D01*
X3744586Y-6024460D02*
X3735063Y-6014936D01*
X3735063Y-6014936D02*
X3725539Y-5995888D01*
X3725539Y-5995888D02*
X3716015Y-5957793D01*
X3716015Y-5957793D02*
X3716015Y-5910174D01*
X3716015Y-5910174D02*
X3725539Y-5872079D01*
X3725539Y-5872079D02*
X3735063Y-5853031D01*
X3735063Y-5853031D02*
X3744586Y-5843508D01*
X3744586Y-5843508D02*
X3763634Y-5833984D01*
X3916015Y-6014936D02*
X3925539Y-6024460D01*
X3925539Y-6024460D02*
X3916015Y-6033984D01*
X3916015Y-6033984D02*
X3906491Y-6024460D01*
X3906491Y-6024460D02*
X3916015Y-6014936D01*
X3916015Y-6014936D02*
X3916015Y-6033984D01*
X4049348Y-5833984D02*
X4068396Y-5833984D01*
X4068396Y-5833984D02*
X4087444Y-5843508D01*
X4087444Y-5843508D02*
X4096967Y-5853031D01*
X4096967Y-5853031D02*
X4106491Y-5872079D01*
X4106491Y-5872079D02*
X4116015Y-5910174D01*
X4116015Y-5910174D02*
X4116015Y-5957793D01*
X4116015Y-5957793D02*
X4106491Y-5995888D01*
X4106491Y-5995888D02*
X4096967Y-6014936D01*
X4096967Y-6014936D02*
X4087444Y-6024460D01*
X4087444Y-6024460D02*
X4068396Y-6033984D01*
X4068396Y-6033984D02*
X4049348Y-6033984D01*
X4049348Y-6033984D02*
X4030301Y-6024460D01*
X4030301Y-6024460D02*
X4020777Y-6014936D01*
X4020777Y-6014936D02*
X4011253Y-5995888D01*
X4011253Y-5995888D02*
X4001729Y-5957793D01*
X4001729Y-5957793D02*
X4001729Y-5910174D01*
X4001729Y-5910174D02*
X4011253Y-5872079D01*
X4011253Y-5872079D02*
X4020777Y-5853031D01*
X4020777Y-5853031D02*
X4030301Y-5843508D01*
X4030301Y-5843508D02*
X4049348Y-5833984D01*
X4192206Y-5853031D02*
X4201729Y-5843508D01*
X4201729Y-5843508D02*
X4220777Y-5833984D01*
X4220777Y-5833984D02*
X4268396Y-5833984D01*
X4268396Y-5833984D02*
X4287444Y-5843508D01*
X4287444Y-5843508D02*
X4296968Y-5853031D01*
X4296968Y-5853031D02*
X4306491Y-5872079D01*
X4306491Y-5872079D02*
X4306491Y-5891127D01*
X4306491Y-5891127D02*
X4296968Y-5919698D01*
X4296968Y-5919698D02*
X4182682Y-6033984D01*
X4182682Y-6033984D02*
X4306491Y-6033984D01*
X4373158Y-5833984D02*
X4496968Y-5833984D01*
X4496968Y-5833984D02*
X4430301Y-5910174D01*
X4430301Y-5910174D02*
X4458872Y-5910174D01*
X4458872Y-5910174D02*
X4477920Y-5919698D01*
X4477920Y-5919698D02*
X4487444Y-5929222D01*
X4487444Y-5929222D02*
X4496968Y-5948269D01*
X4496968Y-5948269D02*
X4496968Y-5995888D01*
X4496968Y-5995888D02*
X4487444Y-6014936D01*
X4487444Y-6014936D02*
X4477920Y-6024460D01*
X4477920Y-6024460D02*
X4458872Y-6033984D01*
X4458872Y-6033984D02*
X4401729Y-6033984D01*
X4401729Y-6033984D02*
X4382682Y-6024460D01*
X4382682Y-6024460D02*
X4373158Y-6014936D01*
X4668396Y-5833984D02*
X4630301Y-5833984D01*
X4630301Y-5833984D02*
X4611253Y-5843508D01*
X4611253Y-5843508D02*
X4601729Y-5853031D01*
X4601729Y-5853031D02*
X4582682Y-5881603D01*
X4582682Y-5881603D02*
X4573158Y-5919698D01*
X4573158Y-5919698D02*
X4573158Y-5995888D01*
X4573158Y-5995888D02*
X4582682Y-6014936D01*
X4582682Y-6014936D02*
X4592206Y-6024460D01*
X4592206Y-6024460D02*
X4611253Y-6033984D01*
X4611253Y-6033984D02*
X4649349Y-6033984D01*
X4649349Y-6033984D02*
X4668396Y-6024460D01*
X4668396Y-6024460D02*
X4677920Y-6014936D01*
X4677920Y-6014936D02*
X4687444Y-5995888D01*
X4687444Y-5995888D02*
X4687444Y-5948269D01*
X4687444Y-5948269D02*
X4677920Y-5929222D01*
X4677920Y-5929222D02*
X4668396Y-5919698D01*
X4668396Y-5919698D02*
X4649349Y-5910174D01*
X4649349Y-5910174D02*
X4611253Y-5910174D01*
X4611253Y-5910174D02*
X4592206Y-5919698D01*
X4592206Y-5919698D02*
X4582682Y-5929222D01*
X4582682Y-5929222D02*
X4573158Y-5948269D01*
X4763634Y-5833984D02*
X4763634Y-5872079D01*
X4839825Y-5833984D02*
X4839825Y-5872079D01*
X5135063Y-6110174D02*
X5125539Y-6100650D01*
X5125539Y-6100650D02*
X5106491Y-6072079D01*
X5106491Y-6072079D02*
X5096968Y-6053031D01*
X5096968Y-6053031D02*
X5087444Y-6024460D01*
X5087444Y-6024460D02*
X5077920Y-5976841D01*
X5077920Y-5976841D02*
X5077920Y-5938746D01*
X5077920Y-5938746D02*
X5087444Y-5891127D01*
X5087444Y-5891127D02*
X5096968Y-5862555D01*
X5096968Y-5862555D02*
X5106491Y-5843508D01*
X5106491Y-5843508D02*
X5125539Y-5814936D01*
X5125539Y-5814936D02*
X5135063Y-5805412D01*
X5249349Y-5833984D02*
X5268396Y-5833984D01*
X5268396Y-5833984D02*
X5287444Y-5843508D01*
X5287444Y-5843508D02*
X5296968Y-5853031D01*
X5296968Y-5853031D02*
X5306491Y-5872079D01*
X5306491Y-5872079D02*
X5316015Y-5910174D01*
X5316015Y-5910174D02*
X5316015Y-5957793D01*
X5316015Y-5957793D02*
X5306491Y-5995888D01*
X5306491Y-5995888D02*
X5296968Y-6014936D01*
X5296968Y-6014936D02*
X5287444Y-6024460D01*
X5287444Y-6024460D02*
X5268396Y-6033984D01*
X5268396Y-6033984D02*
X5249349Y-6033984D01*
X5249349Y-6033984D02*
X5230301Y-6024460D01*
X5230301Y-6024460D02*
X5220777Y-6014936D01*
X5220777Y-6014936D02*
X5211253Y-5995888D01*
X5211253Y-5995888D02*
X5201730Y-5957793D01*
X5201730Y-5957793D02*
X5201730Y-5910174D01*
X5201730Y-5910174D02*
X5211253Y-5872079D01*
X5211253Y-5872079D02*
X5220777Y-5853031D01*
X5220777Y-5853031D02*
X5230301Y-5843508D01*
X5230301Y-5843508D02*
X5249349Y-5833984D01*
X5554111Y-6033984D02*
X5554111Y-5833984D01*
X5639825Y-6033984D02*
X5639825Y-5929222D01*
X5639825Y-5929222D02*
X5630301Y-5910174D01*
X5630301Y-5910174D02*
X5611253Y-5900650D01*
X5611253Y-5900650D02*
X5582682Y-5900650D01*
X5582682Y-5900650D02*
X5563634Y-5910174D01*
X5563634Y-5910174D02*
X5554111Y-5919698D01*
X5763634Y-6033984D02*
X5744587Y-6024460D01*
X5744587Y-6024460D02*
X5735063Y-6014936D01*
X5735063Y-6014936D02*
X5725539Y-5995888D01*
X5725539Y-5995888D02*
X5725539Y-5938746D01*
X5725539Y-5938746D02*
X5735063Y-5919698D01*
X5735063Y-5919698D02*
X5744587Y-5910174D01*
X5744587Y-5910174D02*
X5763634Y-5900650D01*
X5763634Y-5900650D02*
X5792206Y-5900650D01*
X5792206Y-5900650D02*
X5811253Y-5910174D01*
X5811253Y-5910174D02*
X5820777Y-5919698D01*
X5820777Y-5919698D02*
X5830301Y-5938746D01*
X5830301Y-5938746D02*
X5830301Y-5995888D01*
X5830301Y-5995888D02*
X5820777Y-6014936D01*
X5820777Y-6014936D02*
X5811253Y-6024460D01*
X5811253Y-6024460D02*
X5792206Y-6033984D01*
X5792206Y-6033984D02*
X5763634Y-6033984D01*
X5944587Y-6033984D02*
X5925539Y-6024460D01*
X5925539Y-6024460D02*
X5916015Y-6005412D01*
X5916015Y-6005412D02*
X5916015Y-5833984D01*
X6096968Y-6024460D02*
X6077920Y-6033984D01*
X6077920Y-6033984D02*
X6039825Y-6033984D01*
X6039825Y-6033984D02*
X6020777Y-6024460D01*
X6020777Y-6024460D02*
X6011253Y-6005412D01*
X6011253Y-6005412D02*
X6011253Y-5929222D01*
X6011253Y-5929222D02*
X6020777Y-5910174D01*
X6020777Y-5910174D02*
X6039825Y-5900650D01*
X6039825Y-5900650D02*
X6077920Y-5900650D01*
X6077920Y-5900650D02*
X6096968Y-5910174D01*
X6096968Y-5910174D02*
X6106491Y-5929222D01*
X6106491Y-5929222D02*
X6106491Y-5948269D01*
X6106491Y-5948269D02*
X6011253Y-5967317D01*
X6182682Y-6024460D02*
X6201730Y-6033984D01*
X6201730Y-6033984D02*
X6239825Y-6033984D01*
X6239825Y-6033984D02*
X6258872Y-6024460D01*
X6258872Y-6024460D02*
X6268396Y-6005412D01*
X6268396Y-6005412D02*
X6268396Y-5995888D01*
X6268396Y-5995888D02*
X6258872Y-5976841D01*
X6258872Y-5976841D02*
X6239825Y-5967317D01*
X6239825Y-5967317D02*
X6211253Y-5967317D01*
X6211253Y-5967317D02*
X6192206Y-5957793D01*
X6192206Y-5957793D02*
X6182682Y-5938746D01*
X6182682Y-5938746D02*
X6182682Y-5929222D01*
X6182682Y-5929222D02*
X6192206Y-5910174D01*
X6192206Y-5910174D02*
X6211253Y-5900650D01*
X6211253Y-5900650D02*
X6239825Y-5900650D01*
X6239825Y-5900650D02*
X6258872Y-5910174D01*
X6506492Y-5957793D02*
X6658873Y-5957793D01*
X6582682Y-6033984D02*
X6582682Y-5881603D01*
X6992206Y-5900650D02*
X6992206Y-6033984D01*
X6944587Y-5824460D02*
X6896968Y-5967317D01*
X6896968Y-5967317D02*
X7020777Y-5967317D01*
X7239825Y-6024460D02*
X7258873Y-6033984D01*
X7258873Y-6033984D02*
X7296968Y-6033984D01*
X7296968Y-6033984D02*
X7316015Y-6024460D01*
X7316015Y-6024460D02*
X7325539Y-6005412D01*
X7325539Y-6005412D02*
X7325539Y-5995888D01*
X7325539Y-5995888D02*
X7316015Y-5976841D01*
X7316015Y-5976841D02*
X7296968Y-5967317D01*
X7296968Y-5967317D02*
X7268396Y-5967317D01*
X7268396Y-5967317D02*
X7249349Y-5957793D01*
X7249349Y-5957793D02*
X7239825Y-5938746D01*
X7239825Y-5938746D02*
X7239825Y-5929222D01*
X7239825Y-5929222D02*
X7249349Y-5910174D01*
X7249349Y-5910174D02*
X7268396Y-5900650D01*
X7268396Y-5900650D02*
X7296968Y-5900650D01*
X7296968Y-5900650D02*
X7316015Y-5910174D01*
X7439825Y-6033984D02*
X7420777Y-6024460D01*
X7420777Y-6024460D02*
X7411254Y-6005412D01*
X7411254Y-6005412D02*
X7411254Y-5833984D01*
X7544587Y-6033984D02*
X7525539Y-6024460D01*
X7525539Y-6024460D02*
X7516015Y-6014936D01*
X7516015Y-6014936D02*
X7506492Y-5995888D01*
X7506492Y-5995888D02*
X7506492Y-5938746D01*
X7506492Y-5938746D02*
X7516015Y-5919698D01*
X7516015Y-5919698D02*
X7525539Y-5910174D01*
X7525539Y-5910174D02*
X7544587Y-5900650D01*
X7544587Y-5900650D02*
X7573158Y-5900650D01*
X7573158Y-5900650D02*
X7592206Y-5910174D01*
X7592206Y-5910174D02*
X7601730Y-5919698D01*
X7601730Y-5919698D02*
X7611254Y-5938746D01*
X7611254Y-5938746D02*
X7611254Y-5995888D01*
X7611254Y-5995888D02*
X7601730Y-6014936D01*
X7601730Y-6014936D02*
X7592206Y-6024460D01*
X7592206Y-6024460D02*
X7573158Y-6033984D01*
X7573158Y-6033984D02*
X7544587Y-6033984D01*
X7668396Y-5900650D02*
X7744587Y-5900650D01*
X7696968Y-5833984D02*
X7696968Y-6005412D01*
X7696968Y-6005412D02*
X7706492Y-6024460D01*
X7706492Y-6024460D02*
X7725539Y-6033984D01*
X7725539Y-6033984D02*
X7744587Y-6033984D01*
X7801730Y-6024460D02*
X7820777Y-6033984D01*
X7820777Y-6033984D02*
X7858873Y-6033984D01*
X7858873Y-6033984D02*
X7877920Y-6024460D01*
X7877920Y-6024460D02*
X7887444Y-6005412D01*
X7887444Y-6005412D02*
X7887444Y-5995888D01*
X7887444Y-5995888D02*
X7877920Y-5976841D01*
X7877920Y-5976841D02*
X7858873Y-5967317D01*
X7858873Y-5967317D02*
X7830301Y-5967317D01*
X7830301Y-5967317D02*
X7811254Y-5957793D01*
X7811254Y-5957793D02*
X7801730Y-5938746D01*
X7801730Y-5938746D02*
X7801730Y-5929222D01*
X7801730Y-5929222D02*
X7811254Y-5910174D01*
X7811254Y-5910174D02*
X7830301Y-5900650D01*
X7830301Y-5900650D02*
X7858873Y-5900650D01*
X7858873Y-5900650D02*
X7877920Y-5910174D01*
X7954111Y-6110174D02*
X7963635Y-6100650D01*
X7963635Y-6100650D02*
X7982682Y-6072079D01*
X7982682Y-6072079D02*
X7992206Y-6053031D01*
X7992206Y-6053031D02*
X8001730Y-6024460D01*
X8001730Y-6024460D02*
X8011254Y-5976841D01*
X8011254Y-5976841D02*
X8011254Y-5938746D01*
X8011254Y-5938746D02*
X8001730Y-5891127D01*
X8001730Y-5891127D02*
X7992206Y-5862555D01*
X7992206Y-5862555D02*
X7982682Y-5843508D01*
X7982682Y-5843508D02*
X7963635Y-5814936D01*
X7963635Y-5814936D02*
X7954111Y-5805412D01*
D12*
X1560000Y-6206500D02*
G75*
G02*
X1483800Y-6206500I-38100J0D01*
G01*
X1483800Y-6206500D02*
G75*
G02*
X1560000Y-6206500I38100J0D01*
G01*
D11*
X1858872Y-6097984D02*
X1877920Y-6097984D01*
X1877920Y-6097984D02*
X1896967Y-6107508D01*
X1896967Y-6107508D02*
X1906491Y-6117031D01*
X1906491Y-6117031D02*
X1916015Y-6136079D01*
X1916015Y-6136079D02*
X1925539Y-6174174D01*
X1925539Y-6174174D02*
X1925539Y-6221793D01*
X1925539Y-6221793D02*
X1916015Y-6259888D01*
X1916015Y-6259888D02*
X1906491Y-6278936D01*
X1906491Y-6278936D02*
X1896967Y-6288460D01*
X1896967Y-6288460D02*
X1877920Y-6297984D01*
X1877920Y-6297984D02*
X1858872Y-6297984D01*
X1858872Y-6297984D02*
X1839824Y-6288460D01*
X1839824Y-6288460D02*
X1830301Y-6278936D01*
X1830301Y-6278936D02*
X1820777Y-6259888D01*
X1820777Y-6259888D02*
X1811253Y-6221793D01*
X1811253Y-6221793D02*
X1811253Y-6174174D01*
X1811253Y-6174174D02*
X1820777Y-6136079D01*
X1820777Y-6136079D02*
X1830301Y-6117031D01*
X1830301Y-6117031D02*
X1839824Y-6107508D01*
X1839824Y-6107508D02*
X1858872Y-6097984D01*
X2011253Y-6278936D02*
X2020777Y-6288460D01*
X2020777Y-6288460D02*
X2011253Y-6297984D01*
X2011253Y-6297984D02*
X2001729Y-6288460D01*
X2001729Y-6288460D02*
X2011253Y-6278936D01*
X2011253Y-6278936D02*
X2011253Y-6297984D01*
X2087443Y-6097984D02*
X2220777Y-6097984D01*
X2220777Y-6097984D02*
X2135063Y-6297984D01*
X2382682Y-6097984D02*
X2344586Y-6097984D01*
X2344586Y-6097984D02*
X2325539Y-6107508D01*
X2325539Y-6107508D02*
X2316015Y-6117031D01*
X2316015Y-6117031D02*
X2296967Y-6145603D01*
X2296967Y-6145603D02*
X2287444Y-6183698D01*
X2287444Y-6183698D02*
X2287444Y-6259888D01*
X2287444Y-6259888D02*
X2296967Y-6278936D01*
X2296967Y-6278936D02*
X2306491Y-6288460D01*
X2306491Y-6288460D02*
X2325539Y-6297984D01*
X2325539Y-6297984D02*
X2363634Y-6297984D01*
X2363634Y-6297984D02*
X2382682Y-6288460D01*
X2382682Y-6288460D02*
X2392205Y-6278936D01*
X2392205Y-6278936D02*
X2401729Y-6259888D01*
X2401729Y-6259888D02*
X2401729Y-6212269D01*
X2401729Y-6212269D02*
X2392205Y-6193222D01*
X2392205Y-6193222D02*
X2382682Y-6183698D01*
X2382682Y-6183698D02*
X2363634Y-6174174D01*
X2363634Y-6174174D02*
X2325539Y-6174174D01*
X2325539Y-6174174D02*
X2306491Y-6183698D01*
X2306491Y-6183698D02*
X2296967Y-6193222D01*
X2296967Y-6193222D02*
X2287444Y-6212269D01*
X2477920Y-6117031D02*
X2487444Y-6107508D01*
X2487444Y-6107508D02*
X2506491Y-6097984D01*
X2506491Y-6097984D02*
X2554110Y-6097984D01*
X2554110Y-6097984D02*
X2573158Y-6107508D01*
X2573158Y-6107508D02*
X2582682Y-6117031D01*
X2582682Y-6117031D02*
X2592205Y-6136079D01*
X2592205Y-6136079D02*
X2592205Y-6155127D01*
X2592205Y-6155127D02*
X2582682Y-6183698D01*
X2582682Y-6183698D02*
X2468396Y-6297984D01*
X2468396Y-6297984D02*
X2592205Y-6297984D01*
X2677920Y-6297984D02*
X2677920Y-6164650D01*
X2677920Y-6183698D02*
X2687444Y-6174174D01*
X2687444Y-6174174D02*
X2706491Y-6164650D01*
X2706491Y-6164650D02*
X2735063Y-6164650D01*
X2735063Y-6164650D02*
X2754110Y-6174174D01*
X2754110Y-6174174D02*
X2763634Y-6193222D01*
X2763634Y-6193222D02*
X2763634Y-6297984D01*
X2763634Y-6193222D02*
X2773158Y-6174174D01*
X2773158Y-6174174D02*
X2792205Y-6164650D01*
X2792205Y-6164650D02*
X2820777Y-6164650D01*
X2820777Y-6164650D02*
X2839824Y-6174174D01*
X2839824Y-6174174D02*
X2849348Y-6193222D01*
X2849348Y-6193222D02*
X2849348Y-6297984D01*
X2944586Y-6297984D02*
X2944586Y-6164650D01*
X2944586Y-6183698D02*
X2954110Y-6174174D01*
X2954110Y-6174174D02*
X2973158Y-6164650D01*
X2973158Y-6164650D02*
X3001729Y-6164650D01*
X3001729Y-6164650D02*
X3020777Y-6174174D01*
X3020777Y-6174174D02*
X3030301Y-6193222D01*
X3030301Y-6193222D02*
X3030301Y-6297984D01*
X3030301Y-6193222D02*
X3039824Y-6174174D01*
X3039824Y-6174174D02*
X3058872Y-6164650D01*
X3058872Y-6164650D02*
X3087443Y-6164650D01*
X3087443Y-6164650D02*
X3106491Y-6174174D01*
X3106491Y-6174174D02*
X3116015Y-6193222D01*
X3116015Y-6193222D02*
X3116015Y-6297984D01*
X3506491Y-6088460D02*
X3335063Y-6345603D01*
X3763634Y-6097984D02*
X3782682Y-6097984D01*
X3782682Y-6097984D02*
X3801729Y-6107508D01*
X3801729Y-6107508D02*
X3811253Y-6117031D01*
X3811253Y-6117031D02*
X3820777Y-6136079D01*
X3820777Y-6136079D02*
X3830301Y-6174174D01*
X3830301Y-6174174D02*
X3830301Y-6221793D01*
X3830301Y-6221793D02*
X3820777Y-6259888D01*
X3820777Y-6259888D02*
X3811253Y-6278936D01*
X3811253Y-6278936D02*
X3801729Y-6288460D01*
X3801729Y-6288460D02*
X3782682Y-6297984D01*
X3782682Y-6297984D02*
X3763634Y-6297984D01*
X3763634Y-6297984D02*
X3744586Y-6288460D01*
X3744586Y-6288460D02*
X3735063Y-6278936D01*
X3735063Y-6278936D02*
X3725539Y-6259888D01*
X3725539Y-6259888D02*
X3716015Y-6221793D01*
X3716015Y-6221793D02*
X3716015Y-6174174D01*
X3716015Y-6174174D02*
X3725539Y-6136079D01*
X3725539Y-6136079D02*
X3735063Y-6117031D01*
X3735063Y-6117031D02*
X3744586Y-6107508D01*
X3744586Y-6107508D02*
X3763634Y-6097984D01*
X3916015Y-6278936D02*
X3925539Y-6288460D01*
X3925539Y-6288460D02*
X3916015Y-6297984D01*
X3916015Y-6297984D02*
X3906491Y-6288460D01*
X3906491Y-6288460D02*
X3916015Y-6278936D01*
X3916015Y-6278936D02*
X3916015Y-6297984D01*
X4049348Y-6097984D02*
X4068396Y-6097984D01*
X4068396Y-6097984D02*
X4087444Y-6107508D01*
X4087444Y-6107508D02*
X4096967Y-6117031D01*
X4096967Y-6117031D02*
X4106491Y-6136079D01*
X4106491Y-6136079D02*
X4116015Y-6174174D01*
X4116015Y-6174174D02*
X4116015Y-6221793D01*
X4116015Y-6221793D02*
X4106491Y-6259888D01*
X4106491Y-6259888D02*
X4096967Y-6278936D01*
X4096967Y-6278936D02*
X4087444Y-6288460D01*
X4087444Y-6288460D02*
X4068396Y-6297984D01*
X4068396Y-6297984D02*
X4049348Y-6297984D01*
X4049348Y-6297984D02*
X4030301Y-6288460D01*
X4030301Y-6288460D02*
X4020777Y-6278936D01*
X4020777Y-6278936D02*
X4011253Y-6259888D01*
X4011253Y-6259888D02*
X4001729Y-6221793D01*
X4001729Y-6221793D02*
X4001729Y-6174174D01*
X4001729Y-6174174D02*
X4011253Y-6136079D01*
X4011253Y-6136079D02*
X4020777Y-6117031D01*
X4020777Y-6117031D02*
X4030301Y-6107508D01*
X4030301Y-6107508D02*
X4049348Y-6097984D01*
X4182682Y-6097984D02*
X4306491Y-6097984D01*
X4306491Y-6097984D02*
X4239825Y-6174174D01*
X4239825Y-6174174D02*
X4268396Y-6174174D01*
X4268396Y-6174174D02*
X4287444Y-6183698D01*
X4287444Y-6183698D02*
X4296968Y-6193222D01*
X4296968Y-6193222D02*
X4306491Y-6212269D01*
X4306491Y-6212269D02*
X4306491Y-6259888D01*
X4306491Y-6259888D02*
X4296968Y-6278936D01*
X4296968Y-6278936D02*
X4287444Y-6288460D01*
X4287444Y-6288460D02*
X4268396Y-6297984D01*
X4268396Y-6297984D02*
X4211253Y-6297984D01*
X4211253Y-6297984D02*
X4192206Y-6288460D01*
X4192206Y-6288460D02*
X4182682Y-6278936D01*
X4430301Y-6097984D02*
X4449349Y-6097984D01*
X4449349Y-6097984D02*
X4468396Y-6107508D01*
X4468396Y-6107508D02*
X4477920Y-6117031D01*
X4477920Y-6117031D02*
X4487444Y-6136079D01*
X4487444Y-6136079D02*
X4496968Y-6174174D01*
X4496968Y-6174174D02*
X4496968Y-6221793D01*
X4496968Y-6221793D02*
X4487444Y-6259888D01*
X4487444Y-6259888D02*
X4477920Y-6278936D01*
X4477920Y-6278936D02*
X4468396Y-6288460D01*
X4468396Y-6288460D02*
X4449349Y-6297984D01*
X4449349Y-6297984D02*
X4430301Y-6297984D01*
X4430301Y-6297984D02*
X4411253Y-6288460D01*
X4411253Y-6288460D02*
X4401729Y-6278936D01*
X4401729Y-6278936D02*
X4392206Y-6259888D01*
X4392206Y-6259888D02*
X4382682Y-6221793D01*
X4382682Y-6221793D02*
X4382682Y-6174174D01*
X4382682Y-6174174D02*
X4392206Y-6136079D01*
X4392206Y-6136079D02*
X4401729Y-6117031D01*
X4401729Y-6117031D02*
X4411253Y-6107508D01*
X4411253Y-6107508D02*
X4430301Y-6097984D01*
X4620777Y-6097984D02*
X4639825Y-6097984D01*
X4639825Y-6097984D02*
X4658872Y-6107508D01*
X4658872Y-6107508D02*
X4668396Y-6117031D01*
X4668396Y-6117031D02*
X4677920Y-6136079D01*
X4677920Y-6136079D02*
X4687444Y-6174174D01*
X4687444Y-6174174D02*
X4687444Y-6221793D01*
X4687444Y-6221793D02*
X4677920Y-6259888D01*
X4677920Y-6259888D02*
X4668396Y-6278936D01*
X4668396Y-6278936D02*
X4658872Y-6288460D01*
X4658872Y-6288460D02*
X4639825Y-6297984D01*
X4639825Y-6297984D02*
X4620777Y-6297984D01*
X4620777Y-6297984D02*
X4601729Y-6288460D01*
X4601729Y-6288460D02*
X4592206Y-6278936D01*
X4592206Y-6278936D02*
X4582682Y-6259888D01*
X4582682Y-6259888D02*
X4573158Y-6221793D01*
X4573158Y-6221793D02*
X4573158Y-6174174D01*
X4573158Y-6174174D02*
X4582682Y-6136079D01*
X4582682Y-6136079D02*
X4592206Y-6117031D01*
X4592206Y-6117031D02*
X4601729Y-6107508D01*
X4601729Y-6107508D02*
X4620777Y-6097984D01*
X4763634Y-6097984D02*
X4763634Y-6136079D01*
X4839825Y-6097984D02*
X4839825Y-6136079D01*
X5135063Y-6374174D02*
X5125539Y-6364650D01*
X5125539Y-6364650D02*
X5106491Y-6336079D01*
X5106491Y-6336079D02*
X5096968Y-6317031D01*
X5096968Y-6317031D02*
X5087444Y-6288460D01*
X5087444Y-6288460D02*
X5077920Y-6240841D01*
X5077920Y-6240841D02*
X5077920Y-6202746D01*
X5077920Y-6202746D02*
X5087444Y-6155127D01*
X5087444Y-6155127D02*
X5096968Y-6126555D01*
X5096968Y-6126555D02*
X5106491Y-6107508D01*
X5106491Y-6107508D02*
X5125539Y-6078936D01*
X5125539Y-6078936D02*
X5135063Y-6069412D01*
X5296968Y-6164650D02*
X5296968Y-6297984D01*
X5249349Y-6088460D02*
X5201730Y-6231317D01*
X5201730Y-6231317D02*
X5325539Y-6231317D01*
X5554111Y-6297984D02*
X5554111Y-6097984D01*
X5639825Y-6297984D02*
X5639825Y-6193222D01*
X5639825Y-6193222D02*
X5630301Y-6174174D01*
X5630301Y-6174174D02*
X5611253Y-6164650D01*
X5611253Y-6164650D02*
X5582682Y-6164650D01*
X5582682Y-6164650D02*
X5563634Y-6174174D01*
X5563634Y-6174174D02*
X5554111Y-6183698D01*
X5763634Y-6297984D02*
X5744587Y-6288460D01*
X5744587Y-6288460D02*
X5735063Y-6278936D01*
X5735063Y-6278936D02*
X5725539Y-6259888D01*
X5725539Y-6259888D02*
X5725539Y-6202746D01*
X5725539Y-6202746D02*
X5735063Y-6183698D01*
X5735063Y-6183698D02*
X5744587Y-6174174D01*
X5744587Y-6174174D02*
X5763634Y-6164650D01*
X5763634Y-6164650D02*
X5792206Y-6164650D01*
X5792206Y-6164650D02*
X5811253Y-6174174D01*
X5811253Y-6174174D02*
X5820777Y-6183698D01*
X5820777Y-6183698D02*
X5830301Y-6202746D01*
X5830301Y-6202746D02*
X5830301Y-6259888D01*
X5830301Y-6259888D02*
X5820777Y-6278936D01*
X5820777Y-6278936D02*
X5811253Y-6288460D01*
X5811253Y-6288460D02*
X5792206Y-6297984D01*
X5792206Y-6297984D02*
X5763634Y-6297984D01*
X5944587Y-6297984D02*
X5925539Y-6288460D01*
X5925539Y-6288460D02*
X5916015Y-6269412D01*
X5916015Y-6269412D02*
X5916015Y-6097984D01*
X6096968Y-6288460D02*
X6077920Y-6297984D01*
X6077920Y-6297984D02*
X6039825Y-6297984D01*
X6039825Y-6297984D02*
X6020777Y-6288460D01*
X6020777Y-6288460D02*
X6011253Y-6269412D01*
X6011253Y-6269412D02*
X6011253Y-6193222D01*
X6011253Y-6193222D02*
X6020777Y-6174174D01*
X6020777Y-6174174D02*
X6039825Y-6164650D01*
X6039825Y-6164650D02*
X6077920Y-6164650D01*
X6077920Y-6164650D02*
X6096968Y-6174174D01*
X6096968Y-6174174D02*
X6106491Y-6193222D01*
X6106491Y-6193222D02*
X6106491Y-6212269D01*
X6106491Y-6212269D02*
X6011253Y-6231317D01*
X6182682Y-6288460D02*
X6201730Y-6297984D01*
X6201730Y-6297984D02*
X6239825Y-6297984D01*
X6239825Y-6297984D02*
X6258872Y-6288460D01*
X6258872Y-6288460D02*
X6268396Y-6269412D01*
X6268396Y-6269412D02*
X6268396Y-6259888D01*
X6268396Y-6259888D02*
X6258872Y-6240841D01*
X6258872Y-6240841D02*
X6239825Y-6231317D01*
X6239825Y-6231317D02*
X6211253Y-6231317D01*
X6211253Y-6231317D02*
X6192206Y-6221793D01*
X6192206Y-6221793D02*
X6182682Y-6202746D01*
X6182682Y-6202746D02*
X6182682Y-6193222D01*
X6182682Y-6193222D02*
X6192206Y-6174174D01*
X6192206Y-6174174D02*
X6211253Y-6164650D01*
X6211253Y-6164650D02*
X6239825Y-6164650D01*
X6239825Y-6164650D02*
X6258872Y-6174174D01*
X6335063Y-6374174D02*
X6344587Y-6364650D01*
X6344587Y-6364650D02*
X6363634Y-6336079D01*
X6363634Y-6336079D02*
X6373158Y-6317031D01*
X6373158Y-6317031D02*
X6382682Y-6288460D01*
X6382682Y-6288460D02*
X6392206Y-6240841D01*
X6392206Y-6240841D02*
X6392206Y-6202746D01*
X6392206Y-6202746D02*
X6382682Y-6155127D01*
X6382682Y-6155127D02*
X6373158Y-6126555D01*
X6373158Y-6126555D02*
X6363634Y-6107508D01*
X6363634Y-6107508D02*
X6344587Y-6078936D01*
X6344587Y-6078936D02*
X6335063Y-6069412D01*
D12*
X1510000Y-6420500D02*
X1510000Y-6520500D01*
X1460000Y-6470500D02*
X1560000Y-6470500D01*
D11*
X1925539Y-6561984D02*
X1811253Y-6561984D01*
X1868396Y-6561984D02*
X1868396Y-6361984D01*
X1868396Y-6361984D02*
X1849348Y-6390555D01*
X1849348Y-6390555D02*
X1830301Y-6409603D01*
X1830301Y-6409603D02*
X1811253Y-6419127D01*
X2011253Y-6542936D02*
X2020777Y-6552460D01*
X2020777Y-6552460D02*
X2011253Y-6561984D01*
X2011253Y-6561984D02*
X2001729Y-6552460D01*
X2001729Y-6552460D02*
X2011253Y-6542936D01*
X2011253Y-6542936D02*
X2011253Y-6561984D01*
X2144586Y-6361984D02*
X2163634Y-6361984D01*
X2163634Y-6361984D02*
X2182682Y-6371508D01*
X2182682Y-6371508D02*
X2192205Y-6381031D01*
X2192205Y-6381031D02*
X2201729Y-6400079D01*
X2201729Y-6400079D02*
X2211253Y-6438174D01*
X2211253Y-6438174D02*
X2211253Y-6485793D01*
X2211253Y-6485793D02*
X2201729Y-6523888D01*
X2201729Y-6523888D02*
X2192205Y-6542936D01*
X2192205Y-6542936D02*
X2182682Y-6552460D01*
X2182682Y-6552460D02*
X2163634Y-6561984D01*
X2163634Y-6561984D02*
X2144586Y-6561984D01*
X2144586Y-6561984D02*
X2125539Y-6552460D01*
X2125539Y-6552460D02*
X2116015Y-6542936D01*
X2116015Y-6542936D02*
X2106491Y-6523888D01*
X2106491Y-6523888D02*
X2096967Y-6485793D01*
X2096967Y-6485793D02*
X2096967Y-6438174D01*
X2096967Y-6438174D02*
X2106491Y-6400079D01*
X2106491Y-6400079D02*
X2116015Y-6381031D01*
X2116015Y-6381031D02*
X2125539Y-6371508D01*
X2125539Y-6371508D02*
X2144586Y-6361984D01*
X2335063Y-6361984D02*
X2354110Y-6361984D01*
X2354110Y-6361984D02*
X2373158Y-6371508D01*
X2373158Y-6371508D02*
X2382682Y-6381031D01*
X2382682Y-6381031D02*
X2392205Y-6400079D01*
X2392205Y-6400079D02*
X2401729Y-6438174D01*
X2401729Y-6438174D02*
X2401729Y-6485793D01*
X2401729Y-6485793D02*
X2392205Y-6523888D01*
X2392205Y-6523888D02*
X2382682Y-6542936D01*
X2382682Y-6542936D02*
X2373158Y-6552460D01*
X2373158Y-6552460D02*
X2354110Y-6561984D01*
X2354110Y-6561984D02*
X2335063Y-6561984D01*
X2335063Y-6561984D02*
X2316015Y-6552460D01*
X2316015Y-6552460D02*
X2306491Y-6542936D01*
X2306491Y-6542936D02*
X2296967Y-6523888D01*
X2296967Y-6523888D02*
X2287444Y-6485793D01*
X2287444Y-6485793D02*
X2287444Y-6438174D01*
X2287444Y-6438174D02*
X2296967Y-6400079D01*
X2296967Y-6400079D02*
X2306491Y-6381031D01*
X2306491Y-6381031D02*
X2316015Y-6371508D01*
X2316015Y-6371508D02*
X2335063Y-6361984D01*
X2525539Y-6361984D02*
X2544586Y-6361984D01*
X2544586Y-6361984D02*
X2563634Y-6371508D01*
X2563634Y-6371508D02*
X2573158Y-6381031D01*
X2573158Y-6381031D02*
X2582682Y-6400079D01*
X2582682Y-6400079D02*
X2592205Y-6438174D01*
X2592205Y-6438174D02*
X2592205Y-6485793D01*
X2592205Y-6485793D02*
X2582682Y-6523888D01*
X2582682Y-6523888D02*
X2573158Y-6542936D01*
X2573158Y-6542936D02*
X2563634Y-6552460D01*
X2563634Y-6552460D02*
X2544586Y-6561984D01*
X2544586Y-6561984D02*
X2525539Y-6561984D01*
X2525539Y-6561984D02*
X2506491Y-6552460D01*
X2506491Y-6552460D02*
X2496967Y-6542936D01*
X2496967Y-6542936D02*
X2487444Y-6523888D01*
X2487444Y-6523888D02*
X2477920Y-6485793D01*
X2477920Y-6485793D02*
X2477920Y-6438174D01*
X2477920Y-6438174D02*
X2487444Y-6400079D01*
X2487444Y-6400079D02*
X2496967Y-6381031D01*
X2496967Y-6381031D02*
X2506491Y-6371508D01*
X2506491Y-6371508D02*
X2525539Y-6361984D01*
X2677920Y-6561984D02*
X2677920Y-6428650D01*
X2677920Y-6447698D02*
X2687444Y-6438174D01*
X2687444Y-6438174D02*
X2706491Y-6428650D01*
X2706491Y-6428650D02*
X2735063Y-6428650D01*
X2735063Y-6428650D02*
X2754110Y-6438174D01*
X2754110Y-6438174D02*
X2763634Y-6457222D01*
X2763634Y-6457222D02*
X2763634Y-6561984D01*
X2763634Y-6457222D02*
X2773158Y-6438174D01*
X2773158Y-6438174D02*
X2792205Y-6428650D01*
X2792205Y-6428650D02*
X2820777Y-6428650D01*
X2820777Y-6428650D02*
X2839824Y-6438174D01*
X2839824Y-6438174D02*
X2849348Y-6457222D01*
X2849348Y-6457222D02*
X2849348Y-6561984D01*
X2944586Y-6561984D02*
X2944586Y-6428650D01*
X2944586Y-6447698D02*
X2954110Y-6438174D01*
X2954110Y-6438174D02*
X2973158Y-6428650D01*
X2973158Y-6428650D02*
X3001729Y-6428650D01*
X3001729Y-6428650D02*
X3020777Y-6438174D01*
X3020777Y-6438174D02*
X3030301Y-6457222D01*
X3030301Y-6457222D02*
X3030301Y-6561984D01*
X3030301Y-6457222D02*
X3039824Y-6438174D01*
X3039824Y-6438174D02*
X3058872Y-6428650D01*
X3058872Y-6428650D02*
X3087443Y-6428650D01*
X3087443Y-6428650D02*
X3106491Y-6438174D01*
X3106491Y-6438174D02*
X3116015Y-6457222D01*
X3116015Y-6457222D02*
X3116015Y-6561984D01*
X3506491Y-6352460D02*
X3335063Y-6609603D01*
X3763634Y-6361984D02*
X3782682Y-6361984D01*
X3782682Y-6361984D02*
X3801729Y-6371508D01*
X3801729Y-6371508D02*
X3811253Y-6381031D01*
X3811253Y-6381031D02*
X3820777Y-6400079D01*
X3820777Y-6400079D02*
X3830301Y-6438174D01*
X3830301Y-6438174D02*
X3830301Y-6485793D01*
X3830301Y-6485793D02*
X3820777Y-6523888D01*
X3820777Y-6523888D02*
X3811253Y-6542936D01*
X3811253Y-6542936D02*
X3801729Y-6552460D01*
X3801729Y-6552460D02*
X3782682Y-6561984D01*
X3782682Y-6561984D02*
X3763634Y-6561984D01*
X3763634Y-6561984D02*
X3744586Y-6552460D01*
X3744586Y-6552460D02*
X3735063Y-6542936D01*
X3735063Y-6542936D02*
X3725539Y-6523888D01*
X3725539Y-6523888D02*
X3716015Y-6485793D01*
X3716015Y-6485793D02*
X3716015Y-6438174D01*
X3716015Y-6438174D02*
X3725539Y-6400079D01*
X3725539Y-6400079D02*
X3735063Y-6381031D01*
X3735063Y-6381031D02*
X3744586Y-6371508D01*
X3744586Y-6371508D02*
X3763634Y-6361984D01*
X3916015Y-6542936D02*
X3925539Y-6552460D01*
X3925539Y-6552460D02*
X3916015Y-6561984D01*
X3916015Y-6561984D02*
X3906491Y-6552460D01*
X3906491Y-6552460D02*
X3916015Y-6542936D01*
X3916015Y-6542936D02*
X3916015Y-6561984D01*
X4049348Y-6361984D02*
X4068396Y-6361984D01*
X4068396Y-6361984D02*
X4087444Y-6371508D01*
X4087444Y-6371508D02*
X4096967Y-6381031D01*
X4096967Y-6381031D02*
X4106491Y-6400079D01*
X4106491Y-6400079D02*
X4116015Y-6438174D01*
X4116015Y-6438174D02*
X4116015Y-6485793D01*
X4116015Y-6485793D02*
X4106491Y-6523888D01*
X4106491Y-6523888D02*
X4096967Y-6542936D01*
X4096967Y-6542936D02*
X4087444Y-6552460D01*
X4087444Y-6552460D02*
X4068396Y-6561984D01*
X4068396Y-6561984D02*
X4049348Y-6561984D01*
X4049348Y-6561984D02*
X4030301Y-6552460D01*
X4030301Y-6552460D02*
X4020777Y-6542936D01*
X4020777Y-6542936D02*
X4011253Y-6523888D01*
X4011253Y-6523888D02*
X4001729Y-6485793D01*
X4001729Y-6485793D02*
X4001729Y-6438174D01*
X4001729Y-6438174D02*
X4011253Y-6400079D01*
X4011253Y-6400079D02*
X4020777Y-6381031D01*
X4020777Y-6381031D02*
X4030301Y-6371508D01*
X4030301Y-6371508D02*
X4049348Y-6361984D01*
X4182682Y-6361984D02*
X4306491Y-6361984D01*
X4306491Y-6361984D02*
X4239825Y-6438174D01*
X4239825Y-6438174D02*
X4268396Y-6438174D01*
X4268396Y-6438174D02*
X4287444Y-6447698D01*
X4287444Y-6447698D02*
X4296968Y-6457222D01*
X4296968Y-6457222D02*
X4306491Y-6476269D01*
X4306491Y-6476269D02*
X4306491Y-6523888D01*
X4306491Y-6523888D02*
X4296968Y-6542936D01*
X4296968Y-6542936D02*
X4287444Y-6552460D01*
X4287444Y-6552460D02*
X4268396Y-6561984D01*
X4268396Y-6561984D02*
X4211253Y-6561984D01*
X4211253Y-6561984D02*
X4192206Y-6552460D01*
X4192206Y-6552460D02*
X4182682Y-6542936D01*
X4401729Y-6561984D02*
X4439825Y-6561984D01*
X4439825Y-6561984D02*
X4458872Y-6552460D01*
X4458872Y-6552460D02*
X4468396Y-6542936D01*
X4468396Y-6542936D02*
X4487444Y-6514365D01*
X4487444Y-6514365D02*
X4496968Y-6476269D01*
X4496968Y-6476269D02*
X4496968Y-6400079D01*
X4496968Y-6400079D02*
X4487444Y-6381031D01*
X4487444Y-6381031D02*
X4477920Y-6371508D01*
X4477920Y-6371508D02*
X4458872Y-6361984D01*
X4458872Y-6361984D02*
X4420777Y-6361984D01*
X4420777Y-6361984D02*
X4401729Y-6371508D01*
X4401729Y-6371508D02*
X4392206Y-6381031D01*
X4392206Y-6381031D02*
X4382682Y-6400079D01*
X4382682Y-6400079D02*
X4382682Y-6447698D01*
X4382682Y-6447698D02*
X4392206Y-6466746D01*
X4392206Y-6466746D02*
X4401729Y-6476269D01*
X4401729Y-6476269D02*
X4420777Y-6485793D01*
X4420777Y-6485793D02*
X4458872Y-6485793D01*
X4458872Y-6485793D02*
X4477920Y-6476269D01*
X4477920Y-6476269D02*
X4487444Y-6466746D01*
X4487444Y-6466746D02*
X4496968Y-6447698D01*
X4668396Y-6428650D02*
X4668396Y-6561984D01*
X4620777Y-6352460D02*
X4573158Y-6495317D01*
X4573158Y-6495317D02*
X4696968Y-6495317D01*
X4763634Y-6361984D02*
X4763634Y-6400079D01*
X4839825Y-6361984D02*
X4839825Y-6400079D01*
X5135063Y-6638174D02*
X5125539Y-6628650D01*
X5125539Y-6628650D02*
X5106491Y-6600079D01*
X5106491Y-6600079D02*
X5096968Y-6581031D01*
X5096968Y-6581031D02*
X5087444Y-6552460D01*
X5087444Y-6552460D02*
X5077920Y-6504841D01*
X5077920Y-6504841D02*
X5077920Y-6466746D01*
X5077920Y-6466746D02*
X5087444Y-6419127D01*
X5087444Y-6419127D02*
X5096968Y-6390555D01*
X5096968Y-6390555D02*
X5106491Y-6371508D01*
X5106491Y-6371508D02*
X5125539Y-6342936D01*
X5125539Y-6342936D02*
X5135063Y-6333412D01*
X5296968Y-6428650D02*
X5296968Y-6561984D01*
X5249349Y-6352460D02*
X5201730Y-6495317D01*
X5201730Y-6495317D02*
X5325539Y-6495317D01*
X5554111Y-6561984D02*
X5554111Y-6361984D01*
X5639825Y-6561984D02*
X5639825Y-6457222D01*
X5639825Y-6457222D02*
X5630301Y-6438174D01*
X5630301Y-6438174D02*
X5611253Y-6428650D01*
X5611253Y-6428650D02*
X5582682Y-6428650D01*
X5582682Y-6428650D02*
X5563634Y-6438174D01*
X5563634Y-6438174D02*
X5554111Y-6447698D01*
X5763634Y-6561984D02*
X5744587Y-6552460D01*
X5744587Y-6552460D02*
X5735063Y-6542936D01*
X5735063Y-6542936D02*
X5725539Y-6523888D01*
X5725539Y-6523888D02*
X5725539Y-6466746D01*
X5725539Y-6466746D02*
X5735063Y-6447698D01*
X5735063Y-6447698D02*
X5744587Y-6438174D01*
X5744587Y-6438174D02*
X5763634Y-6428650D01*
X5763634Y-6428650D02*
X5792206Y-6428650D01*
X5792206Y-6428650D02*
X5811253Y-6438174D01*
X5811253Y-6438174D02*
X5820777Y-6447698D01*
X5820777Y-6447698D02*
X5830301Y-6466746D01*
X5830301Y-6466746D02*
X5830301Y-6523888D01*
X5830301Y-6523888D02*
X5820777Y-6542936D01*
X5820777Y-6542936D02*
X5811253Y-6552460D01*
X5811253Y-6552460D02*
X5792206Y-6561984D01*
X5792206Y-6561984D02*
X5763634Y-6561984D01*
X5944587Y-6561984D02*
X5925539Y-6552460D01*
X5925539Y-6552460D02*
X5916015Y-6533412D01*
X5916015Y-6533412D02*
X5916015Y-6361984D01*
X6096968Y-6552460D02*
X6077920Y-6561984D01*
X6077920Y-6561984D02*
X6039825Y-6561984D01*
X6039825Y-6561984D02*
X6020777Y-6552460D01*
X6020777Y-6552460D02*
X6011253Y-6533412D01*
X6011253Y-6533412D02*
X6011253Y-6457222D01*
X6011253Y-6457222D02*
X6020777Y-6438174D01*
X6020777Y-6438174D02*
X6039825Y-6428650D01*
X6039825Y-6428650D02*
X6077920Y-6428650D01*
X6077920Y-6428650D02*
X6096968Y-6438174D01*
X6096968Y-6438174D02*
X6106491Y-6457222D01*
X6106491Y-6457222D02*
X6106491Y-6476269D01*
X6106491Y-6476269D02*
X6011253Y-6495317D01*
X6182682Y-6552460D02*
X6201730Y-6561984D01*
X6201730Y-6561984D02*
X6239825Y-6561984D01*
X6239825Y-6561984D02*
X6258872Y-6552460D01*
X6258872Y-6552460D02*
X6268396Y-6533412D01*
X6268396Y-6533412D02*
X6268396Y-6523888D01*
X6268396Y-6523888D02*
X6258872Y-6504841D01*
X6258872Y-6504841D02*
X6239825Y-6495317D01*
X6239825Y-6495317D02*
X6211253Y-6495317D01*
X6211253Y-6495317D02*
X6192206Y-6485793D01*
X6192206Y-6485793D02*
X6182682Y-6466746D01*
X6182682Y-6466746D02*
X6182682Y-6457222D01*
X6182682Y-6457222D02*
X6192206Y-6438174D01*
X6192206Y-6438174D02*
X6211253Y-6428650D01*
X6211253Y-6428650D02*
X6239825Y-6428650D01*
X6239825Y-6428650D02*
X6258872Y-6438174D01*
X6335063Y-6638174D02*
X6344587Y-6628650D01*
X6344587Y-6628650D02*
X6363634Y-6600079D01*
X6363634Y-6600079D02*
X6373158Y-6581031D01*
X6373158Y-6581031D02*
X6382682Y-6552460D01*
X6382682Y-6552460D02*
X6392206Y-6504841D01*
X6392206Y-6504841D02*
X6392206Y-6466746D01*
X6392206Y-6466746D02*
X6382682Y-6419127D01*
X6382682Y-6419127D02*
X6373158Y-6390555D01*
X6373158Y-6390555D02*
X6363634Y-6371508D01*
X6363634Y-6371508D02*
X6344587Y-6342936D01*
X6344587Y-6342936D02*
X6335063Y-6333412D01*
D13*
X1543891Y-6773391D02*
X1543891Y-6695609D01*
X1466109Y-6695609D01*
X1466109Y-6773391D01*
X1543891Y-6773391D01*
D11*
X1925539Y-6825984D02*
X1811253Y-6825984D01*
X1868396Y-6825984D02*
X1868396Y-6625984D01*
X1868396Y-6625984D02*
X1849348Y-6654555D01*
X1849348Y-6654555D02*
X1830301Y-6673603D01*
X1830301Y-6673603D02*
X1811253Y-6683127D01*
X2011253Y-6806936D02*
X2020777Y-6816460D01*
X2020777Y-6816460D02*
X2011253Y-6825984D01*
X2011253Y-6825984D02*
X2001729Y-6816460D01*
X2001729Y-6816460D02*
X2011253Y-6806936D01*
X2011253Y-6806936D02*
X2011253Y-6825984D01*
X2211253Y-6825984D02*
X2096967Y-6825984D01*
X2154110Y-6825984D02*
X2154110Y-6625984D01*
X2154110Y-6625984D02*
X2135063Y-6654555D01*
X2135063Y-6654555D02*
X2116015Y-6673603D01*
X2116015Y-6673603D02*
X2096967Y-6683127D01*
X2335063Y-6625984D02*
X2354110Y-6625984D01*
X2354110Y-6625984D02*
X2373158Y-6635508D01*
X2373158Y-6635508D02*
X2382682Y-6645031D01*
X2382682Y-6645031D02*
X2392205Y-6664079D01*
X2392205Y-6664079D02*
X2401729Y-6702174D01*
X2401729Y-6702174D02*
X2401729Y-6749793D01*
X2401729Y-6749793D02*
X2392205Y-6787888D01*
X2392205Y-6787888D02*
X2382682Y-6806936D01*
X2382682Y-6806936D02*
X2373158Y-6816460D01*
X2373158Y-6816460D02*
X2354110Y-6825984D01*
X2354110Y-6825984D02*
X2335063Y-6825984D01*
X2335063Y-6825984D02*
X2316015Y-6816460D01*
X2316015Y-6816460D02*
X2306491Y-6806936D01*
X2306491Y-6806936D02*
X2296967Y-6787888D01*
X2296967Y-6787888D02*
X2287444Y-6749793D01*
X2287444Y-6749793D02*
X2287444Y-6702174D01*
X2287444Y-6702174D02*
X2296967Y-6664079D01*
X2296967Y-6664079D02*
X2306491Y-6645031D01*
X2306491Y-6645031D02*
X2316015Y-6635508D01*
X2316015Y-6635508D02*
X2335063Y-6625984D01*
X2525539Y-6625984D02*
X2544586Y-6625984D01*
X2544586Y-6625984D02*
X2563634Y-6635508D01*
X2563634Y-6635508D02*
X2573158Y-6645031D01*
X2573158Y-6645031D02*
X2582682Y-6664079D01*
X2582682Y-6664079D02*
X2592205Y-6702174D01*
X2592205Y-6702174D02*
X2592205Y-6749793D01*
X2592205Y-6749793D02*
X2582682Y-6787888D01*
X2582682Y-6787888D02*
X2573158Y-6806936D01*
X2573158Y-6806936D02*
X2563634Y-6816460D01*
X2563634Y-6816460D02*
X2544586Y-6825984D01*
X2544586Y-6825984D02*
X2525539Y-6825984D01*
X2525539Y-6825984D02*
X2506491Y-6816460D01*
X2506491Y-6816460D02*
X2496967Y-6806936D01*
X2496967Y-6806936D02*
X2487444Y-6787888D01*
X2487444Y-6787888D02*
X2477920Y-6749793D01*
X2477920Y-6749793D02*
X2477920Y-6702174D01*
X2477920Y-6702174D02*
X2487444Y-6664079D01*
X2487444Y-6664079D02*
X2496967Y-6645031D01*
X2496967Y-6645031D02*
X2506491Y-6635508D01*
X2506491Y-6635508D02*
X2525539Y-6625984D01*
X2677920Y-6825984D02*
X2677920Y-6692650D01*
X2677920Y-6711698D02*
X2687444Y-6702174D01*
X2687444Y-6702174D02*
X2706491Y-6692650D01*
X2706491Y-6692650D02*
X2735063Y-6692650D01*
X2735063Y-6692650D02*
X2754110Y-6702174D01*
X2754110Y-6702174D02*
X2763634Y-6721222D01*
X2763634Y-6721222D02*
X2763634Y-6825984D01*
X2763634Y-6721222D02*
X2773158Y-6702174D01*
X2773158Y-6702174D02*
X2792205Y-6692650D01*
X2792205Y-6692650D02*
X2820777Y-6692650D01*
X2820777Y-6692650D02*
X2839824Y-6702174D01*
X2839824Y-6702174D02*
X2849348Y-6721222D01*
X2849348Y-6721222D02*
X2849348Y-6825984D01*
X2944586Y-6825984D02*
X2944586Y-6692650D01*
X2944586Y-6711698D02*
X2954110Y-6702174D01*
X2954110Y-6702174D02*
X2973158Y-6692650D01*
X2973158Y-6692650D02*
X3001729Y-6692650D01*
X3001729Y-6692650D02*
X3020777Y-6702174D01*
X3020777Y-6702174D02*
X3030301Y-6721222D01*
X3030301Y-6721222D02*
X3030301Y-6825984D01*
X3030301Y-6721222D02*
X3039824Y-6702174D01*
X3039824Y-6702174D02*
X3058872Y-6692650D01*
X3058872Y-6692650D02*
X3087443Y-6692650D01*
X3087443Y-6692650D02*
X3106491Y-6702174D01*
X3106491Y-6702174D02*
X3116015Y-6721222D01*
X3116015Y-6721222D02*
X3116015Y-6825984D01*
X3506491Y-6616460D02*
X3335063Y-6873603D01*
X3763634Y-6625984D02*
X3782682Y-6625984D01*
X3782682Y-6625984D02*
X3801729Y-6635508D01*
X3801729Y-6635508D02*
X3811253Y-6645031D01*
X3811253Y-6645031D02*
X3820777Y-6664079D01*
X3820777Y-6664079D02*
X3830301Y-6702174D01*
X3830301Y-6702174D02*
X3830301Y-6749793D01*
X3830301Y-6749793D02*
X3820777Y-6787888D01*
X3820777Y-6787888D02*
X3811253Y-6806936D01*
X3811253Y-6806936D02*
X3801729Y-6816460D01*
X3801729Y-6816460D02*
X3782682Y-6825984D01*
X3782682Y-6825984D02*
X3763634Y-6825984D01*
X3763634Y-6825984D02*
X3744586Y-6816460D01*
X3744586Y-6816460D02*
X3735063Y-6806936D01*
X3735063Y-6806936D02*
X3725539Y-6787888D01*
X3725539Y-6787888D02*
X3716015Y-6749793D01*
X3716015Y-6749793D02*
X3716015Y-6702174D01*
X3716015Y-6702174D02*
X3725539Y-6664079D01*
X3725539Y-6664079D02*
X3735063Y-6645031D01*
X3735063Y-6645031D02*
X3744586Y-6635508D01*
X3744586Y-6635508D02*
X3763634Y-6625984D01*
X3916015Y-6806936D02*
X3925539Y-6816460D01*
X3925539Y-6816460D02*
X3916015Y-6825984D01*
X3916015Y-6825984D02*
X3906491Y-6816460D01*
X3906491Y-6816460D02*
X3916015Y-6806936D01*
X3916015Y-6806936D02*
X3916015Y-6825984D01*
X4049348Y-6625984D02*
X4068396Y-6625984D01*
X4068396Y-6625984D02*
X4087444Y-6635508D01*
X4087444Y-6635508D02*
X4096967Y-6645031D01*
X4096967Y-6645031D02*
X4106491Y-6664079D01*
X4106491Y-6664079D02*
X4116015Y-6702174D01*
X4116015Y-6702174D02*
X4116015Y-6749793D01*
X4116015Y-6749793D02*
X4106491Y-6787888D01*
X4106491Y-6787888D02*
X4096967Y-6806936D01*
X4096967Y-6806936D02*
X4087444Y-6816460D01*
X4087444Y-6816460D02*
X4068396Y-6825984D01*
X4068396Y-6825984D02*
X4049348Y-6825984D01*
X4049348Y-6825984D02*
X4030301Y-6816460D01*
X4030301Y-6816460D02*
X4020777Y-6806936D01*
X4020777Y-6806936D02*
X4011253Y-6787888D01*
X4011253Y-6787888D02*
X4001729Y-6749793D01*
X4001729Y-6749793D02*
X4001729Y-6702174D01*
X4001729Y-6702174D02*
X4011253Y-6664079D01*
X4011253Y-6664079D02*
X4020777Y-6645031D01*
X4020777Y-6645031D02*
X4030301Y-6635508D01*
X4030301Y-6635508D02*
X4049348Y-6625984D01*
X4287444Y-6692650D02*
X4287444Y-6825984D01*
X4239825Y-6616460D02*
X4192206Y-6759317D01*
X4192206Y-6759317D02*
X4316015Y-6759317D01*
X4373158Y-6625984D02*
X4496968Y-6625984D01*
X4496968Y-6625984D02*
X4430301Y-6702174D01*
X4430301Y-6702174D02*
X4458872Y-6702174D01*
X4458872Y-6702174D02*
X4477920Y-6711698D01*
X4477920Y-6711698D02*
X4487444Y-6721222D01*
X4487444Y-6721222D02*
X4496968Y-6740269D01*
X4496968Y-6740269D02*
X4496968Y-6787888D01*
X4496968Y-6787888D02*
X4487444Y-6806936D01*
X4487444Y-6806936D02*
X4477920Y-6816460D01*
X4477920Y-6816460D02*
X4458872Y-6825984D01*
X4458872Y-6825984D02*
X4401729Y-6825984D01*
X4401729Y-6825984D02*
X4382682Y-6816460D01*
X4382682Y-6816460D02*
X4373158Y-6806936D01*
X4563634Y-6625984D02*
X4687444Y-6625984D01*
X4687444Y-6625984D02*
X4620777Y-6702174D01*
X4620777Y-6702174D02*
X4649349Y-6702174D01*
X4649349Y-6702174D02*
X4668396Y-6711698D01*
X4668396Y-6711698D02*
X4677920Y-6721222D01*
X4677920Y-6721222D02*
X4687444Y-6740269D01*
X4687444Y-6740269D02*
X4687444Y-6787888D01*
X4687444Y-6787888D02*
X4677920Y-6806936D01*
X4677920Y-6806936D02*
X4668396Y-6816460D01*
X4668396Y-6816460D02*
X4649349Y-6825984D01*
X4649349Y-6825984D02*
X4592206Y-6825984D01*
X4592206Y-6825984D02*
X4573158Y-6816460D01*
X4573158Y-6816460D02*
X4563634Y-6806936D01*
X4763634Y-6625984D02*
X4763634Y-6664079D01*
X4839825Y-6625984D02*
X4839825Y-6664079D01*
X5135063Y-6902174D02*
X5125539Y-6892650D01*
X5125539Y-6892650D02*
X5106491Y-6864079D01*
X5106491Y-6864079D02*
X5096968Y-6845031D01*
X5096968Y-6845031D02*
X5087444Y-6816460D01*
X5087444Y-6816460D02*
X5077920Y-6768841D01*
X5077920Y-6768841D02*
X5077920Y-6730746D01*
X5077920Y-6730746D02*
X5087444Y-6683127D01*
X5087444Y-6683127D02*
X5096968Y-6654555D01*
X5096968Y-6654555D02*
X5106491Y-6635508D01*
X5106491Y-6635508D02*
X5125539Y-6606936D01*
X5125539Y-6606936D02*
X5135063Y-6597412D01*
X5192206Y-6625984D02*
X5316015Y-6625984D01*
X5316015Y-6625984D02*
X5249349Y-6702174D01*
X5249349Y-6702174D02*
X5277920Y-6702174D01*
X5277920Y-6702174D02*
X5296968Y-6711698D01*
X5296968Y-6711698D02*
X5306491Y-6721222D01*
X5306491Y-6721222D02*
X5316015Y-6740269D01*
X5316015Y-6740269D02*
X5316015Y-6787888D01*
X5316015Y-6787888D02*
X5306491Y-6806936D01*
X5306491Y-6806936D02*
X5296968Y-6816460D01*
X5296968Y-6816460D02*
X5277920Y-6825984D01*
X5277920Y-6825984D02*
X5220777Y-6825984D01*
X5220777Y-6825984D02*
X5201730Y-6816460D01*
X5201730Y-6816460D02*
X5192206Y-6806936D01*
X5554111Y-6825984D02*
X5554111Y-6625984D01*
X5639825Y-6825984D02*
X5639825Y-6721222D01*
X5639825Y-6721222D02*
X5630301Y-6702174D01*
X5630301Y-6702174D02*
X5611253Y-6692650D01*
X5611253Y-6692650D02*
X5582682Y-6692650D01*
X5582682Y-6692650D02*
X5563634Y-6702174D01*
X5563634Y-6702174D02*
X5554111Y-6711698D01*
X5763634Y-6825984D02*
X5744587Y-6816460D01*
X5744587Y-6816460D02*
X5735063Y-6806936D01*
X5735063Y-6806936D02*
X5725539Y-6787888D01*
X5725539Y-6787888D02*
X5725539Y-6730746D01*
X5725539Y-6730746D02*
X5735063Y-6711698D01*
X5735063Y-6711698D02*
X5744587Y-6702174D01*
X5744587Y-6702174D02*
X5763634Y-6692650D01*
X5763634Y-6692650D02*
X5792206Y-6692650D01*
X5792206Y-6692650D02*
X5811253Y-6702174D01*
X5811253Y-6702174D02*
X5820777Y-6711698D01*
X5820777Y-6711698D02*
X5830301Y-6730746D01*
X5830301Y-6730746D02*
X5830301Y-6787888D01*
X5830301Y-6787888D02*
X5820777Y-6806936D01*
X5820777Y-6806936D02*
X5811253Y-6816460D01*
X5811253Y-6816460D02*
X5792206Y-6825984D01*
X5792206Y-6825984D02*
X5763634Y-6825984D01*
X5944587Y-6825984D02*
X5925539Y-6816460D01*
X5925539Y-6816460D02*
X5916015Y-6797412D01*
X5916015Y-6797412D02*
X5916015Y-6625984D01*
X6096968Y-6816460D02*
X6077920Y-6825984D01*
X6077920Y-6825984D02*
X6039825Y-6825984D01*
X6039825Y-6825984D02*
X6020777Y-6816460D01*
X6020777Y-6816460D02*
X6011253Y-6797412D01*
X6011253Y-6797412D02*
X6011253Y-6721222D01*
X6011253Y-6721222D02*
X6020777Y-6702174D01*
X6020777Y-6702174D02*
X6039825Y-6692650D01*
X6039825Y-6692650D02*
X6077920Y-6692650D01*
X6077920Y-6692650D02*
X6096968Y-6702174D01*
X6096968Y-6702174D02*
X6106491Y-6721222D01*
X6106491Y-6721222D02*
X6106491Y-6740269D01*
X6106491Y-6740269D02*
X6011253Y-6759317D01*
X6182682Y-6816460D02*
X6201730Y-6825984D01*
X6201730Y-6825984D02*
X6239825Y-6825984D01*
X6239825Y-6825984D02*
X6258872Y-6816460D01*
X6258872Y-6816460D02*
X6268396Y-6797412D01*
X6268396Y-6797412D02*
X6268396Y-6787888D01*
X6268396Y-6787888D02*
X6258872Y-6768841D01*
X6258872Y-6768841D02*
X6239825Y-6759317D01*
X6239825Y-6759317D02*
X6211253Y-6759317D01*
X6211253Y-6759317D02*
X6192206Y-6749793D01*
X6192206Y-6749793D02*
X6182682Y-6730746D01*
X6182682Y-6730746D02*
X6182682Y-6721222D01*
X6182682Y-6721222D02*
X6192206Y-6702174D01*
X6192206Y-6702174D02*
X6211253Y-6692650D01*
X6211253Y-6692650D02*
X6239825Y-6692650D01*
X6239825Y-6692650D02*
X6258872Y-6702174D01*
X6335063Y-6902174D02*
X6344587Y-6892650D01*
X6344587Y-6892650D02*
X6363634Y-6864079D01*
X6363634Y-6864079D02*
X6373158Y-6845031D01*
X6373158Y-6845031D02*
X6382682Y-6816460D01*
X6382682Y-6816460D02*
X6392206Y-6768841D01*
X6392206Y-6768841D02*
X6392206Y-6730746D01*
X6392206Y-6730746D02*
X6382682Y-6683127D01*
X6382682Y-6683127D02*
X6373158Y-6654555D01*
X6373158Y-6654555D02*
X6363634Y-6635508D01*
X6363634Y-6635508D02*
X6344587Y-6606936D01*
X6344587Y-6606936D02*
X6335063Y-6597412D01*
D14*
X1500000Y-7058500D02*
X1560000Y-6998500D01*
X1500000Y-6938500D01*
X1440000Y-6998500D01*
X1500000Y-7058500D01*
D11*
X1925539Y-7089984D02*
X1811253Y-7089984D01*
X1868396Y-7089984D02*
X1868396Y-6889984D01*
X1868396Y-6889984D02*
X1849348Y-6918555D01*
X1849348Y-6918555D02*
X1830301Y-6937603D01*
X1830301Y-6937603D02*
X1811253Y-6947127D01*
X2011253Y-7070936D02*
X2020777Y-7080460D01*
X2020777Y-7080460D02*
X2011253Y-7089984D01*
X2011253Y-7089984D02*
X2001729Y-7080460D01*
X2001729Y-7080460D02*
X2011253Y-7070936D01*
X2011253Y-7070936D02*
X2011253Y-7089984D01*
X2096967Y-6909031D02*
X2106491Y-6899508D01*
X2106491Y-6899508D02*
X2125539Y-6889984D01*
X2125539Y-6889984D02*
X2173158Y-6889984D01*
X2173158Y-6889984D02*
X2192205Y-6899508D01*
X2192205Y-6899508D02*
X2201729Y-6909031D01*
X2201729Y-6909031D02*
X2211253Y-6928079D01*
X2211253Y-6928079D02*
X2211253Y-6947127D01*
X2211253Y-6947127D02*
X2201729Y-6975698D01*
X2201729Y-6975698D02*
X2087443Y-7089984D01*
X2087443Y-7089984D02*
X2211253Y-7089984D01*
X2335063Y-6889984D02*
X2354110Y-6889984D01*
X2354110Y-6889984D02*
X2373158Y-6899508D01*
X2373158Y-6899508D02*
X2382682Y-6909031D01*
X2382682Y-6909031D02*
X2392205Y-6928079D01*
X2392205Y-6928079D02*
X2401729Y-6966174D01*
X2401729Y-6966174D02*
X2401729Y-7013793D01*
X2401729Y-7013793D02*
X2392205Y-7051888D01*
X2392205Y-7051888D02*
X2382682Y-7070936D01*
X2382682Y-7070936D02*
X2373158Y-7080460D01*
X2373158Y-7080460D02*
X2354110Y-7089984D01*
X2354110Y-7089984D02*
X2335063Y-7089984D01*
X2335063Y-7089984D02*
X2316015Y-7080460D01*
X2316015Y-7080460D02*
X2306491Y-7070936D01*
X2306491Y-7070936D02*
X2296967Y-7051888D01*
X2296967Y-7051888D02*
X2287444Y-7013793D01*
X2287444Y-7013793D02*
X2287444Y-6966174D01*
X2287444Y-6966174D02*
X2296967Y-6928079D01*
X2296967Y-6928079D02*
X2306491Y-6909031D01*
X2306491Y-6909031D02*
X2316015Y-6899508D01*
X2316015Y-6899508D02*
X2335063Y-6889984D01*
X2525539Y-6889984D02*
X2544586Y-6889984D01*
X2544586Y-6889984D02*
X2563634Y-6899508D01*
X2563634Y-6899508D02*
X2573158Y-6909031D01*
X2573158Y-6909031D02*
X2582682Y-6928079D01*
X2582682Y-6928079D02*
X2592205Y-6966174D01*
X2592205Y-6966174D02*
X2592205Y-7013793D01*
X2592205Y-7013793D02*
X2582682Y-7051888D01*
X2582682Y-7051888D02*
X2573158Y-7070936D01*
X2573158Y-7070936D02*
X2563634Y-7080460D01*
X2563634Y-7080460D02*
X2544586Y-7089984D01*
X2544586Y-7089984D02*
X2525539Y-7089984D01*
X2525539Y-7089984D02*
X2506491Y-7080460D01*
X2506491Y-7080460D02*
X2496967Y-7070936D01*
X2496967Y-7070936D02*
X2487444Y-7051888D01*
X2487444Y-7051888D02*
X2477920Y-7013793D01*
X2477920Y-7013793D02*
X2477920Y-6966174D01*
X2477920Y-6966174D02*
X2487444Y-6928079D01*
X2487444Y-6928079D02*
X2496967Y-6909031D01*
X2496967Y-6909031D02*
X2506491Y-6899508D01*
X2506491Y-6899508D02*
X2525539Y-6889984D01*
X2677920Y-7089984D02*
X2677920Y-6956650D01*
X2677920Y-6975698D02*
X2687444Y-6966174D01*
X2687444Y-6966174D02*
X2706491Y-6956650D01*
X2706491Y-6956650D02*
X2735063Y-6956650D01*
X2735063Y-6956650D02*
X2754110Y-6966174D01*
X2754110Y-6966174D02*
X2763634Y-6985222D01*
X2763634Y-6985222D02*
X2763634Y-7089984D01*
X2763634Y-6985222D02*
X2773158Y-6966174D01*
X2773158Y-6966174D02*
X2792205Y-6956650D01*
X2792205Y-6956650D02*
X2820777Y-6956650D01*
X2820777Y-6956650D02*
X2839824Y-6966174D01*
X2839824Y-6966174D02*
X2849348Y-6985222D01*
X2849348Y-6985222D02*
X2849348Y-7089984D01*
X2944586Y-7089984D02*
X2944586Y-6956650D01*
X2944586Y-6975698D02*
X2954110Y-6966174D01*
X2954110Y-6966174D02*
X2973158Y-6956650D01*
X2973158Y-6956650D02*
X3001729Y-6956650D01*
X3001729Y-6956650D02*
X3020777Y-6966174D01*
X3020777Y-6966174D02*
X3030301Y-6985222D01*
X3030301Y-6985222D02*
X3030301Y-7089984D01*
X3030301Y-6985222D02*
X3039824Y-6966174D01*
X3039824Y-6966174D02*
X3058872Y-6956650D01*
X3058872Y-6956650D02*
X3087443Y-6956650D01*
X3087443Y-6956650D02*
X3106491Y-6966174D01*
X3106491Y-6966174D02*
X3116015Y-6985222D01*
X3116015Y-6985222D02*
X3116015Y-7089984D01*
X3506491Y-6880460D02*
X3335063Y-7137603D01*
X3763634Y-6889984D02*
X3782682Y-6889984D01*
X3782682Y-6889984D02*
X3801729Y-6899508D01*
X3801729Y-6899508D02*
X3811253Y-6909031D01*
X3811253Y-6909031D02*
X3820777Y-6928079D01*
X3820777Y-6928079D02*
X3830301Y-6966174D01*
X3830301Y-6966174D02*
X3830301Y-7013793D01*
X3830301Y-7013793D02*
X3820777Y-7051888D01*
X3820777Y-7051888D02*
X3811253Y-7070936D01*
X3811253Y-7070936D02*
X3801729Y-7080460D01*
X3801729Y-7080460D02*
X3782682Y-7089984D01*
X3782682Y-7089984D02*
X3763634Y-7089984D01*
X3763634Y-7089984D02*
X3744586Y-7080460D01*
X3744586Y-7080460D02*
X3735063Y-7070936D01*
X3735063Y-7070936D02*
X3725539Y-7051888D01*
X3725539Y-7051888D02*
X3716015Y-7013793D01*
X3716015Y-7013793D02*
X3716015Y-6966174D01*
X3716015Y-6966174D02*
X3725539Y-6928079D01*
X3725539Y-6928079D02*
X3735063Y-6909031D01*
X3735063Y-6909031D02*
X3744586Y-6899508D01*
X3744586Y-6899508D02*
X3763634Y-6889984D01*
X3916015Y-7070936D02*
X3925539Y-7080460D01*
X3925539Y-7080460D02*
X3916015Y-7089984D01*
X3916015Y-7089984D02*
X3906491Y-7080460D01*
X3906491Y-7080460D02*
X3916015Y-7070936D01*
X3916015Y-7070936D02*
X3916015Y-7089984D01*
X4049348Y-6889984D02*
X4068396Y-6889984D01*
X4068396Y-6889984D02*
X4087444Y-6899508D01*
X4087444Y-6899508D02*
X4096967Y-6909031D01*
X4096967Y-6909031D02*
X4106491Y-6928079D01*
X4106491Y-6928079D02*
X4116015Y-6966174D01*
X4116015Y-6966174D02*
X4116015Y-7013793D01*
X4116015Y-7013793D02*
X4106491Y-7051888D01*
X4106491Y-7051888D02*
X4096967Y-7070936D01*
X4096967Y-7070936D02*
X4087444Y-7080460D01*
X4087444Y-7080460D02*
X4068396Y-7089984D01*
X4068396Y-7089984D02*
X4049348Y-7089984D01*
X4049348Y-7089984D02*
X4030301Y-7080460D01*
X4030301Y-7080460D02*
X4020777Y-7070936D01*
X4020777Y-7070936D02*
X4011253Y-7051888D01*
X4011253Y-7051888D02*
X4001729Y-7013793D01*
X4001729Y-7013793D02*
X4001729Y-6966174D01*
X4001729Y-6966174D02*
X4011253Y-6928079D01*
X4011253Y-6928079D02*
X4020777Y-6909031D01*
X4020777Y-6909031D02*
X4030301Y-6899508D01*
X4030301Y-6899508D02*
X4049348Y-6889984D01*
X4287444Y-6956650D02*
X4287444Y-7089984D01*
X4239825Y-6880460D02*
X4192206Y-7023317D01*
X4192206Y-7023317D02*
X4316015Y-7023317D01*
X4373158Y-6889984D02*
X4506491Y-6889984D01*
X4506491Y-6889984D02*
X4420777Y-7089984D01*
X4573158Y-6909031D02*
X4582682Y-6899508D01*
X4582682Y-6899508D02*
X4601729Y-6889984D01*
X4601729Y-6889984D02*
X4649349Y-6889984D01*
X4649349Y-6889984D02*
X4668396Y-6899508D01*
X4668396Y-6899508D02*
X4677920Y-6909031D01*
X4677920Y-6909031D02*
X4687444Y-6928079D01*
X4687444Y-6928079D02*
X4687444Y-6947127D01*
X4687444Y-6947127D02*
X4677920Y-6975698D01*
X4677920Y-6975698D02*
X4563634Y-7089984D01*
X4563634Y-7089984D02*
X4687444Y-7089984D01*
X4763634Y-6889984D02*
X4763634Y-6928079D01*
X4839825Y-6889984D02*
X4839825Y-6928079D01*
X5135063Y-7166174D02*
X5125539Y-7156650D01*
X5125539Y-7156650D02*
X5106491Y-7128079D01*
X5106491Y-7128079D02*
X5096968Y-7109031D01*
X5096968Y-7109031D02*
X5087444Y-7080460D01*
X5087444Y-7080460D02*
X5077920Y-7032841D01*
X5077920Y-7032841D02*
X5077920Y-6994746D01*
X5077920Y-6994746D02*
X5087444Y-6947127D01*
X5087444Y-6947127D02*
X5096968Y-6918555D01*
X5096968Y-6918555D02*
X5106491Y-6899508D01*
X5106491Y-6899508D02*
X5125539Y-6870936D01*
X5125539Y-6870936D02*
X5135063Y-6861412D01*
X5239825Y-6975698D02*
X5220777Y-6966174D01*
X5220777Y-6966174D02*
X5211253Y-6956650D01*
X5211253Y-6956650D02*
X5201730Y-6937603D01*
X5201730Y-6937603D02*
X5201730Y-6928079D01*
X5201730Y-6928079D02*
X5211253Y-6909031D01*
X5211253Y-6909031D02*
X5220777Y-6899508D01*
X5220777Y-6899508D02*
X5239825Y-6889984D01*
X5239825Y-6889984D02*
X5277920Y-6889984D01*
X5277920Y-6889984D02*
X5296968Y-6899508D01*
X5296968Y-6899508D02*
X5306491Y-6909031D01*
X5306491Y-6909031D02*
X5316015Y-6928079D01*
X5316015Y-6928079D02*
X5316015Y-6937603D01*
X5316015Y-6937603D02*
X5306491Y-6956650D01*
X5306491Y-6956650D02*
X5296968Y-6966174D01*
X5296968Y-6966174D02*
X5277920Y-6975698D01*
X5277920Y-6975698D02*
X5239825Y-6975698D01*
X5239825Y-6975698D02*
X5220777Y-6985222D01*
X5220777Y-6985222D02*
X5211253Y-6994746D01*
X5211253Y-6994746D02*
X5201730Y-7013793D01*
X5201730Y-7013793D02*
X5201730Y-7051888D01*
X5201730Y-7051888D02*
X5211253Y-7070936D01*
X5211253Y-7070936D02*
X5220777Y-7080460D01*
X5220777Y-7080460D02*
X5239825Y-7089984D01*
X5239825Y-7089984D02*
X5277920Y-7089984D01*
X5277920Y-7089984D02*
X5296968Y-7080460D01*
X5296968Y-7080460D02*
X5306491Y-7070936D01*
X5306491Y-7070936D02*
X5316015Y-7051888D01*
X5316015Y-7051888D02*
X5316015Y-7013793D01*
X5316015Y-7013793D02*
X5306491Y-6994746D01*
X5306491Y-6994746D02*
X5296968Y-6985222D01*
X5296968Y-6985222D02*
X5277920Y-6975698D01*
X5554111Y-7089984D02*
X5554111Y-6889984D01*
X5639825Y-7089984D02*
X5639825Y-6985222D01*
X5639825Y-6985222D02*
X5630301Y-6966174D01*
X5630301Y-6966174D02*
X5611253Y-6956650D01*
X5611253Y-6956650D02*
X5582682Y-6956650D01*
X5582682Y-6956650D02*
X5563634Y-6966174D01*
X5563634Y-6966174D02*
X5554111Y-6975698D01*
X5763634Y-7089984D02*
X5744587Y-7080460D01*
X5744587Y-7080460D02*
X5735063Y-7070936D01*
X5735063Y-7070936D02*
X5725539Y-7051888D01*
X5725539Y-7051888D02*
X5725539Y-6994746D01*
X5725539Y-6994746D02*
X5735063Y-6975698D01*
X5735063Y-6975698D02*
X5744587Y-6966174D01*
X5744587Y-6966174D02*
X5763634Y-6956650D01*
X5763634Y-6956650D02*
X5792206Y-6956650D01*
X5792206Y-6956650D02*
X5811253Y-6966174D01*
X5811253Y-6966174D02*
X5820777Y-6975698D01*
X5820777Y-6975698D02*
X5830301Y-6994746D01*
X5830301Y-6994746D02*
X5830301Y-7051888D01*
X5830301Y-7051888D02*
X5820777Y-7070936D01*
X5820777Y-7070936D02*
X5811253Y-7080460D01*
X5811253Y-7080460D02*
X5792206Y-7089984D01*
X5792206Y-7089984D02*
X5763634Y-7089984D01*
X5944587Y-7089984D02*
X5925539Y-7080460D01*
X5925539Y-7080460D02*
X5916015Y-7061412D01*
X5916015Y-7061412D02*
X5916015Y-6889984D01*
X6096968Y-7080460D02*
X6077920Y-7089984D01*
X6077920Y-7089984D02*
X6039825Y-7089984D01*
X6039825Y-7089984D02*
X6020777Y-7080460D01*
X6020777Y-7080460D02*
X6011253Y-7061412D01*
X6011253Y-7061412D02*
X6011253Y-6985222D01*
X6011253Y-6985222D02*
X6020777Y-6966174D01*
X6020777Y-6966174D02*
X6039825Y-6956650D01*
X6039825Y-6956650D02*
X6077920Y-6956650D01*
X6077920Y-6956650D02*
X6096968Y-6966174D01*
X6096968Y-6966174D02*
X6106491Y-6985222D01*
X6106491Y-6985222D02*
X6106491Y-7004269D01*
X6106491Y-7004269D02*
X6011253Y-7023317D01*
X6182682Y-7080460D02*
X6201730Y-7089984D01*
X6201730Y-7089984D02*
X6239825Y-7089984D01*
X6239825Y-7089984D02*
X6258872Y-7080460D01*
X6258872Y-7080460D02*
X6268396Y-7061412D01*
X6268396Y-7061412D02*
X6268396Y-7051888D01*
X6268396Y-7051888D02*
X6258872Y-7032841D01*
X6258872Y-7032841D02*
X6239825Y-7023317D01*
X6239825Y-7023317D02*
X6211253Y-7023317D01*
X6211253Y-7023317D02*
X6192206Y-7013793D01*
X6192206Y-7013793D02*
X6182682Y-6994746D01*
X6182682Y-6994746D02*
X6182682Y-6985222D01*
X6182682Y-6985222D02*
X6192206Y-6966174D01*
X6192206Y-6966174D02*
X6211253Y-6956650D01*
X6211253Y-6956650D02*
X6239825Y-6956650D01*
X6239825Y-6956650D02*
X6258872Y-6966174D01*
X6335063Y-7166174D02*
X6344587Y-7156650D01*
X6344587Y-7156650D02*
X6363634Y-7128079D01*
X6363634Y-7128079D02*
X6373158Y-7109031D01*
X6373158Y-7109031D02*
X6382682Y-7080460D01*
X6382682Y-7080460D02*
X6392206Y-7032841D01*
X6392206Y-7032841D02*
X6392206Y-6994746D01*
X6392206Y-6994746D02*
X6382682Y-6947127D01*
X6382682Y-6947127D02*
X6373158Y-6918555D01*
X6373158Y-6918555D02*
X6363634Y-6899508D01*
X6363634Y-6899508D02*
X6344587Y-6870936D01*
X6344587Y-6870936D02*
X6335063Y-6861412D01*
D15*
X1408000Y-7186500D02*
X1560000Y-7338500D01*
X1560000Y-7186500D02*
X1408000Y-7338500D01*
X1560000Y-7262500D02*
G75*
G02*
X1408000Y-7262500I-76000J0D01*
G01*
X1408000Y-7262500D02*
G75*
G02*
X1560000Y-7262500I76000J0D01*
G01*
D11*
X1925539Y-7353984D02*
X1811253Y-7353984D01*
X1868396Y-7353984D02*
X1868396Y-7153984D01*
X1868396Y-7153984D02*
X1849348Y-7182555D01*
X1849348Y-7182555D02*
X1830301Y-7201603D01*
X1830301Y-7201603D02*
X1811253Y-7211127D01*
X2011253Y-7334936D02*
X2020777Y-7344460D01*
X2020777Y-7344460D02*
X2011253Y-7353984D01*
X2011253Y-7353984D02*
X2001729Y-7344460D01*
X2001729Y-7344460D02*
X2011253Y-7334936D01*
X2011253Y-7334936D02*
X2011253Y-7353984D01*
X2201729Y-7153984D02*
X2106491Y-7153984D01*
X2106491Y-7153984D02*
X2096967Y-7249222D01*
X2096967Y-7249222D02*
X2106491Y-7239698D01*
X2106491Y-7239698D02*
X2125539Y-7230174D01*
X2125539Y-7230174D02*
X2173158Y-7230174D01*
X2173158Y-7230174D02*
X2192205Y-7239698D01*
X2192205Y-7239698D02*
X2201729Y-7249222D01*
X2201729Y-7249222D02*
X2211253Y-7268269D01*
X2211253Y-7268269D02*
X2211253Y-7315888D01*
X2211253Y-7315888D02*
X2201729Y-7334936D01*
X2201729Y-7334936D02*
X2192205Y-7344460D01*
X2192205Y-7344460D02*
X2173158Y-7353984D01*
X2173158Y-7353984D02*
X2125539Y-7353984D01*
X2125539Y-7353984D02*
X2106491Y-7344460D01*
X2106491Y-7344460D02*
X2096967Y-7334936D01*
X2287444Y-7173031D02*
X2296967Y-7163508D01*
X2296967Y-7163508D02*
X2316015Y-7153984D01*
X2316015Y-7153984D02*
X2363634Y-7153984D01*
X2363634Y-7153984D02*
X2382682Y-7163508D01*
X2382682Y-7163508D02*
X2392205Y-7173031D01*
X2392205Y-7173031D02*
X2401729Y-7192079D01*
X2401729Y-7192079D02*
X2401729Y-7211127D01*
X2401729Y-7211127D02*
X2392205Y-7239698D01*
X2392205Y-7239698D02*
X2277920Y-7353984D01*
X2277920Y-7353984D02*
X2401729Y-7353984D01*
X2525539Y-7153984D02*
X2544586Y-7153984D01*
X2544586Y-7153984D02*
X2563634Y-7163508D01*
X2563634Y-7163508D02*
X2573158Y-7173031D01*
X2573158Y-7173031D02*
X2582682Y-7192079D01*
X2582682Y-7192079D02*
X2592205Y-7230174D01*
X2592205Y-7230174D02*
X2592205Y-7277793D01*
X2592205Y-7277793D02*
X2582682Y-7315888D01*
X2582682Y-7315888D02*
X2573158Y-7334936D01*
X2573158Y-7334936D02*
X2563634Y-7344460D01*
X2563634Y-7344460D02*
X2544586Y-7353984D01*
X2544586Y-7353984D02*
X2525539Y-7353984D01*
X2525539Y-7353984D02*
X2506491Y-7344460D01*
X2506491Y-7344460D02*
X2496967Y-7334936D01*
X2496967Y-7334936D02*
X2487444Y-7315888D01*
X2487444Y-7315888D02*
X2477920Y-7277793D01*
X2477920Y-7277793D02*
X2477920Y-7230174D01*
X2477920Y-7230174D02*
X2487444Y-7192079D01*
X2487444Y-7192079D02*
X2496967Y-7173031D01*
X2496967Y-7173031D02*
X2506491Y-7163508D01*
X2506491Y-7163508D02*
X2525539Y-7153984D01*
X2677920Y-7353984D02*
X2677920Y-7220650D01*
X2677920Y-7239698D02*
X2687444Y-7230174D01*
X2687444Y-7230174D02*
X2706491Y-7220650D01*
X2706491Y-7220650D02*
X2735063Y-7220650D01*
X2735063Y-7220650D02*
X2754110Y-7230174D01*
X2754110Y-7230174D02*
X2763634Y-7249222D01*
X2763634Y-7249222D02*
X2763634Y-7353984D01*
X2763634Y-7249222D02*
X2773158Y-7230174D01*
X2773158Y-7230174D02*
X2792205Y-7220650D01*
X2792205Y-7220650D02*
X2820777Y-7220650D01*
X2820777Y-7220650D02*
X2839824Y-7230174D01*
X2839824Y-7230174D02*
X2849348Y-7249222D01*
X2849348Y-7249222D02*
X2849348Y-7353984D01*
X2944586Y-7353984D02*
X2944586Y-7220650D01*
X2944586Y-7239698D02*
X2954110Y-7230174D01*
X2954110Y-7230174D02*
X2973158Y-7220650D01*
X2973158Y-7220650D02*
X3001729Y-7220650D01*
X3001729Y-7220650D02*
X3020777Y-7230174D01*
X3020777Y-7230174D02*
X3030301Y-7249222D01*
X3030301Y-7249222D02*
X3030301Y-7353984D01*
X3030301Y-7249222D02*
X3039824Y-7230174D01*
X3039824Y-7230174D02*
X3058872Y-7220650D01*
X3058872Y-7220650D02*
X3087443Y-7220650D01*
X3087443Y-7220650D02*
X3106491Y-7230174D01*
X3106491Y-7230174D02*
X3116015Y-7249222D01*
X3116015Y-7249222D02*
X3116015Y-7353984D01*
X3506491Y-7144460D02*
X3335063Y-7401603D01*
X3763634Y-7153984D02*
X3782682Y-7153984D01*
X3782682Y-7153984D02*
X3801729Y-7163508D01*
X3801729Y-7163508D02*
X3811253Y-7173031D01*
X3811253Y-7173031D02*
X3820777Y-7192079D01*
X3820777Y-7192079D02*
X3830301Y-7230174D01*
X3830301Y-7230174D02*
X3830301Y-7277793D01*
X3830301Y-7277793D02*
X3820777Y-7315888D01*
X3820777Y-7315888D02*
X3811253Y-7334936D01*
X3811253Y-7334936D02*
X3801729Y-7344460D01*
X3801729Y-7344460D02*
X3782682Y-7353984D01*
X3782682Y-7353984D02*
X3763634Y-7353984D01*
X3763634Y-7353984D02*
X3744586Y-7344460D01*
X3744586Y-7344460D02*
X3735063Y-7334936D01*
X3735063Y-7334936D02*
X3725539Y-7315888D01*
X3725539Y-7315888D02*
X3716015Y-7277793D01*
X3716015Y-7277793D02*
X3716015Y-7230174D01*
X3716015Y-7230174D02*
X3725539Y-7192079D01*
X3725539Y-7192079D02*
X3735063Y-7173031D01*
X3735063Y-7173031D02*
X3744586Y-7163508D01*
X3744586Y-7163508D02*
X3763634Y-7153984D01*
X3916015Y-7334936D02*
X3925539Y-7344460D01*
X3925539Y-7344460D02*
X3916015Y-7353984D01*
X3916015Y-7353984D02*
X3906491Y-7344460D01*
X3906491Y-7344460D02*
X3916015Y-7334936D01*
X3916015Y-7334936D02*
X3916015Y-7353984D01*
X4049348Y-7153984D02*
X4068396Y-7153984D01*
X4068396Y-7153984D02*
X4087444Y-7163508D01*
X4087444Y-7163508D02*
X4096967Y-7173031D01*
X4096967Y-7173031D02*
X4106491Y-7192079D01*
X4106491Y-7192079D02*
X4116015Y-7230174D01*
X4116015Y-7230174D02*
X4116015Y-7277793D01*
X4116015Y-7277793D02*
X4106491Y-7315888D01*
X4106491Y-7315888D02*
X4096967Y-7334936D01*
X4096967Y-7334936D02*
X4087444Y-7344460D01*
X4087444Y-7344460D02*
X4068396Y-7353984D01*
X4068396Y-7353984D02*
X4049348Y-7353984D01*
X4049348Y-7353984D02*
X4030301Y-7344460D01*
X4030301Y-7344460D02*
X4020777Y-7334936D01*
X4020777Y-7334936D02*
X4011253Y-7315888D01*
X4011253Y-7315888D02*
X4001729Y-7277793D01*
X4001729Y-7277793D02*
X4001729Y-7230174D01*
X4001729Y-7230174D02*
X4011253Y-7192079D01*
X4011253Y-7192079D02*
X4020777Y-7173031D01*
X4020777Y-7173031D02*
X4030301Y-7163508D01*
X4030301Y-7163508D02*
X4049348Y-7153984D01*
X4296968Y-7153984D02*
X4201729Y-7153984D01*
X4201729Y-7153984D02*
X4192206Y-7249222D01*
X4192206Y-7249222D02*
X4201729Y-7239698D01*
X4201729Y-7239698D02*
X4220777Y-7230174D01*
X4220777Y-7230174D02*
X4268396Y-7230174D01*
X4268396Y-7230174D02*
X4287444Y-7239698D01*
X4287444Y-7239698D02*
X4296968Y-7249222D01*
X4296968Y-7249222D02*
X4306491Y-7268269D01*
X4306491Y-7268269D02*
X4306491Y-7315888D01*
X4306491Y-7315888D02*
X4296968Y-7334936D01*
X4296968Y-7334936D02*
X4287444Y-7344460D01*
X4287444Y-7344460D02*
X4268396Y-7353984D01*
X4268396Y-7353984D02*
X4220777Y-7353984D01*
X4220777Y-7353984D02*
X4201729Y-7344460D01*
X4201729Y-7344460D02*
X4192206Y-7334936D01*
X4401729Y-7353984D02*
X4439825Y-7353984D01*
X4439825Y-7353984D02*
X4458872Y-7344460D01*
X4458872Y-7344460D02*
X4468396Y-7334936D01*
X4468396Y-7334936D02*
X4487444Y-7306365D01*
X4487444Y-7306365D02*
X4496968Y-7268269D01*
X4496968Y-7268269D02*
X4496968Y-7192079D01*
X4496968Y-7192079D02*
X4487444Y-7173031D01*
X4487444Y-7173031D02*
X4477920Y-7163508D01*
X4477920Y-7163508D02*
X4458872Y-7153984D01*
X4458872Y-7153984D02*
X4420777Y-7153984D01*
X4420777Y-7153984D02*
X4401729Y-7163508D01*
X4401729Y-7163508D02*
X4392206Y-7173031D01*
X4392206Y-7173031D02*
X4382682Y-7192079D01*
X4382682Y-7192079D02*
X4382682Y-7239698D01*
X4382682Y-7239698D02*
X4392206Y-7258746D01*
X4392206Y-7258746D02*
X4401729Y-7268269D01*
X4401729Y-7268269D02*
X4420777Y-7277793D01*
X4420777Y-7277793D02*
X4458872Y-7277793D01*
X4458872Y-7277793D02*
X4477920Y-7268269D01*
X4477920Y-7268269D02*
X4487444Y-7258746D01*
X4487444Y-7258746D02*
X4496968Y-7239698D01*
X4611253Y-7239698D02*
X4592206Y-7230174D01*
X4592206Y-7230174D02*
X4582682Y-7220650D01*
X4582682Y-7220650D02*
X4573158Y-7201603D01*
X4573158Y-7201603D02*
X4573158Y-7192079D01*
X4573158Y-7192079D02*
X4582682Y-7173031D01*
X4582682Y-7173031D02*
X4592206Y-7163508D01*
X4592206Y-7163508D02*
X4611253Y-7153984D01*
X4611253Y-7153984D02*
X4649349Y-7153984D01*
X4649349Y-7153984D02*
X4668396Y-7163508D01*
X4668396Y-7163508D02*
X4677920Y-7173031D01*
X4677920Y-7173031D02*
X4687444Y-7192079D01*
X4687444Y-7192079D02*
X4687444Y-7201603D01*
X4687444Y-7201603D02*
X4677920Y-7220650D01*
X4677920Y-7220650D02*
X4668396Y-7230174D01*
X4668396Y-7230174D02*
X4649349Y-7239698D01*
X4649349Y-7239698D02*
X4611253Y-7239698D01*
X4611253Y-7239698D02*
X4592206Y-7249222D01*
X4592206Y-7249222D02*
X4582682Y-7258746D01*
X4582682Y-7258746D02*
X4573158Y-7277793D01*
X4573158Y-7277793D02*
X4573158Y-7315888D01*
X4573158Y-7315888D02*
X4582682Y-7334936D01*
X4582682Y-7334936D02*
X4592206Y-7344460D01*
X4592206Y-7344460D02*
X4611253Y-7353984D01*
X4611253Y-7353984D02*
X4649349Y-7353984D01*
X4649349Y-7353984D02*
X4668396Y-7344460D01*
X4668396Y-7344460D02*
X4677920Y-7334936D01*
X4677920Y-7334936D02*
X4687444Y-7315888D01*
X4687444Y-7315888D02*
X4687444Y-7277793D01*
X4687444Y-7277793D02*
X4677920Y-7258746D01*
X4677920Y-7258746D02*
X4668396Y-7249222D01*
X4668396Y-7249222D02*
X4649349Y-7239698D01*
X4763634Y-7153984D02*
X4763634Y-7192079D01*
X4839825Y-7153984D02*
X4839825Y-7192079D01*
X5135063Y-7430174D02*
X5125539Y-7420650D01*
X5125539Y-7420650D02*
X5106491Y-7392079D01*
X5106491Y-7392079D02*
X5096968Y-7373031D01*
X5096968Y-7373031D02*
X5087444Y-7344460D01*
X5087444Y-7344460D02*
X5077920Y-7296841D01*
X5077920Y-7296841D02*
X5077920Y-7258746D01*
X5077920Y-7258746D02*
X5087444Y-7211127D01*
X5087444Y-7211127D02*
X5096968Y-7182555D01*
X5096968Y-7182555D02*
X5106491Y-7163508D01*
X5106491Y-7163508D02*
X5125539Y-7134936D01*
X5125539Y-7134936D02*
X5135063Y-7125412D01*
X5201730Y-7173031D02*
X5211253Y-7163508D01*
X5211253Y-7163508D02*
X5230301Y-7153984D01*
X5230301Y-7153984D02*
X5277920Y-7153984D01*
X5277920Y-7153984D02*
X5296968Y-7163508D01*
X5296968Y-7163508D02*
X5306491Y-7173031D01*
X5306491Y-7173031D02*
X5316015Y-7192079D01*
X5316015Y-7192079D02*
X5316015Y-7211127D01*
X5316015Y-7211127D02*
X5306491Y-7239698D01*
X5306491Y-7239698D02*
X5192206Y-7353984D01*
X5192206Y-7353984D02*
X5316015Y-7353984D01*
X5554111Y-7353984D02*
X5554111Y-7153984D01*
X5639825Y-7353984D02*
X5639825Y-7249222D01*
X5639825Y-7249222D02*
X5630301Y-7230174D01*
X5630301Y-7230174D02*
X5611253Y-7220650D01*
X5611253Y-7220650D02*
X5582682Y-7220650D01*
X5582682Y-7220650D02*
X5563634Y-7230174D01*
X5563634Y-7230174D02*
X5554111Y-7239698D01*
X5763634Y-7353984D02*
X5744587Y-7344460D01*
X5744587Y-7344460D02*
X5735063Y-7334936D01*
X5735063Y-7334936D02*
X5725539Y-7315888D01*
X5725539Y-7315888D02*
X5725539Y-7258746D01*
X5725539Y-7258746D02*
X5735063Y-7239698D01*
X5735063Y-7239698D02*
X5744587Y-7230174D01*
X5744587Y-7230174D02*
X5763634Y-7220650D01*
X5763634Y-7220650D02*
X5792206Y-7220650D01*
X5792206Y-7220650D02*
X5811253Y-7230174D01*
X5811253Y-7230174D02*
X5820777Y-7239698D01*
X5820777Y-7239698D02*
X5830301Y-7258746D01*
X5830301Y-7258746D02*
X5830301Y-7315888D01*
X5830301Y-7315888D02*
X5820777Y-7334936D01*
X5820777Y-7334936D02*
X5811253Y-7344460D01*
X5811253Y-7344460D02*
X5792206Y-7353984D01*
X5792206Y-7353984D02*
X5763634Y-7353984D01*
X5944587Y-7353984D02*
X5925539Y-7344460D01*
X5925539Y-7344460D02*
X5916015Y-7325412D01*
X5916015Y-7325412D02*
X5916015Y-7153984D01*
X6096968Y-7344460D02*
X6077920Y-7353984D01*
X6077920Y-7353984D02*
X6039825Y-7353984D01*
X6039825Y-7353984D02*
X6020777Y-7344460D01*
X6020777Y-7344460D02*
X6011253Y-7325412D01*
X6011253Y-7325412D02*
X6011253Y-7249222D01*
X6011253Y-7249222D02*
X6020777Y-7230174D01*
X6020777Y-7230174D02*
X6039825Y-7220650D01*
X6039825Y-7220650D02*
X6077920Y-7220650D01*
X6077920Y-7220650D02*
X6096968Y-7230174D01*
X6096968Y-7230174D02*
X6106491Y-7249222D01*
X6106491Y-7249222D02*
X6106491Y-7268269D01*
X6106491Y-7268269D02*
X6011253Y-7287317D01*
X6182682Y-7344460D02*
X6201730Y-7353984D01*
X6201730Y-7353984D02*
X6239825Y-7353984D01*
X6239825Y-7353984D02*
X6258872Y-7344460D01*
X6258872Y-7344460D02*
X6268396Y-7325412D01*
X6268396Y-7325412D02*
X6268396Y-7315888D01*
X6268396Y-7315888D02*
X6258872Y-7296841D01*
X6258872Y-7296841D02*
X6239825Y-7287317D01*
X6239825Y-7287317D02*
X6211253Y-7287317D01*
X6211253Y-7287317D02*
X6192206Y-7277793D01*
X6192206Y-7277793D02*
X6182682Y-7258746D01*
X6182682Y-7258746D02*
X6182682Y-7249222D01*
X6182682Y-7249222D02*
X6192206Y-7230174D01*
X6192206Y-7230174D02*
X6211253Y-7220650D01*
X6211253Y-7220650D02*
X6239825Y-7220650D01*
X6239825Y-7220650D02*
X6258872Y-7230174D01*
X6335063Y-7430174D02*
X6344587Y-7420650D01*
X6344587Y-7420650D02*
X6363634Y-7392079D01*
X6363634Y-7392079D02*
X6373158Y-7373031D01*
X6373158Y-7373031D02*
X6382682Y-7344460D01*
X6382682Y-7344460D02*
X6392206Y-7296841D01*
X6392206Y-7296841D02*
X6392206Y-7258746D01*
X6392206Y-7258746D02*
X6382682Y-7211127D01*
X6382682Y-7211127D02*
X6373158Y-7182555D01*
X6373158Y-7182555D02*
X6363634Y-7163508D01*
X6363634Y-7163508D02*
X6344587Y-7134936D01*
X6344587Y-7134936D02*
X6335063Y-7125412D01*
M02*
