%TF.GenerationSoftware,KiCad,Pcbnew,8.0.7*%
%TF.CreationDate,2025-05-02T19:06:01-05:00*%
%TF.ProjectId,PCB_Glasses,5043425f-476c-4617-9373-65732e6b6963,rev?*%
%TF.SameCoordinates,Original*%
%TF.FileFunction,Drillmap*%
%TF.FilePolarity,Positive*%
%FSLAX45Y45*%
G04 Gerber Fmt 4.5, Leading zero omitted, Abs format (unit mm)*
G04 Created by KiCad (PCBNEW 8.0.7) date 2025-05-02 19:06:01*
%MOMM*%
%LPD*%
G01*
G04 APERTURE LIST*
%ADD10C,0.050000*%
%ADD11C,0.200000*%
%ADD12C,0.100000*%
G04 APERTURE END LIST*
D10*
X7896500Y-2984500D02*
G75*
G02*
X7556500Y-2984500I-170000J0D01*
G01*
X7556500Y-2984500D02*
G75*
G02*
X7896500Y-2984500I170000J0D01*
G01*
X2540000Y-2984500D02*
G75*
G02*
X2200000Y-2984500I-170000J0D01*
G01*
X2200000Y-2984500D02*
G75*
G02*
X2540000Y-2984500I170000J0D01*
G01*
X1975000Y-2650000D02*
X7975000Y-2650000D01*
X7975000Y-5150000D01*
X1975000Y-5150000D01*
X1975000Y-2650000D01*
D11*
D12*
X3589500Y-4161000D02*
X3649500Y-4221000D01*
X3649500Y-4161000D02*
X3589500Y-4221000D01*
X6066000Y-3653000D02*
X6126000Y-3713000D01*
X6126000Y-3653000D02*
X6066000Y-3713000D01*
X5493100Y-3450000D02*
G75*
G02*
X5416900Y-3450000I-38100J0D01*
G01*
X5416900Y-3450000D02*
G75*
G02*
X5493100Y-3450000I38100J0D01*
G01*
X5747100Y-3450000D02*
G75*
G02*
X5670900Y-3450000I-38100J0D01*
G01*
X5670900Y-3450000D02*
G75*
G02*
X5747100Y-3450000I38100J0D01*
G01*
X6001100Y-3450000D02*
G75*
G02*
X5924900Y-3450000I-38100J0D01*
G01*
X5924900Y-3450000D02*
G75*
G02*
X6001100Y-3450000I38100J0D01*
G01*
X6255100Y-3450000D02*
G75*
G02*
X6178900Y-3450000I-38100J0D01*
G01*
X6178900Y-3450000D02*
G75*
G02*
X6255100Y-3450000I38100J0D01*
G01*
X6509100Y-3450000D02*
G75*
G02*
X6432900Y-3450000I-38100J0D01*
G01*
X6432900Y-3450000D02*
G75*
G02*
X6509100Y-3450000I38100J0D01*
G01*
X6763100Y-3450000D02*
G75*
G02*
X6686900Y-3450000I-38100J0D01*
G01*
X6686900Y-3450000D02*
G75*
G02*
X6763100Y-3450000I38100J0D01*
G01*
X7017100Y-3450000D02*
G75*
G02*
X6940900Y-3450000I-38100J0D01*
G01*
X6940900Y-3450000D02*
G75*
G02*
X7017100Y-3450000I38100J0D01*
G01*
X7271100Y-3450000D02*
G75*
G02*
X7194900Y-3450000I-38100J0D01*
G01*
X7194900Y-3450000D02*
G75*
G02*
X7271100Y-3450000I38100J0D01*
G01*
X6425000Y-2877500D02*
X6425000Y-2972500D01*
X6377500Y-2925000D02*
X6472500Y-2925000D01*
X6675000Y-2877500D02*
X6675000Y-2972500D01*
X6627500Y-2925000D02*
X6722500Y-2925000D01*
X6925000Y-2877500D02*
X6925000Y-2972500D01*
X6877500Y-2925000D02*
X6972500Y-2925000D01*
X7175000Y-2877500D02*
X7175000Y-2972500D01*
X7127500Y-2925000D02*
X7222500Y-2925000D01*
X2360356Y-3560356D02*
X2360356Y-3489644D01*
X2289644Y-3489644D01*
X2289644Y-3560356D01*
X2360356Y-3560356D01*
X2360356Y-3810356D02*
X2360356Y-3739644D01*
X2289644Y-3739644D01*
X2289644Y-3810356D01*
X2360356Y-3810356D01*
X4295756Y-4367356D02*
X4295756Y-4296644D01*
X4225044Y-4296644D01*
X4225044Y-4367356D01*
X4295756Y-4367356D01*
X4310400Y-4282000D02*
X4210400Y-4282000D01*
X4210400Y-4382000D02*
G75*
G02*
X4210400Y-4282000I0J50000D01*
G01*
X4210400Y-4382000D02*
X4310400Y-4382000D01*
X4310400Y-4382000D02*
G75*
G03*
X4310400Y-4282000I0J50000D01*
G01*
X4296856Y-4177356D02*
X4296856Y-4106644D01*
X4226144Y-4106644D01*
X4226144Y-4177356D01*
X4296856Y-4177356D01*
X4311500Y-4092000D02*
X4211500Y-4092000D01*
X4211500Y-4192000D02*
G75*
G02*
X4211500Y-4092000I0J50000D01*
G01*
X4211500Y-4192000D02*
X4311500Y-4192000D01*
X4311500Y-4192000D02*
G75*
G03*
X4311500Y-4092000I0J50000D01*
G01*
X7735356Y-4210356D02*
X7735356Y-4139644D01*
X7664644Y-4139644D01*
X7664644Y-4210356D01*
X7735356Y-4210356D01*
X7735356Y-4460356D02*
X7735356Y-4389644D01*
X7664644Y-4389644D01*
X7664644Y-4460356D01*
X7735356Y-4460356D01*
D11*
X2233277Y-5463984D02*
X2233277Y-5263984D01*
X2233277Y-5263984D02*
X2280896Y-5263984D01*
X2280896Y-5263984D02*
X2309467Y-5273508D01*
X2309467Y-5273508D02*
X2328515Y-5292555D01*
X2328515Y-5292555D02*
X2338039Y-5311603D01*
X2338039Y-5311603D02*
X2347563Y-5349698D01*
X2347563Y-5349698D02*
X2347563Y-5378270D01*
X2347563Y-5378270D02*
X2338039Y-5416365D01*
X2338039Y-5416365D02*
X2328515Y-5435412D01*
X2328515Y-5435412D02*
X2309467Y-5454460D01*
X2309467Y-5454460D02*
X2280896Y-5463984D01*
X2280896Y-5463984D02*
X2233277Y-5463984D01*
X2433277Y-5463984D02*
X2433277Y-5330650D01*
X2433277Y-5368746D02*
X2442801Y-5349698D01*
X2442801Y-5349698D02*
X2452324Y-5340174D01*
X2452324Y-5340174D02*
X2471372Y-5330650D01*
X2471372Y-5330650D02*
X2490420Y-5330650D01*
X2557086Y-5463984D02*
X2557086Y-5330650D01*
X2557086Y-5263984D02*
X2547563Y-5273508D01*
X2547563Y-5273508D02*
X2557086Y-5283031D01*
X2557086Y-5283031D02*
X2566610Y-5273508D01*
X2566610Y-5273508D02*
X2557086Y-5263984D01*
X2557086Y-5263984D02*
X2557086Y-5283031D01*
X2680896Y-5463984D02*
X2661848Y-5454460D01*
X2661848Y-5454460D02*
X2652324Y-5435412D01*
X2652324Y-5435412D02*
X2652324Y-5263984D01*
X2785658Y-5463984D02*
X2766610Y-5454460D01*
X2766610Y-5454460D02*
X2757086Y-5435412D01*
X2757086Y-5435412D02*
X2757086Y-5263984D01*
X3014229Y-5463984D02*
X3014229Y-5263984D01*
X3014229Y-5263984D02*
X3080896Y-5406841D01*
X3080896Y-5406841D02*
X3147562Y-5263984D01*
X3147562Y-5263984D02*
X3147562Y-5463984D01*
X3328515Y-5463984D02*
X3328515Y-5359222D01*
X3328515Y-5359222D02*
X3318991Y-5340174D01*
X3318991Y-5340174D02*
X3299943Y-5330650D01*
X3299943Y-5330650D02*
X3261848Y-5330650D01*
X3261848Y-5330650D02*
X3242801Y-5340174D01*
X3328515Y-5454460D02*
X3309467Y-5463984D01*
X3309467Y-5463984D02*
X3261848Y-5463984D01*
X3261848Y-5463984D02*
X3242801Y-5454460D01*
X3242801Y-5454460D02*
X3233277Y-5435412D01*
X3233277Y-5435412D02*
X3233277Y-5416365D01*
X3233277Y-5416365D02*
X3242801Y-5397317D01*
X3242801Y-5397317D02*
X3261848Y-5387793D01*
X3261848Y-5387793D02*
X3309467Y-5387793D01*
X3309467Y-5387793D02*
X3328515Y-5378270D01*
X3423753Y-5330650D02*
X3423753Y-5530650D01*
X3423753Y-5340174D02*
X3442801Y-5330650D01*
X3442801Y-5330650D02*
X3480896Y-5330650D01*
X3480896Y-5330650D02*
X3499943Y-5340174D01*
X3499943Y-5340174D02*
X3509467Y-5349698D01*
X3509467Y-5349698D02*
X3518991Y-5368746D01*
X3518991Y-5368746D02*
X3518991Y-5425889D01*
X3518991Y-5425889D02*
X3509467Y-5444936D01*
X3509467Y-5444936D02*
X3499943Y-5454460D01*
X3499943Y-5454460D02*
X3480896Y-5463984D01*
X3480896Y-5463984D02*
X3442801Y-5463984D01*
X3442801Y-5463984D02*
X3423753Y-5454460D01*
X3604705Y-5444936D02*
X3614229Y-5454460D01*
X3614229Y-5454460D02*
X3604705Y-5463984D01*
X3604705Y-5463984D02*
X3595182Y-5454460D01*
X3595182Y-5454460D02*
X3604705Y-5444936D01*
X3604705Y-5444936D02*
X3604705Y-5463984D01*
X3604705Y-5340174D02*
X3614229Y-5349698D01*
X3614229Y-5349698D02*
X3604705Y-5359222D01*
X3604705Y-5359222D02*
X3595182Y-5349698D01*
X3595182Y-5349698D02*
X3604705Y-5340174D01*
X3604705Y-5340174D02*
X3604705Y-5359222D01*
D12*
X1912500Y-5762500D02*
X1972500Y-5822500D01*
X1972500Y-5762500D02*
X1912500Y-5822500D01*
D11*
X2271372Y-5683984D02*
X2290420Y-5683984D01*
X2290420Y-5683984D02*
X2309467Y-5693508D01*
X2309467Y-5693508D02*
X2318991Y-5703031D01*
X2318991Y-5703031D02*
X2328515Y-5722079D01*
X2328515Y-5722079D02*
X2338039Y-5760174D01*
X2338039Y-5760174D02*
X2338039Y-5807793D01*
X2338039Y-5807793D02*
X2328515Y-5845888D01*
X2328515Y-5845888D02*
X2318991Y-5864936D01*
X2318991Y-5864936D02*
X2309467Y-5874460D01*
X2309467Y-5874460D02*
X2290420Y-5883984D01*
X2290420Y-5883984D02*
X2271372Y-5883984D01*
X2271372Y-5883984D02*
X2252324Y-5874460D01*
X2252324Y-5874460D02*
X2242801Y-5864936D01*
X2242801Y-5864936D02*
X2233277Y-5845888D01*
X2233277Y-5845888D02*
X2223753Y-5807793D01*
X2223753Y-5807793D02*
X2223753Y-5760174D01*
X2223753Y-5760174D02*
X2233277Y-5722079D01*
X2233277Y-5722079D02*
X2242801Y-5703031D01*
X2242801Y-5703031D02*
X2252324Y-5693508D01*
X2252324Y-5693508D02*
X2271372Y-5683984D01*
X2423753Y-5864936D02*
X2433277Y-5874460D01*
X2433277Y-5874460D02*
X2423753Y-5883984D01*
X2423753Y-5883984D02*
X2414229Y-5874460D01*
X2414229Y-5874460D02*
X2423753Y-5864936D01*
X2423753Y-5864936D02*
X2423753Y-5883984D01*
X2604705Y-5683984D02*
X2566610Y-5683984D01*
X2566610Y-5683984D02*
X2547563Y-5693508D01*
X2547563Y-5693508D02*
X2538039Y-5703031D01*
X2538039Y-5703031D02*
X2518991Y-5731603D01*
X2518991Y-5731603D02*
X2509467Y-5769698D01*
X2509467Y-5769698D02*
X2509467Y-5845888D01*
X2509467Y-5845888D02*
X2518991Y-5864936D01*
X2518991Y-5864936D02*
X2528515Y-5874460D01*
X2528515Y-5874460D02*
X2547563Y-5883984D01*
X2547563Y-5883984D02*
X2585658Y-5883984D01*
X2585658Y-5883984D02*
X2604705Y-5874460D01*
X2604705Y-5874460D02*
X2614229Y-5864936D01*
X2614229Y-5864936D02*
X2623753Y-5845888D01*
X2623753Y-5845888D02*
X2623753Y-5798269D01*
X2623753Y-5798269D02*
X2614229Y-5779222D01*
X2614229Y-5779222D02*
X2604705Y-5769698D01*
X2604705Y-5769698D02*
X2585658Y-5760174D01*
X2585658Y-5760174D02*
X2547563Y-5760174D01*
X2547563Y-5760174D02*
X2528515Y-5769698D01*
X2528515Y-5769698D02*
X2518991Y-5779222D01*
X2518991Y-5779222D02*
X2509467Y-5798269D01*
X2747563Y-5683984D02*
X2766610Y-5683984D01*
X2766610Y-5683984D02*
X2785658Y-5693508D01*
X2785658Y-5693508D02*
X2795182Y-5703031D01*
X2795182Y-5703031D02*
X2804705Y-5722079D01*
X2804705Y-5722079D02*
X2814229Y-5760174D01*
X2814229Y-5760174D02*
X2814229Y-5807793D01*
X2814229Y-5807793D02*
X2804705Y-5845888D01*
X2804705Y-5845888D02*
X2795182Y-5864936D01*
X2795182Y-5864936D02*
X2785658Y-5874460D01*
X2785658Y-5874460D02*
X2766610Y-5883984D01*
X2766610Y-5883984D02*
X2747563Y-5883984D01*
X2747563Y-5883984D02*
X2728515Y-5874460D01*
X2728515Y-5874460D02*
X2718991Y-5864936D01*
X2718991Y-5864936D02*
X2709467Y-5845888D01*
X2709467Y-5845888D02*
X2699944Y-5807793D01*
X2699944Y-5807793D02*
X2699944Y-5760174D01*
X2699944Y-5760174D02*
X2709467Y-5722079D01*
X2709467Y-5722079D02*
X2718991Y-5703031D01*
X2718991Y-5703031D02*
X2728515Y-5693508D01*
X2728515Y-5693508D02*
X2747563Y-5683984D01*
X2938039Y-5683984D02*
X2957086Y-5683984D01*
X2957086Y-5683984D02*
X2976134Y-5693508D01*
X2976134Y-5693508D02*
X2985658Y-5703031D01*
X2985658Y-5703031D02*
X2995182Y-5722079D01*
X2995182Y-5722079D02*
X3004705Y-5760174D01*
X3004705Y-5760174D02*
X3004705Y-5807793D01*
X3004705Y-5807793D02*
X2995182Y-5845888D01*
X2995182Y-5845888D02*
X2985658Y-5864936D01*
X2985658Y-5864936D02*
X2976134Y-5874460D01*
X2976134Y-5874460D02*
X2957086Y-5883984D01*
X2957086Y-5883984D02*
X2938039Y-5883984D01*
X2938039Y-5883984D02*
X2918991Y-5874460D01*
X2918991Y-5874460D02*
X2909467Y-5864936D01*
X2909467Y-5864936D02*
X2899943Y-5845888D01*
X2899943Y-5845888D02*
X2890420Y-5807793D01*
X2890420Y-5807793D02*
X2890420Y-5760174D01*
X2890420Y-5760174D02*
X2899943Y-5722079D01*
X2899943Y-5722079D02*
X2909467Y-5703031D01*
X2909467Y-5703031D02*
X2918991Y-5693508D01*
X2918991Y-5693508D02*
X2938039Y-5683984D01*
X3090420Y-5883984D02*
X3090420Y-5750650D01*
X3090420Y-5769698D02*
X3099943Y-5760174D01*
X3099943Y-5760174D02*
X3118991Y-5750650D01*
X3118991Y-5750650D02*
X3147563Y-5750650D01*
X3147563Y-5750650D02*
X3166610Y-5760174D01*
X3166610Y-5760174D02*
X3176134Y-5779222D01*
X3176134Y-5779222D02*
X3176134Y-5883984D01*
X3176134Y-5779222D02*
X3185658Y-5760174D01*
X3185658Y-5760174D02*
X3204705Y-5750650D01*
X3204705Y-5750650D02*
X3233277Y-5750650D01*
X3233277Y-5750650D02*
X3252324Y-5760174D01*
X3252324Y-5760174D02*
X3261848Y-5779222D01*
X3261848Y-5779222D02*
X3261848Y-5883984D01*
X3357086Y-5883984D02*
X3357086Y-5750650D01*
X3357086Y-5769698D02*
X3366610Y-5760174D01*
X3366610Y-5760174D02*
X3385658Y-5750650D01*
X3385658Y-5750650D02*
X3414229Y-5750650D01*
X3414229Y-5750650D02*
X3433277Y-5760174D01*
X3433277Y-5760174D02*
X3442801Y-5779222D01*
X3442801Y-5779222D02*
X3442801Y-5883984D01*
X3442801Y-5779222D02*
X3452324Y-5760174D01*
X3452324Y-5760174D02*
X3471372Y-5750650D01*
X3471372Y-5750650D02*
X3499943Y-5750650D01*
X3499943Y-5750650D02*
X3518991Y-5760174D01*
X3518991Y-5760174D02*
X3528515Y-5779222D01*
X3528515Y-5779222D02*
X3528515Y-5883984D01*
X3918991Y-5674460D02*
X3747563Y-5931603D01*
X4176134Y-5683984D02*
X4195182Y-5683984D01*
X4195182Y-5683984D02*
X4214229Y-5693508D01*
X4214229Y-5693508D02*
X4223753Y-5703031D01*
X4223753Y-5703031D02*
X4233277Y-5722079D01*
X4233277Y-5722079D02*
X4242801Y-5760174D01*
X4242801Y-5760174D02*
X4242801Y-5807793D01*
X4242801Y-5807793D02*
X4233277Y-5845888D01*
X4233277Y-5845888D02*
X4223753Y-5864936D01*
X4223753Y-5864936D02*
X4214229Y-5874460D01*
X4214229Y-5874460D02*
X4195182Y-5883984D01*
X4195182Y-5883984D02*
X4176134Y-5883984D01*
X4176134Y-5883984D02*
X4157086Y-5874460D01*
X4157086Y-5874460D02*
X4147563Y-5864936D01*
X4147563Y-5864936D02*
X4138039Y-5845888D01*
X4138039Y-5845888D02*
X4128515Y-5807793D01*
X4128515Y-5807793D02*
X4128515Y-5760174D01*
X4128515Y-5760174D02*
X4138039Y-5722079D01*
X4138039Y-5722079D02*
X4147563Y-5703031D01*
X4147563Y-5703031D02*
X4157086Y-5693508D01*
X4157086Y-5693508D02*
X4176134Y-5683984D01*
X4328515Y-5864936D02*
X4338039Y-5874460D01*
X4338039Y-5874460D02*
X4328515Y-5883984D01*
X4328515Y-5883984D02*
X4318991Y-5874460D01*
X4318991Y-5874460D02*
X4328515Y-5864936D01*
X4328515Y-5864936D02*
X4328515Y-5883984D01*
X4461848Y-5683984D02*
X4480896Y-5683984D01*
X4480896Y-5683984D02*
X4499944Y-5693508D01*
X4499944Y-5693508D02*
X4509468Y-5703031D01*
X4509468Y-5703031D02*
X4518991Y-5722079D01*
X4518991Y-5722079D02*
X4528515Y-5760174D01*
X4528515Y-5760174D02*
X4528515Y-5807793D01*
X4528515Y-5807793D02*
X4518991Y-5845888D01*
X4518991Y-5845888D02*
X4509468Y-5864936D01*
X4509468Y-5864936D02*
X4499944Y-5874460D01*
X4499944Y-5874460D02*
X4480896Y-5883984D01*
X4480896Y-5883984D02*
X4461848Y-5883984D01*
X4461848Y-5883984D02*
X4442801Y-5874460D01*
X4442801Y-5874460D02*
X4433277Y-5864936D01*
X4433277Y-5864936D02*
X4423753Y-5845888D01*
X4423753Y-5845888D02*
X4414229Y-5807793D01*
X4414229Y-5807793D02*
X4414229Y-5760174D01*
X4414229Y-5760174D02*
X4423753Y-5722079D01*
X4423753Y-5722079D02*
X4433277Y-5703031D01*
X4433277Y-5703031D02*
X4442801Y-5693508D01*
X4442801Y-5693508D02*
X4461848Y-5683984D01*
X4604706Y-5703031D02*
X4614229Y-5693508D01*
X4614229Y-5693508D02*
X4633277Y-5683984D01*
X4633277Y-5683984D02*
X4680896Y-5683984D01*
X4680896Y-5683984D02*
X4699944Y-5693508D01*
X4699944Y-5693508D02*
X4709468Y-5703031D01*
X4709468Y-5703031D02*
X4718991Y-5722079D01*
X4718991Y-5722079D02*
X4718991Y-5741127D01*
X4718991Y-5741127D02*
X4709468Y-5769698D01*
X4709468Y-5769698D02*
X4595182Y-5883984D01*
X4595182Y-5883984D02*
X4718991Y-5883984D01*
X4785658Y-5683984D02*
X4909468Y-5683984D01*
X4909468Y-5683984D02*
X4842801Y-5760174D01*
X4842801Y-5760174D02*
X4871372Y-5760174D01*
X4871372Y-5760174D02*
X4890420Y-5769698D01*
X4890420Y-5769698D02*
X4899944Y-5779222D01*
X4899944Y-5779222D02*
X4909468Y-5798269D01*
X4909468Y-5798269D02*
X4909468Y-5845888D01*
X4909468Y-5845888D02*
X4899944Y-5864936D01*
X4899944Y-5864936D02*
X4890420Y-5874460D01*
X4890420Y-5874460D02*
X4871372Y-5883984D01*
X4871372Y-5883984D02*
X4814229Y-5883984D01*
X4814229Y-5883984D02*
X4795182Y-5874460D01*
X4795182Y-5874460D02*
X4785658Y-5864936D01*
X5080896Y-5683984D02*
X5042801Y-5683984D01*
X5042801Y-5683984D02*
X5023753Y-5693508D01*
X5023753Y-5693508D02*
X5014229Y-5703031D01*
X5014229Y-5703031D02*
X4995182Y-5731603D01*
X4995182Y-5731603D02*
X4985658Y-5769698D01*
X4985658Y-5769698D02*
X4985658Y-5845888D01*
X4985658Y-5845888D02*
X4995182Y-5864936D01*
X4995182Y-5864936D02*
X5004706Y-5874460D01*
X5004706Y-5874460D02*
X5023753Y-5883984D01*
X5023753Y-5883984D02*
X5061849Y-5883984D01*
X5061849Y-5883984D02*
X5080896Y-5874460D01*
X5080896Y-5874460D02*
X5090420Y-5864936D01*
X5090420Y-5864936D02*
X5099944Y-5845888D01*
X5099944Y-5845888D02*
X5099944Y-5798269D01*
X5099944Y-5798269D02*
X5090420Y-5779222D01*
X5090420Y-5779222D02*
X5080896Y-5769698D01*
X5080896Y-5769698D02*
X5061849Y-5760174D01*
X5061849Y-5760174D02*
X5023753Y-5760174D01*
X5023753Y-5760174D02*
X5004706Y-5769698D01*
X5004706Y-5769698D02*
X4995182Y-5779222D01*
X4995182Y-5779222D02*
X4985658Y-5798269D01*
X5176134Y-5683984D02*
X5176134Y-5722079D01*
X5252325Y-5683984D02*
X5252325Y-5722079D01*
X5547563Y-5960174D02*
X5538039Y-5950650D01*
X5538039Y-5950650D02*
X5518991Y-5922079D01*
X5518991Y-5922079D02*
X5509468Y-5903031D01*
X5509468Y-5903031D02*
X5499944Y-5874460D01*
X5499944Y-5874460D02*
X5490420Y-5826841D01*
X5490420Y-5826841D02*
X5490420Y-5788746D01*
X5490420Y-5788746D02*
X5499944Y-5741127D01*
X5499944Y-5741127D02*
X5509468Y-5712555D01*
X5509468Y-5712555D02*
X5518991Y-5693508D01*
X5518991Y-5693508D02*
X5538039Y-5664936D01*
X5538039Y-5664936D02*
X5547563Y-5655412D01*
X5614229Y-5703031D02*
X5623753Y-5693508D01*
X5623753Y-5693508D02*
X5642801Y-5683984D01*
X5642801Y-5683984D02*
X5690420Y-5683984D01*
X5690420Y-5683984D02*
X5709468Y-5693508D01*
X5709468Y-5693508D02*
X5718991Y-5703031D01*
X5718991Y-5703031D02*
X5728515Y-5722079D01*
X5728515Y-5722079D02*
X5728515Y-5741127D01*
X5728515Y-5741127D02*
X5718991Y-5769698D01*
X5718991Y-5769698D02*
X5604706Y-5883984D01*
X5604706Y-5883984D02*
X5728515Y-5883984D01*
X5966610Y-5883984D02*
X5966610Y-5683984D01*
X6052325Y-5883984D02*
X6052325Y-5779222D01*
X6052325Y-5779222D02*
X6042801Y-5760174D01*
X6042801Y-5760174D02*
X6023753Y-5750650D01*
X6023753Y-5750650D02*
X5995182Y-5750650D01*
X5995182Y-5750650D02*
X5976134Y-5760174D01*
X5976134Y-5760174D02*
X5966610Y-5769698D01*
X6176134Y-5883984D02*
X6157087Y-5874460D01*
X6157087Y-5874460D02*
X6147563Y-5864936D01*
X6147563Y-5864936D02*
X6138039Y-5845888D01*
X6138039Y-5845888D02*
X6138039Y-5788746D01*
X6138039Y-5788746D02*
X6147563Y-5769698D01*
X6147563Y-5769698D02*
X6157087Y-5760174D01*
X6157087Y-5760174D02*
X6176134Y-5750650D01*
X6176134Y-5750650D02*
X6204706Y-5750650D01*
X6204706Y-5750650D02*
X6223753Y-5760174D01*
X6223753Y-5760174D02*
X6233277Y-5769698D01*
X6233277Y-5769698D02*
X6242801Y-5788746D01*
X6242801Y-5788746D02*
X6242801Y-5845888D01*
X6242801Y-5845888D02*
X6233277Y-5864936D01*
X6233277Y-5864936D02*
X6223753Y-5874460D01*
X6223753Y-5874460D02*
X6204706Y-5883984D01*
X6204706Y-5883984D02*
X6176134Y-5883984D01*
X6357087Y-5883984D02*
X6338039Y-5874460D01*
X6338039Y-5874460D02*
X6328515Y-5855412D01*
X6328515Y-5855412D02*
X6328515Y-5683984D01*
X6509468Y-5874460D02*
X6490420Y-5883984D01*
X6490420Y-5883984D02*
X6452325Y-5883984D01*
X6452325Y-5883984D02*
X6433277Y-5874460D01*
X6433277Y-5874460D02*
X6423753Y-5855412D01*
X6423753Y-5855412D02*
X6423753Y-5779222D01*
X6423753Y-5779222D02*
X6433277Y-5760174D01*
X6433277Y-5760174D02*
X6452325Y-5750650D01*
X6452325Y-5750650D02*
X6490420Y-5750650D01*
X6490420Y-5750650D02*
X6509468Y-5760174D01*
X6509468Y-5760174D02*
X6518991Y-5779222D01*
X6518991Y-5779222D02*
X6518991Y-5798269D01*
X6518991Y-5798269D02*
X6423753Y-5817317D01*
X6595182Y-5874460D02*
X6614230Y-5883984D01*
X6614230Y-5883984D02*
X6652325Y-5883984D01*
X6652325Y-5883984D02*
X6671372Y-5874460D01*
X6671372Y-5874460D02*
X6680896Y-5855412D01*
X6680896Y-5855412D02*
X6680896Y-5845888D01*
X6680896Y-5845888D02*
X6671372Y-5826841D01*
X6671372Y-5826841D02*
X6652325Y-5817317D01*
X6652325Y-5817317D02*
X6623753Y-5817317D01*
X6623753Y-5817317D02*
X6604706Y-5807793D01*
X6604706Y-5807793D02*
X6595182Y-5788746D01*
X6595182Y-5788746D02*
X6595182Y-5779222D01*
X6595182Y-5779222D02*
X6604706Y-5760174D01*
X6604706Y-5760174D02*
X6623753Y-5750650D01*
X6623753Y-5750650D02*
X6652325Y-5750650D01*
X6652325Y-5750650D02*
X6671372Y-5760174D01*
X6747563Y-5960174D02*
X6757087Y-5950650D01*
X6757087Y-5950650D02*
X6776134Y-5922079D01*
X6776134Y-5922079D02*
X6785658Y-5903031D01*
X6785658Y-5903031D02*
X6795182Y-5874460D01*
X6795182Y-5874460D02*
X6804706Y-5826841D01*
X6804706Y-5826841D02*
X6804706Y-5788746D01*
X6804706Y-5788746D02*
X6795182Y-5741127D01*
X6795182Y-5741127D02*
X6785658Y-5712555D01*
X6785658Y-5712555D02*
X6776134Y-5693508D01*
X6776134Y-5693508D02*
X6757087Y-5664936D01*
X6757087Y-5664936D02*
X6747563Y-5655412D01*
D12*
X1972500Y-6056500D02*
G75*
G02*
X1896300Y-6056500I-38100J0D01*
G01*
X1896300Y-6056500D02*
G75*
G02*
X1972500Y-6056500I38100J0D01*
G01*
D11*
X2271372Y-5947984D02*
X2290420Y-5947984D01*
X2290420Y-5947984D02*
X2309467Y-5957508D01*
X2309467Y-5957508D02*
X2318991Y-5967031D01*
X2318991Y-5967031D02*
X2328515Y-5986079D01*
X2328515Y-5986079D02*
X2338039Y-6024174D01*
X2338039Y-6024174D02*
X2338039Y-6071793D01*
X2338039Y-6071793D02*
X2328515Y-6109888D01*
X2328515Y-6109888D02*
X2318991Y-6128936D01*
X2318991Y-6128936D02*
X2309467Y-6138460D01*
X2309467Y-6138460D02*
X2290420Y-6147984D01*
X2290420Y-6147984D02*
X2271372Y-6147984D01*
X2271372Y-6147984D02*
X2252324Y-6138460D01*
X2252324Y-6138460D02*
X2242801Y-6128936D01*
X2242801Y-6128936D02*
X2233277Y-6109888D01*
X2233277Y-6109888D02*
X2223753Y-6071793D01*
X2223753Y-6071793D02*
X2223753Y-6024174D01*
X2223753Y-6024174D02*
X2233277Y-5986079D01*
X2233277Y-5986079D02*
X2242801Y-5967031D01*
X2242801Y-5967031D02*
X2252324Y-5957508D01*
X2252324Y-5957508D02*
X2271372Y-5947984D01*
X2423753Y-6128936D02*
X2433277Y-6138460D01*
X2433277Y-6138460D02*
X2423753Y-6147984D01*
X2423753Y-6147984D02*
X2414229Y-6138460D01*
X2414229Y-6138460D02*
X2423753Y-6128936D01*
X2423753Y-6128936D02*
X2423753Y-6147984D01*
X2499944Y-5947984D02*
X2633277Y-5947984D01*
X2633277Y-5947984D02*
X2547563Y-6147984D01*
X2795182Y-5947984D02*
X2757086Y-5947984D01*
X2757086Y-5947984D02*
X2738039Y-5957508D01*
X2738039Y-5957508D02*
X2728515Y-5967031D01*
X2728515Y-5967031D02*
X2709467Y-5995603D01*
X2709467Y-5995603D02*
X2699944Y-6033698D01*
X2699944Y-6033698D02*
X2699944Y-6109888D01*
X2699944Y-6109888D02*
X2709467Y-6128936D01*
X2709467Y-6128936D02*
X2718991Y-6138460D01*
X2718991Y-6138460D02*
X2738039Y-6147984D01*
X2738039Y-6147984D02*
X2776134Y-6147984D01*
X2776134Y-6147984D02*
X2795182Y-6138460D01*
X2795182Y-6138460D02*
X2804705Y-6128936D01*
X2804705Y-6128936D02*
X2814229Y-6109888D01*
X2814229Y-6109888D02*
X2814229Y-6062269D01*
X2814229Y-6062269D02*
X2804705Y-6043222D01*
X2804705Y-6043222D02*
X2795182Y-6033698D01*
X2795182Y-6033698D02*
X2776134Y-6024174D01*
X2776134Y-6024174D02*
X2738039Y-6024174D01*
X2738039Y-6024174D02*
X2718991Y-6033698D01*
X2718991Y-6033698D02*
X2709467Y-6043222D01*
X2709467Y-6043222D02*
X2699944Y-6062269D01*
X2890420Y-5967031D02*
X2899943Y-5957508D01*
X2899943Y-5957508D02*
X2918991Y-5947984D01*
X2918991Y-5947984D02*
X2966610Y-5947984D01*
X2966610Y-5947984D02*
X2985658Y-5957508D01*
X2985658Y-5957508D02*
X2995182Y-5967031D01*
X2995182Y-5967031D02*
X3004705Y-5986079D01*
X3004705Y-5986079D02*
X3004705Y-6005127D01*
X3004705Y-6005127D02*
X2995182Y-6033698D01*
X2995182Y-6033698D02*
X2880896Y-6147984D01*
X2880896Y-6147984D02*
X3004705Y-6147984D01*
X3090420Y-6147984D02*
X3090420Y-6014650D01*
X3090420Y-6033698D02*
X3099943Y-6024174D01*
X3099943Y-6024174D02*
X3118991Y-6014650D01*
X3118991Y-6014650D02*
X3147563Y-6014650D01*
X3147563Y-6014650D02*
X3166610Y-6024174D01*
X3166610Y-6024174D02*
X3176134Y-6043222D01*
X3176134Y-6043222D02*
X3176134Y-6147984D01*
X3176134Y-6043222D02*
X3185658Y-6024174D01*
X3185658Y-6024174D02*
X3204705Y-6014650D01*
X3204705Y-6014650D02*
X3233277Y-6014650D01*
X3233277Y-6014650D02*
X3252324Y-6024174D01*
X3252324Y-6024174D02*
X3261848Y-6043222D01*
X3261848Y-6043222D02*
X3261848Y-6147984D01*
X3357086Y-6147984D02*
X3357086Y-6014650D01*
X3357086Y-6033698D02*
X3366610Y-6024174D01*
X3366610Y-6024174D02*
X3385658Y-6014650D01*
X3385658Y-6014650D02*
X3414229Y-6014650D01*
X3414229Y-6014650D02*
X3433277Y-6024174D01*
X3433277Y-6024174D02*
X3442801Y-6043222D01*
X3442801Y-6043222D02*
X3442801Y-6147984D01*
X3442801Y-6043222D02*
X3452324Y-6024174D01*
X3452324Y-6024174D02*
X3471372Y-6014650D01*
X3471372Y-6014650D02*
X3499943Y-6014650D01*
X3499943Y-6014650D02*
X3518991Y-6024174D01*
X3518991Y-6024174D02*
X3528515Y-6043222D01*
X3528515Y-6043222D02*
X3528515Y-6147984D01*
X3918991Y-5938460D02*
X3747563Y-6195603D01*
X4176134Y-5947984D02*
X4195182Y-5947984D01*
X4195182Y-5947984D02*
X4214229Y-5957508D01*
X4214229Y-5957508D02*
X4223753Y-5967031D01*
X4223753Y-5967031D02*
X4233277Y-5986079D01*
X4233277Y-5986079D02*
X4242801Y-6024174D01*
X4242801Y-6024174D02*
X4242801Y-6071793D01*
X4242801Y-6071793D02*
X4233277Y-6109888D01*
X4233277Y-6109888D02*
X4223753Y-6128936D01*
X4223753Y-6128936D02*
X4214229Y-6138460D01*
X4214229Y-6138460D02*
X4195182Y-6147984D01*
X4195182Y-6147984D02*
X4176134Y-6147984D01*
X4176134Y-6147984D02*
X4157086Y-6138460D01*
X4157086Y-6138460D02*
X4147563Y-6128936D01*
X4147563Y-6128936D02*
X4138039Y-6109888D01*
X4138039Y-6109888D02*
X4128515Y-6071793D01*
X4128515Y-6071793D02*
X4128515Y-6024174D01*
X4128515Y-6024174D02*
X4138039Y-5986079D01*
X4138039Y-5986079D02*
X4147563Y-5967031D01*
X4147563Y-5967031D02*
X4157086Y-5957508D01*
X4157086Y-5957508D02*
X4176134Y-5947984D01*
X4328515Y-6128936D02*
X4338039Y-6138460D01*
X4338039Y-6138460D02*
X4328515Y-6147984D01*
X4328515Y-6147984D02*
X4318991Y-6138460D01*
X4318991Y-6138460D02*
X4328515Y-6128936D01*
X4328515Y-6128936D02*
X4328515Y-6147984D01*
X4461848Y-5947984D02*
X4480896Y-5947984D01*
X4480896Y-5947984D02*
X4499944Y-5957508D01*
X4499944Y-5957508D02*
X4509468Y-5967031D01*
X4509468Y-5967031D02*
X4518991Y-5986079D01*
X4518991Y-5986079D02*
X4528515Y-6024174D01*
X4528515Y-6024174D02*
X4528515Y-6071793D01*
X4528515Y-6071793D02*
X4518991Y-6109888D01*
X4518991Y-6109888D02*
X4509468Y-6128936D01*
X4509468Y-6128936D02*
X4499944Y-6138460D01*
X4499944Y-6138460D02*
X4480896Y-6147984D01*
X4480896Y-6147984D02*
X4461848Y-6147984D01*
X4461848Y-6147984D02*
X4442801Y-6138460D01*
X4442801Y-6138460D02*
X4433277Y-6128936D01*
X4433277Y-6128936D02*
X4423753Y-6109888D01*
X4423753Y-6109888D02*
X4414229Y-6071793D01*
X4414229Y-6071793D02*
X4414229Y-6024174D01*
X4414229Y-6024174D02*
X4423753Y-5986079D01*
X4423753Y-5986079D02*
X4433277Y-5967031D01*
X4433277Y-5967031D02*
X4442801Y-5957508D01*
X4442801Y-5957508D02*
X4461848Y-5947984D01*
X4595182Y-5947984D02*
X4718991Y-5947984D01*
X4718991Y-5947984D02*
X4652325Y-6024174D01*
X4652325Y-6024174D02*
X4680896Y-6024174D01*
X4680896Y-6024174D02*
X4699944Y-6033698D01*
X4699944Y-6033698D02*
X4709468Y-6043222D01*
X4709468Y-6043222D02*
X4718991Y-6062269D01*
X4718991Y-6062269D02*
X4718991Y-6109888D01*
X4718991Y-6109888D02*
X4709468Y-6128936D01*
X4709468Y-6128936D02*
X4699944Y-6138460D01*
X4699944Y-6138460D02*
X4680896Y-6147984D01*
X4680896Y-6147984D02*
X4623753Y-6147984D01*
X4623753Y-6147984D02*
X4604706Y-6138460D01*
X4604706Y-6138460D02*
X4595182Y-6128936D01*
X4842801Y-5947984D02*
X4861849Y-5947984D01*
X4861849Y-5947984D02*
X4880896Y-5957508D01*
X4880896Y-5957508D02*
X4890420Y-5967031D01*
X4890420Y-5967031D02*
X4899944Y-5986079D01*
X4899944Y-5986079D02*
X4909468Y-6024174D01*
X4909468Y-6024174D02*
X4909468Y-6071793D01*
X4909468Y-6071793D02*
X4899944Y-6109888D01*
X4899944Y-6109888D02*
X4890420Y-6128936D01*
X4890420Y-6128936D02*
X4880896Y-6138460D01*
X4880896Y-6138460D02*
X4861849Y-6147984D01*
X4861849Y-6147984D02*
X4842801Y-6147984D01*
X4842801Y-6147984D02*
X4823753Y-6138460D01*
X4823753Y-6138460D02*
X4814229Y-6128936D01*
X4814229Y-6128936D02*
X4804706Y-6109888D01*
X4804706Y-6109888D02*
X4795182Y-6071793D01*
X4795182Y-6071793D02*
X4795182Y-6024174D01*
X4795182Y-6024174D02*
X4804706Y-5986079D01*
X4804706Y-5986079D02*
X4814229Y-5967031D01*
X4814229Y-5967031D02*
X4823753Y-5957508D01*
X4823753Y-5957508D02*
X4842801Y-5947984D01*
X5033277Y-5947984D02*
X5052325Y-5947984D01*
X5052325Y-5947984D02*
X5071372Y-5957508D01*
X5071372Y-5957508D02*
X5080896Y-5967031D01*
X5080896Y-5967031D02*
X5090420Y-5986079D01*
X5090420Y-5986079D02*
X5099944Y-6024174D01*
X5099944Y-6024174D02*
X5099944Y-6071793D01*
X5099944Y-6071793D02*
X5090420Y-6109888D01*
X5090420Y-6109888D02*
X5080896Y-6128936D01*
X5080896Y-6128936D02*
X5071372Y-6138460D01*
X5071372Y-6138460D02*
X5052325Y-6147984D01*
X5052325Y-6147984D02*
X5033277Y-6147984D01*
X5033277Y-6147984D02*
X5014229Y-6138460D01*
X5014229Y-6138460D02*
X5004706Y-6128936D01*
X5004706Y-6128936D02*
X4995182Y-6109888D01*
X4995182Y-6109888D02*
X4985658Y-6071793D01*
X4985658Y-6071793D02*
X4985658Y-6024174D01*
X4985658Y-6024174D02*
X4995182Y-5986079D01*
X4995182Y-5986079D02*
X5004706Y-5967031D01*
X5004706Y-5967031D02*
X5014229Y-5957508D01*
X5014229Y-5957508D02*
X5033277Y-5947984D01*
X5176134Y-5947984D02*
X5176134Y-5986079D01*
X5252325Y-5947984D02*
X5252325Y-5986079D01*
X5547563Y-6224174D02*
X5538039Y-6214650D01*
X5538039Y-6214650D02*
X5518991Y-6186079D01*
X5518991Y-6186079D02*
X5509468Y-6167031D01*
X5509468Y-6167031D02*
X5499944Y-6138460D01*
X5499944Y-6138460D02*
X5490420Y-6090841D01*
X5490420Y-6090841D02*
X5490420Y-6052746D01*
X5490420Y-6052746D02*
X5499944Y-6005127D01*
X5499944Y-6005127D02*
X5509468Y-5976555D01*
X5509468Y-5976555D02*
X5518991Y-5957508D01*
X5518991Y-5957508D02*
X5538039Y-5928936D01*
X5538039Y-5928936D02*
X5547563Y-5919412D01*
X5652325Y-6033698D02*
X5633277Y-6024174D01*
X5633277Y-6024174D02*
X5623753Y-6014650D01*
X5623753Y-6014650D02*
X5614229Y-5995603D01*
X5614229Y-5995603D02*
X5614229Y-5986079D01*
X5614229Y-5986079D02*
X5623753Y-5967031D01*
X5623753Y-5967031D02*
X5633277Y-5957508D01*
X5633277Y-5957508D02*
X5652325Y-5947984D01*
X5652325Y-5947984D02*
X5690420Y-5947984D01*
X5690420Y-5947984D02*
X5709468Y-5957508D01*
X5709468Y-5957508D02*
X5718991Y-5967031D01*
X5718991Y-5967031D02*
X5728515Y-5986079D01*
X5728515Y-5986079D02*
X5728515Y-5995603D01*
X5728515Y-5995603D02*
X5718991Y-6014650D01*
X5718991Y-6014650D02*
X5709468Y-6024174D01*
X5709468Y-6024174D02*
X5690420Y-6033698D01*
X5690420Y-6033698D02*
X5652325Y-6033698D01*
X5652325Y-6033698D02*
X5633277Y-6043222D01*
X5633277Y-6043222D02*
X5623753Y-6052746D01*
X5623753Y-6052746D02*
X5614229Y-6071793D01*
X5614229Y-6071793D02*
X5614229Y-6109888D01*
X5614229Y-6109888D02*
X5623753Y-6128936D01*
X5623753Y-6128936D02*
X5633277Y-6138460D01*
X5633277Y-6138460D02*
X5652325Y-6147984D01*
X5652325Y-6147984D02*
X5690420Y-6147984D01*
X5690420Y-6147984D02*
X5709468Y-6138460D01*
X5709468Y-6138460D02*
X5718991Y-6128936D01*
X5718991Y-6128936D02*
X5728515Y-6109888D01*
X5728515Y-6109888D02*
X5728515Y-6071793D01*
X5728515Y-6071793D02*
X5718991Y-6052746D01*
X5718991Y-6052746D02*
X5709468Y-6043222D01*
X5709468Y-6043222D02*
X5690420Y-6033698D01*
X5966610Y-6147984D02*
X5966610Y-5947984D01*
X6052325Y-6147984D02*
X6052325Y-6043222D01*
X6052325Y-6043222D02*
X6042801Y-6024174D01*
X6042801Y-6024174D02*
X6023753Y-6014650D01*
X6023753Y-6014650D02*
X5995182Y-6014650D01*
X5995182Y-6014650D02*
X5976134Y-6024174D01*
X5976134Y-6024174D02*
X5966610Y-6033698D01*
X6176134Y-6147984D02*
X6157087Y-6138460D01*
X6157087Y-6138460D02*
X6147563Y-6128936D01*
X6147563Y-6128936D02*
X6138039Y-6109888D01*
X6138039Y-6109888D02*
X6138039Y-6052746D01*
X6138039Y-6052746D02*
X6147563Y-6033698D01*
X6147563Y-6033698D02*
X6157087Y-6024174D01*
X6157087Y-6024174D02*
X6176134Y-6014650D01*
X6176134Y-6014650D02*
X6204706Y-6014650D01*
X6204706Y-6014650D02*
X6223753Y-6024174D01*
X6223753Y-6024174D02*
X6233277Y-6033698D01*
X6233277Y-6033698D02*
X6242801Y-6052746D01*
X6242801Y-6052746D02*
X6242801Y-6109888D01*
X6242801Y-6109888D02*
X6233277Y-6128936D01*
X6233277Y-6128936D02*
X6223753Y-6138460D01*
X6223753Y-6138460D02*
X6204706Y-6147984D01*
X6204706Y-6147984D02*
X6176134Y-6147984D01*
X6357087Y-6147984D02*
X6338039Y-6138460D01*
X6338039Y-6138460D02*
X6328515Y-6119412D01*
X6328515Y-6119412D02*
X6328515Y-5947984D01*
X6509468Y-6138460D02*
X6490420Y-6147984D01*
X6490420Y-6147984D02*
X6452325Y-6147984D01*
X6452325Y-6147984D02*
X6433277Y-6138460D01*
X6433277Y-6138460D02*
X6423753Y-6119412D01*
X6423753Y-6119412D02*
X6423753Y-6043222D01*
X6423753Y-6043222D02*
X6433277Y-6024174D01*
X6433277Y-6024174D02*
X6452325Y-6014650D01*
X6452325Y-6014650D02*
X6490420Y-6014650D01*
X6490420Y-6014650D02*
X6509468Y-6024174D01*
X6509468Y-6024174D02*
X6518991Y-6043222D01*
X6518991Y-6043222D02*
X6518991Y-6062269D01*
X6518991Y-6062269D02*
X6423753Y-6081317D01*
X6595182Y-6138460D02*
X6614230Y-6147984D01*
X6614230Y-6147984D02*
X6652325Y-6147984D01*
X6652325Y-6147984D02*
X6671372Y-6138460D01*
X6671372Y-6138460D02*
X6680896Y-6119412D01*
X6680896Y-6119412D02*
X6680896Y-6109888D01*
X6680896Y-6109888D02*
X6671372Y-6090841D01*
X6671372Y-6090841D02*
X6652325Y-6081317D01*
X6652325Y-6081317D02*
X6623753Y-6081317D01*
X6623753Y-6081317D02*
X6604706Y-6071793D01*
X6604706Y-6071793D02*
X6595182Y-6052746D01*
X6595182Y-6052746D02*
X6595182Y-6043222D01*
X6595182Y-6043222D02*
X6604706Y-6024174D01*
X6604706Y-6024174D02*
X6623753Y-6014650D01*
X6623753Y-6014650D02*
X6652325Y-6014650D01*
X6652325Y-6014650D02*
X6671372Y-6024174D01*
X6747563Y-6224174D02*
X6757087Y-6214650D01*
X6757087Y-6214650D02*
X6776134Y-6186079D01*
X6776134Y-6186079D02*
X6785658Y-6167031D01*
X6785658Y-6167031D02*
X6795182Y-6138460D01*
X6795182Y-6138460D02*
X6804706Y-6090841D01*
X6804706Y-6090841D02*
X6804706Y-6052746D01*
X6804706Y-6052746D02*
X6795182Y-6005127D01*
X6795182Y-6005127D02*
X6785658Y-5976555D01*
X6785658Y-5976555D02*
X6776134Y-5957508D01*
X6776134Y-5957508D02*
X6757087Y-5928936D01*
X6757087Y-5928936D02*
X6747563Y-5919412D01*
D12*
X1925000Y-6273000D02*
X1925000Y-6368000D01*
X1877500Y-6320500D02*
X1972500Y-6320500D01*
D11*
X2271372Y-6211984D02*
X2290420Y-6211984D01*
X2290420Y-6211984D02*
X2309467Y-6221508D01*
X2309467Y-6221508D02*
X2318991Y-6231031D01*
X2318991Y-6231031D02*
X2328515Y-6250079D01*
X2328515Y-6250079D02*
X2338039Y-6288174D01*
X2338039Y-6288174D02*
X2338039Y-6335793D01*
X2338039Y-6335793D02*
X2328515Y-6373888D01*
X2328515Y-6373888D02*
X2318991Y-6392936D01*
X2318991Y-6392936D02*
X2309467Y-6402460D01*
X2309467Y-6402460D02*
X2290420Y-6411984D01*
X2290420Y-6411984D02*
X2271372Y-6411984D01*
X2271372Y-6411984D02*
X2252324Y-6402460D01*
X2252324Y-6402460D02*
X2242801Y-6392936D01*
X2242801Y-6392936D02*
X2233277Y-6373888D01*
X2233277Y-6373888D02*
X2223753Y-6335793D01*
X2223753Y-6335793D02*
X2223753Y-6288174D01*
X2223753Y-6288174D02*
X2233277Y-6250079D01*
X2233277Y-6250079D02*
X2242801Y-6231031D01*
X2242801Y-6231031D02*
X2252324Y-6221508D01*
X2252324Y-6221508D02*
X2271372Y-6211984D01*
X2423753Y-6392936D02*
X2433277Y-6402460D01*
X2433277Y-6402460D02*
X2423753Y-6411984D01*
X2423753Y-6411984D02*
X2414229Y-6402460D01*
X2414229Y-6402460D02*
X2423753Y-6392936D01*
X2423753Y-6392936D02*
X2423753Y-6411984D01*
X2528515Y-6411984D02*
X2566610Y-6411984D01*
X2566610Y-6411984D02*
X2585658Y-6402460D01*
X2585658Y-6402460D02*
X2595182Y-6392936D01*
X2595182Y-6392936D02*
X2614229Y-6364365D01*
X2614229Y-6364365D02*
X2623753Y-6326269D01*
X2623753Y-6326269D02*
X2623753Y-6250079D01*
X2623753Y-6250079D02*
X2614229Y-6231031D01*
X2614229Y-6231031D02*
X2604705Y-6221508D01*
X2604705Y-6221508D02*
X2585658Y-6211984D01*
X2585658Y-6211984D02*
X2547563Y-6211984D01*
X2547563Y-6211984D02*
X2528515Y-6221508D01*
X2528515Y-6221508D02*
X2518991Y-6231031D01*
X2518991Y-6231031D02*
X2509467Y-6250079D01*
X2509467Y-6250079D02*
X2509467Y-6297698D01*
X2509467Y-6297698D02*
X2518991Y-6316746D01*
X2518991Y-6316746D02*
X2528515Y-6326269D01*
X2528515Y-6326269D02*
X2547563Y-6335793D01*
X2547563Y-6335793D02*
X2585658Y-6335793D01*
X2585658Y-6335793D02*
X2604705Y-6326269D01*
X2604705Y-6326269D02*
X2614229Y-6316746D01*
X2614229Y-6316746D02*
X2623753Y-6297698D01*
X2804705Y-6211984D02*
X2709467Y-6211984D01*
X2709467Y-6211984D02*
X2699944Y-6307222D01*
X2699944Y-6307222D02*
X2709467Y-6297698D01*
X2709467Y-6297698D02*
X2728515Y-6288174D01*
X2728515Y-6288174D02*
X2776134Y-6288174D01*
X2776134Y-6288174D02*
X2795182Y-6297698D01*
X2795182Y-6297698D02*
X2804705Y-6307222D01*
X2804705Y-6307222D02*
X2814229Y-6326269D01*
X2814229Y-6326269D02*
X2814229Y-6373888D01*
X2814229Y-6373888D02*
X2804705Y-6392936D01*
X2804705Y-6392936D02*
X2795182Y-6402460D01*
X2795182Y-6402460D02*
X2776134Y-6411984D01*
X2776134Y-6411984D02*
X2728515Y-6411984D01*
X2728515Y-6411984D02*
X2709467Y-6402460D01*
X2709467Y-6402460D02*
X2699944Y-6392936D01*
X2938039Y-6211984D02*
X2957086Y-6211984D01*
X2957086Y-6211984D02*
X2976134Y-6221508D01*
X2976134Y-6221508D02*
X2985658Y-6231031D01*
X2985658Y-6231031D02*
X2995182Y-6250079D01*
X2995182Y-6250079D02*
X3004705Y-6288174D01*
X3004705Y-6288174D02*
X3004705Y-6335793D01*
X3004705Y-6335793D02*
X2995182Y-6373888D01*
X2995182Y-6373888D02*
X2985658Y-6392936D01*
X2985658Y-6392936D02*
X2976134Y-6402460D01*
X2976134Y-6402460D02*
X2957086Y-6411984D01*
X2957086Y-6411984D02*
X2938039Y-6411984D01*
X2938039Y-6411984D02*
X2918991Y-6402460D01*
X2918991Y-6402460D02*
X2909467Y-6392936D01*
X2909467Y-6392936D02*
X2899943Y-6373888D01*
X2899943Y-6373888D02*
X2890420Y-6335793D01*
X2890420Y-6335793D02*
X2890420Y-6288174D01*
X2890420Y-6288174D02*
X2899943Y-6250079D01*
X2899943Y-6250079D02*
X2909467Y-6231031D01*
X2909467Y-6231031D02*
X2918991Y-6221508D01*
X2918991Y-6221508D02*
X2938039Y-6211984D01*
X3090420Y-6411984D02*
X3090420Y-6278650D01*
X3090420Y-6297698D02*
X3099943Y-6288174D01*
X3099943Y-6288174D02*
X3118991Y-6278650D01*
X3118991Y-6278650D02*
X3147563Y-6278650D01*
X3147563Y-6278650D02*
X3166610Y-6288174D01*
X3166610Y-6288174D02*
X3176134Y-6307222D01*
X3176134Y-6307222D02*
X3176134Y-6411984D01*
X3176134Y-6307222D02*
X3185658Y-6288174D01*
X3185658Y-6288174D02*
X3204705Y-6278650D01*
X3204705Y-6278650D02*
X3233277Y-6278650D01*
X3233277Y-6278650D02*
X3252324Y-6288174D01*
X3252324Y-6288174D02*
X3261848Y-6307222D01*
X3261848Y-6307222D02*
X3261848Y-6411984D01*
X3357086Y-6411984D02*
X3357086Y-6278650D01*
X3357086Y-6297698D02*
X3366610Y-6288174D01*
X3366610Y-6288174D02*
X3385658Y-6278650D01*
X3385658Y-6278650D02*
X3414229Y-6278650D01*
X3414229Y-6278650D02*
X3433277Y-6288174D01*
X3433277Y-6288174D02*
X3442801Y-6307222D01*
X3442801Y-6307222D02*
X3442801Y-6411984D01*
X3442801Y-6307222D02*
X3452324Y-6288174D01*
X3452324Y-6288174D02*
X3471372Y-6278650D01*
X3471372Y-6278650D02*
X3499943Y-6278650D01*
X3499943Y-6278650D02*
X3518991Y-6288174D01*
X3518991Y-6288174D02*
X3528515Y-6307222D01*
X3528515Y-6307222D02*
X3528515Y-6411984D01*
X3918991Y-6202460D02*
X3747563Y-6459603D01*
X4176134Y-6211984D02*
X4195182Y-6211984D01*
X4195182Y-6211984D02*
X4214229Y-6221508D01*
X4214229Y-6221508D02*
X4223753Y-6231031D01*
X4223753Y-6231031D02*
X4233277Y-6250079D01*
X4233277Y-6250079D02*
X4242801Y-6288174D01*
X4242801Y-6288174D02*
X4242801Y-6335793D01*
X4242801Y-6335793D02*
X4233277Y-6373888D01*
X4233277Y-6373888D02*
X4223753Y-6392936D01*
X4223753Y-6392936D02*
X4214229Y-6402460D01*
X4214229Y-6402460D02*
X4195182Y-6411984D01*
X4195182Y-6411984D02*
X4176134Y-6411984D01*
X4176134Y-6411984D02*
X4157086Y-6402460D01*
X4157086Y-6402460D02*
X4147563Y-6392936D01*
X4147563Y-6392936D02*
X4138039Y-6373888D01*
X4138039Y-6373888D02*
X4128515Y-6335793D01*
X4128515Y-6335793D02*
X4128515Y-6288174D01*
X4128515Y-6288174D02*
X4138039Y-6250079D01*
X4138039Y-6250079D02*
X4147563Y-6231031D01*
X4147563Y-6231031D02*
X4157086Y-6221508D01*
X4157086Y-6221508D02*
X4176134Y-6211984D01*
X4328515Y-6392936D02*
X4338039Y-6402460D01*
X4338039Y-6402460D02*
X4328515Y-6411984D01*
X4328515Y-6411984D02*
X4318991Y-6402460D01*
X4318991Y-6402460D02*
X4328515Y-6392936D01*
X4328515Y-6392936D02*
X4328515Y-6411984D01*
X4461848Y-6211984D02*
X4480896Y-6211984D01*
X4480896Y-6211984D02*
X4499944Y-6221508D01*
X4499944Y-6221508D02*
X4509468Y-6231031D01*
X4509468Y-6231031D02*
X4518991Y-6250079D01*
X4518991Y-6250079D02*
X4528515Y-6288174D01*
X4528515Y-6288174D02*
X4528515Y-6335793D01*
X4528515Y-6335793D02*
X4518991Y-6373888D01*
X4518991Y-6373888D02*
X4509468Y-6392936D01*
X4509468Y-6392936D02*
X4499944Y-6402460D01*
X4499944Y-6402460D02*
X4480896Y-6411984D01*
X4480896Y-6411984D02*
X4461848Y-6411984D01*
X4461848Y-6411984D02*
X4442801Y-6402460D01*
X4442801Y-6402460D02*
X4433277Y-6392936D01*
X4433277Y-6392936D02*
X4423753Y-6373888D01*
X4423753Y-6373888D02*
X4414229Y-6335793D01*
X4414229Y-6335793D02*
X4414229Y-6288174D01*
X4414229Y-6288174D02*
X4423753Y-6250079D01*
X4423753Y-6250079D02*
X4433277Y-6231031D01*
X4433277Y-6231031D02*
X4442801Y-6221508D01*
X4442801Y-6221508D02*
X4461848Y-6211984D01*
X4595182Y-6211984D02*
X4718991Y-6211984D01*
X4718991Y-6211984D02*
X4652325Y-6288174D01*
X4652325Y-6288174D02*
X4680896Y-6288174D01*
X4680896Y-6288174D02*
X4699944Y-6297698D01*
X4699944Y-6297698D02*
X4709468Y-6307222D01*
X4709468Y-6307222D02*
X4718991Y-6326269D01*
X4718991Y-6326269D02*
X4718991Y-6373888D01*
X4718991Y-6373888D02*
X4709468Y-6392936D01*
X4709468Y-6392936D02*
X4699944Y-6402460D01*
X4699944Y-6402460D02*
X4680896Y-6411984D01*
X4680896Y-6411984D02*
X4623753Y-6411984D01*
X4623753Y-6411984D02*
X4604706Y-6402460D01*
X4604706Y-6402460D02*
X4595182Y-6392936D01*
X4785658Y-6211984D02*
X4918991Y-6211984D01*
X4918991Y-6211984D02*
X4833277Y-6411984D01*
X5080896Y-6278650D02*
X5080896Y-6411984D01*
X5033277Y-6202460D02*
X4985658Y-6345317D01*
X4985658Y-6345317D02*
X5109468Y-6345317D01*
X5176134Y-6211984D02*
X5176134Y-6250079D01*
X5252325Y-6211984D02*
X5252325Y-6250079D01*
X5547563Y-6488174D02*
X5538039Y-6478650D01*
X5538039Y-6478650D02*
X5518991Y-6450079D01*
X5518991Y-6450079D02*
X5509468Y-6431031D01*
X5509468Y-6431031D02*
X5499944Y-6402460D01*
X5499944Y-6402460D02*
X5490420Y-6354841D01*
X5490420Y-6354841D02*
X5490420Y-6316746D01*
X5490420Y-6316746D02*
X5499944Y-6269127D01*
X5499944Y-6269127D02*
X5509468Y-6240555D01*
X5509468Y-6240555D02*
X5518991Y-6221508D01*
X5518991Y-6221508D02*
X5538039Y-6192936D01*
X5538039Y-6192936D02*
X5547563Y-6183412D01*
X5709468Y-6278650D02*
X5709468Y-6411984D01*
X5661848Y-6202460D02*
X5614229Y-6345317D01*
X5614229Y-6345317D02*
X5738039Y-6345317D01*
X5966610Y-6411984D02*
X5966610Y-6211984D01*
X6052325Y-6411984D02*
X6052325Y-6307222D01*
X6052325Y-6307222D02*
X6042801Y-6288174D01*
X6042801Y-6288174D02*
X6023753Y-6278650D01*
X6023753Y-6278650D02*
X5995182Y-6278650D01*
X5995182Y-6278650D02*
X5976134Y-6288174D01*
X5976134Y-6288174D02*
X5966610Y-6297698D01*
X6176134Y-6411984D02*
X6157087Y-6402460D01*
X6157087Y-6402460D02*
X6147563Y-6392936D01*
X6147563Y-6392936D02*
X6138039Y-6373888D01*
X6138039Y-6373888D02*
X6138039Y-6316746D01*
X6138039Y-6316746D02*
X6147563Y-6297698D01*
X6147563Y-6297698D02*
X6157087Y-6288174D01*
X6157087Y-6288174D02*
X6176134Y-6278650D01*
X6176134Y-6278650D02*
X6204706Y-6278650D01*
X6204706Y-6278650D02*
X6223753Y-6288174D01*
X6223753Y-6288174D02*
X6233277Y-6297698D01*
X6233277Y-6297698D02*
X6242801Y-6316746D01*
X6242801Y-6316746D02*
X6242801Y-6373888D01*
X6242801Y-6373888D02*
X6233277Y-6392936D01*
X6233277Y-6392936D02*
X6223753Y-6402460D01*
X6223753Y-6402460D02*
X6204706Y-6411984D01*
X6204706Y-6411984D02*
X6176134Y-6411984D01*
X6357087Y-6411984D02*
X6338039Y-6402460D01*
X6338039Y-6402460D02*
X6328515Y-6383412D01*
X6328515Y-6383412D02*
X6328515Y-6211984D01*
X6509468Y-6402460D02*
X6490420Y-6411984D01*
X6490420Y-6411984D02*
X6452325Y-6411984D01*
X6452325Y-6411984D02*
X6433277Y-6402460D01*
X6433277Y-6402460D02*
X6423753Y-6383412D01*
X6423753Y-6383412D02*
X6423753Y-6307222D01*
X6423753Y-6307222D02*
X6433277Y-6288174D01*
X6433277Y-6288174D02*
X6452325Y-6278650D01*
X6452325Y-6278650D02*
X6490420Y-6278650D01*
X6490420Y-6278650D02*
X6509468Y-6288174D01*
X6509468Y-6288174D02*
X6518991Y-6307222D01*
X6518991Y-6307222D02*
X6518991Y-6326269D01*
X6518991Y-6326269D02*
X6423753Y-6345317D01*
X6595182Y-6402460D02*
X6614230Y-6411984D01*
X6614230Y-6411984D02*
X6652325Y-6411984D01*
X6652325Y-6411984D02*
X6671372Y-6402460D01*
X6671372Y-6402460D02*
X6680896Y-6383412D01*
X6680896Y-6383412D02*
X6680896Y-6373888D01*
X6680896Y-6373888D02*
X6671372Y-6354841D01*
X6671372Y-6354841D02*
X6652325Y-6345317D01*
X6652325Y-6345317D02*
X6623753Y-6345317D01*
X6623753Y-6345317D02*
X6604706Y-6335793D01*
X6604706Y-6335793D02*
X6595182Y-6316746D01*
X6595182Y-6316746D02*
X6595182Y-6307222D01*
X6595182Y-6307222D02*
X6604706Y-6288174D01*
X6604706Y-6288174D02*
X6623753Y-6278650D01*
X6623753Y-6278650D02*
X6652325Y-6278650D01*
X6652325Y-6278650D02*
X6671372Y-6288174D01*
X6747563Y-6488174D02*
X6757087Y-6478650D01*
X6757087Y-6478650D02*
X6776134Y-6450079D01*
X6776134Y-6450079D02*
X6785658Y-6431031D01*
X6785658Y-6431031D02*
X6795182Y-6402460D01*
X6795182Y-6402460D02*
X6804706Y-6354841D01*
X6804706Y-6354841D02*
X6804706Y-6316746D01*
X6804706Y-6316746D02*
X6795182Y-6269127D01*
X6795182Y-6269127D02*
X6785658Y-6240555D01*
X6785658Y-6240555D02*
X6776134Y-6221508D01*
X6776134Y-6221508D02*
X6757087Y-6192936D01*
X6757087Y-6192936D02*
X6747563Y-6183412D01*
D12*
X1957856Y-6619856D02*
X1957856Y-6549144D01*
X1887144Y-6549144D01*
X1887144Y-6619856D01*
X1957856Y-6619856D01*
D11*
X2338039Y-6675984D02*
X2223753Y-6675984D01*
X2280896Y-6675984D02*
X2280896Y-6475984D01*
X2280896Y-6475984D02*
X2261848Y-6504555D01*
X2261848Y-6504555D02*
X2242801Y-6523603D01*
X2242801Y-6523603D02*
X2223753Y-6533127D01*
X2423753Y-6656936D02*
X2433277Y-6666460D01*
X2433277Y-6666460D02*
X2423753Y-6675984D01*
X2423753Y-6675984D02*
X2414229Y-6666460D01*
X2414229Y-6666460D02*
X2423753Y-6656936D01*
X2423753Y-6656936D02*
X2423753Y-6675984D01*
X2557086Y-6475984D02*
X2576134Y-6475984D01*
X2576134Y-6475984D02*
X2595182Y-6485508D01*
X2595182Y-6485508D02*
X2604705Y-6495031D01*
X2604705Y-6495031D02*
X2614229Y-6514079D01*
X2614229Y-6514079D02*
X2623753Y-6552174D01*
X2623753Y-6552174D02*
X2623753Y-6599793D01*
X2623753Y-6599793D02*
X2614229Y-6637888D01*
X2614229Y-6637888D02*
X2604705Y-6656936D01*
X2604705Y-6656936D02*
X2595182Y-6666460D01*
X2595182Y-6666460D02*
X2576134Y-6675984D01*
X2576134Y-6675984D02*
X2557086Y-6675984D01*
X2557086Y-6675984D02*
X2538039Y-6666460D01*
X2538039Y-6666460D02*
X2528515Y-6656936D01*
X2528515Y-6656936D02*
X2518991Y-6637888D01*
X2518991Y-6637888D02*
X2509467Y-6599793D01*
X2509467Y-6599793D02*
X2509467Y-6552174D01*
X2509467Y-6552174D02*
X2518991Y-6514079D01*
X2518991Y-6514079D02*
X2528515Y-6495031D01*
X2528515Y-6495031D02*
X2538039Y-6485508D01*
X2538039Y-6485508D02*
X2557086Y-6475984D01*
X2747563Y-6475984D02*
X2766610Y-6475984D01*
X2766610Y-6475984D02*
X2785658Y-6485508D01*
X2785658Y-6485508D02*
X2795182Y-6495031D01*
X2795182Y-6495031D02*
X2804705Y-6514079D01*
X2804705Y-6514079D02*
X2814229Y-6552174D01*
X2814229Y-6552174D02*
X2814229Y-6599793D01*
X2814229Y-6599793D02*
X2804705Y-6637888D01*
X2804705Y-6637888D02*
X2795182Y-6656936D01*
X2795182Y-6656936D02*
X2785658Y-6666460D01*
X2785658Y-6666460D02*
X2766610Y-6675984D01*
X2766610Y-6675984D02*
X2747563Y-6675984D01*
X2747563Y-6675984D02*
X2728515Y-6666460D01*
X2728515Y-6666460D02*
X2718991Y-6656936D01*
X2718991Y-6656936D02*
X2709467Y-6637888D01*
X2709467Y-6637888D02*
X2699944Y-6599793D01*
X2699944Y-6599793D02*
X2699944Y-6552174D01*
X2699944Y-6552174D02*
X2709467Y-6514079D01*
X2709467Y-6514079D02*
X2718991Y-6495031D01*
X2718991Y-6495031D02*
X2728515Y-6485508D01*
X2728515Y-6485508D02*
X2747563Y-6475984D01*
X2938039Y-6475984D02*
X2957086Y-6475984D01*
X2957086Y-6475984D02*
X2976134Y-6485508D01*
X2976134Y-6485508D02*
X2985658Y-6495031D01*
X2985658Y-6495031D02*
X2995182Y-6514079D01*
X2995182Y-6514079D02*
X3004705Y-6552174D01*
X3004705Y-6552174D02*
X3004705Y-6599793D01*
X3004705Y-6599793D02*
X2995182Y-6637888D01*
X2995182Y-6637888D02*
X2985658Y-6656936D01*
X2985658Y-6656936D02*
X2976134Y-6666460D01*
X2976134Y-6666460D02*
X2957086Y-6675984D01*
X2957086Y-6675984D02*
X2938039Y-6675984D01*
X2938039Y-6675984D02*
X2918991Y-6666460D01*
X2918991Y-6666460D02*
X2909467Y-6656936D01*
X2909467Y-6656936D02*
X2899943Y-6637888D01*
X2899943Y-6637888D02*
X2890420Y-6599793D01*
X2890420Y-6599793D02*
X2890420Y-6552174D01*
X2890420Y-6552174D02*
X2899943Y-6514079D01*
X2899943Y-6514079D02*
X2909467Y-6495031D01*
X2909467Y-6495031D02*
X2918991Y-6485508D01*
X2918991Y-6485508D02*
X2938039Y-6475984D01*
X3090420Y-6675984D02*
X3090420Y-6542650D01*
X3090420Y-6561698D02*
X3099943Y-6552174D01*
X3099943Y-6552174D02*
X3118991Y-6542650D01*
X3118991Y-6542650D02*
X3147563Y-6542650D01*
X3147563Y-6542650D02*
X3166610Y-6552174D01*
X3166610Y-6552174D02*
X3176134Y-6571222D01*
X3176134Y-6571222D02*
X3176134Y-6675984D01*
X3176134Y-6571222D02*
X3185658Y-6552174D01*
X3185658Y-6552174D02*
X3204705Y-6542650D01*
X3204705Y-6542650D02*
X3233277Y-6542650D01*
X3233277Y-6542650D02*
X3252324Y-6552174D01*
X3252324Y-6552174D02*
X3261848Y-6571222D01*
X3261848Y-6571222D02*
X3261848Y-6675984D01*
X3357086Y-6675984D02*
X3357086Y-6542650D01*
X3357086Y-6561698D02*
X3366610Y-6552174D01*
X3366610Y-6552174D02*
X3385658Y-6542650D01*
X3385658Y-6542650D02*
X3414229Y-6542650D01*
X3414229Y-6542650D02*
X3433277Y-6552174D01*
X3433277Y-6552174D02*
X3442801Y-6571222D01*
X3442801Y-6571222D02*
X3442801Y-6675984D01*
X3442801Y-6571222D02*
X3452324Y-6552174D01*
X3452324Y-6552174D02*
X3471372Y-6542650D01*
X3471372Y-6542650D02*
X3499943Y-6542650D01*
X3499943Y-6542650D02*
X3518991Y-6552174D01*
X3518991Y-6552174D02*
X3528515Y-6571222D01*
X3528515Y-6571222D02*
X3528515Y-6675984D01*
X3918991Y-6466460D02*
X3747563Y-6723603D01*
X4176134Y-6475984D02*
X4195182Y-6475984D01*
X4195182Y-6475984D02*
X4214229Y-6485508D01*
X4214229Y-6485508D02*
X4223753Y-6495031D01*
X4223753Y-6495031D02*
X4233277Y-6514079D01*
X4233277Y-6514079D02*
X4242801Y-6552174D01*
X4242801Y-6552174D02*
X4242801Y-6599793D01*
X4242801Y-6599793D02*
X4233277Y-6637888D01*
X4233277Y-6637888D02*
X4223753Y-6656936D01*
X4223753Y-6656936D02*
X4214229Y-6666460D01*
X4214229Y-6666460D02*
X4195182Y-6675984D01*
X4195182Y-6675984D02*
X4176134Y-6675984D01*
X4176134Y-6675984D02*
X4157086Y-6666460D01*
X4157086Y-6666460D02*
X4147563Y-6656936D01*
X4147563Y-6656936D02*
X4138039Y-6637888D01*
X4138039Y-6637888D02*
X4128515Y-6599793D01*
X4128515Y-6599793D02*
X4128515Y-6552174D01*
X4128515Y-6552174D02*
X4138039Y-6514079D01*
X4138039Y-6514079D02*
X4147563Y-6495031D01*
X4147563Y-6495031D02*
X4157086Y-6485508D01*
X4157086Y-6485508D02*
X4176134Y-6475984D01*
X4328515Y-6656936D02*
X4338039Y-6666460D01*
X4338039Y-6666460D02*
X4328515Y-6675984D01*
X4328515Y-6675984D02*
X4318991Y-6666460D01*
X4318991Y-6666460D02*
X4328515Y-6656936D01*
X4328515Y-6656936D02*
X4328515Y-6675984D01*
X4461848Y-6475984D02*
X4480896Y-6475984D01*
X4480896Y-6475984D02*
X4499944Y-6485508D01*
X4499944Y-6485508D02*
X4509468Y-6495031D01*
X4509468Y-6495031D02*
X4518991Y-6514079D01*
X4518991Y-6514079D02*
X4528515Y-6552174D01*
X4528515Y-6552174D02*
X4528515Y-6599793D01*
X4528515Y-6599793D02*
X4518991Y-6637888D01*
X4518991Y-6637888D02*
X4509468Y-6656936D01*
X4509468Y-6656936D02*
X4499944Y-6666460D01*
X4499944Y-6666460D02*
X4480896Y-6675984D01*
X4480896Y-6675984D02*
X4461848Y-6675984D01*
X4461848Y-6675984D02*
X4442801Y-6666460D01*
X4442801Y-6666460D02*
X4433277Y-6656936D01*
X4433277Y-6656936D02*
X4423753Y-6637888D01*
X4423753Y-6637888D02*
X4414229Y-6599793D01*
X4414229Y-6599793D02*
X4414229Y-6552174D01*
X4414229Y-6552174D02*
X4423753Y-6514079D01*
X4423753Y-6514079D02*
X4433277Y-6495031D01*
X4433277Y-6495031D02*
X4442801Y-6485508D01*
X4442801Y-6485508D02*
X4461848Y-6475984D01*
X4595182Y-6475984D02*
X4718991Y-6475984D01*
X4718991Y-6475984D02*
X4652325Y-6552174D01*
X4652325Y-6552174D02*
X4680896Y-6552174D01*
X4680896Y-6552174D02*
X4699944Y-6561698D01*
X4699944Y-6561698D02*
X4709468Y-6571222D01*
X4709468Y-6571222D02*
X4718991Y-6590269D01*
X4718991Y-6590269D02*
X4718991Y-6637888D01*
X4718991Y-6637888D02*
X4709468Y-6656936D01*
X4709468Y-6656936D02*
X4699944Y-6666460D01*
X4699944Y-6666460D02*
X4680896Y-6675984D01*
X4680896Y-6675984D02*
X4623753Y-6675984D01*
X4623753Y-6675984D02*
X4604706Y-6666460D01*
X4604706Y-6666460D02*
X4595182Y-6656936D01*
X4814229Y-6675984D02*
X4852325Y-6675984D01*
X4852325Y-6675984D02*
X4871372Y-6666460D01*
X4871372Y-6666460D02*
X4880896Y-6656936D01*
X4880896Y-6656936D02*
X4899944Y-6628365D01*
X4899944Y-6628365D02*
X4909468Y-6590269D01*
X4909468Y-6590269D02*
X4909468Y-6514079D01*
X4909468Y-6514079D02*
X4899944Y-6495031D01*
X4899944Y-6495031D02*
X4890420Y-6485508D01*
X4890420Y-6485508D02*
X4871372Y-6475984D01*
X4871372Y-6475984D02*
X4833277Y-6475984D01*
X4833277Y-6475984D02*
X4814229Y-6485508D01*
X4814229Y-6485508D02*
X4804706Y-6495031D01*
X4804706Y-6495031D02*
X4795182Y-6514079D01*
X4795182Y-6514079D02*
X4795182Y-6561698D01*
X4795182Y-6561698D02*
X4804706Y-6580746D01*
X4804706Y-6580746D02*
X4814229Y-6590269D01*
X4814229Y-6590269D02*
X4833277Y-6599793D01*
X4833277Y-6599793D02*
X4871372Y-6599793D01*
X4871372Y-6599793D02*
X4890420Y-6590269D01*
X4890420Y-6590269D02*
X4899944Y-6580746D01*
X4899944Y-6580746D02*
X4909468Y-6561698D01*
X5080896Y-6542650D02*
X5080896Y-6675984D01*
X5033277Y-6466460D02*
X4985658Y-6609317D01*
X4985658Y-6609317D02*
X5109468Y-6609317D01*
X5176134Y-6475984D02*
X5176134Y-6514079D01*
X5252325Y-6475984D02*
X5252325Y-6514079D01*
X5547563Y-6752174D02*
X5538039Y-6742650D01*
X5538039Y-6742650D02*
X5518991Y-6714079D01*
X5518991Y-6714079D02*
X5509468Y-6695031D01*
X5509468Y-6695031D02*
X5499944Y-6666460D01*
X5499944Y-6666460D02*
X5490420Y-6618841D01*
X5490420Y-6618841D02*
X5490420Y-6580746D01*
X5490420Y-6580746D02*
X5499944Y-6533127D01*
X5499944Y-6533127D02*
X5509468Y-6504555D01*
X5509468Y-6504555D02*
X5518991Y-6485508D01*
X5518991Y-6485508D02*
X5538039Y-6456936D01*
X5538039Y-6456936D02*
X5547563Y-6447412D01*
X5709468Y-6542650D02*
X5709468Y-6675984D01*
X5661848Y-6466460D02*
X5614229Y-6609317D01*
X5614229Y-6609317D02*
X5738039Y-6609317D01*
X5966610Y-6675984D02*
X5966610Y-6475984D01*
X6052325Y-6675984D02*
X6052325Y-6571222D01*
X6052325Y-6571222D02*
X6042801Y-6552174D01*
X6042801Y-6552174D02*
X6023753Y-6542650D01*
X6023753Y-6542650D02*
X5995182Y-6542650D01*
X5995182Y-6542650D02*
X5976134Y-6552174D01*
X5976134Y-6552174D02*
X5966610Y-6561698D01*
X6176134Y-6675984D02*
X6157087Y-6666460D01*
X6157087Y-6666460D02*
X6147563Y-6656936D01*
X6147563Y-6656936D02*
X6138039Y-6637888D01*
X6138039Y-6637888D02*
X6138039Y-6580746D01*
X6138039Y-6580746D02*
X6147563Y-6561698D01*
X6147563Y-6561698D02*
X6157087Y-6552174D01*
X6157087Y-6552174D02*
X6176134Y-6542650D01*
X6176134Y-6542650D02*
X6204706Y-6542650D01*
X6204706Y-6542650D02*
X6223753Y-6552174D01*
X6223753Y-6552174D02*
X6233277Y-6561698D01*
X6233277Y-6561698D02*
X6242801Y-6580746D01*
X6242801Y-6580746D02*
X6242801Y-6637888D01*
X6242801Y-6637888D02*
X6233277Y-6656936D01*
X6233277Y-6656936D02*
X6223753Y-6666460D01*
X6223753Y-6666460D02*
X6204706Y-6675984D01*
X6204706Y-6675984D02*
X6176134Y-6675984D01*
X6357087Y-6675984D02*
X6338039Y-6666460D01*
X6338039Y-6666460D02*
X6328515Y-6647412D01*
X6328515Y-6647412D02*
X6328515Y-6475984D01*
X6509468Y-6666460D02*
X6490420Y-6675984D01*
X6490420Y-6675984D02*
X6452325Y-6675984D01*
X6452325Y-6675984D02*
X6433277Y-6666460D01*
X6433277Y-6666460D02*
X6423753Y-6647412D01*
X6423753Y-6647412D02*
X6423753Y-6571222D01*
X6423753Y-6571222D02*
X6433277Y-6552174D01*
X6433277Y-6552174D02*
X6452325Y-6542650D01*
X6452325Y-6542650D02*
X6490420Y-6542650D01*
X6490420Y-6542650D02*
X6509468Y-6552174D01*
X6509468Y-6552174D02*
X6518991Y-6571222D01*
X6518991Y-6571222D02*
X6518991Y-6590269D01*
X6518991Y-6590269D02*
X6423753Y-6609317D01*
X6595182Y-6666460D02*
X6614230Y-6675984D01*
X6614230Y-6675984D02*
X6652325Y-6675984D01*
X6652325Y-6675984D02*
X6671372Y-6666460D01*
X6671372Y-6666460D02*
X6680896Y-6647412D01*
X6680896Y-6647412D02*
X6680896Y-6637888D01*
X6680896Y-6637888D02*
X6671372Y-6618841D01*
X6671372Y-6618841D02*
X6652325Y-6609317D01*
X6652325Y-6609317D02*
X6623753Y-6609317D01*
X6623753Y-6609317D02*
X6604706Y-6599793D01*
X6604706Y-6599793D02*
X6595182Y-6580746D01*
X6595182Y-6580746D02*
X6595182Y-6571222D01*
X6595182Y-6571222D02*
X6604706Y-6552174D01*
X6604706Y-6552174D02*
X6623753Y-6542650D01*
X6623753Y-6542650D02*
X6652325Y-6542650D01*
X6652325Y-6542650D02*
X6671372Y-6552174D01*
X6918992Y-6599793D02*
X7071373Y-6599793D01*
X6995182Y-6675984D02*
X6995182Y-6523603D01*
X7309468Y-6495031D02*
X7318992Y-6485508D01*
X7318992Y-6485508D02*
X7338039Y-6475984D01*
X7338039Y-6475984D02*
X7385658Y-6475984D01*
X7385658Y-6475984D02*
X7404706Y-6485508D01*
X7404706Y-6485508D02*
X7414230Y-6495031D01*
X7414230Y-6495031D02*
X7423753Y-6514079D01*
X7423753Y-6514079D02*
X7423753Y-6533127D01*
X7423753Y-6533127D02*
X7414230Y-6561698D01*
X7414230Y-6561698D02*
X7299944Y-6675984D01*
X7299944Y-6675984D02*
X7423753Y-6675984D01*
X7652325Y-6666460D02*
X7671373Y-6675984D01*
X7671373Y-6675984D02*
X7709468Y-6675984D01*
X7709468Y-6675984D02*
X7728515Y-6666460D01*
X7728515Y-6666460D02*
X7738039Y-6647412D01*
X7738039Y-6647412D02*
X7738039Y-6637888D01*
X7738039Y-6637888D02*
X7728515Y-6618841D01*
X7728515Y-6618841D02*
X7709468Y-6609317D01*
X7709468Y-6609317D02*
X7680896Y-6609317D01*
X7680896Y-6609317D02*
X7661849Y-6599793D01*
X7661849Y-6599793D02*
X7652325Y-6580746D01*
X7652325Y-6580746D02*
X7652325Y-6571222D01*
X7652325Y-6571222D02*
X7661849Y-6552174D01*
X7661849Y-6552174D02*
X7680896Y-6542650D01*
X7680896Y-6542650D02*
X7709468Y-6542650D01*
X7709468Y-6542650D02*
X7728515Y-6552174D01*
X7852325Y-6675984D02*
X7833277Y-6666460D01*
X7833277Y-6666460D02*
X7823754Y-6647412D01*
X7823754Y-6647412D02*
X7823754Y-6475984D01*
X7957087Y-6675984D02*
X7938039Y-6666460D01*
X7938039Y-6666460D02*
X7928515Y-6656936D01*
X7928515Y-6656936D02*
X7918992Y-6637888D01*
X7918992Y-6637888D02*
X7918992Y-6580746D01*
X7918992Y-6580746D02*
X7928515Y-6561698D01*
X7928515Y-6561698D02*
X7938039Y-6552174D01*
X7938039Y-6552174D02*
X7957087Y-6542650D01*
X7957087Y-6542650D02*
X7985658Y-6542650D01*
X7985658Y-6542650D02*
X8004706Y-6552174D01*
X8004706Y-6552174D02*
X8014230Y-6561698D01*
X8014230Y-6561698D02*
X8023754Y-6580746D01*
X8023754Y-6580746D02*
X8023754Y-6637888D01*
X8023754Y-6637888D02*
X8014230Y-6656936D01*
X8014230Y-6656936D02*
X8004706Y-6666460D01*
X8004706Y-6666460D02*
X7985658Y-6675984D01*
X7985658Y-6675984D02*
X7957087Y-6675984D01*
X8080896Y-6542650D02*
X8157087Y-6542650D01*
X8109468Y-6475984D02*
X8109468Y-6647412D01*
X8109468Y-6647412D02*
X8118992Y-6666460D01*
X8118992Y-6666460D02*
X8138039Y-6675984D01*
X8138039Y-6675984D02*
X8157087Y-6675984D01*
X8214230Y-6666460D02*
X8233277Y-6675984D01*
X8233277Y-6675984D02*
X8271373Y-6675984D01*
X8271373Y-6675984D02*
X8290420Y-6666460D01*
X8290420Y-6666460D02*
X8299944Y-6647412D01*
X8299944Y-6647412D02*
X8299944Y-6637888D01*
X8299944Y-6637888D02*
X8290420Y-6618841D01*
X8290420Y-6618841D02*
X8271373Y-6609317D01*
X8271373Y-6609317D02*
X8242801Y-6609317D01*
X8242801Y-6609317D02*
X8223754Y-6599793D01*
X8223754Y-6599793D02*
X8214230Y-6580746D01*
X8214230Y-6580746D02*
X8214230Y-6571222D01*
X8214230Y-6571222D02*
X8223754Y-6552174D01*
X8223754Y-6552174D02*
X8242801Y-6542650D01*
X8242801Y-6542650D02*
X8271373Y-6542650D01*
X8271373Y-6542650D02*
X8290420Y-6552174D01*
X8366611Y-6752174D02*
X8376135Y-6742650D01*
X8376135Y-6742650D02*
X8395182Y-6714079D01*
X8395182Y-6714079D02*
X8404706Y-6695031D01*
X8404706Y-6695031D02*
X8414230Y-6666460D01*
X8414230Y-6666460D02*
X8423754Y-6618841D01*
X8423754Y-6618841D02*
X8423754Y-6580746D01*
X8423754Y-6580746D02*
X8414230Y-6533127D01*
X8414230Y-6533127D02*
X8404706Y-6504555D01*
X8404706Y-6504555D02*
X8395182Y-6485508D01*
X8395182Y-6485508D02*
X8376135Y-6456936D01*
X8376135Y-6456936D02*
X8366611Y-6447412D01*
M02*
