%TF.GenerationSoftware,KiCad,Pcbnew,8.0.7*%
%TF.CreationDate,2025-05-02T19:05:35-05:00*%
%TF.ProjectId,PCB_Glasses,5043425f-476c-4617-9373-65732e6b6963,rev?*%
%TF.SameCoordinates,Original*%
%TF.FileFunction,Copper,L1,Top*%
%TF.FilePolarity,Positive*%
%FSLAX46Y46*%
G04 Gerber Fmt 4.6, Leading zero omitted, Abs format (unit mm)*
G04 Created by KiCad (PCBNEW 8.0.7) date 2025-05-02 19:05:35*
%MOMM*%
%LPD*%
G01*
G04 APERTURE LIST*
G04 Aperture macros list*
%AMRoundRect*
0 Rectangle with rounded corners*
0 $1 Rounding radius*
0 $2 $3 $4 $5 $6 $7 $8 $9 X,Y pos of 4 corners*
0 Add a 4 corners polygon primitive as box body*
4,1,4,$2,$3,$4,$5,$6,$7,$8,$9,$2,$3,0*
0 Add four circle primitives for the rounded corners*
1,1,$1+$1,$2,$3*
1,1,$1+$1,$4,$5*
1,1,$1+$1,$6,$7*
1,1,$1+$1,$8,$9*
0 Add four rect primitives between the rounded corners*
20,1,$1+$1,$2,$3,$4,$5,0*
20,1,$1+$1,$4,$5,$6,$7,0*
20,1,$1+$1,$6,$7,$8,$9,0*
20,1,$1+$1,$8,$9,$2,$3,0*%
G04 Aperture macros list end*
%TA.AperFunction,SMDPad,CuDef*%
%ADD10R,1.500000X1.500000*%
%TD*%
%TA.AperFunction,ComponentPad*%
%ADD11C,1.524000*%
%TD*%
%TA.AperFunction,SMDPad,CuDef*%
%ADD12R,3.150000X1.000000*%
%TD*%
%TA.AperFunction,ComponentPad*%
%ADD13O,2.500000X1.500000*%
%TD*%
%TA.AperFunction,SMDPad,CuDef*%
%ADD14RoundRect,0.243750X0.243750X0.456250X-0.243750X0.456250X-0.243750X-0.456250X0.243750X-0.456250X0*%
%TD*%
%TA.AperFunction,SMDPad,CuDef*%
%ADD15RoundRect,0.250000X-0.400000X-0.625000X0.400000X-0.625000X0.400000X0.625000X-0.400000X0.625000X0*%
%TD*%
%TA.AperFunction,ComponentPad*%
%ADD16RoundRect,0.250000X0.750000X-0.600000X0.750000X0.600000X-0.750000X0.600000X-0.750000X-0.600000X0*%
%TD*%
%TA.AperFunction,ComponentPad*%
%ADD17O,2.000000X1.700000*%
%TD*%
%TA.AperFunction,ComponentPad*%
%ADD18RoundRect,0.250000X-0.750000X0.600000X-0.750000X-0.600000X0.750000X-0.600000X0.750000X0.600000X0*%
%TD*%
%TA.AperFunction,ComponentPad*%
%ADD19RoundRect,0.250000X-0.600000X-0.725000X0.600000X-0.725000X0.600000X0.725000X-0.600000X0.725000X0*%
%TD*%
%TA.AperFunction,ComponentPad*%
%ADD20O,1.700000X1.950000*%
%TD*%
%TA.AperFunction,SMDPad,CuDef*%
%ADD21RoundRect,0.250000X0.400000X0.625000X-0.400000X0.625000X-0.400000X-0.625000X0.400000X-0.625000X0*%
%TD*%
%TA.AperFunction,ViaPad*%
%ADD22C,1.270000*%
%TD*%
%TA.AperFunction,Conductor*%
%ADD23C,0.200000*%
%TD*%
%TA.AperFunction,Conductor*%
%ADD24C,0.500000*%
%TD*%
G04 APERTURE END LIST*
D10*
%TO.P,SW1,1,1*%
%TO.N,GND*%
X58510000Y-29210000D03*
%TO.P,SW1,2,2*%
%TO.N,Net-(U1-D6)*%
X50710000Y-29210000D03*
%TD*%
D11*
%TO.P,U2,1,VCC*%
%TO.N,+3V8*%
X72330000Y-34500000D03*
%TO.P,U2,2,GND*%
%TO.N,GND*%
X69790000Y-34500000D03*
%TO.P,U2,3,SCL*%
%TO.N,/SCL*%
X67250000Y-34500000D03*
%TO.P,U2,4,SDA*%
%TO.N,/SDA*%
X64710000Y-34500000D03*
%TO.P,U2,5,XDA*%
%TO.N,unconnected-(U2-XDA-Pad5)*%
X62170000Y-34500000D03*
%TO.P,U2,6,XCL*%
%TO.N,unconnected-(U2-XCL-Pad6)*%
X59630000Y-34500000D03*
%TO.P,U2,7,ADD*%
%TO.N,GND*%
X57090000Y-34500000D03*
%TO.P,U2,8,INT*%
%TO.N,unconnected-(U2-INT-Pad8)*%
X54550000Y-34500000D03*
%TD*%
D12*
%TO.P,U1,1,D0*%
%TO.N,Net-(U1-D0)*%
X46275000Y-48740000D03*
%TO.P,U1,2,D1*%
%TO.N,/D1*%
X46275000Y-46200000D03*
%TO.P,U1,3,D2*%
%TO.N,/D2*%
X46275000Y-43660000D03*
%TO.P,U1,4,D3*%
%TO.N,Net-(U1-D3)*%
X46275000Y-41120000D03*
%TO.P,U1,5,D4*%
%TO.N,/SDA*%
X46275000Y-38580000D03*
%TO.P,U1,6,D5*%
%TO.N,/SCL*%
X46275000Y-36040000D03*
%TO.P,U1,7,D6*%
%TO.N,Net-(U1-D6)*%
X46275000Y-33500000D03*
%TO.P,U1,8,D7*%
%TO.N,unconnected-(U1-D7-Pad8)*%
X30250000Y-33500000D03*
%TO.P,U1,9,D8*%
%TO.N,unconnected-(U1-D8-Pad9)*%
X30250000Y-36040000D03*
%TO.P,U1,10,D9*%
%TO.N,unconnected-(U1-D9-Pad10)*%
X30250000Y-38580000D03*
%TO.P,U1,11,D10*%
%TO.N,unconnected-(U1-D10-Pad11)*%
X30250000Y-41120000D03*
%TO.P,U1,12,VCC_3V3*%
%TO.N,+3.3V*%
X30250000Y-43660000D03*
%TO.P,U1,13,GND*%
%TO.N,GND*%
X30250000Y-46200000D03*
%TO.P,U1,14,VUSB*%
%TO.N,unconnected-(U1-VUSB-Pad14)*%
X30250000Y-48740000D03*
D13*
%TO.P,U1,B+,Batt+*%
%TO.N,+3V8*%
X42615000Y-41420000D03*
%TO.P,U1,B-,Batt-*%
%TO.N,GND*%
X42604000Y-43320000D03*
%TD*%
D14*
%TO.P,D1,1,K*%
%TO.N,GND*%
X47187500Y-29250000D03*
%TO.P,D1,2,A*%
%TO.N,Net-(D1-A)*%
X45312500Y-29250000D03*
%TD*%
D15*
%TO.P,R2,1*%
%TO.N,Net-(U1-D0)*%
X21750000Y-47625000D03*
%TO.P,R2,2*%
%TO.N,GND*%
X24850000Y-47625000D03*
%TD*%
D16*
%TO.P,J1,1,Pin_1*%
%TO.N,GND*%
X23250000Y-37750000D03*
D17*
%TO.P,J1,2,Pin_2*%
%TO.N,+3V8*%
X23250000Y-35250000D03*
%TD*%
D18*
%TO.P,J4,1,Pin_1*%
%TO.N,/D2*%
X77000000Y-41750000D03*
D17*
%TO.P,J4,2,Pin_2*%
%TO.N,/D1*%
X77000000Y-44250000D03*
%TD*%
D19*
%TO.P,J2,1,Pin_1*%
%TO.N,+3.3V*%
X64250000Y-29250000D03*
D20*
%TO.P,J2,2,Pin_2*%
%TO.N,GND*%
X66750000Y-29250000D03*
%TO.P,J2,3,Pin_3*%
%TO.N,/SDA*%
X69250000Y-29250000D03*
%TO.P,J2,4,Pin_4*%
%TO.N,/SCL*%
X71750000Y-29250000D03*
%TD*%
D15*
%TO.P,R1,1*%
%TO.N,Net-(U1-D0)*%
X22000000Y-43815000D03*
%TO.P,R1,2*%
%TO.N,+3.3V*%
X25100000Y-43815000D03*
%TD*%
D21*
%TO.P,R3,1*%
%TO.N,Net-(D1-A)*%
X41050000Y-29250000D03*
%TO.P,R3,2*%
%TO.N,Net-(U1-D3)*%
X37950000Y-29250000D03*
%TD*%
D22*
%TO.N,/SCL*%
X60960000Y-36830000D03*
%TO.N,+3.3V*%
X36195000Y-41910000D03*
%TD*%
D23*
%TO.N,Net-(D1-A)*%
X41050000Y-29250000D02*
X45312500Y-29250000D01*
D24*
%TO.N,+3V8*%
X23575000Y-34925000D02*
X23250000Y-35250000D01*
X34290000Y-34925000D02*
X23575000Y-34925000D01*
X42615000Y-41420000D02*
X40785000Y-41420000D01*
X40785000Y-41420000D02*
X34290000Y-34925000D01*
D23*
%TO.N,/SDA*%
X69250000Y-29250000D02*
X69250000Y-29960000D01*
X69250000Y-29960000D02*
X64710000Y-34500000D01*
X64710000Y-34500000D02*
X60630000Y-38580000D01*
X60630000Y-38580000D02*
X46275000Y-38580000D01*
%TO.N,/SCL*%
X60960000Y-36830000D02*
X50800000Y-36830000D01*
X50800000Y-36830000D02*
X50010000Y-36040000D01*
X50010000Y-36040000D02*
X46275000Y-36040000D01*
X71750000Y-30000000D02*
X67250000Y-34500000D01*
X71750000Y-29250000D02*
X71750000Y-30000000D01*
%TO.N,+3.3V*%
X34445000Y-43660000D02*
X36195000Y-41910000D01*
D24*
X30250000Y-43660000D02*
X25255000Y-43660000D01*
X25255000Y-43660000D02*
X25100000Y-43815000D01*
D23*
X30250000Y-43660000D02*
X34445000Y-43660000D01*
%TO.N,/D2*%
X54130000Y-43660000D02*
X46275000Y-43660000D01*
X77000000Y-41750000D02*
X56040000Y-41750000D01*
X56040000Y-41750000D02*
X54130000Y-43660000D01*
%TO.N,/D1*%
X77000000Y-44250000D02*
X55445000Y-44250000D01*
X53495000Y-46200000D02*
X46275000Y-46200000D01*
X55445000Y-44250000D02*
X53495000Y-46200000D01*
D24*
%TO.N,Net-(U1-D0)*%
X41430000Y-48740000D02*
X46275000Y-48740000D01*
X22000000Y-47375000D02*
X21750000Y-47625000D01*
X21750000Y-49055000D02*
X22860000Y-50165000D01*
X21750000Y-44065000D02*
X22000000Y-43815000D01*
X22860000Y-50165000D02*
X40005000Y-50165000D01*
X40005000Y-50165000D02*
X41430000Y-48740000D01*
X21750000Y-47625000D02*
X21750000Y-49055000D01*
X22000000Y-43815000D02*
X22000000Y-47375000D01*
D23*
%TO.N,Net-(U1-D3)*%
X46275000Y-41120000D02*
X45565000Y-41120000D01*
X45565000Y-41120000D02*
X37950000Y-33505000D01*
X37950000Y-33505000D02*
X37950000Y-29250000D01*
%TO.N,Net-(U1-D6)*%
X50710000Y-32475000D02*
X49685000Y-33500000D01*
X50710000Y-29210000D02*
X50710000Y-32475000D01*
X49685000Y-33500000D02*
X46275000Y-33500000D01*
%TD*%
%TA.AperFunction,Conductor*%
%TO.N,GND*%
G36*
X79192539Y-27020185D02*
G01*
X79238294Y-27072989D01*
X79249500Y-27124500D01*
X79249500Y-28445445D01*
X79229815Y-28512484D01*
X79177011Y-28558239D01*
X79107853Y-28568183D01*
X79044297Y-28539158D01*
X79022398Y-28514336D01*
X79014519Y-28502544D01*
X78824327Y-28285672D01*
X78607452Y-28095478D01*
X78367613Y-27935223D01*
X78367606Y-27935219D01*
X78108905Y-27807642D01*
X77835760Y-27714921D01*
X77835754Y-27714919D01*
X77835753Y-27714919D01*
X77835751Y-27714918D01*
X77835745Y-27714917D01*
X77552849Y-27658646D01*
X77552839Y-27658644D01*
X77265000Y-27639778D01*
X76977161Y-27658644D01*
X76977155Y-27658645D01*
X76977150Y-27658646D01*
X76694254Y-27714917D01*
X76694239Y-27714921D01*
X76421094Y-27807642D01*
X76162393Y-27935219D01*
X76162386Y-27935223D01*
X75922547Y-28095478D01*
X75705672Y-28285672D01*
X75515478Y-28502547D01*
X75355223Y-28742386D01*
X75355219Y-28742393D01*
X75227642Y-29001094D01*
X75134921Y-29274239D01*
X75134917Y-29274254D01*
X75103273Y-29433343D01*
X75078644Y-29557161D01*
X75059778Y-29845000D01*
X75078313Y-30127796D01*
X75078644Y-30132837D01*
X75078646Y-30132849D01*
X75134917Y-30415745D01*
X75134921Y-30415760D01*
X75227642Y-30688905D01*
X75355219Y-30947606D01*
X75355223Y-30947613D01*
X75515478Y-31187452D01*
X75705672Y-31404327D01*
X75922546Y-31594520D01*
X76162389Y-31754778D01*
X76421098Y-31882359D01*
X76694247Y-31975081D01*
X76977161Y-32031356D01*
X77265000Y-32050222D01*
X77552839Y-32031356D01*
X77835753Y-31975081D01*
X78108902Y-31882359D01*
X78367611Y-31754778D01*
X78607454Y-31594520D01*
X78824327Y-31404327D01*
X79014520Y-31187454D01*
X79022397Y-31175665D01*
X79076007Y-31130860D01*
X79145332Y-31122150D01*
X79208360Y-31152303D01*
X79245081Y-31211745D01*
X79249500Y-31244554D01*
X79249500Y-50676000D01*
X79229815Y-50743039D01*
X79177011Y-50788794D01*
X79125500Y-50800000D01*
X40730730Y-50800000D01*
X40663691Y-50780315D01*
X40617936Y-50727511D01*
X40607992Y-50658353D01*
X40637017Y-50594797D01*
X40643049Y-50588319D01*
X41704548Y-49526819D01*
X41765871Y-49493334D01*
X41792229Y-49490500D01*
X44200249Y-49490500D01*
X44267288Y-49510185D01*
X44299515Y-49540188D01*
X44342451Y-49597542D01*
X44342454Y-49597546D01*
X44342457Y-49597548D01*
X44457664Y-49683793D01*
X44457671Y-49683797D01*
X44592517Y-49734091D01*
X44592516Y-49734091D01*
X44599444Y-49734835D01*
X44652127Y-49740500D01*
X47897872Y-49740499D01*
X47957483Y-49734091D01*
X48092331Y-49683796D01*
X48207546Y-49597546D01*
X48293796Y-49482331D01*
X48344091Y-49347483D01*
X48350500Y-49287873D01*
X48350499Y-48192128D01*
X48344091Y-48132517D01*
X48322608Y-48074919D01*
X48293797Y-47997671D01*
X48293793Y-47997664D01*
X48207547Y-47882455D01*
X48207544Y-47882452D01*
X48092335Y-47796206D01*
X48092328Y-47796202D01*
X47957482Y-47745908D01*
X47957483Y-47745908D01*
X47897883Y-47739501D01*
X47897881Y-47739500D01*
X47897873Y-47739500D01*
X47897864Y-47739500D01*
X44652129Y-47739500D01*
X44652123Y-47739501D01*
X44592516Y-47745908D01*
X44457671Y-47796202D01*
X44457664Y-47796206D01*
X44342457Y-47882451D01*
X44342451Y-47882457D01*
X44299515Y-47939812D01*
X44243581Y-47981682D01*
X44200249Y-47989500D01*
X41356080Y-47989500D01*
X41211092Y-48018340D01*
X41211082Y-48018343D01*
X41074511Y-48074912D01*
X41074498Y-48074919D01*
X40951584Y-48157048D01*
X40951580Y-48157051D01*
X39730451Y-49378181D01*
X39669128Y-49411666D01*
X39642770Y-49414500D01*
X32449500Y-49414500D01*
X32382461Y-49394815D01*
X32336706Y-49342011D01*
X32325500Y-49290500D01*
X32325499Y-48192129D01*
X32325498Y-48192123D01*
X32325497Y-48192116D01*
X32319091Y-48132517D01*
X32297608Y-48074919D01*
X32268797Y-47997671D01*
X32268793Y-47997664D01*
X32182547Y-47882455D01*
X32182544Y-47882452D01*
X32067335Y-47796206D01*
X32067328Y-47796202D01*
X31932482Y-47745908D01*
X31932483Y-47745908D01*
X31872883Y-47739501D01*
X31872881Y-47739500D01*
X31872873Y-47739500D01*
X31872864Y-47739500D01*
X28627129Y-47739500D01*
X28627123Y-47739501D01*
X28567516Y-47745908D01*
X28432671Y-47796202D01*
X28432664Y-47796206D01*
X28317455Y-47882452D01*
X28317452Y-47882455D01*
X28231206Y-47997664D01*
X28231202Y-47997671D01*
X28180908Y-48132517D01*
X28178271Y-48157049D01*
X28174501Y-48192123D01*
X28174500Y-48192135D01*
X28174501Y-49290500D01*
X28154816Y-49357539D01*
X28102013Y-49403294D01*
X28050501Y-49414500D01*
X23222230Y-49414500D01*
X23155191Y-49394815D01*
X23134549Y-49378181D01*
X22696549Y-48940181D01*
X22663064Y-48878858D01*
X22668048Y-48809166D01*
X22696549Y-48764819D01*
X22742712Y-48718656D01*
X22834814Y-48569334D01*
X22889999Y-48402797D01*
X22900500Y-48300009D01*
X22900500Y-48299986D01*
X23700001Y-48299986D01*
X23710494Y-48402697D01*
X23765641Y-48569119D01*
X23765643Y-48569124D01*
X23857684Y-48718345D01*
X23981654Y-48842315D01*
X24130875Y-48934356D01*
X24130880Y-48934358D01*
X24297302Y-48989505D01*
X24297309Y-48989506D01*
X24400019Y-48999999D01*
X24599999Y-48999999D01*
X25100000Y-48999999D01*
X25299972Y-48999999D01*
X25299986Y-48999998D01*
X25402697Y-48989505D01*
X25569119Y-48934358D01*
X25569124Y-48934356D01*
X25718345Y-48842315D01*
X25842315Y-48718345D01*
X25934356Y-48569124D01*
X25934358Y-48569119D01*
X25989505Y-48402697D01*
X25989506Y-48402690D01*
X25999999Y-48299986D01*
X26000000Y-48299973D01*
X26000000Y-47875000D01*
X25100000Y-47875000D01*
X25100000Y-48999999D01*
X24599999Y-48999999D01*
X24600000Y-48999998D01*
X24600000Y-47875000D01*
X23700001Y-47875000D01*
X23700001Y-48299986D01*
X22900500Y-48299986D01*
X22900499Y-46950013D01*
X23700000Y-46950013D01*
X23700000Y-47375000D01*
X24600000Y-47375000D01*
X25100000Y-47375000D01*
X25999999Y-47375000D01*
X25999999Y-46950028D01*
X25999998Y-46950013D01*
X25989505Y-46847302D01*
X25956548Y-46747844D01*
X28175000Y-46747844D01*
X28181401Y-46807372D01*
X28181403Y-46807379D01*
X28231645Y-46942086D01*
X28231649Y-46942093D01*
X28317809Y-47057187D01*
X28317812Y-47057190D01*
X28432906Y-47143350D01*
X28432913Y-47143354D01*
X28567620Y-47193596D01*
X28567627Y-47193598D01*
X28627155Y-47199999D01*
X28627172Y-47200000D01*
X30000000Y-47200000D01*
X30500000Y-47200000D01*
X31872828Y-47200000D01*
X31872844Y-47199999D01*
X31932372Y-47193598D01*
X31932379Y-47193596D01*
X32067086Y-47143354D01*
X32067093Y-47143350D01*
X32182187Y-47057190D01*
X32182190Y-47057187D01*
X32268350Y-46942093D01*
X32268354Y-46942086D01*
X32318596Y-46807379D01*
X32318598Y-46807372D01*
X32324999Y-46747844D01*
X32325000Y-46747827D01*
X32325000Y-46450000D01*
X30500000Y-46450000D01*
X30500000Y-47200000D01*
X30000000Y-47200000D01*
X30000000Y-46450000D01*
X28175000Y-46450000D01*
X28175000Y-46747844D01*
X25956548Y-46747844D01*
X25934358Y-46680880D01*
X25934356Y-46680875D01*
X25842315Y-46531654D01*
X25718345Y-46407684D01*
X25569124Y-46315643D01*
X25569119Y-46315641D01*
X25402697Y-46260494D01*
X25402690Y-46260493D01*
X25299986Y-46250000D01*
X25100000Y-46250000D01*
X25100000Y-47375000D01*
X24600000Y-47375000D01*
X24600000Y-46250000D01*
X24400029Y-46250000D01*
X24400012Y-46250001D01*
X24297302Y-46260494D01*
X24130880Y-46315641D01*
X24130875Y-46315643D01*
X23981654Y-46407684D01*
X23857684Y-46531654D01*
X23765643Y-46680875D01*
X23765641Y-46680880D01*
X23710494Y-46847302D01*
X23710493Y-46847309D01*
X23700000Y-46950013D01*
X22900499Y-46950013D01*
X22900499Y-46949992D01*
X22899716Y-46942331D01*
X22889999Y-46847203D01*
X22889998Y-46847200D01*
X22876837Y-46807483D01*
X22834814Y-46680666D01*
X22834723Y-46680519D01*
X22768961Y-46573900D01*
X22750500Y-46508804D01*
X22750500Y-45652155D01*
X28175000Y-45652155D01*
X28175000Y-45950000D01*
X30000000Y-45950000D01*
X30500000Y-45950000D01*
X32325000Y-45950000D01*
X32325000Y-45652172D01*
X32324999Y-45652155D01*
X32318598Y-45592627D01*
X32318596Y-45592620D01*
X32268354Y-45457913D01*
X32268350Y-45457906D01*
X32182190Y-45342812D01*
X32182187Y-45342809D01*
X32067093Y-45256649D01*
X32067086Y-45256645D01*
X31932379Y-45206403D01*
X31932372Y-45206401D01*
X31872844Y-45200000D01*
X30500000Y-45200000D01*
X30500000Y-45950000D01*
X30000000Y-45950000D01*
X30000000Y-45200000D01*
X28627155Y-45200000D01*
X28567627Y-45206401D01*
X28567620Y-45206403D01*
X28432913Y-45256645D01*
X28432906Y-45256649D01*
X28317812Y-45342809D01*
X28317809Y-45342812D01*
X28231649Y-45457906D01*
X28231645Y-45457913D01*
X28181403Y-45592620D01*
X28181401Y-45592627D01*
X28175000Y-45652155D01*
X22750500Y-45652155D01*
X22750500Y-45174797D01*
X22770185Y-45107758D01*
X22809403Y-45069258D01*
X22868656Y-45032712D01*
X22992712Y-44908656D01*
X23084814Y-44759334D01*
X23139999Y-44592797D01*
X23150500Y-44490009D01*
X23150499Y-43139992D01*
X23150498Y-43139983D01*
X23949500Y-43139983D01*
X23949500Y-44490001D01*
X23949501Y-44490018D01*
X23960000Y-44592796D01*
X23960001Y-44592799D01*
X24015185Y-44759331D01*
X24015187Y-44759336D01*
X24050069Y-44815888D01*
X24107288Y-44908656D01*
X24231344Y-45032712D01*
X24380666Y-45124814D01*
X24547203Y-45179999D01*
X24649991Y-45190500D01*
X25550008Y-45190499D01*
X25550016Y-45190498D01*
X25550019Y-45190498D01*
X25606302Y-45184748D01*
X25652797Y-45179999D01*
X25819334Y-45124814D01*
X25968656Y-45032712D01*
X26092712Y-44908656D01*
X26184814Y-44759334D01*
X26239999Y-44592797D01*
X26247242Y-44521897D01*
X26273638Y-44457206D01*
X26330819Y-44417055D01*
X26370600Y-44410500D01*
X28175249Y-44410500D01*
X28242288Y-44430185D01*
X28274515Y-44460188D01*
X28296845Y-44490016D01*
X28317454Y-44517546D01*
X28317457Y-44517548D01*
X28432664Y-44603793D01*
X28432671Y-44603797D01*
X28567517Y-44654091D01*
X28567516Y-44654091D01*
X28574444Y-44654835D01*
X28627127Y-44660500D01*
X31872872Y-44660499D01*
X31932483Y-44654091D01*
X32067331Y-44603796D01*
X32182546Y-44517546D01*
X32268796Y-44402331D01*
X32274886Y-44386002D01*
X32291609Y-44341167D01*
X32333480Y-44285233D01*
X32398944Y-44260816D01*
X32407791Y-44260500D01*
X34358331Y-44260500D01*
X34358347Y-44260501D01*
X34365943Y-44260501D01*
X34524054Y-44260501D01*
X34524057Y-44260501D01*
X34676785Y-44219577D01*
X34761797Y-44170495D01*
X34774821Y-44162976D01*
X34813709Y-44140524D01*
X34813708Y-44140524D01*
X34813716Y-44140520D01*
X34925520Y-44028716D01*
X34925520Y-44028714D01*
X34935724Y-44018511D01*
X34935727Y-44018506D01*
X35891032Y-43063202D01*
X35952353Y-43029719D01*
X36001491Y-43028996D01*
X36089780Y-43045500D01*
X36089783Y-43045500D01*
X36300218Y-43045500D01*
X36300220Y-43045500D01*
X36507076Y-43006832D01*
X36703304Y-42930813D01*
X36882223Y-42820031D01*
X37037740Y-42678259D01*
X37164558Y-42510325D01*
X37258359Y-42321947D01*
X37315948Y-42119542D01*
X37335365Y-41910000D01*
X37315948Y-41700458D01*
X37258359Y-41498053D01*
X37164558Y-41309675D01*
X37037740Y-41141741D01*
X36991943Y-41099992D01*
X36882223Y-40999969D01*
X36882221Y-40999967D01*
X36703307Y-40889188D01*
X36703301Y-40889185D01*
X36548648Y-40829273D01*
X36507076Y-40813168D01*
X36300220Y-40774500D01*
X36089780Y-40774500D01*
X35882924Y-40813168D01*
X35882921Y-40813168D01*
X35882921Y-40813169D01*
X35686698Y-40889185D01*
X35686692Y-40889188D01*
X35507778Y-40999967D01*
X35507776Y-40999969D01*
X35352261Y-41141739D01*
X35225442Y-41309674D01*
X35131642Y-41498049D01*
X35131641Y-41498053D01*
X35083324Y-41667872D01*
X35074051Y-41700462D01*
X35054635Y-41909999D01*
X35054635Y-41910000D01*
X35073953Y-42118477D01*
X35060538Y-42187047D01*
X35038163Y-42217599D01*
X34232584Y-43023181D01*
X34171261Y-43056666D01*
X34144903Y-43059500D01*
X32407791Y-43059500D01*
X32340752Y-43039815D01*
X32294997Y-42987011D01*
X32291609Y-42978833D01*
X32268797Y-42917671D01*
X32268793Y-42917664D01*
X32182547Y-42802455D01*
X32182544Y-42802452D01*
X32067335Y-42716206D01*
X32067328Y-42716202D01*
X31932482Y-42665908D01*
X31932483Y-42665908D01*
X31872883Y-42659501D01*
X31872881Y-42659500D01*
X31872873Y-42659500D01*
X31872864Y-42659500D01*
X28627129Y-42659500D01*
X28627123Y-42659501D01*
X28567516Y-42665908D01*
X28432671Y-42716202D01*
X28432664Y-42716206D01*
X28317457Y-42802451D01*
X28317451Y-42802457D01*
X28274515Y-42859812D01*
X28218581Y-42901682D01*
X28175249Y-42909500D01*
X26277974Y-42909500D01*
X26210935Y-42889815D01*
X26172435Y-42850597D01*
X26165999Y-42840162D01*
X26092712Y-42721344D01*
X25968656Y-42597288D01*
X25819334Y-42505186D01*
X25652797Y-42450001D01*
X25652795Y-42450000D01*
X25550010Y-42439500D01*
X24649998Y-42439500D01*
X24649980Y-42439501D01*
X24547203Y-42450000D01*
X24547200Y-42450001D01*
X24380668Y-42505185D01*
X24380663Y-42505187D01*
X24231342Y-42597289D01*
X24107289Y-42721342D01*
X24015187Y-42870663D01*
X24015185Y-42870668D01*
X23999612Y-42917664D01*
X23960001Y-43037203D01*
X23960001Y-43037204D01*
X23960000Y-43037204D01*
X23949500Y-43139983D01*
X23150498Y-43139983D01*
X23139999Y-43037203D01*
X23084814Y-42870666D01*
X22992712Y-42721344D01*
X22868656Y-42597288D01*
X22719334Y-42505186D01*
X22552797Y-42450001D01*
X22552795Y-42450000D01*
X22450010Y-42439500D01*
X21549998Y-42439500D01*
X21549980Y-42439501D01*
X21447203Y-42450000D01*
X21447200Y-42450001D01*
X21280668Y-42505185D01*
X21280663Y-42505187D01*
X21131342Y-42597289D01*
X21007289Y-42721342D01*
X20915187Y-42870663D01*
X20915185Y-42870668D01*
X20899612Y-42917664D01*
X20860001Y-43037203D01*
X20860001Y-43037204D01*
X20860000Y-43037204D01*
X20849500Y-43139983D01*
X20849500Y-44490001D01*
X20849501Y-44490018D01*
X20860000Y-44592796D01*
X20860001Y-44592799D01*
X20915185Y-44759331D01*
X20915187Y-44759336D01*
X20950069Y-44815888D01*
X21007288Y-44908656D01*
X21131344Y-45032712D01*
X21190596Y-45069258D01*
X21237321Y-45121204D01*
X21249500Y-45174797D01*
X21249500Y-46153130D01*
X21229815Y-46220169D01*
X21177011Y-46265924D01*
X21164505Y-46270836D01*
X21030666Y-46315186D01*
X21030663Y-46315187D01*
X20881342Y-46407289D01*
X20757289Y-46531342D01*
X20665187Y-46680663D01*
X20665185Y-46680668D01*
X20642931Y-46747827D01*
X20610001Y-46847203D01*
X20610001Y-46847204D01*
X20610000Y-46847204D01*
X20599500Y-46949983D01*
X20599500Y-48300001D01*
X20599501Y-48300018D01*
X20610000Y-48402796D01*
X20610001Y-48402799D01*
X20665115Y-48569119D01*
X20665186Y-48569334D01*
X20757288Y-48718656D01*
X20881344Y-48842712D01*
X20940596Y-48879258D01*
X20987321Y-48931204D01*
X20999500Y-48984797D01*
X20999500Y-49128918D01*
X20999500Y-49128920D01*
X20999499Y-49128920D01*
X21028340Y-49273907D01*
X21028343Y-49273917D01*
X21084913Y-49410490D01*
X21084914Y-49410491D01*
X21084916Y-49410495D01*
X21106863Y-49443340D01*
X21106864Y-49443343D01*
X21167043Y-49533410D01*
X21167047Y-49533415D01*
X22221951Y-50588319D01*
X22255436Y-50649642D01*
X22250452Y-50719334D01*
X22208580Y-50775267D01*
X22143116Y-50799684D01*
X22134270Y-50800000D01*
X20444000Y-50800000D01*
X20376961Y-50780315D01*
X20331206Y-50727511D01*
X20320000Y-50676000D01*
X20320000Y-40572135D01*
X28174500Y-40572135D01*
X28174500Y-41667870D01*
X28174501Y-41667876D01*
X28180908Y-41727483D01*
X28231202Y-41862328D01*
X28231206Y-41862335D01*
X28317452Y-41977544D01*
X28317455Y-41977547D01*
X28432664Y-42063793D01*
X28432671Y-42063797D01*
X28567517Y-42114091D01*
X28567516Y-42114091D01*
X28574444Y-42114835D01*
X28627127Y-42120500D01*
X31872872Y-42120499D01*
X31932483Y-42114091D01*
X32067331Y-42063796D01*
X32182546Y-41977546D01*
X32268796Y-41862331D01*
X32319091Y-41727483D01*
X32325500Y-41667873D01*
X32325499Y-40572128D01*
X32319091Y-40512517D01*
X32301805Y-40466172D01*
X32268797Y-40377671D01*
X32268793Y-40377664D01*
X32182547Y-40262455D01*
X32182544Y-40262452D01*
X32067335Y-40176206D01*
X32067328Y-40176202D01*
X31932482Y-40125908D01*
X31932483Y-40125908D01*
X31872883Y-40119501D01*
X31872881Y-40119500D01*
X31872873Y-40119500D01*
X31872864Y-40119500D01*
X28627129Y-40119500D01*
X28627123Y-40119501D01*
X28567516Y-40125908D01*
X28432671Y-40176202D01*
X28432664Y-40176206D01*
X28317455Y-40262452D01*
X28317452Y-40262455D01*
X28231206Y-40377664D01*
X28231202Y-40377671D01*
X28180908Y-40512517D01*
X28176095Y-40557288D01*
X28174501Y-40572123D01*
X28174500Y-40572135D01*
X20320000Y-40572135D01*
X20320000Y-35143713D01*
X21749500Y-35143713D01*
X21749500Y-35356286D01*
X21781682Y-35559480D01*
X21782754Y-35566243D01*
X21848089Y-35767323D01*
X21848444Y-35768414D01*
X21944951Y-35957820D01*
X22069890Y-36129786D01*
X22209068Y-36268964D01*
X22242553Y-36330287D01*
X22237569Y-36399979D01*
X22195697Y-36455912D01*
X22186484Y-36462183D01*
X22031659Y-36557680D01*
X22031655Y-36557683D01*
X21907684Y-36681654D01*
X21815643Y-36830875D01*
X21815641Y-36830880D01*
X21760494Y-36997302D01*
X21760493Y-36997309D01*
X21750000Y-37100013D01*
X21750000Y-37500000D01*
X22816988Y-37500000D01*
X22784075Y-37557007D01*
X22750000Y-37684174D01*
X22750000Y-37815826D01*
X22784075Y-37942993D01*
X22816988Y-38000000D01*
X21750001Y-38000000D01*
X21750001Y-38399986D01*
X21760494Y-38502697D01*
X21815641Y-38669119D01*
X21815643Y-38669124D01*
X21907684Y-38818345D01*
X22031654Y-38942315D01*
X22180875Y-39034356D01*
X22180880Y-39034358D01*
X22347302Y-39089505D01*
X22347309Y-39089506D01*
X22450019Y-39099999D01*
X22999999Y-39099999D01*
X23000000Y-39099998D01*
X23000000Y-38183012D01*
X23057007Y-38215925D01*
X23184174Y-38250000D01*
X23315826Y-38250000D01*
X23442993Y-38215925D01*
X23500000Y-38183012D01*
X23500000Y-39099999D01*
X24049972Y-39099999D01*
X24049986Y-39099998D01*
X24152697Y-39089505D01*
X24319119Y-39034358D01*
X24319124Y-39034356D01*
X24468345Y-38942315D01*
X24592315Y-38818345D01*
X24684356Y-38669124D01*
X24684358Y-38669119D01*
X24739505Y-38502697D01*
X24739506Y-38502690D01*
X24749999Y-38399986D01*
X24750000Y-38399973D01*
X24750000Y-38032135D01*
X28174500Y-38032135D01*
X28174500Y-39127870D01*
X28174501Y-39127876D01*
X28180908Y-39187483D01*
X28231202Y-39322328D01*
X28231206Y-39322335D01*
X28317452Y-39437544D01*
X28317455Y-39437547D01*
X28432664Y-39523793D01*
X28432671Y-39523797D01*
X28567517Y-39574091D01*
X28567516Y-39574091D01*
X28574444Y-39574835D01*
X28627127Y-39580500D01*
X31872872Y-39580499D01*
X31932483Y-39574091D01*
X32067331Y-39523796D01*
X32182546Y-39437546D01*
X32268796Y-39322331D01*
X32319091Y-39187483D01*
X32325500Y-39127873D01*
X32325499Y-38032128D01*
X32319091Y-37972517D01*
X32314353Y-37959815D01*
X32268797Y-37837671D01*
X32268793Y-37837664D01*
X32182547Y-37722455D01*
X32182544Y-37722452D01*
X32067335Y-37636206D01*
X32067328Y-37636202D01*
X31932482Y-37585908D01*
X31932483Y-37585908D01*
X31872883Y-37579501D01*
X31872881Y-37579500D01*
X31872873Y-37579500D01*
X31872864Y-37579500D01*
X28627129Y-37579500D01*
X28627123Y-37579501D01*
X28567516Y-37585908D01*
X28432671Y-37636202D01*
X28432664Y-37636206D01*
X28317455Y-37722452D01*
X28317452Y-37722455D01*
X28231206Y-37837664D01*
X28231202Y-37837671D01*
X28180908Y-37972517D01*
X28177954Y-38000000D01*
X28174501Y-38032123D01*
X28174500Y-38032135D01*
X24750000Y-38032135D01*
X24750000Y-38000000D01*
X23683012Y-38000000D01*
X23715925Y-37942993D01*
X23750000Y-37815826D01*
X23750000Y-37684174D01*
X23715925Y-37557007D01*
X23683012Y-37500000D01*
X24749999Y-37500000D01*
X24749999Y-37100028D01*
X24749998Y-37100013D01*
X24739505Y-36997302D01*
X24684358Y-36830880D01*
X24684356Y-36830875D01*
X24592315Y-36681654D01*
X24468345Y-36557684D01*
X24313515Y-36462184D01*
X24266791Y-36410236D01*
X24255568Y-36341273D01*
X24283412Y-36277191D01*
X24290909Y-36268986D01*
X24430104Y-36129792D01*
X24555051Y-35957816D01*
X24651557Y-35768412D01*
X24653906Y-35761179D01*
X24693345Y-35703506D01*
X24757703Y-35676308D01*
X24771837Y-35675500D01*
X28050500Y-35675500D01*
X28117539Y-35695185D01*
X28163294Y-35747989D01*
X28174500Y-35799500D01*
X28174500Y-36587870D01*
X28174501Y-36587876D01*
X28180908Y-36647483D01*
X28231202Y-36782328D01*
X28231206Y-36782335D01*
X28317452Y-36897544D01*
X28317455Y-36897547D01*
X28432664Y-36983793D01*
X28432671Y-36983797D01*
X28567517Y-37034091D01*
X28567516Y-37034091D01*
X28574444Y-37034835D01*
X28627127Y-37040500D01*
X31872872Y-37040499D01*
X31932483Y-37034091D01*
X32067331Y-36983796D01*
X32182546Y-36897546D01*
X32268796Y-36782331D01*
X32319091Y-36647483D01*
X32325500Y-36587873D01*
X32325499Y-35799499D01*
X32345183Y-35732461D01*
X32397987Y-35686706D01*
X32449499Y-35675500D01*
X33927770Y-35675500D01*
X33994809Y-35695185D01*
X34015451Y-35711819D01*
X40202049Y-41898416D01*
X40281177Y-41977544D01*
X40306585Y-42002952D01*
X40429498Y-42085080D01*
X40429511Y-42085087D01*
X40566082Y-42141656D01*
X40566087Y-42141658D01*
X40566091Y-42141658D01*
X40566092Y-42141659D01*
X40711079Y-42170500D01*
X40711082Y-42170500D01*
X40711083Y-42170500D01*
X40858917Y-42170500D01*
X41051386Y-42170500D01*
X41118425Y-42190185D01*
X41151703Y-42221613D01*
X41161171Y-42234645D01*
X41203699Y-42277173D01*
X41237184Y-42338496D01*
X41232200Y-42408188D01*
X41203699Y-42452535D01*
X41150556Y-42505677D01*
X41150555Y-42505678D01*
X41034904Y-42664856D01*
X40945581Y-42840162D01*
X40884781Y-43027283D01*
X40878016Y-43070000D01*
X41670988Y-43070000D01*
X41638075Y-43127007D01*
X41604000Y-43254174D01*
X41604000Y-43385826D01*
X41638075Y-43512993D01*
X41670988Y-43570000D01*
X40878016Y-43570000D01*
X40884781Y-43612716D01*
X40945581Y-43799837D01*
X41034904Y-43975143D01*
X41150555Y-44134321D01*
X41289678Y-44273444D01*
X41448856Y-44389095D01*
X41624164Y-44478418D01*
X41811294Y-44539221D01*
X42005618Y-44570000D01*
X42354000Y-44570000D01*
X42354000Y-43820000D01*
X42854000Y-43820000D01*
X42854000Y-44570000D01*
X43202382Y-44570000D01*
X43396705Y-44539221D01*
X43583835Y-44478418D01*
X43759143Y-44389095D01*
X43918318Y-44273446D01*
X43995303Y-44196461D01*
X44056626Y-44162976D01*
X44126318Y-44167960D01*
X44182252Y-44209831D01*
X44202148Y-44260398D01*
X44204124Y-44259932D01*
X44205907Y-44267479D01*
X44256202Y-44402328D01*
X44256206Y-44402335D01*
X44342452Y-44517544D01*
X44342455Y-44517547D01*
X44457664Y-44603793D01*
X44457671Y-44603797D01*
X44592517Y-44654091D01*
X44592516Y-44654091D01*
X44599444Y-44654835D01*
X44652127Y-44660500D01*
X47897872Y-44660499D01*
X47957483Y-44654091D01*
X48092331Y-44603796D01*
X48207546Y-44517546D01*
X48293796Y-44402331D01*
X48299886Y-44386002D01*
X48316609Y-44341167D01*
X48358480Y-44285233D01*
X48423944Y-44260816D01*
X48432791Y-44260500D01*
X54043331Y-44260500D01*
X54043347Y-44260501D01*
X54050943Y-44260501D01*
X54209055Y-44260501D01*
X54209057Y-44260501D01*
X54275960Y-44242574D01*
X54345808Y-44244235D01*
X54403671Y-44283397D01*
X54431176Y-44347625D01*
X54419590Y-44416528D01*
X54395734Y-44450029D01*
X53282584Y-45563181D01*
X53221261Y-45596666D01*
X53194903Y-45599500D01*
X48432791Y-45599500D01*
X48365752Y-45579815D01*
X48319997Y-45527011D01*
X48316609Y-45518833D01*
X48293797Y-45457671D01*
X48293793Y-45457664D01*
X48207547Y-45342455D01*
X48207544Y-45342452D01*
X48092335Y-45256206D01*
X48092328Y-45256202D01*
X47957482Y-45205908D01*
X47957483Y-45205908D01*
X47897883Y-45199501D01*
X47897881Y-45199500D01*
X47897873Y-45199500D01*
X47897864Y-45199500D01*
X44652129Y-45199500D01*
X44652123Y-45199501D01*
X44592516Y-45205908D01*
X44457671Y-45256202D01*
X44457664Y-45256206D01*
X44342455Y-45342452D01*
X44342452Y-45342455D01*
X44256206Y-45457664D01*
X44256202Y-45457671D01*
X44205908Y-45592517D01*
X44199501Y-45652116D01*
X44199500Y-45652135D01*
X44199500Y-46747870D01*
X44199501Y-46747876D01*
X44205908Y-46807483D01*
X44256202Y-46942328D01*
X44256206Y-46942335D01*
X44342452Y-47057544D01*
X44342455Y-47057547D01*
X44457664Y-47143793D01*
X44457671Y-47143797D01*
X44592517Y-47194091D01*
X44592516Y-47194091D01*
X44599444Y-47194835D01*
X44652127Y-47200500D01*
X47897872Y-47200499D01*
X47957483Y-47194091D01*
X48092331Y-47143796D01*
X48207546Y-47057546D01*
X48293796Y-46942331D01*
X48316609Y-46881167D01*
X48358480Y-46825233D01*
X48423944Y-46800816D01*
X48432791Y-46800500D01*
X53408331Y-46800500D01*
X53408347Y-46800501D01*
X53415943Y-46800501D01*
X53574054Y-46800501D01*
X53574057Y-46800501D01*
X53726785Y-46759577D01*
X53776904Y-46730639D01*
X53863716Y-46680520D01*
X53975520Y-46568716D01*
X53975520Y-46568714D01*
X53985728Y-46558507D01*
X53985729Y-46558504D01*
X55657416Y-44886819D01*
X55718739Y-44853334D01*
X55745097Y-44850500D01*
X75564281Y-44850500D01*
X75631320Y-44870185D01*
X75674765Y-44918205D01*
X75694947Y-44957814D01*
X75694948Y-44957815D01*
X75819890Y-45129786D01*
X75970213Y-45280109D01*
X76142179Y-45405048D01*
X76142181Y-45405049D01*
X76142184Y-45405051D01*
X76331588Y-45501557D01*
X76533757Y-45567246D01*
X76743713Y-45600500D01*
X76743714Y-45600500D01*
X77256286Y-45600500D01*
X77256287Y-45600500D01*
X77466243Y-45567246D01*
X77668412Y-45501557D01*
X77857816Y-45405051D01*
X77879789Y-45389086D01*
X78029786Y-45280109D01*
X78029788Y-45280106D01*
X78029792Y-45280104D01*
X78180104Y-45129792D01*
X78180106Y-45129788D01*
X78180109Y-45129786D01*
X78305048Y-44957820D01*
X78305047Y-44957820D01*
X78305051Y-44957816D01*
X78401557Y-44768412D01*
X78467246Y-44566243D01*
X78500500Y-44356287D01*
X78500500Y-44143713D01*
X78467246Y-43933757D01*
X78401557Y-43731588D01*
X78305051Y-43542184D01*
X78305049Y-43542181D01*
X78305048Y-43542179D01*
X78180109Y-43370213D01*
X78041294Y-43231398D01*
X78007809Y-43170075D01*
X78012793Y-43100383D01*
X78054665Y-43044450D01*
X78063879Y-43038178D01*
X78069331Y-43034814D01*
X78069334Y-43034814D01*
X78218656Y-42942712D01*
X78342712Y-42818656D01*
X78434814Y-42669334D01*
X78489999Y-42502797D01*
X78500500Y-42400009D01*
X78500499Y-41099992D01*
X78489999Y-40997203D01*
X78434814Y-40830666D01*
X78342712Y-40681344D01*
X78218656Y-40557288D01*
X78069334Y-40465186D01*
X77902797Y-40410001D01*
X77902795Y-40410000D01*
X77800010Y-40399500D01*
X76199998Y-40399500D01*
X76199981Y-40399501D01*
X76097203Y-40410000D01*
X76097200Y-40410001D01*
X75930668Y-40465185D01*
X75930663Y-40465187D01*
X75781342Y-40557289D01*
X75657289Y-40681342D01*
X75565187Y-40830663D01*
X75565185Y-40830668D01*
X75510001Y-40997204D01*
X75510000Y-40997205D01*
X75505823Y-41038102D01*
X75479427Y-41102793D01*
X75422247Y-41142945D01*
X75382465Y-41149500D01*
X56126669Y-41149500D01*
X56126653Y-41149499D01*
X56119057Y-41149499D01*
X55960943Y-41149499D01*
X55846397Y-41180192D01*
X55808214Y-41190423D01*
X55793263Y-41199056D01*
X55793260Y-41199057D01*
X55671290Y-41269475D01*
X55671282Y-41269481D01*
X55559480Y-41381284D01*
X55559478Y-41381286D01*
X54723166Y-42217599D01*
X53917584Y-43023181D01*
X53856261Y-43056666D01*
X53829903Y-43059500D01*
X48432791Y-43059500D01*
X48365752Y-43039815D01*
X48319997Y-42987011D01*
X48316609Y-42978833D01*
X48293797Y-42917671D01*
X48293793Y-42917664D01*
X48207547Y-42802455D01*
X48207544Y-42802452D01*
X48092335Y-42716206D01*
X48092328Y-42716202D01*
X47957482Y-42665908D01*
X47957483Y-42665908D01*
X47897883Y-42659501D01*
X47897881Y-42659500D01*
X47897873Y-42659500D01*
X47897864Y-42659500D01*
X44652129Y-42659500D01*
X44652123Y-42659501D01*
X44592516Y-42665908D01*
X44457671Y-42716202D01*
X44457668Y-42716204D01*
X44388530Y-42767961D01*
X44323065Y-42792378D01*
X44254792Y-42777526D01*
X44205387Y-42728121D01*
X44203734Y-42724988D01*
X44173097Y-42664858D01*
X44057444Y-42505678D01*
X44015301Y-42463535D01*
X43981816Y-42402212D01*
X43986800Y-42332520D01*
X44015301Y-42288173D01*
X44026301Y-42277173D01*
X44068828Y-42234646D01*
X44184524Y-42075405D01*
X44197350Y-42050231D01*
X44245323Y-41999436D01*
X44313143Y-41982640D01*
X44379279Y-42005176D01*
X44382146Y-42007260D01*
X44457664Y-42063793D01*
X44457671Y-42063797D01*
X44592517Y-42114091D01*
X44592516Y-42114091D01*
X44599444Y-42114835D01*
X44652127Y-42120500D01*
X47897872Y-42120499D01*
X47957483Y-42114091D01*
X48092331Y-42063796D01*
X48207546Y-41977546D01*
X48293796Y-41862331D01*
X48344091Y-41727483D01*
X48350500Y-41667873D01*
X48350499Y-40572128D01*
X48344091Y-40512517D01*
X48326805Y-40466172D01*
X48293797Y-40377671D01*
X48293793Y-40377664D01*
X48207547Y-40262455D01*
X48207544Y-40262452D01*
X48092335Y-40176206D01*
X48092328Y-40176202D01*
X47957482Y-40125908D01*
X47957483Y-40125908D01*
X47897883Y-40119501D01*
X47897881Y-40119500D01*
X47897873Y-40119500D01*
X47897865Y-40119500D01*
X45465097Y-40119500D01*
X45398058Y-40099815D01*
X45377416Y-40083181D01*
X45086415Y-39792180D01*
X45052930Y-39730857D01*
X45057914Y-39661165D01*
X45099786Y-39605232D01*
X45165250Y-39580815D01*
X45174096Y-39580499D01*
X47897871Y-39580499D01*
X47897872Y-39580499D01*
X47957483Y-39574091D01*
X48092331Y-39523796D01*
X48207546Y-39437546D01*
X48293796Y-39322331D01*
X48316609Y-39261167D01*
X48358480Y-39205233D01*
X48423944Y-39180816D01*
X48432791Y-39180500D01*
X60543331Y-39180500D01*
X60543347Y-39180501D01*
X60550943Y-39180501D01*
X60709054Y-39180501D01*
X60709057Y-39180501D01*
X60861785Y-39139577D01*
X60911904Y-39110639D01*
X60998716Y-39060520D01*
X61110520Y-38948716D01*
X61110520Y-38948714D01*
X61120728Y-38938507D01*
X61120730Y-38938504D01*
X64298321Y-35760912D01*
X64359642Y-35727429D01*
X64418095Y-35728821D01*
X64489924Y-35748068D01*
X64489925Y-35748068D01*
X64489932Y-35748070D01*
X64677226Y-35764455D01*
X64709998Y-35767323D01*
X64710000Y-35767323D01*
X64710002Y-35767323D01*
X64765017Y-35762509D01*
X64930068Y-35748070D01*
X65143450Y-35690894D01*
X65343662Y-35597534D01*
X65524620Y-35470826D01*
X65680826Y-35314620D01*
X65807534Y-35133662D01*
X65867618Y-35004811D01*
X65913790Y-34952371D01*
X65980983Y-34933219D01*
X66047865Y-34953435D01*
X66092382Y-35004811D01*
X66152464Y-35133658D01*
X66152468Y-35133666D01*
X66279170Y-35314615D01*
X66279175Y-35314621D01*
X66435378Y-35470824D01*
X66435384Y-35470829D01*
X66616333Y-35597531D01*
X66616335Y-35597532D01*
X66616338Y-35597534D01*
X66816550Y-35690894D01*
X67029932Y-35748070D01*
X67175326Y-35760790D01*
X67249998Y-35767323D01*
X67250000Y-35767323D01*
X67250002Y-35767323D01*
X67305017Y-35762509D01*
X67470068Y-35748070D01*
X67683450Y-35690894D01*
X67883662Y-35597534D01*
X68064620Y-35470826D01*
X68220826Y-35314620D01*
X68347534Y-35133662D01*
X68407894Y-35004218D01*
X68454066Y-34951779D01*
X68521259Y-34932627D01*
X68588141Y-34952843D01*
X68632658Y-35004219D01*
X68692898Y-35133405D01*
X68692901Y-35133411D01*
X68738258Y-35198187D01*
X68738258Y-35198188D01*
X69409000Y-34527446D01*
X69409000Y-34550160D01*
X69434964Y-34647061D01*
X69485124Y-34733940D01*
X69556060Y-34804876D01*
X69642939Y-34855036D01*
X69739840Y-34881000D01*
X69762553Y-34881000D01*
X69091810Y-35551740D01*
X69156590Y-35597099D01*
X69156592Y-35597100D01*
X69356715Y-35690419D01*
X69356729Y-35690424D01*
X69570013Y-35747573D01*
X69570023Y-35747575D01*
X69789999Y-35766821D01*
X69790001Y-35766821D01*
X70009976Y-35747575D01*
X70009986Y-35747573D01*
X70223270Y-35690424D01*
X70223284Y-35690419D01*
X70423407Y-35597100D01*
X70423417Y-35597094D01*
X70488188Y-35551741D01*
X69817448Y-34881000D01*
X69840160Y-34881000D01*
X69937061Y-34855036D01*
X70023940Y-34804876D01*
X70094876Y-34733940D01*
X70145036Y-34647061D01*
X70171000Y-34550160D01*
X70171000Y-34527447D01*
X70841741Y-35198188D01*
X70887094Y-35133417D01*
X70887095Y-35133416D01*
X70947340Y-35004219D01*
X70993512Y-34951780D01*
X71060706Y-34932627D01*
X71127587Y-34952842D01*
X71172105Y-35004218D01*
X71232466Y-35133662D01*
X71232468Y-35133666D01*
X71359170Y-35314615D01*
X71359175Y-35314621D01*
X71515378Y-35470824D01*
X71515384Y-35470829D01*
X71696333Y-35597531D01*
X71696335Y-35597532D01*
X71696338Y-35597534D01*
X71896550Y-35690894D01*
X72109932Y-35748070D01*
X72255326Y-35760790D01*
X72329998Y-35767323D01*
X72330000Y-35767323D01*
X72330002Y-35767323D01*
X72385017Y-35762509D01*
X72550068Y-35748070D01*
X72763450Y-35690894D01*
X72963662Y-35597534D01*
X73144620Y-35470826D01*
X73300826Y-35314620D01*
X73427534Y-35133662D01*
X73520894Y-34933450D01*
X73578070Y-34720068D01*
X73592935Y-34550160D01*
X73597323Y-34500002D01*
X73597323Y-34499997D01*
X73584457Y-34352939D01*
X73578070Y-34279932D01*
X73520894Y-34066550D01*
X73427534Y-33866339D01*
X73300826Y-33685380D01*
X73144620Y-33529174D01*
X73144616Y-33529171D01*
X73144615Y-33529170D01*
X72963666Y-33402468D01*
X72963662Y-33402466D01*
X72963660Y-33402465D01*
X72763450Y-33309106D01*
X72763447Y-33309105D01*
X72763445Y-33309104D01*
X72550070Y-33251930D01*
X72550062Y-33251929D01*
X72330002Y-33232677D01*
X72329998Y-33232677D01*
X72109937Y-33251929D01*
X72109929Y-33251930D01*
X71896554Y-33309104D01*
X71896548Y-33309107D01*
X71696340Y-33402465D01*
X71696338Y-33402466D01*
X71515377Y-33529175D01*
X71359175Y-33685377D01*
X71232467Y-33866337D01*
X71172105Y-33995782D01*
X71125932Y-34048221D01*
X71058738Y-34067372D01*
X70991857Y-34047156D01*
X70947341Y-33995780D01*
X70887098Y-33866589D01*
X70887097Y-33866587D01*
X70841741Y-33801811D01*
X70841740Y-33801810D01*
X70171000Y-34472551D01*
X70171000Y-34449840D01*
X70145036Y-34352939D01*
X70094876Y-34266060D01*
X70023940Y-34195124D01*
X69937061Y-34144964D01*
X69840160Y-34119000D01*
X69817446Y-34119000D01*
X70488188Y-33448258D01*
X70423411Y-33402901D01*
X70423405Y-33402898D01*
X70223284Y-33309580D01*
X70223270Y-33309575D01*
X70009986Y-33252426D01*
X70009976Y-33252424D01*
X69790001Y-33233179D01*
X69789998Y-33233179D01*
X69664797Y-33244132D01*
X69596297Y-33230365D01*
X69546114Y-33181750D01*
X69530181Y-33113721D01*
X69553557Y-33047877D01*
X69566297Y-33032936D01*
X71848530Y-30750703D01*
X71909851Y-30717220D01*
X71916801Y-30715914D01*
X72066243Y-30692246D01*
X72268412Y-30626557D01*
X72270487Y-30625500D01*
X72299345Y-30610796D01*
X72457816Y-30530051D01*
X72549901Y-30463148D01*
X72629786Y-30405109D01*
X72629788Y-30405106D01*
X72629792Y-30405104D01*
X72780104Y-30254792D01*
X72780106Y-30254788D01*
X72780109Y-30254786D01*
X72905048Y-30082820D01*
X72905047Y-30082820D01*
X72905051Y-30082816D01*
X73001557Y-29893412D01*
X73067246Y-29691243D01*
X73100500Y-29481287D01*
X73100500Y-29018713D01*
X73067246Y-28808757D01*
X73001557Y-28606588D01*
X72905051Y-28417184D01*
X72905049Y-28417181D01*
X72905048Y-28417179D01*
X72780109Y-28245213D01*
X72629786Y-28094890D01*
X72457820Y-27969951D01*
X72268414Y-27873444D01*
X72268413Y-27873443D01*
X72268412Y-27873443D01*
X72066243Y-27807754D01*
X72066241Y-27807753D01*
X72066240Y-27807753D01*
X71904957Y-27782208D01*
X71856287Y-27774500D01*
X71643713Y-27774500D01*
X71595042Y-27782208D01*
X71433760Y-27807753D01*
X71231585Y-27873444D01*
X71042179Y-27969951D01*
X70870213Y-28094890D01*
X70719894Y-28245209D01*
X70719890Y-28245214D01*
X70600318Y-28409793D01*
X70544989Y-28452459D01*
X70475375Y-28458438D01*
X70413580Y-28425833D01*
X70399682Y-28409793D01*
X70280109Y-28245214D01*
X70280105Y-28245209D01*
X70129786Y-28094890D01*
X69957820Y-27969951D01*
X69768414Y-27873444D01*
X69768413Y-27873443D01*
X69768412Y-27873443D01*
X69566243Y-27807754D01*
X69566241Y-27807753D01*
X69566240Y-27807753D01*
X69404957Y-27782208D01*
X69356287Y-27774500D01*
X69143713Y-27774500D01*
X69095042Y-27782208D01*
X68933760Y-27807753D01*
X68731585Y-27873444D01*
X68542179Y-27969951D01*
X68370213Y-28094890D01*
X68219894Y-28245209D01*
X68219890Y-28245214D01*
X68100008Y-28410218D01*
X68044678Y-28452884D01*
X67975065Y-28458863D01*
X67913270Y-28426257D01*
X67899372Y-28410218D01*
X67779727Y-28245540D01*
X67779723Y-28245535D01*
X67629464Y-28095276D01*
X67629459Y-28095272D01*
X67457557Y-27970379D01*
X67268215Y-27873903D01*
X67066124Y-27808241D01*
X67000000Y-27797768D01*
X67000000Y-28845854D01*
X66933343Y-28807370D01*
X66812535Y-28775000D01*
X66687465Y-28775000D01*
X66566657Y-28807370D01*
X66500000Y-28845854D01*
X66500000Y-27797768D01*
X66499999Y-27797768D01*
X66433875Y-27808241D01*
X66231784Y-27873903D01*
X66042442Y-27970379D01*
X65870541Y-28095271D01*
X65731668Y-28234144D01*
X65670345Y-28267628D01*
X65600653Y-28262644D01*
X65544720Y-28220772D01*
X65538448Y-28211558D01*
X65471373Y-28102812D01*
X65442712Y-28056344D01*
X65318656Y-27932288D01*
X65169334Y-27840186D01*
X65002797Y-27785001D01*
X65002795Y-27785000D01*
X64900010Y-27774500D01*
X63599998Y-27774500D01*
X63599981Y-27774501D01*
X63497203Y-27785000D01*
X63497200Y-27785001D01*
X63330668Y-27840185D01*
X63330663Y-27840187D01*
X63181342Y-27932289D01*
X63057289Y-28056342D01*
X62965187Y-28205663D01*
X62965185Y-28205668D01*
X62960180Y-28220772D01*
X62910001Y-28372203D01*
X62910001Y-28372204D01*
X62910000Y-28372204D01*
X62899500Y-28474983D01*
X62899500Y-30025001D01*
X62899501Y-30025018D01*
X62910000Y-30127796D01*
X62910001Y-30127799D01*
X62965185Y-30294331D01*
X62965187Y-30294336D01*
X62979502Y-30317544D01*
X63057288Y-30443656D01*
X63181344Y-30567712D01*
X63330666Y-30659814D01*
X63497203Y-30714999D01*
X63599991Y-30725500D01*
X64900008Y-30725499D01*
X65002797Y-30714999D01*
X65169334Y-30659814D01*
X65318656Y-30567712D01*
X65442712Y-30443656D01*
X65534814Y-30294334D01*
X65534814Y-30294331D01*
X65538448Y-30288441D01*
X65590395Y-30241716D01*
X65659358Y-30230493D01*
X65723440Y-30258336D01*
X65731668Y-30265856D01*
X65870535Y-30404723D01*
X65870540Y-30404727D01*
X66042442Y-30529620D01*
X66231782Y-30626095D01*
X66433871Y-30691757D01*
X66500000Y-30702231D01*
X66500000Y-29654145D01*
X66566657Y-29692630D01*
X66687465Y-29725000D01*
X66812535Y-29725000D01*
X66933343Y-29692630D01*
X67000000Y-29654145D01*
X67000000Y-30702230D01*
X67066126Y-30691757D01*
X67066129Y-30691757D01*
X67268217Y-30626095D01*
X67457554Y-30529622D01*
X67549048Y-30463148D01*
X67614854Y-30439668D01*
X67682908Y-30455493D01*
X67731603Y-30505599D01*
X67745479Y-30574077D01*
X67720130Y-30639186D01*
X67709615Y-30651147D01*
X65121679Y-33239084D01*
X65060356Y-33272569D01*
X65001906Y-33271178D01*
X64930076Y-33251932D01*
X64930073Y-33251931D01*
X64930068Y-33251930D01*
X64930065Y-33251929D01*
X64930062Y-33251929D01*
X64710002Y-33232677D01*
X64709998Y-33232677D01*
X64489937Y-33251929D01*
X64489929Y-33251930D01*
X64276554Y-33309104D01*
X64276548Y-33309107D01*
X64076340Y-33402465D01*
X64076338Y-33402466D01*
X63895377Y-33529175D01*
X63739175Y-33685377D01*
X63612466Y-33866338D01*
X63612465Y-33866340D01*
X63552382Y-33995189D01*
X63506209Y-34047628D01*
X63439016Y-34066780D01*
X63372135Y-34046564D01*
X63327618Y-33995189D01*
X63267651Y-33866590D01*
X63267534Y-33866339D01*
X63140826Y-33685380D01*
X62984620Y-33529174D01*
X62984616Y-33529171D01*
X62984615Y-33529170D01*
X62803666Y-33402468D01*
X62803662Y-33402466D01*
X62803660Y-33402465D01*
X62603450Y-33309106D01*
X62603447Y-33309105D01*
X62603445Y-33309104D01*
X62390070Y-33251930D01*
X62390062Y-33251929D01*
X62170002Y-33232677D01*
X62169998Y-33232677D01*
X61949937Y-33251929D01*
X61949929Y-33251930D01*
X61736554Y-33309104D01*
X61736548Y-33309107D01*
X61536340Y-33402465D01*
X61536338Y-33402466D01*
X61355377Y-33529175D01*
X61199175Y-33685377D01*
X61072466Y-33866338D01*
X61072465Y-33866340D01*
X61012382Y-33995189D01*
X60966209Y-34047628D01*
X60899016Y-34066780D01*
X60832135Y-34046564D01*
X60787618Y-33995189D01*
X60727651Y-33866590D01*
X60727534Y-33866339D01*
X60600826Y-33685380D01*
X60444620Y-33529174D01*
X60444616Y-33529171D01*
X60444615Y-33529170D01*
X60263666Y-33402468D01*
X60263662Y-33402466D01*
X60263660Y-33402465D01*
X60063450Y-33309106D01*
X60063447Y-33309105D01*
X60063445Y-33309104D01*
X59850070Y-33251930D01*
X59850062Y-33251929D01*
X59630002Y-33232677D01*
X59629998Y-33232677D01*
X59409937Y-33251929D01*
X59409929Y-33251930D01*
X59196554Y-33309104D01*
X59196548Y-33309107D01*
X58996340Y-33402465D01*
X58996338Y-33402466D01*
X58815377Y-33529175D01*
X58659175Y-33685377D01*
X58532467Y-33866337D01*
X58472105Y-33995782D01*
X58425932Y-34048221D01*
X58358738Y-34067372D01*
X58291857Y-34047156D01*
X58247341Y-33995780D01*
X58187098Y-33866589D01*
X58187097Y-33866587D01*
X58141741Y-33801811D01*
X58141740Y-33801810D01*
X57471000Y-34472551D01*
X57471000Y-34449840D01*
X57445036Y-34352939D01*
X57394876Y-34266060D01*
X57323940Y-34195124D01*
X57237061Y-34144964D01*
X57140160Y-34119000D01*
X57117447Y-34119000D01*
X57788188Y-33448258D01*
X57723411Y-33402901D01*
X57723405Y-33402898D01*
X57523284Y-33309580D01*
X57523270Y-33309575D01*
X57309986Y-33252426D01*
X57309976Y-33252424D01*
X57090001Y-33233179D01*
X57089999Y-33233179D01*
X56870023Y-33252424D01*
X56870013Y-33252426D01*
X56656729Y-33309575D01*
X56656720Y-33309579D01*
X56456590Y-33402901D01*
X56391811Y-33448258D01*
X57062554Y-34119000D01*
X57039840Y-34119000D01*
X56942939Y-34144964D01*
X56856060Y-34195124D01*
X56785124Y-34266060D01*
X56734964Y-34352939D01*
X56709000Y-34449840D01*
X56709000Y-34472553D01*
X56038258Y-33801811D01*
X55992901Y-33866590D01*
X55932658Y-33995781D01*
X55886485Y-34048220D01*
X55819292Y-34067372D01*
X55752411Y-34047156D01*
X55707894Y-33995781D01*
X55647651Y-33866590D01*
X55647534Y-33866339D01*
X55520826Y-33685380D01*
X55364620Y-33529174D01*
X55364616Y-33529171D01*
X55364615Y-33529170D01*
X55183666Y-33402468D01*
X55183662Y-33402466D01*
X55183660Y-33402465D01*
X54983450Y-33309106D01*
X54983447Y-33309105D01*
X54983445Y-33309104D01*
X54770070Y-33251930D01*
X54770062Y-33251929D01*
X54550002Y-33232677D01*
X54549998Y-33232677D01*
X54329937Y-33251929D01*
X54329929Y-33251930D01*
X54116554Y-33309104D01*
X54116548Y-33309107D01*
X53916340Y-33402465D01*
X53916338Y-33402466D01*
X53735377Y-33529175D01*
X53579175Y-33685377D01*
X53452466Y-33866338D01*
X53452465Y-33866340D01*
X53392106Y-33995781D01*
X53362359Y-34059575D01*
X53359107Y-34066548D01*
X53359104Y-34066554D01*
X53301930Y-34279929D01*
X53301929Y-34279937D01*
X53282677Y-34499997D01*
X53282677Y-34500002D01*
X53301929Y-34720062D01*
X53301930Y-34720070D01*
X53359104Y-34933445D01*
X53359105Y-34933447D01*
X53359106Y-34933450D01*
X53417140Y-35057905D01*
X53452466Y-35133662D01*
X53452468Y-35133666D01*
X53579170Y-35314615D01*
X53579175Y-35314621D01*
X53735378Y-35470824D01*
X53735384Y-35470829D01*
X53916333Y-35597531D01*
X53916335Y-35597532D01*
X53916338Y-35597534D01*
X54116550Y-35690894D01*
X54329932Y-35748070D01*
X54475326Y-35760790D01*
X54549998Y-35767323D01*
X54550000Y-35767323D01*
X54550002Y-35767323D01*
X54605017Y-35762509D01*
X54770068Y-35748070D01*
X54983450Y-35690894D01*
X55183662Y-35597534D01*
X55364620Y-35470826D01*
X55520826Y-35314620D01*
X55647534Y-35133662D01*
X55707894Y-35004218D01*
X55754066Y-34951779D01*
X55821259Y-34932627D01*
X55888141Y-34952843D01*
X55932658Y-35004219D01*
X55992898Y-35133405D01*
X55992901Y-35133411D01*
X56038258Y-35198187D01*
X56038258Y-35198188D01*
X56709000Y-34527446D01*
X56709000Y-34550160D01*
X56734964Y-34647061D01*
X56785124Y-34733940D01*
X56856060Y-34804876D01*
X56942939Y-34855036D01*
X57039840Y-34881000D01*
X57062553Y-34881000D01*
X56391810Y-35551740D01*
X56456590Y-35597099D01*
X56456592Y-35597100D01*
X56656715Y-35690419D01*
X56656729Y-35690424D01*
X56870013Y-35747573D01*
X56870023Y-35747575D01*
X57089999Y-35766821D01*
X57090001Y-35766821D01*
X57309976Y-35747575D01*
X57309986Y-35747573D01*
X57523270Y-35690424D01*
X57523284Y-35690419D01*
X57723407Y-35597100D01*
X57723417Y-35597094D01*
X57788188Y-35551741D01*
X57117448Y-34881000D01*
X57140160Y-34881000D01*
X57237061Y-34855036D01*
X57323940Y-34804876D01*
X57394876Y-34733940D01*
X57445036Y-34647061D01*
X57471000Y-34550160D01*
X57471000Y-34527447D01*
X58141741Y-35198188D01*
X58187094Y-35133417D01*
X58187095Y-35133416D01*
X58247340Y-35004219D01*
X58293512Y-34951780D01*
X58360706Y-34932627D01*
X58427587Y-34952842D01*
X58472105Y-35004218D01*
X58532466Y-35133662D01*
X58532468Y-35133666D01*
X58659170Y-35314615D01*
X58659175Y-35314621D01*
X58815378Y-35470824D01*
X58815384Y-35470829D01*
X58996333Y-35597531D01*
X58996335Y-35597532D01*
X58996338Y-35597534D01*
X59196550Y-35690894D01*
X59409932Y-35748070D01*
X59555326Y-35760790D01*
X59629998Y-35767323D01*
X59630000Y-35767323D01*
X59630002Y-35767323D01*
X59685017Y-35762509D01*
X59850068Y-35748070D01*
X60063450Y-35690894D01*
X60263662Y-35597534D01*
X60444620Y-35470826D01*
X60600826Y-35314620D01*
X60727534Y-35133662D01*
X60787618Y-35004811D01*
X60833790Y-34952371D01*
X60900983Y-34933219D01*
X60967865Y-34953435D01*
X61012382Y-35004811D01*
X61072464Y-35133658D01*
X61072468Y-35133666D01*
X61199170Y-35314615D01*
X61199175Y-35314621D01*
X61355378Y-35470824D01*
X61355384Y-35470829D01*
X61459295Y-35543588D01*
X61502920Y-35598165D01*
X61510114Y-35667663D01*
X61478591Y-35730018D01*
X61418362Y-35765432D01*
X61348547Y-35762661D01*
X61343379Y-35760790D01*
X61272081Y-35733169D01*
X61272076Y-35733168D01*
X61065220Y-35694500D01*
X60854780Y-35694500D01*
X60647924Y-35733168D01*
X60647921Y-35733168D01*
X60647921Y-35733169D01*
X60451698Y-35809185D01*
X60451692Y-35809188D01*
X60272778Y-35919967D01*
X60272776Y-35919969D01*
X60117261Y-36061739D01*
X60027783Y-36180227D01*
X59971674Y-36221863D01*
X59928829Y-36229500D01*
X51100098Y-36229500D01*
X51033059Y-36209815D01*
X51012417Y-36193181D01*
X50497590Y-35678355D01*
X50497588Y-35678352D01*
X50378717Y-35559481D01*
X50378709Y-35559475D01*
X50262059Y-35492128D01*
X50262056Y-35492127D01*
X50241785Y-35480423D01*
X50205980Y-35470829D01*
X50089057Y-35439499D01*
X49930943Y-35439499D01*
X49923347Y-35439499D01*
X49923331Y-35439500D01*
X48432791Y-35439500D01*
X48365752Y-35419815D01*
X48319997Y-35367011D01*
X48316609Y-35358833D01*
X48293797Y-35297671D01*
X48293793Y-35297664D01*
X48207547Y-35182455D01*
X48207544Y-35182452D01*
X48092335Y-35096206D01*
X48092328Y-35096202D01*
X47957482Y-35045908D01*
X47957483Y-35045908D01*
X47897883Y-35039501D01*
X47897881Y-35039500D01*
X47897873Y-35039500D01*
X47897864Y-35039500D01*
X44652129Y-35039500D01*
X44652123Y-35039501D01*
X44592516Y-35045908D01*
X44457671Y-35096202D01*
X44457664Y-35096206D01*
X44342455Y-35182452D01*
X44342452Y-35182455D01*
X44256206Y-35297664D01*
X44256202Y-35297671D01*
X44205908Y-35432517D01*
X44199501Y-35492116D01*
X44199500Y-35492127D01*
X44199500Y-36587870D01*
X44199501Y-36587876D01*
X44205908Y-36647483D01*
X44256202Y-36782328D01*
X44256206Y-36782335D01*
X44342452Y-36897544D01*
X44342455Y-36897547D01*
X44457664Y-36983793D01*
X44457671Y-36983797D01*
X44592517Y-37034091D01*
X44592516Y-37034091D01*
X44599444Y-37034835D01*
X44652127Y-37040500D01*
X47897872Y-37040499D01*
X47957483Y-37034091D01*
X48092331Y-36983796D01*
X48207546Y-36897546D01*
X48293796Y-36782331D01*
X48316609Y-36721167D01*
X48358480Y-36665233D01*
X48423944Y-36640816D01*
X48432791Y-36640500D01*
X49709903Y-36640500D01*
X49776942Y-36660185D01*
X49797583Y-36676818D01*
X50431284Y-37310520D01*
X50431286Y-37310521D01*
X50431290Y-37310524D01*
X50568209Y-37389573D01*
X50568216Y-37389577D01*
X50720943Y-37430501D01*
X50720945Y-37430501D01*
X50886654Y-37430501D01*
X50886670Y-37430500D01*
X59928829Y-37430500D01*
X59995868Y-37450185D01*
X60027783Y-37479773D01*
X60117261Y-37598260D01*
X60272776Y-37740030D01*
X60272778Y-37740032D01*
X60288995Y-37750073D01*
X60335631Y-37802100D01*
X60346735Y-37871082D01*
X60318782Y-37935116D01*
X60260648Y-37973873D01*
X60223718Y-37979500D01*
X48432791Y-37979500D01*
X48365752Y-37959815D01*
X48319997Y-37907011D01*
X48316609Y-37898833D01*
X48293797Y-37837671D01*
X48293793Y-37837664D01*
X48207547Y-37722455D01*
X48207544Y-37722452D01*
X48092335Y-37636206D01*
X48092328Y-37636202D01*
X47957482Y-37585908D01*
X47957483Y-37585908D01*
X47897883Y-37579501D01*
X47897881Y-37579500D01*
X47897873Y-37579500D01*
X47897864Y-37579500D01*
X44652129Y-37579500D01*
X44652123Y-37579501D01*
X44592516Y-37585908D01*
X44457671Y-37636202D01*
X44457664Y-37636206D01*
X44342455Y-37722452D01*
X44342452Y-37722455D01*
X44256206Y-37837664D01*
X44256202Y-37837671D01*
X44205908Y-37972517D01*
X44202954Y-38000000D01*
X44199501Y-38032123D01*
X44199500Y-38032135D01*
X44199500Y-38605903D01*
X44179815Y-38672942D01*
X44127011Y-38718697D01*
X44057853Y-38728641D01*
X43994297Y-38699616D01*
X43987819Y-38693584D01*
X38586819Y-33292584D01*
X38553334Y-33231261D01*
X38550500Y-33204903D01*
X38550500Y-32952135D01*
X44199500Y-32952135D01*
X44199500Y-34047870D01*
X44199501Y-34047876D01*
X44205908Y-34107483D01*
X44256202Y-34242328D01*
X44256206Y-34242335D01*
X44342452Y-34357544D01*
X44342455Y-34357547D01*
X44457664Y-34443793D01*
X44457671Y-34443797D01*
X44592517Y-34494091D01*
X44592516Y-34494091D01*
X44599444Y-34494835D01*
X44652127Y-34500500D01*
X47897872Y-34500499D01*
X47957483Y-34494091D01*
X48092331Y-34443796D01*
X48207546Y-34357546D01*
X48293796Y-34242331D01*
X48316609Y-34181167D01*
X48358480Y-34125233D01*
X48423944Y-34100816D01*
X48432791Y-34100500D01*
X49598331Y-34100500D01*
X49598347Y-34100501D01*
X49605943Y-34100501D01*
X49764054Y-34100501D01*
X49764057Y-34100501D01*
X49916785Y-34059577D01*
X49986233Y-34019481D01*
X50053716Y-33980520D01*
X50165520Y-33868716D01*
X50165520Y-33868714D01*
X50175724Y-33858511D01*
X50175728Y-33858506D01*
X51078713Y-32955521D01*
X51078716Y-32955520D01*
X51190520Y-32843716D01*
X51240639Y-32756904D01*
X51269577Y-32706785D01*
X51310501Y-32554057D01*
X51310501Y-32395943D01*
X51310501Y-32388348D01*
X51310500Y-32388330D01*
X51310500Y-30584499D01*
X51330185Y-30517460D01*
X51382989Y-30471705D01*
X51434500Y-30460499D01*
X51507871Y-30460499D01*
X51507872Y-30460499D01*
X51567483Y-30454091D01*
X51702331Y-30403796D01*
X51817546Y-30317546D01*
X51903796Y-30202331D01*
X51954091Y-30067483D01*
X51960500Y-30007873D01*
X51960500Y-30007844D01*
X57260000Y-30007844D01*
X57266401Y-30067372D01*
X57266403Y-30067379D01*
X57316645Y-30202086D01*
X57316649Y-30202093D01*
X57402809Y-30317187D01*
X57402812Y-30317190D01*
X57517906Y-30403350D01*
X57517913Y-30403354D01*
X57652620Y-30453596D01*
X57652627Y-30453598D01*
X57712155Y-30459999D01*
X57712172Y-30460000D01*
X58260000Y-30460000D01*
X58760000Y-30460000D01*
X59307828Y-30460000D01*
X59307844Y-30459999D01*
X59367372Y-30453598D01*
X59367379Y-30453596D01*
X59502086Y-30403354D01*
X59502093Y-30403350D01*
X59617187Y-30317190D01*
X59617190Y-30317187D01*
X59703350Y-30202093D01*
X59703354Y-30202086D01*
X59753596Y-30067379D01*
X59753598Y-30067372D01*
X59759999Y-30007844D01*
X59760000Y-30007827D01*
X59760000Y-29460000D01*
X58760000Y-29460000D01*
X58760000Y-30460000D01*
X58260000Y-30460000D01*
X58260000Y-29460000D01*
X57260000Y-29460000D01*
X57260000Y-30007844D01*
X51960500Y-30007844D01*
X51960499Y-28412155D01*
X57260000Y-28412155D01*
X57260000Y-28960000D01*
X58260000Y-28960000D01*
X58760000Y-28960000D01*
X59760000Y-28960000D01*
X59760000Y-28412172D01*
X59759999Y-28412155D01*
X59753598Y-28352627D01*
X59753596Y-28352620D01*
X59703354Y-28217913D01*
X59703350Y-28217906D01*
X59617190Y-28102812D01*
X59617187Y-28102809D01*
X59502093Y-28016649D01*
X59502086Y-28016645D01*
X59367379Y-27966403D01*
X59367372Y-27966401D01*
X59307844Y-27960000D01*
X58760000Y-27960000D01*
X58760000Y-28960000D01*
X58260000Y-28960000D01*
X58260000Y-27960000D01*
X57712155Y-27960000D01*
X57652627Y-27966401D01*
X57652620Y-27966403D01*
X57517913Y-28016645D01*
X57517906Y-28016649D01*
X57402812Y-28102809D01*
X57402809Y-28102812D01*
X57316649Y-28217906D01*
X57316645Y-28217913D01*
X57266403Y-28352620D01*
X57266401Y-28352627D01*
X57260000Y-28412155D01*
X51960499Y-28412155D01*
X51960499Y-28412128D01*
X51954091Y-28352517D01*
X51947432Y-28334664D01*
X51903797Y-28217671D01*
X51903793Y-28217664D01*
X51817547Y-28102455D01*
X51817544Y-28102452D01*
X51702335Y-28016206D01*
X51702328Y-28016202D01*
X51567482Y-27965908D01*
X51567483Y-27965908D01*
X51507883Y-27959501D01*
X51507881Y-27959500D01*
X51507873Y-27959500D01*
X51507864Y-27959500D01*
X49912129Y-27959500D01*
X49912123Y-27959501D01*
X49852516Y-27965908D01*
X49717671Y-28016202D01*
X49717664Y-28016206D01*
X49602455Y-28102452D01*
X49602452Y-28102455D01*
X49516206Y-28217664D01*
X49516202Y-28217671D01*
X49465908Y-28352517D01*
X49459751Y-28409793D01*
X49459501Y-28412123D01*
X49459500Y-28412135D01*
X49459500Y-30007870D01*
X49459501Y-30007876D01*
X49465908Y-30067483D01*
X49516202Y-30202328D01*
X49516206Y-30202335D01*
X49602452Y-30317544D01*
X49602455Y-30317547D01*
X49717664Y-30403793D01*
X49717671Y-30403797D01*
X49721189Y-30405109D01*
X49852517Y-30454091D01*
X49912127Y-30460500D01*
X49985500Y-30460499D01*
X50052538Y-30480183D01*
X50098294Y-30532986D01*
X50109500Y-30584499D01*
X50109500Y-32174903D01*
X50089815Y-32241942D01*
X50073181Y-32262584D01*
X49472584Y-32863181D01*
X49411261Y-32896666D01*
X49384903Y-32899500D01*
X48432791Y-32899500D01*
X48365752Y-32879815D01*
X48319997Y-32827011D01*
X48316609Y-32818833D01*
X48293797Y-32757671D01*
X48293793Y-32757664D01*
X48207547Y-32642455D01*
X48207544Y-32642452D01*
X48092335Y-32556206D01*
X48092328Y-32556202D01*
X47957482Y-32505908D01*
X47957483Y-32505908D01*
X47897883Y-32499501D01*
X47897881Y-32499500D01*
X47897873Y-32499500D01*
X47897864Y-32499500D01*
X44652129Y-32499500D01*
X44652123Y-32499501D01*
X44592516Y-32505908D01*
X44457671Y-32556202D01*
X44457664Y-32556206D01*
X44342455Y-32642452D01*
X44342452Y-32642455D01*
X44256206Y-32757664D01*
X44256202Y-32757671D01*
X44205908Y-32892517D01*
X44199501Y-32952116D01*
X44199501Y-32952123D01*
X44199500Y-32952135D01*
X38550500Y-32952135D01*
X38550500Y-30688732D01*
X38570185Y-30621693D01*
X38622989Y-30575938D01*
X38635495Y-30571026D01*
X38669334Y-30559814D01*
X38818656Y-30467712D01*
X38942712Y-30343656D01*
X39034814Y-30194334D01*
X39089999Y-30027797D01*
X39100500Y-29925009D01*
X39100499Y-28574992D01*
X39100498Y-28574983D01*
X39899500Y-28574983D01*
X39899500Y-29925001D01*
X39899501Y-29925018D01*
X39910000Y-30027796D01*
X39910001Y-30027799D01*
X39965185Y-30194331D01*
X39965187Y-30194336D01*
X39987489Y-30230493D01*
X40057288Y-30343656D01*
X40181344Y-30467712D01*
X40330666Y-30559814D01*
X40497203Y-30614999D01*
X40599991Y-30625500D01*
X41500008Y-30625499D01*
X41500016Y-30625498D01*
X41500019Y-30625498D01*
X41556302Y-30619748D01*
X41602797Y-30614999D01*
X41769334Y-30559814D01*
X41918656Y-30467712D01*
X42042712Y-30343656D01*
X42134814Y-30194334D01*
X42189999Y-30027797D01*
X42192431Y-30003989D01*
X42196732Y-29961897D01*
X42223129Y-29897205D01*
X42280310Y-29857054D01*
X42320090Y-29850500D01*
X44242961Y-29850500D01*
X44310000Y-29870185D01*
X44355755Y-29922989D01*
X44360667Y-29935496D01*
X44389637Y-30022922D01*
X44389642Y-30022933D01*
X44480971Y-30170999D01*
X44480974Y-30171003D01*
X44603996Y-30294025D01*
X44604000Y-30294028D01*
X44752066Y-30385357D01*
X44752069Y-30385358D01*
X44752075Y-30385362D01*
X44917225Y-30440087D01*
X45019152Y-30450500D01*
X45019157Y-30450500D01*
X45605843Y-30450500D01*
X45605848Y-30450500D01*
X45707775Y-30440087D01*
X45872925Y-30385362D01*
X46021003Y-30294026D01*
X46144026Y-30171003D01*
X46144755Y-30169821D01*
X46145466Y-30169181D01*
X46148507Y-30165336D01*
X46149163Y-30165855D01*
X46196701Y-30123097D01*
X46265664Y-30111873D01*
X46329746Y-30139715D01*
X46351761Y-30165123D01*
X46351888Y-30165023D01*
X46354113Y-30167838D01*
X46355833Y-30169822D01*
X46356365Y-30170685D01*
X46356369Y-30170690D01*
X46479308Y-30293629D01*
X46627285Y-30384903D01*
X46627290Y-30384905D01*
X46792326Y-30439592D01*
X46894184Y-30449999D01*
X46894197Y-30450000D01*
X46937500Y-30450000D01*
X47437500Y-30450000D01*
X47480803Y-30450000D01*
X47480815Y-30449999D01*
X47582673Y-30439592D01*
X47747709Y-30384905D01*
X47747714Y-30384903D01*
X47895691Y-30293629D01*
X48018629Y-30170691D01*
X48109903Y-30022714D01*
X48109905Y-30022709D01*
X48164592Y-29857673D01*
X48174999Y-29755815D01*
X48175000Y-29755802D01*
X48175000Y-29500000D01*
X47437500Y-29500000D01*
X47437500Y-30450000D01*
X46937500Y-30450000D01*
X46937500Y-29000000D01*
X47437500Y-29000000D01*
X48175000Y-29000000D01*
X48175000Y-28744197D01*
X48174999Y-28744184D01*
X48164592Y-28642326D01*
X48109905Y-28477290D01*
X48109903Y-28477285D01*
X48018629Y-28329308D01*
X47895691Y-28206370D01*
X47747714Y-28115096D01*
X47747709Y-28115094D01*
X47582673Y-28060407D01*
X47480815Y-28050000D01*
X47437500Y-28050000D01*
X47437500Y-29000000D01*
X46937500Y-29000000D01*
X46937500Y-28050000D01*
X46894184Y-28050000D01*
X46792326Y-28060407D01*
X46627290Y-28115094D01*
X46627285Y-28115096D01*
X46479308Y-28206370D01*
X46356369Y-28329309D01*
X46356364Y-28329315D01*
X46355829Y-28330184D01*
X46355306Y-28330654D01*
X46351888Y-28334977D01*
X46351149Y-28334392D01*
X46303879Y-28376906D01*
X46234916Y-28388125D01*
X46170835Y-28360278D01*
X46148586Y-28334601D01*
X46148507Y-28334664D01*
X46147111Y-28332898D01*
X46144758Y-28330183D01*
X46144028Y-28328999D01*
X46021003Y-28205974D01*
X46020999Y-28205971D01*
X45872933Y-28114642D01*
X45872927Y-28114639D01*
X45872925Y-28114638D01*
X45872922Y-28114637D01*
X45707776Y-28059913D01*
X45605855Y-28049500D01*
X45605848Y-28049500D01*
X45019152Y-28049500D01*
X45019144Y-28049500D01*
X44917223Y-28059913D01*
X44752077Y-28114637D01*
X44752066Y-28114642D01*
X44604000Y-28205971D01*
X44603996Y-28205974D01*
X44480974Y-28328996D01*
X44480971Y-28329000D01*
X44389642Y-28477066D01*
X44389637Y-28477077D01*
X44360667Y-28564504D01*
X44320894Y-28621949D01*
X44256378Y-28648772D01*
X44242961Y-28649500D01*
X42320089Y-28649500D01*
X42253050Y-28629815D01*
X42207295Y-28577011D01*
X42196731Y-28538102D01*
X42194114Y-28512484D01*
X42189999Y-28472203D01*
X42134814Y-28305666D01*
X42042712Y-28156344D01*
X41918656Y-28032288D01*
X41769334Y-27940186D01*
X41602797Y-27885001D01*
X41602795Y-27885000D01*
X41500010Y-27874500D01*
X40599998Y-27874500D01*
X40599980Y-27874501D01*
X40497203Y-27885000D01*
X40497200Y-27885001D01*
X40330668Y-27940185D01*
X40330663Y-27940187D01*
X40181342Y-28032289D01*
X40057289Y-28156342D01*
X39965187Y-28305663D01*
X39965185Y-28305668D01*
X39947089Y-28360278D01*
X39910001Y-28472203D01*
X39910001Y-28472204D01*
X39910000Y-28472204D01*
X39899500Y-28574983D01*
X39100498Y-28574983D01*
X39099803Y-28568183D01*
X39089999Y-28472203D01*
X39089998Y-28472200D01*
X39034814Y-28305666D01*
X38942712Y-28156344D01*
X38818656Y-28032288D01*
X38669334Y-27940186D01*
X38502797Y-27885001D01*
X38502795Y-27885000D01*
X38400010Y-27874500D01*
X37499998Y-27874500D01*
X37499980Y-27874501D01*
X37397203Y-27885000D01*
X37397200Y-27885001D01*
X37230668Y-27940185D01*
X37230663Y-27940187D01*
X37081342Y-28032289D01*
X36957289Y-28156342D01*
X36865187Y-28305663D01*
X36865185Y-28305668D01*
X36847089Y-28360278D01*
X36810001Y-28472203D01*
X36810001Y-28472204D01*
X36810000Y-28472204D01*
X36799500Y-28574983D01*
X36799500Y-29925001D01*
X36799501Y-29925018D01*
X36810000Y-30027796D01*
X36810001Y-30027799D01*
X36865185Y-30194331D01*
X36865187Y-30194336D01*
X36887489Y-30230493D01*
X36957288Y-30343656D01*
X37081344Y-30467712D01*
X37230666Y-30559814D01*
X37264500Y-30571025D01*
X37321947Y-30610796D01*
X37348772Y-30675311D01*
X37349500Y-30688732D01*
X37349500Y-33418330D01*
X37349499Y-33418348D01*
X37349499Y-33584054D01*
X37349498Y-33584054D01*
X37390423Y-33736785D01*
X37419358Y-33786900D01*
X37419359Y-33786904D01*
X37419360Y-33786904D01*
X37465220Y-33866338D01*
X37469479Y-33873714D01*
X37469481Y-33873717D01*
X37588349Y-33992585D01*
X37588355Y-33992590D01*
X43617694Y-40021929D01*
X43651179Y-40083252D01*
X43646195Y-40152944D01*
X43604323Y-40208877D01*
X43538859Y-40233294D01*
X43491695Y-40227541D01*
X43407828Y-40200291D01*
X43213422Y-40169500D01*
X43213417Y-40169500D01*
X42016583Y-40169500D01*
X42016578Y-40169500D01*
X41822173Y-40200290D01*
X41634970Y-40261117D01*
X41459594Y-40350476D01*
X41300355Y-40466171D01*
X41184127Y-40582399D01*
X41122804Y-40615883D01*
X41053112Y-40610899D01*
X41008765Y-40582398D01*
X34768421Y-34342052D01*
X34768420Y-34342051D01*
X34675451Y-34279932D01*
X34675450Y-34279931D01*
X34645500Y-34259919D01*
X34645488Y-34259912D01*
X34508917Y-34203343D01*
X34508907Y-34203340D01*
X34363920Y-34174500D01*
X34363918Y-34174500D01*
X32449500Y-34174500D01*
X32382461Y-34154815D01*
X32336706Y-34102011D01*
X32325500Y-34050500D01*
X32325499Y-32952129D01*
X32325498Y-32952123D01*
X32325497Y-32952116D01*
X32319091Y-32892517D01*
X32314353Y-32879815D01*
X32268797Y-32757671D01*
X32268793Y-32757664D01*
X32182547Y-32642455D01*
X32182544Y-32642452D01*
X32067335Y-32556206D01*
X32067328Y-32556202D01*
X31932482Y-32505908D01*
X31932483Y-32505908D01*
X31872883Y-32499501D01*
X31872881Y-32499500D01*
X31872873Y-32499500D01*
X31872864Y-32499500D01*
X28627129Y-32499500D01*
X28627123Y-32499501D01*
X28567516Y-32505908D01*
X28432671Y-32556202D01*
X28432664Y-32556206D01*
X28317455Y-32642452D01*
X28317452Y-32642455D01*
X28231206Y-32757664D01*
X28231202Y-32757671D01*
X28180908Y-32892517D01*
X28174501Y-32952116D01*
X28174501Y-32952123D01*
X28174500Y-32952135D01*
X28174501Y-34050500D01*
X28154816Y-34117539D01*
X28102013Y-34163294D01*
X28050501Y-34174500D01*
X24257599Y-34174500D01*
X24190560Y-34154815D01*
X24184714Y-34150818D01*
X24107819Y-34094951D01*
X24107818Y-34094950D01*
X24107816Y-34094949D01*
X23918412Y-33998443D01*
X23716243Y-33932754D01*
X23716241Y-33932753D01*
X23716240Y-33932753D01*
X23554957Y-33907208D01*
X23506287Y-33899500D01*
X22993713Y-33899500D01*
X22945042Y-33907208D01*
X22783760Y-33932753D01*
X22581585Y-33998444D01*
X22392179Y-34094951D01*
X22220213Y-34219890D01*
X22069890Y-34370213D01*
X21944951Y-34542179D01*
X21848444Y-34731585D01*
X21782753Y-34933760D01*
X21749500Y-35143713D01*
X20320000Y-35143713D01*
X20320000Y-29845000D01*
X21494778Y-29845000D01*
X21513313Y-30127796D01*
X21513644Y-30132837D01*
X21513646Y-30132849D01*
X21569917Y-30415745D01*
X21569921Y-30415760D01*
X21662642Y-30688905D01*
X21790219Y-30947606D01*
X21790223Y-30947613D01*
X21950478Y-31187452D01*
X22140672Y-31404327D01*
X22357546Y-31594520D01*
X22597389Y-31754778D01*
X22856098Y-31882359D01*
X23129247Y-31975081D01*
X23412161Y-32031356D01*
X23700000Y-32050222D01*
X23987839Y-32031356D01*
X24270753Y-31975081D01*
X24543902Y-31882359D01*
X24802611Y-31754778D01*
X25042454Y-31594520D01*
X25259327Y-31404327D01*
X25449520Y-31187454D01*
X25609778Y-30947611D01*
X25737359Y-30688902D01*
X25830081Y-30415753D01*
X25886356Y-30132839D01*
X25905222Y-29845000D01*
X25886356Y-29557161D01*
X25830081Y-29274247D01*
X25737359Y-29001098D01*
X25609778Y-28742389D01*
X25542851Y-28642225D01*
X25449521Y-28502547D01*
X25259327Y-28285672D01*
X25042452Y-28095478D01*
X24802613Y-27935223D01*
X24802606Y-27935219D01*
X24543905Y-27807642D01*
X24270760Y-27714921D01*
X24270754Y-27714919D01*
X24270753Y-27714919D01*
X24270751Y-27714918D01*
X24270745Y-27714917D01*
X23987849Y-27658646D01*
X23987839Y-27658644D01*
X23700000Y-27639778D01*
X23412161Y-27658644D01*
X23412155Y-27658645D01*
X23412150Y-27658646D01*
X23129254Y-27714917D01*
X23129239Y-27714921D01*
X22856094Y-27807642D01*
X22597393Y-27935219D01*
X22597386Y-27935223D01*
X22357547Y-28095478D01*
X22140672Y-28285672D01*
X21950478Y-28502547D01*
X21790223Y-28742386D01*
X21790219Y-28742393D01*
X21662642Y-29001094D01*
X21569921Y-29274239D01*
X21569917Y-29274254D01*
X21538273Y-29433343D01*
X21513644Y-29557161D01*
X21494778Y-29845000D01*
X20320000Y-29845000D01*
X20320000Y-27124500D01*
X20339685Y-27057461D01*
X20392489Y-27011706D01*
X20444000Y-27000500D01*
X79125500Y-27000500D01*
X79192539Y-27020185D01*
G37*
%TD.AperFunction*%
%TD*%
M02*
