%TF.GenerationSoftware,KiCad,Pcbnew,8.0.9*%
%TF.CreationDate,2025-05-02T01:54:57-05:00*%
%TF.ProjectId,GSR sensor,47535220-7365-46e7-936f-722e6b696361,rev?*%
%TF.SameCoordinates,Original*%
%TF.FileFunction,Drillmap*%
%TF.FilePolarity,Positive*%
%FSLAX45Y45*%
G04 Gerber Fmt 4.5, Leading zero omitted, Abs format (unit mm)*
G04 Created by KiCad (PCBNEW 8.0.9) date 2025-05-02 01:54:57*
%MOMM*%
%LPD*%
G01*
G04 APERTURE LIST*
%ADD10C,0.050000*%
%ADD11C,0.200000*%
G04 APERTURE END LIST*
D10*
X8720000Y-4400000D02*
G75*
G02*
X8380000Y-4400000I-170000J0D01*
G01*
X8380000Y-4400000D02*
G75*
G02*
X8720000Y-4400000I170000J0D01*
G01*
X14320000Y-7000000D02*
G75*
G02*
X13980000Y-7000000I-170000J0D01*
G01*
X13980000Y-7000000D02*
G75*
G02*
X14320000Y-7000000I170000J0D01*
G01*
X8300000Y-4150000D02*
X17850000Y-4150000D01*
X17850000Y-7250000D01*
X8300000Y-7250000D01*
X8300000Y-4150000D01*
D11*
X8558277Y-7563984D02*
X8558277Y-7363984D01*
X8558277Y-7363984D02*
X8605896Y-7363984D01*
X8605896Y-7363984D02*
X8634467Y-7373508D01*
X8634467Y-7373508D02*
X8653515Y-7392555D01*
X8653515Y-7392555D02*
X8663039Y-7411603D01*
X8663039Y-7411603D02*
X8672563Y-7449698D01*
X8672563Y-7449698D02*
X8672563Y-7478269D01*
X8672563Y-7478269D02*
X8663039Y-7516365D01*
X8663039Y-7516365D02*
X8653515Y-7535412D01*
X8653515Y-7535412D02*
X8634467Y-7554460D01*
X8634467Y-7554460D02*
X8605896Y-7563984D01*
X8605896Y-7563984D02*
X8558277Y-7563984D01*
X8758277Y-7563984D02*
X8758277Y-7430650D01*
X8758277Y-7468746D02*
X8767801Y-7449698D01*
X8767801Y-7449698D02*
X8777324Y-7440174D01*
X8777324Y-7440174D02*
X8796372Y-7430650D01*
X8796372Y-7430650D02*
X8815420Y-7430650D01*
X8882086Y-7563984D02*
X8882086Y-7430650D01*
X8882086Y-7363984D02*
X8872563Y-7373508D01*
X8872563Y-7373508D02*
X8882086Y-7383031D01*
X8882086Y-7383031D02*
X8891610Y-7373508D01*
X8891610Y-7373508D02*
X8882086Y-7363984D01*
X8882086Y-7363984D02*
X8882086Y-7383031D01*
X9005896Y-7563984D02*
X8986848Y-7554460D01*
X8986848Y-7554460D02*
X8977324Y-7535412D01*
X8977324Y-7535412D02*
X8977324Y-7363984D01*
X9110658Y-7563984D02*
X9091610Y-7554460D01*
X9091610Y-7554460D02*
X9082086Y-7535412D01*
X9082086Y-7535412D02*
X9082086Y-7363984D01*
X9339229Y-7563984D02*
X9339229Y-7363984D01*
X9339229Y-7363984D02*
X9405896Y-7506841D01*
X9405896Y-7506841D02*
X9472563Y-7363984D01*
X9472563Y-7363984D02*
X9472563Y-7563984D01*
X9653515Y-7563984D02*
X9653515Y-7459222D01*
X9653515Y-7459222D02*
X9643991Y-7440174D01*
X9643991Y-7440174D02*
X9624944Y-7430650D01*
X9624944Y-7430650D02*
X9586848Y-7430650D01*
X9586848Y-7430650D02*
X9567801Y-7440174D01*
X9653515Y-7554460D02*
X9634467Y-7563984D01*
X9634467Y-7563984D02*
X9586848Y-7563984D01*
X9586848Y-7563984D02*
X9567801Y-7554460D01*
X9567801Y-7554460D02*
X9558277Y-7535412D01*
X9558277Y-7535412D02*
X9558277Y-7516365D01*
X9558277Y-7516365D02*
X9567801Y-7497317D01*
X9567801Y-7497317D02*
X9586848Y-7487793D01*
X9586848Y-7487793D02*
X9634467Y-7487793D01*
X9634467Y-7487793D02*
X9653515Y-7478269D01*
X9748753Y-7430650D02*
X9748753Y-7630650D01*
X9748753Y-7440174D02*
X9767801Y-7430650D01*
X9767801Y-7430650D02*
X9805896Y-7430650D01*
X9805896Y-7430650D02*
X9824944Y-7440174D01*
X9824944Y-7440174D02*
X9834467Y-7449698D01*
X9834467Y-7449698D02*
X9843991Y-7468746D01*
X9843991Y-7468746D02*
X9843991Y-7525888D01*
X9843991Y-7525888D02*
X9834467Y-7544936D01*
X9834467Y-7544936D02*
X9824944Y-7554460D01*
X9824944Y-7554460D02*
X9805896Y-7563984D01*
X9805896Y-7563984D02*
X9767801Y-7563984D01*
X9767801Y-7563984D02*
X9748753Y-7554460D01*
X9929705Y-7544936D02*
X9939229Y-7554460D01*
X9939229Y-7554460D02*
X9929705Y-7563984D01*
X9929705Y-7563984D02*
X9920182Y-7554460D01*
X9920182Y-7554460D02*
X9929705Y-7544936D01*
X9929705Y-7544936D02*
X9929705Y-7563984D01*
X9929705Y-7440174D02*
X9939229Y-7449698D01*
X9939229Y-7449698D02*
X9929705Y-7459222D01*
X9929705Y-7459222D02*
X9920182Y-7449698D01*
X9920182Y-7449698D02*
X9929705Y-7440174D01*
X9929705Y-7440174D02*
X9929705Y-7459222D01*
M02*
