G04 #@! TF.GenerationSoftware,KiCad,Pcbnew,8.0.9*
G04 #@! TF.CreationDate,2025-05-02T01:54:32-05:00*
G04 #@! TF.ProjectId,GSR sensor,47535220-7365-46e7-936f-722e6b696361,rev?*
G04 #@! TF.SameCoordinates,Original*
G04 #@! TF.FileFunction,Copper,L2,Bot*
G04 #@! TF.FilePolarity,Positive*
%FSLAX46Y46*%
G04 Gerber Fmt 4.6, Leading zero omitted, Abs format (unit mm)*
G04 Created by KiCad (PCBNEW 8.0.9) date 2025-05-02 01:54:32*
%MOMM*%
%LPD*%
G01*
G04 APERTURE LIST*
G04 Aperture macros list*
%AMRoundRect*
0 Rectangle with rounded corners*
0 $1 Rounding radius*
0 $2 $3 $4 $5 $6 $7 $8 $9 X,Y pos of 4 corners*
0 Add a 4 corners polygon primitive as box body*
4,1,4,$2,$3,$4,$5,$6,$7,$8,$9,$2,$3,0*
0 Add four circle primitives for the rounded corners*
1,1,$1+$1,$2,$3*
1,1,$1+$1,$4,$5*
1,1,$1+$1,$6,$7*
1,1,$1+$1,$8,$9*
0 Add four rect primitives between the rounded corners*
20,1,$1+$1,$2,$3,$4,$5,0*
20,1,$1+$1,$4,$5,$6,$7,0*
20,1,$1+$1,$6,$7,$8,$9,0*
20,1,$1+$1,$8,$9,$2,$3,0*%
G04 Aperture macros list end*
G04 #@! TA.AperFunction,ComponentPad*
%ADD10C,1.238000*%
G04 #@! TD*
G04 #@! TA.AperFunction,ComponentPad*
%ADD11R,1.238000X1.238000*%
G04 #@! TD*
G04 #@! TA.AperFunction,ComponentPad*
%ADD12O,3.000000X1.520000*%
G04 #@! TD*
G04 #@! TA.AperFunction,ComponentPad*
%ADD13C,1.200000*%
G04 #@! TD*
G04 #@! TA.AperFunction,ComponentPad*
%ADD14RoundRect,0.250000X0.600000X0.750000X-0.600000X0.750000X-0.600000X-0.750000X0.600000X-0.750000X0*%
G04 #@! TD*
G04 #@! TA.AperFunction,ComponentPad*
%ADD15O,1.700000X2.000000*%
G04 #@! TD*
G04 #@! TA.AperFunction,ComponentPad*
%ADD16RoundRect,0.250000X-0.725000X0.600000X-0.725000X-0.600000X0.725000X-0.600000X0.725000X0.600000X0*%
G04 #@! TD*
G04 #@! TA.AperFunction,ComponentPad*
%ADD17O,1.950000X1.700000*%
G04 #@! TD*
G04 #@! TA.AperFunction,ViaPad*
%ADD18C,1.270000*%
G04 #@! TD*
G04 #@! TA.AperFunction,Conductor*
%ADD19C,0.500000*%
G04 #@! TD*
G04 APERTURE END LIST*
D10*
X154000000Y-59731500D03*
D11*
X154000000Y-67268500D03*
D10*
X148500000Y-67268500D03*
D11*
X148500000Y-59731500D03*
D10*
X154000000Y-52268500D03*
D11*
X154000000Y-44731500D03*
D10*
X148500000Y-44731500D03*
D11*
X148500000Y-52268500D03*
D12*
X159381400Y-46839900D03*
X159398400Y-49379900D03*
X159398400Y-51919900D03*
X159398400Y-54459900D03*
X159398400Y-56999900D03*
X159398400Y-59539900D03*
X159398400Y-62079900D03*
X159398400Y-64619900D03*
X159398400Y-67159900D03*
X174584500Y-67159900D03*
X174584500Y-64619900D03*
X174584500Y-62079900D03*
X174584500Y-59539900D03*
X174584500Y-56999900D03*
X174584500Y-54459900D03*
X174584500Y-51919900D03*
X174584500Y-49379900D03*
X174618600Y-46839900D03*
D13*
X108500000Y-57500000D03*
X110500000Y-57500000D03*
D14*
X90000000Y-56500000D03*
D15*
X87500000Y-56500000D03*
D16*
X136000000Y-57500000D03*
D17*
X136000000Y-60000000D03*
X136000000Y-62500000D03*
X136000000Y-65000000D03*
D14*
X134250000Y-47300000D03*
D15*
X131750000Y-47300000D03*
D13*
X87500000Y-65500000D03*
X89500000Y-65500000D03*
D18*
X147000000Y-62000000D03*
X148000000Y-57000000D03*
X90500000Y-60000000D03*
D19*
X156800500Y-52000000D02*
X159318300Y-52000000D01*
X155300500Y-50500000D02*
X156800500Y-52000000D01*
X136000000Y-52500000D02*
X138000000Y-50500000D01*
X138000000Y-50500000D02*
X155300500Y-50500000D01*
X159318300Y-52000000D02*
X159398400Y-51919900D01*
X136000000Y-57500000D02*
X136000000Y-52500000D01*
X148079900Y-62079900D02*
X159398400Y-62079900D01*
X148000000Y-62000000D02*
X148079900Y-62079900D01*
X147000000Y-62000000D02*
X148000000Y-62000000D01*
X153500000Y-55000000D02*
X155500000Y-57000000D01*
X155500100Y-56999900D02*
X159398400Y-56999900D01*
X148000000Y-55000000D02*
X153500000Y-55000000D01*
X141500000Y-61500000D02*
X148000000Y-55000000D01*
X138000000Y-68500000D02*
X141500000Y-65000000D01*
X95500000Y-68500000D02*
X138000000Y-68500000D01*
X155500000Y-57000000D02*
X155500100Y-56999900D01*
X90500000Y-63500000D02*
X95500000Y-68500000D01*
X141500000Y-65000000D02*
X141500000Y-61500000D01*
X90500000Y-60000000D02*
X90500000Y-63500000D01*
X155539900Y-59539900D02*
X159398400Y-59539900D01*
X153000000Y-57000000D02*
X155539900Y-59539900D01*
X148000000Y-57000000D02*
X153000000Y-57000000D01*
X148500000Y-59731500D02*
X154000000Y-59731500D01*
G04 #@! TA.AperFunction,Conductor*
G36*
X177942539Y-42020185D02*
G01*
X177988294Y-42072989D01*
X177999500Y-42124500D01*
X177999500Y-71875500D01*
X177979815Y-71942539D01*
X177927011Y-71988294D01*
X177875500Y-71999500D01*
X142877106Y-71999500D01*
X142810067Y-71979815D01*
X142764312Y-71927011D01*
X142754368Y-71857853D01*
X142783393Y-71794297D01*
X142808215Y-71772398D01*
X142842455Y-71749519D01*
X143059327Y-71559327D01*
X143249520Y-71342454D01*
X143409778Y-71102611D01*
X143537359Y-70843902D01*
X143630081Y-70570753D01*
X143686356Y-70287839D01*
X143705222Y-70000000D01*
X143686356Y-69712161D01*
X143630081Y-69429247D01*
X143537359Y-69156098D01*
X143409778Y-68897389D01*
X143249520Y-68657546D01*
X143059327Y-68440672D01*
X142842452Y-68250478D01*
X142602613Y-68090223D01*
X142602606Y-68090219D01*
X142343905Y-67962642D01*
X142070760Y-67869921D01*
X142070754Y-67869919D01*
X142070753Y-67869919D01*
X142070751Y-67869918D01*
X142070745Y-67869917D01*
X141787849Y-67813646D01*
X141787839Y-67813644D01*
X141500000Y-67794778D01*
X141212161Y-67813644D01*
X141212155Y-67813645D01*
X141212150Y-67813646D01*
X140929254Y-67869917D01*
X140929239Y-67869921D01*
X140656094Y-67962642D01*
X140397393Y-68090219D01*
X140397386Y-68090223D01*
X140157547Y-68250478D01*
X139940672Y-68440672D01*
X139750478Y-68657547D01*
X139590223Y-68897386D01*
X139590219Y-68897393D01*
X139462642Y-69156094D01*
X139369921Y-69429239D01*
X139369917Y-69429254D01*
X139313646Y-69712150D01*
X139313644Y-69712162D01*
X139294778Y-70000000D01*
X139313644Y-70287837D01*
X139313646Y-70287849D01*
X139369917Y-70570745D01*
X139369921Y-70570760D01*
X139462642Y-70843905D01*
X139590219Y-71102606D01*
X139590223Y-71102613D01*
X139750478Y-71342452D01*
X139940672Y-71559327D01*
X140157544Y-71749519D01*
X140191785Y-71772398D01*
X140236590Y-71826010D01*
X140245297Y-71895335D01*
X140215142Y-71958363D01*
X140155699Y-71995082D01*
X140122894Y-71999500D01*
X83624500Y-71999500D01*
X83557461Y-71979815D01*
X83511706Y-71927011D01*
X83500500Y-71875500D01*
X83500500Y-65499999D01*
X86394785Y-65499999D01*
X86394785Y-65500000D01*
X86413602Y-65703082D01*
X86469417Y-65899247D01*
X86469422Y-65899260D01*
X86560327Y-66081821D01*
X86683237Y-66244581D01*
X86833958Y-66381980D01*
X86833960Y-66381982D01*
X86874631Y-66407164D01*
X87007363Y-66489348D01*
X87197544Y-66563024D01*
X87398024Y-66600500D01*
X87398026Y-66600500D01*
X87601974Y-66600500D01*
X87601976Y-66600500D01*
X87802456Y-66563024D01*
X87992637Y-66489348D01*
X88166041Y-66381981D01*
X88297084Y-66262520D01*
X88316762Y-66244581D01*
X88346123Y-66205702D01*
X88401046Y-66132970D01*
X88457155Y-66091335D01*
X88526867Y-66086644D01*
X88588049Y-66120386D01*
X88598951Y-66132967D01*
X88615628Y-66155051D01*
X88683237Y-66244581D01*
X88833958Y-66381980D01*
X88833960Y-66381982D01*
X88874631Y-66407164D01*
X89007363Y-66489348D01*
X89197544Y-66563024D01*
X89398024Y-66600500D01*
X89398026Y-66600500D01*
X89601974Y-66600500D01*
X89601976Y-66600500D01*
X89802456Y-66563024D01*
X89992637Y-66489348D01*
X90166041Y-66381981D01*
X90297084Y-66262520D01*
X90316762Y-66244581D01*
X90346119Y-66205706D01*
X90439673Y-66081821D01*
X90530582Y-65899250D01*
X90586397Y-65703083D01*
X90605215Y-65500000D01*
X90591825Y-65355501D01*
X90586397Y-65296917D01*
X90564204Y-65218917D01*
X90530582Y-65100750D01*
X90517221Y-65073918D01*
X90486272Y-65011764D01*
X90439673Y-64918179D01*
X90316764Y-64755421D01*
X90316762Y-64755418D01*
X90166041Y-64618019D01*
X90166039Y-64618017D01*
X89992642Y-64510655D01*
X89992635Y-64510651D01*
X89897546Y-64473814D01*
X89802456Y-64436976D01*
X89601976Y-64399500D01*
X89398024Y-64399500D01*
X89197544Y-64436976D01*
X89197541Y-64436976D01*
X89197541Y-64436977D01*
X89007364Y-64510651D01*
X89007357Y-64510655D01*
X88833960Y-64618017D01*
X88833958Y-64618019D01*
X88683237Y-64755419D01*
X88598954Y-64867028D01*
X88542845Y-64908664D01*
X88473133Y-64913355D01*
X88411951Y-64879613D01*
X88401046Y-64867028D01*
X88316762Y-64755419D01*
X88166041Y-64618019D01*
X88166039Y-64618017D01*
X87992642Y-64510655D01*
X87992635Y-64510651D01*
X87897546Y-64473814D01*
X87802456Y-64436976D01*
X87601976Y-64399500D01*
X87398024Y-64399500D01*
X87197544Y-64436976D01*
X87197541Y-64436976D01*
X87197541Y-64436977D01*
X87007364Y-64510651D01*
X87007357Y-64510655D01*
X86833960Y-64618017D01*
X86833958Y-64618019D01*
X86683237Y-64755418D01*
X86560327Y-64918178D01*
X86469422Y-65100739D01*
X86469417Y-65100752D01*
X86413602Y-65296917D01*
X86394785Y-65499999D01*
X83500500Y-65499999D01*
X83500500Y-59999999D01*
X89359635Y-59999999D01*
X89359635Y-60000000D01*
X89379051Y-60209537D01*
X89379051Y-60209539D01*
X89379052Y-60209542D01*
X89432778Y-60398370D01*
X89436642Y-60411950D01*
X89526709Y-60592828D01*
X89530442Y-60600325D01*
X89641500Y-60747390D01*
X89657261Y-60768260D01*
X89709038Y-60815461D01*
X89745319Y-60875172D01*
X89749500Y-60907098D01*
X89749500Y-63573918D01*
X89749500Y-63573920D01*
X89749499Y-63573920D01*
X89778340Y-63718907D01*
X89778343Y-63718917D01*
X89834913Y-63855490D01*
X89834916Y-63855495D01*
X89848722Y-63876156D01*
X89848723Y-63876161D01*
X89848725Y-63876161D01*
X89911355Y-63969896D01*
X89917049Y-63978417D01*
X95021586Y-69082954D01*
X95051058Y-69102645D01*
X95095270Y-69132186D01*
X95144505Y-69165084D01*
X95144506Y-69165084D01*
X95144507Y-69165085D01*
X95144509Y-69165086D01*
X95281082Y-69221656D01*
X95281087Y-69221658D01*
X95281091Y-69221658D01*
X95281092Y-69221659D01*
X95426079Y-69250500D01*
X95426082Y-69250500D01*
X138073920Y-69250500D01*
X138171462Y-69231096D01*
X138218913Y-69221658D01*
X138355495Y-69165084D01*
X138404729Y-69132186D01*
X138404734Y-69132183D01*
X138429071Y-69115921D01*
X138478416Y-69082952D01*
X140292868Y-67268499D01*
X147376206Y-67268499D01*
X147376206Y-67268500D01*
X147395340Y-67474992D01*
X147452094Y-67674464D01*
X147544529Y-67860098D01*
X147544532Y-67860102D01*
X147548968Y-67865976D01*
X147548970Y-67865976D01*
X148135000Y-67279946D01*
X148135000Y-67316553D01*
X148159874Y-67409385D01*
X148207927Y-67492616D01*
X148275884Y-67560573D01*
X148359115Y-67608626D01*
X148451947Y-67633500D01*
X148488553Y-67633500D01*
X147905509Y-68216541D01*
X147905510Y-68216542D01*
X147999078Y-68274477D01*
X147999084Y-68274479D01*
X148192460Y-68349393D01*
X148396311Y-68387500D01*
X148603689Y-68387500D01*
X148807538Y-68349393D01*
X148807539Y-68349393D01*
X149000917Y-68274479D01*
X149000918Y-68274478D01*
X149094489Y-68216541D01*
X148511448Y-67633500D01*
X148548053Y-67633500D01*
X148640885Y-67608626D01*
X148724116Y-67560573D01*
X148792073Y-67492616D01*
X148840126Y-67409385D01*
X148865000Y-67316553D01*
X148865000Y-67279947D01*
X149451029Y-67865976D01*
X149451030Y-67865976D01*
X149455465Y-67860106D01*
X149547905Y-67674464D01*
X149604659Y-67474992D01*
X149623794Y-67268500D01*
X149623794Y-67268499D01*
X149604659Y-67062007D01*
X149547905Y-66862535D01*
X149455467Y-66676897D01*
X149451029Y-66671022D01*
X148865000Y-67257051D01*
X148865000Y-67220447D01*
X148840126Y-67127615D01*
X148792073Y-67044384D01*
X148724116Y-66976427D01*
X148640885Y-66928374D01*
X148548053Y-66903500D01*
X148511447Y-66903500D01*
X148813311Y-66601635D01*
X152880500Y-66601635D01*
X152880500Y-67935370D01*
X152880501Y-67935376D01*
X152886908Y-67994983D01*
X152937202Y-68129828D01*
X152937206Y-68129835D01*
X153023452Y-68245044D01*
X153023455Y-68245047D01*
X153138664Y-68331293D01*
X153138671Y-68331297D01*
X153273517Y-68381591D01*
X153273516Y-68381591D01*
X153280444Y-68382335D01*
X153333127Y-68388000D01*
X154666872Y-68387999D01*
X154726483Y-68381591D01*
X154861331Y-68331296D01*
X154976546Y-68245046D01*
X155062796Y-68129831D01*
X155113091Y-67994983D01*
X155119500Y-67935373D01*
X155119499Y-66601628D01*
X155113091Y-66542017D01*
X155097141Y-66499254D01*
X155062797Y-66407171D01*
X155062793Y-66407164D01*
X154976547Y-66291955D01*
X154976544Y-66291952D01*
X154861335Y-66205706D01*
X154861328Y-66205702D01*
X154726482Y-66155408D01*
X154726483Y-66155408D01*
X154666883Y-66149001D01*
X154666881Y-66149000D01*
X154666873Y-66149000D01*
X154666864Y-66149000D01*
X153333129Y-66149000D01*
X153333123Y-66149001D01*
X153273516Y-66155408D01*
X153138671Y-66205702D01*
X153138664Y-66205706D01*
X153023455Y-66291952D01*
X153023452Y-66291955D01*
X152937206Y-66407164D01*
X152937202Y-66407171D01*
X152886908Y-66542017D01*
X152884650Y-66563024D01*
X152880501Y-66601623D01*
X152880500Y-66601635D01*
X148813311Y-66601635D01*
X149094489Y-66320457D01*
X149094488Y-66320456D01*
X149000921Y-66262523D01*
X149000915Y-66262520D01*
X148807539Y-66187606D01*
X148603689Y-66149500D01*
X148396311Y-66149500D01*
X148192461Y-66187606D01*
X148192460Y-66187606D01*
X147999084Y-66262520D01*
X147999081Y-66262521D01*
X147905509Y-66320457D01*
X148488554Y-66903500D01*
X148451947Y-66903500D01*
X148359115Y-66928374D01*
X148275884Y-66976427D01*
X148207927Y-67044384D01*
X148159874Y-67127615D01*
X148135000Y-67220447D01*
X148135000Y-67257052D01*
X147548969Y-66671021D01*
X147548968Y-66671021D01*
X147544533Y-66676894D01*
X147452094Y-66862535D01*
X147395340Y-67062007D01*
X147376206Y-67268499D01*
X140292868Y-67268499D01*
X142082951Y-65478416D01*
X142165084Y-65355495D01*
X142221658Y-65218913D01*
X142241170Y-65120821D01*
X142250500Y-65073918D01*
X142250500Y-61862229D01*
X142270185Y-61795190D01*
X142286819Y-61774548D01*
X144503997Y-59557370D01*
X146723819Y-57337547D01*
X146785140Y-57304064D01*
X146854832Y-57309048D01*
X146910765Y-57350920D01*
X146930764Y-57391294D01*
X146936640Y-57411947D01*
X146936641Y-57411948D01*
X147015009Y-57569331D01*
X147030442Y-57600325D01*
X147157260Y-57768259D01*
X147303481Y-57901557D01*
X147312776Y-57910030D01*
X147312778Y-57910032D01*
X147491692Y-58020811D01*
X147491698Y-58020814D01*
X147533268Y-58036918D01*
X147687924Y-58096832D01*
X147894780Y-58135500D01*
X147894782Y-58135500D01*
X148105218Y-58135500D01*
X148105220Y-58135500D01*
X148312076Y-58096832D01*
X148508304Y-58020813D01*
X148687223Y-57910031D01*
X148784821Y-57821059D01*
X148826721Y-57782863D01*
X148889525Y-57752246D01*
X148910259Y-57750500D01*
X152637770Y-57750500D01*
X152704809Y-57770185D01*
X152725451Y-57786819D01*
X153489969Y-58551337D01*
X153523454Y-58612660D01*
X153518470Y-58682352D01*
X153476598Y-58738285D01*
X153467566Y-58744445D01*
X153322461Y-58834291D01*
X153322460Y-58834292D01*
X153197029Y-58948637D01*
X153134227Y-58979254D01*
X153113492Y-58981000D01*
X149690229Y-58981000D01*
X149623190Y-58961315D01*
X149577435Y-58908511D01*
X149574047Y-58900333D01*
X149562797Y-58870171D01*
X149562793Y-58870164D01*
X149476547Y-58754955D01*
X149476544Y-58754952D01*
X149361335Y-58668706D01*
X149361328Y-58668702D01*
X149226482Y-58618408D01*
X149226483Y-58618408D01*
X149166883Y-58612001D01*
X149166881Y-58612000D01*
X149166873Y-58612000D01*
X149166864Y-58612000D01*
X147833129Y-58612000D01*
X147833123Y-58612001D01*
X147773516Y-58618408D01*
X147638671Y-58668702D01*
X147638664Y-58668706D01*
X147523455Y-58754952D01*
X147523452Y-58754955D01*
X147437206Y-58870164D01*
X147437202Y-58870171D01*
X147386908Y-59005017D01*
X147380501Y-59064616D01*
X147380500Y-59064635D01*
X147380500Y-60398370D01*
X147380501Y-60398376D01*
X147386908Y-60457983D01*
X147437202Y-60592828D01*
X147437206Y-60592835D01*
X147523452Y-60708044D01*
X147523455Y-60708047D01*
X147567681Y-60741155D01*
X147609552Y-60797089D01*
X147613585Y-60853491D01*
X147652836Y-60827325D01*
X147722696Y-60826151D01*
X147733098Y-60829516D01*
X147773517Y-60844591D01*
X147773516Y-60844591D01*
X147780444Y-60845335D01*
X147833127Y-60851000D01*
X149166872Y-60850999D01*
X149226483Y-60844591D01*
X149361331Y-60794296D01*
X149476546Y-60708046D01*
X149562796Y-60592831D01*
X149564572Y-60588066D01*
X149574047Y-60562667D01*
X149615918Y-60506733D01*
X149681383Y-60482316D01*
X149690229Y-60482000D01*
X153113492Y-60482000D01*
X153180531Y-60501685D01*
X153197026Y-60514359D01*
X153322460Y-60628708D01*
X153322462Y-60628709D01*
X153322463Y-60628710D01*
X153498854Y-60737927D01*
X153498860Y-60737930D01*
X153507185Y-60741155D01*
X153692322Y-60812877D01*
X153896263Y-60851000D01*
X153896265Y-60851000D01*
X154103735Y-60851000D01*
X154103737Y-60851000D01*
X154307678Y-60812877D01*
X154501142Y-60737929D01*
X154677540Y-60628708D01*
X154830865Y-60488933D01*
X154955896Y-60323366D01*
X154994394Y-60246050D01*
X155041894Y-60194815D01*
X155109557Y-60177393D01*
X155174283Y-60198220D01*
X155184405Y-60204984D01*
X155184406Y-60204984D01*
X155184407Y-60204985D01*
X155184409Y-60204986D01*
X155293083Y-60250000D01*
X155320987Y-60261558D01*
X155320991Y-60261558D01*
X155320992Y-60261559D01*
X155465979Y-60290400D01*
X155465982Y-60290400D01*
X155465983Y-60290400D01*
X155613817Y-60290400D01*
X157582424Y-60290400D01*
X157649463Y-60310085D01*
X157682742Y-60341515D01*
X157696938Y-60361054D01*
X157696942Y-60361059D01*
X157696944Y-60361061D01*
X157837239Y-60501356D01*
X157997754Y-60617977D01*
X158114035Y-60677224D01*
X158157586Y-60699415D01*
X158208382Y-60747390D01*
X158225177Y-60815211D01*
X158202640Y-60881346D01*
X158157586Y-60920385D01*
X157997752Y-61001824D01*
X157997749Y-61001826D01*
X157911655Y-61064377D01*
X157837239Y-61118444D01*
X157837237Y-61118446D01*
X157837236Y-61118446D01*
X157696942Y-61258740D01*
X157696938Y-61258745D01*
X157682742Y-61278285D01*
X157627412Y-61320951D01*
X157582424Y-61329400D01*
X148366843Y-61329400D01*
X148319390Y-61319961D01*
X148218913Y-61278342D01*
X148218907Y-61278340D01*
X148073920Y-61249500D01*
X148073918Y-61249500D01*
X147910259Y-61249500D01*
X147843220Y-61229815D01*
X147826721Y-61217137D01*
X147687222Y-61089968D01*
X147624488Y-61051125D01*
X147577852Y-60999097D01*
X147567605Y-60935443D01*
X147519727Y-60961587D01*
X147450035Y-60956602D01*
X147448576Y-60956048D01*
X147334226Y-60911749D01*
X147312076Y-60903168D01*
X147105220Y-60864500D01*
X146894780Y-60864500D01*
X146687924Y-60903168D01*
X146687921Y-60903168D01*
X146687921Y-60903169D01*
X146491698Y-60979185D01*
X146491692Y-60979188D01*
X146312779Y-61089967D01*
X146157261Y-61231739D01*
X146030442Y-61399674D01*
X145936642Y-61588049D01*
X145879051Y-61790462D01*
X145859635Y-61999999D01*
X145859635Y-62000000D01*
X145879051Y-62209537D01*
X145879051Y-62209539D01*
X145879052Y-62209542D01*
X145936641Y-62411947D01*
X146030442Y-62600325D01*
X146157260Y-62768259D01*
X146302938Y-62901062D01*
X146312776Y-62910030D01*
X146312778Y-62910032D01*
X146491692Y-63020811D01*
X146491698Y-63020814D01*
X146533268Y-63036918D01*
X146687924Y-63096832D01*
X146894780Y-63135500D01*
X146894782Y-63135500D01*
X147105218Y-63135500D01*
X147105220Y-63135500D01*
X147312076Y-63096832D01*
X147508304Y-63020813D01*
X147687223Y-62910031D01*
X147769730Y-62834815D01*
X147832533Y-62804198D01*
X147877452Y-62804833D01*
X147971993Y-62823639D01*
X147994652Y-62828146D01*
X148005981Y-62830400D01*
X148005982Y-62830400D01*
X148005983Y-62830400D01*
X148153818Y-62830400D01*
X157582424Y-62830400D01*
X157649463Y-62850085D01*
X157682742Y-62881515D01*
X157696938Y-62901054D01*
X157696942Y-62901059D01*
X157696944Y-62901061D01*
X157837239Y-63041356D01*
X157997754Y-63157977D01*
X158114035Y-63217224D01*
X158157586Y-63239415D01*
X158208382Y-63287390D01*
X158225177Y-63355211D01*
X158202640Y-63421346D01*
X158157586Y-63460385D01*
X157997752Y-63541824D01*
X157997749Y-63541826D01*
X157953579Y-63573918D01*
X157837239Y-63658444D01*
X157837237Y-63658446D01*
X157837236Y-63658446D01*
X157696946Y-63798736D01*
X157696946Y-63798737D01*
X157696944Y-63798739D01*
X157659470Y-63850318D01*
X157580326Y-63959249D01*
X157580324Y-63959252D01*
X157490250Y-64136031D01*
X157459593Y-64230384D01*
X157428937Y-64324732D01*
X157428936Y-64324735D01*
X157428936Y-64324737D01*
X157397900Y-64520690D01*
X157397900Y-64719109D01*
X157425555Y-64893713D01*
X157428937Y-64915068D01*
X157475540Y-65058496D01*
X157490250Y-65103768D01*
X157498940Y-65120822D01*
X157580323Y-65280546D01*
X157696944Y-65441061D01*
X157837239Y-65581356D01*
X157997754Y-65697977D01*
X158114035Y-65757224D01*
X158157586Y-65779415D01*
X158208382Y-65827390D01*
X158225177Y-65895211D01*
X158202640Y-65961346D01*
X158157586Y-66000385D01*
X157997752Y-66081824D01*
X157997749Y-66081826D01*
X157927355Y-66132971D01*
X157837239Y-66198444D01*
X157837237Y-66198446D01*
X157837236Y-66198446D01*
X157696946Y-66338736D01*
X157696946Y-66338737D01*
X157696944Y-66338739D01*
X157665528Y-66381980D01*
X157580326Y-66499249D01*
X157580324Y-66499252D01*
X157490250Y-66676031D01*
X157489970Y-66676894D01*
X157428937Y-66864732D01*
X157428936Y-66864735D01*
X157428936Y-66864737D01*
X157397900Y-67060690D01*
X157397900Y-67259109D01*
X157428936Y-67455062D01*
X157428937Y-67455068D01*
X157463218Y-67560573D01*
X157490250Y-67643768D01*
X157544124Y-67749500D01*
X157580323Y-67820546D01*
X157696944Y-67981061D01*
X157837239Y-68121356D01*
X157997754Y-68237977D01*
X158111200Y-68295780D01*
X158174531Y-68328049D01*
X158174533Y-68328049D01*
X158174536Y-68328051D01*
X158363232Y-68389363D01*
X158461214Y-68404881D01*
X158559191Y-68420400D01*
X158559196Y-68420400D01*
X160237609Y-68420400D01*
X160326678Y-68406292D01*
X160433568Y-68389363D01*
X160622264Y-68328051D01*
X160799046Y-68237977D01*
X160959561Y-68121356D01*
X161099856Y-67981061D01*
X161216477Y-67820546D01*
X161306551Y-67643764D01*
X161367863Y-67455068D01*
X161397412Y-67268501D01*
X161398900Y-67259109D01*
X161398900Y-67060690D01*
X161381970Y-66953806D01*
X161367863Y-66864732D01*
X161306551Y-66676036D01*
X161306549Y-66676033D01*
X161306549Y-66676031D01*
X161268636Y-66601623D01*
X161216477Y-66499254D01*
X161099856Y-66338739D01*
X160959561Y-66198444D01*
X160799046Y-66081823D01*
X160639212Y-66000384D01*
X160588417Y-65952411D01*
X160571622Y-65884590D01*
X160594159Y-65818455D01*
X160639213Y-65779415D01*
X160799046Y-65697977D01*
X160959561Y-65581356D01*
X161099856Y-65441061D01*
X161216477Y-65280546D01*
X161306551Y-65103764D01*
X161367863Y-64915068D01*
X161384792Y-64808178D01*
X161398900Y-64719109D01*
X161398900Y-64520690D01*
X161379705Y-64399500D01*
X161367863Y-64324732D01*
X161306551Y-64136036D01*
X161306549Y-64136033D01*
X161306549Y-64136031D01*
X161274280Y-64072700D01*
X161216477Y-63959254D01*
X161099856Y-63798739D01*
X160959561Y-63658444D01*
X160799046Y-63541823D01*
X160639212Y-63460384D01*
X160588417Y-63412411D01*
X160571622Y-63344590D01*
X160594159Y-63278455D01*
X160639213Y-63239415D01*
X160666619Y-63225451D01*
X160799046Y-63157977D01*
X160959561Y-63041356D01*
X161099856Y-62901061D01*
X161216477Y-62740546D01*
X161306551Y-62563764D01*
X161367863Y-62375068D01*
X161384792Y-62268178D01*
X161398900Y-62179109D01*
X161398900Y-61980690D01*
X161369042Y-61792179D01*
X161367863Y-61784732D01*
X161306551Y-61596036D01*
X161306549Y-61596033D01*
X161306549Y-61596031D01*
X161242277Y-61469890D01*
X161216477Y-61419254D01*
X161099856Y-61258739D01*
X160959561Y-61118444D01*
X160799046Y-61001823D01*
X160639212Y-60920384D01*
X160588417Y-60872411D01*
X160571622Y-60804590D01*
X160594159Y-60738455D01*
X160639213Y-60699415D01*
X160799046Y-60617977D01*
X160959561Y-60501356D01*
X161099856Y-60361061D01*
X161216477Y-60200546D01*
X161306551Y-60023764D01*
X161367863Y-59835068D01*
X161387934Y-59708343D01*
X161398900Y-59639109D01*
X161398900Y-59440690D01*
X161375419Y-59292442D01*
X161367863Y-59244732D01*
X161306551Y-59056036D01*
X161306549Y-59056033D01*
X161306549Y-59056031D01*
X161264467Y-58973441D01*
X161216477Y-58879254D01*
X161099856Y-58718739D01*
X160959561Y-58578444D01*
X160799046Y-58461823D01*
X160639212Y-58380384D01*
X160588417Y-58332411D01*
X160571622Y-58264590D01*
X160594159Y-58198455D01*
X160639213Y-58159415D01*
X160657656Y-58150018D01*
X160799046Y-58077977D01*
X160959561Y-57961356D01*
X161099856Y-57821061D01*
X161216477Y-57660546D01*
X161306551Y-57483764D01*
X161367863Y-57295068D01*
X161387923Y-57168412D01*
X161398900Y-57099109D01*
X161398900Y-56900690D01*
X161375891Y-56755419D01*
X161367863Y-56704732D01*
X161306551Y-56516036D01*
X161306549Y-56516033D01*
X161306549Y-56516031D01*
X161263398Y-56431342D01*
X161216477Y-56339254D01*
X161099856Y-56178739D01*
X160959561Y-56038444D01*
X160799046Y-55921823D01*
X160639212Y-55840384D01*
X160588417Y-55792411D01*
X160571622Y-55724590D01*
X160594159Y-55658455D01*
X160639213Y-55619415D01*
X160799046Y-55537977D01*
X160959561Y-55421356D01*
X161099856Y-55281061D01*
X161216477Y-55120546D01*
X161306551Y-54943764D01*
X161367863Y-54755068D01*
X161384792Y-54648178D01*
X161398900Y-54559109D01*
X161398900Y-54360690D01*
X161381289Y-54249500D01*
X161367863Y-54164732D01*
X161306551Y-53976036D01*
X161306549Y-53976033D01*
X161306549Y-53976031D01*
X161274280Y-53912700D01*
X161216477Y-53799254D01*
X161099856Y-53638739D01*
X160959561Y-53498444D01*
X160799046Y-53381823D01*
X160639212Y-53300384D01*
X160588417Y-53252411D01*
X160571622Y-53184590D01*
X160594159Y-53118455D01*
X160639213Y-53079415D01*
X160799046Y-52997977D01*
X160959561Y-52881356D01*
X161099856Y-52741061D01*
X161216477Y-52580546D01*
X161306551Y-52403764D01*
X161367863Y-52215068D01*
X161386837Y-52095268D01*
X161398900Y-52019109D01*
X161398900Y-51820690D01*
X161376083Y-51676633D01*
X161367863Y-51624732D01*
X161306551Y-51436036D01*
X161306549Y-51436033D01*
X161306549Y-51436031D01*
X161233138Y-51291954D01*
X161216477Y-51259254D01*
X161099856Y-51098739D01*
X160959561Y-50958444D01*
X160799046Y-50841823D01*
X160638662Y-50760104D01*
X160587866Y-50712129D01*
X160571071Y-50644309D01*
X160593608Y-50578174D01*
X160638662Y-50539134D01*
X160798787Y-50457545D01*
X160959228Y-50340979D01*
X160959233Y-50340975D01*
X161099475Y-50200733D01*
X161099479Y-50200728D01*
X161216045Y-50040287D01*
X161306088Y-49863572D01*
X161306090Y-49863566D01*
X161367374Y-49674949D01*
X161374509Y-49629900D01*
X159781991Y-49629900D01*
X159824442Y-49556373D01*
X159855600Y-49440092D01*
X159855600Y-49319708D01*
X159845145Y-49280690D01*
X172584000Y-49280690D01*
X172584000Y-49479109D01*
X172607883Y-49629900D01*
X172615037Y-49675068D01*
X172648594Y-49778343D01*
X172676350Y-49863768D01*
X172703500Y-49917052D01*
X172766423Y-50040546D01*
X172883044Y-50201061D01*
X173023339Y-50341356D01*
X173183854Y-50457977D01*
X173300135Y-50517224D01*
X173343686Y-50539415D01*
X173394482Y-50587390D01*
X173411277Y-50655211D01*
X173388740Y-50721346D01*
X173343686Y-50760385D01*
X173183852Y-50841824D01*
X173183849Y-50841826D01*
X173097755Y-50904377D01*
X173023339Y-50958444D01*
X173023337Y-50958446D01*
X173023336Y-50958446D01*
X172883046Y-51098736D01*
X172883046Y-51098737D01*
X172883044Y-51098739D01*
X172828977Y-51173155D01*
X172766426Y-51259249D01*
X172766424Y-51259252D01*
X172676350Y-51436031D01*
X172645693Y-51530384D01*
X172615037Y-51624732D01*
X172615036Y-51624735D01*
X172615036Y-51624737D01*
X172584000Y-51820690D01*
X172584000Y-52019109D01*
X172615036Y-52215062D01*
X172615037Y-52215068D01*
X172636490Y-52281092D01*
X172676350Y-52403768D01*
X172737521Y-52523822D01*
X172766423Y-52580546D01*
X172883044Y-52741061D01*
X173023339Y-52881356D01*
X173183854Y-52997977D01*
X173300135Y-53057224D01*
X173343686Y-53079415D01*
X173394482Y-53127390D01*
X173411277Y-53195211D01*
X173388740Y-53261346D01*
X173343686Y-53300385D01*
X173183852Y-53381824D01*
X173183849Y-53381826D01*
X173097755Y-53444377D01*
X173023339Y-53498444D01*
X173023337Y-53498446D01*
X173023336Y-53498446D01*
X172883046Y-53638736D01*
X172883046Y-53638737D01*
X172883044Y-53638739D01*
X172828977Y-53713155D01*
X172766426Y-53799249D01*
X172766424Y-53799252D01*
X172676350Y-53976031D01*
X172645693Y-54070384D01*
X172615037Y-54164732D01*
X172615036Y-54164735D01*
X172615036Y-54164737D01*
X172584000Y-54360690D01*
X172584000Y-54559109D01*
X172615036Y-54755062D01*
X172615037Y-54755068D01*
X172661640Y-54898496D01*
X172676350Y-54943768D01*
X172721691Y-55032754D01*
X172766423Y-55120546D01*
X172883044Y-55281061D01*
X173023339Y-55421356D01*
X173183854Y-55537977D01*
X173300087Y-55597200D01*
X173343686Y-55619415D01*
X173394482Y-55667390D01*
X173411277Y-55735211D01*
X173388740Y-55801346D01*
X173343686Y-55840385D01*
X173183852Y-55921824D01*
X173183849Y-55921826D01*
X173104899Y-55979187D01*
X173023339Y-56038444D01*
X173023337Y-56038446D01*
X173023336Y-56038446D01*
X172883046Y-56178736D01*
X172883046Y-56178737D01*
X172883044Y-56178739D01*
X172856564Y-56215186D01*
X172766426Y-56339249D01*
X172766424Y-56339252D01*
X172676350Y-56516031D01*
X172655350Y-56580663D01*
X172615037Y-56704732D01*
X172615036Y-56704735D01*
X172615036Y-56704737D01*
X172584000Y-56900690D01*
X172584000Y-57099109D01*
X172601491Y-57209542D01*
X172615037Y-57295068D01*
X172650040Y-57402795D01*
X172676350Y-57483768D01*
X172726887Y-57582952D01*
X172766423Y-57660546D01*
X172883044Y-57821061D01*
X173023339Y-57961356D01*
X173183854Y-58077977D01*
X173291787Y-58132971D01*
X173343686Y-58159415D01*
X173394482Y-58207390D01*
X173411277Y-58275211D01*
X173388740Y-58341346D01*
X173343686Y-58380385D01*
X173183852Y-58461824D01*
X173183849Y-58461826D01*
X173145969Y-58489348D01*
X173023339Y-58578444D01*
X173023337Y-58578446D01*
X173023336Y-58578446D01*
X172883046Y-58718736D01*
X172883046Y-58718737D01*
X172883044Y-58718739D01*
X172856732Y-58754955D01*
X172766426Y-58879249D01*
X172766424Y-58879252D01*
X172676350Y-59056031D01*
X172655390Y-59120540D01*
X172615037Y-59244732D01*
X172615036Y-59244735D01*
X172615036Y-59244737D01*
X172584000Y-59440690D01*
X172584000Y-59639109D01*
X172607972Y-59790462D01*
X172615037Y-59835068D01*
X172661640Y-59978496D01*
X172676350Y-60023768D01*
X172723305Y-60115922D01*
X172766423Y-60200546D01*
X172883044Y-60361061D01*
X173023339Y-60501356D01*
X173183854Y-60617977D01*
X173300135Y-60677224D01*
X173343686Y-60699415D01*
X173394482Y-60747390D01*
X173411277Y-60815211D01*
X173388740Y-60881346D01*
X173343686Y-60920385D01*
X173183852Y-61001824D01*
X173183849Y-61001826D01*
X173097755Y-61064377D01*
X173023339Y-61118444D01*
X173023337Y-61118446D01*
X173023336Y-61118446D01*
X172883046Y-61258736D01*
X172883046Y-61258737D01*
X172883044Y-61258739D01*
X172866804Y-61281092D01*
X172766426Y-61419249D01*
X172766424Y-61419252D01*
X172676350Y-61596031D01*
X172668493Y-61620213D01*
X172615037Y-61784732D01*
X172615036Y-61784735D01*
X172615036Y-61784737D01*
X172584000Y-61980690D01*
X172584000Y-62179109D01*
X172615036Y-62375062D01*
X172615037Y-62375068D01*
X172661640Y-62518496D01*
X172676350Y-62563768D01*
X172698015Y-62606287D01*
X172766423Y-62740546D01*
X172883044Y-62901061D01*
X173023339Y-63041356D01*
X173183854Y-63157977D01*
X173300135Y-63217224D01*
X173343686Y-63239415D01*
X173394482Y-63287390D01*
X173411277Y-63355211D01*
X173388740Y-63421346D01*
X173343686Y-63460385D01*
X173183852Y-63541824D01*
X173183849Y-63541826D01*
X173139679Y-63573918D01*
X173023339Y-63658444D01*
X173023337Y-63658446D01*
X173023336Y-63658446D01*
X172883046Y-63798736D01*
X172883046Y-63798737D01*
X172883044Y-63798739D01*
X172845570Y-63850318D01*
X172766426Y-63959249D01*
X172766424Y-63959252D01*
X172676350Y-64136031D01*
X172645693Y-64230384D01*
X172615037Y-64324732D01*
X172615036Y-64324735D01*
X172615036Y-64324737D01*
X172584000Y-64520690D01*
X172584000Y-64719109D01*
X172611655Y-64893713D01*
X172615037Y-64915068D01*
X172661640Y-65058496D01*
X172676350Y-65103768D01*
X172685040Y-65120822D01*
X172766423Y-65280546D01*
X172883044Y-65441061D01*
X173023339Y-65581356D01*
X173183854Y-65697977D01*
X173300135Y-65757224D01*
X173343686Y-65779415D01*
X173394482Y-65827390D01*
X173411277Y-65895211D01*
X173388740Y-65961346D01*
X173343686Y-66000385D01*
X173183852Y-66081824D01*
X173183849Y-66081826D01*
X173113455Y-66132971D01*
X173023339Y-66198444D01*
X173023337Y-66198446D01*
X173023336Y-66198446D01*
X172883046Y-66338736D01*
X172883046Y-66338737D01*
X172883044Y-66338739D01*
X172851628Y-66381980D01*
X172766426Y-66499249D01*
X172766424Y-66499252D01*
X172676350Y-66676031D01*
X172676070Y-66676894D01*
X172615037Y-66864732D01*
X172615036Y-66864735D01*
X172615036Y-66864737D01*
X172584000Y-67060690D01*
X172584000Y-67259109D01*
X172615036Y-67455062D01*
X172615037Y-67455068D01*
X172649318Y-67560573D01*
X172676350Y-67643768D01*
X172730224Y-67749500D01*
X172766423Y-67820546D01*
X172883044Y-67981061D01*
X173023339Y-68121356D01*
X173183854Y-68237977D01*
X173297300Y-68295780D01*
X173360631Y-68328049D01*
X173360633Y-68328049D01*
X173360636Y-68328051D01*
X173549332Y-68389363D01*
X173647314Y-68404881D01*
X173745291Y-68420400D01*
X173745296Y-68420400D01*
X175423709Y-68420400D01*
X175512778Y-68406292D01*
X175619668Y-68389363D01*
X175808364Y-68328051D01*
X175985146Y-68237977D01*
X176145661Y-68121356D01*
X176285956Y-67981061D01*
X176402577Y-67820546D01*
X176492651Y-67643764D01*
X176553963Y-67455068D01*
X176583512Y-67268501D01*
X176585000Y-67259109D01*
X176585000Y-67060690D01*
X176568070Y-66953806D01*
X176553963Y-66864732D01*
X176492651Y-66676036D01*
X176492649Y-66676033D01*
X176492649Y-66676031D01*
X176454736Y-66601623D01*
X176402577Y-66499254D01*
X176285956Y-66338739D01*
X176145661Y-66198444D01*
X175985146Y-66081823D01*
X175825312Y-66000384D01*
X175774517Y-65952411D01*
X175757722Y-65884590D01*
X175780259Y-65818455D01*
X175825313Y-65779415D01*
X175985146Y-65697977D01*
X176145661Y-65581356D01*
X176285956Y-65441061D01*
X176402577Y-65280546D01*
X176492651Y-65103764D01*
X176553963Y-64915068D01*
X176570892Y-64808178D01*
X176585000Y-64719109D01*
X176585000Y-64520690D01*
X176565805Y-64399500D01*
X176553963Y-64324732D01*
X176492651Y-64136036D01*
X176492649Y-64136033D01*
X176492649Y-64136031D01*
X176460380Y-64072700D01*
X176402577Y-63959254D01*
X176285956Y-63798739D01*
X176145661Y-63658444D01*
X175985146Y-63541823D01*
X175825312Y-63460384D01*
X175774517Y-63412411D01*
X175757722Y-63344590D01*
X175780259Y-63278455D01*
X175825313Y-63239415D01*
X175852719Y-63225451D01*
X175985146Y-63157977D01*
X176145661Y-63041356D01*
X176285956Y-62901061D01*
X176402577Y-62740546D01*
X176492651Y-62563764D01*
X176553963Y-62375068D01*
X176570892Y-62268178D01*
X176585000Y-62179109D01*
X176585000Y-61980690D01*
X176555142Y-61792179D01*
X176553963Y-61784732D01*
X176492651Y-61596036D01*
X176492649Y-61596033D01*
X176492649Y-61596031D01*
X176428377Y-61469890D01*
X176402577Y-61419254D01*
X176285956Y-61258739D01*
X176145661Y-61118444D01*
X175985146Y-61001823D01*
X175825312Y-60920384D01*
X175774517Y-60872411D01*
X175757722Y-60804590D01*
X175780259Y-60738455D01*
X175825313Y-60699415D01*
X175985146Y-60617977D01*
X176145661Y-60501356D01*
X176285956Y-60361061D01*
X176402577Y-60200546D01*
X176492651Y-60023764D01*
X176553963Y-59835068D01*
X176574034Y-59708343D01*
X176585000Y-59639109D01*
X176585000Y-59440690D01*
X176561519Y-59292442D01*
X176553963Y-59244732D01*
X176492651Y-59056036D01*
X176492649Y-59056033D01*
X176492649Y-59056031D01*
X176450567Y-58973441D01*
X176402577Y-58879254D01*
X176285956Y-58718739D01*
X176145661Y-58578444D01*
X175985146Y-58461823D01*
X175825312Y-58380384D01*
X175774517Y-58332411D01*
X175757722Y-58264590D01*
X175780259Y-58198455D01*
X175825313Y-58159415D01*
X175843756Y-58150018D01*
X175985146Y-58077977D01*
X176145661Y-57961356D01*
X176285956Y-57821061D01*
X176402577Y-57660546D01*
X176492651Y-57483764D01*
X176553963Y-57295068D01*
X176574023Y-57168412D01*
X176585000Y-57099109D01*
X176585000Y-56900690D01*
X176561991Y-56755419D01*
X176553963Y-56704732D01*
X176492651Y-56516036D01*
X176492649Y-56516033D01*
X176492649Y-56516031D01*
X176449498Y-56431342D01*
X176402577Y-56339254D01*
X176285956Y-56178739D01*
X176145661Y-56038444D01*
X175985146Y-55921823D01*
X175825312Y-55840384D01*
X175774517Y-55792411D01*
X175757722Y-55724590D01*
X175780259Y-55658455D01*
X175825313Y-55619415D01*
X175985146Y-55537977D01*
X176145661Y-55421356D01*
X176285956Y-55281061D01*
X176402577Y-55120546D01*
X176492651Y-54943764D01*
X176553963Y-54755068D01*
X176570892Y-54648178D01*
X176585000Y-54559109D01*
X176585000Y-54360690D01*
X176567389Y-54249500D01*
X176553963Y-54164732D01*
X176492651Y-53976036D01*
X176492649Y-53976033D01*
X176492649Y-53976031D01*
X176460380Y-53912700D01*
X176402577Y-53799254D01*
X176285956Y-53638739D01*
X176145661Y-53498444D01*
X175985146Y-53381823D01*
X175825312Y-53300384D01*
X175774517Y-53252411D01*
X175757722Y-53184590D01*
X175780259Y-53118455D01*
X175825313Y-53079415D01*
X175985146Y-52997977D01*
X176145661Y-52881356D01*
X176285956Y-52741061D01*
X176402577Y-52580546D01*
X176492651Y-52403764D01*
X176553963Y-52215068D01*
X176572937Y-52095268D01*
X176585000Y-52019109D01*
X176585000Y-51820690D01*
X176562183Y-51676633D01*
X176553963Y-51624732D01*
X176492651Y-51436036D01*
X176492649Y-51436033D01*
X176492649Y-51436031D01*
X176419238Y-51291954D01*
X176402577Y-51259254D01*
X176285956Y-51098739D01*
X176145661Y-50958444D01*
X175985146Y-50841823D01*
X175825312Y-50760384D01*
X175774517Y-50712411D01*
X175757722Y-50644590D01*
X175780259Y-50578455D01*
X175825313Y-50539415D01*
X175985146Y-50457977D01*
X176145661Y-50341356D01*
X176285956Y-50201061D01*
X176402577Y-50040546D01*
X176492651Y-49863764D01*
X176553963Y-49675068D01*
X176572762Y-49556373D01*
X176585000Y-49479109D01*
X176585000Y-49280690D01*
X176568070Y-49173806D01*
X176553963Y-49084732D01*
X176492651Y-48896036D01*
X176492649Y-48896033D01*
X176492649Y-48896031D01*
X176432117Y-48777231D01*
X176402577Y-48719254D01*
X176285956Y-48558739D01*
X176145661Y-48418444D01*
X175985146Y-48301823D01*
X175842363Y-48229072D01*
X175791567Y-48181097D01*
X175774772Y-48113276D01*
X175797309Y-48047142D01*
X175842364Y-48008102D01*
X175867364Y-47995364D01*
X176019246Y-47917977D01*
X176179761Y-47801356D01*
X176320056Y-47661061D01*
X176436677Y-47500546D01*
X176526751Y-47323764D01*
X176588063Y-47135068D01*
X176610565Y-46992993D01*
X176619100Y-46939109D01*
X176619100Y-46740690D01*
X176601850Y-46631782D01*
X176588063Y-46544732D01*
X176526751Y-46356036D01*
X176526749Y-46356033D01*
X176526749Y-46356031D01*
X176483189Y-46270540D01*
X176436677Y-46179254D01*
X176320056Y-46018739D01*
X176179761Y-45878444D01*
X176019246Y-45761823D01*
X175913702Y-45708046D01*
X175842468Y-45671750D01*
X175797196Y-45657040D01*
X175653768Y-45610437D01*
X175653762Y-45610436D01*
X175457809Y-45579400D01*
X175457804Y-45579400D01*
X173779396Y-45579400D01*
X173779391Y-45579400D01*
X173583437Y-45610436D01*
X173583435Y-45610436D01*
X173583432Y-45610437D01*
X173489084Y-45641093D01*
X173394731Y-45671750D01*
X173217952Y-45761824D01*
X173217949Y-45761826D01*
X173148350Y-45812393D01*
X173057439Y-45878444D01*
X173057437Y-45878446D01*
X173057436Y-45878446D01*
X172917146Y-46018736D01*
X172917146Y-46018737D01*
X172917144Y-46018739D01*
X172903616Y-46037359D01*
X172800526Y-46179249D01*
X172800524Y-46179252D01*
X172710450Y-46356031D01*
X172679793Y-46450384D01*
X172649137Y-46544732D01*
X172649136Y-46544735D01*
X172649136Y-46544737D01*
X172618100Y-46740690D01*
X172618100Y-46939109D01*
X172644693Y-47107007D01*
X172649137Y-47135068D01*
X172681339Y-47234174D01*
X172710450Y-47323768D01*
X172731880Y-47365826D01*
X172800523Y-47500546D01*
X172917144Y-47661061D01*
X173057439Y-47801356D01*
X173217954Y-47917977D01*
X173360736Y-47990727D01*
X173411532Y-48038701D01*
X173428327Y-48106522D01*
X173405790Y-48172657D01*
X173360736Y-48211697D01*
X173183852Y-48301824D01*
X173183849Y-48301826D01*
X173111727Y-48354226D01*
X173023339Y-48418444D01*
X173023337Y-48418446D01*
X173023336Y-48418446D01*
X172883046Y-48558736D01*
X172883046Y-48558737D01*
X172883044Y-48558739D01*
X172828977Y-48633155D01*
X172766426Y-48719249D01*
X172766424Y-48719252D01*
X172676350Y-48896031D01*
X172667685Y-48922700D01*
X172615037Y-49084732D01*
X172615036Y-49084735D01*
X172615036Y-49084737D01*
X172584000Y-49280690D01*
X159845145Y-49280690D01*
X159824442Y-49203427D01*
X159781991Y-49129900D01*
X161374510Y-49129900D01*
X161374509Y-49129899D01*
X161367374Y-49084850D01*
X161306090Y-48896233D01*
X161306088Y-48896227D01*
X161216045Y-48719512D01*
X161099479Y-48559071D01*
X161099475Y-48559066D01*
X160959233Y-48418824D01*
X160959228Y-48418820D01*
X160798785Y-48302252D01*
X160630162Y-48216333D01*
X160579367Y-48168359D01*
X160562572Y-48100538D01*
X160585110Y-48034403D01*
X160630164Y-47995364D01*
X160683443Y-47968217D01*
X160782046Y-47917977D01*
X160942561Y-47801356D01*
X161082856Y-47661061D01*
X161199477Y-47500546D01*
X161289551Y-47323764D01*
X161350863Y-47135068D01*
X161373365Y-46992993D01*
X161381900Y-46939109D01*
X161381900Y-46740690D01*
X161364650Y-46631782D01*
X161350863Y-46544732D01*
X161289551Y-46356036D01*
X161289549Y-46356033D01*
X161289549Y-46356031D01*
X161245989Y-46270540D01*
X161199477Y-46179254D01*
X161082856Y-46018739D01*
X160942561Y-45878444D01*
X160782046Y-45761823D01*
X160676502Y-45708046D01*
X160605268Y-45671750D01*
X160559996Y-45657040D01*
X160416568Y-45610437D01*
X160416562Y-45610436D01*
X160220609Y-45579400D01*
X160220604Y-45579400D01*
X158542196Y-45579400D01*
X158542191Y-45579400D01*
X158346237Y-45610436D01*
X158346235Y-45610436D01*
X158346232Y-45610437D01*
X158251884Y-45641093D01*
X158157531Y-45671750D01*
X157980752Y-45761824D01*
X157980749Y-45761826D01*
X157911150Y-45812393D01*
X157820239Y-45878444D01*
X157820237Y-45878446D01*
X157820236Y-45878446D01*
X157679946Y-46018736D01*
X157679946Y-46018737D01*
X157679944Y-46018739D01*
X157666416Y-46037359D01*
X157563326Y-46179249D01*
X157563324Y-46179252D01*
X157473250Y-46356031D01*
X157442593Y-46450384D01*
X157411937Y-46544732D01*
X157411936Y-46544735D01*
X157411936Y-46544737D01*
X157380900Y-46740690D01*
X157380900Y-46939109D01*
X157407493Y-47107007D01*
X157411937Y-47135068D01*
X157444139Y-47234174D01*
X157473250Y-47323768D01*
X157494680Y-47365826D01*
X157563323Y-47500546D01*
X157679944Y-47661061D01*
X157820239Y-47801356D01*
X157980754Y-47917977D01*
X158149637Y-48004026D01*
X158200433Y-48052000D01*
X158217228Y-48119821D01*
X158194691Y-48185956D01*
X158149638Y-48224995D01*
X157998014Y-48302252D01*
X157837571Y-48418820D01*
X157837566Y-48418824D01*
X157697324Y-48559066D01*
X157697320Y-48559071D01*
X157580754Y-48719512D01*
X157490711Y-48896227D01*
X157490709Y-48896233D01*
X157429425Y-49084850D01*
X157422290Y-49129899D01*
X157422290Y-49129900D01*
X159014809Y-49129900D01*
X158972358Y-49203427D01*
X158941200Y-49319708D01*
X158941200Y-49440092D01*
X158972358Y-49556373D01*
X159014809Y-49629900D01*
X157422290Y-49629900D01*
X157429425Y-49674949D01*
X157490709Y-49863566D01*
X157490711Y-49863572D01*
X157580754Y-50040287D01*
X157697320Y-50200728D01*
X157697324Y-50200733D01*
X157837566Y-50340975D01*
X157837571Y-50340979D01*
X157998012Y-50457545D01*
X158158137Y-50539134D01*
X158208933Y-50587109D01*
X158225728Y-50654930D01*
X158203190Y-50721065D01*
X158158137Y-50760104D01*
X157997752Y-50841824D01*
X157997749Y-50841826D01*
X157911655Y-50904377D01*
X157837239Y-50958444D01*
X157837237Y-50958446D01*
X157837236Y-50958446D01*
X157696944Y-51098738D01*
X157664059Y-51144000D01*
X157624546Y-51198386D01*
X157569218Y-51241051D01*
X157524229Y-51249500D01*
X157162729Y-51249500D01*
X157095690Y-51229815D01*
X157075048Y-51213181D01*
X155778921Y-49917052D01*
X155778920Y-49917051D01*
X155699169Y-49863764D01*
X155699168Y-49863763D01*
X155656000Y-49834919D01*
X155655988Y-49834912D01*
X155519417Y-49778343D01*
X155519407Y-49778340D01*
X155374420Y-49749500D01*
X155374418Y-49749500D01*
X137926082Y-49749500D01*
X137926080Y-49749500D01*
X137781092Y-49778340D01*
X137781082Y-49778343D01*
X137644511Y-49834912D01*
X137644504Y-49834916D01*
X137641236Y-49837100D01*
X137601331Y-49863764D01*
X137581527Y-49876996D01*
X137521581Y-49917050D01*
X137521580Y-49917051D01*
X135417050Y-52021580D01*
X135417044Y-52021588D01*
X135367812Y-52095268D01*
X135367813Y-52095269D01*
X135334921Y-52144496D01*
X135334914Y-52144508D01*
X135278342Y-52281086D01*
X135278340Y-52281092D01*
X135249500Y-52426079D01*
X135249500Y-56035018D01*
X135229815Y-56102057D01*
X135177011Y-56147812D01*
X135138107Y-56158376D01*
X135122200Y-56160001D01*
X134955668Y-56215185D01*
X134955663Y-56215187D01*
X134806342Y-56307289D01*
X134682289Y-56431342D01*
X134590187Y-56580663D01*
X134590186Y-56580666D01*
X134535001Y-56747203D01*
X134535001Y-56747204D01*
X134535000Y-56747204D01*
X134524500Y-56849983D01*
X134524500Y-58150001D01*
X134524501Y-58150018D01*
X134535000Y-58252796D01*
X134535001Y-58252799D01*
X134577808Y-58381980D01*
X134590186Y-58419334D01*
X134682288Y-58568656D01*
X134806344Y-58692712D01*
X134931186Y-58769715D01*
X134961558Y-58788448D01*
X135008283Y-58840396D01*
X135019506Y-58909358D01*
X134991663Y-58973441D01*
X134984144Y-58981668D01*
X134845271Y-59120541D01*
X134720379Y-59292442D01*
X134623904Y-59481782D01*
X134558242Y-59683870D01*
X134558242Y-59683873D01*
X134547769Y-59750000D01*
X135595854Y-59750000D01*
X135557370Y-59816657D01*
X135525000Y-59937465D01*
X135525000Y-60062535D01*
X135557370Y-60183343D01*
X135595854Y-60250000D01*
X134547769Y-60250000D01*
X134558242Y-60316126D01*
X134558242Y-60316129D01*
X134623904Y-60518217D01*
X134720379Y-60707557D01*
X134845272Y-60879459D01*
X134845276Y-60879464D01*
X134995535Y-61029723D01*
X134995540Y-61029727D01*
X135160218Y-61149372D01*
X135202884Y-61204701D01*
X135208863Y-61274315D01*
X135176258Y-61336110D01*
X135160218Y-61350008D01*
X134995214Y-61469890D01*
X134995209Y-61469894D01*
X134844890Y-61620213D01*
X134719951Y-61792179D01*
X134623444Y-61981585D01*
X134557753Y-62183760D01*
X134553670Y-62209542D01*
X134524500Y-62393713D01*
X134524500Y-62606287D01*
X134557754Y-62816243D01*
X134588227Y-62910030D01*
X134623444Y-63018414D01*
X134719951Y-63207820D01*
X134844890Y-63379786D01*
X134995209Y-63530105D01*
X134995214Y-63530109D01*
X135159793Y-63649682D01*
X135202459Y-63705011D01*
X135208438Y-63774625D01*
X135175833Y-63836420D01*
X135159793Y-63850318D01*
X134995214Y-63969890D01*
X134995209Y-63969894D01*
X134844890Y-64120213D01*
X134719951Y-64292179D01*
X134623444Y-64481585D01*
X134623443Y-64481587D01*
X134623443Y-64481588D01*
X134613999Y-64510655D01*
X134557753Y-64683760D01*
X134524500Y-64893713D01*
X134524500Y-65106286D01*
X134552100Y-65280550D01*
X134557754Y-65316243D01*
X134617460Y-65499999D01*
X134623444Y-65518414D01*
X134719951Y-65707820D01*
X134844890Y-65879786D01*
X134995213Y-66030109D01*
X135167179Y-66155048D01*
X135167181Y-66155049D01*
X135167184Y-66155051D01*
X135356588Y-66251557D01*
X135558757Y-66317246D01*
X135768713Y-66350500D01*
X135768714Y-66350500D01*
X136231286Y-66350500D01*
X136231287Y-66350500D01*
X136441243Y-66317246D01*
X136643412Y-66251557D01*
X136832816Y-66155051D01*
X136880529Y-66120386D01*
X137004786Y-66030109D01*
X137004788Y-66030106D01*
X137004792Y-66030104D01*
X137155104Y-65879792D01*
X137155106Y-65879788D01*
X137155109Y-65879786D01*
X137280048Y-65707820D01*
X137280047Y-65707820D01*
X137280051Y-65707816D01*
X137376557Y-65518412D01*
X137442246Y-65316243D01*
X137475500Y-65106287D01*
X137475500Y-64893713D01*
X137442246Y-64683757D01*
X137376557Y-64481588D01*
X137280051Y-64292184D01*
X137280049Y-64292181D01*
X137280048Y-64292179D01*
X137155109Y-64120213D01*
X137004792Y-63969896D01*
X136990142Y-63959252D01*
X136840204Y-63850316D01*
X136797540Y-63794989D01*
X136791561Y-63725376D01*
X136824166Y-63663580D01*
X136840199Y-63649686D01*
X137004792Y-63530104D01*
X137155104Y-63379792D01*
X137155106Y-63379788D01*
X137155109Y-63379786D01*
X137264086Y-63229789D01*
X137280051Y-63207816D01*
X137376557Y-63018412D01*
X137442246Y-62816243D01*
X137475500Y-62606287D01*
X137475500Y-62393713D01*
X137442246Y-62183757D01*
X137376557Y-61981588D01*
X137280051Y-61792184D01*
X137280049Y-61792181D01*
X137280048Y-61792179D01*
X137155109Y-61620213D01*
X137004790Y-61469894D01*
X137004785Y-61469890D01*
X136839781Y-61350008D01*
X136797115Y-61294678D01*
X136791136Y-61225065D01*
X136823741Y-61163270D01*
X136839781Y-61149371D01*
X137004466Y-61029721D01*
X137154723Y-60879464D01*
X137154727Y-60879459D01*
X137279620Y-60707557D01*
X137376095Y-60518217D01*
X137441757Y-60316129D01*
X137441757Y-60316126D01*
X137452231Y-60250000D01*
X136404146Y-60250000D01*
X136442630Y-60183343D01*
X136475000Y-60062535D01*
X136475000Y-59937465D01*
X136442630Y-59816657D01*
X136404146Y-59750000D01*
X137452231Y-59750000D01*
X137441757Y-59683873D01*
X137441757Y-59683870D01*
X137376095Y-59481782D01*
X137279620Y-59292442D01*
X137154727Y-59120540D01*
X137154723Y-59120535D01*
X137015856Y-58981668D01*
X136982371Y-58920345D01*
X136987355Y-58850653D01*
X137029227Y-58794720D01*
X137038441Y-58788448D01*
X137044331Y-58784814D01*
X137044334Y-58784814D01*
X137193656Y-58692712D01*
X137317712Y-58568656D01*
X137409814Y-58419334D01*
X137464999Y-58252797D01*
X137475500Y-58150009D01*
X137475499Y-56849992D01*
X137464999Y-56747203D01*
X137409814Y-56580666D01*
X137317712Y-56431344D01*
X137193656Y-56307288D01*
X137068052Y-56229815D01*
X137044336Y-56215187D01*
X137044331Y-56215185D01*
X137042862Y-56214698D01*
X136877797Y-56160001D01*
X136873965Y-56159609D01*
X136861894Y-56158376D01*
X136797203Y-56131978D01*
X136757053Y-56074796D01*
X136750500Y-56035018D01*
X136750500Y-52862229D01*
X136770185Y-52795190D01*
X136786819Y-52774548D01*
X138274548Y-51286819D01*
X138335871Y-51253334D01*
X138362229Y-51250500D01*
X147317044Y-51250500D01*
X147384083Y-51270185D01*
X147429838Y-51322989D01*
X147439782Y-51392147D01*
X147433226Y-51417833D01*
X147386908Y-51542017D01*
X147380501Y-51601616D01*
X147380501Y-51601623D01*
X147380500Y-51601635D01*
X147380500Y-52935370D01*
X147380501Y-52935376D01*
X147386908Y-52994983D01*
X147437202Y-53129828D01*
X147437206Y-53129835D01*
X147523452Y-53245044D01*
X147523455Y-53245047D01*
X147638664Y-53331293D01*
X147638671Y-53331297D01*
X147773517Y-53381591D01*
X147773516Y-53381591D01*
X147780444Y-53382335D01*
X147833127Y-53388000D01*
X149166872Y-53387999D01*
X149226483Y-53381591D01*
X149361331Y-53331296D01*
X149476546Y-53245046D01*
X149562796Y-53129831D01*
X149613091Y-52994983D01*
X149619500Y-52935373D01*
X149619499Y-51601628D01*
X149613091Y-51542017D01*
X149613091Y-51542016D01*
X149566774Y-51417833D01*
X149561790Y-51348141D01*
X149595275Y-51286818D01*
X149656599Y-51253334D01*
X149682956Y-51250500D01*
X153134882Y-51250500D01*
X153201921Y-51270185D01*
X153247676Y-51322989D01*
X153257620Y-51392147D01*
X153228595Y-51455703D01*
X153218420Y-51466137D01*
X153169136Y-51511064D01*
X153044104Y-51676633D01*
X152951625Y-51862355D01*
X152951622Y-51862361D01*
X152894847Y-52061908D01*
X152894846Y-52061911D01*
X152875704Y-52268499D01*
X152875704Y-52268500D01*
X152894846Y-52475088D01*
X152894847Y-52475091D01*
X152951622Y-52674638D01*
X152951625Y-52674644D01*
X153044104Y-52860366D01*
X153169136Y-53025935D01*
X153322459Y-53165707D01*
X153322461Y-53165709D01*
X153498854Y-53274927D01*
X153498860Y-53274930D01*
X153539844Y-53290807D01*
X153692322Y-53349877D01*
X153896263Y-53388000D01*
X153896265Y-53388000D01*
X154103735Y-53388000D01*
X154103737Y-53388000D01*
X154307678Y-53349877D01*
X154501142Y-53274929D01*
X154677540Y-53165708D01*
X154830865Y-53025933D01*
X154955896Y-52860366D01*
X155048375Y-52674643D01*
X155048375Y-52674640D01*
X155048377Y-52674638D01*
X155105152Y-52475091D01*
X155105153Y-52475088D01*
X155124296Y-52268500D01*
X155124296Y-52268499D01*
X155105153Y-52061911D01*
X155105152Y-52061908D01*
X155048377Y-51862361D01*
X155048374Y-51862355D01*
X155027627Y-51820690D01*
X154955896Y-51676634D01*
X154895911Y-51597202D01*
X154830863Y-51511064D01*
X154781580Y-51466137D01*
X154745298Y-51406426D01*
X154747059Y-51336578D01*
X154786303Y-51278771D01*
X154850570Y-51251356D01*
X154865118Y-51250500D01*
X154938270Y-51250500D01*
X155005309Y-51270185D01*
X155025951Y-51286819D01*
X156322080Y-52582948D01*
X156322084Y-52582951D01*
X156444998Y-52665080D01*
X156445011Y-52665087D01*
X156581582Y-52721656D01*
X156581587Y-52721658D01*
X156581591Y-52721658D01*
X156581592Y-52721659D01*
X156726579Y-52750500D01*
X156726582Y-52750500D01*
X156874417Y-52750500D01*
X157655021Y-52750500D01*
X157722060Y-52770185D01*
X157742702Y-52786819D01*
X157837239Y-52881356D01*
X157997754Y-52997977D01*
X158114035Y-53057224D01*
X158157586Y-53079415D01*
X158208382Y-53127390D01*
X158225177Y-53195211D01*
X158202640Y-53261346D01*
X158157586Y-53300385D01*
X157997752Y-53381824D01*
X157997749Y-53381826D01*
X157911655Y-53444377D01*
X157837239Y-53498444D01*
X157837237Y-53498446D01*
X157837236Y-53498446D01*
X157696946Y-53638736D01*
X157696946Y-53638737D01*
X157696944Y-53638739D01*
X157642877Y-53713155D01*
X157580326Y-53799249D01*
X157580324Y-53799252D01*
X157490250Y-53976031D01*
X157459593Y-54070384D01*
X157428937Y-54164732D01*
X157428936Y-54164735D01*
X157428936Y-54164737D01*
X157397900Y-54360690D01*
X157397900Y-54559109D01*
X157428936Y-54755062D01*
X157428937Y-54755068D01*
X157475540Y-54898496D01*
X157490250Y-54943768D01*
X157535591Y-55032754D01*
X157580323Y-55120546D01*
X157696944Y-55281061D01*
X157837239Y-55421356D01*
X157997754Y-55537977D01*
X158113987Y-55597200D01*
X158157586Y-55619415D01*
X158208382Y-55667390D01*
X158225177Y-55735211D01*
X158202640Y-55801346D01*
X158157586Y-55840385D01*
X157997752Y-55921824D01*
X157997749Y-55921826D01*
X157918799Y-55979187D01*
X157837239Y-56038444D01*
X157837237Y-56038446D01*
X157837236Y-56038446D01*
X157696942Y-56178740D01*
X157696938Y-56178745D01*
X157682742Y-56198285D01*
X157627412Y-56240951D01*
X157582424Y-56249400D01*
X155862129Y-56249400D01*
X155795090Y-56229715D01*
X155774448Y-56213081D01*
X153978421Y-54417052D01*
X153978414Y-54417046D01*
X153901408Y-54365593D01*
X153901408Y-54365594D01*
X153855491Y-54334913D01*
X153718917Y-54278343D01*
X153718907Y-54278340D01*
X153573920Y-54249500D01*
X153573918Y-54249500D01*
X148073917Y-54249500D01*
X147926082Y-54249500D01*
X147926080Y-54249500D01*
X147781092Y-54278340D01*
X147781082Y-54278343D01*
X147644511Y-54334912D01*
X147644498Y-54334919D01*
X147521584Y-54417048D01*
X147521580Y-54417051D01*
X140917048Y-61021583D01*
X140911607Y-61029727D01*
X140871356Y-61089969D01*
X140853136Y-61117237D01*
X140834916Y-61144504D01*
X140834912Y-61144511D01*
X140778343Y-61281082D01*
X140778340Y-61281092D01*
X140749500Y-61426079D01*
X140749500Y-64637770D01*
X140729815Y-64704809D01*
X140713181Y-64725451D01*
X137725451Y-67713181D01*
X137664128Y-67746666D01*
X137637770Y-67749500D01*
X95862230Y-67749500D01*
X95795191Y-67729815D01*
X95774549Y-67713181D01*
X91286819Y-63225451D01*
X91253334Y-63164128D01*
X91250500Y-63137770D01*
X91250500Y-60907098D01*
X91270185Y-60840059D01*
X91290962Y-60815461D01*
X91314182Y-60794293D01*
X91342740Y-60768259D01*
X91469558Y-60600325D01*
X91563359Y-60411947D01*
X91620948Y-60209542D01*
X91640365Y-60000000D01*
X91620948Y-59790458D01*
X91563359Y-59588053D01*
X91469558Y-59399675D01*
X91342740Y-59231741D01*
X91187223Y-59089969D01*
X91187221Y-59089967D01*
X91008307Y-58979188D01*
X91008301Y-58979185D01*
X90825868Y-58908511D01*
X90812076Y-58903168D01*
X90605220Y-58864500D01*
X90394780Y-58864500D01*
X90187924Y-58903168D01*
X90187921Y-58903168D01*
X90187921Y-58903169D01*
X89991698Y-58979185D01*
X89991692Y-58979188D01*
X89812778Y-59089967D01*
X89812776Y-59089969D01*
X89657261Y-59231739D01*
X89530442Y-59399674D01*
X89436642Y-59588049D01*
X89379051Y-59790462D01*
X89359635Y-59999999D01*
X83500500Y-59999999D01*
X83500500Y-56243713D01*
X86149500Y-56243713D01*
X86149500Y-56756286D01*
X86164341Y-56849992D01*
X86182754Y-56966243D01*
X86226458Y-57100750D01*
X86248444Y-57168414D01*
X86344951Y-57357820D01*
X86469890Y-57529786D01*
X86620213Y-57680109D01*
X86792179Y-57805048D01*
X86792181Y-57805049D01*
X86792184Y-57805051D01*
X86981588Y-57901557D01*
X87183757Y-57967246D01*
X87393713Y-58000500D01*
X87393714Y-58000500D01*
X87606286Y-58000500D01*
X87606287Y-58000500D01*
X87816243Y-57967246D01*
X88018412Y-57901557D01*
X88207816Y-57805051D01*
X88322596Y-57721659D01*
X88379784Y-57680110D01*
X88379784Y-57680109D01*
X88379792Y-57680104D01*
X88518604Y-57541291D01*
X88579923Y-57507809D01*
X88649615Y-57512793D01*
X88705549Y-57554664D01*
X88711821Y-57563878D01*
X88715185Y-57569333D01*
X88715186Y-57569334D01*
X88807288Y-57718656D01*
X88931344Y-57842712D01*
X89080666Y-57934814D01*
X89247203Y-57989999D01*
X89349991Y-58000500D01*
X90650008Y-58000499D01*
X90752797Y-57989999D01*
X90919334Y-57934814D01*
X91068656Y-57842712D01*
X91192712Y-57718656D01*
X91284814Y-57569334D01*
X91307789Y-57499999D01*
X107394785Y-57499999D01*
X107394785Y-57500000D01*
X107413602Y-57703082D01*
X107469417Y-57899247D01*
X107469422Y-57899260D01*
X107560327Y-58081821D01*
X107683237Y-58244581D01*
X107833958Y-58381980D01*
X107833960Y-58381982D01*
X107933141Y-58443392D01*
X108007363Y-58489348D01*
X108197544Y-58563024D01*
X108398024Y-58600500D01*
X108398026Y-58600500D01*
X108601974Y-58600500D01*
X108601976Y-58600500D01*
X108802456Y-58563024D01*
X108992637Y-58489348D01*
X109166041Y-58381981D01*
X109307750Y-58252796D01*
X109316762Y-58244581D01*
X109328255Y-58229363D01*
X109401046Y-58132970D01*
X109457155Y-58091335D01*
X109526867Y-58086644D01*
X109588049Y-58120386D01*
X109598951Y-58132967D01*
X109611827Y-58150018D01*
X109683237Y-58244581D01*
X109833958Y-58381980D01*
X109833960Y-58381982D01*
X109933141Y-58443392D01*
X110007363Y-58489348D01*
X110197544Y-58563024D01*
X110398024Y-58600500D01*
X110398026Y-58600500D01*
X110601974Y-58600500D01*
X110601976Y-58600500D01*
X110802456Y-58563024D01*
X110992637Y-58489348D01*
X111166041Y-58381981D01*
X111307750Y-58252796D01*
X111316762Y-58244581D01*
X111316764Y-58244579D01*
X111439673Y-58081821D01*
X111530582Y-57899250D01*
X111586397Y-57703083D01*
X111605215Y-57500000D01*
X111586397Y-57296917D01*
X111530582Y-57100750D01*
X111529762Y-57099104D01*
X111463604Y-56966239D01*
X111439673Y-56918179D01*
X111316764Y-56755421D01*
X111316762Y-56755418D01*
X111166041Y-56618019D01*
X111166039Y-56618017D01*
X110992642Y-56510655D01*
X110992635Y-56510651D01*
X110897546Y-56473814D01*
X110802456Y-56436976D01*
X110601976Y-56399500D01*
X110398024Y-56399500D01*
X110197544Y-56436976D01*
X110197541Y-56436976D01*
X110197541Y-56436977D01*
X110007364Y-56510651D01*
X110007357Y-56510655D01*
X109833960Y-56618017D01*
X109833958Y-56618019D01*
X109683237Y-56755419D01*
X109598954Y-56867028D01*
X109542845Y-56908664D01*
X109473133Y-56913355D01*
X109411951Y-56879613D01*
X109401046Y-56867028D01*
X109363186Y-56816894D01*
X109316764Y-56755421D01*
X109307750Y-56747204D01*
X109166041Y-56618019D01*
X109166039Y-56618017D01*
X108992642Y-56510655D01*
X108992635Y-56510651D01*
X108897546Y-56473814D01*
X108802456Y-56436976D01*
X108601976Y-56399500D01*
X108398024Y-56399500D01*
X108197544Y-56436976D01*
X108197541Y-56436976D01*
X108197541Y-56436977D01*
X108007364Y-56510651D01*
X108007357Y-56510655D01*
X107833960Y-56618017D01*
X107833958Y-56618019D01*
X107683237Y-56755418D01*
X107560327Y-56918178D01*
X107469422Y-57100739D01*
X107469417Y-57100752D01*
X107413602Y-57296917D01*
X107394785Y-57499999D01*
X91307789Y-57499999D01*
X91339999Y-57402797D01*
X91350500Y-57300009D01*
X91350499Y-55699992D01*
X91339999Y-55597203D01*
X91284814Y-55430666D01*
X91192712Y-55281344D01*
X91068656Y-55157288D01*
X90919334Y-55065186D01*
X90752797Y-55010001D01*
X90752795Y-55010000D01*
X90650010Y-54999500D01*
X89349998Y-54999500D01*
X89349981Y-54999501D01*
X89247203Y-55010000D01*
X89247200Y-55010001D01*
X89080668Y-55065185D01*
X89080663Y-55065187D01*
X88931342Y-55157289D01*
X88807289Y-55281342D01*
X88711821Y-55436121D01*
X88659873Y-55482845D01*
X88590910Y-55494068D01*
X88526828Y-55466224D01*
X88518601Y-55458705D01*
X88379786Y-55319890D01*
X88207820Y-55194951D01*
X88018414Y-55098444D01*
X88018413Y-55098443D01*
X88018412Y-55098443D01*
X87816243Y-55032754D01*
X87816241Y-55032753D01*
X87816240Y-55032753D01*
X87654957Y-55007208D01*
X87606287Y-54999500D01*
X87393713Y-54999500D01*
X87345042Y-55007208D01*
X87183760Y-55032753D01*
X86981585Y-55098444D01*
X86792179Y-55194951D01*
X86620213Y-55319890D01*
X86469890Y-55470213D01*
X86344951Y-55642179D01*
X86248444Y-55831585D01*
X86182753Y-56033760D01*
X86149500Y-56243713D01*
X83500500Y-56243713D01*
X83500500Y-47043753D01*
X130400000Y-47043753D01*
X130400000Y-47050000D01*
X131316988Y-47050000D01*
X131284075Y-47107007D01*
X131250000Y-47234174D01*
X131250000Y-47365826D01*
X131284075Y-47492993D01*
X131316988Y-47550000D01*
X130400000Y-47550000D01*
X130400000Y-47556246D01*
X130433242Y-47766127D01*
X130433242Y-47766130D01*
X130498904Y-47968217D01*
X130595379Y-48157557D01*
X130720272Y-48329459D01*
X130720276Y-48329464D01*
X130870535Y-48479723D01*
X130870540Y-48479727D01*
X131042442Y-48604620D01*
X131231782Y-48701095D01*
X131433871Y-48766757D01*
X131500000Y-48777231D01*
X131500000Y-47733012D01*
X131557007Y-47765925D01*
X131684174Y-47800000D01*
X131815826Y-47800000D01*
X131942993Y-47765925D01*
X132000000Y-47733012D01*
X132000000Y-48777230D01*
X132066126Y-48766757D01*
X132066129Y-48766757D01*
X132268217Y-48701095D01*
X132457557Y-48604620D01*
X132629458Y-48479728D01*
X132768330Y-48340856D01*
X132829653Y-48307371D01*
X132899345Y-48312355D01*
X132955279Y-48354226D01*
X132961551Y-48363440D01*
X132965185Y-48369331D01*
X132965186Y-48369334D01*
X133057288Y-48518656D01*
X133181344Y-48642712D01*
X133330666Y-48734814D01*
X133497203Y-48789999D01*
X133599991Y-48800500D01*
X134900008Y-48800499D01*
X135002797Y-48789999D01*
X135169334Y-48734814D01*
X135318656Y-48642712D01*
X135442712Y-48518656D01*
X135534814Y-48369334D01*
X135589999Y-48202797D01*
X135600500Y-48100009D01*
X135600499Y-46499992D01*
X135589999Y-46397203D01*
X135534814Y-46230666D01*
X135442712Y-46081344D01*
X135318656Y-45957288D01*
X135169334Y-45865186D01*
X135002797Y-45810001D01*
X135002795Y-45810000D01*
X134900010Y-45799500D01*
X133599998Y-45799500D01*
X133599981Y-45799501D01*
X133497203Y-45810000D01*
X133497200Y-45810001D01*
X133330668Y-45865185D01*
X133330663Y-45865187D01*
X133181342Y-45957289D01*
X133057289Y-46081342D01*
X132961551Y-46236559D01*
X132909603Y-46283283D01*
X132840640Y-46294506D01*
X132776558Y-46266662D01*
X132768331Y-46259143D01*
X132629464Y-46120276D01*
X132629459Y-46120272D01*
X132457557Y-45995379D01*
X132268215Y-45898903D01*
X132066124Y-45833241D01*
X132000000Y-45822768D01*
X132000000Y-46866988D01*
X131942993Y-46834075D01*
X131815826Y-46800000D01*
X131684174Y-46800000D01*
X131557007Y-46834075D01*
X131500000Y-46866988D01*
X131500000Y-45822768D01*
X131499999Y-45822768D01*
X131433875Y-45833241D01*
X131231784Y-45898903D01*
X131042442Y-45995379D01*
X130870540Y-46120272D01*
X130870535Y-46120276D01*
X130720276Y-46270535D01*
X130720272Y-46270540D01*
X130595379Y-46442442D01*
X130498904Y-46631782D01*
X130433242Y-46833869D01*
X130433242Y-46833872D01*
X130400000Y-47043753D01*
X83500500Y-47043753D01*
X83500500Y-45377105D01*
X83520185Y-45310066D01*
X83572989Y-45264311D01*
X83642147Y-45254367D01*
X83705703Y-45283392D01*
X83727599Y-45308211D01*
X83741475Y-45328977D01*
X83750482Y-45342457D01*
X83940672Y-45559327D01*
X84157547Y-45749521D01*
X84330651Y-45865185D01*
X84397389Y-45909778D01*
X84656098Y-46037359D01*
X84929247Y-46130081D01*
X85212161Y-46186356D01*
X85500000Y-46205222D01*
X85787839Y-46186356D01*
X86070753Y-46130081D01*
X86343902Y-46037359D01*
X86602611Y-45909778D01*
X86842454Y-45749520D01*
X87059327Y-45559327D01*
X87249520Y-45342454D01*
X87409778Y-45102611D01*
X87537359Y-44843902D01*
X87575515Y-44731499D01*
X147376206Y-44731499D01*
X147376206Y-44731500D01*
X147395340Y-44937992D01*
X147452094Y-45137464D01*
X147544529Y-45323098D01*
X147544532Y-45323102D01*
X147548968Y-45328976D01*
X147548970Y-45328976D01*
X148135000Y-44742946D01*
X148135000Y-44779553D01*
X148159874Y-44872385D01*
X148207927Y-44955616D01*
X148275884Y-45023573D01*
X148359115Y-45071626D01*
X148451947Y-45096500D01*
X148488553Y-45096500D01*
X147905509Y-45679541D01*
X147905510Y-45679542D01*
X147999078Y-45737477D01*
X147999084Y-45737479D01*
X148192460Y-45812393D01*
X148396311Y-45850500D01*
X148603689Y-45850500D01*
X148807538Y-45812393D01*
X148807539Y-45812393D01*
X149000917Y-45737479D01*
X149000918Y-45737478D01*
X149094489Y-45679541D01*
X148511448Y-45096500D01*
X148548053Y-45096500D01*
X148640885Y-45071626D01*
X148724116Y-45023573D01*
X148792073Y-44955616D01*
X148840126Y-44872385D01*
X148865000Y-44779553D01*
X148865000Y-44742948D01*
X149451029Y-45328977D01*
X149451030Y-45328976D01*
X149455465Y-45323106D01*
X149547905Y-45137464D01*
X149604659Y-44937992D01*
X149623794Y-44731500D01*
X149623794Y-44731499D01*
X149604659Y-44525007D01*
X149547905Y-44325535D01*
X149455467Y-44139897D01*
X149451029Y-44134022D01*
X148865000Y-44720051D01*
X148865000Y-44683447D01*
X148840126Y-44590615D01*
X148792073Y-44507384D01*
X148724116Y-44439427D01*
X148640885Y-44391374D01*
X148548053Y-44366500D01*
X148511447Y-44366500D01*
X148813311Y-44064635D01*
X152880500Y-44064635D01*
X152880500Y-45398370D01*
X152880501Y-45398376D01*
X152886908Y-45457983D01*
X152937202Y-45592828D01*
X152937206Y-45592835D01*
X153023452Y-45708044D01*
X153023455Y-45708047D01*
X153138664Y-45794293D01*
X153138671Y-45794297D01*
X153273517Y-45844591D01*
X153273516Y-45844591D01*
X153280444Y-45845335D01*
X153333127Y-45851000D01*
X154666872Y-45850999D01*
X154726483Y-45844591D01*
X154861331Y-45794296D01*
X154976546Y-45708046D01*
X155062796Y-45592831D01*
X155113091Y-45457983D01*
X155119500Y-45398373D01*
X155119499Y-44064628D01*
X155113091Y-44005017D01*
X155062796Y-43870169D01*
X155062795Y-43870168D01*
X155062793Y-43870164D01*
X154976547Y-43754955D01*
X154976544Y-43754952D01*
X154861335Y-43668706D01*
X154861328Y-43668702D01*
X154726482Y-43618408D01*
X154726483Y-43618408D01*
X154666883Y-43612001D01*
X154666881Y-43612000D01*
X154666873Y-43612000D01*
X154666864Y-43612000D01*
X153333129Y-43612000D01*
X153333123Y-43612001D01*
X153273516Y-43618408D01*
X153138671Y-43668702D01*
X153138664Y-43668706D01*
X153023455Y-43754952D01*
X153023452Y-43754955D01*
X152937206Y-43870164D01*
X152937202Y-43870171D01*
X152886908Y-44005017D01*
X152880501Y-44064616D01*
X152880501Y-44064623D01*
X152880500Y-44064635D01*
X148813311Y-44064635D01*
X149094489Y-43783457D01*
X149094488Y-43783456D01*
X149000921Y-43725523D01*
X149000915Y-43725520D01*
X148807539Y-43650606D01*
X148603689Y-43612500D01*
X148396311Y-43612500D01*
X148192461Y-43650606D01*
X148192460Y-43650606D01*
X147999084Y-43725520D01*
X147999081Y-43725521D01*
X147905509Y-43783457D01*
X148488554Y-44366500D01*
X148451947Y-44366500D01*
X148359115Y-44391374D01*
X148275884Y-44439427D01*
X148207927Y-44507384D01*
X148159874Y-44590615D01*
X148135000Y-44683447D01*
X148135000Y-44720052D01*
X147548969Y-44134021D01*
X147548968Y-44134021D01*
X147544533Y-44139894D01*
X147452094Y-44325535D01*
X147395340Y-44525007D01*
X147376206Y-44731499D01*
X87575515Y-44731499D01*
X87630081Y-44570753D01*
X87686356Y-44287839D01*
X87705222Y-44000000D01*
X87686356Y-43712161D01*
X87630081Y-43429247D01*
X87537359Y-43156098D01*
X87409778Y-42897389D01*
X87348458Y-42805617D01*
X87249521Y-42657547D01*
X87059327Y-42440672D01*
X86842455Y-42250480D01*
X86808215Y-42227602D01*
X86763410Y-42173990D01*
X86754703Y-42104665D01*
X86784858Y-42041637D01*
X86844301Y-42004918D01*
X86877106Y-42000500D01*
X177875500Y-42000500D01*
X177942539Y-42020185D01*
G37*
G04 #@! TD.AperFunction*
M02*
