G04 #@! TF.GenerationSoftware,KiCad,Pcbnew,8.0.9*
G04 #@! TF.CreationDate,2025-05-02T01:54:32-05:00*
G04 #@! TF.ProjectId,GSR sensor,47535220-7365-46e7-936f-722e6b696361,rev?*
G04 #@! TF.SameCoordinates,Original*
G04 #@! TF.FileFunction,Legend,Top*
G04 #@! TF.FilePolarity,Positive*
%FSLAX46Y46*%
G04 Gerber Fmt 4.6, Leading zero omitted, Abs format (unit mm)*
G04 Created by KiCad (PCBNEW 8.0.9) date 2025-05-02 01:54:32*
%MOMM*%
%LPD*%
G01*
G04 APERTURE LIST*
G04 Aperture macros list*
%AMRoundRect*
0 Rectangle with rounded corners*
0 $1 Rounding radius*
0 $2 $3 $4 $5 $6 $7 $8 $9 X,Y pos of 4 corners*
0 Add a 4 corners polygon primitive as box body*
4,1,4,$2,$3,$4,$5,$6,$7,$8,$9,$2,$3,0*
0 Add four circle primitives for the rounded corners*
1,1,$1+$1,$2,$3*
1,1,$1+$1,$4,$5*
1,1,$1+$1,$6,$7*
1,1,$1+$1,$8,$9*
0 Add four rect primitives between the rounded corners*
20,1,$1+$1,$2,$3,$4,$5,0*
20,1,$1+$1,$4,$5,$6,$7,0*
20,1,$1+$1,$6,$7,$8,$9,0*
20,1,$1+$1,$8,$9,$2,$3,0*%
G04 Aperture macros list end*
%ADD10C,0.100000*%
%ADD11C,0.150000*%
%ADD12C,0.098425*%
%ADD13C,0.200000*%
%ADD14C,0.127000*%
%ADD15C,0.120000*%
%ADD16C,1.442000*%
%ADD17RoundRect,0.102000X0.619000X-0.619000X0.619000X0.619000X-0.619000X0.619000X-0.619000X-0.619000X0*%
%ADD18RoundRect,0.102000X-0.619000X0.619000X-0.619000X-0.619000X0.619000X-0.619000X0.619000X0.619000X0*%
%ADD19RoundRect,0.102000X-0.750000X0.625000X-0.750000X-0.625000X0.750000X-0.625000X0.750000X0.625000X0*%
%ADD20RoundRect,0.102000X-0.910000X0.605000X-0.910000X-0.605000X0.910000X-0.605000X0.910000X0.605000X0*%
%ADD21O,3.101600X1.621600*%
%ADD22C,1.200000*%
%ADD23RoundRect,0.250000X0.600000X0.750000X-0.600000X0.750000X-0.600000X-0.750000X0.600000X-0.750000X0*%
%ADD24O,1.700000X2.000000*%
%ADD25RoundRect,0.100500X-0.661500X-0.301500X0.661500X-0.301500X0.661500X0.301500X-0.661500X0.301500X0*%
%ADD26RoundRect,0.250000X-0.725000X0.600000X-0.725000X-0.600000X0.725000X-0.600000X0.725000X0.600000X0*%
%ADD27O,1.950000X1.700000*%
%ADD28RoundRect,0.102000X-0.605000X-0.910000X0.605000X-0.910000X0.605000X0.910000X-0.605000X0.910000X0*%
G04 APERTURE END LIST*
D10*
X120280074Y-70872419D02*
X119803884Y-70872419D01*
X119803884Y-70872419D02*
X119803884Y-69872419D01*
X121041979Y-70205752D02*
X121041979Y-70872419D01*
X120613408Y-70205752D02*
X120613408Y-70729561D01*
X120613408Y-70729561D02*
X120661027Y-70824800D01*
X120661027Y-70824800D02*
X120756265Y-70872419D01*
X120756265Y-70872419D02*
X120899122Y-70872419D01*
X120899122Y-70872419D02*
X120994360Y-70824800D01*
X120994360Y-70824800D02*
X121041979Y-70777180D01*
X121518170Y-70872419D02*
X121518170Y-70205752D01*
X121518170Y-69872419D02*
X121470551Y-69920038D01*
X121470551Y-69920038D02*
X121518170Y-69967657D01*
X121518170Y-69967657D02*
X121565789Y-69920038D01*
X121565789Y-69920038D02*
X121518170Y-69872419D01*
X121518170Y-69872419D02*
X121518170Y-69967657D01*
X121946741Y-70824800D02*
X122041979Y-70872419D01*
X122041979Y-70872419D02*
X122232455Y-70872419D01*
X122232455Y-70872419D02*
X122327693Y-70824800D01*
X122327693Y-70824800D02*
X122375312Y-70729561D01*
X122375312Y-70729561D02*
X122375312Y-70681942D01*
X122375312Y-70681942D02*
X122327693Y-70586704D01*
X122327693Y-70586704D02*
X122232455Y-70539085D01*
X122232455Y-70539085D02*
X122089598Y-70539085D01*
X122089598Y-70539085D02*
X121994360Y-70491466D01*
X121994360Y-70491466D02*
X121946741Y-70396228D01*
X121946741Y-70396228D02*
X121946741Y-70348609D01*
X121946741Y-70348609D02*
X121994360Y-70253371D01*
X121994360Y-70253371D02*
X122089598Y-70205752D01*
X122089598Y-70205752D02*
X122232455Y-70205752D01*
X122232455Y-70205752D02*
X122327693Y-70253371D01*
X123518170Y-70586704D02*
X123994360Y-70586704D01*
X123422932Y-70872419D02*
X123756265Y-69872419D01*
X123756265Y-69872419D02*
X124089598Y-70872419D01*
X124422932Y-70872419D02*
X124422932Y-70205752D01*
X124422932Y-70396228D02*
X124470551Y-70300990D01*
X124470551Y-70300990D02*
X124518170Y-70253371D01*
X124518170Y-70253371D02*
X124613408Y-70205752D01*
X124613408Y-70205752D02*
X124708646Y-70205752D01*
X125041980Y-70872419D02*
X125041980Y-70205752D01*
X125041980Y-69872419D02*
X124994361Y-69920038D01*
X124994361Y-69920038D02*
X125041980Y-69967657D01*
X125041980Y-69967657D02*
X125089599Y-69920038D01*
X125089599Y-69920038D02*
X125041980Y-69872419D01*
X125041980Y-69872419D02*
X125041980Y-69967657D01*
X125470551Y-70824800D02*
X125565789Y-70872419D01*
X125565789Y-70872419D02*
X125756265Y-70872419D01*
X125756265Y-70872419D02*
X125851503Y-70824800D01*
X125851503Y-70824800D02*
X125899122Y-70729561D01*
X125899122Y-70729561D02*
X125899122Y-70681942D01*
X125899122Y-70681942D02*
X125851503Y-70586704D01*
X125851503Y-70586704D02*
X125756265Y-70539085D01*
X125756265Y-70539085D02*
X125613408Y-70539085D01*
X125613408Y-70539085D02*
X125518170Y-70491466D01*
X125518170Y-70491466D02*
X125470551Y-70396228D01*
X125470551Y-70396228D02*
X125470551Y-70348609D01*
X125470551Y-70348609D02*
X125518170Y-70253371D01*
X125518170Y-70253371D02*
X125613408Y-70205752D01*
X125613408Y-70205752D02*
X125756265Y-70205752D01*
X125756265Y-70205752D02*
X125851503Y-70253371D01*
X126184837Y-70205752D02*
X126565789Y-70205752D01*
X126327694Y-69872419D02*
X126327694Y-70729561D01*
X126327694Y-70729561D02*
X126375313Y-70824800D01*
X126375313Y-70824800D02*
X126470551Y-70872419D01*
X126470551Y-70872419D02*
X126565789Y-70872419D01*
X126899123Y-70872419D02*
X126899123Y-70205752D01*
X126899123Y-69872419D02*
X126851504Y-69920038D01*
X126851504Y-69920038D02*
X126899123Y-69967657D01*
X126899123Y-69967657D02*
X126946742Y-69920038D01*
X126946742Y-69920038D02*
X126899123Y-69872419D01*
X126899123Y-69872419D02*
X126899123Y-69967657D01*
X127280075Y-70205752D02*
X127803884Y-70205752D01*
X127803884Y-70205752D02*
X127280075Y-70872419D01*
X127280075Y-70872419D02*
X127803884Y-70872419D01*
X128613408Y-70872419D02*
X128613408Y-70348609D01*
X128613408Y-70348609D02*
X128565789Y-70253371D01*
X128565789Y-70253371D02*
X128470551Y-70205752D01*
X128470551Y-70205752D02*
X128280075Y-70205752D01*
X128280075Y-70205752D02*
X128184837Y-70253371D01*
X128613408Y-70824800D02*
X128518170Y-70872419D01*
X128518170Y-70872419D02*
X128280075Y-70872419D01*
X128280075Y-70872419D02*
X128184837Y-70824800D01*
X128184837Y-70824800D02*
X128137218Y-70729561D01*
X128137218Y-70729561D02*
X128137218Y-70634323D01*
X128137218Y-70634323D02*
X128184837Y-70539085D01*
X128184837Y-70539085D02*
X128280075Y-70491466D01*
X128280075Y-70491466D02*
X128518170Y-70491466D01*
X128518170Y-70491466D02*
X128613408Y-70443847D01*
X129089599Y-70872419D02*
X129089599Y-69872419D01*
X129089599Y-70253371D02*
X129184837Y-70205752D01*
X129184837Y-70205752D02*
X129375313Y-70205752D01*
X129375313Y-70205752D02*
X129470551Y-70253371D01*
X129470551Y-70253371D02*
X129518170Y-70300990D01*
X129518170Y-70300990D02*
X129565789Y-70396228D01*
X129565789Y-70396228D02*
X129565789Y-70681942D01*
X129565789Y-70681942D02*
X129518170Y-70777180D01*
X129518170Y-70777180D02*
X129470551Y-70824800D01*
X129470551Y-70824800D02*
X129375313Y-70872419D01*
X129375313Y-70872419D02*
X129184837Y-70872419D01*
X129184837Y-70872419D02*
X129089599Y-70824800D01*
X130422932Y-70872419D02*
X130422932Y-70348609D01*
X130422932Y-70348609D02*
X130375313Y-70253371D01*
X130375313Y-70253371D02*
X130280075Y-70205752D01*
X130280075Y-70205752D02*
X130089599Y-70205752D01*
X130089599Y-70205752D02*
X129994361Y-70253371D01*
X130422932Y-70824800D02*
X130327694Y-70872419D01*
X130327694Y-70872419D02*
X130089599Y-70872419D01*
X130089599Y-70872419D02*
X129994361Y-70824800D01*
X129994361Y-70824800D02*
X129946742Y-70729561D01*
X129946742Y-70729561D02*
X129946742Y-70634323D01*
X129946742Y-70634323D02*
X129994361Y-70539085D01*
X129994361Y-70539085D02*
X130089599Y-70491466D01*
X130089599Y-70491466D02*
X130327694Y-70491466D01*
X130327694Y-70491466D02*
X130422932Y-70443847D01*
X131041980Y-70872419D02*
X130946742Y-70824800D01*
X130946742Y-70824800D02*
X130899123Y-70729561D01*
X130899123Y-70729561D02*
X130899123Y-69872419D01*
X132137219Y-69967657D02*
X132184838Y-69920038D01*
X132184838Y-69920038D02*
X132280076Y-69872419D01*
X132280076Y-69872419D02*
X132518171Y-69872419D01*
X132518171Y-69872419D02*
X132613409Y-69920038D01*
X132613409Y-69920038D02*
X132661028Y-69967657D01*
X132661028Y-69967657D02*
X132708647Y-70062895D01*
X132708647Y-70062895D02*
X132708647Y-70158133D01*
X132708647Y-70158133D02*
X132661028Y-70300990D01*
X132661028Y-70300990D02*
X132089600Y-70872419D01*
X132089600Y-70872419D02*
X132708647Y-70872419D01*
X133327695Y-69872419D02*
X133422933Y-69872419D01*
X133422933Y-69872419D02*
X133518171Y-69920038D01*
X133518171Y-69920038D02*
X133565790Y-69967657D01*
X133565790Y-69967657D02*
X133613409Y-70062895D01*
X133613409Y-70062895D02*
X133661028Y-70253371D01*
X133661028Y-70253371D02*
X133661028Y-70491466D01*
X133661028Y-70491466D02*
X133613409Y-70681942D01*
X133613409Y-70681942D02*
X133565790Y-70777180D01*
X133565790Y-70777180D02*
X133518171Y-70824800D01*
X133518171Y-70824800D02*
X133422933Y-70872419D01*
X133422933Y-70872419D02*
X133327695Y-70872419D01*
X133327695Y-70872419D02*
X133232457Y-70824800D01*
X133232457Y-70824800D02*
X133184838Y-70777180D01*
X133184838Y-70777180D02*
X133137219Y-70681942D01*
X133137219Y-70681942D02*
X133089600Y-70491466D01*
X133089600Y-70491466D02*
X133089600Y-70253371D01*
X133089600Y-70253371D02*
X133137219Y-70062895D01*
X133137219Y-70062895D02*
X133184838Y-69967657D01*
X133184838Y-69967657D02*
X133232457Y-69920038D01*
X133232457Y-69920038D02*
X133327695Y-69872419D01*
X134041981Y-69967657D02*
X134089600Y-69920038D01*
X134089600Y-69920038D02*
X134184838Y-69872419D01*
X134184838Y-69872419D02*
X134422933Y-69872419D01*
X134422933Y-69872419D02*
X134518171Y-69920038D01*
X134518171Y-69920038D02*
X134565790Y-69967657D01*
X134565790Y-69967657D02*
X134613409Y-70062895D01*
X134613409Y-70062895D02*
X134613409Y-70158133D01*
X134613409Y-70158133D02*
X134565790Y-70300990D01*
X134565790Y-70300990D02*
X133994362Y-70872419D01*
X133994362Y-70872419D02*
X134613409Y-70872419D01*
X135518171Y-69872419D02*
X135041981Y-69872419D01*
X135041981Y-69872419D02*
X134994362Y-70348609D01*
X134994362Y-70348609D02*
X135041981Y-70300990D01*
X135041981Y-70300990D02*
X135137219Y-70253371D01*
X135137219Y-70253371D02*
X135375314Y-70253371D01*
X135375314Y-70253371D02*
X135470552Y-70300990D01*
X135470552Y-70300990D02*
X135518171Y-70348609D01*
X135518171Y-70348609D02*
X135565790Y-70443847D01*
X135565790Y-70443847D02*
X135565790Y-70681942D01*
X135565790Y-70681942D02*
X135518171Y-70777180D01*
X135518171Y-70777180D02*
X135470552Y-70824800D01*
X135470552Y-70824800D02*
X135375314Y-70872419D01*
X135375314Y-70872419D02*
X135137219Y-70872419D01*
X135137219Y-70872419D02*
X135041981Y-70824800D01*
X135041981Y-70824800D02*
X134994362Y-70777180D01*
D11*
X152549819Y-63920594D02*
X151549819Y-63920594D01*
X151549819Y-63920594D02*
X151549819Y-63682499D01*
X151549819Y-63682499D02*
X151597438Y-63539642D01*
X151597438Y-63539642D02*
X151692676Y-63444404D01*
X151692676Y-63444404D02*
X151787914Y-63396785D01*
X151787914Y-63396785D02*
X151978390Y-63349166D01*
X151978390Y-63349166D02*
X152121247Y-63349166D01*
X152121247Y-63349166D02*
X152311723Y-63396785D01*
X152311723Y-63396785D02*
X152406961Y-63444404D01*
X152406961Y-63444404D02*
X152502200Y-63539642D01*
X152502200Y-63539642D02*
X152549819Y-63682499D01*
X152549819Y-63682499D02*
X152549819Y-63920594D01*
X151883152Y-62492023D02*
X152549819Y-62492023D01*
X151502200Y-62730118D02*
X152216485Y-62968213D01*
X152216485Y-62968213D02*
X152216485Y-62349166D01*
X150859819Y-64555594D02*
X149859819Y-64555594D01*
X149859819Y-64555594D02*
X149859819Y-64317499D01*
X149859819Y-64317499D02*
X149907438Y-64174642D01*
X149907438Y-64174642D02*
X150002676Y-64079404D01*
X150002676Y-64079404D02*
X150097914Y-64031785D01*
X150097914Y-64031785D02*
X150288390Y-63984166D01*
X150288390Y-63984166D02*
X150431247Y-63984166D01*
X150431247Y-63984166D02*
X150621723Y-64031785D01*
X150621723Y-64031785D02*
X150716961Y-64079404D01*
X150716961Y-64079404D02*
X150812200Y-64174642D01*
X150812200Y-64174642D02*
X150859819Y-64317499D01*
X150859819Y-64317499D02*
X150859819Y-64555594D01*
X149859819Y-63650832D02*
X149859819Y-63031785D01*
X149859819Y-63031785D02*
X150240771Y-63365118D01*
X150240771Y-63365118D02*
X150240771Y-63222261D01*
X150240771Y-63222261D02*
X150288390Y-63127023D01*
X150288390Y-63127023D02*
X150336009Y-63079404D01*
X150336009Y-63079404D02*
X150431247Y-63031785D01*
X150431247Y-63031785D02*
X150669342Y-63031785D01*
X150669342Y-63031785D02*
X150764580Y-63079404D01*
X150764580Y-63079404D02*
X150812200Y-63127023D01*
X150812200Y-63127023D02*
X150859819Y-63222261D01*
X150859819Y-63222261D02*
X150859819Y-63507975D01*
X150859819Y-63507975D02*
X150812200Y-63603213D01*
X150812200Y-63603213D02*
X150764580Y-63650832D01*
X156359819Y-49555594D02*
X155359819Y-49555594D01*
X155359819Y-49555594D02*
X155359819Y-49317499D01*
X155359819Y-49317499D02*
X155407438Y-49174642D01*
X155407438Y-49174642D02*
X155502676Y-49079404D01*
X155502676Y-49079404D02*
X155597914Y-49031785D01*
X155597914Y-49031785D02*
X155788390Y-48984166D01*
X155788390Y-48984166D02*
X155931247Y-48984166D01*
X155931247Y-48984166D02*
X156121723Y-49031785D01*
X156121723Y-49031785D02*
X156216961Y-49079404D01*
X156216961Y-49079404D02*
X156312200Y-49174642D01*
X156312200Y-49174642D02*
X156359819Y-49317499D01*
X156359819Y-49317499D02*
X156359819Y-49555594D01*
X155455057Y-48603213D02*
X155407438Y-48555594D01*
X155407438Y-48555594D02*
X155359819Y-48460356D01*
X155359819Y-48460356D02*
X155359819Y-48222261D01*
X155359819Y-48222261D02*
X155407438Y-48127023D01*
X155407438Y-48127023D02*
X155455057Y-48079404D01*
X155455057Y-48079404D02*
X155550295Y-48031785D01*
X155550295Y-48031785D02*
X155645533Y-48031785D01*
X155645533Y-48031785D02*
X155788390Y-48079404D01*
X155788390Y-48079404D02*
X156359819Y-48650832D01*
X156359819Y-48650832D02*
X156359819Y-48031785D01*
X147049819Y-49238094D02*
X146049819Y-49238094D01*
X146049819Y-49238094D02*
X146049819Y-48999999D01*
X146049819Y-48999999D02*
X146097438Y-48857142D01*
X146097438Y-48857142D02*
X146192676Y-48761904D01*
X146192676Y-48761904D02*
X146287914Y-48714285D01*
X146287914Y-48714285D02*
X146478390Y-48666666D01*
X146478390Y-48666666D02*
X146621247Y-48666666D01*
X146621247Y-48666666D02*
X146811723Y-48714285D01*
X146811723Y-48714285D02*
X146906961Y-48761904D01*
X146906961Y-48761904D02*
X147002200Y-48857142D01*
X147002200Y-48857142D02*
X147049819Y-48999999D01*
X147049819Y-48999999D02*
X147049819Y-49238094D01*
X147049819Y-47714285D02*
X147049819Y-48285713D01*
X147049819Y-47999999D02*
X146049819Y-47999999D01*
X146049819Y-47999999D02*
X146192676Y-48095237D01*
X146192676Y-48095237D02*
X146287914Y-48190475D01*
X146287914Y-48190475D02*
X146335533Y-48285713D01*
X120932676Y-64038666D02*
X120627914Y-64252000D01*
X120932676Y-64404381D02*
X120292676Y-64404381D01*
X120292676Y-64404381D02*
X120292676Y-64160571D01*
X120292676Y-64160571D02*
X120323152Y-64099619D01*
X120323152Y-64099619D02*
X120353628Y-64069142D01*
X120353628Y-64069142D02*
X120414580Y-64038666D01*
X120414580Y-64038666D02*
X120506009Y-64038666D01*
X120506009Y-64038666D02*
X120566961Y-64069142D01*
X120566961Y-64069142D02*
X120597438Y-64099619D01*
X120597438Y-64099619D02*
X120627914Y-64160571D01*
X120627914Y-64160571D02*
X120627914Y-64404381D01*
X120566961Y-63672952D02*
X120536485Y-63733904D01*
X120536485Y-63733904D02*
X120506009Y-63764381D01*
X120506009Y-63764381D02*
X120445057Y-63794857D01*
X120445057Y-63794857D02*
X120414580Y-63794857D01*
X120414580Y-63794857D02*
X120353628Y-63764381D01*
X120353628Y-63764381D02*
X120323152Y-63733904D01*
X120323152Y-63733904D02*
X120292676Y-63672952D01*
X120292676Y-63672952D02*
X120292676Y-63551047D01*
X120292676Y-63551047D02*
X120323152Y-63490095D01*
X120323152Y-63490095D02*
X120353628Y-63459619D01*
X120353628Y-63459619D02*
X120414580Y-63429142D01*
X120414580Y-63429142D02*
X120445057Y-63429142D01*
X120445057Y-63429142D02*
X120506009Y-63459619D01*
X120506009Y-63459619D02*
X120536485Y-63490095D01*
X120536485Y-63490095D02*
X120566961Y-63551047D01*
X120566961Y-63551047D02*
X120566961Y-63672952D01*
X120566961Y-63672952D02*
X120597438Y-63733904D01*
X120597438Y-63733904D02*
X120627914Y-63764381D01*
X120627914Y-63764381D02*
X120688866Y-63794857D01*
X120688866Y-63794857D02*
X120810771Y-63794857D01*
X120810771Y-63794857D02*
X120871723Y-63764381D01*
X120871723Y-63764381D02*
X120902200Y-63733904D01*
X120902200Y-63733904D02*
X120932676Y-63672952D01*
X120932676Y-63672952D02*
X120932676Y-63551047D01*
X120932676Y-63551047D02*
X120902200Y-63490095D01*
X120902200Y-63490095D02*
X120871723Y-63459619D01*
X120871723Y-63459619D02*
X120810771Y-63429142D01*
X120810771Y-63429142D02*
X120688866Y-63429142D01*
X120688866Y-63429142D02*
X120627914Y-63459619D01*
X120627914Y-63459619D02*
X120597438Y-63490095D01*
X120597438Y-63490095D02*
X120566961Y-63551047D01*
D12*
X127077519Y-63505616D02*
X127096267Y-63524364D01*
X127096267Y-63524364D02*
X127115014Y-63580607D01*
X127115014Y-63580607D02*
X127115014Y-63618102D01*
X127115014Y-63618102D02*
X127096267Y-63674345D01*
X127096267Y-63674345D02*
X127058771Y-63711841D01*
X127058771Y-63711841D02*
X127021276Y-63730588D01*
X127021276Y-63730588D02*
X126946285Y-63749336D01*
X126946285Y-63749336D02*
X126890042Y-63749336D01*
X126890042Y-63749336D02*
X126815052Y-63730588D01*
X126815052Y-63730588D02*
X126777556Y-63711841D01*
X126777556Y-63711841D02*
X126740061Y-63674345D01*
X126740061Y-63674345D02*
X126721313Y-63618102D01*
X126721313Y-63618102D02*
X126721313Y-63580607D01*
X126721313Y-63580607D02*
X126740061Y-63524364D01*
X126740061Y-63524364D02*
X126758809Y-63505616D01*
X126852547Y-63168158D02*
X127115014Y-63168158D01*
X126702566Y-63261897D02*
X126983781Y-63355635D01*
X126983781Y-63355635D02*
X126983781Y-63111915D01*
D11*
X118494676Y-46538666D02*
X118189914Y-46752000D01*
X118494676Y-46904381D02*
X117854676Y-46904381D01*
X117854676Y-46904381D02*
X117854676Y-46660571D01*
X117854676Y-46660571D02*
X117885152Y-46599619D01*
X117885152Y-46599619D02*
X117915628Y-46569142D01*
X117915628Y-46569142D02*
X117976580Y-46538666D01*
X117976580Y-46538666D02*
X118068009Y-46538666D01*
X118068009Y-46538666D02*
X118128961Y-46569142D01*
X118128961Y-46569142D02*
X118159438Y-46599619D01*
X118159438Y-46599619D02*
X118189914Y-46660571D01*
X118189914Y-46660571D02*
X118189914Y-46904381D01*
X117854676Y-45959619D02*
X117854676Y-46264381D01*
X117854676Y-46264381D02*
X118159438Y-46294857D01*
X118159438Y-46294857D02*
X118128961Y-46264381D01*
X118128961Y-46264381D02*
X118098485Y-46203428D01*
X118098485Y-46203428D02*
X118098485Y-46051047D01*
X118098485Y-46051047D02*
X118128961Y-45990095D01*
X118128961Y-45990095D02*
X118159438Y-45959619D01*
X118159438Y-45959619D02*
X118220390Y-45929142D01*
X118220390Y-45929142D02*
X118372771Y-45929142D01*
X118372771Y-45929142D02*
X118433723Y-45959619D01*
X118433723Y-45959619D02*
X118464200Y-45990095D01*
X118464200Y-45990095D02*
X118494676Y-46051047D01*
X118494676Y-46051047D02*
X118494676Y-46203428D01*
X118494676Y-46203428D02*
X118464200Y-46264381D01*
X118464200Y-46264381D02*
X118433723Y-46294857D01*
X99432676Y-64038666D02*
X99127914Y-64252000D01*
X99432676Y-64404381D02*
X98792676Y-64404381D01*
X98792676Y-64404381D02*
X98792676Y-64160571D01*
X98792676Y-64160571D02*
X98823152Y-64099619D01*
X98823152Y-64099619D02*
X98853628Y-64069142D01*
X98853628Y-64069142D02*
X98914580Y-64038666D01*
X98914580Y-64038666D02*
X99006009Y-64038666D01*
X99006009Y-64038666D02*
X99066961Y-64069142D01*
X99066961Y-64069142D02*
X99097438Y-64099619D01*
X99097438Y-64099619D02*
X99127914Y-64160571D01*
X99127914Y-64160571D02*
X99127914Y-64404381D01*
X98853628Y-63794857D02*
X98823152Y-63764381D01*
X98823152Y-63764381D02*
X98792676Y-63703428D01*
X98792676Y-63703428D02*
X98792676Y-63551047D01*
X98792676Y-63551047D02*
X98823152Y-63490095D01*
X98823152Y-63490095D02*
X98853628Y-63459619D01*
X98853628Y-63459619D02*
X98914580Y-63429142D01*
X98914580Y-63429142D02*
X98975533Y-63429142D01*
X98975533Y-63429142D02*
X99066961Y-63459619D01*
X99066961Y-63459619D02*
X99432676Y-63825333D01*
X99432676Y-63825333D02*
X99432676Y-63429142D01*
X98994676Y-46106666D02*
X98689914Y-46320000D01*
X98994676Y-46472381D02*
X98354676Y-46472381D01*
X98354676Y-46472381D02*
X98354676Y-46228571D01*
X98354676Y-46228571D02*
X98385152Y-46167619D01*
X98385152Y-46167619D02*
X98415628Y-46137142D01*
X98415628Y-46137142D02*
X98476580Y-46106666D01*
X98476580Y-46106666D02*
X98568009Y-46106666D01*
X98568009Y-46106666D02*
X98628961Y-46137142D01*
X98628961Y-46137142D02*
X98659438Y-46167619D01*
X98659438Y-46167619D02*
X98689914Y-46228571D01*
X98689914Y-46228571D02*
X98689914Y-46472381D01*
X98994676Y-45497142D02*
X98994676Y-45862857D01*
X98994676Y-45680000D02*
X98354676Y-45680000D01*
X98354676Y-45680000D02*
X98446104Y-45740952D01*
X98446104Y-45740952D02*
X98507057Y-45801904D01*
X98507057Y-45801904D02*
X98537533Y-45862857D01*
D12*
X108577519Y-63505616D02*
X108596267Y-63524364D01*
X108596267Y-63524364D02*
X108615014Y-63580607D01*
X108615014Y-63580607D02*
X108615014Y-63618102D01*
X108615014Y-63618102D02*
X108596267Y-63674345D01*
X108596267Y-63674345D02*
X108558771Y-63711841D01*
X108558771Y-63711841D02*
X108521276Y-63730588D01*
X108521276Y-63730588D02*
X108446285Y-63749336D01*
X108446285Y-63749336D02*
X108390042Y-63749336D01*
X108390042Y-63749336D02*
X108315052Y-63730588D01*
X108315052Y-63730588D02*
X108277556Y-63711841D01*
X108277556Y-63711841D02*
X108240061Y-63674345D01*
X108240061Y-63674345D02*
X108221313Y-63618102D01*
X108221313Y-63618102D02*
X108221313Y-63580607D01*
X108221313Y-63580607D02*
X108240061Y-63524364D01*
X108240061Y-63524364D02*
X108258809Y-63505616D01*
X108221313Y-63374383D02*
X108221313Y-63130663D01*
X108221313Y-63130663D02*
X108371295Y-63261897D01*
X108371295Y-63261897D02*
X108371295Y-63205654D01*
X108371295Y-63205654D02*
X108390042Y-63168158D01*
X108390042Y-63168158D02*
X108408790Y-63149411D01*
X108408790Y-63149411D02*
X108446285Y-63130663D01*
X108446285Y-63130663D02*
X108540024Y-63130663D01*
X108540024Y-63130663D02*
X108577519Y-63149411D01*
X108577519Y-63149411D02*
X108596267Y-63168158D01*
X108596267Y-63168158D02*
X108615014Y-63205654D01*
X108615014Y-63205654D02*
X108615014Y-63318140D01*
X108615014Y-63318140D02*
X108596267Y-63355635D01*
X108596267Y-63355635D02*
X108577519Y-63374383D01*
D11*
X166025980Y-44004626D02*
X166025980Y-45032721D01*
X166025980Y-45032721D02*
X166086457Y-45153673D01*
X166086457Y-45153673D02*
X166146933Y-45214150D01*
X166146933Y-45214150D02*
X166267885Y-45274626D01*
X166267885Y-45274626D02*
X166509790Y-45274626D01*
X166509790Y-45274626D02*
X166630742Y-45214150D01*
X166630742Y-45214150D02*
X166691219Y-45153673D01*
X166691219Y-45153673D02*
X166751695Y-45032721D01*
X166751695Y-45032721D02*
X166751695Y-44004626D01*
X168021695Y-45274626D02*
X167295980Y-45274626D01*
X167658837Y-45274626D02*
X167658837Y-44004626D01*
X167658837Y-44004626D02*
X167537885Y-44186054D01*
X167537885Y-44186054D02*
X167416933Y-44307007D01*
X167416933Y-44307007D02*
X167295980Y-44367483D01*
X170405003Y-54592952D02*
X170344050Y-54562476D01*
X170344050Y-54562476D02*
X170252622Y-54562476D01*
X170252622Y-54562476D02*
X170161193Y-54592952D01*
X170161193Y-54592952D02*
X170100241Y-54653904D01*
X170100241Y-54653904D02*
X170069764Y-54714857D01*
X170069764Y-54714857D02*
X170039288Y-54836761D01*
X170039288Y-54836761D02*
X170039288Y-54928190D01*
X170039288Y-54928190D02*
X170069764Y-55050095D01*
X170069764Y-55050095D02*
X170100241Y-55111047D01*
X170100241Y-55111047D02*
X170161193Y-55172000D01*
X170161193Y-55172000D02*
X170252622Y-55202476D01*
X170252622Y-55202476D02*
X170313574Y-55202476D01*
X170313574Y-55202476D02*
X170405003Y-55172000D01*
X170405003Y-55172000D02*
X170435479Y-55141523D01*
X170435479Y-55141523D02*
X170435479Y-54928190D01*
X170435479Y-54928190D02*
X170313574Y-54928190D01*
X170709764Y-55202476D02*
X170709764Y-54562476D01*
X170709764Y-54562476D02*
X170953574Y-54562476D01*
X170953574Y-54562476D02*
X171014526Y-54592952D01*
X171014526Y-54592952D02*
X171045003Y-54623428D01*
X171045003Y-54623428D02*
X171075479Y-54684380D01*
X171075479Y-54684380D02*
X171075479Y-54775809D01*
X171075479Y-54775809D02*
X171045003Y-54836761D01*
X171045003Y-54836761D02*
X171014526Y-54867238D01*
X171014526Y-54867238D02*
X170953574Y-54897714D01*
X170953574Y-54897714D02*
X170709764Y-54897714D01*
X171685003Y-55202476D02*
X171319288Y-55202476D01*
X171502145Y-55202476D02*
X171502145Y-54562476D01*
X171502145Y-54562476D02*
X171441193Y-54653904D01*
X171441193Y-54653904D02*
X171380241Y-54714857D01*
X171380241Y-54714857D02*
X171319288Y-54745333D01*
X171928812Y-54623428D02*
X171959288Y-54592952D01*
X171959288Y-54592952D02*
X172020241Y-54562476D01*
X172020241Y-54562476D02*
X172172622Y-54562476D01*
X172172622Y-54562476D02*
X172233574Y-54592952D01*
X172233574Y-54592952D02*
X172264050Y-54623428D01*
X172264050Y-54623428D02*
X172294527Y-54684380D01*
X172294527Y-54684380D02*
X172294527Y-54745333D01*
X172294527Y-54745333D02*
X172264050Y-54836761D01*
X172264050Y-54836761D02*
X171898336Y-55202476D01*
X171898336Y-55202476D02*
X172294527Y-55202476D01*
D13*
X166058254Y-53788447D02*
X166324920Y-53788447D01*
X166439206Y-54207495D02*
X166058254Y-54207495D01*
X166058254Y-54207495D02*
X166058254Y-53407495D01*
X166058254Y-53407495D02*
X166439206Y-53407495D01*
X166743968Y-54169400D02*
X166858254Y-54207495D01*
X166858254Y-54207495D02*
X167048730Y-54207495D01*
X167048730Y-54207495D02*
X167124921Y-54169400D01*
X167124921Y-54169400D02*
X167163016Y-54131304D01*
X167163016Y-54131304D02*
X167201111Y-54055114D01*
X167201111Y-54055114D02*
X167201111Y-53978923D01*
X167201111Y-53978923D02*
X167163016Y-53902733D01*
X167163016Y-53902733D02*
X167124921Y-53864638D01*
X167124921Y-53864638D02*
X167048730Y-53826542D01*
X167048730Y-53826542D02*
X166896349Y-53788447D01*
X166896349Y-53788447D02*
X166820159Y-53750352D01*
X166820159Y-53750352D02*
X166782064Y-53712257D01*
X166782064Y-53712257D02*
X166743968Y-53636066D01*
X166743968Y-53636066D02*
X166743968Y-53559876D01*
X166743968Y-53559876D02*
X166782064Y-53483685D01*
X166782064Y-53483685D02*
X166820159Y-53445590D01*
X166820159Y-53445590D02*
X166896349Y-53407495D01*
X166896349Y-53407495D02*
X167086826Y-53407495D01*
X167086826Y-53407495D02*
X167201111Y-53445590D01*
X167543969Y-54207495D02*
X167543969Y-53407495D01*
X167543969Y-53407495D02*
X167848731Y-53407495D01*
X167848731Y-53407495D02*
X167924921Y-53445590D01*
X167924921Y-53445590D02*
X167963016Y-53483685D01*
X167963016Y-53483685D02*
X168001112Y-53559876D01*
X168001112Y-53559876D02*
X168001112Y-53674161D01*
X168001112Y-53674161D02*
X167963016Y-53750352D01*
X167963016Y-53750352D02*
X167924921Y-53788447D01*
X167924921Y-53788447D02*
X167848731Y-53826542D01*
X167848731Y-53826542D02*
X167543969Y-53826542D01*
D11*
X162306803Y-64793052D02*
X162245850Y-64762576D01*
X162245850Y-64762576D02*
X162154422Y-64762576D01*
X162154422Y-64762576D02*
X162062993Y-64793052D01*
X162062993Y-64793052D02*
X162002041Y-64854004D01*
X162002041Y-64854004D02*
X161971564Y-64914957D01*
X161971564Y-64914957D02*
X161941088Y-65036861D01*
X161941088Y-65036861D02*
X161941088Y-65128290D01*
X161941088Y-65128290D02*
X161971564Y-65250195D01*
X161971564Y-65250195D02*
X162002041Y-65311147D01*
X162002041Y-65311147D02*
X162062993Y-65372100D01*
X162062993Y-65372100D02*
X162154422Y-65402576D01*
X162154422Y-65402576D02*
X162215374Y-65402576D01*
X162215374Y-65402576D02*
X162306803Y-65372100D01*
X162306803Y-65372100D02*
X162337279Y-65341623D01*
X162337279Y-65341623D02*
X162337279Y-65128290D01*
X162337279Y-65128290D02*
X162215374Y-65128290D01*
X162611564Y-65402576D02*
X162611564Y-64762576D01*
X162611564Y-64762576D02*
X162855374Y-64762576D01*
X162855374Y-64762576D02*
X162916326Y-64793052D01*
X162916326Y-64793052D02*
X162946803Y-64823528D01*
X162946803Y-64823528D02*
X162977279Y-64884480D01*
X162977279Y-64884480D02*
X162977279Y-64975909D01*
X162977279Y-64975909D02*
X162946803Y-65036861D01*
X162946803Y-65036861D02*
X162916326Y-65067338D01*
X162916326Y-65067338D02*
X162855374Y-65097814D01*
X162855374Y-65097814D02*
X162611564Y-65097814D01*
X163556326Y-64762576D02*
X163251564Y-64762576D01*
X163251564Y-64762576D02*
X163221088Y-65067338D01*
X163221088Y-65067338D02*
X163251564Y-65036861D01*
X163251564Y-65036861D02*
X163312517Y-65006385D01*
X163312517Y-65006385D02*
X163464898Y-65006385D01*
X163464898Y-65006385D02*
X163525850Y-65036861D01*
X163525850Y-65036861D02*
X163556326Y-65067338D01*
X163556326Y-65067338D02*
X163586803Y-65128290D01*
X163586803Y-65128290D02*
X163586803Y-65280671D01*
X163586803Y-65280671D02*
X163556326Y-65341623D01*
X163556326Y-65341623D02*
X163525850Y-65372100D01*
X163525850Y-65372100D02*
X163464898Y-65402576D01*
X163464898Y-65402576D02*
X163312517Y-65402576D01*
X163312517Y-65402576D02*
X163251564Y-65372100D01*
X163251564Y-65372100D02*
X163221088Y-65341623D01*
D13*
X165492063Y-55057495D02*
X165987301Y-55057495D01*
X165987301Y-55057495D02*
X165720635Y-55362257D01*
X165720635Y-55362257D02*
X165834920Y-55362257D01*
X165834920Y-55362257D02*
X165911111Y-55400352D01*
X165911111Y-55400352D02*
X165949206Y-55438447D01*
X165949206Y-55438447D02*
X165987301Y-55514638D01*
X165987301Y-55514638D02*
X165987301Y-55705114D01*
X165987301Y-55705114D02*
X165949206Y-55781304D01*
X165949206Y-55781304D02*
X165911111Y-55819400D01*
X165911111Y-55819400D02*
X165834920Y-55857495D01*
X165834920Y-55857495D02*
X165606349Y-55857495D01*
X165606349Y-55857495D02*
X165530158Y-55819400D01*
X165530158Y-55819400D02*
X165492063Y-55781304D01*
X166292063Y-55133685D02*
X166330159Y-55095590D01*
X166330159Y-55095590D02*
X166406349Y-55057495D01*
X166406349Y-55057495D02*
X166596825Y-55057495D01*
X166596825Y-55057495D02*
X166673016Y-55095590D01*
X166673016Y-55095590D02*
X166711111Y-55133685D01*
X166711111Y-55133685D02*
X166749206Y-55209876D01*
X166749206Y-55209876D02*
X166749206Y-55286066D01*
X166749206Y-55286066D02*
X166711111Y-55400352D01*
X166711111Y-55400352D02*
X166253968Y-55857495D01*
X166253968Y-55857495D02*
X166749206Y-55857495D01*
X167053968Y-55819400D02*
X167168254Y-55857495D01*
X167168254Y-55857495D02*
X167358730Y-55857495D01*
X167358730Y-55857495D02*
X167434921Y-55819400D01*
X167434921Y-55819400D02*
X167473016Y-55781304D01*
X167473016Y-55781304D02*
X167511111Y-55705114D01*
X167511111Y-55705114D02*
X167511111Y-55628923D01*
X167511111Y-55628923D02*
X167473016Y-55552733D01*
X167473016Y-55552733D02*
X167434921Y-55514638D01*
X167434921Y-55514638D02*
X167358730Y-55476542D01*
X167358730Y-55476542D02*
X167206349Y-55438447D01*
X167206349Y-55438447D02*
X167130159Y-55400352D01*
X167130159Y-55400352D02*
X167092064Y-55362257D01*
X167092064Y-55362257D02*
X167053968Y-55286066D01*
X167053968Y-55286066D02*
X167053968Y-55209876D01*
X167053968Y-55209876D02*
X167092064Y-55133685D01*
X167092064Y-55133685D02*
X167130159Y-55095590D01*
X167130159Y-55095590D02*
X167206349Y-55057495D01*
X167206349Y-55057495D02*
X167396826Y-55057495D01*
X167396826Y-55057495D02*
X167511111Y-55095590D01*
X167777778Y-55057495D02*
X168273016Y-55057495D01*
X168273016Y-55057495D02*
X168006350Y-55362257D01*
X168006350Y-55362257D02*
X168120635Y-55362257D01*
X168120635Y-55362257D02*
X168196826Y-55400352D01*
X168196826Y-55400352D02*
X168234921Y-55438447D01*
X168234921Y-55438447D02*
X168273016Y-55514638D01*
X168273016Y-55514638D02*
X168273016Y-55705114D01*
X168273016Y-55705114D02*
X168234921Y-55781304D01*
X168234921Y-55781304D02*
X168196826Y-55819400D01*
X168196826Y-55819400D02*
X168120635Y-55857495D01*
X168120635Y-55857495D02*
X167892064Y-55857495D01*
X167892064Y-55857495D02*
X167815873Y-55819400D01*
X167815873Y-55819400D02*
X167777778Y-55781304D01*
D11*
X162288703Y-62193152D02*
X162227750Y-62162676D01*
X162227750Y-62162676D02*
X162136322Y-62162676D01*
X162136322Y-62162676D02*
X162044893Y-62193152D01*
X162044893Y-62193152D02*
X161983941Y-62254104D01*
X161983941Y-62254104D02*
X161953464Y-62315057D01*
X161953464Y-62315057D02*
X161922988Y-62436961D01*
X161922988Y-62436961D02*
X161922988Y-62528390D01*
X161922988Y-62528390D02*
X161953464Y-62650295D01*
X161953464Y-62650295D02*
X161983941Y-62711247D01*
X161983941Y-62711247D02*
X162044893Y-62772200D01*
X162044893Y-62772200D02*
X162136322Y-62802676D01*
X162136322Y-62802676D02*
X162197274Y-62802676D01*
X162197274Y-62802676D02*
X162288703Y-62772200D01*
X162288703Y-62772200D02*
X162319179Y-62741723D01*
X162319179Y-62741723D02*
X162319179Y-62528390D01*
X162319179Y-62528390D02*
X162197274Y-62528390D01*
X162593464Y-62802676D02*
X162593464Y-62162676D01*
X162593464Y-62162676D02*
X162837274Y-62162676D01*
X162837274Y-62162676D02*
X162898226Y-62193152D01*
X162898226Y-62193152D02*
X162928703Y-62223628D01*
X162928703Y-62223628D02*
X162959179Y-62284580D01*
X162959179Y-62284580D02*
X162959179Y-62376009D01*
X162959179Y-62376009D02*
X162928703Y-62436961D01*
X162928703Y-62436961D02*
X162898226Y-62467438D01*
X162898226Y-62467438D02*
X162837274Y-62497914D01*
X162837274Y-62497914D02*
X162593464Y-62497914D01*
X163507750Y-62376009D02*
X163507750Y-62802676D01*
X163355369Y-62132200D02*
X163202988Y-62589342D01*
X163202988Y-62589342D02*
X163599179Y-62589342D01*
X162325303Y-67292952D02*
X162264350Y-67262476D01*
X162264350Y-67262476D02*
X162172922Y-67262476D01*
X162172922Y-67262476D02*
X162081493Y-67292952D01*
X162081493Y-67292952D02*
X162020541Y-67353904D01*
X162020541Y-67353904D02*
X161990064Y-67414857D01*
X161990064Y-67414857D02*
X161959588Y-67536761D01*
X161959588Y-67536761D02*
X161959588Y-67628190D01*
X161959588Y-67628190D02*
X161990064Y-67750095D01*
X161990064Y-67750095D02*
X162020541Y-67811047D01*
X162020541Y-67811047D02*
X162081493Y-67872000D01*
X162081493Y-67872000D02*
X162172922Y-67902476D01*
X162172922Y-67902476D02*
X162233874Y-67902476D01*
X162233874Y-67902476D02*
X162325303Y-67872000D01*
X162325303Y-67872000D02*
X162355779Y-67841523D01*
X162355779Y-67841523D02*
X162355779Y-67628190D01*
X162355779Y-67628190D02*
X162233874Y-67628190D01*
X162630064Y-67902476D02*
X162630064Y-67262476D01*
X162630064Y-67262476D02*
X162873874Y-67262476D01*
X162873874Y-67262476D02*
X162934826Y-67292952D01*
X162934826Y-67292952D02*
X162965303Y-67323428D01*
X162965303Y-67323428D02*
X162995779Y-67384380D01*
X162995779Y-67384380D02*
X162995779Y-67475809D01*
X162995779Y-67475809D02*
X162965303Y-67536761D01*
X162965303Y-67536761D02*
X162934826Y-67567238D01*
X162934826Y-67567238D02*
X162873874Y-67597714D01*
X162873874Y-67597714D02*
X162630064Y-67597714D01*
X163544350Y-67262476D02*
X163422445Y-67262476D01*
X163422445Y-67262476D02*
X163361493Y-67292952D01*
X163361493Y-67292952D02*
X163331017Y-67323428D01*
X163331017Y-67323428D02*
X163270064Y-67414857D01*
X163270064Y-67414857D02*
X163239588Y-67536761D01*
X163239588Y-67536761D02*
X163239588Y-67780571D01*
X163239588Y-67780571D02*
X163270064Y-67841523D01*
X163270064Y-67841523D02*
X163300541Y-67872000D01*
X163300541Y-67872000D02*
X163361493Y-67902476D01*
X163361493Y-67902476D02*
X163483398Y-67902476D01*
X163483398Y-67902476D02*
X163544350Y-67872000D01*
X163544350Y-67872000D02*
X163574826Y-67841523D01*
X163574826Y-67841523D02*
X163605303Y-67780571D01*
X163605303Y-67780571D02*
X163605303Y-67628190D01*
X163605303Y-67628190D02*
X163574826Y-67567238D01*
X163574826Y-67567238D02*
X163544350Y-67536761D01*
X163544350Y-67536761D02*
X163483398Y-67506285D01*
X163483398Y-67506285D02*
X163361493Y-67506285D01*
X163361493Y-67506285D02*
X163300541Y-67536761D01*
X163300541Y-67536761D02*
X163270064Y-67567238D01*
X163270064Y-67567238D02*
X163239588Y-67628190D01*
X170616103Y-67292952D02*
X170555150Y-67262476D01*
X170555150Y-67262476D02*
X170463722Y-67262476D01*
X170463722Y-67262476D02*
X170372293Y-67292952D01*
X170372293Y-67292952D02*
X170311341Y-67353904D01*
X170311341Y-67353904D02*
X170280864Y-67414857D01*
X170280864Y-67414857D02*
X170250388Y-67536761D01*
X170250388Y-67536761D02*
X170250388Y-67628190D01*
X170250388Y-67628190D02*
X170280864Y-67750095D01*
X170280864Y-67750095D02*
X170311341Y-67811047D01*
X170311341Y-67811047D02*
X170372293Y-67872000D01*
X170372293Y-67872000D02*
X170463722Y-67902476D01*
X170463722Y-67902476D02*
X170524674Y-67902476D01*
X170524674Y-67902476D02*
X170616103Y-67872000D01*
X170616103Y-67872000D02*
X170646579Y-67841523D01*
X170646579Y-67841523D02*
X170646579Y-67628190D01*
X170646579Y-67628190D02*
X170524674Y-67628190D01*
X170920864Y-67902476D02*
X170920864Y-67262476D01*
X170920864Y-67262476D02*
X171164674Y-67262476D01*
X171164674Y-67262476D02*
X171225626Y-67292952D01*
X171225626Y-67292952D02*
X171256103Y-67323428D01*
X171256103Y-67323428D02*
X171286579Y-67384380D01*
X171286579Y-67384380D02*
X171286579Y-67475809D01*
X171286579Y-67475809D02*
X171256103Y-67536761D01*
X171256103Y-67536761D02*
X171225626Y-67567238D01*
X171225626Y-67567238D02*
X171164674Y-67597714D01*
X171164674Y-67597714D02*
X170920864Y-67597714D01*
X171499912Y-67262476D02*
X171926579Y-67262476D01*
X171926579Y-67262476D02*
X171652293Y-67902476D01*
X170616603Y-64793052D02*
X170555650Y-64762576D01*
X170555650Y-64762576D02*
X170464222Y-64762576D01*
X170464222Y-64762576D02*
X170372793Y-64793052D01*
X170372793Y-64793052D02*
X170311841Y-64854004D01*
X170311841Y-64854004D02*
X170281364Y-64914957D01*
X170281364Y-64914957D02*
X170250888Y-65036861D01*
X170250888Y-65036861D02*
X170250888Y-65128290D01*
X170250888Y-65128290D02*
X170281364Y-65250195D01*
X170281364Y-65250195D02*
X170311841Y-65311147D01*
X170311841Y-65311147D02*
X170372793Y-65372100D01*
X170372793Y-65372100D02*
X170464222Y-65402576D01*
X170464222Y-65402576D02*
X170525174Y-65402576D01*
X170525174Y-65402576D02*
X170616603Y-65372100D01*
X170616603Y-65372100D02*
X170647079Y-65341623D01*
X170647079Y-65341623D02*
X170647079Y-65128290D01*
X170647079Y-65128290D02*
X170525174Y-65128290D01*
X170921364Y-65402576D02*
X170921364Y-64762576D01*
X170921364Y-64762576D02*
X171165174Y-64762576D01*
X171165174Y-64762576D02*
X171226126Y-64793052D01*
X171226126Y-64793052D02*
X171256603Y-64823528D01*
X171256603Y-64823528D02*
X171287079Y-64884480D01*
X171287079Y-64884480D02*
X171287079Y-64975909D01*
X171287079Y-64975909D02*
X171256603Y-65036861D01*
X171256603Y-65036861D02*
X171226126Y-65067338D01*
X171226126Y-65067338D02*
X171165174Y-65097814D01*
X171165174Y-65097814D02*
X170921364Y-65097814D01*
X171652793Y-65036861D02*
X171591841Y-65006385D01*
X171591841Y-65006385D02*
X171561364Y-64975909D01*
X171561364Y-64975909D02*
X171530888Y-64914957D01*
X171530888Y-64914957D02*
X171530888Y-64884480D01*
X171530888Y-64884480D02*
X171561364Y-64823528D01*
X171561364Y-64823528D02*
X171591841Y-64793052D01*
X171591841Y-64793052D02*
X171652793Y-64762576D01*
X171652793Y-64762576D02*
X171774698Y-64762576D01*
X171774698Y-64762576D02*
X171835650Y-64793052D01*
X171835650Y-64793052D02*
X171866126Y-64823528D01*
X171866126Y-64823528D02*
X171896603Y-64884480D01*
X171896603Y-64884480D02*
X171896603Y-64914957D01*
X171896603Y-64914957D02*
X171866126Y-64975909D01*
X171866126Y-64975909D02*
X171835650Y-65006385D01*
X171835650Y-65006385D02*
X171774698Y-65036861D01*
X171774698Y-65036861D02*
X171652793Y-65036861D01*
X171652793Y-65036861D02*
X171591841Y-65067338D01*
X171591841Y-65067338D02*
X171561364Y-65097814D01*
X171561364Y-65097814D02*
X171530888Y-65158766D01*
X171530888Y-65158766D02*
X171530888Y-65280671D01*
X171530888Y-65280671D02*
X171561364Y-65341623D01*
X171561364Y-65341623D02*
X171591841Y-65372100D01*
X171591841Y-65372100D02*
X171652793Y-65402576D01*
X171652793Y-65402576D02*
X171774698Y-65402576D01*
X171774698Y-65402576D02*
X171835650Y-65372100D01*
X171835650Y-65372100D02*
X171866126Y-65341623D01*
X171866126Y-65341623D02*
X171896603Y-65280671D01*
X171896603Y-65280671D02*
X171896603Y-65158766D01*
X171896603Y-65158766D02*
X171866126Y-65097814D01*
X171866126Y-65097814D02*
X171835650Y-65067338D01*
X171835650Y-65067338D02*
X171774698Y-65036861D01*
X162307803Y-57093052D02*
X162246850Y-57062576D01*
X162246850Y-57062576D02*
X162155422Y-57062576D01*
X162155422Y-57062576D02*
X162063993Y-57093052D01*
X162063993Y-57093052D02*
X162003041Y-57154004D01*
X162003041Y-57154004D02*
X161972564Y-57214957D01*
X161972564Y-57214957D02*
X161942088Y-57336861D01*
X161942088Y-57336861D02*
X161942088Y-57428290D01*
X161942088Y-57428290D02*
X161972564Y-57550195D01*
X161972564Y-57550195D02*
X162003041Y-57611147D01*
X162003041Y-57611147D02*
X162063993Y-57672100D01*
X162063993Y-57672100D02*
X162155422Y-57702576D01*
X162155422Y-57702576D02*
X162216374Y-57702576D01*
X162216374Y-57702576D02*
X162307803Y-57672100D01*
X162307803Y-57672100D02*
X162338279Y-57641623D01*
X162338279Y-57641623D02*
X162338279Y-57428290D01*
X162338279Y-57428290D02*
X162216374Y-57428290D01*
X162612564Y-57702576D02*
X162612564Y-57062576D01*
X162612564Y-57062576D02*
X162856374Y-57062576D01*
X162856374Y-57062576D02*
X162917326Y-57093052D01*
X162917326Y-57093052D02*
X162947803Y-57123528D01*
X162947803Y-57123528D02*
X162978279Y-57184480D01*
X162978279Y-57184480D02*
X162978279Y-57275909D01*
X162978279Y-57275909D02*
X162947803Y-57336861D01*
X162947803Y-57336861D02*
X162917326Y-57367338D01*
X162917326Y-57367338D02*
X162856374Y-57397814D01*
X162856374Y-57397814D02*
X162612564Y-57397814D01*
X163222088Y-57123528D02*
X163252564Y-57093052D01*
X163252564Y-57093052D02*
X163313517Y-57062576D01*
X163313517Y-57062576D02*
X163465898Y-57062576D01*
X163465898Y-57062576D02*
X163526850Y-57093052D01*
X163526850Y-57093052D02*
X163557326Y-57123528D01*
X163557326Y-57123528D02*
X163587803Y-57184480D01*
X163587803Y-57184480D02*
X163587803Y-57245433D01*
X163587803Y-57245433D02*
X163557326Y-57336861D01*
X163557326Y-57336861D02*
X163191612Y-57702576D01*
X163191612Y-57702576D02*
X163587803Y-57702576D01*
X171039779Y-50176576D02*
X170826445Y-49871814D01*
X170674064Y-50176576D02*
X170674064Y-49536576D01*
X170674064Y-49536576D02*
X170917874Y-49536576D01*
X170917874Y-49536576D02*
X170978826Y-49567052D01*
X170978826Y-49567052D02*
X171009303Y-49597528D01*
X171009303Y-49597528D02*
X171039779Y-49658480D01*
X171039779Y-49658480D02*
X171039779Y-49749909D01*
X171039779Y-49749909D02*
X171009303Y-49810861D01*
X171009303Y-49810861D02*
X170978826Y-49841338D01*
X170978826Y-49841338D02*
X170917874Y-49871814D01*
X170917874Y-49871814D02*
X170674064Y-49871814D01*
X171253112Y-49536576D02*
X171679779Y-50176576D01*
X171679779Y-49536576D02*
X171253112Y-50176576D01*
X162634126Y-47062576D02*
X162329364Y-47062576D01*
X162329364Y-47062576D02*
X162298888Y-47367338D01*
X162298888Y-47367338D02*
X162329364Y-47336861D01*
X162329364Y-47336861D02*
X162390317Y-47306385D01*
X162390317Y-47306385D02*
X162542698Y-47306385D01*
X162542698Y-47306385D02*
X162603650Y-47336861D01*
X162603650Y-47336861D02*
X162634126Y-47367338D01*
X162634126Y-47367338D02*
X162664603Y-47428290D01*
X162664603Y-47428290D02*
X162664603Y-47580671D01*
X162664603Y-47580671D02*
X162634126Y-47641623D01*
X162634126Y-47641623D02*
X162603650Y-47672100D01*
X162603650Y-47672100D02*
X162542698Y-47702576D01*
X162542698Y-47702576D02*
X162390317Y-47702576D01*
X162390317Y-47702576D02*
X162329364Y-47672100D01*
X162329364Y-47672100D02*
X162298888Y-47641623D01*
X162847460Y-47062576D02*
X163060793Y-47702576D01*
X163060793Y-47702576D02*
X163274127Y-47062576D01*
X162307003Y-59693052D02*
X162246050Y-59662576D01*
X162246050Y-59662576D02*
X162154622Y-59662576D01*
X162154622Y-59662576D02*
X162063193Y-59693052D01*
X162063193Y-59693052D02*
X162002241Y-59754004D01*
X162002241Y-59754004D02*
X161971764Y-59814957D01*
X161971764Y-59814957D02*
X161941288Y-59936861D01*
X161941288Y-59936861D02*
X161941288Y-60028290D01*
X161941288Y-60028290D02*
X161971764Y-60150195D01*
X161971764Y-60150195D02*
X162002241Y-60211147D01*
X162002241Y-60211147D02*
X162063193Y-60272100D01*
X162063193Y-60272100D02*
X162154622Y-60302576D01*
X162154622Y-60302576D02*
X162215574Y-60302576D01*
X162215574Y-60302576D02*
X162307003Y-60272100D01*
X162307003Y-60272100D02*
X162337479Y-60241623D01*
X162337479Y-60241623D02*
X162337479Y-60028290D01*
X162337479Y-60028290D02*
X162215574Y-60028290D01*
X162611764Y-60302576D02*
X162611764Y-59662576D01*
X162611764Y-59662576D02*
X162855574Y-59662576D01*
X162855574Y-59662576D02*
X162916526Y-59693052D01*
X162916526Y-59693052D02*
X162947003Y-59723528D01*
X162947003Y-59723528D02*
X162977479Y-59784480D01*
X162977479Y-59784480D02*
X162977479Y-59875909D01*
X162977479Y-59875909D02*
X162947003Y-59936861D01*
X162947003Y-59936861D02*
X162916526Y-59967338D01*
X162916526Y-59967338D02*
X162855574Y-59997814D01*
X162855574Y-59997814D02*
X162611764Y-59997814D01*
X163190812Y-59662576D02*
X163587003Y-59662576D01*
X163587003Y-59662576D02*
X163373669Y-59906385D01*
X163373669Y-59906385D02*
X163465098Y-59906385D01*
X163465098Y-59906385D02*
X163526050Y-59936861D01*
X163526050Y-59936861D02*
X163556526Y-59967338D01*
X163556526Y-59967338D02*
X163587003Y-60028290D01*
X163587003Y-60028290D02*
X163587003Y-60180671D01*
X163587003Y-60180671D02*
X163556526Y-60241623D01*
X163556526Y-60241623D02*
X163526050Y-60272100D01*
X163526050Y-60272100D02*
X163465098Y-60302576D01*
X163465098Y-60302576D02*
X163282241Y-60302576D01*
X163282241Y-60302576D02*
X163221288Y-60272100D01*
X163221288Y-60272100D02*
X163190812Y-60241623D01*
X170404803Y-59693052D02*
X170343850Y-59662576D01*
X170343850Y-59662576D02*
X170252422Y-59662576D01*
X170252422Y-59662576D02*
X170160993Y-59693052D01*
X170160993Y-59693052D02*
X170100041Y-59754004D01*
X170100041Y-59754004D02*
X170069564Y-59814957D01*
X170069564Y-59814957D02*
X170039088Y-59936861D01*
X170039088Y-59936861D02*
X170039088Y-60028290D01*
X170039088Y-60028290D02*
X170069564Y-60150195D01*
X170069564Y-60150195D02*
X170100041Y-60211147D01*
X170100041Y-60211147D02*
X170160993Y-60272100D01*
X170160993Y-60272100D02*
X170252422Y-60302576D01*
X170252422Y-60302576D02*
X170313374Y-60302576D01*
X170313374Y-60302576D02*
X170404803Y-60272100D01*
X170404803Y-60272100D02*
X170435279Y-60241623D01*
X170435279Y-60241623D02*
X170435279Y-60028290D01*
X170435279Y-60028290D02*
X170313374Y-60028290D01*
X170709564Y-60302576D02*
X170709564Y-59662576D01*
X170709564Y-59662576D02*
X170953374Y-59662576D01*
X170953374Y-59662576D02*
X171014326Y-59693052D01*
X171014326Y-59693052D02*
X171044803Y-59723528D01*
X171044803Y-59723528D02*
X171075279Y-59784480D01*
X171075279Y-59784480D02*
X171075279Y-59875909D01*
X171075279Y-59875909D02*
X171044803Y-59936861D01*
X171044803Y-59936861D02*
X171014326Y-59967338D01*
X171014326Y-59967338D02*
X170953374Y-59997814D01*
X170953374Y-59997814D02*
X170709564Y-59997814D01*
X171684803Y-60302576D02*
X171319088Y-60302576D01*
X171501945Y-60302576D02*
X171501945Y-59662576D01*
X171501945Y-59662576D02*
X171440993Y-59754004D01*
X171440993Y-59754004D02*
X171380041Y-59814957D01*
X171380041Y-59814957D02*
X171319088Y-59845433D01*
X172080993Y-59662576D02*
X172141946Y-59662576D01*
X172141946Y-59662576D02*
X172202898Y-59693052D01*
X172202898Y-59693052D02*
X172233374Y-59723528D01*
X172233374Y-59723528D02*
X172263850Y-59784480D01*
X172263850Y-59784480D02*
X172294327Y-59906385D01*
X172294327Y-59906385D02*
X172294327Y-60058766D01*
X172294327Y-60058766D02*
X172263850Y-60180671D01*
X172263850Y-60180671D02*
X172233374Y-60241623D01*
X172233374Y-60241623D02*
X172202898Y-60272100D01*
X172202898Y-60272100D02*
X172141946Y-60302576D01*
X172141946Y-60302576D02*
X172080993Y-60302576D01*
X172080993Y-60302576D02*
X172020041Y-60272100D01*
X172020041Y-60272100D02*
X171989565Y-60241623D01*
X171989565Y-60241623D02*
X171959088Y-60180671D01*
X171959088Y-60180671D02*
X171928612Y-60058766D01*
X171928612Y-60058766D02*
X171928612Y-59906385D01*
X171928612Y-59906385D02*
X171959088Y-59784480D01*
X171959088Y-59784480D02*
X171989565Y-59723528D01*
X171989565Y-59723528D02*
X172020041Y-59693052D01*
X172020041Y-59693052D02*
X172080993Y-59662576D01*
X161893012Y-52062576D02*
X162289203Y-52062576D01*
X162289203Y-52062576D02*
X162075869Y-52306385D01*
X162075869Y-52306385D02*
X162167298Y-52306385D01*
X162167298Y-52306385D02*
X162228250Y-52336861D01*
X162228250Y-52336861D02*
X162258726Y-52367338D01*
X162258726Y-52367338D02*
X162289203Y-52428290D01*
X162289203Y-52428290D02*
X162289203Y-52580671D01*
X162289203Y-52580671D02*
X162258726Y-52641623D01*
X162258726Y-52641623D02*
X162228250Y-52672100D01*
X162228250Y-52672100D02*
X162167298Y-52702576D01*
X162167298Y-52702576D02*
X161984441Y-52702576D01*
X161984441Y-52702576D02*
X161923488Y-52672100D01*
X161923488Y-52672100D02*
X161893012Y-52641623D01*
X162472060Y-52062576D02*
X162685393Y-52702576D01*
X162685393Y-52702576D02*
X162898727Y-52062576D01*
X163051107Y-52062576D02*
X163447298Y-52062576D01*
X163447298Y-52062576D02*
X163233964Y-52306385D01*
X163233964Y-52306385D02*
X163325393Y-52306385D01*
X163325393Y-52306385D02*
X163386345Y-52336861D01*
X163386345Y-52336861D02*
X163416821Y-52367338D01*
X163416821Y-52367338D02*
X163447298Y-52428290D01*
X163447298Y-52428290D02*
X163447298Y-52580671D01*
X163447298Y-52580671D02*
X163416821Y-52641623D01*
X163416821Y-52641623D02*
X163386345Y-52672100D01*
X163386345Y-52672100D02*
X163325393Y-52702576D01*
X163325393Y-52702576D02*
X163142536Y-52702576D01*
X163142536Y-52702576D02*
X163081583Y-52672100D01*
X163081583Y-52672100D02*
X163051107Y-52641623D01*
X165823664Y-47362576D02*
X165823664Y-47880671D01*
X165823664Y-47880671D02*
X165854141Y-47941623D01*
X165854141Y-47941623D02*
X165884617Y-47972100D01*
X165884617Y-47972100D02*
X165945569Y-48002576D01*
X165945569Y-48002576D02*
X166067474Y-48002576D01*
X166067474Y-48002576D02*
X166128426Y-47972100D01*
X166128426Y-47972100D02*
X166158903Y-47941623D01*
X166158903Y-47941623D02*
X166189379Y-47880671D01*
X166189379Y-47880671D02*
X166189379Y-47362576D01*
X166463664Y-47972100D02*
X166555093Y-48002576D01*
X166555093Y-48002576D02*
X166707474Y-48002576D01*
X166707474Y-48002576D02*
X166768426Y-47972100D01*
X166768426Y-47972100D02*
X166798902Y-47941623D01*
X166798902Y-47941623D02*
X166829379Y-47880671D01*
X166829379Y-47880671D02*
X166829379Y-47819719D01*
X166829379Y-47819719D02*
X166798902Y-47758766D01*
X166798902Y-47758766D02*
X166768426Y-47728290D01*
X166768426Y-47728290D02*
X166707474Y-47697814D01*
X166707474Y-47697814D02*
X166585569Y-47667338D01*
X166585569Y-47667338D02*
X166524617Y-47636861D01*
X166524617Y-47636861D02*
X166494140Y-47606385D01*
X166494140Y-47606385D02*
X166463664Y-47545433D01*
X166463664Y-47545433D02*
X166463664Y-47484480D01*
X166463664Y-47484480D02*
X166494140Y-47423528D01*
X166494140Y-47423528D02*
X166524617Y-47393052D01*
X166524617Y-47393052D02*
X166585569Y-47362576D01*
X166585569Y-47362576D02*
X166737950Y-47362576D01*
X166737950Y-47362576D02*
X166829379Y-47393052D01*
X167316998Y-47667338D02*
X167408426Y-47697814D01*
X167408426Y-47697814D02*
X167438903Y-47728290D01*
X167438903Y-47728290D02*
X167469379Y-47789242D01*
X167469379Y-47789242D02*
X167469379Y-47880671D01*
X167469379Y-47880671D02*
X167438903Y-47941623D01*
X167438903Y-47941623D02*
X167408426Y-47972100D01*
X167408426Y-47972100D02*
X167347474Y-48002576D01*
X167347474Y-48002576D02*
X167103664Y-48002576D01*
X167103664Y-48002576D02*
X167103664Y-47362576D01*
X167103664Y-47362576D02*
X167316998Y-47362576D01*
X167316998Y-47362576D02*
X167377950Y-47393052D01*
X167377950Y-47393052D02*
X167408426Y-47423528D01*
X167408426Y-47423528D02*
X167438903Y-47484480D01*
X167438903Y-47484480D02*
X167438903Y-47545433D01*
X167438903Y-47545433D02*
X167408426Y-47606385D01*
X167408426Y-47606385D02*
X167377950Y-47636861D01*
X167377950Y-47636861D02*
X167316998Y-47667338D01*
X167316998Y-47667338D02*
X167103664Y-47667338D01*
X168109379Y-47941623D02*
X168078903Y-47972100D01*
X168078903Y-47972100D02*
X167987474Y-48002576D01*
X167987474Y-48002576D02*
X167926522Y-48002576D01*
X167926522Y-48002576D02*
X167835093Y-47972100D01*
X167835093Y-47972100D02*
X167774141Y-47911147D01*
X167774141Y-47911147D02*
X167743664Y-47850195D01*
X167743664Y-47850195D02*
X167713188Y-47728290D01*
X167713188Y-47728290D02*
X167713188Y-47636861D01*
X167713188Y-47636861D02*
X167743664Y-47514957D01*
X167743664Y-47514957D02*
X167774141Y-47454004D01*
X167774141Y-47454004D02*
X167835093Y-47393052D01*
X167835093Y-47393052D02*
X167926522Y-47362576D01*
X167926522Y-47362576D02*
X167987474Y-47362576D01*
X167987474Y-47362576D02*
X168078903Y-47393052D01*
X168078903Y-47393052D02*
X168109379Y-47423528D01*
X170569403Y-57093052D02*
X170508450Y-57062576D01*
X170508450Y-57062576D02*
X170417022Y-57062576D01*
X170417022Y-57062576D02*
X170325593Y-57093052D01*
X170325593Y-57093052D02*
X170264641Y-57154004D01*
X170264641Y-57154004D02*
X170234164Y-57214957D01*
X170234164Y-57214957D02*
X170203688Y-57336861D01*
X170203688Y-57336861D02*
X170203688Y-57428290D01*
X170203688Y-57428290D02*
X170234164Y-57550195D01*
X170234164Y-57550195D02*
X170264641Y-57611147D01*
X170264641Y-57611147D02*
X170325593Y-57672100D01*
X170325593Y-57672100D02*
X170417022Y-57702576D01*
X170417022Y-57702576D02*
X170477974Y-57702576D01*
X170477974Y-57702576D02*
X170569403Y-57672100D01*
X170569403Y-57672100D02*
X170599879Y-57641623D01*
X170599879Y-57641623D02*
X170599879Y-57428290D01*
X170599879Y-57428290D02*
X170477974Y-57428290D01*
X170874164Y-57702576D02*
X170874164Y-57062576D01*
X170874164Y-57062576D02*
X171117974Y-57062576D01*
X171117974Y-57062576D02*
X171178926Y-57093052D01*
X171178926Y-57093052D02*
X171209403Y-57123528D01*
X171209403Y-57123528D02*
X171239879Y-57184480D01*
X171239879Y-57184480D02*
X171239879Y-57275909D01*
X171239879Y-57275909D02*
X171209403Y-57336861D01*
X171209403Y-57336861D02*
X171178926Y-57367338D01*
X171178926Y-57367338D02*
X171117974Y-57397814D01*
X171117974Y-57397814D02*
X170874164Y-57397814D01*
X171849403Y-57702576D02*
X171483688Y-57702576D01*
X171666545Y-57702576D02*
X171666545Y-57062576D01*
X171666545Y-57062576D02*
X171605593Y-57154004D01*
X171605593Y-57154004D02*
X171544641Y-57214957D01*
X171544641Y-57214957D02*
X171483688Y-57245433D01*
X172458927Y-57702576D02*
X172093212Y-57702576D01*
X172276069Y-57702576D02*
X172276069Y-57062576D01*
X172276069Y-57062576D02*
X172215117Y-57154004D01*
X172215117Y-57154004D02*
X172154165Y-57214957D01*
X172154165Y-57214957D02*
X172093212Y-57245433D01*
X162471103Y-54592952D02*
X162410150Y-54562476D01*
X162410150Y-54562476D02*
X162318722Y-54562476D01*
X162318722Y-54562476D02*
X162227293Y-54592952D01*
X162227293Y-54592952D02*
X162166341Y-54653904D01*
X162166341Y-54653904D02*
X162135864Y-54714857D01*
X162135864Y-54714857D02*
X162105388Y-54836761D01*
X162105388Y-54836761D02*
X162105388Y-54928190D01*
X162105388Y-54928190D02*
X162135864Y-55050095D01*
X162135864Y-55050095D02*
X162166341Y-55111047D01*
X162166341Y-55111047D02*
X162227293Y-55172000D01*
X162227293Y-55172000D02*
X162318722Y-55202476D01*
X162318722Y-55202476D02*
X162379674Y-55202476D01*
X162379674Y-55202476D02*
X162471103Y-55172000D01*
X162471103Y-55172000D02*
X162501579Y-55141523D01*
X162501579Y-55141523D02*
X162501579Y-54928190D01*
X162501579Y-54928190D02*
X162379674Y-54928190D01*
X162775864Y-55202476D02*
X162775864Y-54562476D01*
X162775864Y-54562476D02*
X163019674Y-54562476D01*
X163019674Y-54562476D02*
X163080626Y-54592952D01*
X163080626Y-54592952D02*
X163111103Y-54623428D01*
X163111103Y-54623428D02*
X163141579Y-54684380D01*
X163141579Y-54684380D02*
X163141579Y-54775809D01*
X163141579Y-54775809D02*
X163111103Y-54836761D01*
X163111103Y-54836761D02*
X163080626Y-54867238D01*
X163080626Y-54867238D02*
X163019674Y-54897714D01*
X163019674Y-54897714D02*
X162775864Y-54897714D01*
X163751103Y-55202476D02*
X163385388Y-55202476D01*
X163568245Y-55202476D02*
X163568245Y-54562476D01*
X163568245Y-54562476D02*
X163507293Y-54653904D01*
X163507293Y-54653904D02*
X163446341Y-54714857D01*
X163446341Y-54714857D02*
X163385388Y-54745333D01*
X170582136Y-47062576D02*
X170947850Y-47062576D01*
X170764993Y-47702576D02*
X170764993Y-47062576D01*
X171100231Y-47062576D02*
X171526898Y-47702576D01*
X171526898Y-47062576D02*
X171100231Y-47702576D01*
X162307003Y-49567052D02*
X162246050Y-49536576D01*
X162246050Y-49536576D02*
X162154622Y-49536576D01*
X162154622Y-49536576D02*
X162063193Y-49567052D01*
X162063193Y-49567052D02*
X162002241Y-49628004D01*
X162002241Y-49628004D02*
X161971764Y-49688957D01*
X161971764Y-49688957D02*
X161941288Y-49810861D01*
X161941288Y-49810861D02*
X161941288Y-49902290D01*
X161941288Y-49902290D02*
X161971764Y-50024195D01*
X161971764Y-50024195D02*
X162002241Y-50085147D01*
X162002241Y-50085147D02*
X162063193Y-50146100D01*
X162063193Y-50146100D02*
X162154622Y-50176576D01*
X162154622Y-50176576D02*
X162215574Y-50176576D01*
X162215574Y-50176576D02*
X162307003Y-50146100D01*
X162307003Y-50146100D02*
X162337479Y-50115623D01*
X162337479Y-50115623D02*
X162337479Y-49902290D01*
X162337479Y-49902290D02*
X162215574Y-49902290D01*
X162611764Y-50176576D02*
X162611764Y-49536576D01*
X162611764Y-49536576D02*
X162977479Y-50176576D01*
X162977479Y-50176576D02*
X162977479Y-49536576D01*
X163282240Y-50176576D02*
X163282240Y-49536576D01*
X163282240Y-49536576D02*
X163434621Y-49536576D01*
X163434621Y-49536576D02*
X163526050Y-49567052D01*
X163526050Y-49567052D02*
X163587002Y-49628004D01*
X163587002Y-49628004D02*
X163617479Y-49688957D01*
X163617479Y-49688957D02*
X163647955Y-49810861D01*
X163647955Y-49810861D02*
X163647955Y-49902290D01*
X163647955Y-49902290D02*
X163617479Y-50024195D01*
X163617479Y-50024195D02*
X163587002Y-50085147D01*
X163587002Y-50085147D02*
X163526050Y-50146100D01*
X163526050Y-50146100D02*
X163434621Y-50176576D01*
X163434621Y-50176576D02*
X163282240Y-50176576D01*
X170404803Y-52093052D02*
X170343850Y-52062576D01*
X170343850Y-52062576D02*
X170252422Y-52062576D01*
X170252422Y-52062576D02*
X170160993Y-52093052D01*
X170160993Y-52093052D02*
X170100041Y-52154004D01*
X170100041Y-52154004D02*
X170069564Y-52214957D01*
X170069564Y-52214957D02*
X170039088Y-52336861D01*
X170039088Y-52336861D02*
X170039088Y-52428290D01*
X170039088Y-52428290D02*
X170069564Y-52550195D01*
X170069564Y-52550195D02*
X170100041Y-52611147D01*
X170100041Y-52611147D02*
X170160993Y-52672100D01*
X170160993Y-52672100D02*
X170252422Y-52702576D01*
X170252422Y-52702576D02*
X170313374Y-52702576D01*
X170313374Y-52702576D02*
X170404803Y-52672100D01*
X170404803Y-52672100D02*
X170435279Y-52641623D01*
X170435279Y-52641623D02*
X170435279Y-52428290D01*
X170435279Y-52428290D02*
X170313374Y-52428290D01*
X170709564Y-52702576D02*
X170709564Y-52062576D01*
X170709564Y-52062576D02*
X170953374Y-52062576D01*
X170953374Y-52062576D02*
X171014326Y-52093052D01*
X171014326Y-52093052D02*
X171044803Y-52123528D01*
X171044803Y-52123528D02*
X171075279Y-52184480D01*
X171075279Y-52184480D02*
X171075279Y-52275909D01*
X171075279Y-52275909D02*
X171044803Y-52336861D01*
X171044803Y-52336861D02*
X171014326Y-52367338D01*
X171014326Y-52367338D02*
X170953374Y-52397814D01*
X170953374Y-52397814D02*
X170709564Y-52397814D01*
X171684803Y-52702576D02*
X171319088Y-52702576D01*
X171501945Y-52702576D02*
X171501945Y-52062576D01*
X171501945Y-52062576D02*
X171440993Y-52154004D01*
X171440993Y-52154004D02*
X171380041Y-52214957D01*
X171380041Y-52214957D02*
X171319088Y-52245433D01*
X171898136Y-52062576D02*
X172294327Y-52062576D01*
X172294327Y-52062576D02*
X172080993Y-52306385D01*
X172080993Y-52306385D02*
X172172422Y-52306385D01*
X172172422Y-52306385D02*
X172233374Y-52336861D01*
X172233374Y-52336861D02*
X172263850Y-52367338D01*
X172263850Y-52367338D02*
X172294327Y-52428290D01*
X172294327Y-52428290D02*
X172294327Y-52580671D01*
X172294327Y-52580671D02*
X172263850Y-52641623D01*
X172263850Y-52641623D02*
X172233374Y-52672100D01*
X172233374Y-52672100D02*
X172172422Y-52702576D01*
X172172422Y-52702576D02*
X171989565Y-52702576D01*
X171989565Y-52702576D02*
X171928612Y-52672100D01*
X171928612Y-52672100D02*
X171898136Y-52641623D01*
X170634103Y-62193152D02*
X170573150Y-62162676D01*
X170573150Y-62162676D02*
X170481722Y-62162676D01*
X170481722Y-62162676D02*
X170390293Y-62193152D01*
X170390293Y-62193152D02*
X170329341Y-62254104D01*
X170329341Y-62254104D02*
X170298864Y-62315057D01*
X170298864Y-62315057D02*
X170268388Y-62436961D01*
X170268388Y-62436961D02*
X170268388Y-62528390D01*
X170268388Y-62528390D02*
X170298864Y-62650295D01*
X170298864Y-62650295D02*
X170329341Y-62711247D01*
X170329341Y-62711247D02*
X170390293Y-62772200D01*
X170390293Y-62772200D02*
X170481722Y-62802676D01*
X170481722Y-62802676D02*
X170542674Y-62802676D01*
X170542674Y-62802676D02*
X170634103Y-62772200D01*
X170634103Y-62772200D02*
X170664579Y-62741723D01*
X170664579Y-62741723D02*
X170664579Y-62528390D01*
X170664579Y-62528390D02*
X170542674Y-62528390D01*
X170938864Y-62802676D02*
X170938864Y-62162676D01*
X170938864Y-62162676D02*
X171182674Y-62162676D01*
X171182674Y-62162676D02*
X171243626Y-62193152D01*
X171243626Y-62193152D02*
X171274103Y-62223628D01*
X171274103Y-62223628D02*
X171304579Y-62284580D01*
X171304579Y-62284580D02*
X171304579Y-62376009D01*
X171304579Y-62376009D02*
X171274103Y-62436961D01*
X171274103Y-62436961D02*
X171243626Y-62467438D01*
X171243626Y-62467438D02*
X171182674Y-62497914D01*
X171182674Y-62497914D02*
X170938864Y-62497914D01*
X171609341Y-62802676D02*
X171731245Y-62802676D01*
X171731245Y-62802676D02*
X171792198Y-62772200D01*
X171792198Y-62772200D02*
X171822674Y-62741723D01*
X171822674Y-62741723D02*
X171883626Y-62650295D01*
X171883626Y-62650295D02*
X171914103Y-62528390D01*
X171914103Y-62528390D02*
X171914103Y-62284580D01*
X171914103Y-62284580D02*
X171883626Y-62223628D01*
X171883626Y-62223628D02*
X171853150Y-62193152D01*
X171853150Y-62193152D02*
X171792198Y-62162676D01*
X171792198Y-62162676D02*
X171670293Y-62162676D01*
X171670293Y-62162676D02*
X171609341Y-62193152D01*
X171609341Y-62193152D02*
X171578864Y-62223628D01*
X171578864Y-62223628D02*
X171548388Y-62284580D01*
X171548388Y-62284580D02*
X171548388Y-62436961D01*
X171548388Y-62436961D02*
X171578864Y-62497914D01*
X171578864Y-62497914D02*
X171609341Y-62528390D01*
X171609341Y-62528390D02*
X171670293Y-62558866D01*
X171670293Y-62558866D02*
X171792198Y-62558866D01*
X171792198Y-62558866D02*
X171853150Y-62528390D01*
X171853150Y-62528390D02*
X171883626Y-62497914D01*
X171883626Y-62497914D02*
X171914103Y-62436961D01*
X126994676Y-46538666D02*
X126689914Y-46752000D01*
X126994676Y-46904381D02*
X126354676Y-46904381D01*
X126354676Y-46904381D02*
X126354676Y-46660571D01*
X126354676Y-46660571D02*
X126385152Y-46599619D01*
X126385152Y-46599619D02*
X126415628Y-46569142D01*
X126415628Y-46569142D02*
X126476580Y-46538666D01*
X126476580Y-46538666D02*
X126568009Y-46538666D01*
X126568009Y-46538666D02*
X126628961Y-46569142D01*
X126628961Y-46569142D02*
X126659438Y-46599619D01*
X126659438Y-46599619D02*
X126689914Y-46660571D01*
X126689914Y-46660571D02*
X126689914Y-46904381D01*
X126354676Y-46325333D02*
X126354676Y-45898666D01*
X126354676Y-45898666D02*
X126994676Y-46172952D01*
X109333333Y-54109580D02*
X109285714Y-54157200D01*
X109285714Y-54157200D02*
X109142857Y-54204819D01*
X109142857Y-54204819D02*
X109047619Y-54204819D01*
X109047619Y-54204819D02*
X108904762Y-54157200D01*
X108904762Y-54157200D02*
X108809524Y-54061961D01*
X108809524Y-54061961D02*
X108761905Y-53966723D01*
X108761905Y-53966723D02*
X108714286Y-53776247D01*
X108714286Y-53776247D02*
X108714286Y-53633390D01*
X108714286Y-53633390D02*
X108761905Y-53442914D01*
X108761905Y-53442914D02*
X108809524Y-53347676D01*
X108809524Y-53347676D02*
X108904762Y-53252438D01*
X108904762Y-53252438D02*
X109047619Y-53204819D01*
X109047619Y-53204819D02*
X109142857Y-53204819D01*
X109142857Y-53204819D02*
X109285714Y-53252438D01*
X109285714Y-53252438D02*
X109333333Y-53300057D01*
X109714286Y-53300057D02*
X109761905Y-53252438D01*
X109761905Y-53252438D02*
X109857143Y-53204819D01*
X109857143Y-53204819D02*
X110095238Y-53204819D01*
X110095238Y-53204819D02*
X110190476Y-53252438D01*
X110190476Y-53252438D02*
X110238095Y-53300057D01*
X110238095Y-53300057D02*
X110285714Y-53395295D01*
X110285714Y-53395295D02*
X110285714Y-53490533D01*
X110285714Y-53490533D02*
X110238095Y-53633390D01*
X110238095Y-53633390D02*
X109666667Y-54204819D01*
X109666667Y-54204819D02*
X110285714Y-54204819D01*
X103932676Y-64038666D02*
X103627914Y-64252000D01*
X103932676Y-64404381D02*
X103292676Y-64404381D01*
X103292676Y-64404381D02*
X103292676Y-64160571D01*
X103292676Y-64160571D02*
X103323152Y-64099619D01*
X103323152Y-64099619D02*
X103353628Y-64069142D01*
X103353628Y-64069142D02*
X103414580Y-64038666D01*
X103414580Y-64038666D02*
X103506009Y-64038666D01*
X103506009Y-64038666D02*
X103566961Y-64069142D01*
X103566961Y-64069142D02*
X103597438Y-64099619D01*
X103597438Y-64099619D02*
X103627914Y-64160571D01*
X103627914Y-64160571D02*
X103627914Y-64404381D01*
X103506009Y-63490095D02*
X103932676Y-63490095D01*
X103262200Y-63642476D02*
X103719342Y-63794857D01*
X103719342Y-63794857D02*
X103719342Y-63398666D01*
X88416666Y-58754819D02*
X88416666Y-59469104D01*
X88416666Y-59469104D02*
X88369047Y-59611961D01*
X88369047Y-59611961D02*
X88273809Y-59707200D01*
X88273809Y-59707200D02*
X88130952Y-59754819D01*
X88130952Y-59754819D02*
X88035714Y-59754819D01*
X89416666Y-59754819D02*
X88845238Y-59754819D01*
X89130952Y-59754819D02*
X89130952Y-58754819D01*
X89130952Y-58754819D02*
X89035714Y-58897676D01*
X89035714Y-58897676D02*
X88940476Y-58992914D01*
X88940476Y-58992914D02*
X88845238Y-59040533D01*
X115432676Y-64038666D02*
X115127914Y-64252000D01*
X115432676Y-64404381D02*
X114792676Y-64404381D01*
X114792676Y-64404381D02*
X114792676Y-64160571D01*
X114792676Y-64160571D02*
X114823152Y-64099619D01*
X114823152Y-64099619D02*
X114853628Y-64069142D01*
X114853628Y-64069142D02*
X114914580Y-64038666D01*
X114914580Y-64038666D02*
X115006009Y-64038666D01*
X115006009Y-64038666D02*
X115066961Y-64069142D01*
X115066961Y-64069142D02*
X115097438Y-64099619D01*
X115097438Y-64099619D02*
X115127914Y-64160571D01*
X115127914Y-64160571D02*
X115127914Y-64404381D01*
X114792676Y-63490095D02*
X114792676Y-63612000D01*
X114792676Y-63612000D02*
X114823152Y-63672952D01*
X114823152Y-63672952D02*
X114853628Y-63703428D01*
X114853628Y-63703428D02*
X114945057Y-63764381D01*
X114945057Y-63764381D02*
X115066961Y-63794857D01*
X115066961Y-63794857D02*
X115310771Y-63794857D01*
X115310771Y-63794857D02*
X115371723Y-63764381D01*
X115371723Y-63764381D02*
X115402200Y-63733904D01*
X115402200Y-63733904D02*
X115432676Y-63672952D01*
X115432676Y-63672952D02*
X115432676Y-63551047D01*
X115432676Y-63551047D02*
X115402200Y-63490095D01*
X115402200Y-63490095D02*
X115371723Y-63459619D01*
X115371723Y-63459619D02*
X115310771Y-63429142D01*
X115310771Y-63429142D02*
X115158390Y-63429142D01*
X115158390Y-63429142D02*
X115097438Y-63459619D01*
X115097438Y-63459619D02*
X115066961Y-63490095D01*
X115066961Y-63490095D02*
X115036485Y-63551047D01*
X115036485Y-63551047D02*
X115036485Y-63672952D01*
X115036485Y-63672952D02*
X115066961Y-63733904D01*
X115066961Y-63733904D02*
X115097438Y-63764381D01*
X115097438Y-63764381D02*
X115158390Y-63794857D01*
X120400661Y-57744957D02*
X120305423Y-57697338D01*
X120305423Y-57697338D02*
X120210185Y-57602100D01*
X120210185Y-57602100D02*
X120067328Y-57459242D01*
X120067328Y-57459242D02*
X119972090Y-57411623D01*
X119972090Y-57411623D02*
X119876852Y-57411623D01*
X119924471Y-57649719D02*
X119829233Y-57602100D01*
X119829233Y-57602100D02*
X119733995Y-57506861D01*
X119733995Y-57506861D02*
X119686376Y-57316385D01*
X119686376Y-57316385D02*
X119686376Y-56983052D01*
X119686376Y-56983052D02*
X119733995Y-56792576D01*
X119733995Y-56792576D02*
X119829233Y-56697338D01*
X119829233Y-56697338D02*
X119924471Y-56649719D01*
X119924471Y-56649719D02*
X120114947Y-56649719D01*
X120114947Y-56649719D02*
X120210185Y-56697338D01*
X120210185Y-56697338D02*
X120305423Y-56792576D01*
X120305423Y-56792576D02*
X120353042Y-56983052D01*
X120353042Y-56983052D02*
X120353042Y-57316385D01*
X120353042Y-57316385D02*
X120305423Y-57506861D01*
X120305423Y-57506861D02*
X120210185Y-57602100D01*
X120210185Y-57602100D02*
X120114947Y-57649719D01*
X120114947Y-57649719D02*
X119924471Y-57649719D01*
X120733995Y-56744957D02*
X120781614Y-56697338D01*
X120781614Y-56697338D02*
X120876852Y-56649719D01*
X120876852Y-56649719D02*
X121114947Y-56649719D01*
X121114947Y-56649719D02*
X121210185Y-56697338D01*
X121210185Y-56697338D02*
X121257804Y-56744957D01*
X121257804Y-56744957D02*
X121305423Y-56840195D01*
X121305423Y-56840195D02*
X121305423Y-56935433D01*
X121305423Y-56935433D02*
X121257804Y-57078290D01*
X121257804Y-57078290D02*
X120686376Y-57649719D01*
X120686376Y-57649719D02*
X121305423Y-57649719D01*
X101404761Y-57550057D02*
X101309523Y-57502438D01*
X101309523Y-57502438D02*
X101214285Y-57407200D01*
X101214285Y-57407200D02*
X101071428Y-57264342D01*
X101071428Y-57264342D02*
X100976190Y-57216723D01*
X100976190Y-57216723D02*
X100880952Y-57216723D01*
X100928571Y-57454819D02*
X100833333Y-57407200D01*
X100833333Y-57407200D02*
X100738095Y-57311961D01*
X100738095Y-57311961D02*
X100690476Y-57121485D01*
X100690476Y-57121485D02*
X100690476Y-56788152D01*
X100690476Y-56788152D02*
X100738095Y-56597676D01*
X100738095Y-56597676D02*
X100833333Y-56502438D01*
X100833333Y-56502438D02*
X100928571Y-56454819D01*
X100928571Y-56454819D02*
X101119047Y-56454819D01*
X101119047Y-56454819D02*
X101214285Y-56502438D01*
X101214285Y-56502438D02*
X101309523Y-56597676D01*
X101309523Y-56597676D02*
X101357142Y-56788152D01*
X101357142Y-56788152D02*
X101357142Y-57121485D01*
X101357142Y-57121485D02*
X101309523Y-57311961D01*
X101309523Y-57311961D02*
X101214285Y-57407200D01*
X101214285Y-57407200D02*
X101119047Y-57454819D01*
X101119047Y-57454819D02*
X100928571Y-57454819D01*
X102309523Y-57454819D02*
X101738095Y-57454819D01*
X102023809Y-57454819D02*
X102023809Y-56454819D01*
X102023809Y-56454819D02*
X101928571Y-56597676D01*
X101928571Y-56597676D02*
X101833333Y-56692914D01*
X101833333Y-56692914D02*
X101738095Y-56740533D01*
X138754819Y-63623333D02*
X139469104Y-63623333D01*
X139469104Y-63623333D02*
X139611961Y-63670952D01*
X139611961Y-63670952D02*
X139707200Y-63766190D01*
X139707200Y-63766190D02*
X139754819Y-63909047D01*
X139754819Y-63909047D02*
X139754819Y-64004285D01*
X138754819Y-62670952D02*
X138754819Y-63147142D01*
X138754819Y-63147142D02*
X139231009Y-63194761D01*
X139231009Y-63194761D02*
X139183390Y-63147142D01*
X139183390Y-63147142D02*
X139135771Y-63051904D01*
X139135771Y-63051904D02*
X139135771Y-62813809D01*
X139135771Y-62813809D02*
X139183390Y-62718571D01*
X139183390Y-62718571D02*
X139231009Y-62670952D01*
X139231009Y-62670952D02*
X139326247Y-62623333D01*
X139326247Y-62623333D02*
X139564342Y-62623333D01*
X139564342Y-62623333D02*
X139659580Y-62670952D01*
X139659580Y-62670952D02*
X139707200Y-62718571D01*
X139707200Y-62718571D02*
X139754819Y-62813809D01*
X139754819Y-62813809D02*
X139754819Y-63051904D01*
X139754819Y-63051904D02*
X139707200Y-63147142D01*
X139707200Y-63147142D02*
X139659580Y-63194761D01*
X109994676Y-46538666D02*
X109689914Y-46752000D01*
X109994676Y-46904381D02*
X109354676Y-46904381D01*
X109354676Y-46904381D02*
X109354676Y-46660571D01*
X109354676Y-46660571D02*
X109385152Y-46599619D01*
X109385152Y-46599619D02*
X109415628Y-46569142D01*
X109415628Y-46569142D02*
X109476580Y-46538666D01*
X109476580Y-46538666D02*
X109568009Y-46538666D01*
X109568009Y-46538666D02*
X109628961Y-46569142D01*
X109628961Y-46569142D02*
X109659438Y-46599619D01*
X109659438Y-46599619D02*
X109689914Y-46660571D01*
X109689914Y-46660571D02*
X109689914Y-46904381D01*
X109354676Y-46325333D02*
X109354676Y-45929142D01*
X109354676Y-45929142D02*
X109598485Y-46142476D01*
X109598485Y-46142476D02*
X109598485Y-46051047D01*
X109598485Y-46051047D02*
X109628961Y-45990095D01*
X109628961Y-45990095D02*
X109659438Y-45959619D01*
X109659438Y-45959619D02*
X109720390Y-45929142D01*
X109720390Y-45929142D02*
X109872771Y-45929142D01*
X109872771Y-45929142D02*
X109933723Y-45959619D01*
X109933723Y-45959619D02*
X109964200Y-45990095D01*
X109964200Y-45990095D02*
X109994676Y-46051047D01*
X109994676Y-46051047D02*
X109994676Y-46233904D01*
X109994676Y-46233904D02*
X109964200Y-46294857D01*
X109964200Y-46294857D02*
X109933723Y-46325333D01*
X132666666Y-46454819D02*
X132666666Y-47169104D01*
X132666666Y-47169104D02*
X132619047Y-47311961D01*
X132619047Y-47311961D02*
X132523809Y-47407200D01*
X132523809Y-47407200D02*
X132380952Y-47454819D01*
X132380952Y-47454819D02*
X132285714Y-47454819D01*
X133095238Y-46550057D02*
X133142857Y-46502438D01*
X133142857Y-46502438D02*
X133238095Y-46454819D01*
X133238095Y-46454819D02*
X133476190Y-46454819D01*
X133476190Y-46454819D02*
X133571428Y-46502438D01*
X133571428Y-46502438D02*
X133619047Y-46550057D01*
X133619047Y-46550057D02*
X133666666Y-46645295D01*
X133666666Y-46645295D02*
X133666666Y-46740533D01*
X133666666Y-46740533D02*
X133619047Y-46883390D01*
X133619047Y-46883390D02*
X133047619Y-47454819D01*
X133047619Y-47454819D02*
X133666666Y-47454819D01*
D12*
X125874383Y-55639519D02*
X125855635Y-55658267D01*
X125855635Y-55658267D02*
X125799392Y-55677014D01*
X125799392Y-55677014D02*
X125761897Y-55677014D01*
X125761897Y-55677014D02*
X125705654Y-55658267D01*
X125705654Y-55658267D02*
X125668159Y-55620771D01*
X125668159Y-55620771D02*
X125649411Y-55583276D01*
X125649411Y-55583276D02*
X125630663Y-55508285D01*
X125630663Y-55508285D02*
X125630663Y-55452042D01*
X125630663Y-55452042D02*
X125649411Y-55377052D01*
X125649411Y-55377052D02*
X125668159Y-55339556D01*
X125668159Y-55339556D02*
X125705654Y-55302061D01*
X125705654Y-55302061D02*
X125761897Y-55283313D01*
X125761897Y-55283313D02*
X125799392Y-55283313D01*
X125799392Y-55283313D02*
X125855635Y-55302061D01*
X125855635Y-55302061D02*
X125874383Y-55320809D01*
X126230589Y-55283313D02*
X126043112Y-55283313D01*
X126043112Y-55283313D02*
X126024364Y-55470790D01*
X126024364Y-55470790D02*
X126043112Y-55452042D01*
X126043112Y-55452042D02*
X126080607Y-55433295D01*
X126080607Y-55433295D02*
X126174346Y-55433295D01*
X126174346Y-55433295D02*
X126211841Y-55452042D01*
X126211841Y-55452042D02*
X126230589Y-55470790D01*
X126230589Y-55470790D02*
X126249336Y-55508285D01*
X126249336Y-55508285D02*
X126249336Y-55602024D01*
X126249336Y-55602024D02*
X126230589Y-55639519D01*
X126230589Y-55639519D02*
X126211841Y-55658267D01*
X126211841Y-55658267D02*
X126174346Y-55677014D01*
X126174346Y-55677014D02*
X126080607Y-55677014D01*
X126080607Y-55677014D02*
X126043112Y-55658267D01*
X126043112Y-55658267D02*
X126024364Y-55639519D01*
D11*
X88333333Y-62109580D02*
X88285714Y-62157200D01*
X88285714Y-62157200D02*
X88142857Y-62204819D01*
X88142857Y-62204819D02*
X88047619Y-62204819D01*
X88047619Y-62204819D02*
X87904762Y-62157200D01*
X87904762Y-62157200D02*
X87809524Y-62061961D01*
X87809524Y-62061961D02*
X87761905Y-61966723D01*
X87761905Y-61966723D02*
X87714286Y-61776247D01*
X87714286Y-61776247D02*
X87714286Y-61633390D01*
X87714286Y-61633390D02*
X87761905Y-61442914D01*
X87761905Y-61442914D02*
X87809524Y-61347676D01*
X87809524Y-61347676D02*
X87904762Y-61252438D01*
X87904762Y-61252438D02*
X88047619Y-61204819D01*
X88047619Y-61204819D02*
X88142857Y-61204819D01*
X88142857Y-61204819D02*
X88285714Y-61252438D01*
X88285714Y-61252438D02*
X88333333Y-61300057D01*
X89285714Y-62204819D02*
X88714286Y-62204819D01*
X89000000Y-62204819D02*
X89000000Y-61204819D01*
X89000000Y-61204819D02*
X88904762Y-61347676D01*
X88904762Y-61347676D02*
X88809524Y-61442914D01*
X88809524Y-61442914D02*
X88714286Y-61490533D01*
D14*
X153140000Y-65402500D02*
X153140000Y-61597500D01*
X153140000Y-61597500D02*
X154860000Y-61597500D01*
X154860000Y-61597500D02*
X154860000Y-65402500D01*
X154860000Y-65402500D02*
X153140000Y-65402500D01*
D13*
X154100000Y-68500000D02*
G75*
G02*
X153900000Y-68500000I-100000J0D01*
G01*
X153900000Y-68500000D02*
G75*
G02*
X154100000Y-68500000I100000J0D01*
G01*
D14*
X149360000Y-61597500D02*
X149360000Y-65402500D01*
X149360000Y-65402500D02*
X147640000Y-65402500D01*
X147640000Y-65402500D02*
X147640000Y-61597500D01*
X147640000Y-61597500D02*
X149360000Y-61597500D01*
D13*
X148600000Y-58500000D02*
G75*
G02*
X148400000Y-58500000I-100000J0D01*
G01*
X148400000Y-58500000D02*
G75*
G02*
X148600000Y-58500000I100000J0D01*
G01*
D14*
X154860000Y-46597500D02*
X154860000Y-50402500D01*
X154860000Y-50402500D02*
X153140000Y-50402500D01*
X153140000Y-50402500D02*
X153140000Y-46597500D01*
X153140000Y-46597500D02*
X154860000Y-46597500D01*
D13*
X154100000Y-43500000D02*
G75*
G02*
X153900000Y-43500000I-100000J0D01*
G01*
X153900000Y-43500000D02*
G75*
G02*
X154100000Y-43500000I100000J0D01*
G01*
D14*
X147640000Y-50402500D02*
X147640000Y-46597500D01*
X147640000Y-46597500D02*
X149360000Y-46597500D01*
X149360000Y-46597500D02*
X149360000Y-50402500D01*
X149360000Y-50402500D02*
X147640000Y-50402500D01*
D13*
X148600000Y-53500000D02*
G75*
G02*
X148400000Y-53500000I-100000J0D01*
G01*
X148400000Y-53500000D02*
G75*
G02*
X148600000Y-53500000I100000J0D01*
G01*
D14*
X118138000Y-63720000D02*
X118138000Y-65280000D01*
X119738000Y-63720000D02*
X119738000Y-65280000D01*
X124538000Y-63980000D02*
X124538000Y-65020000D01*
X126338000Y-63980000D02*
X126338000Y-65020000D01*
X115700000Y-46220000D02*
X115700000Y-47780000D01*
X117300000Y-46220000D02*
X117300000Y-47780000D01*
X96638000Y-63720000D02*
X96638000Y-65280000D01*
X98238000Y-63720000D02*
X98238000Y-65280000D01*
X96200000Y-46220000D02*
X96200000Y-47780000D01*
X97800000Y-46220000D02*
X97800000Y-47780000D01*
X106038000Y-63980000D02*
X106038000Y-65020000D01*
X107838000Y-63980000D02*
X107838000Y-65020000D01*
D13*
X157968600Y-45290000D02*
X175968600Y-45290000D01*
X175968600Y-68790100D01*
X157968600Y-68790100D01*
X157968600Y-45290000D01*
D14*
X124200000Y-46220000D02*
X124200000Y-47780000D01*
X125800000Y-46220000D02*
X125800000Y-47780000D01*
D15*
X112120000Y-57500000D02*
G75*
G02*
X106880000Y-57500000I-2620000J0D01*
G01*
X106880000Y-57500000D02*
G75*
G02*
X112120000Y-57500000I2620000J0D01*
G01*
D14*
X101138000Y-63720000D02*
X101138000Y-65280000D01*
X102738000Y-63720000D02*
X102738000Y-65280000D01*
D15*
X84890000Y-54190000D02*
X84890000Y-58210000D01*
X84890000Y-55690000D02*
X85890000Y-55690000D01*
X84890000Y-58210000D02*
X92610000Y-58210000D01*
X85390000Y-56500000D02*
X84890000Y-56500000D01*
X85390000Y-57710000D02*
X85390000Y-56500000D01*
X85890000Y-55690000D02*
X85890000Y-54190000D01*
X91610000Y-55690000D02*
X91610000Y-54190000D01*
X92110000Y-56500000D02*
X92110000Y-57710000D01*
X92110000Y-57710000D02*
X85390000Y-57710000D01*
X92610000Y-54190000D02*
X84890000Y-54190000D01*
X92610000Y-55690000D02*
X91610000Y-55690000D01*
X92610000Y-56500000D02*
X92110000Y-56500000D01*
X92610000Y-58210000D02*
X92610000Y-54190000D01*
X92910000Y-53890000D02*
X90410000Y-53890000D01*
X92910000Y-56390000D02*
X92910000Y-53890000D01*
D14*
X112638000Y-63720000D02*
X112638000Y-65280000D01*
X114238000Y-63720000D02*
X114238000Y-65280000D01*
X116980000Y-55550000D02*
X117650000Y-55550000D01*
X117650000Y-55550000D02*
X117650000Y-56380000D01*
X117650000Y-58450000D02*
X116980000Y-58450000D01*
X117650000Y-58450000D02*
X117650000Y-57620000D01*
D13*
X114830000Y-56020000D02*
G75*
G02*
X114630000Y-56020000I-100000J0D01*
G01*
X114630000Y-56020000D02*
G75*
G02*
X114830000Y-56020000I100000J0D01*
G01*
D14*
X97980000Y-55550000D02*
X98650000Y-55550000D01*
X98650000Y-55550000D02*
X98650000Y-56380000D01*
X98650000Y-58450000D02*
X97980000Y-58450000D01*
X98650000Y-58450000D02*
X98650000Y-57620000D01*
D13*
X95830000Y-56020000D02*
G75*
G02*
X95630000Y-56020000I-100000J0D01*
G01*
X95630000Y-56020000D02*
G75*
G02*
X95830000Y-56020000I100000J0D01*
G01*
D15*
X133390000Y-54590000D02*
X133390000Y-57090000D01*
X133690000Y-54890000D02*
X133690000Y-67610000D01*
X133690000Y-67610000D02*
X137710000Y-67610000D01*
X135190000Y-54890000D02*
X135190000Y-55890000D01*
X135190000Y-55890000D02*
X133690000Y-55890000D01*
X135190000Y-66610000D02*
X133690000Y-66610000D01*
X135190000Y-67610000D02*
X135190000Y-66610000D01*
X135890000Y-54590000D02*
X133390000Y-54590000D01*
X136000000Y-54890000D02*
X136000000Y-55390000D01*
X136000000Y-55390000D02*
X137210000Y-55390000D01*
X136000000Y-67110000D02*
X136000000Y-67610000D01*
X137210000Y-55390000D02*
X137210000Y-67110000D01*
X137210000Y-67110000D02*
X136000000Y-67110000D01*
X137710000Y-54890000D02*
X133690000Y-54890000D01*
X137710000Y-67610000D02*
X137710000Y-54890000D01*
D14*
X107200000Y-46220000D02*
X107200000Y-47780000D01*
X108800000Y-46220000D02*
X108800000Y-47780000D01*
D15*
X129140000Y-44990000D02*
X129140000Y-49010000D01*
X129140000Y-46490000D02*
X130140000Y-46490000D01*
X129140000Y-49010000D02*
X136860000Y-49010000D01*
X129640000Y-47300000D02*
X129140000Y-47300000D01*
X129640000Y-48510000D02*
X129640000Y-47300000D01*
X130140000Y-46490000D02*
X130140000Y-44990000D01*
X135860000Y-46490000D02*
X135860000Y-44990000D01*
X136360000Y-47300000D02*
X136360000Y-48510000D01*
X136360000Y-48510000D02*
X129640000Y-48510000D01*
X136860000Y-44990000D02*
X129140000Y-44990000D01*
X136860000Y-46490000D02*
X135860000Y-46490000D01*
X136860000Y-47300000D02*
X136360000Y-47300000D01*
X136860000Y-49010000D02*
X136860000Y-44990000D01*
X137160000Y-44690000D02*
X134660000Y-44690000D01*
X137160000Y-47190000D02*
X137160000Y-44690000D01*
D14*
X126480000Y-56100000D02*
X127520000Y-56100000D01*
X126480000Y-57900000D02*
X127520000Y-57900000D01*
D15*
X91120000Y-65500000D02*
G75*
G02*
X85880000Y-65500000I-2620000J0D01*
G01*
X85880000Y-65500000D02*
G75*
G02*
X91120000Y-65500000I2620000J0D01*
G01*
%LPC*%
D16*
X154000000Y-59731500D03*
D17*
X154000000Y-67268500D03*
D16*
X148500000Y-67268500D03*
D18*
X148500000Y-59731500D03*
D16*
X154000000Y-52268500D03*
D18*
X154000000Y-44731500D03*
D16*
X148500000Y-44731500D03*
D17*
X148500000Y-52268500D03*
D19*
X118938000Y-62775000D03*
X118938000Y-66225000D03*
D20*
X125438000Y-63050000D03*
X125438000Y-65950000D03*
D19*
X116500000Y-45275000D03*
X116500000Y-48725000D03*
X97438000Y-62775000D03*
X97438000Y-66225000D03*
X97000000Y-45275000D03*
X97000000Y-48725000D03*
D20*
X106938000Y-63050000D03*
X106938000Y-65950000D03*
D21*
X159381400Y-46839900D03*
X159398400Y-49379900D03*
X159398400Y-51919900D03*
X159398400Y-54459900D03*
X159398400Y-56999900D03*
X159398400Y-59539900D03*
X159398400Y-62079900D03*
X159398400Y-64619900D03*
X159398400Y-67159900D03*
X174584500Y-67159900D03*
X174584500Y-64619900D03*
X174584500Y-62079900D03*
X174584500Y-59539900D03*
X174584500Y-56999900D03*
X174584500Y-54459900D03*
X174584500Y-51919900D03*
X174584500Y-49379900D03*
X174618600Y-46839900D03*
D19*
X125000000Y-45275000D03*
X125000000Y-48725000D03*
D22*
X108500000Y-57500000D03*
X110500000Y-57500000D03*
D19*
X101938000Y-62775000D03*
X101938000Y-66225000D03*
D23*
X90000000Y-56500000D03*
D24*
X87500000Y-56500000D03*
D19*
X113438000Y-62775000D03*
X113438000Y-66225000D03*
D25*
X116000000Y-56050000D03*
X116000000Y-57950000D03*
X118000000Y-57000000D03*
X97000000Y-56050000D03*
X97000000Y-57950000D03*
X99000000Y-57000000D03*
D26*
X136000000Y-57500000D03*
D27*
X136000000Y-60000000D03*
X136000000Y-62500000D03*
X136000000Y-65000000D03*
D19*
X108000000Y-45275000D03*
X108000000Y-48725000D03*
D23*
X134250000Y-47300000D03*
D24*
X131750000Y-47300000D03*
D28*
X125550000Y-57000000D03*
X128450000Y-57000000D03*
D22*
X87500000Y-65500000D03*
X89500000Y-65500000D03*
%LPD*%
M02*
