%TF.GenerationSoftware,KiCad,Pcbnew,8.0.9*%
%TF.CreationDate,2025-05-02T01:54:57-05:00*%
%TF.ProjectId,GSR sensor,47535220-7365-46e7-936f-722e6b696361,rev?*%
%TF.SameCoordinates,Original*%
%TF.FileFunction,Drillmap*%
%TF.FilePolarity,Positive*%
%FSLAX45Y45*%
G04 Gerber Fmt 4.5, Leading zero omitted, Abs format (unit mm)*
G04 Created by KiCad (PCBNEW 8.0.9) date 2025-05-02 01:54:57*
%MOMM*%
%LPD*%
G01*
G04 APERTURE LIST*
%ADD10C,0.050000*%
%ADD11C,0.200000*%
%ADD12C,0.100000*%
G04 APERTURE END LIST*
D10*
X8720000Y-4400000D02*
G75*
G02*
X8380000Y-4400000I-170000J0D01*
G01*
X8380000Y-4400000D02*
G75*
G02*
X8720000Y-4400000I170000J0D01*
G01*
X14320000Y-7000000D02*
G75*
G02*
X13980000Y-7000000I-170000J0D01*
G01*
X13980000Y-7000000D02*
G75*
G02*
X14320000Y-7000000I170000J0D01*
G01*
X8300000Y-4150000D02*
X17850000Y-4150000D01*
X17850000Y-7250000D01*
X8300000Y-7250000D01*
X8300000Y-4150000D01*
D11*
D12*
X9020000Y-5970000D02*
X9080000Y-6030000D01*
X9080000Y-5970000D02*
X9020000Y-6030000D01*
X14670000Y-6170000D02*
X14730000Y-6230000D01*
X14730000Y-6170000D02*
X14670000Y-6230000D01*
X14770000Y-5670000D02*
X14830000Y-5730000D01*
X14830000Y-5670000D02*
X14770000Y-5730000D01*
X8780000Y-6550000D02*
G75*
G02*
X8720000Y-6550000I-30000J0D01*
G01*
X8720000Y-6550000D02*
G75*
G02*
X8780000Y-6550000I30000J0D01*
G01*
X8980000Y-6550000D02*
G75*
G02*
X8920000Y-6550000I-30000J0D01*
G01*
X8920000Y-6550000D02*
G75*
G02*
X8980000Y-6550000I30000J0D01*
G01*
X10880000Y-5750000D02*
G75*
G02*
X10820000Y-5750000I-30000J0D01*
G01*
X10820000Y-5750000D02*
G75*
G02*
X10880000Y-5750000I30000J0D01*
G01*
X11080000Y-5750000D02*
G75*
G02*
X11020000Y-5750000I-30000J0D01*
G01*
X11020000Y-5750000D02*
G75*
G02*
X11080000Y-5750000I30000J0D01*
G01*
X14850000Y-4436650D02*
X14850000Y-4509650D01*
X14813500Y-4473150D02*
X14886500Y-4473150D01*
X14850000Y-5190350D02*
X14850000Y-5263350D01*
X14813500Y-5226850D02*
X14886500Y-5226850D01*
X14850000Y-5936650D02*
X14850000Y-6009650D01*
X14813500Y-5973150D02*
X14886500Y-5973150D01*
X14850000Y-6690350D02*
X14850000Y-6763350D01*
X14813500Y-6726850D02*
X14886500Y-6726850D01*
X15400000Y-4436650D02*
X15400000Y-4509650D01*
X15363500Y-4473150D02*
X15436500Y-4473150D01*
X15400000Y-5190350D02*
X15400000Y-5263350D01*
X15363500Y-5226850D02*
X15436500Y-5226850D01*
X15400000Y-5936650D02*
X15400000Y-6009650D01*
X15363500Y-5973150D02*
X15436500Y-5973150D01*
X15400000Y-6690350D02*
X15400000Y-6763350D01*
X15363500Y-6726850D02*
X15436500Y-6726850D01*
X15972155Y-5224305D02*
X15972155Y-5159675D01*
X15907525Y-5159675D01*
X15907525Y-5224305D01*
X15972155Y-5224305D01*
X15972155Y-5478305D02*
X15972155Y-5413675D01*
X15907525Y-5413675D01*
X15907525Y-5478305D01*
X15972155Y-5478305D01*
X15972155Y-5732305D02*
X15972155Y-5667675D01*
X15907525Y-5667675D01*
X15907525Y-5732305D01*
X15972155Y-5732305D01*
X15972155Y-5986305D02*
X15972155Y-5921675D01*
X15907525Y-5921675D01*
X15907525Y-5986305D01*
X15972155Y-5986305D01*
X15972155Y-6240305D02*
X15972155Y-6175675D01*
X15907525Y-6175675D01*
X15907525Y-6240305D01*
X15972155Y-6240305D01*
X15972155Y-6494305D02*
X15972155Y-6429675D01*
X15907525Y-6429675D01*
X15907525Y-6494305D01*
X15972155Y-6494305D01*
X15972155Y-6748305D02*
X15972155Y-6683675D01*
X15907525Y-6683675D01*
X15907525Y-6748305D01*
X15972155Y-6748305D01*
X17490765Y-5224305D02*
X17490765Y-5159675D01*
X17426135Y-5159675D01*
X17426135Y-5224305D01*
X17490765Y-5224305D01*
X17490765Y-5478305D02*
X17490765Y-5413675D01*
X17426135Y-5413675D01*
X17426135Y-5478305D01*
X17490765Y-5478305D01*
X17490765Y-5732305D02*
X17490765Y-5667675D01*
X17426135Y-5667675D01*
X17426135Y-5732305D01*
X17490765Y-5732305D01*
X17490765Y-5986305D02*
X17490765Y-5921675D01*
X17426135Y-5921675D01*
X17426135Y-5986305D01*
X17490765Y-5986305D01*
X17490765Y-6240305D02*
X17490765Y-6175675D01*
X17426135Y-6175675D01*
X17426135Y-6240305D01*
X17490765Y-6240305D01*
X17490765Y-6494305D02*
X17490765Y-6429675D01*
X17426135Y-6429675D01*
X17426135Y-6494305D01*
X17490765Y-6494305D01*
X17490765Y-6748305D02*
X17490765Y-6683675D01*
X17426135Y-6683675D01*
X17426135Y-6748305D01*
X17490765Y-6748305D01*
X15938140Y-4729710D02*
X15983860Y-4683990D01*
X15938140Y-4638270D01*
X15892420Y-4683990D01*
X15938140Y-4729710D01*
X15939840Y-4983710D02*
X15985560Y-4937990D01*
X15939840Y-4892270D01*
X15894120Y-4937990D01*
X15939840Y-4983710D01*
X17458450Y-4983710D02*
X17504170Y-4937990D01*
X17458450Y-4892270D01*
X17412730Y-4937990D01*
X17458450Y-4983710D01*
X17461860Y-4729710D02*
X17507580Y-4683990D01*
X17461860Y-4638270D01*
X17416140Y-4683990D01*
X17461860Y-4729710D01*
X13552500Y-5702500D02*
X13647500Y-5797500D01*
X13647500Y-5702500D02*
X13552500Y-5797500D01*
X13647500Y-5750000D02*
G75*
G02*
X13552500Y-5750000I-47500J0D01*
G01*
X13552500Y-5750000D02*
G75*
G02*
X13647500Y-5750000I47500J0D01*
G01*
X13552500Y-5952500D02*
X13647500Y-6047500D01*
X13647500Y-5952500D02*
X13552500Y-6047500D01*
X13647500Y-6000000D02*
G75*
G02*
X13552500Y-6000000I-47500J0D01*
G01*
X13552500Y-6000000D02*
G75*
G02*
X13647500Y-6000000I47500J0D01*
G01*
X13552500Y-6202500D02*
X13647500Y-6297500D01*
X13647500Y-6202500D02*
X13552500Y-6297500D01*
X13647500Y-6250000D02*
G75*
G02*
X13552500Y-6250000I-47500J0D01*
G01*
X13552500Y-6250000D02*
G75*
G02*
X13647500Y-6250000I47500J0D01*
G01*
X13552500Y-6452500D02*
X13647500Y-6547500D01*
X13647500Y-6452500D02*
X13552500Y-6547500D01*
X13647500Y-6500000D02*
G75*
G02*
X13552500Y-6500000I-47500J0D01*
G01*
X13552500Y-6500000D02*
G75*
G02*
X13647500Y-6500000I47500J0D01*
G01*
X8700000Y-5600000D02*
X8800000Y-5700000D01*
X8800000Y-5600000D02*
X8700000Y-5700000D01*
X8750000Y-5600000D02*
X8750000Y-5700000D01*
X8700000Y-5650000D02*
X8800000Y-5650000D01*
X8950000Y-5600000D02*
X9050000Y-5700000D01*
X9050000Y-5600000D02*
X8950000Y-5700000D01*
X9000000Y-5600000D02*
X9000000Y-5700000D01*
X8950000Y-5650000D02*
X9050000Y-5650000D01*
X13125000Y-4680000D02*
X13225000Y-4780000D01*
X13225000Y-4680000D02*
X13125000Y-4780000D01*
X13175000Y-4680000D02*
X13175000Y-4780000D01*
X13125000Y-4730000D02*
X13225000Y-4730000D01*
X13375000Y-4680000D02*
X13475000Y-4780000D01*
X13475000Y-4680000D02*
X13375000Y-4780000D01*
X13425000Y-4680000D02*
X13425000Y-4780000D01*
X13375000Y-4730000D02*
X13475000Y-4730000D01*
D11*
X8558277Y-7563984D02*
X8558277Y-7363984D01*
X8558277Y-7363984D02*
X8605896Y-7363984D01*
X8605896Y-7363984D02*
X8634467Y-7373508D01*
X8634467Y-7373508D02*
X8653515Y-7392555D01*
X8653515Y-7392555D02*
X8663039Y-7411603D01*
X8663039Y-7411603D02*
X8672563Y-7449698D01*
X8672563Y-7449698D02*
X8672563Y-7478269D01*
X8672563Y-7478269D02*
X8663039Y-7516365D01*
X8663039Y-7516365D02*
X8653515Y-7535412D01*
X8653515Y-7535412D02*
X8634467Y-7554460D01*
X8634467Y-7554460D02*
X8605896Y-7563984D01*
X8605896Y-7563984D02*
X8558277Y-7563984D01*
X8758277Y-7563984D02*
X8758277Y-7430650D01*
X8758277Y-7468746D02*
X8767801Y-7449698D01*
X8767801Y-7449698D02*
X8777324Y-7440174D01*
X8777324Y-7440174D02*
X8796372Y-7430650D01*
X8796372Y-7430650D02*
X8815420Y-7430650D01*
X8882086Y-7563984D02*
X8882086Y-7430650D01*
X8882086Y-7363984D02*
X8872563Y-7373508D01*
X8872563Y-7373508D02*
X8882086Y-7383031D01*
X8882086Y-7383031D02*
X8891610Y-7373508D01*
X8891610Y-7373508D02*
X8882086Y-7363984D01*
X8882086Y-7363984D02*
X8882086Y-7383031D01*
X9005896Y-7563984D02*
X8986848Y-7554460D01*
X8986848Y-7554460D02*
X8977324Y-7535412D01*
X8977324Y-7535412D02*
X8977324Y-7363984D01*
X9110658Y-7563984D02*
X9091610Y-7554460D01*
X9091610Y-7554460D02*
X9082086Y-7535412D01*
X9082086Y-7535412D02*
X9082086Y-7363984D01*
X9339229Y-7563984D02*
X9339229Y-7363984D01*
X9339229Y-7363984D02*
X9405896Y-7506841D01*
X9405896Y-7506841D02*
X9472563Y-7363984D01*
X9472563Y-7363984D02*
X9472563Y-7563984D01*
X9653515Y-7563984D02*
X9653515Y-7459222D01*
X9653515Y-7459222D02*
X9643991Y-7440174D01*
X9643991Y-7440174D02*
X9624944Y-7430650D01*
X9624944Y-7430650D02*
X9586848Y-7430650D01*
X9586848Y-7430650D02*
X9567801Y-7440174D01*
X9653515Y-7554460D02*
X9634467Y-7563984D01*
X9634467Y-7563984D02*
X9586848Y-7563984D01*
X9586848Y-7563984D02*
X9567801Y-7554460D01*
X9567801Y-7554460D02*
X9558277Y-7535412D01*
X9558277Y-7535412D02*
X9558277Y-7516365D01*
X9558277Y-7516365D02*
X9567801Y-7497317D01*
X9567801Y-7497317D02*
X9586848Y-7487793D01*
X9586848Y-7487793D02*
X9634467Y-7487793D01*
X9634467Y-7487793D02*
X9653515Y-7478269D01*
X9748753Y-7430650D02*
X9748753Y-7630650D01*
X9748753Y-7440174D02*
X9767801Y-7430650D01*
X9767801Y-7430650D02*
X9805896Y-7430650D01*
X9805896Y-7430650D02*
X9824944Y-7440174D01*
X9824944Y-7440174D02*
X9834467Y-7449698D01*
X9834467Y-7449698D02*
X9843991Y-7468746D01*
X9843991Y-7468746D02*
X9843991Y-7525888D01*
X9843991Y-7525888D02*
X9834467Y-7544936D01*
X9834467Y-7544936D02*
X9824944Y-7554460D01*
X9824944Y-7554460D02*
X9805896Y-7563984D01*
X9805896Y-7563984D02*
X9767801Y-7563984D01*
X9767801Y-7563984D02*
X9748753Y-7554460D01*
X9929705Y-7544936D02*
X9939229Y-7554460D01*
X9939229Y-7554460D02*
X9929705Y-7563984D01*
X9929705Y-7563984D02*
X9920182Y-7554460D01*
X9920182Y-7554460D02*
X9929705Y-7544936D01*
X9929705Y-7544936D02*
X9929705Y-7563984D01*
X9929705Y-7440174D02*
X9939229Y-7449698D01*
X9939229Y-7449698D02*
X9929705Y-7459222D01*
X9929705Y-7459222D02*
X9920182Y-7449698D01*
X9920182Y-7449698D02*
X9929705Y-7440174D01*
X9929705Y-7440174D02*
X9929705Y-7459222D01*
D12*
X8237500Y-7862500D02*
X8297500Y-7922500D01*
X8297500Y-7862500D02*
X8237500Y-7922500D01*
D11*
X8596372Y-7783984D02*
X8615420Y-7783984D01*
X8615420Y-7783984D02*
X8634467Y-7793508D01*
X8634467Y-7793508D02*
X8643991Y-7803031D01*
X8643991Y-7803031D02*
X8653515Y-7822079D01*
X8653515Y-7822079D02*
X8663039Y-7860174D01*
X8663039Y-7860174D02*
X8663039Y-7907793D01*
X8663039Y-7907793D02*
X8653515Y-7945888D01*
X8653515Y-7945888D02*
X8643991Y-7964936D01*
X8643991Y-7964936D02*
X8634467Y-7974460D01*
X8634467Y-7974460D02*
X8615420Y-7983984D01*
X8615420Y-7983984D02*
X8596372Y-7983984D01*
X8596372Y-7983984D02*
X8577324Y-7974460D01*
X8577324Y-7974460D02*
X8567801Y-7964936D01*
X8567801Y-7964936D02*
X8558277Y-7945888D01*
X8558277Y-7945888D02*
X8548753Y-7907793D01*
X8548753Y-7907793D02*
X8548753Y-7860174D01*
X8548753Y-7860174D02*
X8558277Y-7822079D01*
X8558277Y-7822079D02*
X8567801Y-7803031D01*
X8567801Y-7803031D02*
X8577324Y-7793508D01*
X8577324Y-7793508D02*
X8596372Y-7783984D01*
X8748753Y-7964936D02*
X8758277Y-7974460D01*
X8758277Y-7974460D02*
X8748753Y-7983984D01*
X8748753Y-7983984D02*
X8739229Y-7974460D01*
X8739229Y-7974460D02*
X8748753Y-7964936D01*
X8748753Y-7964936D02*
X8748753Y-7983984D01*
X8929705Y-7783984D02*
X8891610Y-7783984D01*
X8891610Y-7783984D02*
X8872563Y-7793508D01*
X8872563Y-7793508D02*
X8863039Y-7803031D01*
X8863039Y-7803031D02*
X8843991Y-7831603D01*
X8843991Y-7831603D02*
X8834467Y-7869698D01*
X8834467Y-7869698D02*
X8834467Y-7945888D01*
X8834467Y-7945888D02*
X8843991Y-7964936D01*
X8843991Y-7964936D02*
X8853515Y-7974460D01*
X8853515Y-7974460D02*
X8872563Y-7983984D01*
X8872563Y-7983984D02*
X8910658Y-7983984D01*
X8910658Y-7983984D02*
X8929705Y-7974460D01*
X8929705Y-7974460D02*
X8939229Y-7964936D01*
X8939229Y-7964936D02*
X8948753Y-7945888D01*
X8948753Y-7945888D02*
X8948753Y-7898269D01*
X8948753Y-7898269D02*
X8939229Y-7879222D01*
X8939229Y-7879222D02*
X8929705Y-7869698D01*
X8929705Y-7869698D02*
X8910658Y-7860174D01*
X8910658Y-7860174D02*
X8872563Y-7860174D01*
X8872563Y-7860174D02*
X8853515Y-7869698D01*
X8853515Y-7869698D02*
X8843991Y-7879222D01*
X8843991Y-7879222D02*
X8834467Y-7898269D01*
X9072563Y-7783984D02*
X9091610Y-7783984D01*
X9091610Y-7783984D02*
X9110658Y-7793508D01*
X9110658Y-7793508D02*
X9120182Y-7803031D01*
X9120182Y-7803031D02*
X9129705Y-7822079D01*
X9129705Y-7822079D02*
X9139229Y-7860174D01*
X9139229Y-7860174D02*
X9139229Y-7907793D01*
X9139229Y-7907793D02*
X9129705Y-7945888D01*
X9129705Y-7945888D02*
X9120182Y-7964936D01*
X9120182Y-7964936D02*
X9110658Y-7974460D01*
X9110658Y-7974460D02*
X9091610Y-7983984D01*
X9091610Y-7983984D02*
X9072563Y-7983984D01*
X9072563Y-7983984D02*
X9053515Y-7974460D01*
X9053515Y-7974460D02*
X9043991Y-7964936D01*
X9043991Y-7964936D02*
X9034467Y-7945888D01*
X9034467Y-7945888D02*
X9024944Y-7907793D01*
X9024944Y-7907793D02*
X9024944Y-7860174D01*
X9024944Y-7860174D02*
X9034467Y-7822079D01*
X9034467Y-7822079D02*
X9043991Y-7803031D01*
X9043991Y-7803031D02*
X9053515Y-7793508D01*
X9053515Y-7793508D02*
X9072563Y-7783984D01*
X9263039Y-7783984D02*
X9282086Y-7783984D01*
X9282086Y-7783984D02*
X9301134Y-7793508D01*
X9301134Y-7793508D02*
X9310658Y-7803031D01*
X9310658Y-7803031D02*
X9320182Y-7822079D01*
X9320182Y-7822079D02*
X9329705Y-7860174D01*
X9329705Y-7860174D02*
X9329705Y-7907793D01*
X9329705Y-7907793D02*
X9320182Y-7945888D01*
X9320182Y-7945888D02*
X9310658Y-7964936D01*
X9310658Y-7964936D02*
X9301134Y-7974460D01*
X9301134Y-7974460D02*
X9282086Y-7983984D01*
X9282086Y-7983984D02*
X9263039Y-7983984D01*
X9263039Y-7983984D02*
X9243991Y-7974460D01*
X9243991Y-7974460D02*
X9234467Y-7964936D01*
X9234467Y-7964936D02*
X9224944Y-7945888D01*
X9224944Y-7945888D02*
X9215420Y-7907793D01*
X9215420Y-7907793D02*
X9215420Y-7860174D01*
X9215420Y-7860174D02*
X9224944Y-7822079D01*
X9224944Y-7822079D02*
X9234467Y-7803031D01*
X9234467Y-7803031D02*
X9243991Y-7793508D01*
X9243991Y-7793508D02*
X9263039Y-7783984D01*
X9415420Y-7983984D02*
X9415420Y-7850650D01*
X9415420Y-7869698D02*
X9424944Y-7860174D01*
X9424944Y-7860174D02*
X9443991Y-7850650D01*
X9443991Y-7850650D02*
X9472563Y-7850650D01*
X9472563Y-7850650D02*
X9491610Y-7860174D01*
X9491610Y-7860174D02*
X9501134Y-7879222D01*
X9501134Y-7879222D02*
X9501134Y-7983984D01*
X9501134Y-7879222D02*
X9510658Y-7860174D01*
X9510658Y-7860174D02*
X9529705Y-7850650D01*
X9529705Y-7850650D02*
X9558277Y-7850650D01*
X9558277Y-7850650D02*
X9577325Y-7860174D01*
X9577325Y-7860174D02*
X9586848Y-7879222D01*
X9586848Y-7879222D02*
X9586848Y-7983984D01*
X9682086Y-7983984D02*
X9682086Y-7850650D01*
X9682086Y-7869698D02*
X9691610Y-7860174D01*
X9691610Y-7860174D02*
X9710658Y-7850650D01*
X9710658Y-7850650D02*
X9739229Y-7850650D01*
X9739229Y-7850650D02*
X9758277Y-7860174D01*
X9758277Y-7860174D02*
X9767801Y-7879222D01*
X9767801Y-7879222D02*
X9767801Y-7983984D01*
X9767801Y-7879222D02*
X9777325Y-7860174D01*
X9777325Y-7860174D02*
X9796372Y-7850650D01*
X9796372Y-7850650D02*
X9824944Y-7850650D01*
X9824944Y-7850650D02*
X9843991Y-7860174D01*
X9843991Y-7860174D02*
X9853515Y-7879222D01*
X9853515Y-7879222D02*
X9853515Y-7983984D01*
X10243991Y-7774460D02*
X10072563Y-8031603D01*
X10501134Y-7783984D02*
X10520182Y-7783984D01*
X10520182Y-7783984D02*
X10539229Y-7793508D01*
X10539229Y-7793508D02*
X10548753Y-7803031D01*
X10548753Y-7803031D02*
X10558277Y-7822079D01*
X10558277Y-7822079D02*
X10567801Y-7860174D01*
X10567801Y-7860174D02*
X10567801Y-7907793D01*
X10567801Y-7907793D02*
X10558277Y-7945888D01*
X10558277Y-7945888D02*
X10548753Y-7964936D01*
X10548753Y-7964936D02*
X10539229Y-7974460D01*
X10539229Y-7974460D02*
X10520182Y-7983984D01*
X10520182Y-7983984D02*
X10501134Y-7983984D01*
X10501134Y-7983984D02*
X10482087Y-7974460D01*
X10482087Y-7974460D02*
X10472563Y-7964936D01*
X10472563Y-7964936D02*
X10463039Y-7945888D01*
X10463039Y-7945888D02*
X10453515Y-7907793D01*
X10453515Y-7907793D02*
X10453515Y-7860174D01*
X10453515Y-7860174D02*
X10463039Y-7822079D01*
X10463039Y-7822079D02*
X10472563Y-7803031D01*
X10472563Y-7803031D02*
X10482087Y-7793508D01*
X10482087Y-7793508D02*
X10501134Y-7783984D01*
X10653515Y-7964936D02*
X10663039Y-7974460D01*
X10663039Y-7974460D02*
X10653515Y-7983984D01*
X10653515Y-7983984D02*
X10643991Y-7974460D01*
X10643991Y-7974460D02*
X10653515Y-7964936D01*
X10653515Y-7964936D02*
X10653515Y-7983984D01*
X10786848Y-7783984D02*
X10805896Y-7783984D01*
X10805896Y-7783984D02*
X10824944Y-7793508D01*
X10824944Y-7793508D02*
X10834468Y-7803031D01*
X10834468Y-7803031D02*
X10843991Y-7822079D01*
X10843991Y-7822079D02*
X10853515Y-7860174D01*
X10853515Y-7860174D02*
X10853515Y-7907793D01*
X10853515Y-7907793D02*
X10843991Y-7945888D01*
X10843991Y-7945888D02*
X10834468Y-7964936D01*
X10834468Y-7964936D02*
X10824944Y-7974460D01*
X10824944Y-7974460D02*
X10805896Y-7983984D01*
X10805896Y-7983984D02*
X10786848Y-7983984D01*
X10786848Y-7983984D02*
X10767801Y-7974460D01*
X10767801Y-7974460D02*
X10758277Y-7964936D01*
X10758277Y-7964936D02*
X10748753Y-7945888D01*
X10748753Y-7945888D02*
X10739229Y-7907793D01*
X10739229Y-7907793D02*
X10739229Y-7860174D01*
X10739229Y-7860174D02*
X10748753Y-7822079D01*
X10748753Y-7822079D02*
X10758277Y-7803031D01*
X10758277Y-7803031D02*
X10767801Y-7793508D01*
X10767801Y-7793508D02*
X10786848Y-7783984D01*
X10929706Y-7803031D02*
X10939229Y-7793508D01*
X10939229Y-7793508D02*
X10958277Y-7783984D01*
X10958277Y-7783984D02*
X11005896Y-7783984D01*
X11005896Y-7783984D02*
X11024944Y-7793508D01*
X11024944Y-7793508D02*
X11034468Y-7803031D01*
X11034468Y-7803031D02*
X11043991Y-7822079D01*
X11043991Y-7822079D02*
X11043991Y-7841127D01*
X11043991Y-7841127D02*
X11034468Y-7869698D01*
X11034468Y-7869698D02*
X10920182Y-7983984D01*
X10920182Y-7983984D02*
X11043991Y-7983984D01*
X11110658Y-7783984D02*
X11234467Y-7783984D01*
X11234467Y-7783984D02*
X11167801Y-7860174D01*
X11167801Y-7860174D02*
X11196372Y-7860174D01*
X11196372Y-7860174D02*
X11215420Y-7869698D01*
X11215420Y-7869698D02*
X11224944Y-7879222D01*
X11224944Y-7879222D02*
X11234467Y-7898269D01*
X11234467Y-7898269D02*
X11234467Y-7945888D01*
X11234467Y-7945888D02*
X11224944Y-7964936D01*
X11224944Y-7964936D02*
X11215420Y-7974460D01*
X11215420Y-7974460D02*
X11196372Y-7983984D01*
X11196372Y-7983984D02*
X11139229Y-7983984D01*
X11139229Y-7983984D02*
X11120182Y-7974460D01*
X11120182Y-7974460D02*
X11110658Y-7964936D01*
X11405896Y-7783984D02*
X11367801Y-7783984D01*
X11367801Y-7783984D02*
X11348753Y-7793508D01*
X11348753Y-7793508D02*
X11339229Y-7803031D01*
X11339229Y-7803031D02*
X11320182Y-7831603D01*
X11320182Y-7831603D02*
X11310658Y-7869698D01*
X11310658Y-7869698D02*
X11310658Y-7945888D01*
X11310658Y-7945888D02*
X11320182Y-7964936D01*
X11320182Y-7964936D02*
X11329706Y-7974460D01*
X11329706Y-7974460D02*
X11348753Y-7983984D01*
X11348753Y-7983984D02*
X11386848Y-7983984D01*
X11386848Y-7983984D02*
X11405896Y-7974460D01*
X11405896Y-7974460D02*
X11415420Y-7964936D01*
X11415420Y-7964936D02*
X11424944Y-7945888D01*
X11424944Y-7945888D02*
X11424944Y-7898269D01*
X11424944Y-7898269D02*
X11415420Y-7879222D01*
X11415420Y-7879222D02*
X11405896Y-7869698D01*
X11405896Y-7869698D02*
X11386848Y-7860174D01*
X11386848Y-7860174D02*
X11348753Y-7860174D01*
X11348753Y-7860174D02*
X11329706Y-7869698D01*
X11329706Y-7869698D02*
X11320182Y-7879222D01*
X11320182Y-7879222D02*
X11310658Y-7898269D01*
X11501134Y-7783984D02*
X11501134Y-7822079D01*
X11577325Y-7783984D02*
X11577325Y-7822079D01*
X11872563Y-8060174D02*
X11863039Y-8050650D01*
X11863039Y-8050650D02*
X11843991Y-8022079D01*
X11843991Y-8022079D02*
X11834468Y-8003031D01*
X11834468Y-8003031D02*
X11824944Y-7974460D01*
X11824944Y-7974460D02*
X11815420Y-7926841D01*
X11815420Y-7926841D02*
X11815420Y-7888746D01*
X11815420Y-7888746D02*
X11824944Y-7841127D01*
X11824944Y-7841127D02*
X11834468Y-7812555D01*
X11834468Y-7812555D02*
X11843991Y-7793508D01*
X11843991Y-7793508D02*
X11863039Y-7764936D01*
X11863039Y-7764936D02*
X11872563Y-7755412D01*
X11929706Y-7783984D02*
X12053515Y-7783984D01*
X12053515Y-7783984D02*
X11986848Y-7860174D01*
X11986848Y-7860174D02*
X12015420Y-7860174D01*
X12015420Y-7860174D02*
X12034468Y-7869698D01*
X12034468Y-7869698D02*
X12043991Y-7879222D01*
X12043991Y-7879222D02*
X12053515Y-7898269D01*
X12053515Y-7898269D02*
X12053515Y-7945888D01*
X12053515Y-7945888D02*
X12043991Y-7964936D01*
X12043991Y-7964936D02*
X12034468Y-7974460D01*
X12034468Y-7974460D02*
X12015420Y-7983984D01*
X12015420Y-7983984D02*
X11958277Y-7983984D01*
X11958277Y-7983984D02*
X11939229Y-7974460D01*
X11939229Y-7974460D02*
X11929706Y-7964936D01*
X12291610Y-7983984D02*
X12291610Y-7783984D01*
X12377325Y-7983984D02*
X12377325Y-7879222D01*
X12377325Y-7879222D02*
X12367801Y-7860174D01*
X12367801Y-7860174D02*
X12348753Y-7850650D01*
X12348753Y-7850650D02*
X12320182Y-7850650D01*
X12320182Y-7850650D02*
X12301134Y-7860174D01*
X12301134Y-7860174D02*
X12291610Y-7869698D01*
X12501134Y-7983984D02*
X12482087Y-7974460D01*
X12482087Y-7974460D02*
X12472563Y-7964936D01*
X12472563Y-7964936D02*
X12463039Y-7945888D01*
X12463039Y-7945888D02*
X12463039Y-7888746D01*
X12463039Y-7888746D02*
X12472563Y-7869698D01*
X12472563Y-7869698D02*
X12482087Y-7860174D01*
X12482087Y-7860174D02*
X12501134Y-7850650D01*
X12501134Y-7850650D02*
X12529706Y-7850650D01*
X12529706Y-7850650D02*
X12548753Y-7860174D01*
X12548753Y-7860174D02*
X12558277Y-7869698D01*
X12558277Y-7869698D02*
X12567801Y-7888746D01*
X12567801Y-7888746D02*
X12567801Y-7945888D01*
X12567801Y-7945888D02*
X12558277Y-7964936D01*
X12558277Y-7964936D02*
X12548753Y-7974460D01*
X12548753Y-7974460D02*
X12529706Y-7983984D01*
X12529706Y-7983984D02*
X12501134Y-7983984D01*
X12682087Y-7983984D02*
X12663039Y-7974460D01*
X12663039Y-7974460D02*
X12653515Y-7955412D01*
X12653515Y-7955412D02*
X12653515Y-7783984D01*
X12834468Y-7974460D02*
X12815420Y-7983984D01*
X12815420Y-7983984D02*
X12777325Y-7983984D01*
X12777325Y-7983984D02*
X12758277Y-7974460D01*
X12758277Y-7974460D02*
X12748753Y-7955412D01*
X12748753Y-7955412D02*
X12748753Y-7879222D01*
X12748753Y-7879222D02*
X12758277Y-7860174D01*
X12758277Y-7860174D02*
X12777325Y-7850650D01*
X12777325Y-7850650D02*
X12815420Y-7850650D01*
X12815420Y-7850650D02*
X12834468Y-7860174D01*
X12834468Y-7860174D02*
X12843991Y-7879222D01*
X12843991Y-7879222D02*
X12843991Y-7898269D01*
X12843991Y-7898269D02*
X12748753Y-7917317D01*
X12920182Y-7974460D02*
X12939230Y-7983984D01*
X12939230Y-7983984D02*
X12977325Y-7983984D01*
X12977325Y-7983984D02*
X12996372Y-7974460D01*
X12996372Y-7974460D02*
X13005896Y-7955412D01*
X13005896Y-7955412D02*
X13005896Y-7945888D01*
X13005896Y-7945888D02*
X12996372Y-7926841D01*
X12996372Y-7926841D02*
X12977325Y-7917317D01*
X12977325Y-7917317D02*
X12948753Y-7917317D01*
X12948753Y-7917317D02*
X12929706Y-7907793D01*
X12929706Y-7907793D02*
X12920182Y-7888746D01*
X12920182Y-7888746D02*
X12920182Y-7879222D01*
X12920182Y-7879222D02*
X12929706Y-7860174D01*
X12929706Y-7860174D02*
X12948753Y-7850650D01*
X12948753Y-7850650D02*
X12977325Y-7850650D01*
X12977325Y-7850650D02*
X12996372Y-7860174D01*
X13072563Y-8060174D02*
X13082087Y-8050650D01*
X13082087Y-8050650D02*
X13101134Y-8022079D01*
X13101134Y-8022079D02*
X13110658Y-8003031D01*
X13110658Y-8003031D02*
X13120182Y-7974460D01*
X13120182Y-7974460D02*
X13129706Y-7926841D01*
X13129706Y-7926841D02*
X13129706Y-7888746D01*
X13129706Y-7888746D02*
X13120182Y-7841127D01*
X13120182Y-7841127D02*
X13110658Y-7812555D01*
X13110658Y-7812555D02*
X13101134Y-7793508D01*
X13101134Y-7793508D02*
X13082087Y-7764936D01*
X13082087Y-7764936D02*
X13072563Y-7755412D01*
D12*
X8297500Y-8156500D02*
G75*
G02*
X8237500Y-8156500I-30000J0D01*
G01*
X8237500Y-8156500D02*
G75*
G02*
X8297500Y-8156500I30000J0D01*
G01*
D11*
X8596372Y-8047984D02*
X8615420Y-8047984D01*
X8615420Y-8047984D02*
X8634467Y-8057508D01*
X8634467Y-8057508D02*
X8643991Y-8067031D01*
X8643991Y-8067031D02*
X8653515Y-8086079D01*
X8653515Y-8086079D02*
X8663039Y-8124174D01*
X8663039Y-8124174D02*
X8663039Y-8171793D01*
X8663039Y-8171793D02*
X8653515Y-8209888D01*
X8653515Y-8209888D02*
X8643991Y-8228936D01*
X8643991Y-8228936D02*
X8634467Y-8238460D01*
X8634467Y-8238460D02*
X8615420Y-8247984D01*
X8615420Y-8247984D02*
X8596372Y-8247984D01*
X8596372Y-8247984D02*
X8577324Y-8238460D01*
X8577324Y-8238460D02*
X8567801Y-8228936D01*
X8567801Y-8228936D02*
X8558277Y-8209888D01*
X8558277Y-8209888D02*
X8548753Y-8171793D01*
X8548753Y-8171793D02*
X8548753Y-8124174D01*
X8548753Y-8124174D02*
X8558277Y-8086079D01*
X8558277Y-8086079D02*
X8567801Y-8067031D01*
X8567801Y-8067031D02*
X8577324Y-8057508D01*
X8577324Y-8057508D02*
X8596372Y-8047984D01*
X8748753Y-8228936D02*
X8758277Y-8238460D01*
X8758277Y-8238460D02*
X8748753Y-8247984D01*
X8748753Y-8247984D02*
X8739229Y-8238460D01*
X8739229Y-8238460D02*
X8748753Y-8228936D01*
X8748753Y-8228936D02*
X8748753Y-8247984D01*
X8929705Y-8047984D02*
X8891610Y-8047984D01*
X8891610Y-8047984D02*
X8872563Y-8057508D01*
X8872563Y-8057508D02*
X8863039Y-8067031D01*
X8863039Y-8067031D02*
X8843991Y-8095603D01*
X8843991Y-8095603D02*
X8834467Y-8133698D01*
X8834467Y-8133698D02*
X8834467Y-8209888D01*
X8834467Y-8209888D02*
X8843991Y-8228936D01*
X8843991Y-8228936D02*
X8853515Y-8238460D01*
X8853515Y-8238460D02*
X8872563Y-8247984D01*
X8872563Y-8247984D02*
X8910658Y-8247984D01*
X8910658Y-8247984D02*
X8929705Y-8238460D01*
X8929705Y-8238460D02*
X8939229Y-8228936D01*
X8939229Y-8228936D02*
X8948753Y-8209888D01*
X8948753Y-8209888D02*
X8948753Y-8162269D01*
X8948753Y-8162269D02*
X8939229Y-8143222D01*
X8939229Y-8143222D02*
X8929705Y-8133698D01*
X8929705Y-8133698D02*
X8910658Y-8124174D01*
X8910658Y-8124174D02*
X8872563Y-8124174D01*
X8872563Y-8124174D02*
X8853515Y-8133698D01*
X8853515Y-8133698D02*
X8843991Y-8143222D01*
X8843991Y-8143222D02*
X8834467Y-8162269D01*
X9072563Y-8047984D02*
X9091610Y-8047984D01*
X9091610Y-8047984D02*
X9110658Y-8057508D01*
X9110658Y-8057508D02*
X9120182Y-8067031D01*
X9120182Y-8067031D02*
X9129705Y-8086079D01*
X9129705Y-8086079D02*
X9139229Y-8124174D01*
X9139229Y-8124174D02*
X9139229Y-8171793D01*
X9139229Y-8171793D02*
X9129705Y-8209888D01*
X9129705Y-8209888D02*
X9120182Y-8228936D01*
X9120182Y-8228936D02*
X9110658Y-8238460D01*
X9110658Y-8238460D02*
X9091610Y-8247984D01*
X9091610Y-8247984D02*
X9072563Y-8247984D01*
X9072563Y-8247984D02*
X9053515Y-8238460D01*
X9053515Y-8238460D02*
X9043991Y-8228936D01*
X9043991Y-8228936D02*
X9034467Y-8209888D01*
X9034467Y-8209888D02*
X9024944Y-8171793D01*
X9024944Y-8171793D02*
X9024944Y-8124174D01*
X9024944Y-8124174D02*
X9034467Y-8086079D01*
X9034467Y-8086079D02*
X9043991Y-8067031D01*
X9043991Y-8067031D02*
X9053515Y-8057508D01*
X9053515Y-8057508D02*
X9072563Y-8047984D01*
X9263039Y-8047984D02*
X9282086Y-8047984D01*
X9282086Y-8047984D02*
X9301134Y-8057508D01*
X9301134Y-8057508D02*
X9310658Y-8067031D01*
X9310658Y-8067031D02*
X9320182Y-8086079D01*
X9320182Y-8086079D02*
X9329705Y-8124174D01*
X9329705Y-8124174D02*
X9329705Y-8171793D01*
X9329705Y-8171793D02*
X9320182Y-8209888D01*
X9320182Y-8209888D02*
X9310658Y-8228936D01*
X9310658Y-8228936D02*
X9301134Y-8238460D01*
X9301134Y-8238460D02*
X9282086Y-8247984D01*
X9282086Y-8247984D02*
X9263039Y-8247984D01*
X9263039Y-8247984D02*
X9243991Y-8238460D01*
X9243991Y-8238460D02*
X9234467Y-8228936D01*
X9234467Y-8228936D02*
X9224944Y-8209888D01*
X9224944Y-8209888D02*
X9215420Y-8171793D01*
X9215420Y-8171793D02*
X9215420Y-8124174D01*
X9215420Y-8124174D02*
X9224944Y-8086079D01*
X9224944Y-8086079D02*
X9234467Y-8067031D01*
X9234467Y-8067031D02*
X9243991Y-8057508D01*
X9243991Y-8057508D02*
X9263039Y-8047984D01*
X9415420Y-8247984D02*
X9415420Y-8114650D01*
X9415420Y-8133698D02*
X9424944Y-8124174D01*
X9424944Y-8124174D02*
X9443991Y-8114650D01*
X9443991Y-8114650D02*
X9472563Y-8114650D01*
X9472563Y-8114650D02*
X9491610Y-8124174D01*
X9491610Y-8124174D02*
X9501134Y-8143222D01*
X9501134Y-8143222D02*
X9501134Y-8247984D01*
X9501134Y-8143222D02*
X9510658Y-8124174D01*
X9510658Y-8124174D02*
X9529705Y-8114650D01*
X9529705Y-8114650D02*
X9558277Y-8114650D01*
X9558277Y-8114650D02*
X9577325Y-8124174D01*
X9577325Y-8124174D02*
X9586848Y-8143222D01*
X9586848Y-8143222D02*
X9586848Y-8247984D01*
X9682086Y-8247984D02*
X9682086Y-8114650D01*
X9682086Y-8133698D02*
X9691610Y-8124174D01*
X9691610Y-8124174D02*
X9710658Y-8114650D01*
X9710658Y-8114650D02*
X9739229Y-8114650D01*
X9739229Y-8114650D02*
X9758277Y-8124174D01*
X9758277Y-8124174D02*
X9767801Y-8143222D01*
X9767801Y-8143222D02*
X9767801Y-8247984D01*
X9767801Y-8143222D02*
X9777325Y-8124174D01*
X9777325Y-8124174D02*
X9796372Y-8114650D01*
X9796372Y-8114650D02*
X9824944Y-8114650D01*
X9824944Y-8114650D02*
X9843991Y-8124174D01*
X9843991Y-8124174D02*
X9853515Y-8143222D01*
X9853515Y-8143222D02*
X9853515Y-8247984D01*
X10243991Y-8038460D02*
X10072563Y-8295603D01*
X10501134Y-8047984D02*
X10520182Y-8047984D01*
X10520182Y-8047984D02*
X10539229Y-8057508D01*
X10539229Y-8057508D02*
X10548753Y-8067031D01*
X10548753Y-8067031D02*
X10558277Y-8086079D01*
X10558277Y-8086079D02*
X10567801Y-8124174D01*
X10567801Y-8124174D02*
X10567801Y-8171793D01*
X10567801Y-8171793D02*
X10558277Y-8209888D01*
X10558277Y-8209888D02*
X10548753Y-8228936D01*
X10548753Y-8228936D02*
X10539229Y-8238460D01*
X10539229Y-8238460D02*
X10520182Y-8247984D01*
X10520182Y-8247984D02*
X10501134Y-8247984D01*
X10501134Y-8247984D02*
X10482087Y-8238460D01*
X10482087Y-8238460D02*
X10472563Y-8228936D01*
X10472563Y-8228936D02*
X10463039Y-8209888D01*
X10463039Y-8209888D02*
X10453515Y-8171793D01*
X10453515Y-8171793D02*
X10453515Y-8124174D01*
X10453515Y-8124174D02*
X10463039Y-8086079D01*
X10463039Y-8086079D02*
X10472563Y-8067031D01*
X10472563Y-8067031D02*
X10482087Y-8057508D01*
X10482087Y-8057508D02*
X10501134Y-8047984D01*
X10653515Y-8228936D02*
X10663039Y-8238460D01*
X10663039Y-8238460D02*
X10653515Y-8247984D01*
X10653515Y-8247984D02*
X10643991Y-8238460D01*
X10643991Y-8238460D02*
X10653515Y-8228936D01*
X10653515Y-8228936D02*
X10653515Y-8247984D01*
X10786848Y-8047984D02*
X10805896Y-8047984D01*
X10805896Y-8047984D02*
X10824944Y-8057508D01*
X10824944Y-8057508D02*
X10834468Y-8067031D01*
X10834468Y-8067031D02*
X10843991Y-8086079D01*
X10843991Y-8086079D02*
X10853515Y-8124174D01*
X10853515Y-8124174D02*
X10853515Y-8171793D01*
X10853515Y-8171793D02*
X10843991Y-8209888D01*
X10843991Y-8209888D02*
X10834468Y-8228936D01*
X10834468Y-8228936D02*
X10824944Y-8238460D01*
X10824944Y-8238460D02*
X10805896Y-8247984D01*
X10805896Y-8247984D02*
X10786848Y-8247984D01*
X10786848Y-8247984D02*
X10767801Y-8238460D01*
X10767801Y-8238460D02*
X10758277Y-8228936D01*
X10758277Y-8228936D02*
X10748753Y-8209888D01*
X10748753Y-8209888D02*
X10739229Y-8171793D01*
X10739229Y-8171793D02*
X10739229Y-8124174D01*
X10739229Y-8124174D02*
X10748753Y-8086079D01*
X10748753Y-8086079D02*
X10758277Y-8067031D01*
X10758277Y-8067031D02*
X10767801Y-8057508D01*
X10767801Y-8057508D02*
X10786848Y-8047984D01*
X10929706Y-8067031D02*
X10939229Y-8057508D01*
X10939229Y-8057508D02*
X10958277Y-8047984D01*
X10958277Y-8047984D02*
X11005896Y-8047984D01*
X11005896Y-8047984D02*
X11024944Y-8057508D01*
X11024944Y-8057508D02*
X11034468Y-8067031D01*
X11034468Y-8067031D02*
X11043991Y-8086079D01*
X11043991Y-8086079D02*
X11043991Y-8105127D01*
X11043991Y-8105127D02*
X11034468Y-8133698D01*
X11034468Y-8133698D02*
X10920182Y-8247984D01*
X10920182Y-8247984D02*
X11043991Y-8247984D01*
X11110658Y-8047984D02*
X11234467Y-8047984D01*
X11234467Y-8047984D02*
X11167801Y-8124174D01*
X11167801Y-8124174D02*
X11196372Y-8124174D01*
X11196372Y-8124174D02*
X11215420Y-8133698D01*
X11215420Y-8133698D02*
X11224944Y-8143222D01*
X11224944Y-8143222D02*
X11234467Y-8162269D01*
X11234467Y-8162269D02*
X11234467Y-8209888D01*
X11234467Y-8209888D02*
X11224944Y-8228936D01*
X11224944Y-8228936D02*
X11215420Y-8238460D01*
X11215420Y-8238460D02*
X11196372Y-8247984D01*
X11196372Y-8247984D02*
X11139229Y-8247984D01*
X11139229Y-8247984D02*
X11120182Y-8238460D01*
X11120182Y-8238460D02*
X11110658Y-8228936D01*
X11405896Y-8047984D02*
X11367801Y-8047984D01*
X11367801Y-8047984D02*
X11348753Y-8057508D01*
X11348753Y-8057508D02*
X11339229Y-8067031D01*
X11339229Y-8067031D02*
X11320182Y-8095603D01*
X11320182Y-8095603D02*
X11310658Y-8133698D01*
X11310658Y-8133698D02*
X11310658Y-8209888D01*
X11310658Y-8209888D02*
X11320182Y-8228936D01*
X11320182Y-8228936D02*
X11329706Y-8238460D01*
X11329706Y-8238460D02*
X11348753Y-8247984D01*
X11348753Y-8247984D02*
X11386848Y-8247984D01*
X11386848Y-8247984D02*
X11405896Y-8238460D01*
X11405896Y-8238460D02*
X11415420Y-8228936D01*
X11415420Y-8228936D02*
X11424944Y-8209888D01*
X11424944Y-8209888D02*
X11424944Y-8162269D01*
X11424944Y-8162269D02*
X11415420Y-8143222D01*
X11415420Y-8143222D02*
X11405896Y-8133698D01*
X11405896Y-8133698D02*
X11386848Y-8124174D01*
X11386848Y-8124174D02*
X11348753Y-8124174D01*
X11348753Y-8124174D02*
X11329706Y-8133698D01*
X11329706Y-8133698D02*
X11320182Y-8143222D01*
X11320182Y-8143222D02*
X11310658Y-8162269D01*
X11501134Y-8047984D02*
X11501134Y-8086079D01*
X11577325Y-8047984D02*
X11577325Y-8086079D01*
X11872563Y-8324174D02*
X11863039Y-8314650D01*
X11863039Y-8314650D02*
X11843991Y-8286079D01*
X11843991Y-8286079D02*
X11834468Y-8267031D01*
X11834468Y-8267031D02*
X11824944Y-8238460D01*
X11824944Y-8238460D02*
X11815420Y-8190841D01*
X11815420Y-8190841D02*
X11815420Y-8152746D01*
X11815420Y-8152746D02*
X11824944Y-8105127D01*
X11824944Y-8105127D02*
X11834468Y-8076555D01*
X11834468Y-8076555D02*
X11843991Y-8057508D01*
X11843991Y-8057508D02*
X11863039Y-8028936D01*
X11863039Y-8028936D02*
X11872563Y-8019412D01*
X12034468Y-8114650D02*
X12034468Y-8247984D01*
X11986848Y-8038460D02*
X11939229Y-8181317D01*
X11939229Y-8181317D02*
X12063039Y-8181317D01*
X12291610Y-8247984D02*
X12291610Y-8047984D01*
X12377325Y-8247984D02*
X12377325Y-8143222D01*
X12377325Y-8143222D02*
X12367801Y-8124174D01*
X12367801Y-8124174D02*
X12348753Y-8114650D01*
X12348753Y-8114650D02*
X12320182Y-8114650D01*
X12320182Y-8114650D02*
X12301134Y-8124174D01*
X12301134Y-8124174D02*
X12291610Y-8133698D01*
X12501134Y-8247984D02*
X12482087Y-8238460D01*
X12482087Y-8238460D02*
X12472563Y-8228936D01*
X12472563Y-8228936D02*
X12463039Y-8209888D01*
X12463039Y-8209888D02*
X12463039Y-8152746D01*
X12463039Y-8152746D02*
X12472563Y-8133698D01*
X12472563Y-8133698D02*
X12482087Y-8124174D01*
X12482087Y-8124174D02*
X12501134Y-8114650D01*
X12501134Y-8114650D02*
X12529706Y-8114650D01*
X12529706Y-8114650D02*
X12548753Y-8124174D01*
X12548753Y-8124174D02*
X12558277Y-8133698D01*
X12558277Y-8133698D02*
X12567801Y-8152746D01*
X12567801Y-8152746D02*
X12567801Y-8209888D01*
X12567801Y-8209888D02*
X12558277Y-8228936D01*
X12558277Y-8228936D02*
X12548753Y-8238460D01*
X12548753Y-8238460D02*
X12529706Y-8247984D01*
X12529706Y-8247984D02*
X12501134Y-8247984D01*
X12682087Y-8247984D02*
X12663039Y-8238460D01*
X12663039Y-8238460D02*
X12653515Y-8219412D01*
X12653515Y-8219412D02*
X12653515Y-8047984D01*
X12834468Y-8238460D02*
X12815420Y-8247984D01*
X12815420Y-8247984D02*
X12777325Y-8247984D01*
X12777325Y-8247984D02*
X12758277Y-8238460D01*
X12758277Y-8238460D02*
X12748753Y-8219412D01*
X12748753Y-8219412D02*
X12748753Y-8143222D01*
X12748753Y-8143222D02*
X12758277Y-8124174D01*
X12758277Y-8124174D02*
X12777325Y-8114650D01*
X12777325Y-8114650D02*
X12815420Y-8114650D01*
X12815420Y-8114650D02*
X12834468Y-8124174D01*
X12834468Y-8124174D02*
X12843991Y-8143222D01*
X12843991Y-8143222D02*
X12843991Y-8162269D01*
X12843991Y-8162269D02*
X12748753Y-8181317D01*
X12920182Y-8238460D02*
X12939230Y-8247984D01*
X12939230Y-8247984D02*
X12977325Y-8247984D01*
X12977325Y-8247984D02*
X12996372Y-8238460D01*
X12996372Y-8238460D02*
X13005896Y-8219412D01*
X13005896Y-8219412D02*
X13005896Y-8209888D01*
X13005896Y-8209888D02*
X12996372Y-8190841D01*
X12996372Y-8190841D02*
X12977325Y-8181317D01*
X12977325Y-8181317D02*
X12948753Y-8181317D01*
X12948753Y-8181317D02*
X12929706Y-8171793D01*
X12929706Y-8171793D02*
X12920182Y-8152746D01*
X12920182Y-8152746D02*
X12920182Y-8143222D01*
X12920182Y-8143222D02*
X12929706Y-8124174D01*
X12929706Y-8124174D02*
X12948753Y-8114650D01*
X12948753Y-8114650D02*
X12977325Y-8114650D01*
X12977325Y-8114650D02*
X12996372Y-8124174D01*
X13072563Y-8324174D02*
X13082087Y-8314650D01*
X13082087Y-8314650D02*
X13101134Y-8286079D01*
X13101134Y-8286079D02*
X13110658Y-8267031D01*
X13110658Y-8267031D02*
X13120182Y-8238460D01*
X13120182Y-8238460D02*
X13129706Y-8190841D01*
X13129706Y-8190841D02*
X13129706Y-8152746D01*
X13129706Y-8152746D02*
X13120182Y-8105127D01*
X13120182Y-8105127D02*
X13110658Y-8076555D01*
X13110658Y-8076555D02*
X13101134Y-8057508D01*
X13101134Y-8057508D02*
X13082087Y-8028936D01*
X13082087Y-8028936D02*
X13072563Y-8019412D01*
D12*
X8261000Y-8384000D02*
X8261000Y-8457000D01*
X8224500Y-8420500D02*
X8297500Y-8420500D01*
D11*
X8596372Y-8311984D02*
X8615420Y-8311984D01*
X8615420Y-8311984D02*
X8634467Y-8321508D01*
X8634467Y-8321508D02*
X8643991Y-8331031D01*
X8643991Y-8331031D02*
X8653515Y-8350079D01*
X8653515Y-8350079D02*
X8663039Y-8388174D01*
X8663039Y-8388174D02*
X8663039Y-8435793D01*
X8663039Y-8435793D02*
X8653515Y-8473889D01*
X8653515Y-8473889D02*
X8643991Y-8492936D01*
X8643991Y-8492936D02*
X8634467Y-8502460D01*
X8634467Y-8502460D02*
X8615420Y-8511984D01*
X8615420Y-8511984D02*
X8596372Y-8511984D01*
X8596372Y-8511984D02*
X8577324Y-8502460D01*
X8577324Y-8502460D02*
X8567801Y-8492936D01*
X8567801Y-8492936D02*
X8558277Y-8473889D01*
X8558277Y-8473889D02*
X8548753Y-8435793D01*
X8548753Y-8435793D02*
X8548753Y-8388174D01*
X8548753Y-8388174D02*
X8558277Y-8350079D01*
X8558277Y-8350079D02*
X8567801Y-8331031D01*
X8567801Y-8331031D02*
X8577324Y-8321508D01*
X8577324Y-8321508D02*
X8596372Y-8311984D01*
X8748753Y-8492936D02*
X8758277Y-8502460D01*
X8758277Y-8502460D02*
X8748753Y-8511984D01*
X8748753Y-8511984D02*
X8739229Y-8502460D01*
X8739229Y-8502460D02*
X8748753Y-8492936D01*
X8748753Y-8492936D02*
X8748753Y-8511984D01*
X8824944Y-8311984D02*
X8958277Y-8311984D01*
X8958277Y-8311984D02*
X8872563Y-8511984D01*
X9015420Y-8311984D02*
X9139229Y-8311984D01*
X9139229Y-8311984D02*
X9072563Y-8388174D01*
X9072563Y-8388174D02*
X9101134Y-8388174D01*
X9101134Y-8388174D02*
X9120182Y-8397698D01*
X9120182Y-8397698D02*
X9129705Y-8407222D01*
X9129705Y-8407222D02*
X9139229Y-8426270D01*
X9139229Y-8426270D02*
X9139229Y-8473889D01*
X9139229Y-8473889D02*
X9129705Y-8492936D01*
X9129705Y-8492936D02*
X9120182Y-8502460D01*
X9120182Y-8502460D02*
X9101134Y-8511984D01*
X9101134Y-8511984D02*
X9043991Y-8511984D01*
X9043991Y-8511984D02*
X9024944Y-8502460D01*
X9024944Y-8502460D02*
X9015420Y-8492936D01*
X9263039Y-8311984D02*
X9282086Y-8311984D01*
X9282086Y-8311984D02*
X9301134Y-8321508D01*
X9301134Y-8321508D02*
X9310658Y-8331031D01*
X9310658Y-8331031D02*
X9320182Y-8350079D01*
X9320182Y-8350079D02*
X9329705Y-8388174D01*
X9329705Y-8388174D02*
X9329705Y-8435793D01*
X9329705Y-8435793D02*
X9320182Y-8473889D01*
X9320182Y-8473889D02*
X9310658Y-8492936D01*
X9310658Y-8492936D02*
X9301134Y-8502460D01*
X9301134Y-8502460D02*
X9282086Y-8511984D01*
X9282086Y-8511984D02*
X9263039Y-8511984D01*
X9263039Y-8511984D02*
X9243991Y-8502460D01*
X9243991Y-8502460D02*
X9234467Y-8492936D01*
X9234467Y-8492936D02*
X9224944Y-8473889D01*
X9224944Y-8473889D02*
X9215420Y-8435793D01*
X9215420Y-8435793D02*
X9215420Y-8388174D01*
X9215420Y-8388174D02*
X9224944Y-8350079D01*
X9224944Y-8350079D02*
X9234467Y-8331031D01*
X9234467Y-8331031D02*
X9243991Y-8321508D01*
X9243991Y-8321508D02*
X9263039Y-8311984D01*
X9415420Y-8511984D02*
X9415420Y-8378650D01*
X9415420Y-8397698D02*
X9424944Y-8388174D01*
X9424944Y-8388174D02*
X9443991Y-8378650D01*
X9443991Y-8378650D02*
X9472563Y-8378650D01*
X9472563Y-8378650D02*
X9491610Y-8388174D01*
X9491610Y-8388174D02*
X9501134Y-8407222D01*
X9501134Y-8407222D02*
X9501134Y-8511984D01*
X9501134Y-8407222D02*
X9510658Y-8388174D01*
X9510658Y-8388174D02*
X9529705Y-8378650D01*
X9529705Y-8378650D02*
X9558277Y-8378650D01*
X9558277Y-8378650D02*
X9577325Y-8388174D01*
X9577325Y-8388174D02*
X9586848Y-8407222D01*
X9586848Y-8407222D02*
X9586848Y-8511984D01*
X9682086Y-8511984D02*
X9682086Y-8378650D01*
X9682086Y-8397698D02*
X9691610Y-8388174D01*
X9691610Y-8388174D02*
X9710658Y-8378650D01*
X9710658Y-8378650D02*
X9739229Y-8378650D01*
X9739229Y-8378650D02*
X9758277Y-8388174D01*
X9758277Y-8388174D02*
X9767801Y-8407222D01*
X9767801Y-8407222D02*
X9767801Y-8511984D01*
X9767801Y-8407222D02*
X9777325Y-8388174D01*
X9777325Y-8388174D02*
X9796372Y-8378650D01*
X9796372Y-8378650D02*
X9824944Y-8378650D01*
X9824944Y-8378650D02*
X9843991Y-8388174D01*
X9843991Y-8388174D02*
X9853515Y-8407222D01*
X9853515Y-8407222D02*
X9853515Y-8511984D01*
X10243991Y-8302460D02*
X10072563Y-8559603D01*
X10501134Y-8311984D02*
X10520182Y-8311984D01*
X10520182Y-8311984D02*
X10539229Y-8321508D01*
X10539229Y-8321508D02*
X10548753Y-8331031D01*
X10548753Y-8331031D02*
X10558277Y-8350079D01*
X10558277Y-8350079D02*
X10567801Y-8388174D01*
X10567801Y-8388174D02*
X10567801Y-8435793D01*
X10567801Y-8435793D02*
X10558277Y-8473889D01*
X10558277Y-8473889D02*
X10548753Y-8492936D01*
X10548753Y-8492936D02*
X10539229Y-8502460D01*
X10539229Y-8502460D02*
X10520182Y-8511984D01*
X10520182Y-8511984D02*
X10501134Y-8511984D01*
X10501134Y-8511984D02*
X10482087Y-8502460D01*
X10482087Y-8502460D02*
X10472563Y-8492936D01*
X10472563Y-8492936D02*
X10463039Y-8473889D01*
X10463039Y-8473889D02*
X10453515Y-8435793D01*
X10453515Y-8435793D02*
X10453515Y-8388174D01*
X10453515Y-8388174D02*
X10463039Y-8350079D01*
X10463039Y-8350079D02*
X10472563Y-8331031D01*
X10472563Y-8331031D02*
X10482087Y-8321508D01*
X10482087Y-8321508D02*
X10501134Y-8311984D01*
X10653515Y-8492936D02*
X10663039Y-8502460D01*
X10663039Y-8502460D02*
X10653515Y-8511984D01*
X10653515Y-8511984D02*
X10643991Y-8502460D01*
X10643991Y-8502460D02*
X10653515Y-8492936D01*
X10653515Y-8492936D02*
X10653515Y-8511984D01*
X10786848Y-8311984D02*
X10805896Y-8311984D01*
X10805896Y-8311984D02*
X10824944Y-8321508D01*
X10824944Y-8321508D02*
X10834468Y-8331031D01*
X10834468Y-8331031D02*
X10843991Y-8350079D01*
X10843991Y-8350079D02*
X10853515Y-8388174D01*
X10853515Y-8388174D02*
X10853515Y-8435793D01*
X10853515Y-8435793D02*
X10843991Y-8473889D01*
X10843991Y-8473889D02*
X10834468Y-8492936D01*
X10834468Y-8492936D02*
X10824944Y-8502460D01*
X10824944Y-8502460D02*
X10805896Y-8511984D01*
X10805896Y-8511984D02*
X10786848Y-8511984D01*
X10786848Y-8511984D02*
X10767801Y-8502460D01*
X10767801Y-8502460D02*
X10758277Y-8492936D01*
X10758277Y-8492936D02*
X10748753Y-8473889D01*
X10748753Y-8473889D02*
X10739229Y-8435793D01*
X10739229Y-8435793D02*
X10739229Y-8388174D01*
X10739229Y-8388174D02*
X10748753Y-8350079D01*
X10748753Y-8350079D02*
X10758277Y-8331031D01*
X10758277Y-8331031D02*
X10767801Y-8321508D01*
X10767801Y-8321508D02*
X10786848Y-8311984D01*
X10929706Y-8331031D02*
X10939229Y-8321508D01*
X10939229Y-8321508D02*
X10958277Y-8311984D01*
X10958277Y-8311984D02*
X11005896Y-8311984D01*
X11005896Y-8311984D02*
X11024944Y-8321508D01*
X11024944Y-8321508D02*
X11034468Y-8331031D01*
X11034468Y-8331031D02*
X11043991Y-8350079D01*
X11043991Y-8350079D02*
X11043991Y-8369127D01*
X11043991Y-8369127D02*
X11034468Y-8397698D01*
X11034468Y-8397698D02*
X10920182Y-8511984D01*
X10920182Y-8511984D02*
X11043991Y-8511984D01*
X11158277Y-8397698D02*
X11139229Y-8388174D01*
X11139229Y-8388174D02*
X11129706Y-8378650D01*
X11129706Y-8378650D02*
X11120182Y-8359603D01*
X11120182Y-8359603D02*
X11120182Y-8350079D01*
X11120182Y-8350079D02*
X11129706Y-8331031D01*
X11129706Y-8331031D02*
X11139229Y-8321508D01*
X11139229Y-8321508D02*
X11158277Y-8311984D01*
X11158277Y-8311984D02*
X11196372Y-8311984D01*
X11196372Y-8311984D02*
X11215420Y-8321508D01*
X11215420Y-8321508D02*
X11224944Y-8331031D01*
X11224944Y-8331031D02*
X11234467Y-8350079D01*
X11234467Y-8350079D02*
X11234467Y-8359603D01*
X11234467Y-8359603D02*
X11224944Y-8378650D01*
X11224944Y-8378650D02*
X11215420Y-8388174D01*
X11215420Y-8388174D02*
X11196372Y-8397698D01*
X11196372Y-8397698D02*
X11158277Y-8397698D01*
X11158277Y-8397698D02*
X11139229Y-8407222D01*
X11139229Y-8407222D02*
X11129706Y-8416746D01*
X11129706Y-8416746D02*
X11120182Y-8435793D01*
X11120182Y-8435793D02*
X11120182Y-8473889D01*
X11120182Y-8473889D02*
X11129706Y-8492936D01*
X11129706Y-8492936D02*
X11139229Y-8502460D01*
X11139229Y-8502460D02*
X11158277Y-8511984D01*
X11158277Y-8511984D02*
X11196372Y-8511984D01*
X11196372Y-8511984D02*
X11215420Y-8502460D01*
X11215420Y-8502460D02*
X11224944Y-8492936D01*
X11224944Y-8492936D02*
X11234467Y-8473889D01*
X11234467Y-8473889D02*
X11234467Y-8435793D01*
X11234467Y-8435793D02*
X11224944Y-8416746D01*
X11224944Y-8416746D02*
X11215420Y-8407222D01*
X11215420Y-8407222D02*
X11196372Y-8397698D01*
X11301134Y-8311984D02*
X11434467Y-8311984D01*
X11434467Y-8311984D02*
X11348753Y-8511984D01*
X11501134Y-8311984D02*
X11501134Y-8350079D01*
X11577325Y-8311984D02*
X11577325Y-8350079D01*
X11872563Y-8588174D02*
X11863039Y-8578650D01*
X11863039Y-8578650D02*
X11843991Y-8550079D01*
X11843991Y-8550079D02*
X11834468Y-8531031D01*
X11834468Y-8531031D02*
X11824944Y-8502460D01*
X11824944Y-8502460D02*
X11815420Y-8454841D01*
X11815420Y-8454841D02*
X11815420Y-8416746D01*
X11815420Y-8416746D02*
X11824944Y-8369127D01*
X11824944Y-8369127D02*
X11834468Y-8340555D01*
X11834468Y-8340555D02*
X11843991Y-8321508D01*
X11843991Y-8321508D02*
X11863039Y-8292936D01*
X11863039Y-8292936D02*
X11872563Y-8283412D01*
X11977325Y-8397698D02*
X11958277Y-8388174D01*
X11958277Y-8388174D02*
X11948753Y-8378650D01*
X11948753Y-8378650D02*
X11939229Y-8359603D01*
X11939229Y-8359603D02*
X11939229Y-8350079D01*
X11939229Y-8350079D02*
X11948753Y-8331031D01*
X11948753Y-8331031D02*
X11958277Y-8321508D01*
X11958277Y-8321508D02*
X11977325Y-8311984D01*
X11977325Y-8311984D02*
X12015420Y-8311984D01*
X12015420Y-8311984D02*
X12034468Y-8321508D01*
X12034468Y-8321508D02*
X12043991Y-8331031D01*
X12043991Y-8331031D02*
X12053515Y-8350079D01*
X12053515Y-8350079D02*
X12053515Y-8359603D01*
X12053515Y-8359603D02*
X12043991Y-8378650D01*
X12043991Y-8378650D02*
X12034468Y-8388174D01*
X12034468Y-8388174D02*
X12015420Y-8397698D01*
X12015420Y-8397698D02*
X11977325Y-8397698D01*
X11977325Y-8397698D02*
X11958277Y-8407222D01*
X11958277Y-8407222D02*
X11948753Y-8416746D01*
X11948753Y-8416746D02*
X11939229Y-8435793D01*
X11939229Y-8435793D02*
X11939229Y-8473889D01*
X11939229Y-8473889D02*
X11948753Y-8492936D01*
X11948753Y-8492936D02*
X11958277Y-8502460D01*
X11958277Y-8502460D02*
X11977325Y-8511984D01*
X11977325Y-8511984D02*
X12015420Y-8511984D01*
X12015420Y-8511984D02*
X12034468Y-8502460D01*
X12034468Y-8502460D02*
X12043991Y-8492936D01*
X12043991Y-8492936D02*
X12053515Y-8473889D01*
X12053515Y-8473889D02*
X12053515Y-8435793D01*
X12053515Y-8435793D02*
X12043991Y-8416746D01*
X12043991Y-8416746D02*
X12034468Y-8407222D01*
X12034468Y-8407222D02*
X12015420Y-8397698D01*
X12291610Y-8511984D02*
X12291610Y-8311984D01*
X12377325Y-8511984D02*
X12377325Y-8407222D01*
X12377325Y-8407222D02*
X12367801Y-8388174D01*
X12367801Y-8388174D02*
X12348753Y-8378650D01*
X12348753Y-8378650D02*
X12320182Y-8378650D01*
X12320182Y-8378650D02*
X12301134Y-8388174D01*
X12301134Y-8388174D02*
X12291610Y-8397698D01*
X12501134Y-8511984D02*
X12482087Y-8502460D01*
X12482087Y-8502460D02*
X12472563Y-8492936D01*
X12472563Y-8492936D02*
X12463039Y-8473889D01*
X12463039Y-8473889D02*
X12463039Y-8416746D01*
X12463039Y-8416746D02*
X12472563Y-8397698D01*
X12472563Y-8397698D02*
X12482087Y-8388174D01*
X12482087Y-8388174D02*
X12501134Y-8378650D01*
X12501134Y-8378650D02*
X12529706Y-8378650D01*
X12529706Y-8378650D02*
X12548753Y-8388174D01*
X12548753Y-8388174D02*
X12558277Y-8397698D01*
X12558277Y-8397698D02*
X12567801Y-8416746D01*
X12567801Y-8416746D02*
X12567801Y-8473889D01*
X12567801Y-8473889D02*
X12558277Y-8492936D01*
X12558277Y-8492936D02*
X12548753Y-8502460D01*
X12548753Y-8502460D02*
X12529706Y-8511984D01*
X12529706Y-8511984D02*
X12501134Y-8511984D01*
X12682087Y-8511984D02*
X12663039Y-8502460D01*
X12663039Y-8502460D02*
X12653515Y-8483412D01*
X12653515Y-8483412D02*
X12653515Y-8311984D01*
X12834468Y-8502460D02*
X12815420Y-8511984D01*
X12815420Y-8511984D02*
X12777325Y-8511984D01*
X12777325Y-8511984D02*
X12758277Y-8502460D01*
X12758277Y-8502460D02*
X12748753Y-8483412D01*
X12748753Y-8483412D02*
X12748753Y-8407222D01*
X12748753Y-8407222D02*
X12758277Y-8388174D01*
X12758277Y-8388174D02*
X12777325Y-8378650D01*
X12777325Y-8378650D02*
X12815420Y-8378650D01*
X12815420Y-8378650D02*
X12834468Y-8388174D01*
X12834468Y-8388174D02*
X12843991Y-8407222D01*
X12843991Y-8407222D02*
X12843991Y-8426270D01*
X12843991Y-8426270D02*
X12748753Y-8445317D01*
X12920182Y-8502460D02*
X12939230Y-8511984D01*
X12939230Y-8511984D02*
X12977325Y-8511984D01*
X12977325Y-8511984D02*
X12996372Y-8502460D01*
X12996372Y-8502460D02*
X13005896Y-8483412D01*
X13005896Y-8483412D02*
X13005896Y-8473889D01*
X13005896Y-8473889D02*
X12996372Y-8454841D01*
X12996372Y-8454841D02*
X12977325Y-8445317D01*
X12977325Y-8445317D02*
X12948753Y-8445317D01*
X12948753Y-8445317D02*
X12929706Y-8435793D01*
X12929706Y-8435793D02*
X12920182Y-8416746D01*
X12920182Y-8416746D02*
X12920182Y-8407222D01*
X12920182Y-8407222D02*
X12929706Y-8388174D01*
X12929706Y-8388174D02*
X12948753Y-8378650D01*
X12948753Y-8378650D02*
X12977325Y-8378650D01*
X12977325Y-8378650D02*
X12996372Y-8388174D01*
X13072563Y-8588174D02*
X13082087Y-8578650D01*
X13082087Y-8578650D02*
X13101134Y-8550079D01*
X13101134Y-8550079D02*
X13110658Y-8531031D01*
X13110658Y-8531031D02*
X13120182Y-8502460D01*
X13120182Y-8502460D02*
X13129706Y-8454841D01*
X13129706Y-8454841D02*
X13129706Y-8416746D01*
X13129706Y-8416746D02*
X13120182Y-8369127D01*
X13120182Y-8369127D02*
X13110658Y-8340555D01*
X13110658Y-8340555D02*
X13101134Y-8321508D01*
X13101134Y-8321508D02*
X13082087Y-8292936D01*
X13082087Y-8292936D02*
X13072563Y-8283412D01*
D12*
X8284115Y-8716815D02*
X8284115Y-8652185D01*
X8219485Y-8652185D01*
X8219485Y-8716815D01*
X8284115Y-8716815D01*
D11*
X8596372Y-8575984D02*
X8615420Y-8575984D01*
X8615420Y-8575984D02*
X8634467Y-8585508D01*
X8634467Y-8585508D02*
X8643991Y-8595031D01*
X8643991Y-8595031D02*
X8653515Y-8614079D01*
X8653515Y-8614079D02*
X8663039Y-8652174D01*
X8663039Y-8652174D02*
X8663039Y-8699793D01*
X8663039Y-8699793D02*
X8653515Y-8737889D01*
X8653515Y-8737889D02*
X8643991Y-8756936D01*
X8643991Y-8756936D02*
X8634467Y-8766460D01*
X8634467Y-8766460D02*
X8615420Y-8775984D01*
X8615420Y-8775984D02*
X8596372Y-8775984D01*
X8596372Y-8775984D02*
X8577324Y-8766460D01*
X8577324Y-8766460D02*
X8567801Y-8756936D01*
X8567801Y-8756936D02*
X8558277Y-8737889D01*
X8558277Y-8737889D02*
X8548753Y-8699793D01*
X8548753Y-8699793D02*
X8548753Y-8652174D01*
X8548753Y-8652174D02*
X8558277Y-8614079D01*
X8558277Y-8614079D02*
X8567801Y-8595031D01*
X8567801Y-8595031D02*
X8577324Y-8585508D01*
X8577324Y-8585508D02*
X8596372Y-8575984D01*
X8748753Y-8756936D02*
X8758277Y-8766460D01*
X8758277Y-8766460D02*
X8748753Y-8775984D01*
X8748753Y-8775984D02*
X8739229Y-8766460D01*
X8739229Y-8766460D02*
X8748753Y-8756936D01*
X8748753Y-8756936D02*
X8748753Y-8775984D01*
X8853515Y-8775984D02*
X8891610Y-8775984D01*
X8891610Y-8775984D02*
X8910658Y-8766460D01*
X8910658Y-8766460D02*
X8920182Y-8756936D01*
X8920182Y-8756936D02*
X8939229Y-8728365D01*
X8939229Y-8728365D02*
X8948753Y-8690270D01*
X8948753Y-8690270D02*
X8948753Y-8614079D01*
X8948753Y-8614079D02*
X8939229Y-8595031D01*
X8939229Y-8595031D02*
X8929705Y-8585508D01*
X8929705Y-8585508D02*
X8910658Y-8575984D01*
X8910658Y-8575984D02*
X8872563Y-8575984D01*
X8872563Y-8575984D02*
X8853515Y-8585508D01*
X8853515Y-8585508D02*
X8843991Y-8595031D01*
X8843991Y-8595031D02*
X8834467Y-8614079D01*
X8834467Y-8614079D02*
X8834467Y-8661698D01*
X8834467Y-8661698D02*
X8843991Y-8680746D01*
X8843991Y-8680746D02*
X8853515Y-8690270D01*
X8853515Y-8690270D02*
X8872563Y-8699793D01*
X8872563Y-8699793D02*
X8910658Y-8699793D01*
X8910658Y-8699793D02*
X8929705Y-8690270D01*
X8929705Y-8690270D02*
X8939229Y-8680746D01*
X8939229Y-8680746D02*
X8948753Y-8661698D01*
X9139229Y-8775984D02*
X9024944Y-8775984D01*
X9082086Y-8775984D02*
X9082086Y-8575984D01*
X9082086Y-8575984D02*
X9063039Y-8604555D01*
X9063039Y-8604555D02*
X9043991Y-8623603D01*
X9043991Y-8623603D02*
X9024944Y-8633127D01*
X9310658Y-8642650D02*
X9310658Y-8775984D01*
X9263039Y-8566460D02*
X9215420Y-8709317D01*
X9215420Y-8709317D02*
X9339229Y-8709317D01*
X9415420Y-8775984D02*
X9415420Y-8642650D01*
X9415420Y-8661698D02*
X9424944Y-8652174D01*
X9424944Y-8652174D02*
X9443991Y-8642650D01*
X9443991Y-8642650D02*
X9472563Y-8642650D01*
X9472563Y-8642650D02*
X9491610Y-8652174D01*
X9491610Y-8652174D02*
X9501134Y-8671222D01*
X9501134Y-8671222D02*
X9501134Y-8775984D01*
X9501134Y-8671222D02*
X9510658Y-8652174D01*
X9510658Y-8652174D02*
X9529705Y-8642650D01*
X9529705Y-8642650D02*
X9558277Y-8642650D01*
X9558277Y-8642650D02*
X9577325Y-8652174D01*
X9577325Y-8652174D02*
X9586848Y-8671222D01*
X9586848Y-8671222D02*
X9586848Y-8775984D01*
X9682086Y-8775984D02*
X9682086Y-8642650D01*
X9682086Y-8661698D02*
X9691610Y-8652174D01*
X9691610Y-8652174D02*
X9710658Y-8642650D01*
X9710658Y-8642650D02*
X9739229Y-8642650D01*
X9739229Y-8642650D02*
X9758277Y-8652174D01*
X9758277Y-8652174D02*
X9767801Y-8671222D01*
X9767801Y-8671222D02*
X9767801Y-8775984D01*
X9767801Y-8671222D02*
X9777325Y-8652174D01*
X9777325Y-8652174D02*
X9796372Y-8642650D01*
X9796372Y-8642650D02*
X9824944Y-8642650D01*
X9824944Y-8642650D02*
X9843991Y-8652174D01*
X9843991Y-8652174D02*
X9853515Y-8671222D01*
X9853515Y-8671222D02*
X9853515Y-8775984D01*
X10243991Y-8566460D02*
X10072563Y-8823603D01*
X10501134Y-8575984D02*
X10520182Y-8575984D01*
X10520182Y-8575984D02*
X10539229Y-8585508D01*
X10539229Y-8585508D02*
X10548753Y-8595031D01*
X10548753Y-8595031D02*
X10558277Y-8614079D01*
X10558277Y-8614079D02*
X10567801Y-8652174D01*
X10567801Y-8652174D02*
X10567801Y-8699793D01*
X10567801Y-8699793D02*
X10558277Y-8737889D01*
X10558277Y-8737889D02*
X10548753Y-8756936D01*
X10548753Y-8756936D02*
X10539229Y-8766460D01*
X10539229Y-8766460D02*
X10520182Y-8775984D01*
X10520182Y-8775984D02*
X10501134Y-8775984D01*
X10501134Y-8775984D02*
X10482087Y-8766460D01*
X10482087Y-8766460D02*
X10472563Y-8756936D01*
X10472563Y-8756936D02*
X10463039Y-8737889D01*
X10463039Y-8737889D02*
X10453515Y-8699793D01*
X10453515Y-8699793D02*
X10453515Y-8652174D01*
X10453515Y-8652174D02*
X10463039Y-8614079D01*
X10463039Y-8614079D02*
X10472563Y-8595031D01*
X10472563Y-8595031D02*
X10482087Y-8585508D01*
X10482087Y-8585508D02*
X10501134Y-8575984D01*
X10653515Y-8756936D02*
X10663039Y-8766460D01*
X10663039Y-8766460D02*
X10653515Y-8775984D01*
X10653515Y-8775984D02*
X10643991Y-8766460D01*
X10643991Y-8766460D02*
X10653515Y-8756936D01*
X10653515Y-8756936D02*
X10653515Y-8775984D01*
X10786848Y-8575984D02*
X10805896Y-8575984D01*
X10805896Y-8575984D02*
X10824944Y-8585508D01*
X10824944Y-8585508D02*
X10834468Y-8595031D01*
X10834468Y-8595031D02*
X10843991Y-8614079D01*
X10843991Y-8614079D02*
X10853515Y-8652174D01*
X10853515Y-8652174D02*
X10853515Y-8699793D01*
X10853515Y-8699793D02*
X10843991Y-8737889D01*
X10843991Y-8737889D02*
X10834468Y-8756936D01*
X10834468Y-8756936D02*
X10824944Y-8766460D01*
X10824944Y-8766460D02*
X10805896Y-8775984D01*
X10805896Y-8775984D02*
X10786848Y-8775984D01*
X10786848Y-8775984D02*
X10767801Y-8766460D01*
X10767801Y-8766460D02*
X10758277Y-8756936D01*
X10758277Y-8756936D02*
X10748753Y-8737889D01*
X10748753Y-8737889D02*
X10739229Y-8699793D01*
X10739229Y-8699793D02*
X10739229Y-8652174D01*
X10739229Y-8652174D02*
X10748753Y-8614079D01*
X10748753Y-8614079D02*
X10758277Y-8595031D01*
X10758277Y-8595031D02*
X10767801Y-8585508D01*
X10767801Y-8585508D02*
X10786848Y-8575984D01*
X10920182Y-8575984D02*
X11043991Y-8575984D01*
X11043991Y-8575984D02*
X10977325Y-8652174D01*
X10977325Y-8652174D02*
X11005896Y-8652174D01*
X11005896Y-8652174D02*
X11024944Y-8661698D01*
X11024944Y-8661698D02*
X11034468Y-8671222D01*
X11034468Y-8671222D02*
X11043991Y-8690270D01*
X11043991Y-8690270D02*
X11043991Y-8737889D01*
X11043991Y-8737889D02*
X11034468Y-8756936D01*
X11034468Y-8756936D02*
X11024944Y-8766460D01*
X11024944Y-8766460D02*
X11005896Y-8775984D01*
X11005896Y-8775984D02*
X10948753Y-8775984D01*
X10948753Y-8775984D02*
X10929706Y-8766460D01*
X10929706Y-8766460D02*
X10920182Y-8756936D01*
X11215420Y-8575984D02*
X11177325Y-8575984D01*
X11177325Y-8575984D02*
X11158277Y-8585508D01*
X11158277Y-8585508D02*
X11148753Y-8595031D01*
X11148753Y-8595031D02*
X11129706Y-8623603D01*
X11129706Y-8623603D02*
X11120182Y-8661698D01*
X11120182Y-8661698D02*
X11120182Y-8737889D01*
X11120182Y-8737889D02*
X11129706Y-8756936D01*
X11129706Y-8756936D02*
X11139229Y-8766460D01*
X11139229Y-8766460D02*
X11158277Y-8775984D01*
X11158277Y-8775984D02*
X11196372Y-8775984D01*
X11196372Y-8775984D02*
X11215420Y-8766460D01*
X11215420Y-8766460D02*
X11224944Y-8756936D01*
X11224944Y-8756936D02*
X11234467Y-8737889D01*
X11234467Y-8737889D02*
X11234467Y-8690270D01*
X11234467Y-8690270D02*
X11224944Y-8671222D01*
X11224944Y-8671222D02*
X11215420Y-8661698D01*
X11215420Y-8661698D02*
X11196372Y-8652174D01*
X11196372Y-8652174D02*
X11158277Y-8652174D01*
X11158277Y-8652174D02*
X11139229Y-8661698D01*
X11139229Y-8661698D02*
X11129706Y-8671222D01*
X11129706Y-8671222D02*
X11120182Y-8690270D01*
X11358277Y-8575984D02*
X11377325Y-8575984D01*
X11377325Y-8575984D02*
X11396372Y-8585508D01*
X11396372Y-8585508D02*
X11405896Y-8595031D01*
X11405896Y-8595031D02*
X11415420Y-8614079D01*
X11415420Y-8614079D02*
X11424944Y-8652174D01*
X11424944Y-8652174D02*
X11424944Y-8699793D01*
X11424944Y-8699793D02*
X11415420Y-8737889D01*
X11415420Y-8737889D02*
X11405896Y-8756936D01*
X11405896Y-8756936D02*
X11396372Y-8766460D01*
X11396372Y-8766460D02*
X11377325Y-8775984D01*
X11377325Y-8775984D02*
X11358277Y-8775984D01*
X11358277Y-8775984D02*
X11339229Y-8766460D01*
X11339229Y-8766460D02*
X11329706Y-8756936D01*
X11329706Y-8756936D02*
X11320182Y-8737889D01*
X11320182Y-8737889D02*
X11310658Y-8699793D01*
X11310658Y-8699793D02*
X11310658Y-8652174D01*
X11310658Y-8652174D02*
X11320182Y-8614079D01*
X11320182Y-8614079D02*
X11329706Y-8595031D01*
X11329706Y-8595031D02*
X11339229Y-8585508D01*
X11339229Y-8585508D02*
X11358277Y-8575984D01*
X11501134Y-8575984D02*
X11501134Y-8614079D01*
X11577325Y-8575984D02*
X11577325Y-8614079D01*
X11872563Y-8852174D02*
X11863039Y-8842650D01*
X11863039Y-8842650D02*
X11843991Y-8814079D01*
X11843991Y-8814079D02*
X11834468Y-8795031D01*
X11834468Y-8795031D02*
X11824944Y-8766460D01*
X11824944Y-8766460D02*
X11815420Y-8718841D01*
X11815420Y-8718841D02*
X11815420Y-8680746D01*
X11815420Y-8680746D02*
X11824944Y-8633127D01*
X11824944Y-8633127D02*
X11834468Y-8604555D01*
X11834468Y-8604555D02*
X11843991Y-8585508D01*
X11843991Y-8585508D02*
X11863039Y-8556936D01*
X11863039Y-8556936D02*
X11872563Y-8547412D01*
X12053515Y-8775984D02*
X11939229Y-8775984D01*
X11996372Y-8775984D02*
X11996372Y-8575984D01*
X11996372Y-8575984D02*
X11977325Y-8604555D01*
X11977325Y-8604555D02*
X11958277Y-8623603D01*
X11958277Y-8623603D02*
X11939229Y-8633127D01*
X12224944Y-8642650D02*
X12224944Y-8775984D01*
X12177325Y-8566460D02*
X12129706Y-8709317D01*
X12129706Y-8709317D02*
X12253515Y-8709317D01*
X12482087Y-8775984D02*
X12482087Y-8575984D01*
X12567801Y-8775984D02*
X12567801Y-8671222D01*
X12567801Y-8671222D02*
X12558277Y-8652174D01*
X12558277Y-8652174D02*
X12539230Y-8642650D01*
X12539230Y-8642650D02*
X12510658Y-8642650D01*
X12510658Y-8642650D02*
X12491610Y-8652174D01*
X12491610Y-8652174D02*
X12482087Y-8661698D01*
X12691610Y-8775984D02*
X12672563Y-8766460D01*
X12672563Y-8766460D02*
X12663039Y-8756936D01*
X12663039Y-8756936D02*
X12653515Y-8737889D01*
X12653515Y-8737889D02*
X12653515Y-8680746D01*
X12653515Y-8680746D02*
X12663039Y-8661698D01*
X12663039Y-8661698D02*
X12672563Y-8652174D01*
X12672563Y-8652174D02*
X12691610Y-8642650D01*
X12691610Y-8642650D02*
X12720182Y-8642650D01*
X12720182Y-8642650D02*
X12739230Y-8652174D01*
X12739230Y-8652174D02*
X12748753Y-8661698D01*
X12748753Y-8661698D02*
X12758277Y-8680746D01*
X12758277Y-8680746D02*
X12758277Y-8737889D01*
X12758277Y-8737889D02*
X12748753Y-8756936D01*
X12748753Y-8756936D02*
X12739230Y-8766460D01*
X12739230Y-8766460D02*
X12720182Y-8775984D01*
X12720182Y-8775984D02*
X12691610Y-8775984D01*
X12872563Y-8775984D02*
X12853515Y-8766460D01*
X12853515Y-8766460D02*
X12843991Y-8747412D01*
X12843991Y-8747412D02*
X12843991Y-8575984D01*
X13024944Y-8766460D02*
X13005896Y-8775984D01*
X13005896Y-8775984D02*
X12967801Y-8775984D01*
X12967801Y-8775984D02*
X12948753Y-8766460D01*
X12948753Y-8766460D02*
X12939230Y-8747412D01*
X12939230Y-8747412D02*
X12939230Y-8671222D01*
X12939230Y-8671222D02*
X12948753Y-8652174D01*
X12948753Y-8652174D02*
X12967801Y-8642650D01*
X12967801Y-8642650D02*
X13005896Y-8642650D01*
X13005896Y-8642650D02*
X13024944Y-8652174D01*
X13024944Y-8652174D02*
X13034468Y-8671222D01*
X13034468Y-8671222D02*
X13034468Y-8690270D01*
X13034468Y-8690270D02*
X12939230Y-8709317D01*
X13110658Y-8766460D02*
X13129706Y-8775984D01*
X13129706Y-8775984D02*
X13167801Y-8775984D01*
X13167801Y-8775984D02*
X13186849Y-8766460D01*
X13186849Y-8766460D02*
X13196372Y-8747412D01*
X13196372Y-8747412D02*
X13196372Y-8737889D01*
X13196372Y-8737889D02*
X13186849Y-8718841D01*
X13186849Y-8718841D02*
X13167801Y-8709317D01*
X13167801Y-8709317D02*
X13139230Y-8709317D01*
X13139230Y-8709317D02*
X13120182Y-8699793D01*
X13120182Y-8699793D02*
X13110658Y-8680746D01*
X13110658Y-8680746D02*
X13110658Y-8671222D01*
X13110658Y-8671222D02*
X13120182Y-8652174D01*
X13120182Y-8652174D02*
X13139230Y-8642650D01*
X13139230Y-8642650D02*
X13167801Y-8642650D01*
X13167801Y-8642650D02*
X13186849Y-8652174D01*
X13263039Y-8852174D02*
X13272563Y-8842650D01*
X13272563Y-8842650D02*
X13291611Y-8814079D01*
X13291611Y-8814079D02*
X13301134Y-8795031D01*
X13301134Y-8795031D02*
X13310658Y-8766460D01*
X13310658Y-8766460D02*
X13320182Y-8718841D01*
X13320182Y-8718841D02*
X13320182Y-8680746D01*
X13320182Y-8680746D02*
X13310658Y-8633127D01*
X13310658Y-8633127D02*
X13301134Y-8604555D01*
X13301134Y-8604555D02*
X13291611Y-8585508D01*
X13291611Y-8585508D02*
X13272563Y-8556936D01*
X13272563Y-8556936D02*
X13263039Y-8547412D01*
D12*
X8251780Y-8994220D02*
X8297500Y-8948500D01*
X8251780Y-8902780D01*
X8206060Y-8948500D01*
X8251780Y-8994220D01*
D11*
X8596372Y-8839984D02*
X8615420Y-8839984D01*
X8615420Y-8839984D02*
X8634467Y-8849508D01*
X8634467Y-8849508D02*
X8643991Y-8859031D01*
X8643991Y-8859031D02*
X8653515Y-8878079D01*
X8653515Y-8878079D02*
X8663039Y-8916174D01*
X8663039Y-8916174D02*
X8663039Y-8963793D01*
X8663039Y-8963793D02*
X8653515Y-9001889D01*
X8653515Y-9001889D02*
X8643991Y-9020936D01*
X8643991Y-9020936D02*
X8634467Y-9030460D01*
X8634467Y-9030460D02*
X8615420Y-9039984D01*
X8615420Y-9039984D02*
X8596372Y-9039984D01*
X8596372Y-9039984D02*
X8577324Y-9030460D01*
X8577324Y-9030460D02*
X8567801Y-9020936D01*
X8567801Y-9020936D02*
X8558277Y-9001889D01*
X8558277Y-9001889D02*
X8548753Y-8963793D01*
X8548753Y-8963793D02*
X8548753Y-8916174D01*
X8548753Y-8916174D02*
X8558277Y-8878079D01*
X8558277Y-8878079D02*
X8567801Y-8859031D01*
X8567801Y-8859031D02*
X8577324Y-8849508D01*
X8577324Y-8849508D02*
X8596372Y-8839984D01*
X8748753Y-9020936D02*
X8758277Y-9030460D01*
X8758277Y-9030460D02*
X8748753Y-9039984D01*
X8748753Y-9039984D02*
X8739229Y-9030460D01*
X8739229Y-9030460D02*
X8748753Y-9020936D01*
X8748753Y-9020936D02*
X8748753Y-9039984D01*
X8853515Y-9039984D02*
X8891610Y-9039984D01*
X8891610Y-9039984D02*
X8910658Y-9030460D01*
X8910658Y-9030460D02*
X8920182Y-9020936D01*
X8920182Y-9020936D02*
X8939229Y-8992365D01*
X8939229Y-8992365D02*
X8948753Y-8954270D01*
X8948753Y-8954270D02*
X8948753Y-8878079D01*
X8948753Y-8878079D02*
X8939229Y-8859031D01*
X8939229Y-8859031D02*
X8929705Y-8849508D01*
X8929705Y-8849508D02*
X8910658Y-8839984D01*
X8910658Y-8839984D02*
X8872563Y-8839984D01*
X8872563Y-8839984D02*
X8853515Y-8849508D01*
X8853515Y-8849508D02*
X8843991Y-8859031D01*
X8843991Y-8859031D02*
X8834467Y-8878079D01*
X8834467Y-8878079D02*
X8834467Y-8925698D01*
X8834467Y-8925698D02*
X8843991Y-8944746D01*
X8843991Y-8944746D02*
X8853515Y-8954270D01*
X8853515Y-8954270D02*
X8872563Y-8963793D01*
X8872563Y-8963793D02*
X8910658Y-8963793D01*
X8910658Y-8963793D02*
X8929705Y-8954270D01*
X8929705Y-8954270D02*
X8939229Y-8944746D01*
X8939229Y-8944746D02*
X8948753Y-8925698D01*
X9139229Y-9039984D02*
X9024944Y-9039984D01*
X9082086Y-9039984D02*
X9082086Y-8839984D01*
X9082086Y-8839984D02*
X9063039Y-8868555D01*
X9063039Y-8868555D02*
X9043991Y-8887603D01*
X9043991Y-8887603D02*
X9024944Y-8897127D01*
X9310658Y-8906650D02*
X9310658Y-9039984D01*
X9263039Y-8830460D02*
X9215420Y-8973317D01*
X9215420Y-8973317D02*
X9339229Y-8973317D01*
X9415420Y-9039984D02*
X9415420Y-8906650D01*
X9415420Y-8925698D02*
X9424944Y-8916174D01*
X9424944Y-8916174D02*
X9443991Y-8906650D01*
X9443991Y-8906650D02*
X9472563Y-8906650D01*
X9472563Y-8906650D02*
X9491610Y-8916174D01*
X9491610Y-8916174D02*
X9501134Y-8935222D01*
X9501134Y-8935222D02*
X9501134Y-9039984D01*
X9501134Y-8935222D02*
X9510658Y-8916174D01*
X9510658Y-8916174D02*
X9529705Y-8906650D01*
X9529705Y-8906650D02*
X9558277Y-8906650D01*
X9558277Y-8906650D02*
X9577325Y-8916174D01*
X9577325Y-8916174D02*
X9586848Y-8935222D01*
X9586848Y-8935222D02*
X9586848Y-9039984D01*
X9682086Y-9039984D02*
X9682086Y-8906650D01*
X9682086Y-8925698D02*
X9691610Y-8916174D01*
X9691610Y-8916174D02*
X9710658Y-8906650D01*
X9710658Y-8906650D02*
X9739229Y-8906650D01*
X9739229Y-8906650D02*
X9758277Y-8916174D01*
X9758277Y-8916174D02*
X9767801Y-8935222D01*
X9767801Y-8935222D02*
X9767801Y-9039984D01*
X9767801Y-8935222D02*
X9777325Y-8916174D01*
X9777325Y-8916174D02*
X9796372Y-8906650D01*
X9796372Y-8906650D02*
X9824944Y-8906650D01*
X9824944Y-8906650D02*
X9843991Y-8916174D01*
X9843991Y-8916174D02*
X9853515Y-8935222D01*
X9853515Y-8935222D02*
X9853515Y-9039984D01*
X10243991Y-8830460D02*
X10072563Y-9087603D01*
X10501134Y-8839984D02*
X10520182Y-8839984D01*
X10520182Y-8839984D02*
X10539229Y-8849508D01*
X10539229Y-8849508D02*
X10548753Y-8859031D01*
X10548753Y-8859031D02*
X10558277Y-8878079D01*
X10558277Y-8878079D02*
X10567801Y-8916174D01*
X10567801Y-8916174D02*
X10567801Y-8963793D01*
X10567801Y-8963793D02*
X10558277Y-9001889D01*
X10558277Y-9001889D02*
X10548753Y-9020936D01*
X10548753Y-9020936D02*
X10539229Y-9030460D01*
X10539229Y-9030460D02*
X10520182Y-9039984D01*
X10520182Y-9039984D02*
X10501134Y-9039984D01*
X10501134Y-9039984D02*
X10482087Y-9030460D01*
X10482087Y-9030460D02*
X10472563Y-9020936D01*
X10472563Y-9020936D02*
X10463039Y-9001889D01*
X10463039Y-9001889D02*
X10453515Y-8963793D01*
X10453515Y-8963793D02*
X10453515Y-8916174D01*
X10453515Y-8916174D02*
X10463039Y-8878079D01*
X10463039Y-8878079D02*
X10472563Y-8859031D01*
X10472563Y-8859031D02*
X10482087Y-8849508D01*
X10482087Y-8849508D02*
X10501134Y-8839984D01*
X10653515Y-9020936D02*
X10663039Y-9030460D01*
X10663039Y-9030460D02*
X10653515Y-9039984D01*
X10653515Y-9039984D02*
X10643991Y-9030460D01*
X10643991Y-9030460D02*
X10653515Y-9020936D01*
X10653515Y-9020936D02*
X10653515Y-9039984D01*
X10786848Y-8839984D02*
X10805896Y-8839984D01*
X10805896Y-8839984D02*
X10824944Y-8849508D01*
X10824944Y-8849508D02*
X10834468Y-8859031D01*
X10834468Y-8859031D02*
X10843991Y-8878079D01*
X10843991Y-8878079D02*
X10853515Y-8916174D01*
X10853515Y-8916174D02*
X10853515Y-8963793D01*
X10853515Y-8963793D02*
X10843991Y-9001889D01*
X10843991Y-9001889D02*
X10834468Y-9020936D01*
X10834468Y-9020936D02*
X10824944Y-9030460D01*
X10824944Y-9030460D02*
X10805896Y-9039984D01*
X10805896Y-9039984D02*
X10786848Y-9039984D01*
X10786848Y-9039984D02*
X10767801Y-9030460D01*
X10767801Y-9030460D02*
X10758277Y-9020936D01*
X10758277Y-9020936D02*
X10748753Y-9001889D01*
X10748753Y-9001889D02*
X10739229Y-8963793D01*
X10739229Y-8963793D02*
X10739229Y-8916174D01*
X10739229Y-8916174D02*
X10748753Y-8878079D01*
X10748753Y-8878079D02*
X10758277Y-8859031D01*
X10758277Y-8859031D02*
X10767801Y-8849508D01*
X10767801Y-8849508D02*
X10786848Y-8839984D01*
X10920182Y-8839984D02*
X11043991Y-8839984D01*
X11043991Y-8839984D02*
X10977325Y-8916174D01*
X10977325Y-8916174D02*
X11005896Y-8916174D01*
X11005896Y-8916174D02*
X11024944Y-8925698D01*
X11024944Y-8925698D02*
X11034468Y-8935222D01*
X11034468Y-8935222D02*
X11043991Y-8954270D01*
X11043991Y-8954270D02*
X11043991Y-9001889D01*
X11043991Y-9001889D02*
X11034468Y-9020936D01*
X11034468Y-9020936D02*
X11024944Y-9030460D01*
X11024944Y-9030460D02*
X11005896Y-9039984D01*
X11005896Y-9039984D02*
X10948753Y-9039984D01*
X10948753Y-9039984D02*
X10929706Y-9030460D01*
X10929706Y-9030460D02*
X10920182Y-9020936D01*
X11215420Y-8839984D02*
X11177325Y-8839984D01*
X11177325Y-8839984D02*
X11158277Y-8849508D01*
X11158277Y-8849508D02*
X11148753Y-8859031D01*
X11148753Y-8859031D02*
X11129706Y-8887603D01*
X11129706Y-8887603D02*
X11120182Y-8925698D01*
X11120182Y-8925698D02*
X11120182Y-9001889D01*
X11120182Y-9001889D02*
X11129706Y-9020936D01*
X11129706Y-9020936D02*
X11139229Y-9030460D01*
X11139229Y-9030460D02*
X11158277Y-9039984D01*
X11158277Y-9039984D02*
X11196372Y-9039984D01*
X11196372Y-9039984D02*
X11215420Y-9030460D01*
X11215420Y-9030460D02*
X11224944Y-9020936D01*
X11224944Y-9020936D02*
X11234467Y-9001889D01*
X11234467Y-9001889D02*
X11234467Y-8954270D01*
X11234467Y-8954270D02*
X11224944Y-8935222D01*
X11224944Y-8935222D02*
X11215420Y-8925698D01*
X11215420Y-8925698D02*
X11196372Y-8916174D01*
X11196372Y-8916174D02*
X11158277Y-8916174D01*
X11158277Y-8916174D02*
X11139229Y-8925698D01*
X11139229Y-8925698D02*
X11129706Y-8935222D01*
X11129706Y-8935222D02*
X11120182Y-8954270D01*
X11358277Y-8839984D02*
X11377325Y-8839984D01*
X11377325Y-8839984D02*
X11396372Y-8849508D01*
X11396372Y-8849508D02*
X11405896Y-8859031D01*
X11405896Y-8859031D02*
X11415420Y-8878079D01*
X11415420Y-8878079D02*
X11424944Y-8916174D01*
X11424944Y-8916174D02*
X11424944Y-8963793D01*
X11424944Y-8963793D02*
X11415420Y-9001889D01*
X11415420Y-9001889D02*
X11405896Y-9020936D01*
X11405896Y-9020936D02*
X11396372Y-9030460D01*
X11396372Y-9030460D02*
X11377325Y-9039984D01*
X11377325Y-9039984D02*
X11358277Y-9039984D01*
X11358277Y-9039984D02*
X11339229Y-9030460D01*
X11339229Y-9030460D02*
X11329706Y-9020936D01*
X11329706Y-9020936D02*
X11320182Y-9001889D01*
X11320182Y-9001889D02*
X11310658Y-8963793D01*
X11310658Y-8963793D02*
X11310658Y-8916174D01*
X11310658Y-8916174D02*
X11320182Y-8878079D01*
X11320182Y-8878079D02*
X11329706Y-8859031D01*
X11329706Y-8859031D02*
X11339229Y-8849508D01*
X11339229Y-8849508D02*
X11358277Y-8839984D01*
X11501134Y-8839984D02*
X11501134Y-8878079D01*
X11577325Y-8839984D02*
X11577325Y-8878079D01*
X11872563Y-9116174D02*
X11863039Y-9106650D01*
X11863039Y-9106650D02*
X11843991Y-9078079D01*
X11843991Y-9078079D02*
X11834468Y-9059031D01*
X11834468Y-9059031D02*
X11824944Y-9030460D01*
X11824944Y-9030460D02*
X11815420Y-8982841D01*
X11815420Y-8982841D02*
X11815420Y-8944746D01*
X11815420Y-8944746D02*
X11824944Y-8897127D01*
X11824944Y-8897127D02*
X11834468Y-8868555D01*
X11834468Y-8868555D02*
X11843991Y-8849508D01*
X11843991Y-8849508D02*
X11863039Y-8820936D01*
X11863039Y-8820936D02*
X11872563Y-8811412D01*
X12034468Y-8906650D02*
X12034468Y-9039984D01*
X11986848Y-8830460D02*
X11939229Y-8973317D01*
X11939229Y-8973317D02*
X12063039Y-8973317D01*
X12291610Y-9039984D02*
X12291610Y-8839984D01*
X12377325Y-9039984D02*
X12377325Y-8935222D01*
X12377325Y-8935222D02*
X12367801Y-8916174D01*
X12367801Y-8916174D02*
X12348753Y-8906650D01*
X12348753Y-8906650D02*
X12320182Y-8906650D01*
X12320182Y-8906650D02*
X12301134Y-8916174D01*
X12301134Y-8916174D02*
X12291610Y-8925698D01*
X12501134Y-9039984D02*
X12482087Y-9030460D01*
X12482087Y-9030460D02*
X12472563Y-9020936D01*
X12472563Y-9020936D02*
X12463039Y-9001889D01*
X12463039Y-9001889D02*
X12463039Y-8944746D01*
X12463039Y-8944746D02*
X12472563Y-8925698D01*
X12472563Y-8925698D02*
X12482087Y-8916174D01*
X12482087Y-8916174D02*
X12501134Y-8906650D01*
X12501134Y-8906650D02*
X12529706Y-8906650D01*
X12529706Y-8906650D02*
X12548753Y-8916174D01*
X12548753Y-8916174D02*
X12558277Y-8925698D01*
X12558277Y-8925698D02*
X12567801Y-8944746D01*
X12567801Y-8944746D02*
X12567801Y-9001889D01*
X12567801Y-9001889D02*
X12558277Y-9020936D01*
X12558277Y-9020936D02*
X12548753Y-9030460D01*
X12548753Y-9030460D02*
X12529706Y-9039984D01*
X12529706Y-9039984D02*
X12501134Y-9039984D01*
X12682087Y-9039984D02*
X12663039Y-9030460D01*
X12663039Y-9030460D02*
X12653515Y-9011412D01*
X12653515Y-9011412D02*
X12653515Y-8839984D01*
X12834468Y-9030460D02*
X12815420Y-9039984D01*
X12815420Y-9039984D02*
X12777325Y-9039984D01*
X12777325Y-9039984D02*
X12758277Y-9030460D01*
X12758277Y-9030460D02*
X12748753Y-9011412D01*
X12748753Y-9011412D02*
X12748753Y-8935222D01*
X12748753Y-8935222D02*
X12758277Y-8916174D01*
X12758277Y-8916174D02*
X12777325Y-8906650D01*
X12777325Y-8906650D02*
X12815420Y-8906650D01*
X12815420Y-8906650D02*
X12834468Y-8916174D01*
X12834468Y-8916174D02*
X12843991Y-8935222D01*
X12843991Y-8935222D02*
X12843991Y-8954270D01*
X12843991Y-8954270D02*
X12748753Y-8973317D01*
X12920182Y-9030460D02*
X12939230Y-9039984D01*
X12939230Y-9039984D02*
X12977325Y-9039984D01*
X12977325Y-9039984D02*
X12996372Y-9030460D01*
X12996372Y-9030460D02*
X13005896Y-9011412D01*
X13005896Y-9011412D02*
X13005896Y-9001889D01*
X13005896Y-9001889D02*
X12996372Y-8982841D01*
X12996372Y-8982841D02*
X12977325Y-8973317D01*
X12977325Y-8973317D02*
X12948753Y-8973317D01*
X12948753Y-8973317D02*
X12929706Y-8963793D01*
X12929706Y-8963793D02*
X12920182Y-8944746D01*
X12920182Y-8944746D02*
X12920182Y-8935222D01*
X12920182Y-8935222D02*
X12929706Y-8916174D01*
X12929706Y-8916174D02*
X12948753Y-8906650D01*
X12948753Y-8906650D02*
X12977325Y-8906650D01*
X12977325Y-8906650D02*
X12996372Y-8916174D01*
X13072563Y-9116174D02*
X13082087Y-9106650D01*
X13082087Y-9106650D02*
X13101134Y-9078079D01*
X13101134Y-9078079D02*
X13110658Y-9059031D01*
X13110658Y-9059031D02*
X13120182Y-9030460D01*
X13120182Y-9030460D02*
X13129706Y-8982841D01*
X13129706Y-8982841D02*
X13129706Y-8944746D01*
X13129706Y-8944746D02*
X13120182Y-8897127D01*
X13120182Y-8897127D02*
X13110658Y-8868555D01*
X13110658Y-8868555D02*
X13101134Y-8849508D01*
X13101134Y-8849508D02*
X13082087Y-8820936D01*
X13082087Y-8820936D02*
X13072563Y-8811412D01*
D12*
X8202500Y-9165000D02*
X8297500Y-9260000D01*
X8297500Y-9165000D02*
X8202500Y-9260000D01*
X8297500Y-9212500D02*
G75*
G02*
X8202500Y-9212500I-47500J0D01*
G01*
X8202500Y-9212500D02*
G75*
G02*
X8297500Y-9212500I47500J0D01*
G01*
D11*
X8596372Y-9103984D02*
X8615420Y-9103984D01*
X8615420Y-9103984D02*
X8634467Y-9113508D01*
X8634467Y-9113508D02*
X8643991Y-9123031D01*
X8643991Y-9123031D02*
X8653515Y-9142079D01*
X8653515Y-9142079D02*
X8663039Y-9180174D01*
X8663039Y-9180174D02*
X8663039Y-9227793D01*
X8663039Y-9227793D02*
X8653515Y-9265889D01*
X8653515Y-9265889D02*
X8643991Y-9284936D01*
X8643991Y-9284936D02*
X8634467Y-9294460D01*
X8634467Y-9294460D02*
X8615420Y-9303984D01*
X8615420Y-9303984D02*
X8596372Y-9303984D01*
X8596372Y-9303984D02*
X8577324Y-9294460D01*
X8577324Y-9294460D02*
X8567801Y-9284936D01*
X8567801Y-9284936D02*
X8558277Y-9265889D01*
X8558277Y-9265889D02*
X8548753Y-9227793D01*
X8548753Y-9227793D02*
X8548753Y-9180174D01*
X8548753Y-9180174D02*
X8558277Y-9142079D01*
X8558277Y-9142079D02*
X8567801Y-9123031D01*
X8567801Y-9123031D02*
X8577324Y-9113508D01*
X8577324Y-9113508D02*
X8596372Y-9103984D01*
X8748753Y-9284936D02*
X8758277Y-9294460D01*
X8758277Y-9294460D02*
X8748753Y-9303984D01*
X8748753Y-9303984D02*
X8739229Y-9294460D01*
X8739229Y-9294460D02*
X8748753Y-9284936D01*
X8748753Y-9284936D02*
X8748753Y-9303984D01*
X8853515Y-9303984D02*
X8891610Y-9303984D01*
X8891610Y-9303984D02*
X8910658Y-9294460D01*
X8910658Y-9294460D02*
X8920182Y-9284936D01*
X8920182Y-9284936D02*
X8939229Y-9256365D01*
X8939229Y-9256365D02*
X8948753Y-9218270D01*
X8948753Y-9218270D02*
X8948753Y-9142079D01*
X8948753Y-9142079D02*
X8939229Y-9123031D01*
X8939229Y-9123031D02*
X8929705Y-9113508D01*
X8929705Y-9113508D02*
X8910658Y-9103984D01*
X8910658Y-9103984D02*
X8872563Y-9103984D01*
X8872563Y-9103984D02*
X8853515Y-9113508D01*
X8853515Y-9113508D02*
X8843991Y-9123031D01*
X8843991Y-9123031D02*
X8834467Y-9142079D01*
X8834467Y-9142079D02*
X8834467Y-9189698D01*
X8834467Y-9189698D02*
X8843991Y-9208746D01*
X8843991Y-9208746D02*
X8853515Y-9218270D01*
X8853515Y-9218270D02*
X8872563Y-9227793D01*
X8872563Y-9227793D02*
X8910658Y-9227793D01*
X8910658Y-9227793D02*
X8929705Y-9218270D01*
X8929705Y-9218270D02*
X8939229Y-9208746D01*
X8939229Y-9208746D02*
X8948753Y-9189698D01*
X9129705Y-9103984D02*
X9034467Y-9103984D01*
X9034467Y-9103984D02*
X9024944Y-9199222D01*
X9024944Y-9199222D02*
X9034467Y-9189698D01*
X9034467Y-9189698D02*
X9053515Y-9180174D01*
X9053515Y-9180174D02*
X9101134Y-9180174D01*
X9101134Y-9180174D02*
X9120182Y-9189698D01*
X9120182Y-9189698D02*
X9129705Y-9199222D01*
X9129705Y-9199222D02*
X9139229Y-9218270D01*
X9139229Y-9218270D02*
X9139229Y-9265889D01*
X9139229Y-9265889D02*
X9129705Y-9284936D01*
X9129705Y-9284936D02*
X9120182Y-9294460D01*
X9120182Y-9294460D02*
X9101134Y-9303984D01*
X9101134Y-9303984D02*
X9053515Y-9303984D01*
X9053515Y-9303984D02*
X9034467Y-9294460D01*
X9034467Y-9294460D02*
X9024944Y-9284936D01*
X9263039Y-9103984D02*
X9282086Y-9103984D01*
X9282086Y-9103984D02*
X9301134Y-9113508D01*
X9301134Y-9113508D02*
X9310658Y-9123031D01*
X9310658Y-9123031D02*
X9320182Y-9142079D01*
X9320182Y-9142079D02*
X9329705Y-9180174D01*
X9329705Y-9180174D02*
X9329705Y-9227793D01*
X9329705Y-9227793D02*
X9320182Y-9265889D01*
X9320182Y-9265889D02*
X9310658Y-9284936D01*
X9310658Y-9284936D02*
X9301134Y-9294460D01*
X9301134Y-9294460D02*
X9282086Y-9303984D01*
X9282086Y-9303984D02*
X9263039Y-9303984D01*
X9263039Y-9303984D02*
X9243991Y-9294460D01*
X9243991Y-9294460D02*
X9234467Y-9284936D01*
X9234467Y-9284936D02*
X9224944Y-9265889D01*
X9224944Y-9265889D02*
X9215420Y-9227793D01*
X9215420Y-9227793D02*
X9215420Y-9180174D01*
X9215420Y-9180174D02*
X9224944Y-9142079D01*
X9224944Y-9142079D02*
X9234467Y-9123031D01*
X9234467Y-9123031D02*
X9243991Y-9113508D01*
X9243991Y-9113508D02*
X9263039Y-9103984D01*
X9415420Y-9303984D02*
X9415420Y-9170650D01*
X9415420Y-9189698D02*
X9424944Y-9180174D01*
X9424944Y-9180174D02*
X9443991Y-9170650D01*
X9443991Y-9170650D02*
X9472563Y-9170650D01*
X9472563Y-9170650D02*
X9491610Y-9180174D01*
X9491610Y-9180174D02*
X9501134Y-9199222D01*
X9501134Y-9199222D02*
X9501134Y-9303984D01*
X9501134Y-9199222D02*
X9510658Y-9180174D01*
X9510658Y-9180174D02*
X9529705Y-9170650D01*
X9529705Y-9170650D02*
X9558277Y-9170650D01*
X9558277Y-9170650D02*
X9577325Y-9180174D01*
X9577325Y-9180174D02*
X9586848Y-9199222D01*
X9586848Y-9199222D02*
X9586848Y-9303984D01*
X9682086Y-9303984D02*
X9682086Y-9170650D01*
X9682086Y-9189698D02*
X9691610Y-9180174D01*
X9691610Y-9180174D02*
X9710658Y-9170650D01*
X9710658Y-9170650D02*
X9739229Y-9170650D01*
X9739229Y-9170650D02*
X9758277Y-9180174D01*
X9758277Y-9180174D02*
X9767801Y-9199222D01*
X9767801Y-9199222D02*
X9767801Y-9303984D01*
X9767801Y-9199222D02*
X9777325Y-9180174D01*
X9777325Y-9180174D02*
X9796372Y-9170650D01*
X9796372Y-9170650D02*
X9824944Y-9170650D01*
X9824944Y-9170650D02*
X9843991Y-9180174D01*
X9843991Y-9180174D02*
X9853515Y-9199222D01*
X9853515Y-9199222D02*
X9853515Y-9303984D01*
X10243991Y-9094460D02*
X10072563Y-9351603D01*
X10501134Y-9103984D02*
X10520182Y-9103984D01*
X10520182Y-9103984D02*
X10539229Y-9113508D01*
X10539229Y-9113508D02*
X10548753Y-9123031D01*
X10548753Y-9123031D02*
X10558277Y-9142079D01*
X10558277Y-9142079D02*
X10567801Y-9180174D01*
X10567801Y-9180174D02*
X10567801Y-9227793D01*
X10567801Y-9227793D02*
X10558277Y-9265889D01*
X10558277Y-9265889D02*
X10548753Y-9284936D01*
X10548753Y-9284936D02*
X10539229Y-9294460D01*
X10539229Y-9294460D02*
X10520182Y-9303984D01*
X10520182Y-9303984D02*
X10501134Y-9303984D01*
X10501134Y-9303984D02*
X10482087Y-9294460D01*
X10482087Y-9294460D02*
X10472563Y-9284936D01*
X10472563Y-9284936D02*
X10463039Y-9265889D01*
X10463039Y-9265889D02*
X10453515Y-9227793D01*
X10453515Y-9227793D02*
X10453515Y-9180174D01*
X10453515Y-9180174D02*
X10463039Y-9142079D01*
X10463039Y-9142079D02*
X10472563Y-9123031D01*
X10472563Y-9123031D02*
X10482087Y-9113508D01*
X10482087Y-9113508D02*
X10501134Y-9103984D01*
X10653515Y-9284936D02*
X10663039Y-9294460D01*
X10663039Y-9294460D02*
X10653515Y-9303984D01*
X10653515Y-9303984D02*
X10643991Y-9294460D01*
X10643991Y-9294460D02*
X10653515Y-9284936D01*
X10653515Y-9284936D02*
X10653515Y-9303984D01*
X10786848Y-9103984D02*
X10805896Y-9103984D01*
X10805896Y-9103984D02*
X10824944Y-9113508D01*
X10824944Y-9113508D02*
X10834468Y-9123031D01*
X10834468Y-9123031D02*
X10843991Y-9142079D01*
X10843991Y-9142079D02*
X10853515Y-9180174D01*
X10853515Y-9180174D02*
X10853515Y-9227793D01*
X10853515Y-9227793D02*
X10843991Y-9265889D01*
X10843991Y-9265889D02*
X10834468Y-9284936D01*
X10834468Y-9284936D02*
X10824944Y-9294460D01*
X10824944Y-9294460D02*
X10805896Y-9303984D01*
X10805896Y-9303984D02*
X10786848Y-9303984D01*
X10786848Y-9303984D02*
X10767801Y-9294460D01*
X10767801Y-9294460D02*
X10758277Y-9284936D01*
X10758277Y-9284936D02*
X10748753Y-9265889D01*
X10748753Y-9265889D02*
X10739229Y-9227793D01*
X10739229Y-9227793D02*
X10739229Y-9180174D01*
X10739229Y-9180174D02*
X10748753Y-9142079D01*
X10748753Y-9142079D02*
X10758277Y-9123031D01*
X10758277Y-9123031D02*
X10767801Y-9113508D01*
X10767801Y-9113508D02*
X10786848Y-9103984D01*
X10920182Y-9103984D02*
X11043991Y-9103984D01*
X11043991Y-9103984D02*
X10977325Y-9180174D01*
X10977325Y-9180174D02*
X11005896Y-9180174D01*
X11005896Y-9180174D02*
X11024944Y-9189698D01*
X11024944Y-9189698D02*
X11034468Y-9199222D01*
X11034468Y-9199222D02*
X11043991Y-9218270D01*
X11043991Y-9218270D02*
X11043991Y-9265889D01*
X11043991Y-9265889D02*
X11034468Y-9284936D01*
X11034468Y-9284936D02*
X11024944Y-9294460D01*
X11024944Y-9294460D02*
X11005896Y-9303984D01*
X11005896Y-9303984D02*
X10948753Y-9303984D01*
X10948753Y-9303984D02*
X10929706Y-9294460D01*
X10929706Y-9294460D02*
X10920182Y-9284936D01*
X11110658Y-9103984D02*
X11243991Y-9103984D01*
X11243991Y-9103984D02*
X11158277Y-9303984D01*
X11405896Y-9170650D02*
X11405896Y-9303984D01*
X11358277Y-9094460D02*
X11310658Y-9237317D01*
X11310658Y-9237317D02*
X11434467Y-9237317D01*
X11501134Y-9103984D02*
X11501134Y-9142079D01*
X11577325Y-9103984D02*
X11577325Y-9142079D01*
X11872563Y-9380174D02*
X11863039Y-9370650D01*
X11863039Y-9370650D02*
X11843991Y-9342079D01*
X11843991Y-9342079D02*
X11834468Y-9323031D01*
X11834468Y-9323031D02*
X11824944Y-9294460D01*
X11824944Y-9294460D02*
X11815420Y-9246841D01*
X11815420Y-9246841D02*
X11815420Y-9208746D01*
X11815420Y-9208746D02*
X11824944Y-9161127D01*
X11824944Y-9161127D02*
X11834468Y-9132555D01*
X11834468Y-9132555D02*
X11843991Y-9113508D01*
X11843991Y-9113508D02*
X11863039Y-9084936D01*
X11863039Y-9084936D02*
X11872563Y-9075412D01*
X12034468Y-9170650D02*
X12034468Y-9303984D01*
X11986848Y-9094460D02*
X11939229Y-9237317D01*
X11939229Y-9237317D02*
X12063039Y-9237317D01*
X12291610Y-9303984D02*
X12291610Y-9103984D01*
X12377325Y-9303984D02*
X12377325Y-9199222D01*
X12377325Y-9199222D02*
X12367801Y-9180174D01*
X12367801Y-9180174D02*
X12348753Y-9170650D01*
X12348753Y-9170650D02*
X12320182Y-9170650D01*
X12320182Y-9170650D02*
X12301134Y-9180174D01*
X12301134Y-9180174D02*
X12291610Y-9189698D01*
X12501134Y-9303984D02*
X12482087Y-9294460D01*
X12482087Y-9294460D02*
X12472563Y-9284936D01*
X12472563Y-9284936D02*
X12463039Y-9265889D01*
X12463039Y-9265889D02*
X12463039Y-9208746D01*
X12463039Y-9208746D02*
X12472563Y-9189698D01*
X12472563Y-9189698D02*
X12482087Y-9180174D01*
X12482087Y-9180174D02*
X12501134Y-9170650D01*
X12501134Y-9170650D02*
X12529706Y-9170650D01*
X12529706Y-9170650D02*
X12548753Y-9180174D01*
X12548753Y-9180174D02*
X12558277Y-9189698D01*
X12558277Y-9189698D02*
X12567801Y-9208746D01*
X12567801Y-9208746D02*
X12567801Y-9265889D01*
X12567801Y-9265889D02*
X12558277Y-9284936D01*
X12558277Y-9284936D02*
X12548753Y-9294460D01*
X12548753Y-9294460D02*
X12529706Y-9303984D01*
X12529706Y-9303984D02*
X12501134Y-9303984D01*
X12682087Y-9303984D02*
X12663039Y-9294460D01*
X12663039Y-9294460D02*
X12653515Y-9275412D01*
X12653515Y-9275412D02*
X12653515Y-9103984D01*
X12834468Y-9294460D02*
X12815420Y-9303984D01*
X12815420Y-9303984D02*
X12777325Y-9303984D01*
X12777325Y-9303984D02*
X12758277Y-9294460D01*
X12758277Y-9294460D02*
X12748753Y-9275412D01*
X12748753Y-9275412D02*
X12748753Y-9199222D01*
X12748753Y-9199222D02*
X12758277Y-9180174D01*
X12758277Y-9180174D02*
X12777325Y-9170650D01*
X12777325Y-9170650D02*
X12815420Y-9170650D01*
X12815420Y-9170650D02*
X12834468Y-9180174D01*
X12834468Y-9180174D02*
X12843991Y-9199222D01*
X12843991Y-9199222D02*
X12843991Y-9218270D01*
X12843991Y-9218270D02*
X12748753Y-9237317D01*
X12920182Y-9294460D02*
X12939230Y-9303984D01*
X12939230Y-9303984D02*
X12977325Y-9303984D01*
X12977325Y-9303984D02*
X12996372Y-9294460D01*
X12996372Y-9294460D02*
X13005896Y-9275412D01*
X13005896Y-9275412D02*
X13005896Y-9265889D01*
X13005896Y-9265889D02*
X12996372Y-9246841D01*
X12996372Y-9246841D02*
X12977325Y-9237317D01*
X12977325Y-9237317D02*
X12948753Y-9237317D01*
X12948753Y-9237317D02*
X12929706Y-9227793D01*
X12929706Y-9227793D02*
X12920182Y-9208746D01*
X12920182Y-9208746D02*
X12920182Y-9199222D01*
X12920182Y-9199222D02*
X12929706Y-9180174D01*
X12929706Y-9180174D02*
X12948753Y-9170650D01*
X12948753Y-9170650D02*
X12977325Y-9170650D01*
X12977325Y-9170650D02*
X12996372Y-9180174D01*
X13072563Y-9380174D02*
X13082087Y-9370650D01*
X13082087Y-9370650D02*
X13101134Y-9342079D01*
X13101134Y-9342079D02*
X13110658Y-9323031D01*
X13110658Y-9323031D02*
X13120182Y-9294460D01*
X13120182Y-9294460D02*
X13129706Y-9246841D01*
X13129706Y-9246841D02*
X13129706Y-9208746D01*
X13129706Y-9208746D02*
X13120182Y-9161127D01*
X13120182Y-9161127D02*
X13110658Y-9132555D01*
X13110658Y-9132555D02*
X13101134Y-9113508D01*
X13101134Y-9113508D02*
X13082087Y-9084936D01*
X13082087Y-9084936D02*
X13072563Y-9075412D01*
D12*
X8197500Y-9426500D02*
X8297500Y-9526500D01*
X8297500Y-9426500D02*
X8197500Y-9526500D01*
X8247500Y-9426500D02*
X8247500Y-9526500D01*
X8197500Y-9476500D02*
X8297500Y-9476500D01*
D11*
X8663039Y-9567984D02*
X8548753Y-9567984D01*
X8605896Y-9567984D02*
X8605896Y-9367984D01*
X8605896Y-9367984D02*
X8586848Y-9396555D01*
X8586848Y-9396555D02*
X8567801Y-9415603D01*
X8567801Y-9415603D02*
X8548753Y-9425127D01*
X8748753Y-9548936D02*
X8758277Y-9558460D01*
X8758277Y-9558460D02*
X8748753Y-9567984D01*
X8748753Y-9567984D02*
X8739229Y-9558460D01*
X8739229Y-9558460D02*
X8748753Y-9548936D01*
X8748753Y-9548936D02*
X8748753Y-9567984D01*
X8882086Y-9367984D02*
X8901134Y-9367984D01*
X8901134Y-9367984D02*
X8920182Y-9377508D01*
X8920182Y-9377508D02*
X8929705Y-9387031D01*
X8929705Y-9387031D02*
X8939229Y-9406079D01*
X8939229Y-9406079D02*
X8948753Y-9444174D01*
X8948753Y-9444174D02*
X8948753Y-9491793D01*
X8948753Y-9491793D02*
X8939229Y-9529889D01*
X8939229Y-9529889D02*
X8929705Y-9548936D01*
X8929705Y-9548936D02*
X8920182Y-9558460D01*
X8920182Y-9558460D02*
X8901134Y-9567984D01*
X8901134Y-9567984D02*
X8882086Y-9567984D01*
X8882086Y-9567984D02*
X8863039Y-9558460D01*
X8863039Y-9558460D02*
X8853515Y-9548936D01*
X8853515Y-9548936D02*
X8843991Y-9529889D01*
X8843991Y-9529889D02*
X8834467Y-9491793D01*
X8834467Y-9491793D02*
X8834467Y-9444174D01*
X8834467Y-9444174D02*
X8843991Y-9406079D01*
X8843991Y-9406079D02*
X8853515Y-9387031D01*
X8853515Y-9387031D02*
X8863039Y-9377508D01*
X8863039Y-9377508D02*
X8882086Y-9367984D01*
X9072563Y-9367984D02*
X9091610Y-9367984D01*
X9091610Y-9367984D02*
X9110658Y-9377508D01*
X9110658Y-9377508D02*
X9120182Y-9387031D01*
X9120182Y-9387031D02*
X9129705Y-9406079D01*
X9129705Y-9406079D02*
X9139229Y-9444174D01*
X9139229Y-9444174D02*
X9139229Y-9491793D01*
X9139229Y-9491793D02*
X9129705Y-9529889D01*
X9129705Y-9529889D02*
X9120182Y-9548936D01*
X9120182Y-9548936D02*
X9110658Y-9558460D01*
X9110658Y-9558460D02*
X9091610Y-9567984D01*
X9091610Y-9567984D02*
X9072563Y-9567984D01*
X9072563Y-9567984D02*
X9053515Y-9558460D01*
X9053515Y-9558460D02*
X9043991Y-9548936D01*
X9043991Y-9548936D02*
X9034467Y-9529889D01*
X9034467Y-9529889D02*
X9024944Y-9491793D01*
X9024944Y-9491793D02*
X9024944Y-9444174D01*
X9024944Y-9444174D02*
X9034467Y-9406079D01*
X9034467Y-9406079D02*
X9043991Y-9387031D01*
X9043991Y-9387031D02*
X9053515Y-9377508D01*
X9053515Y-9377508D02*
X9072563Y-9367984D01*
X9263039Y-9367984D02*
X9282086Y-9367984D01*
X9282086Y-9367984D02*
X9301134Y-9377508D01*
X9301134Y-9377508D02*
X9310658Y-9387031D01*
X9310658Y-9387031D02*
X9320182Y-9406079D01*
X9320182Y-9406079D02*
X9329705Y-9444174D01*
X9329705Y-9444174D02*
X9329705Y-9491793D01*
X9329705Y-9491793D02*
X9320182Y-9529889D01*
X9320182Y-9529889D02*
X9310658Y-9548936D01*
X9310658Y-9548936D02*
X9301134Y-9558460D01*
X9301134Y-9558460D02*
X9282086Y-9567984D01*
X9282086Y-9567984D02*
X9263039Y-9567984D01*
X9263039Y-9567984D02*
X9243991Y-9558460D01*
X9243991Y-9558460D02*
X9234467Y-9548936D01*
X9234467Y-9548936D02*
X9224944Y-9529889D01*
X9224944Y-9529889D02*
X9215420Y-9491793D01*
X9215420Y-9491793D02*
X9215420Y-9444174D01*
X9215420Y-9444174D02*
X9224944Y-9406079D01*
X9224944Y-9406079D02*
X9234467Y-9387031D01*
X9234467Y-9387031D02*
X9243991Y-9377508D01*
X9243991Y-9377508D02*
X9263039Y-9367984D01*
X9415420Y-9567984D02*
X9415420Y-9434650D01*
X9415420Y-9453698D02*
X9424944Y-9444174D01*
X9424944Y-9444174D02*
X9443991Y-9434650D01*
X9443991Y-9434650D02*
X9472563Y-9434650D01*
X9472563Y-9434650D02*
X9491610Y-9444174D01*
X9491610Y-9444174D02*
X9501134Y-9463222D01*
X9501134Y-9463222D02*
X9501134Y-9567984D01*
X9501134Y-9463222D02*
X9510658Y-9444174D01*
X9510658Y-9444174D02*
X9529705Y-9434650D01*
X9529705Y-9434650D02*
X9558277Y-9434650D01*
X9558277Y-9434650D02*
X9577325Y-9444174D01*
X9577325Y-9444174D02*
X9586848Y-9463222D01*
X9586848Y-9463222D02*
X9586848Y-9567984D01*
X9682086Y-9567984D02*
X9682086Y-9434650D01*
X9682086Y-9453698D02*
X9691610Y-9444174D01*
X9691610Y-9444174D02*
X9710658Y-9434650D01*
X9710658Y-9434650D02*
X9739229Y-9434650D01*
X9739229Y-9434650D02*
X9758277Y-9444174D01*
X9758277Y-9444174D02*
X9767801Y-9463222D01*
X9767801Y-9463222D02*
X9767801Y-9567984D01*
X9767801Y-9463222D02*
X9777325Y-9444174D01*
X9777325Y-9444174D02*
X9796372Y-9434650D01*
X9796372Y-9434650D02*
X9824944Y-9434650D01*
X9824944Y-9434650D02*
X9843991Y-9444174D01*
X9843991Y-9444174D02*
X9853515Y-9463222D01*
X9853515Y-9463222D02*
X9853515Y-9567984D01*
X10243991Y-9358460D02*
X10072563Y-9615603D01*
X10501134Y-9367984D02*
X10520182Y-9367984D01*
X10520182Y-9367984D02*
X10539229Y-9377508D01*
X10539229Y-9377508D02*
X10548753Y-9387031D01*
X10548753Y-9387031D02*
X10558277Y-9406079D01*
X10558277Y-9406079D02*
X10567801Y-9444174D01*
X10567801Y-9444174D02*
X10567801Y-9491793D01*
X10567801Y-9491793D02*
X10558277Y-9529889D01*
X10558277Y-9529889D02*
X10548753Y-9548936D01*
X10548753Y-9548936D02*
X10539229Y-9558460D01*
X10539229Y-9558460D02*
X10520182Y-9567984D01*
X10520182Y-9567984D02*
X10501134Y-9567984D01*
X10501134Y-9567984D02*
X10482087Y-9558460D01*
X10482087Y-9558460D02*
X10472563Y-9548936D01*
X10472563Y-9548936D02*
X10463039Y-9529889D01*
X10463039Y-9529889D02*
X10453515Y-9491793D01*
X10453515Y-9491793D02*
X10453515Y-9444174D01*
X10453515Y-9444174D02*
X10463039Y-9406079D01*
X10463039Y-9406079D02*
X10472563Y-9387031D01*
X10472563Y-9387031D02*
X10482087Y-9377508D01*
X10482087Y-9377508D02*
X10501134Y-9367984D01*
X10653515Y-9548936D02*
X10663039Y-9558460D01*
X10663039Y-9558460D02*
X10653515Y-9567984D01*
X10653515Y-9567984D02*
X10643991Y-9558460D01*
X10643991Y-9558460D02*
X10653515Y-9548936D01*
X10653515Y-9548936D02*
X10653515Y-9567984D01*
X10786848Y-9367984D02*
X10805896Y-9367984D01*
X10805896Y-9367984D02*
X10824944Y-9377508D01*
X10824944Y-9377508D02*
X10834468Y-9387031D01*
X10834468Y-9387031D02*
X10843991Y-9406079D01*
X10843991Y-9406079D02*
X10853515Y-9444174D01*
X10853515Y-9444174D02*
X10853515Y-9491793D01*
X10853515Y-9491793D02*
X10843991Y-9529889D01*
X10843991Y-9529889D02*
X10834468Y-9548936D01*
X10834468Y-9548936D02*
X10824944Y-9558460D01*
X10824944Y-9558460D02*
X10805896Y-9567984D01*
X10805896Y-9567984D02*
X10786848Y-9567984D01*
X10786848Y-9567984D02*
X10767801Y-9558460D01*
X10767801Y-9558460D02*
X10758277Y-9548936D01*
X10758277Y-9548936D02*
X10748753Y-9529889D01*
X10748753Y-9529889D02*
X10739229Y-9491793D01*
X10739229Y-9491793D02*
X10739229Y-9444174D01*
X10739229Y-9444174D02*
X10748753Y-9406079D01*
X10748753Y-9406079D02*
X10758277Y-9387031D01*
X10758277Y-9387031D02*
X10767801Y-9377508D01*
X10767801Y-9377508D02*
X10786848Y-9367984D01*
X10920182Y-9367984D02*
X11043991Y-9367984D01*
X11043991Y-9367984D02*
X10977325Y-9444174D01*
X10977325Y-9444174D02*
X11005896Y-9444174D01*
X11005896Y-9444174D02*
X11024944Y-9453698D01*
X11024944Y-9453698D02*
X11034468Y-9463222D01*
X11034468Y-9463222D02*
X11043991Y-9482270D01*
X11043991Y-9482270D02*
X11043991Y-9529889D01*
X11043991Y-9529889D02*
X11034468Y-9548936D01*
X11034468Y-9548936D02*
X11024944Y-9558460D01*
X11024944Y-9558460D02*
X11005896Y-9567984D01*
X11005896Y-9567984D02*
X10948753Y-9567984D01*
X10948753Y-9567984D02*
X10929706Y-9558460D01*
X10929706Y-9558460D02*
X10920182Y-9548936D01*
X11139229Y-9567984D02*
X11177325Y-9567984D01*
X11177325Y-9567984D02*
X11196372Y-9558460D01*
X11196372Y-9558460D02*
X11205896Y-9548936D01*
X11205896Y-9548936D02*
X11224944Y-9520365D01*
X11224944Y-9520365D02*
X11234467Y-9482270D01*
X11234467Y-9482270D02*
X11234467Y-9406079D01*
X11234467Y-9406079D02*
X11224944Y-9387031D01*
X11224944Y-9387031D02*
X11215420Y-9377508D01*
X11215420Y-9377508D02*
X11196372Y-9367984D01*
X11196372Y-9367984D02*
X11158277Y-9367984D01*
X11158277Y-9367984D02*
X11139229Y-9377508D01*
X11139229Y-9377508D02*
X11129706Y-9387031D01*
X11129706Y-9387031D02*
X11120182Y-9406079D01*
X11120182Y-9406079D02*
X11120182Y-9453698D01*
X11120182Y-9453698D02*
X11129706Y-9472746D01*
X11129706Y-9472746D02*
X11139229Y-9482270D01*
X11139229Y-9482270D02*
X11158277Y-9491793D01*
X11158277Y-9491793D02*
X11196372Y-9491793D01*
X11196372Y-9491793D02*
X11215420Y-9482270D01*
X11215420Y-9482270D02*
X11224944Y-9472746D01*
X11224944Y-9472746D02*
X11234467Y-9453698D01*
X11405896Y-9434650D02*
X11405896Y-9567984D01*
X11358277Y-9358460D02*
X11310658Y-9501317D01*
X11310658Y-9501317D02*
X11434467Y-9501317D01*
X11501134Y-9367984D02*
X11501134Y-9406079D01*
X11577325Y-9367984D02*
X11577325Y-9406079D01*
X11872563Y-9644174D02*
X11863039Y-9634650D01*
X11863039Y-9634650D02*
X11843991Y-9606079D01*
X11843991Y-9606079D02*
X11834468Y-9587031D01*
X11834468Y-9587031D02*
X11824944Y-9558460D01*
X11824944Y-9558460D02*
X11815420Y-9510841D01*
X11815420Y-9510841D02*
X11815420Y-9472746D01*
X11815420Y-9472746D02*
X11824944Y-9425127D01*
X11824944Y-9425127D02*
X11834468Y-9396555D01*
X11834468Y-9396555D02*
X11843991Y-9377508D01*
X11843991Y-9377508D02*
X11863039Y-9348936D01*
X11863039Y-9348936D02*
X11872563Y-9339412D01*
X12034468Y-9434650D02*
X12034468Y-9567984D01*
X11986848Y-9358460D02*
X11939229Y-9501317D01*
X11939229Y-9501317D02*
X12063039Y-9501317D01*
X12291610Y-9567984D02*
X12291610Y-9367984D01*
X12377325Y-9567984D02*
X12377325Y-9463222D01*
X12377325Y-9463222D02*
X12367801Y-9444174D01*
X12367801Y-9444174D02*
X12348753Y-9434650D01*
X12348753Y-9434650D02*
X12320182Y-9434650D01*
X12320182Y-9434650D02*
X12301134Y-9444174D01*
X12301134Y-9444174D02*
X12291610Y-9453698D01*
X12501134Y-9567984D02*
X12482087Y-9558460D01*
X12482087Y-9558460D02*
X12472563Y-9548936D01*
X12472563Y-9548936D02*
X12463039Y-9529889D01*
X12463039Y-9529889D02*
X12463039Y-9472746D01*
X12463039Y-9472746D02*
X12472563Y-9453698D01*
X12472563Y-9453698D02*
X12482087Y-9444174D01*
X12482087Y-9444174D02*
X12501134Y-9434650D01*
X12501134Y-9434650D02*
X12529706Y-9434650D01*
X12529706Y-9434650D02*
X12548753Y-9444174D01*
X12548753Y-9444174D02*
X12558277Y-9453698D01*
X12558277Y-9453698D02*
X12567801Y-9472746D01*
X12567801Y-9472746D02*
X12567801Y-9529889D01*
X12567801Y-9529889D02*
X12558277Y-9548936D01*
X12558277Y-9548936D02*
X12548753Y-9558460D01*
X12548753Y-9558460D02*
X12529706Y-9567984D01*
X12529706Y-9567984D02*
X12501134Y-9567984D01*
X12682087Y-9567984D02*
X12663039Y-9558460D01*
X12663039Y-9558460D02*
X12653515Y-9539412D01*
X12653515Y-9539412D02*
X12653515Y-9367984D01*
X12834468Y-9558460D02*
X12815420Y-9567984D01*
X12815420Y-9567984D02*
X12777325Y-9567984D01*
X12777325Y-9567984D02*
X12758277Y-9558460D01*
X12758277Y-9558460D02*
X12748753Y-9539412D01*
X12748753Y-9539412D02*
X12748753Y-9463222D01*
X12748753Y-9463222D02*
X12758277Y-9444174D01*
X12758277Y-9444174D02*
X12777325Y-9434650D01*
X12777325Y-9434650D02*
X12815420Y-9434650D01*
X12815420Y-9434650D02*
X12834468Y-9444174D01*
X12834468Y-9444174D02*
X12843991Y-9463222D01*
X12843991Y-9463222D02*
X12843991Y-9482270D01*
X12843991Y-9482270D02*
X12748753Y-9501317D01*
X12920182Y-9558460D02*
X12939230Y-9567984D01*
X12939230Y-9567984D02*
X12977325Y-9567984D01*
X12977325Y-9567984D02*
X12996372Y-9558460D01*
X12996372Y-9558460D02*
X13005896Y-9539412D01*
X13005896Y-9539412D02*
X13005896Y-9529889D01*
X13005896Y-9529889D02*
X12996372Y-9510841D01*
X12996372Y-9510841D02*
X12977325Y-9501317D01*
X12977325Y-9501317D02*
X12948753Y-9501317D01*
X12948753Y-9501317D02*
X12929706Y-9491793D01*
X12929706Y-9491793D02*
X12920182Y-9472746D01*
X12920182Y-9472746D02*
X12920182Y-9463222D01*
X12920182Y-9463222D02*
X12929706Y-9444174D01*
X12929706Y-9444174D02*
X12948753Y-9434650D01*
X12948753Y-9434650D02*
X12977325Y-9434650D01*
X12977325Y-9434650D02*
X12996372Y-9444174D01*
X13072563Y-9644174D02*
X13082087Y-9634650D01*
X13082087Y-9634650D02*
X13101134Y-9606079D01*
X13101134Y-9606079D02*
X13110658Y-9587031D01*
X13110658Y-9587031D02*
X13120182Y-9558460D01*
X13120182Y-9558460D02*
X13129706Y-9510841D01*
X13129706Y-9510841D02*
X13129706Y-9472746D01*
X13129706Y-9472746D02*
X13120182Y-9425127D01*
X13120182Y-9425127D02*
X13110658Y-9396555D01*
X13110658Y-9396555D02*
X13101134Y-9377508D01*
X13101134Y-9377508D02*
X13082087Y-9348936D01*
X13082087Y-9348936D02*
X13072563Y-9339412D01*
M02*
